<svg version="1.1" id="Layer_1" xmlns:x="ns_extend;" xmlns:i="ns_ai;" xmlns:graph="ns_graphs;" xmlns="http://www.w3.org/2000/svg" xmlns:xlink="http://www.w3.org/1999/xlink" x="0px" y="0px" viewBox="0 0 557.5 64" style="enable-background:new 0 0 557.5 64;" xml:space="preserve">
 <style type="text/css">
  .st0{fill-rule:evenodd;clip-rule:evenodd;fill:#37424A;}
	.st1{fill:#37424A;}
	.st2{fill-rule:evenodd;clip-rule:evenodd;fill:#002857;}
 </style>
 <metadata>
  <sfw xmlns="ns_sfw;">
   <slices>
   </slices>
   <sliceSourceBounds bottomLeftOrigin="true" height="64" width="557.5" x="-174.2" y="-20">
   </sliceSourceBounds>
  </sfw>
 </metadata>
 <g id="logo-horizontal" transform="translate(22621 23641)">
  <path id="Path_12" class="st0" d="M-22491.4-23592h9.3l3.3-4.6h16.8l1.7,4.6h9.2l-10.1-26.1h-10.8L-22491.4-23592z M-22467.8-23612
		l3.6,9.8h-10.6L-22467.8-23612z">
  </path>
  <path id="Path_13" class="st1" d="M-22446.1-23592h8.1l3.4-18.7h0.1l7.5,18.7h6.2l14.2-18.7h0.1l-3.4,18.7h8.1l4.7-26.1h-12.7
		l-12.4,16.8l-6.3-16.8h-12.7L-22446.1-23592z">
  </path>
  <path id="Path_14" class="st1" d="M-22394.4-23592h30l1.1-6.3h-21.8l0.8-4.2h20.2l1-5.4h-20.2l0.8-4.2h21.3l1.1-6.1h-29.6
		L-22394.4-23592z">
  </path>
  <path id="Path_15" class="st0" d="M-22345.7-23611.6h12.9c2.6,0,3.7,0.4,3.3,2.7l-0.2,0.9c-0.3,1.9-1.3,2.7-3.6,2.7h-13.7
		L-22345.7-23611.6z M-22357.5-23592h8.3l1.2-6.8h13c2.6,0,3.2,0.9,2.7,3.6l-0.6,3.1h8.3l0.8-4.4c0.8-4.3-1.1-5.3-3.5-5.8v-0.1
		c3.2-0.4,5.7-3.1,5.8-6.4l0.3-1.7c0.8-4.7-0.3-7.8-6.7-7.8h-25L-22357.5-23592z">
  </path>
  <path id="Path_16" class="st1" d="M-22295.9-23598.7c-1,5.7,1.8,7,9.3,7h10c11,0,13.7-1.2,14.9-8.2c1.4-7.6-1.5-8.4-14.4-8.3
		c-8.9,0-9.9,0-9.5-2.3c0.3-1.4,1.6-2,3.5-2h9.2c3.8,0,3.9,0.8,3.5,2.7h8.3l0.2-0.8c0.8-4.6,0.5-7.7-9.1-7.7h-11.6
		c-10.4,0-11.6,3.6-12.4,8.4c-1.2,6.4,0,7.9,12.5,7.9c10.7,0,11.6,0.1,11.2,2.4c-0.4,2-2.2,2.2-3.9,2.2h-10.1c-2.4,0-3.5-0.2-3-3
		h-8.3L-22295.9-23598.7z">
  </path>
  <path id="Path_17" class="st0" d="M-22256.1-23592h8.3l1.2-6.6h16.5c4.7,0,8.7-3.6,9.1-8.4l0.4-2.2c0.9-5.1-0.3-8.9-8.2-8.9h-22.6
		L-22256.1-23592z M-22244.3-23611.6h12.2c2.5,0,3.2,1,2.9,2.8l-0.2,1c-0.1,1.6-1.6,2.9-3.2,2.8h-12.9L-22244.3-23611.6z">
  </path>
  <path id="Path_18" class="st0" d="M-22216.1-23601.2c-1.4,7.6,2.7,9.4,10.2,9.4h13.3c7.5,0,12.2-1.8,13.6-9.4l1.4-7.8
		c1.4-7.6-2.7-9.4-10.2-9.4h-13.3c-7.5,0-12.2,1.8-13.6,9.4L-22216.1-23601.2z M-22206.6-23606.5c0-2.9,2.4-5.3,5.3-5.3
		c0.3,0,0.6,0,0.8,0.1h9.7c4.4,0,4.8,2,4.2,5.2l-0.5,2.8c-0.7,3.8-1.8,5.2-5.7,5.2h-10.6c-3.9,0-4.5-1.4-3.8-5.2L-22206.6-23606.5z">
  </path>
  <path id="Path_19" class="st0" d="M-22162-23611.6h12.9c2.6,0,3.7,0.4,3.3,2.7l-0.2,0.9c-0.3,1.9-1.3,2.7-3.6,2.7h-13.7
		L-22162-23611.6z M-22173.8-23592h8.3l1.2-6.8h13c2.6,0,3.2,0.9,2.7,3.6l-0.6,3.1h8.3l0.8-4.4c0.8-4.3-1.1-5.3-3.5-5.8v-0.1
		c3.2-0.4,5.7-3.1,5.8-6.4l0.3-1.7c0.8-4.7-0.3-7.8-6.7-7.8h-25L-22173.8-23592z">
  </path>
  <path id="Path_20" class="st1" d="M-22132.8-23611.6h11.6l-3.5,19.6h8.3l3.5-19.6h11.6l1.2-6.5h-31.6L-22132.8-23611.6z">
  </path>
  <path id="Path_21" class="st1" d="M-22098.9-23598.7c-1,5.7,1.8,7,9.3,7h10c11,0,13.7-1.2,14.9-8.2c1.4-7.6-1.5-8.4-14.4-8.3
		c-8.9,0-9.9,0-9.5-2.3c0.3-1.4,1.6-2,3.5-2h9.2c3.8,0,3.9,0.8,3.5,2.7h8.3l0.1-0.8c0.8-4.6,0.5-7.7-9.1-7.7h-11.6
		c-10.4,0-11.6,3.6-12.4,8.4c-1.2,6.4,0,7.9,12.5,7.9c10.7,0,11.6,0.1,11.2,2.4c-0.4,2-2.2,2.2-3.9,2.2h-10.1c-2.4,0-3.5-0.2-3-3
		h-8.3L-22098.9-23598.7z">
  </path>
  <path id="Path_22" class="st2" d="M-22532.1-23614.1c2-0.6,2.4,0.6,2,1.9c-1.4,3.7-2.6,7.4-3.5,11.2c-0.2,1.2-1.3,2.1-2.5,2
		c-7-0.7-14.2-1.2-23.4-1.5c-2-0.1-2.3-1.1,0.1-2.4C-22550.6-23607.3-22541.5-23611-22532.1-23614.1 M-22521.2-23623.4
		c1.6-0.5,2.2,0.6,1.7,1.7c-4.7,8.6-8,17.9-9.7,27.5c-0.3,1.1-1.3,1.7-2.3,1.5c-16.7-2.1-33.5-2.7-50.2-1.7
		c-2.5,0.1-2.9-0.8,1.2-3.4C-22562.2-23609.2-22542.2-23617.9-22521.2-23623.4 M-22507.7-23630.1c-7.8,11.3-15.3,26.4-16.6,41.8
		c-0.1,1.2-1.1,2.1-2.2,2c-0.2,0-0.3,0-0.4-0.1c-24.5-3.6-49.5-3.7-74.1-0.3c-2.6,0.3-2.6-1.2,0.9-4c23.9-19.7,56.5-33.7,90.4-41.5
		C-22507.7-23632.7-22506.7-23631.5-22507.7-23630.1 M-22493.6-23638.8c-15.5,17.8-26.1,37.8-25,57.5c0.1,1.3-0.9,2-2.3,1.8
		c-30.5-6.2-69.7-5.3-98.3,2.4c-0.4,0.1-0.8,0.1-1.3,0.1c-0.3-0.1-0.6-0.4-0.5-0.7c0,0,0,0,0,0c0.1-0.7,1-2,3.2-4.2
		c29.4-31.4,78-51.5,123.3-59C-22493.1-23641.2-22492.7-23639.8-22493.6-23638.8">
  </path>
 </g>
</svg>