<svg version="1.1" id="Layer_1" xmlns:x="ns_extend;" xmlns:i="ns_ai;" xmlns:graph="ns_graphs;" xmlns="http://www.w3.org/2000/svg" xmlns:xlink="http://www.w3.org/1999/xlink" x="0px" y="0px" viewBox="0 0 499.4 114" style="enable-background:new 0 0 499.4 114;" xml:space="preserve">
 <style type="text/css">
  .st0{fill:#0A2240;}
	.st1{fill:#C22133;}
 </style>
 <metadata>
  <sfw xmlns="ns_sfw;">
   <slices>
   </slices>
   <sliceSourceBounds bottomLeftOrigin="true" height="114" width="499.4" x="1300.6" y="2.8">
   </sliceSourceBounds>
  </sfw>
 </metadata>
 <g>
  <g>
   <path class="st0" d="M262.9,59.9c-6.1,2.8-9.5,2.3-7-3.1l7.6-16.1h-5.8l-1.3,2.8c-0.3-1.3-1.9-3.5-4.8-4.3
			c-7.8-2.2-14.5,2.7-18.6,9.5h0c-3.2,5.8-6.7,12.7-13.3,12.7c-3.6,0-4-5-1-10.4l6.9-14.7h5.8l2-4.3h-5.8l8.7-18.4l-7.6,2.6
			L221.1,32h-5.2l-2,4.3h5.2l-7.7,16.5c-1,2.1-2.6,3.9-4.4,5.5c-2.6,2.2-5.4,4.1-7,2.8c-2-1.6-0.6-4.4,1.1-7.8l2.5-4.7
			c2-3.7,3.1-8.8-3.1-9.7c-3.6-0.5-9,0.9-12,3.1c0.1-1.5-0.9-3.2-3.9-3.2c-8.1-0.1-13.8,10.9-19.6,18.6c-5.5,7.2-8.9,3.8-7.2,0.1
			l7.8-16.7h-5.8l-1.3,2.8c-0.3-1.3-1.9-3.5-4.8-4.3c-8-2.3-14.8,2.9-19,10.1c-9.1,14-18.4,14.5-20.4,8.5
			c-1.9-5.8,10.2-10.4,19.5-21.6c5.9-7.1,9.4-17,9-23.9c-0.2-3.8-1.6-6-3.8-6.8c-3.9-1.3-8.7,0.5-12.4,8.3l-16.5,35.2
			C106.9,57,98.7,63,94.4,61.3c-3.4-1.6-4.5-5.3-1.5-10.7l6.7-14.2h6.8l2-4.3h-6.8l8.7-18.4l-7.5,2.6l-7.5,15.8h-5.2l-2,4.3h5.2
			l-6.7,14.2c-10.9,17.8-26.2,12.2-24.7-4c6-0.9,13.9-2.9,16.8-9.8c1-2.4,0.6-4.7,0-4.9c-0.6-0.2-1,0.1-3.3,2.9
			c-3.2,4-8.6,4.9-12.8,5.4c2-10.6,7.9-23.9,20.8-37.7c3.9-4.1-0.5-2-1.6-1.7C58.9,8,44.2,27.1,33.1,41c-10.9,1.8-15.1,7.7-15.6,8.8
			c-0.7,1.4-0.6,1.7,1.4,1.2c2.8-0.8,5.3-1.4,7.5-1.9c-4.6,5.2-7.2,9-12.4,8.9c-7.9-0.1-9.4-8.1-9.2-9.2c0.5-2.2-0.5-2.4-2.5,1.2
			c-2.8,5-0.8,15.8,10.4,16C22.7,66.2,29,57.5,37,47.1c6.7-0.7,10.9,0,18.6-0.1c-0.6,9.6,2.6,17,9.9,18.6c5.8,1.3,14.7,0.2,19.6-5.9
			c0.6,2.2,1.9,4.3,4.2,5.4c5.2,2.5,13.8,0.7,19.7-5.9c0.9,3.9,5.3,6.9,10,6.9c7.3,0,11.4-3.9,13.6-6.3c0,0.2,0.1,0.4,0.1,0.4
			c0.6,2.9,2.7,5.1,5.6,5.7c6.4,1.2,9.9-1.7,11.7-4.1c1.2,3.6,10.2,8.5,18.5-2.1c2.8-3.6,5.4-7.4,9.2-12.4c4-5.2,4.5-3,2.1,2.1
			l-7.9,16.8h7.2l6.3-13.3c1.7-3.5,4.4-6.4,7.9-8c1.4-0.6,2.8-1,4-1c2.9,0,1.2,3.4-0.4,6.6c0,0-0.7,1.3-2.3,4.5
			c-2.3,4.6-1.9,8,0.2,9.7c6.1,5,16.2-3.3,16.2-3.3c0.8,1.7,2.9,4.5,6.6,4.8c4.2,0.3,8.4-0.7,13-5.5c0.7,2.7,2.8,4.8,5.6,5.4
			c6.5,1.2,10.6-2.6,11.7-4.2c1.7,4,7.2,7.4,15.2-0.2c0.2-0.1,0.9-0.8,0.8-1.2c-0.2-0.5-0.8-0.4-1-0.3 M130.6,18.3
			c1.8-4.3,3.6-7.3,5.9-6.9c1.8,0.3,2.3,2,2,4.2c-0.6,4.2-3,10.6-7.2,16.5c-3.4,4.6-8.1,8.5-12.2,11L130.6,18.3L130.6,18.3z
			 M56.3,40.6c-4.1,0.3-8.7,0.2-14,0H42c6.4-8.5,12.8-16.8,19.4-20.7C58.7,27.1,57,34.1,56.3,40.6L56.3,40.6z M140.6,60.5
			c-4.4-4.3,5.4-18.8,11.6-17.7c3.2,0.6,3.8,3.2-0.5,10.6C147.5,60.7,143.4,63.2,140.6,60.5 M249.6,53.3c-4.3,7.4-8.4,9.9-11.2,7.2
			c-4.4-4.3,5.4-18.9,11.7-17.8C253.3,43.3,253.9,46,249.6,53.3z">
   </path>
   <path class="st0" d="M321.7,37.4c8.2-3.2,15.1-11.9,13.3-21.7c1.8-0.3,3.6-0.6,5.4-0.8c0.3,0,1.1-0.1,1.1-0.7c0-0.6-0.7-0.7-1-0.7
			c-2-0.3-4.1-0.5-6.3-0.6C331.9,7,326.6,3.1,319,1.9c-8.1-1.2-13.7,2.2-16.9,5.2c-4.5,4.2-6.9,9.9-6.7,13c0.1,0.3,0.2,0.5,0.5,0.6
			c0.2,0.1,0.5,0,0.6-0.1c3.1-1.8,5.7-2.7,7.1-2.5l0.6,0.1l0.1-0.6c0.2-1.4,1-6.3,4.8-9c2.5-1.8,5.7-2.2,9.6-1.4
			c2,0.4,5.9,2.2,8.1,6c-7.9,1-14.8,4.2-20.4,9.4c-5.8,5.4-10.1,13-14.2,20.4c-4.5,8-8.7,15.5-14.4,19.3l-0.3,0.2v0.3
			c0,2.7-0.6,7.7-1.5,11.9c-0.1,0.5,0.1,0.8,0.3,0.9l0.4,0.1l0.5-0.1c7.6-3.9,15-17.9,21.5-30.2c4-7.6,7.8-14.7,10.7-17.6L310,27
			c3.1-3.1,7-6.9,18.1-9.8c0.2,0.9,0.2,1.8,0.2,2.8c-0.1,2.5-1.5,7.9-6.3,12.1c-0.9,0.9-2.3,1.4-2.7,1.5c-0.2-0.2-0.3-0.3-0.5-0.5
			c-0.1-0.1-0.2-0.2-0.5-0.5c-1.7-1.3-3.6-1.6-5.1-0.7c-1.4,0.7-2.2,2.2-2.1,3.8c0.2,2,1.5,4,4.6,4c0.5,0,1-0.2,1.6-0.5l0.6-0.2
			c3.5,4.3,3.1,12.8-0.8,19.7c-1.9,3.2-7.2,10.5-16.7,8.7c-2.4-0.5-4.6-2-4.9-2.2c-0.5-0.4-0.8-0.4-1.1-0.2c-0.1,0.1-0.4,0.5,0.1,1
			l0.3,0.3c1.4,1.7,4.3,5.4,11.3,6.3c6.5,0.8,13.5-3.4,17.5-10.6C326.9,55.7,328.2,46,321.7,37.4">
   </path>
   <path class="st0" d="M489,37.1L489,37.1c-6-0.4-10.1,5.4-16.3,11.6c-0.2-0.1-0.5-0.3-0.8-0.4c-1.8-0.9-8.6-2.3-10.5,4.3
			c-0.7,2.4-0.4,4.4,0.1,6.1c-5.4,4.1-14.7,5.6-14-1.3c0.4-3.6,5.2-5.5,7.2-6.2c2.1-0.7,3.2-1.1,3.1-1.9c-0.1-0.7-0.9-0.8-3.4-0.9
			c-0.8-1.5-1.1-3.5-0.1-5.1c1.4-2.3,4.4-2.6,5.6-1c1.2,1.6-0.4,3.2,0.3,3.6c1.1,0.6,2.6-1.8,2.1-4.4c-0.5-2.3-5.2-6-10.6-1.8
			c-0.7,0.5-1.2,1.1-1.7,1.6c-2.9,2.9-6.2,5.5-9.8,5.9c1.8-3.3,2.7-7.9-0.8-9.9c-2.8-1.6-7.3-0.5-9.1,2.3c-2,3.2-2.1,9.3,2.9,11
			c-3.4,5.3-7.7,11.3-13,10.8c-2.7-0.2-2.6-5.1,2-12c4-5.9,2.7-9.4,0.1-10.5c-7.1-2.9-14.3,10.3-23.5,19.7c-3.6,3.7-5.7,2.4-4.6-0.7
			c0.1-0.4,0.3-0.7,0.5-1.2l7.6-16.1h-5.8l-1.3,2.8c-0.3-1.3-1.9-3.5-4.8-4.3c-8-2.3-14.9,3-19,10.2c-1.6,2.8-2.1,5.6-2.2,7.7
			c-3.8,3.4-7.3,4.6-9.2,3.1c-2.5-1.9,2.6-12.3,6-17.4c0.2-0.3,0.7-1.1,0.2-1.8c-0.1-0.2-0.6-0.6-1.5-0.3c-3.3,1.1-7.1,1.5-10.2,1
			c1.3-2.2,1.8-3.8,1.6-5c-0.3-2.2-1.5-3.8-3.2-4.4c-1.7-0.7-3.8-0.3-5.3,0.9c-1.7,1.4-2.5,3.7-2.1,6.1c0.2,1.5,1,3,2.1,4.2
			c-1.8,2.4-4,5.1-6,7.4c-4.8,5.5-8.7,9.3-14.2,13.1c-0.4,0.3-1.6,1.3-1.1,1.9c0.3,0.4,1.2,0.3,1.9,0.1c1.5-0.5,3.3-1.2,5.2-2.4
			c3.6-2.1,7.6-5.5,12-10.2c1.8-1.8,4.1-4.6,6-7.2c1.3,0.5,2.7,0.8,4.1,0.8c0.7,0,1.6-0.1,2.4-0.3c-0.4,0.6-0.8,1.4-1.3,2.2
			c-2.9,4.8-7.4,12-2.2,15.8c2.9,2.1,8.7,2,15.4-2.6c1,2,2.8,3.4,5,3.9c6.5,1.2,10.6-2.6,11.8-4.2c0.4,0.9,0.9,1.7,1.6,2.4
			c1.7,1.9,6.5,4.2,13.8-1.9c3.5-2.9,7.3-8.4,12.2-14.4c4.2-5.1,7.2-5.3,2.4,1.8c-2.5,3.8-5.6,9-4.4,12.3
			c3.7,9.5,18.7,2.4,25.3-10.2c0.4,0,0.7,0,1.1,0c1.3,0,2.4-0.2,3.3-0.5c2.9-0.8,5.1-2.3,6.7-3.7c0.4,1.4,1,2.3,1,2.3
			c-4.3,2.1-8.4,4.9-8.6,9.1c-0.2,2.9,1.2,7.4,8.9,7.4c6.5,0,11.1-2.8,13.3-4.4c0.4,0.5,0.8,0.9,1.3,1.3c1.4,1.3,3.9,2.8,8.1,2.8
			c11.5,0,12.9-9.4,12.4-15.6c-0.5-5.6,0.9-8.4,4.5-11.4c0.5-0.4,0.6-0.8,0.5-1.2C490,37.4,489.6,37.1,489,37.1 M351.6,37.3
			c-0.1,0.2-0.4,1.4-1.6,2.8c-0.5-0.5-0.9-1-1.1-1.6c-0.4-1.1-0.2-2,0.5-2.6c0.4-0.3,0.9-0.5,1.3-0.4c0.2,0,0.4,0.1,0.6,0.2
			C351.9,36,351.8,36.8,351.6,37.3 M377.1,60.5c-4.4-4.3,5.4-18.9,11.7-17.8c3.2,0.6,3.8,3.2-0.5,10.6
			C384,60.7,379.9,63.2,377.1,60.5z M436.6,41.2c1.5,0.7,1.1,2.7-1.1,5.9c-0.6-0.2-1.2-0.5-1.6-0.8
			C431.6,44.7,433.8,39.8,436.6,41.2z M466,51c2.2-2.1,4.8-0.3,4.8-0.3s-2.3,2.6-5.8,5.5C464.5,54.5,464.5,52.4,466,51z M481.7,49.5
			c0.1,3.2-0.4,5.8-1,7.2c-0.8,1.9-2.1,3.2-3.5,4l-0.3,0.1c-0.2,0.1-0.4,0.2-0.6,0.3c-0.3,0.1-0.6,0.2-0.9,0.2h-0.1l-0.4,0.1h-0.1
			c-1.2,0.1-2.4,0-3.8-0.3l-0.5-0.1c-0.5-0.1-1-0.3-1.5-0.5l-0.4-0.2c-0.4-0.2-0.7-0.4-1-0.6l-0.4-0.3l-0.1-0.1l0.2-0.1
			c1.3-1,2.9-2.5,4.6-4.2c3-3,6.4-6.6,9-9.5l0,0c0.3-0.2,0.7-0.7,1-0.9C482,44.5,481.6,46.8,481.7,49.5">
   </path>
   <path class="st0" d="M498.4,37.5l-0.7,2h0l-0.7-2h-1v3h0.6v-2.4h0l0.8,2.4h0.6l0.8-2.4h0v2.4h0.6v-3H498.4z">
   </path>
   <path class="st0" d="M493.1,38h0.9v2.5h0.6V38h0.9v-0.5h-2.4L493.1,38z">
   </path>
   <path class="st0" d="M116,104h-11.9v7.4c0,0.3,0.1,0.5,0.2,0.7c0.1,0.2,0.4,0.3,0.7,0.4v0.5h-6.4v-0.5c0.4-0.1,0.6-0.2,0.7-0.4
			c0.1-0.2,0.2-0.4,0.2-0.7V94c0-0.3-0.1-0.5-0.2-0.7c-0.1-0.2-0.4-0.3-0.7-0.4v-0.5h6.4v0.5c-0.4,0.1-0.6,0.2-0.7,0.4
			c-0.1,0.2-0.2,0.4-0.2,0.7v6.6H116V94c0-0.3-0.1-0.5-0.2-0.7c-0.1-0.2-0.4-0.3-0.7-0.4v-0.5h6.4v0.5c-0.4,0.1-0.6,0.2-0.7,0.4
			c-0.1,0.2-0.2,0.4-0.2,0.7v17.4c0,0.3,0.1,0.5,0.2,0.7c0.1,0.2,0.4,0.3,0.7,0.4v0.5H115v-0.5c0.3-0.1,0.6-0.2,0.7-0.4
			c0.1-0.2,0.2-0.4,0.2-0.7L116,104L116,104z">
   </path>
   <path class="st0" d="M155,92.1c3.6,0,6.4,1,8.5,2.9c2.2,2,3.3,4.7,3.3,7.9c0,2-0.5,3.8-1.6,5.5c-2.1,3.3-5.5,5-10.3,5
			c-3.6,0-6.4-1-8.5-2.9c-1.1-1-2-2.3-2.6-3.7c-0.5-1.3-0.8-2.6-0.8-4c0-2.1,0.5-4,1.6-5.7C146.8,93.8,150.2,92.1,155,92.1z
			 M155,95.5c-2,0-3.6,0.6-4.9,1.8c-1.6,1.4-2.3,3.2-2.3,5.4s0.8,4,2.3,5.4c1.3,1.2,2.9,1.8,4.9,1.8c2,0,3.6-0.6,4.9-1.8
			c0.8-0.7,1.4-1.5,1.8-2.5c0.4-0.9,0.5-1.8,0.5-2.8c0-2.3-0.8-4.2-2.3-5.5C158.6,96.2,157,95.6,155,95.5L155,95.5z">
   </path>
   <path class="st0" d="M194.1,109.6h12.7c0.3,0,0.5-0.1,0.7-0.2c0.2-0.1,0.3-0.4,0.4-0.7h0.5v5.3h-0.5c-0.1-0.4-0.2-0.6-0.4-0.7
			c-0.2-0.1-0.4-0.2-0.7-0.2h-18.1v-0.5c0.4-0.1,0.6-0.2,0.7-0.4c0.1-0.2,0.2-0.4,0.2-0.7V94.1c0-0.3-0.1-0.5-0.2-0.7
			c-0.1-0.2-0.4-0.3-0.7-0.4v-0.5h6.4V93c-0.4,0.1-0.6,0.2-0.7,0.4c-0.1,0.2-0.2,0.4-0.2,0.7L194.1,109.6L194.1,109.6z">
   </path>
   <path class="st0" d="M230,111.4V94c0-0.3-0.1-0.5-0.2-0.7c-0.1-0.2-0.4-0.3-0.7-0.4v-0.5h11.5c2.5,0,4.4,0.3,5.8,0.9
			c1.9,0.8,3.4,2.2,4.3,4.1c0.7,1.5,1.1,3.3,1.1,5.3c0,3.6-1.1,6.3-3.3,8.1c-0.9,0.8-2,1.4-3.2,1.7c-1.2,0.3-2.8,0.5-4.7,0.5h-11.5
			v-0.5c0.4-0.1,0.6-0.2,0.7-0.4C229.9,112,230,111.7,230,111.4L230,111.4z M234.5,109.6h5.7c1.8,0,3.1-0.2,4.1-0.7
			c1.9-1,2.9-3.1,2.9-6.2c0-2.2-0.5-3.9-1.6-5.1c-0.6-0.6-1.3-1.1-2.1-1.4c-0.8-0.3-1.9-0.4-3.3-0.4h-5.7L234.5,109.6L234.5,109.6z">
   </path>
   <path class="st0" d="M274.4,111.4V94c0-0.3-0.1-0.5-0.2-0.7c-0.1-0.2-0.4-0.3-0.7-0.4v-0.5h6.4v0.5c-0.4,0.1-0.6,0.2-0.7,0.4
			c-0.1,0.2-0.2,0.4-0.2,0.7v17.4c0,0.3,0.1,0.5,0.2,0.7c0.1,0.2,0.4,0.3,0.7,0.4v0.5h-6.4v-0.5c0.4-0.1,0.6-0.2,0.7-0.4
			C274.4,112,274.4,111.7,274.4,111.4L274.4,111.4z">
   </path>
   <path class="st0" d="M307.2,98.9v12.5c0,0.3,0.1,0.5,0.2,0.7c0.1,0.2,0.4,0.3,0.7,0.4v0.5h-6.1v-0.5c0.4-0.1,0.6-0.2,0.7-0.4
			c0.1-0.2,0.2-0.4,0.2-0.7V94c0-0.3-0.1-0.5-0.2-0.7c-0.1-0.2-0.4-0.3-0.7-0.4v-0.5h7v0.5c-0.4,0.1-0.6,0.3-0.6,0.7
			c0,0.2,0.1,0.5,0.4,0.8l11.3,11.8V94c0-0.3-0.1-0.5-0.2-0.7c-0.1-0.2-0.4-0.3-0.7-0.4v-0.5h6.1v0.5c-0.4,0.1-0.6,0.2-0.7,0.4
			c-0.1,0.2-0.2,0.4-0.2,0.7v17.4c0,0.3,0.1,0.5,0.2,0.7c0.1,0.2,0.4,0.3,0.7,0.4v0.5h-6.5v-0.5c0.4-0.1,0.6-0.3,0.6-0.6
			c0-0.2-0.2-0.5-0.7-1L307.2,98.9L307.2,98.9z">
   </path>
   <path class="st0" d="M365.7,105.6h-5.1c-0.3,0-0.5,0.1-0.7,0.2c-0.2,0.1-0.3,0.4-0.4,0.7h-0.5v-4.8h0.5c0.1,0.4,0.2,0.6,0.4,0.8
			c0.2,0.1,0.4,0.2,0.7,0.2h9.7v0.5c-0.4,0.1-0.6,0.2-0.7,0.4c-0.1,0.2-0.2,0.4-0.2,0.7v4.2c0,0.3,0.1,0.5,0.2,0.7
			c0.1,0.2,0.4,0.3,0.8,0.4v0.4c-3.9,2.2-7.7,3.4-11.4,3.4c-3.3,0-6-0.8-8.1-2.4c-2.6-2-4-4.8-4-8.3c0-3.3,1.2-5.9,3.5-7.9
			c2.2-1.9,5.2-2.8,8.9-2.8c1.2,0,2.3,0.1,3.3,0.3c1,0.2,2.2,0.6,3.6,1.1c0.7,0.3,1.2,0.4,1.5,0.4c0.2,0,0.5-0.1,0.7-0.3l0.4,0.2
			l-2.4,4.9l-0.4-0.2c0-0.3-0.1-0.6-0.1-0.7c-0.1-0.1-0.3-0.3-0.5-0.5c-0.6-0.5-1.5-0.8-2.7-1.2c-1.2-0.3-2.3-0.5-3.4-0.5
			c-2.2,0-3.9,0.6-5.3,1.8c-1.6,1.4-2.4,3.2-2.4,5.4s0.8,3.9,2.3,5.2c1.4,1.2,3.3,1.8,5.6,1.8c1.1,0,2.3-0.1,3.4-0.4
			c1.1-0.3,2.1-0.6,2.9-1.1L365.7,105.6L365.7,105.6z">
   </path>
   <path class="st0" d="M411.6,94.2l-2.5,4.8l-0.4-0.2c0,0,0-0.2,0-0.2c0-0.3-0.3-0.7-0.9-1.1c-1.8-1.3-3.9-1.9-6.3-1.9
			c-1.1,0-2,0.1-2.8,0.4c-0.6,0.2-1.1,0.5-1.4,0.9c-0.4,0.4-0.5,0.8-0.5,1.3c0,0.8,0.5,1.3,1.4,1.6c0.5,0.1,1.5,0.3,3.1,0.4l2.4,0.2
			c1.4,0.1,2.5,0.4,3.4,0.6c0.9,0.3,1.6,0.6,2.3,1.1c0.7,0.5,1.2,1.2,1.6,1.9c0.4,0.8,0.6,1.7,0.6,2.6c0,1.5-0.5,2.7-1.4,3.9
			c-0.8,1-2.2,1.8-3.9,2.3c-1.3,0.4-2.7,0.6-4.3,0.6c-2.7,0-5.4-0.6-8.1-2c-0.6-0.3-0.9-0.4-1-0.4c-0.1,0-0.3,0.1-0.6,0.3l-0.4-0.2
			l2.2-5l0.4,0.2v0.2c0,0.4,0.2,0.9,0.6,1.3c0.6,0.6,1.7,1.1,3,1.5c1.4,0.4,2.7,0.6,3.9,0.6c1.3,0,2.5-0.2,3.4-0.7
			c0.5-0.2,0.9-0.6,1.3-1c0.3-0.4,0.5-0.8,0.5-1.3c0-0.7-0.4-1.2-1.1-1.5c-0.5-0.2-1.6-0.4-3.1-0.6l-2.3-0.2
			c-1.6-0.2-2.7-0.3-3.3-0.5c-0.6-0.1-1.3-0.4-1.9-0.7c-0.9-0.4-1.6-1.1-2.2-2c-0.5-0.8-0.7-1.8-0.7-2.8c0-1.7,0.6-3.2,1.8-4.3
			c1.6-1.5,3.9-2.2,7.1-2.2c1.3,0,2.5,0.1,3.7,0.4c1.1,0.3,2.6,0.8,4.3,1.5c0.6,0.2,0.9,0.3,1.1,0.3c0.2,0,0.5-0.1,0.7-0.3
			L411.6,94.2L411.6,94.2z">
   </path>
  </g>
  <path class="st1" d="M486.9,80.2H0v0.9h486.9V80.2z">
  </path>
 </g>
</svg>