<svg version="1.1" id="Layer_1" xmlns:x="ns_extend;" xmlns:i="ns_ai;" xmlns:graph="ns_graphs;" xmlns="http://www.w3.org/2000/svg" xmlns:xlink="http://www.w3.org/1999/xlink" x="0px" y="0px" viewBox="0 0 570.9 100" style="enable-background:new 0 0 570.9 100;" xml:space="preserve">
 <style type="text/css">
  .st0{fill:#0C539B;}
 </style>
 <metadata>
  <sfw xmlns="ns_sfw;">
   <slices>
   </slices>
   <sliceSourceBounds bottomLeftOrigin="true" height="100" width="570.9" x="-227.6" y="-71.4">
   </sliceSourceBounds>
  </sfw>
 </metadata>
 <g>
  <rect y="1.7" class="st0" width="5.4" height="94.8">
  </rect>
  <rect x="20.1" y="1.7" class="st0" width="6.7" height="94.8">
  </rect>
  <rect x="37.5" y="1.7" class="st0" width="9" height="94.8">
  </rect>
  <rect x="54.9" y="1.7" class="st0" width="13.1" height="94.8">
  </rect>
  <rect x="73.7" y="1.7" class="st0" width="18.8" height="94.8">
  </rect>
  <path class="st0" d="M148.3,74.7h-21.1V24h17.2c8.2,0,7.5,7.5,7.5,7.5c0,6-7,7-7,7h-14.4v17.9h15.6c7.2,0,10.2,3.5,10.2,10.2
		C156.4,74.4,148.3,74.7,148.3,74.7 M167.4,45.3c11.4-2.7,10.7-18.4,10.7-18.4c0-22.4-15.6-25.1-29.8-25.1H97.8v94.8h29.5l18.1-0.2
		c14.9,0,23.8-5,23.8-5c13.1-6.9,13.4-22.3,13.4-22.3C182.2,49.6,167.4,45.3,167.4,45.3">
  </path>
  <path class="st0" d="M265.2,59.3c-2.7-3.7-9-7.4-9-7.4c4-1.7,6-3.7,6-3.7c8.7-6.7,8-19.4,8-19.4c0-14.4-9.7-20.1-9.7-20.1
		c-7.8-6.8-25.1-7-25.1-7h-49.2v94.8h29.1V24.2h20.1c8,1.7,7.4,9.4,7.4,9.4c0.2,5.7-4.4,8.3-7.3,9.4h-15.8v19.8h13.4
		c9.6,2.5,8.7,18.1,8.7,18.1c0.4,9.2,3.7,15.7,3.7,15.7h28.1c-3.6-3.6-4.4-17.1-4.4-17.1C269.9,63.3,265.2,59.3,265.2,59.3">
  </path>
  <rect x="276" y="1.7" class="st0" width="27.8" height="94.8">
  </rect>
  <polygon class="st0" points="367.1,49.6 339.6,1.7 312.2,1.7 312.2,96.5 339.6,96.5 339.6,49.2 367.3,96.5 396.9,96.5 396.9,1.7 
		367.1,1.7 	">
  </polygon>
  <polygon class="st0" points="497.7,1.7 463.5,1.7 434.1,45.4 434.1,1.7 404.6,1.7 404.6,96.5 434.1,96.5 434.1,50.5 463.5,96.5 
		500,96.5 465.9,46.3 	">
  </polygon>
  <path class="st0" d="M566.4,51.7c0,0-5.7-8.1-21-12.6c0,0-10.5-2.7-16.7-4.3c0,0-8.1-1.5-10.2-5.5c-0.6-0.9-1-1.9-0.8-3
		c0,0,0.5-5.6,7.4-5.9c0,0,8.2-1.1,12.5,1.5c0,0,5.4,2.5,4.8,8.8H568c0.2-2.7,0.3-15.1-11.7-23.6c0,0-8.1-7-26.8-7.2
		c0,0-19.4-0.2-31,11.8c0,0-11.4,12.1-4.1,28.8c0,0,4.6,11.4,24.8,16.4c0,0,17.8,4.1,22.6,7.5c0,0,1.2,0.8,2.1,2c1,1.2,2,3,1.2,5.2
		c0,0-1,4.4-6.9,5.9c0,0-11.6,3.4-19.2-2.6c0,0-3.9-2.9-4.1-11.1h-25.6c0,2.1,0.2,11.8,4.3,17.8c0,0,6.2,11.6,21.5,15.3
		c0,0,16.4,4.3,32.6-0.5c0,0,16-3.7,21.3-18.1C568.9,78.2,574.8,63.1,566.4,51.7">
  </path>
  <path class="st0" d="M563.9,99.3c-1.6,0-2.7-1.2-2.7-2.8c0-1.5,1.2-2.8,2.7-2.8c1.6,0,2.7,1.3,2.7,2.8
		C566.6,98,565.5,99.3,563.9,99.3 M563.9,93c-2,0-3.6,1.6-3.6,3.5c0,2,1.6,3.5,3.6,3.5c2,0,3.6-1.6,3.6-3.5
		C567.5,94.5,565.9,93,563.9,93">
  </path>
  <path class="st0" d="M563.8,96.3h-0.4v-1c0.1,0,0.2,0,0.4,0c0.5,0,0.7,0.2,0.7,0.5C564.6,96.2,564.2,96.3,563.8,96.3 M564.7,96.6
		L564.7,96.6c0.4-0.2,0.7-0.5,0.7-0.9c0-0.3-0.1-0.6-0.3-0.8c-0.3-0.1-0.6-0.3-1.2-0.3c-0.6,0-1,0-1.3,0.1v3.5h0.8v-1.4h0.4
		c0.4,0,0.7,0.2,0.7,0.6c0.1,0.4,0.2,0.7,0.3,0.9h0.9c-0.1-0.1-0.1-0.3-0.3-0.9C565.2,97,565.1,96.7,564.7,96.6">
  </path>
 </g>
</svg>