<svg version="1.1" id="Layer_1" xmlns:x="ns_extend;" xmlns:i="ns_ai;" xmlns:graph="ns_graphs;" xmlns="http://www.w3.org/2000/svg" xmlns:xlink="http://www.w3.org/1999/xlink" x="0px" y="0px" viewBox="0 0 277.1 58" style="enable-background:new 0 0 277.1 58;" xml:space="preserve">
 <style type="text/css">
  .st0{fill:#FAB834;}
 </style>
 <metadata>
  <sfw xmlns="ns_sfw;">
   <slices>
   </slices>
   <sliceSourceBounds bottomLeftOrigin="true" height="58" width="277.1" x="-68.6" y="-13.6">
   </sliceSourceBounds>
  </sfw>
 </metadata>
 <g>
  <path d="M73.2,56.4H60.2V28.9H73c5.5,0,9.1,2.8,9.1,7.1l0,0c0,3.2-1.6,4.8-3.6,5.9c3.2,1.2,5.1,3,5.1,6.7l0,0
		C83.5,53.8,79.4,56.4,73.2,56.4z M76,37c0-1.8-1.4-2.8-4-2.8h-5.9V40h5.5C74.2,40,76,39.2,76,37L76,37z M77.6,47.9
		c0-1.8-1.4-3-4.6-3h-6.9v6.1h7.1C75.8,51.1,77.6,50.1,77.6,47.9L77.6,47.9z">
  </path>
  <path d="M129.7,56.4l-2.6-6.1h-11.7l-2.6,6.1h-5.9l11.9-27.7h5.5l11.9,27.7H129.7z M121.3,35.8l-3.6,8.9h7.3L121.3,35.8z">
  </path>
  <path d="M149.8,56.8c-8.1,0-14.1-6.3-14.1-14.3l0,0c0-7.9,5.9-14.3,14.5-14.3c5.1,0,8.3,1.8,10.9,4.2l-3.8,4.4
		c-2.2-2-4.4-3.2-7.1-3.2c-4.6,0-7.9,3.8-7.9,8.5l0,0c0,4.8,3.2,8.7,7.9,8.7c3.2,0,5.1-1.2,7.3-3.2l3.8,4
		C158.4,55,155.2,56.8,149.8,56.8z">
  </path>
  <path d="M182.5,56.4L174,44.7l-3.2,3.4v8.5h-6.1V28.9h6.1V41l11.1-12.1h7.3L178,40.6l11.7,15.8H182.5z">
  </path>
  <path d="M192.8,56.4V28.9h6.1v22h13.7v5.5H192.8z">
  </path>
  <path d="M216.2,56.4V28.9h6.1v27.5H216.2z">
  </path>
  <path d="M246.3,56.4L233,39v17.4h-5.9V28.9h5.5l12.9,17v-17h5.9v27.5H246.3z">
  </path>
  <path d="M256.2,56.4V28.9h20.8v5.3h-14.8v5.5h13.1v5.3h-13.1v5.7h15v5.3h-21V56.4z">
  </path>
  <polygon points="106.1,50.9 92.4,50.9 92.4,28.9 86.5,28.9 86.5,56.4 103.5,56.4 	">
  </polygon>
  <polygon points="47.9,26.9 48.7,23.6 46.9,23.6 46.9,13.9 47.9,13.9 48.7,10.3 46.9,10.3 46.9,1.8 0,1.8 0,58 46.9,58 46.9,42.6 
		47.9,42.6 48.7,39 46.9,39 46.9,26.9 	">
  </polygon>
  <g>
   <path class="st0" d="M48.7,4.4L48.7,4.4V0H1.8v17.2c5.3,4.6,10.3,9.3,15,14.5C26.3,21.4,37,12.3,48.7,4.4z">
   </path>
   <path class="st0" d="M16.8,40.8L16.8,40.8L16.8,40.8z">
   </path>
   <path class="st0" d="M16.8,50.9L16.8,50.9L16.8,50.9z">
   </path>
   <path class="st0" d="M31.9,50.7L31.9,50.7L31.9,50.7z">
   </path>
   <path class="st0" d="M48.7,30.9L48.7,30.9v-7.3l0,0c-7.5,6.5-14.5,14.1-20.6,22l0,0c1.2,1.8,2.6,3.4,3.8,5.1
			C36.8,43.5,42.6,37,48.7,30.9z">
   </path>
   <path class="st0" d="M20.6,36.2L20.6,36.2c1.2,1.6,2.6,3,3.8,4.6l0,0c7.3-8.9,15.4-17,24.3-24l0,0v-6.5
			C38.4,17.8,28.9,26.5,20.6,36.2z">
   </path>
   <path class="st0" d="M20.6,45.5c-1.2-1.6-2.6-3.4-3.8-4.9c-1.4,1.6-2.6,3.2-3.8,4.9l0,0c1.4,1.8,2.6,3.4,3.8,5.1
			C18,49.1,19.2,47.3,20.6,45.5L20.6,45.5z">
   </path>
   <path class="st0" d="M24.3,50.9L24.3,50.9c-1.2,1.8-2.6,3.6-3.8,5.5l0,0h7.3l0,0C26.7,54.4,25.5,52.7,24.3,50.9z">
   </path>
   <path class="st0" d="M9.3,50.9c-1.2,1.8-2.4,3.6-3.6,5.5h7.3l0,0C11.9,54.4,10.5,52.7,9.3,50.9z">
   </path>
   <path class="st0" d="M35.4,56.2L35.4,56.2h13.3V38.8C43.9,44.3,39.4,50.1,35.4,56.2z">
   </path>
   <path class="st0" d="M9.3,50.9L9.3,50.9L9.3,50.9z">
   </path>
   <path class="st0" d="M1.8,50.7c1.2-1.8,2.4-3.4,3.6-5.1l0,0C4.2,43.9,3,42.4,1.8,41C1.8,41,1.8,50.7,1.8,50.7z">
   </path>
   <path class="st0" d="M9.1,40.8c1.2-1.6,2.6-3.2,3.8-4.6l0,0c-3.6-4.2-7.3-7.9-11.1-11.7v7.9C4.4,35,6.7,37.8,9.1,40.8L9.1,40.8z">
   </path>
  </g>
 </g>
</svg>