<svg version="1.1" id="Layer_1" xmlns:x="ns_extend;" xmlns:i="ns_ai;" xmlns:graph="ns_graphs;" xmlns="http://www.w3.org/2000/svg" xmlns:xlink="http://www.w3.org/1999/xlink" x="0px" y="0px" viewBox="0 0 160 65.6" style="enable-background:new 0 0 160 65.6;" xml:space="preserve">
 <style type="text/css">
  .st0{clip-path:url(#SVGID_2_);}
	.st1{fill:#0F216B;}
 </style>
 <metadata>
  <sfw xmlns="ns_sfw;">
   <slices>
   </slices>
   <sliceSourceBounds bottomLeftOrigin="true" height="65.6" width="160" x="210.5" y="-240.3">
   </sliceSourceBounds>
  </sfw>
 </metadata>
 <g>
  <defs>
   <rect id="SVGID_1_" width="160" height="65.6">
   </rect>
  </defs>
  <clipPath id="SVGID_2_">
   <use href="#SVGID_1_" style="overflow:visible;">
   </use>
  </clipPath>
  <g class="st0">
   <path class="st1" d="M61.2,34.1v8.1c1.2,1.8,3.1,2.9,5.7,2.9c3.9,0,6.6-2.9,6.6-6.9c0-3.9-2.8-6.8-6.6-6.8
			C64.3,31.3,62.4,32.4,61.2,34.1z M67.8,49.2c-2.7,0-5-0.8-6.7-2.4v2h-5V16.4h5v13.5c1.8-1.9,4.2-2.8,7-2.8
			c5.7,0,10.3,4.5,10.3,11.1C78.5,44.5,73.7,49.2,67.8,49.2z">
   </path>
   <path class="st1" d="M86.9,16.4h-5v32.4h5V16.4z">
   </path>
   <path class="st1" d="M95.4,35.6H106c-0.6-2.6-2.4-4.4-5.2-4.4C98.2,31.1,96.1,32.7,95.4,35.6z M102.2,49.2
			c-7,0-11.9-4.5-11.9-11.1c0-6.6,5-11.1,10.5-11.1c6.5,0,10.2,4.7,10.2,11.2v1.1H95.3c0.5,3.5,3,5.8,7.3,5.8c2.8,0,6-1.1,7.9-2.6
			v4.3C108.6,48.1,105.4,49.2,102.2,49.2z">
   </path>
   <path class="st1" d="M119.6,33.9v14.9h-5V27.5h5v2.3c1.5-1.7,3.9-2.8,6.7-2.8c5.2,0,8.1,3.5,8.1,8.6v13.2h-5V36.2
			c0-2.7-1.6-4.7-4.5-4.7C122.5,31.4,120.8,32.4,119.6,33.9z">
   </path>
   <path class="st1" d="M149.3,45c2.5,0,4.4-1.1,5.6-2.7v-8.1c-1.2-1.8-3.1-2.9-5.7-2.9c-3.9,0-6.6,2.9-6.6,6.9
			C142.7,42.1,145.5,45,149.3,45z M155,46.3c-1.7,1.9-4.2,2.9-7,2.9c-5.8,0-10.5-4.5-10.5-11c0-6.4,4.8-11.2,10.7-11.2
			c2.6,0,4.9,0.8,6.6,2.3v-13h5v32.4h-5V46.3z">
   </path>
   <path class="st1" d="M25.3,25.6l2.2-1.7c4.7-3.4,4.5-7.6,3.7-10.1C30.3,11,27.7,8,23.2,8H0V0h23.2c7.3,0,13.4,4.5,15.7,11.4
			c2.2,6.9-0.1,14.1-6,18.4l-0.9,0.6L25.3,25.6z M28.7,32.8l4.1,3c5.9,4.3,8.2,11.5,6,18.4c-2.2,6.9-8.4,11.4-15.7,11.4H0v-8h23.1
			c4.5,0,7.1-3,8.1-5.9c0.9-2.8,0.6-6.8-3.1-9.5l-6.2-4.5l-6.8-4.9L8,27.6V38l3.8-2.8l6.8,4.9L6.3,49.1c-1.2,0.9-2.8,1-4.2,0.3
			C0.8,48.7,0,47.3,0,45.8v-26c0-1.5,0.8-2.9,2.2-3.6c1.3-0.7,2.9-0.6,4.2,0.3l15.6,11.3L28.7,32.8z">
   </path>
  </g>
 </g>
</svg>