<svg version="1.1" id="Layer_1" xmlns:x="ns_extend;" xmlns:i="ns_ai;" xmlns:graph="ns_graphs;" xmlns="http://www.w3.org/2000/svg" xmlns:xlink="http://www.w3.org/1999/xlink" x="0px" y="0px" viewBox="0 0 439.3 48" style="enable-background:new 0 0 439.3 48;" xml:space="preserve">
 <style type="text/css">
  .st0{fill:#0F4D43;}
 </style>
 <metadata>
  <sfw xmlns="ns_sfw;">
   <slices>
   </slices>
   <sliceSourceBounds bottomLeftOrigin="true" height="48" width="439.3" x="-19.4" y="-224.2">
   </sliceSourceBounds>
  </sfw>
 </metadata>
 <g>
  <desc id="brandLogoDescID">
   Clover Health logo
  </desc>
  <path class="st0" d="M38.4,32.4c-0.7,0-1.3,0.2-2.2,0.7c-2.6,1.5-6.2,2.4-9.6,2.4c-7.9,0-11.8-4.8-11.8-13.2
		c0-7.2,2.8-9.9,5.4-10.7c0.7-0.2,1.5-0.3,2.2-0.3c3.5,0,6.3,2.4,9.1,7.5c0.8,1.5,1.5,1.8,2.8,1.8c2.9,0,6.6-2.9,6.6-8.6
		c0-6.7-6.8-11.1-17.4-11.1C9.5,0.9,0,10.2,0,24.6C0,40.8,9.7,48,23,48c7.4,0,12-2.1,14.8-4.8c2-1.8,3.3-4.4,3.3-7.1
		C41.2,33,39.5,32.4,38.4,32.4z">
  </path>
  <path class="st0" d="M60,36.9V4.4c0-3.1-1.1-4.1-5.8-4.1h-2.5c-1.4,0-3.2,0.1-4.5,0.3c-1.1,0.2-1.5,0.6-1.5,1.5
		c0,0.7,0.1,1.8,0.1,3v5.6v32.6c0,3.1,1.1,4.1,5.8,4.1h2.5c1.4,0,3.2-0.1,4.5-0.3c1.1-0.2,1.5-0.6,1.5-1.5c0-0.7-0.1-1.8-0.1-3
		L60,36.9L60,36.9z">
  </path>
  <path class="st0" d="M84.7,12c-11.1,0-19.5,6.4-19.5,18.1c0,11.9,7.8,17.8,18.1,17.8c5.3,0,10-1.4,13.5-4.4
		c3.6-3.1,5.8-7.8,5.8-13.7C102.6,17.8,94.9,12,84.7,12z M85.8,38.6c-0.3,0.1-0.7,0.1-1,0.1c-2.5,0-3.9-3.1-4.7-8
		c-0.2-1.4-0.3-2.8-0.3-4.1c0-2.6,0.8-4.3,2.3-5c0.5-0.2,1-0.2,1.2-0.2c2.5,0,3.8,2.9,4.5,7.6c0.2,1.8,0.4,3.3,0.4,4.3
		C88.1,36.3,87.5,38.2,85.8,38.6z">
  </path>
  <path class="st0" d="M140.4,12.8c-0.9-0.1-2.8-0.2-3.9-0.2h-1.2c-1.6,0-4.2,0.2-5,0.2c-1.1,0.2-1.6,0.5-1.9,2
		c-1.4,7.2-2.8,14-4.3,19.4h-0.5c-1.5-5.4-2.8-12.3-4.1-18.8c-0.4-1.9-1.6-2.5-3.5-2.7c-0.9-0.1-2.7-0.2-4.1-0.2h-1.6
		c-1.9,0-3,0.1-4.2,0.2c-1,0.2-1.5,0.5-1.5,1.3c0,0.8,0.4,2.4,1,4.4c2.2,6.9,5.2,16.3,7.9,22.7c1.6,3.7,2.8,5.3,6.2,5.7
		c1.2,0.2,2.7,0.3,4.2,0.3h1c1.5,0,3.6-0.3,4.5-0.5c1.3-0.3,2.1-0.9,2.7-2.2c3.9-8.3,7.2-17.6,9-23.4c0.8-2.8,1.5-5,1.5-6
		C142.8,13.7,142.1,13,140.4,12.8z">
  </path>
  <path class="st0" d="M163.1,12c-11.1,0-17.9,6.9-17.9,18.3c0,11.7,7.7,17.5,18,17.5c6.8,0,10.8-2,13.4-5c1-1.1,2-2.9,2-4.7
		c0-1.2-0.6-1.8-1.5-1.8c-1.2,0-4,0.5-6.5,0.5c-5.6,0-9.3-1.4-10.8-5c6.2,0.1,13.1,0.1,17-0.2c1.2-0.1,1.8-0.5,1.8-2
		c0.1-0.8,0.1-1.4,0.1-2.1C178.7,17.5,172.6,12,163.1,12z M158.8,25.7c0-2.8,0.7-5.3,3-5.8c0.4-0.1,0.6-0.1,0.9-0.1
		c1.4,0,2.6,0.7,3.5,2.1c0.6,0.9,1.1,2.3,1.3,3.7C164.8,25.7,161.5,25.7,158.8,25.7z">
  </path>
  <path class="st0" d="M205.2,12c-3.2,0-5.8,1.5-8.2,5.3h-0.2l-0.3-1.8c-0.4-2.3-1.2-2.9-5.1-2.9h-2.2c-1.4,0-3.2,0.1-4.5,0.3
		c-1.1,0.2-1.5,0.6-1.5,1.5c0,0.7,0.1,1.8,0.1,3v25.7c0,3.1,1.1,4.1,5.8,4.1h2.5c1.4,0,3.2-0.1,4.5-0.3c1.1-0.2,1.5-0.6,1.5-1.5
		c0-0.7-0.1-1.8-0.1-3V24.4c1.6-0.3,3.2-0.5,4.4-0.5c1.2,0,3.2,0.2,4.3,0.3c0.5,0.1,0.9,0.2,1.3,0.2c0.9,0,1.6-0.3,2-1.6
		c0.4-1.2,0.5-2.7,0.5-4.1C210.3,13.7,208,12,205.2,12z">
  </path>
  <path class="st0" d="M269.4,5.4c0-3-0.9-3.8-3.5-4c-0.9-0.1-2.2-0.1-3.7-0.1h-0.5c-1.8,0-3.5,0.1-5.2,0.2c-1.3,0.1-1.9,0.9-1.9,2.1
		c0.1,3.4,0.1,6.3,0.1,10.5v5.3c-3.4-0.1-6.8-0.1-10-0.1V5.4c0-3-0.9-3.8-3.5-4c-0.9-0.1-2.2-0.1-3.7-0.1h-0.5
		c-1.8,0-3.5,0.1-5.2,0.2c-1.3,0.1-1.9,0.9-1.9,2.1c0.1,3.4,0.1,6.3,0.1,10.5v29c0,3,0.9,3.8,3.5,4c0.9,0.1,2.2,0.1,3.7,0.1h0.5
		c1.8,0,3.5-0.1,5.2-0.2c1.3-0.1,1.9-0.9,1.9-2.1c-0.1-3.4-0.1-6.3-0.1-10.5v-4c3.3,0,6.8,0,10,0.1v12.3c0,3,0.9,4,3.5,4.3
		c0.9,0.1,2.2,0.1,3.7,0.1h0.5c1.8,0,3.5-0.1,5.2-0.2c1.3-0.1,1.9-0.9,1.9-2.1c-0.1-3.4-0.1-6.6-0.1-10.7V5.4z">
  </path>
  <path class="st0" d="M291.9,11.8c-11.1,0-17.9,6.9-17.9,18.3c0,11.7,7.7,17.6,18,17.6c6.9,0,10.8-2,13.4-5c1-1.1,2-2.9,2-4.7
		c0-1.2-0.6-1.8-1.5-1.8c-1.2,0-4,0.5-6.5,0.5c-5.6,0-9.3-1.4-10.8-5c6.2,0.1,13.1,0.1,17-0.2c1.2-0.1,1.8-0.5,1.8-2
		c0.1-0.8,0.1-1.5,0.1-2.1C307.6,17.3,301.5,11.8,291.9,11.8z M287.7,25.5c0-2.8,0.7-5.3,3-5.8c0.4-0.1,0.6-0.1,0.9-0.1
		c1.4,0,2.6,0.7,3.5,2.1c0.6,0.9,1.1,2.3,1.3,3.7C293.6,25.5,290.4,25.5,287.7,25.5z">
  </path>
  <path class="st0" d="M346.8,39.3c-2.1-0.2-2.9-1.5-2.9-3.7l-0.1-8.7c0-5.4-0.9-8.6-3.3-11.2c-2.5-2.8-6.6-3.9-12-3.9
		c-5.3,0-9.9,1.3-12.5,3.3c-2.2,1.7-3.2,3.7-3.2,6.2c0,1.8,0.5,3.1,1.8,3.1c0.6,0,1.2-0.2,1.8-0.4c1.9-0.5,4.5-0.9,6.5-0.9
		c4.5,0,6.6,1.1,6.6,3.6v0.8c-1.1-0.2-2.8-0.4-4.8-0.4c-8.7,0-13.7,2.7-13.7,10.2c0,6.8,5.2,10.3,11.2,10.3c3.9,0,6.7-1.5,8.1-3.6
		c1.4,2.2,4,3.6,8.4,3.6c2.8,0,5.2-0.8,7-2.2c1.5-1.2,2.2-2.8,2.2-4.4C348.1,39.8,347.7,39.3,346.8,39.3z M329.6,39.3
		c-0.6,0.6-1.6,0.9-2.5,0.9c-2.1,0-3.7-1-3.7-3.3c0-2.3,1.5-3.4,4-3.4c1.1,0,1.8,0.1,2.2,0.2L329.6,39.3L329.6,39.3z">
  </path>
  <path class="st0" d="M366,36.7V4.1C366,1,365,0,360.2,0h-2.5c-1.4,0-3.2,0.1-4.5,0.3c-1.1,0.2-1.5,0.6-1.5,1.5c0,0.7,0.1,1.8,0.1,3
		c0,1.7,0,3.2,0,5.6V43c0,3.1,1.1,4.1,5.9,4.1h2.5c1.4,0,3.2-0.1,4.5-0.3c1.1-0.2,1.5-0.6,1.5-1.5c0-0.7-0.1-1.8-0.1-3
		C366,40.6,366,39.1,366,36.7z">
  </path>
  <path class="st0" d="M395.6,22.5c1.8,0,2.9-0.4,3.7-1.8c0.5-1.1,0.6-2.4,0.6-3.8c0-0.8,0-2-0.1-2.8c-0.1-1.1-0.5-1.3-1.5-1.3
		c-2.5,0.1-6.6,0.1-9.5,0.1V6c0-1.3-0.5-1.5-1.4-1.5c-1.4-0.1-2.6-0.1-3.9,0.1c-1.4,0.2-2.2,0.6-3.2,1.5l-8.9,7.6
		c-0.9,0.8-1.6,1.6-1.9,2.4c-0.4,1-0.5,2.8-0.5,4.6c0,1.2,0.5,1.8,1.7,1.8h4.4l-0.2,11.2c-0.2,9.4,3.3,14,13.3,14
		c7,0,11.6-2.8,11.6-7.8c0-1.2-0.5-2-1.8-1.9c-0.8,0-1.5,0.1-2.2,0.1c-2.5,0-4.3-0.3-5.4-1.3c-1.5-1.3-1.5-4-1.5-7.3v-6.9H395.6z">
  </path>
  <path class="st0" d="M439.2,42.3V25.7c0-4.1-0.3-6.9-1.1-8.9c-1.3-3.4-4.3-5-9.3-5c-3.8,0-7.7,1.5-10.5,4.1V4.1
		c0-3.1-1.1-4.1-5.9-4.1h-2.5c-1.4,0-3.2,0.1-4.5,0.3c-1.1,0.2-1.5,0.6-1.5,1.5c0,0.7,0.1,1.8,0.1,3V43c0,3.1,1.1,4.1,5.9,4.1h2.5
		c1.4,0,3.2-0.1,4.5-0.3c1.1-0.2,1.5-0.6,1.5-1.5c0-0.7-0.1-1.8-0.1-3V22.7c1-0.5,2.1-0.8,3.2-0.8c2.4,0,3.3,1.1,3.3,5.6V43
		c0,3.1,1.1,4.1,5.9,4.1h2.5c1.4,0,3.2-0.1,4.5-0.3c1.1-0.2,1.5-0.6,1.5-1.5C439.3,44.6,439.2,43.5,439.2,42.3z">
  </path>
 </g>
</svg>