<svg version="1.1" id="Layer_1" xmlns:x="ns_extend;" xmlns:i="ns_ai;" xmlns:graph="ns_graphs;" xmlns="http://www.w3.org/2000/svg" xmlns:xlink="http://www.w3.org/1999/xlink" x="0px" y="0px" viewBox="0 0 372.9 51" style="enable-background:new 0 0 372.9 51;" xml:space="preserve">
 <metadata>
  <sfw xmlns="ns_sfw;">
   <slices>
   </slices>
   <sliceSourceBounds bottomLeftOrigin="true" height="51" width="372.9" x="14.2" y="-225.7">
   </sliceSourceBounds>
  </sfw>
 </metadata>
 <g>
  <path d="M176.3,0l-27.1,36.8L122,0v49.3h6.8V20.6l20.3,27.6l20.3-27.6v28.7h6.8V0z M200,49.3h-6.8V1.8h22c8.4,0,15.3,6.8,15.3,15.3
		s-6.8,15.3-15.3,15.3H200V49.3z M200,25.6h15.3c4.7,0,8.5-3.8,8.5-8.5s-3.8-8.5-8.5-8.5H200V25.6z M277.5,49.3h7.7L259.3,1.5
		l-25.9,47.8h7.7l5.5-10.2H272L277.5,49.3z M250.3,32.3l9-16.6l9,16.6H250.3z M325.4,36c0,8-7.4,14.1-17.2,14.1
		c-6.4-0.1-12.4-3-16.5-8l4.8-4.7c2.8,3.7,7.1,5.9,11.8,6c6.1,0,10.4-3.1,10.4-7.5c0-3.8-2.6-6.3-7.8-7.7l-5.7-1.3
		c-12.2-3-12.2-10.3-12.2-12.7c0-7.6,6.1-12.6,15.2-12.6c5.9,0,11.6,2.5,15.5,6.9l-4.8,4.7c-2.8-3-6.7-4.8-10.7-5
		c-5.4,0-8.4,2.2-8.4,6c0,1.1,0.4,5,6,6.2l5.2,1.2C320.4,23.8,325.4,28.8,325.4,36z M372.9,36c0,8-7.4,14.1-17.2,14.1
		c-6.4-0.1-12.4-3-16.5-8l4.8-4.7c2.8,3.7,7.1,5.9,11.8,6c6.1,0,10.4-3.1,10.4-7.5c0-3.8-2.6-6.3-7.8-7.7l-5.7-1.3
		c-12.2-3-12.2-10.3-12.2-12.7c0-7.6,6.1-12.6,15.2-12.6c5.9,0,11.6,2.5,15.5,6.9l-4.8,4.7c-2.8-3-6.7-4.8-10.7-5
		c-5.4,0-8.4,2.2-8.4,6c0,1.1,0.4,5,6,6.2l5.2,1.2C367.8,23.8,372.9,28.8,372.9,36z M38.6,38.7L38.6,38.7c-7.3,7.3-19.1,7.3-26.4,0
		s-7.3-19.1,0-26.4s19.1-7.3,26.4,0c0,0,0,0,0,0l0,0l1.2,1.2l4.8-4.8l-1.2-1.2l0,0c-9.9-9.9-26-9.9-36,0s-9.9,26,0,36
		c9.9,9.9,26,9.9,35.9,0l0,0l0,0l1.2-1.2l-4.8-4.8L38.6,38.7z M83.1,0.1c-14,0-25.4,11.4-25.4,25.4S69,51,83.1,51
		s25.4-11.4,25.4-25.4S97.1,0.1,83.1,0.1z M83.1,44.2c-10.3,0-18.6-8.3-18.6-18.6S72.8,6.9,83.1,6.9s18.6,8.3,18.6,18.6
		S93.3,44.2,83.1,44.2z M93.9,19.5l-4.8-4.8L72.2,31.6l4.8,4.8L93.9,19.5z">
  </path>
 </g>
</svg>