<svg version="1.1" id="Layer_1" xmlns:x="ns_extend;" xmlns:i="ns_ai;" xmlns:graph="ns_graphs;" xmlns="http://www.w3.org/2000/svg" xmlns:xlink="http://www.w3.org/1999/xlink" x="0px" y="0px" viewBox="0 0 258.4 62" style="enable-background:new 0 0 258.4 62;" xml:space="preserve">
 <style type="text/css">
  .st0{fill:#BE1549;}
 </style>
 <metadata>
  <sfw xmlns="ns_sfw;">
   <slices>
   </slices>
   <sliceSourceBounds bottomLeftOrigin="true" height="62" width="258.4" x="-67.3" y="-16">
   </sliceSourceBounds>
  </sfw>
 </metadata>
 <g>
  <path d="M0,24.9C0,10.1,9.3,0,24.9,0c12.7,0,20.2,6.6,22.2,17.1l-6.7,0.7c-1.5-7.6-7-12.2-15.9-12.2c-11.2,0-17.9,7.6-17.9,19.3
		c0,11.3,6.7,19.5,18.1,19.5c8.4,0,14-4.3,16-11.6l6.3,1.1c-2.7,9.6-9.9,16.1-22.4,16.1C8.6,49.8,0,39.2,0,24.9z M51,31.9
		c0-10.8,7.5-17.6,18.6-17.6s18.6,6.8,18.6,17.6c0,10.8-7.4,17.6-18.6,17.6C58.5,49.5,51,42.7,51,31.9z M82.2,31.9
		c0-8-4.8-12.6-12.5-12.6s-12.5,4.5-12.5,12.6c0,8,4.8,12.6,12.5,12.6C77.4,44.5,82.2,39.9,82.2,31.9z M110.3,14.4
		c0.8,0,1.7,0.1,2.5,0.2v5.7c-0.7-0.1-1.3-0.1-2-0.1c-4.1,0-6.7,1.2-8.5,3.2c-2.9,3.1-3.4,7.4-3.4,11.7v13.5h-5.7V15.3h5.3v8.4
		C100.2,18.3,104.5,14.4,110.3,14.4z M116.8,15.3h5.5v6.5c2.7-4.8,8-7.5,14.3-7.5c10,0,16.6,7,16.6,17.7c0,10.5-7,17.6-17,17.6
		c-6.3,0-11.6-2.9-13.8-6.6v18.6h-5.7V15.3z M147.2,31.9c0-7.8-4.6-12.6-12.1-12.6s-12.7,4.7-12.7,11.8v1.5
		c0,7.1,4.9,11.7,12.3,11.7C142.5,44.4,147.2,39.7,147.2,31.9L147.2,31.9z M156.6,39.7c0-3.2,1.4-5.9,4-7.6
		c2.4-1.5,5.5-2.5,12.1-3.1l12.1-0.9v-0.6c0-5.8-3.5-8.5-10.1-8.5c-6.3,0-10.2,2.5-10.8,7h-6.3c0.7-7,7.2-11.7,17.1-11.7
		c10.7,0,15.9,4.5,15.9,13.9v8.8c0,5.6,0.3,8.6,1,11.6h-6c-0.3-2.1-0.5-4.3-0.5-6.4c-2.5,4.8-7.6,7.4-15.3,7.4
		C161.8,49.5,156.6,45.7,156.6,39.7L156.6,39.7z M185,33.9v-1.7l-13.2,1.3c-6.7,0.7-9,2.5-9,6c0,3.4,3.1,5.3,8.7,5.3
		C179.4,44.9,185,40.6,185,33.9L185,33.9z M195.2,61.7v-5.2c0.9,0.1,1.9,0.2,2.8,0.2c5.2,0,8.3-2.3,10-6.6l0.7-1.8l-16.1-33h6.7
		l11.3,24.4c0.4,1,0.8,2.1,1,3.1h0.1c0.3-0.8,0.6-1.9,1-3.1l10.6-24.4h6.4l-15.9,35.4C210,59,205.3,62,198.6,62
		C197.4,62,196.3,61.9,195.2,61.7L195.2,61.7z">
  </path>
  <path class="st0" d="M258.4,20.8h-6.8L246.2,9l-5.3,11.8h-6.8l8.7-19.4h6.8L258.4,20.8z">
  </path>
 </g>
</svg>