<svg version="1.1" id="Layer_1" xmlns:x="ns_extend;" xmlns:i="ns_ai;" xmlns:graph="ns_graphs;" xmlns="http://www.w3.org/2000/svg" xmlns:xlink="http://www.w3.org/1999/xlink" x="0px" y="0px" viewBox="0 0 127.7 47.7" style="enable-background:new 0 0 127.7 47.7;" xml:space="preserve">
 <style type="text/css">
  .st0{fill-rule:evenodd;clip-rule:evenodd;fill:#151317;}
	.st1{fill-rule:evenodd;clip-rule:evenodd;fill:#647387;}
	.st2{fill-rule:evenodd;clip-rule:evenodd;fill:#1254FF;}
	.st3{fill-rule:evenodd;clip-rule:evenodd;fill:#363A3F;}
	.st4{fill-rule:evenodd;clip-rule:evenodd;fill:#FFFFFF;}
 </style>
 <metadata>
  <sfw xmlns="ns_sfw;">
   <slices>
   </slices>
   <sliceSourceBounds bottomLeftOrigin="true" height="47.7" width="127.7" x="1.8" y="2">
   </sliceSourceBounds>
  </sfw>
 </metadata>
 <g>
  <path class="st0" d="M126.4,23.8C120,37,91.7,47.7,63.4,47.7S17.2,37,23.6,23.8C29.9,10.7,58.3,0,86.6,0S132.8,10.7,126.4,23.8z">
  </path>
  <path class="st1" d="M85.5,1.2c27.2,0,44.3,10,38.2,22.3c-6.1,12.3-33.3,22.3-60.5,22.3S18.9,35.8,25,23.5
		C31.2,11.2,58.4,1.2,85.5,1.2z">
  </path>
  <path class="st0" d="M81.2,3.3c24.6,0,40,9,34.4,20s-30.2,20-54.7,20c-24.6,0-40-9-34.5-20C30,16.2,41.5,10,55.7,6.4
		c1-0.3,2-0.5,3.1-0.7C66,4.1,73.6,3.3,81.2,3.3z">
  </path>
  <path class="st2" d="M113.4,14.2c1.2,2,1.4,4.3,0.5,6.6c-0.9,1.8-1.9,3.2-3.5,4.6c-8,7.3-26.1,12.8-44.2,12.8
		c-21.3,0-34.7-7.6-29.9-16.9C39.7,15,51,9.2,64.5,6.3c1.6-0.4,3.2-0.6,4.8-0.9c-3.2,0.3-6.3,0.8-9.4,1.4
		c-15,3.3-27.7,8.5-31.4,15.8c-5.3,10.7,9.6,19.3,33.2,19.3c19.3,0,38.7-5.8,48-13.7c1.1-0.9,2.3-2.2,3.2-3.5c0.4-0.5,0.7-1.1,1-1.6
		C115.7,19.9,115.3,16.8,113.4,14.2z">
  </path>
  <path class="st3" d="M14.4,21.6c-0.4,0.7-0.9,1.2-1.3,1.5c-0.5,0.4-1.1,0.6-1.9,0.6c-0.5,0-0.9-0.1-1-0.3c0,0-0.2-0.7,0.5-2.9
		c0.5-1.4,1-2.5,1.6-3.1c0.8-0.8,1.6-1.1,2.5-1.1c0.3,0,0.6,0,0.7,0.1c0.1,0.1,0.2,0.1,0.2,0.5l0.1,1.7h7.9
		c-0.5,0.6-0.9,1.3-1.2,2.1h-7.6L14.4,21.6z M33.3,22.1C33,23,32.6,23.7,32.2,24c-0.4,0.3-0.8,0.5-1.2,0.5c-0.1,0-0.1,0-0.2,0
		c0-0.1,0-0.5,0.2-1.3c0.2-0.8,0.6-1.5,1.1-1.9c0.4-0.3,0.8-0.5,1.2-0.5c0.1,0,0.1,0,0.1,0C33.5,21,33.5,21.3,33.3,22.1z M51.9,22.1
		c-0.2,0.8-0.6,1.4-0.9,1.7c-0.3,0.2-0.5,0.4-0.7,0.4c0,0,0,0-0.1,0c0-0.1,0-0.4,0.2-0.9c0.3-1,0.7-1.5,0.9-1.7
		c0.3-0.2,0.5-0.4,0.8-0.4C52.1,21.3,52.1,21.6,51.9,22.1z M106.8,13.9l2.1-6.6l-10.7,4.4l-0.3,0.1l-0.7,2.1h-2.1L95,14.2
		c-0.9-0.4-1.8-0.6-2.7-0.6c-0.7,0-1.4,0.1-2,0.3H82l-1.6,5c0-0.2,0-0.4,0-0.6c-0.1-1.1-0.5-2.1-1.1-2.7c-0.8-0.9-1.9-1.5-3.2-1.7
		c-1-0.2-2.4-0.3-4.4-0.3c-1.1,0-2.2,0.1-3.3,0.2c-1.2,0.2-2.1,0.4-2.8,0.8c-1,0.5-1.9,1-2.6,1.6c-0.6,0.5-1.1,1.2-1.6,2.1
		c-0.1-0.5-0.3-1.1-0.5-1.5c-0.7-1.4-2.2-3.2-5.6-3.2c-0.8,0-1.6,0.1-2.4,0.3h-9.1l-1.3,4.2c-0.2-0.4-0.4-0.9-0.6-1.3
		c-1.4-2.2-3.9-3.3-7.5-3.3c-3,0-5.6,0.8-7.9,2.4c-0.4,0.3-0.8,0.6-1.2,0.9c0-3.1-0.8-5.3-2.6-6.7c-1.5-1.3-3.7-1.9-6.8-1.9
		c-3.6,0-6.9,1-9.5,2.9c-2.7,1.9-4.6,4.7-5.6,8.2c-0.9,2.7-1,5.1-0.3,7c0.7,2,1.9,3.4,3.6,4.2c1.5,0.7,3.5,1.1,6,1.1
		c2.1,0,3.9-0.3,5.4-0.9c1.5-0.6,3-1.4,4.3-2.6c0.6-0.5,1.3-1.3,1.9-2c0.3,1.5,1.1,2.6,1.7,3.2c1.5,1.5,3.7,2.2,6.6,2.2
		c3,0,5.7-0.8,8-2.4c0.6-0.4,1.1-0.8,1.6-1.3l-2.9,8.9h9.5l1.7-5.5c0.8,0.3,1.8,0.5,2.8,0.5c2.2,0,4.3-0.7,6.2-2.2
		c0.5-0.4,1-0.9,1.5-1.4c0.2,0.7,0.5,1.3,1,1.9c1,1.2,2.7,1.8,5,1.8c1.5,0,3-0.2,4.3-0.7c0.2-0.1,0.4-0.2,0.7-0.3l0.2,0.6H86
		l1.9-5.9c0.8-2.5,1.5-3.4,1.8-3.8c0.3-0.3,0.6-0.3,0.8-0.3c0,0,0.2,0,0.7,0.2l1.3,0.6l0.6-0.7h1.8L94.1,24
		c-0.6,1.9-0.8,3.2-0.7,4.2c0.2,1.2,0.8,2.2,1.8,2.8c0.9,0.5,2.1,0.8,3.9,0.8c1.3,0,2.8-0.2,4.4-0.5l0.8-0.2l0.4-0.1l1.6-7.8
		l-2.9,0.8l0.8-2.6h3.1l2.3-7.5H106.8z">
  </path>
  <path class="st0" d="M15.2,21.2l-0.4,0.6c-0.5,0.7-0.9,1.3-1.4,1.6c-0.6,0.5-1.3,0.7-2.2,0.7c-0.7,0-1.2-0.2-1.4-0.5
		c-0.1-0.1-0.3-0.8,0.4-3.3c0.5-1.5,1.1-2.6,1.7-3.3c0.8-0.8,1.8-1.2,2.9-1.2c0.4,0,0.7,0.1,1,0.2c0.3,0.2,0.4,0.4,0.5,0.9l0.1,1.2
		h8.3c-0.8,0.9-1.5,1.9-2,3h-7.5V21.2z M33.7,22.2c-0.3,1-0.7,1.8-1.2,2.2C32,24.8,31.5,25,31,25c-0.4,0-0.5-0.2-0.6-0.3
		c0,0-0.2-0.4,0.2-1.7c0.3-0.9,0.7-1.6,1.2-2.1c0.5-0.4,1-0.6,1.5-0.6c0.4,0,0.5,0.1,0.5,0.2C33.9,20.7,34.1,21,33.7,22.2z M50,23.1
		c0.3-0.9,0.7-1.6,1.1-1.9c0.4-0.3,0.8-0.5,1.2-0.5c0.2,0,0.2,0,0.3,0.1c0,0.1,0.1,0.5-0.2,1.4c-0.3,0.9-0.6,1.6-1.1,2
		c-0.4,0.3-0.7,0.5-1,0.5c-0.4,0-0.5-0.1-0.5-0.2S49.6,24.1,50,23.1z M60.7,22.8c0.2-0.7,0.3-1.4,0.4-2l2.5,0.3
		c-0.9,0.3-1.7,0.7-2.3,1.2C61.1,22.4,60.9,22.6,60.7,22.8z M107.2,20.9l2-6.5h-3.1l2-6.3l-9.8,4l-0.7,2.2h-2.1l-0.1,0.5
		c-1-0.5-2-0.8-3-0.8c-0.7,0-1.3,0.1-1.9,0.3h-8.1l-4.8,15.4v-0.3c-0.1-0.6-0.1-1-0.1-1.1c0-0.2,0.1-0.5,0.3-1.2l1.9-6.1
		c0.3-0.8,0.4-1.6,0.3-2.6c-0.1-1-0.4-1.9-1-2.4c-0.7-0.8-1.7-1.3-3-1.5c-1-0.2-2.4-0.3-4.3-0.3c-1.1,0-2.2,0.1-3.2,0.2
		c-1.2,0.2-2,0.4-2.7,0.7c-1,0.4-1.8,0.9-2.4,1.5c-0.7,0.6-1.3,1.4-1.8,2.5L61.1,20c0-1.1-0.2-2.1-0.6-2.9c-0.6-1.3-2-2.9-5.2-2.9
		c-1.1,0-2.1,0.2-3.2,0.6l0.1-0.3h-8.1l-1.8,5.7c0-1.1-0.3-2.1-0.9-3c-1.3-2-3.7-3-7.1-3c-2.9,0-5.4,0.8-7.6,2.3
		c-0.7,0.5-1.4,1.1-1.9,1.7V17c0-2.9-0.8-5-2.4-6.3c-1.4-1.2-3.5-1.8-6.5-1.8c-3.5,0-6.7,1-9.3,2.8c-2.6,1.9-4.4,4.6-5.5,8
		c-0.8,2.6-0.9,4.9-0.3,6.7c0.7,1.9,1.8,3.2,3.3,3.9c1.4,0.7,3.4,1.1,5.8,1.1c2,0,3.8-0.3,5.2-0.8c1.5-0.5,2.9-1.4,4.1-2.5
		c0.8-0.8,1.8-1.8,2.5-2.9c0.1,2,0.9,3.3,1.7,4.1c1.4,1.4,3.5,2.1,6.2,2.1c2.9,0,5.5-0.8,7.7-2.3c1.2-0.9,2.2-1.9,3-3l-3.2,10.3h8.5
		l1.8-5.7c0.1,0.1,0.2,0.1,0.3,0.2c0.8,0.4,1.8,0.6,2.8,0.6c2.1,0,4.1-0.7,5.9-2.1c0.8-0.6,1.5-1.4,2.2-2.3c-0.1,1.3,0.5,2.2,1,2.8
		c1,1.1,2.5,1.6,4.7,1.6c1.5,0,2.9-0.2,4.1-0.7c0.4-0.1,0.7-0.3,1.1-0.5l0.3,0.8h15.9l1.7-5.6c0.8-2.4,1.5-3.5,2-4
		c0.4-0.3,0.7-0.5,1.1-0.5c0.1,0,0.4,0,0.9,0.3l0.9,0.4l0.5-0.6h2.7l-1,3.1c-0.6,1.8-0.8,3.1-0.6,4c0.2,1.1,0.7,2,1.6,2.5
		c0.8,0.5,2,0.7,3.7,0.7c1.3,0,2.7-0.2,4.3-0.5l0.9-0.2l1.4-6.7l-2.1,0.6c-0.3,0.1-0.6,0.2-0.8,0.2l1.2-3.8h3.1V20.9z">
  </path>
  <path class="st4" d="M18.6,27c1.2-1.1,2.6-2.9,3.3-4.4h-6c-0.5,0.8-1.1,1.5-1.7,2c-0.8,0.6-1.8,1-3,1s-2.1-0.4-2.5-1.2
		C8.2,23.6,8.4,22.1,9,20c0.6-1.7,1.2-3,2.1-3.8c1.1-1.1,2.4-1.6,3.8-1.6c0.6,0,1.2,0.1,1.6,0.4c0.8,0.4,1.1,1.1,1.2,2h6
		c0-1.9-0.3-4-1.9-5.3c-1.2-1-3-1.5-5.6-1.5c-3.3,0-6.1,0.9-8.5,2.6c-2.3,1.7-4,4.1-5,7.3c-0.8,2.4-0.9,4.3-0.3,5.9
		c0.6,1.5,1.4,2.6,2.7,3.2c1.2,0.6,2.9,0.9,5.2,0.9c1.8,0,3.4-0.2,4.8-0.8C16.2,28.7,17.4,28,18.6,27z M33.3,25.4
		c0.7-0.6,1.3-1.5,1.7-2.8c0.4-1.2,0.4-2.1,0-2.7c-0.3-0.6-0.9-0.9-1.7-0.9c-0.9,0-1.6,0.3-2.4,0.9c-0.7,0.6-1.3,1.5-1.6,2.7
		c-0.4,1.2-0.4,2.1,0,2.7c0.3,0.6,0.9,0.9,1.7,0.9C31.9,26.3,32.6,26,33.3,25.4z M34.4,15.4c3,0,5,0.8,6,2.4
		c0.8,1.3,0.9,2.9,0.3,4.8c-0.7,2.1-2,3.9-3.9,5.2c-1.9,1.4-4.2,2.1-6.9,2.1c-2.4,0-4.2-0.6-5.3-1.7c-1.4-1.4-1.7-3.3-1-5.5
		c0.7-2.1,2-3.9,3.9-5.2C29.5,16.1,31.8,15.4,34.4,15.4z M53.7,22.6c-0.4,1.2-0.9,2.1-1.5,2.6S51,26,50.3,26c-0.8,0-1.3-0.3-1.6-0.8
		s-0.3-1.4,0-2.5c0.4-1.2,0.9-2.1,1.5-2.6c0.7-0.5,1.3-0.8,2.1-0.8c0.7,0,1.1,0.2,1.4,0.8C54.1,20.6,54,21.4,53.7,22.6z M59.3,17.5
		c-0.7-1.4-2-2.1-4-2.1c-1,0-2,0.2-2.9,0.6c-0.7,0.3-1.6,0.9-2.6,1.7l0.6-2h-5.3l-6,19.2h5.7l2.1-6.6c0.4,0.6,0.9,1,1.6,1.2
		c0.6,0.3,1.4,0.4,2.3,0.4c1.8,0,3.5-0.6,5-1.8c1.6-1.2,2.7-3,3.4-5.3C60,20.7,60,18.9,59.3,17.5z M70.9,25.5c0.4-0.4,0.6-1,0.9-1.6
		l0.3-0.9c-0.9,0.3-1.7,0.5-2.7,0.7c-1.2,0.3-2.1,0.6-2.5,0.9c-0.4,0.3-0.7,0.6-0.8,1s-0.1,0.8,0.1,1c0.2,0.3,0.6,0.4,1.2,0.4
		c0.7,0,1.3-0.1,1.9-0.4C70.1,26.2,70.6,25.9,70.9,25.5z M78,16.8c0.4,0.4,0.6,0.9,0.6,1.6c0,0.7,0,1.4-0.2,2.1l-1.9,6.1
		c-0.2,0.7-0.3,1.2-0.3,1.5c0,0.4,0,0.8,0.1,1.4H71c-0.1-0.4-0.2-0.6-0.2-0.8s0-0.5,0.1-0.9c-0.9,0.7-1.8,1.1-2.7,1.4
		c-1.1,0.4-2.4,0.6-3.7,0.6c-1.8,0-3-0.4-3.7-1.2c-0.7-0.8-0.8-1.7-0.5-2.8c0.3-1,0.9-1.9,1.8-2.6s2.3-1.2,4.2-1.5
		c2.3-0.4,3.7-0.7,4.4-0.8c0.7-0.2,1.4-0.4,2.2-0.6c0.2-0.7,0.2-1.1,0-1.4c-0.2-0.3-0.7-0.4-1.4-0.4c-0.9,0-1.7,0.1-2.2,0.4
		c-0.4,0.2-0.8,0.6-1.3,1.2l-5.3-0.4c0.5-0.9,1-1.6,1.6-2.1c0.5-0.5,1.2-0.9,2.1-1.3c0.6-0.3,1.4-0.5,2.3-0.6c1-0.1,2-0.2,3-0.2
		c1.7,0,3.1,0.1,4,0.3C76.8,15.8,77.5,16.2,78,16.8z M83.4,15.7h5.3L88,18c0.8-1,1.6-1.6,2.2-2c0.7-0.4,1.4-0.6,2.2-0.6
		c0.9,0,1.7,0.2,2.5,0.7L92,19.9c-0.6-0.3-1.1-0.4-1.5-0.4c-0.8,0-1.4,0.3-2,0.8c-0.8,0.8-1.6,2.3-2.3,4.6l-1.5,4.7H79L83.4,15.7z
		 M104.3,15.7l1.7-5.3l-6.6,2.7l-0.8,2.6h-2.1l-1.2,3.9h2.1l-1.5,4.9c-0.5,1.6-0.7,2.7-0.6,3.4c0.1,0.7,0.4,1.2,1,1.6
		c0.6,0.3,1.6,0.5,3,0.5c1.2,0,2.6-0.1,4.1-0.4l0.8-3.7c-0.8,0.2-1.5,0.4-1.9,0.4c-0.5,0-0.8-0.2-0.8-0.5c0-0.2,0-0.6,0.2-1.2
		l1.5-4.9h3.1l1.2-3.9h-3.2V15.7z">
  </path>
 </g>
</svg>