<svg version="1.1" id="Layer_1" xmlns:x="ns_extend;" xmlns:i="ns_ai;" xmlns:graph="ns_graphs;" xmlns="http://www.w3.org/2000/svg" xmlns:xlink="http://www.w3.org/1999/xlink" x="0px" y="0px" viewBox="0 0 219.3 40.5" style="enable-background:new 0 0 219.3 40.5;" xml:space="preserve">
 <style type="text/css">
  .st0{fill:#0073AE;}
	.st1{fill:#666666;}
 </style>
 <metadata>
  <sfw xmlns="ns_sfw;">
   <slices>
   </slices>
   <sliceSourceBounds bottomLeftOrigin="true" height="40.5" width="219.3" x="1.9" y="1.6">
   </sliceSourceBounds>
  </sfw>
 </metadata>
 <g>
  <path class="st0" d="M33.2,4.5c0.3,0.2,0.5,0.6,0.5,0.9c-0.1,1.5,0,2.9,0.1,4.4c0,0.5-0.2,0.9-0.4,0.9S33.1,10.4,33,10
		c-0.5-1.8-1.5-3.4-2.9-4.7c-2.3-2-6.1-3-9.6-3C16.2,2.2,12,4,9.1,7.1c-2.3,2.4-4.6,7.6-4.6,13.4c0.1,5.3,2.2,10.4,5.8,14.2
		c2.9,2.8,6.8,4.3,10.9,4.3c2.6,0.1,5.1-0.4,7.4-1.6c2.3-1.3,4-3.4,4.8-5.8c0.2-0.8,0.4-1,0.6-1s0.4,0.5,0.4,0.9
		c-0.2,1.6-0.5,3.2-0.9,4.8c-0.1,0.3-0.3,0.5-0.5,0.7c-3.7,2.2-7.8,3.3-12.1,3.3C15.1,40.5,9.4,38.2,5.2,34c-3.2-3.5-5-8.1-5.1-12.8
		c-0.1-5.8,2.5-11.4,7-15c3.9-3.1,8.8-4.8,13.9-4.8C25.2,1.5,29.4,2.5,33.2,4.5z">
  </path>
  <path class="st0" d="M21,40.5C15,40.7,9.3,38.3,5.1,34.1C2,30.5,0.1,25.9,0,21.2C-0.2,15.3,2.4,9.7,7,6.1c4-3.2,8.9-4.9,14-4.8
		c4.3,0.1,8.5,1.2,12.3,3.1l0,0c0.4,0.2,0.6,0.6,0.6,1c-0.1,1.1-0.1,2.3,0.1,3.4c0,0.4,0.1,0.8,0.1,0.9c0,0.5-0.2,1.1-0.5,1.1
		s-0.5-0.3-0.7-0.9c-0.5-1.8-1.5-3.4-2.9-4.6c-2.1-1.9-5.7-3-9.5-3c-4.3,0-8.4,1.8-11.3,4.9C7,9.5,4.6,14.6,4.6,20.5
		c0.1,5.3,2.2,10.3,5.8,14.2c2.9,2.8,6.8,4.3,10.8,4.3c2.6,0.1,5.1-0.4,7.4-1.6c2.2-1.3,3.9-3.3,4.8-5.8c0.2-0.8,0.5-1.1,0.7-1.1
		s0.5,0.5,0.5,1c-0.1,1.3-0.4,2.6-0.7,3.8c-0.1,0.4-0.2,0.8-0.2,1c-0.1,0.3-0.3,0.6-0.5,0.7C29.5,39.3,25.3,40.5,21,40.5z M21,1.5
		c-5,0-9.9,1.7-13.8,4.8c-4.5,3.6-7.1,9.1-6.9,14.9c0.1,4.7,1.9,9.2,5.1,12.7c4.1,4.2,9.8,6.5,15.7,6.3c4.3,0,8.5-1.2,12.1-3.4
		c0.2-0.1,0.3-0.3,0.4-0.6c0-0.2,0.1-0.5,0.2-1c0.3-1.2,0.5-2.5,0.7-3.8c0-0.4-0.1-0.8-0.2-0.8s-0.2,0.1-0.5,1
		c-0.8,2.5-2.5,4.6-4.9,5.9c-2.3,1.2-4.9,1.7-7.5,1.6c-4.1,0-8-1.6-11-4.4c-3.7-3.9-5.8-9-5.9-14.3c0-6,2.4-11.2,4.6-13.5
		c3-3.2,7.2-5,11.5-4.9c3,0,7.2,0.8,9.7,3.1c1.4,1.3,2.4,2.9,2.9,4.7c0.1,0.4,0.3,0.7,0.4,0.7s0.2-0.3,0.2-0.8c0-0.2,0-0.5-0.1-0.9
		c-0.1-1.2-0.1-2.3-0.1-3.5c0-0.3-0.2-0.6-0.5-0.8C29.4,2.6,25.2,1.6,21,1.5L21,1.5z">
  </path>
  <path class="st0" d="M96.1,38.4c-1.6-0.3-2.2-0.8-3.8-4.4c-4.5-9.5-7.2-15.2-12-27v0c-0.8-1.6-1.4-3.3-1.8-5
		c-0.1-0.3-0.2-0.5-0.6-0.5s-0.4,0.4-0.5,0.6v0.1c-0.3,1-0.8,2-1.6,2.7L75.5,5c-0.1,0.2-0.2,0.5-0.2,0.7c0,0.6-0.1,1.1-0.4,1.6
		c-3.2,7.1-9.7,21.8-11.6,25.3l-0.1,0.1c-0.4-0.5-0.9-1-1.3-1.5c-2.7-3.3-5.3-6.8-7.6-10.4c-0.1-0.2-0.3-0.7-0.3-0.9c0,0,0,0,0,0
		c1.5-0.4,2.9-1.1,4.1-2c2.5-1.4,4-4,3.9-6.8c-0.1-3-1.7-5.7-4.2-7.1c-2.3-1.4-5-2.1-9-2.1c-1.1,0-2.2,0.1-3.4,0.1s-2.5,0.2-3.8,0.2
		c-1.5,0-2.7-0.1-3.6-0.2c-0.6,0-1-0.1-1.4-0.1c-1.2,0-1.3,0.3-1.3,0.5c0,0.4,0.6,0.5,1.2,0.7c2.8,0.4,2.9,1.2,3,2.8v0.4
		c0.1,1.9,0.4,5.1,0.4,12.8c0,7.5-0.1,12.3-0.3,16.2c-0.2,2.4-0.9,2.9-2.9,3.2c-1,0.2-1.5,0.3-1.5,0.7s0.4,0.5,1.3,0.5
		c0.5,0,1.2,0,2-0.1c1-0.1,2.3-0.2,3.8-0.2c1,0,2.1,0.1,3.1,0.2c0.7,0.1,1.3,0.1,1.9,0.1s1.5-0.1,1.5-0.5s-0.4-0.5-1.1-0.6
		c-2.4-0.3-2.8-0.9-3.1-1.5c-0.3-1.8-0.5-3.5-0.5-5.3c-0.1-2.5,0-9.8,0.1-10.4c0.1-0.2,0.3-0.4,0.6-0.4c1.1-0.1,2.2,0,3.3,0.2
		c0.8,0.2,1.5,0.7,2,1.3c0.3,0.4,1.3,1.7,2.6,3.4c2.2,3,5.3,7.1,7.5,9.5s4.9,4.7,9.4,4.7c0.9,0,1.7-0.1,2.6-0.2
		c0.6-0.2,0.9-0.4,0.9-0.6s-0.4-0.5-1-0.5c-2-0.1-3.8-1-5.2-2.4c-0.5-0.5-1.1-1-1.6-1.5c0.1-0.4,0.2-0.8,0.3-1.2
		c1-3,2.2-5.9,3.6-8.7c0.2-0.4,0.5-0.8,0.8-1.1c0.5,0,2,0,3.8,0c3.3,0,7.3,0,8.9-0.1c0.1,0,0.5,0.3,0.7,0.6c0.3,0.8,0.7,1.6,1,2.4
		c1.9,4.5,3.7,8.7,3.7,9.3c0,1,0,2.2-2.9,2.5c-0.5,0-1.3,0.3-1.3,0.7s0.4,0.5,1.2,0.5s1.6,0,2.6-0.1s2.3-0.1,3.2-0.1
		c2.2,0,3.3,0.1,4.1,0.1c0.4,0,0.7,0,1.1,0s1.3,0,1.3-0.5C97.2,38.8,96.8,38.5,96.1,38.4z M70.6,21.5L70.6,21.5
		c0.9-2.4,3.4-8.9,5.3-13c0-0.1,0.1-0.2,0.2-0.3c0,0,0,0,0.1,0.2l0.6,1.2c1.1,2.3,2.5,5.4,5,11.6c0,0.1,0,0.2,0,0.4c0,0,0,0.1,0,0.1
		c-2,0.2-3.9,0.3-5.9,0.2c-2.5,0-4.1,0-5.2-0.1c0,0-0.1,0-0.1,0C70.6,21.6,70.6,21.5,70.6,21.5z M44.5,3.5c0.7-0.3,1.4-0.4,2.2-0.4
		c3.7,0,6.2,0.7,8.2,2.3c1.9,1.7,2.9,4.1,2.8,6.6c-0.1,2.7-1.6,5.2-4,6.6c-1.3,0.8-5.6,1.2-7.4,1.2c-0.6,0-1.2,0-1.8-0.1
		c-0.2,0-0.3-0.3-0.3-0.9c0-2.2,0-13.4,0.1-14.5C44.2,3.6,44.3,3.6,44.5,3.5L44.5,3.5z">
  </path>
  <path class="st1" d="M109.5,3c0.2,0.1,0.2,0.3,0.2,0.4c0,0.7,0,1.4,0.1,2.1c0,0.2-0.1,0.4-0.2,0.4s-0.2-0.2-0.2-0.4
		c-0.2-0.9-0.7-1.7-1.3-2.3c-1.2-1-2.8-1.5-4.4-1.5c-2,0-3.9,0.8-5.2,2.4c-1.4,1.8-2.1,4.1-2.1,6.4c0,2.5,1,4.9,2.7,6.8
		c1.3,1.3,3.1,2.1,5,2.1c1.2,0.1,2.4-0.2,3.4-0.8c1-0.6,1.8-1.6,2.2-2.8c0.1-0.4,0.2-0.5,0.3-0.5s0.2,0.2,0.2,0.4
		c0,0.5-0.3,2-0.4,2.3c0,0.1-0.1,0.2-0.2,0.3c-1.6,1.1-3.6,1.6-5.5,1.6c-2.7,0.1-5.3-1-7.2-3c-1.5-1.7-2.3-3.9-2.4-6.2
		c-0.1-2.8,1.1-5.4,3.2-7.2c1.8-1.5,4-2.3,6.3-2.3C105.9,1.6,107.8,2.1,109.5,3z">
  </path>
  <path class="st1" d="M103.9,20.3c-2.8,0.1-5.4-1-7.3-3.1c-1.5-1.7-2.3-3.9-2.4-6.2c-0.1-2.8,1.1-5.5,3.2-7.3
		c1.8-1.5,4.1-2.3,6.4-2.3c2,0.1,3.9,0.6,5.6,1.5l0,0c0.2,0.1,0.3,0.3,0.3,0.6c0,0.5,0,1.1,0,1.6c0,0.2,0,0.4,0,0.5
		c0,0.3-0.1,0.6-0.3,0.6s-0.3-0.2-0.4-0.4c-0.2-0.8-0.7-1.6-1.3-2.2c-1.2-1-2.7-1.5-4.2-1.5c-2,0-3.8,0.8-5.1,2.3
		c-1.4,1.8-2.1,4.1-2,6.3c0,2.5,1,4.9,2.6,6.8c1.3,1.3,3,2,4.9,2c1.2,0.1,2.3-0.2,3.3-0.7c1-0.6,1.7-1.5,2.1-2.6
		c0.1-0.4,0.2-0.6,0.4-0.6s0.3,0.3,0.3,0.5c-0.1,0.6-0.2,1.2-0.3,1.9c0,0.2-0.1,0.4-0.1,0.5c0,0.2-0.1,0.3-0.3,0.4
		C107.8,19.7,105.9,20.3,103.9,20.3z M103.9,1.6c-2.3,0-4.5,0.8-6.2,2.3c-2.1,1.8-3.2,4.4-3.1,7.1c0.1,2.2,0.9,4.3,2.3,6
		c1.8,2,4.4,3.1,7.1,3c1.9,0,3.8-0.6,5.4-1.6c0.1-0.1,0.1-0.1,0.2-0.2c0-0.1,0-0.2,0.1-0.5c0.1-0.6,0.2-1.2,0.3-1.8
		c0-0.1,0-0.2,0-0.3c-0.1,0.1-0.1,0.3-0.2,0.4c-0.4,1.2-1.2,2.2-2.2,2.9c-1.1,0.6-2.3,0.8-3.4,0.8c-1.9,0-3.7-0.8-5-2.1
		c-1.7-1.9-2.6-4.4-2.7-6.9c-0.1-2.3,0.7-4.6,2.1-6.5c1.3-1.5,3.3-2.4,5.3-2.4c1.6-0.1,3.2,0.5,4.5,1.5c0.7,0.6,1.1,1.4,1.3,2.3
		c0,0.1,0.1,0.2,0.1,0.3c0-0.1,0.1-0.2,0.1-0.3c0-0.1,0-0.2,0-0.4c-0.1-0.6-0.1-1.1,0-1.7c0-0.1-0.1-0.2-0.2-0.3
		C107.8,2.1,105.9,1.6,103.9,1.6z">
  </path>
  <path class="st1" d="M114.4,11.4c-0.2,0.3-0.3,0.8-0.3,1.2c-0.1,1.9,0,3.9,0.1,5.8c0,0.5,0.4,0.9,0.9,0.9c0.5,0.1,0.7,0.1,0.7,0.3
		s-0.2,0.2-0.4,0.2c-0.8,0-1.3-0.1-2.3-0.1c-0.7,0-1.2,0.1-1.7,0.1c-0.3,0-0.4-0.1-0.4-0.2s0.1-0.1,0.4-0.2c0.8-0.2,1-0.2,1.1-1.4
		s0.1-3.7,0.1-8.5c0-4.2,0-5.8,0-6.9c0-0.9-0.3-1-0.8-1.3c-0.1-0.1-0.2-0.1-0.2-0.2s0.2-0.1,0.4-0.2c0.6-0.1,1.2-0.3,1.7-0.6
		c0.1,0,0.2-0.1,0.2-0.1c0,0,0.1,0.2,0.1,0.6c0,0.9-0.1,9.6-0.1,10.2c0,0.1,0.1,0.1,0.1,0.1c0.5-0.5,1.1-0.9,1.8-1.2
		c0.6-0.3,1.3-0.5,2-0.5c1,0,1.9,0.5,2.5,1.3c0.5,0.9,0.7,2,0.6,3c0,2.2,0,3.9,0,4.9c0,0.6,0.1,0.7,1,0.8c0.4,0.1,0.4,0.2,0.4,0.2
		s-0.2,0.2-0.4,0.2c-0.7,0-1.3-0.1-1.9-0.1c-0.8,0-1.1,0.1-1.6,0.1c-0.3,0-0.5-0.1-0.5-0.2s0.2-0.2,0.4-0.2c0.7-0.1,0.8-0.3,0.9-1.1
		c0.1-1.7,0.2-3.3,0.1-5c0-0.7-0.1-1.4-0.4-2c-0.4-0.7-1.2-1.1-2-1.1C116.1,10.2,115.1,10.7,114.4,11.4z">
  </path>
  <path class="st1" d="M122.1,19.9c-0.3,0-0.7,0-1-0.1c-0.3,0-0.6-0.1-0.9-0.1c-0.3,0-0.6,0-0.9,0.1c-0.2,0-0.4,0-0.7,0
		c-0.5,0-0.6-0.2-0.6-0.3s0.3-0.3,0.6-0.3c0.6-0.1,0.7-0.2,0.8-1c0.1-1.6,0.2-3.3,0.1-4.9c0-0.7-0.1-1.4-0.4-2
		c-0.4-0.7-1.2-1.1-1.9-1c-1,0-2,0.4-2.7,1.1l0,0c-0.1,0.1-0.2,0.3-0.2,1.1c0,4.5,0.1,5.4,0.1,5.7v0.1c0,0.4,0.4,0.8,0.8,0.8
		c0.4,0.1,0.8,0.1,0.8,0.4s-0.2,0.3-0.5,0.3s-0.7,0-1-0.1s-0.8-0.1-1.2-0.1c-0.3,0-0.7,0-1,0.1c-0.2,0-0.4,0-0.7,0s-0.6,0-0.6-0.3
		s0.2-0.3,0.5-0.3c0.8-0.2,0.9-0.2,1-1.3s0.1-3.5,0.1-8.4c0-2.2,0-3.6,0-4.7s0-1.7,0-2.2c0-0.8-0.2-0.9-0.7-1.2l-0.1-0.1
		c-0.1-0.1-0.2-0.2-0.2-0.3s0.1-0.2,0.5-0.3l0.2-0.1c0.5-0.1,1-0.3,1.5-0.5c0.1,0,0.2-0.1,0.3-0.1l0,0h0.1c0.1,0.2,0.2,0.4,0.1,0.7
		c0,0.8-0.1,8.9-0.1,10.1c0.5-0.5,1.1-0.8,1.7-1.2c0.7-0.3,1.4-0.5,2.1-0.5c1,0,2,0.5,2.6,1.3c0.5,1,0.7,2,0.6,3.1
		c0,1.1,0,2.1,0,2.9s0,1.5,0,2s0,0.6,0.9,0.7c0.3,0.1,0.6,0.2,0.6,0.4S122.6,19.9,122.1,19.9z M120.2,19.5c0.3,0,0.6,0,0.9,0.1
		c0.3,0,0.7,0.1,1,0.1c0.1,0,0.2,0,0.3-0.1l0,0c-0.1-0.1-0.2-0.1-0.3-0.1c-0.9-0.1-1.1-0.3-1.1-1c0-0.5,0-1.1,0-2s0-1.8,0-2.9
		c0.1-1-0.1-2.1-0.6-3c-0.6-0.8-1.4-1.2-2.4-1.2c-0.7,0-1.4,0.2-2,0.5c-0.6,0.3-1.2,0.7-1.7,1.2c-0.1,0-0.1,0-0.2,0
		c-0.1,0-0.1-0.1-0.1-0.2c0-0.5,0.1-9.3,0.1-10.2c0-0.1,0-0.3,0-0.4c-0.1,0-0.1,0-0.2,0.1c-0.5,0.2-1,0.4-1.5,0.5l-0.2,0.1
		c-0.1,0-0.2,0.1-0.3,0.1l0.1,0.1l0.1,0.1c0.5,0.2,0.9,0.8,0.8,1.4c0,0.6,0,1.2,0,2.3s0,2.5,0,4.7c0,5,0,7.3-0.1,8.5
		s-0.3,1.3-1.2,1.5c-0.1,0-0.2,0.1-0.3,0.1c0.1,0,0.2,0,0.3,0c0.2,0,0.4,0,0.6,0c0.3,0,0.7-0.1,1-0.1c0.5,0,0.9,0,1.3,0.1
		s0.7,0.1,1,0.1c0.1,0,0.2,0,0.3-0.1c-0.2-0.1-0.4-0.1-0.6-0.1c-0.5-0.1-0.9-0.5-1-1v-0.1c0-0.3-0.1-1.2-0.1-5.8
		c-0.1-0.4,0.1-0.9,0.3-1.3c0.8-0.8,1.8-1.2,2.9-1.2c0.9-0.1,1.7,0.4,2.2,1.1c0.3,0.7,0.5,1.4,0.5,2.1c0,1.7,0,3.3-0.1,5
		c-0.1,0.8-0.2,1-1,1.2c-0.1,0-0.2,0-0.3,0.1c0.1,0,0.2,0.1,0.3,0c0.2,0,0.4,0,0.6,0C119.7,19.5,119.9,19.5,120.2,19.5z">
  </path>
  <path class="st1" d="M130.1,10.9c0.2,0.8,0.3,1.6,0.2,2.5c0,0.9-0.1,3.7-0.1,4.4c-0.1,0.5,0.3,1,0.9,1.1c0.1,0,0.1,0,0.2,0
		c0.3,0,0.6-0.1,0.8-0.2c0.2-0.1,0.3,0,0.2,0.2c-0.4,0.7-1.2,1.2-2,1.1c-0.7-0.1-1.3-0.6-1.6-1.3c0,0-0.1,0-0.1,0c0,0,0,0,0,0
		c-0.7,0.8-1.7,1.2-2.8,1.3c-1.2,0-2.2-1.1-2.2-2.3c0,0,0,0,0,0c0-0.7,0.4-1.2,1-1.5c1.2-0.5,2.5-1,3.8-1.4c0.2-0.1,0.3-0.2,0.4-0.4
		c0-0.3,0.1-0.8,0.1-1.3c0-1.1-0.2-2.1-0.7-2.4c-0.3-0.3-0.8-0.4-1.2-0.4c-0.4,0-0.8,0.1-1.2,0.4c-0.2,0.2-0.4,0.5-0.5,0.8
		c0,0.1,0,0.3,0,0.4c0,0.1,0,0.2-0.1,0.2c-0.4,0.2-0.7,0.4-1.2,0.5c-0.1,0-0.2-0.1-0.2-0.2c0-0.1,0.1-0.3,0.4-0.7
		c0.6-0.7,1.3-1.2,2.1-1.6c0.5-0.3,1-0.4,1.6-0.5C128.9,9.3,129.8,9.9,130.1,10.9z M128.3,18.5c0.2-0.2,0.3-0.5,0.4-0.7
		c0.1-0.9,0.1-1.7,0.1-2.6c0,0-0.1-0.2-0.1-0.1c-1,0.3-2,0.6-2.9,1.1c-0.4,0.3-0.7,0.8-0.6,1.4c0,0.9,0.8,1.6,1.7,1.6c0,0,0,0,0.1,0
		C127.5,19,128,18.8,128.3,18.5L128.3,18.5z">
  </path>
  <path class="st1" d="M130.4,20.1c-0.8-0.1-1.4-0.6-1.7-1.3c-0.7,0.8-1.7,1.2-2.8,1.2c-1.3,0-2.4-1.1-2.3-2.4c0,0,0,0,0-0.1
		c0.1-0.7,0.5-1.3,1.1-1.7c1.1-0.5,2.3-0.9,3.5-1.3l0.3-0.1c0.1-0.1,0.3-0.2,0.3-0.3c0-0.3,0.1-0.8,0.1-1.3c0-1.2-0.2-2-0.6-2.3
		c-0.3-0.2-0.7-0.4-1.1-0.4c-0.4,0-0.8,0.1-1.1,0.4c-0.2,0.2-0.4,0.4-0.4,0.7c0,0.1,0,0.3,0,0.4c0,0.1-0.1,0.2-0.2,0.3
		c-0.4,0.2-0.8,0.4-1.2,0.5c-0.2,0-0.3-0.2-0.3-0.4c0-0.2,0.1-0.4,0.4-0.8c0.6-0.7,1.4-1.3,2.2-1.7c0.5-0.3,1.1-0.5,1.6-0.5
		c1,0,1.9,0.7,2.2,1.6l0,0c0.2,0.8,0.3,1.7,0.3,2.5c0,0.5,0,1.5-0.1,2.4s-0.1,1.7-0.1,2c0,0.7,0.3,1,1,1c0.3,0,0.5-0.1,0.8-0.2
		c0.1-0.1,0.3-0.1,0.3,0c0.1,0.1,0.1,0.3,0,0.4C132.1,19.7,131.2,20.1,130.4,20.1z M128.7,18.5L128.7,18.5c0.1,0,0.1,0,0.1,0.1
		c0.2,0.7,0.8,1.1,1.5,1.2c0.8,0,1.5-0.3,1.8-1c0,0,0-0.1,0-0.1l0,0c-0.3,0.2-0.6,0.3-0.9,0.3c-0.6,0.1-1.1-0.4-1.2-1
		c0-0.1,0-0.2,0-0.3c0-0.3,0-1.1,0.1-2s0.1-1.9,0.1-2.4c0-0.8-0.1-1.6-0.2-2.4c-0.3-0.9-1.1-1.5-2-1.5c-0.5,0-1.1,0.2-1.5,0.5
		c-0.8,0.4-1.5,1-2.1,1.6c-0.2,0.3-0.4,0.5-0.4,0.6c0,0.1,0,0.1,0.1,0.1c0.4-0.1,0.7-0.3,1.1-0.5c0,0,0.1-0.1,0.1-0.1
		c0-0.1,0-0.3,0-0.4c0.1-0.3,0.3-0.6,0.5-0.8c0.4-0.3,0.8-0.4,1.3-0.4c0.5,0,0.9,0.2,1.3,0.5c0.5,0.4,0.8,1.2,0.8,2.5
		c0,0.5,0,1-0.1,1.3c-0.1,0.2-0.2,0.4-0.5,0.5l-0.3,0.1c-1.2,0.4-2.3,0.8-3.5,1.3c-0.6,0.3-0.9,0.8-1,1.4c0,1.2,0.9,2.2,2,2.2
		c0,0,0,0,0.1,0c1-0.1,2-0.5,2.7-1.2C128.5,18.5,128.6,18.5,128.7,18.5z M128.7,18.8L128.7,18.8z M126.9,19.1c-1,0-1.8-0.7-1.8-1.6
		c-0.1-0.6,0.2-1.2,0.7-1.5c1-0.4,1.9-0.8,2.9-1.1c0,0,0.1,0,0.1,0c0.1,0.1,0.1,0.1,0.1,0.2c0,0.9,0,1.8-0.1,2.6
		c0,0.3-0.2,0.6-0.4,0.8l0,0C128,18.9,127.5,19.1,126.9,19.1L126.9,19.1z M128.7,15.1c-1,0.3-1.9,0.6-2.8,1
		c-0.4,0.3-0.6,0.8-0.6,1.3c0.1,0.8,0.8,1.4,1.6,1.4c0,0,0,0,0,0c0.5,0,0.9-0.1,1.3-0.4c0.2-0.2,0.3-0.4,0.3-0.7
		C128.7,16.9,128.7,16,128.7,15.1L128.7,15.1L128.7,15.1z">
  </path>
  <path class="st1" d="M136.9,11.3c-0.3,0.3-0.5,0.7-0.6,1.1c0,0.2,0,0.9,0,1.5c0,2.1,0.1,3.7,0.1,4.2c0.1,0.9,0.5,1.1,1.6,1.2
		c0.4,0.1,0.5,0.1,0.5,0.2s-0.2,0.2-0.7,0.2s-1.5-0.1-2.6-0.1c-0.5,0-1,0.1-1.4,0.2c-0.3,0-0.4,0-0.4-0.1s0.2-0.2,0.4-0.3
		c0.6-0.1,1-0.6,1-1.1c0.1-0.5,0.1-2.1,0.1-3.9v-3.2c0-0.2-0.2-0.3-0.7-0.7c-0.2-0.1-0.2-0.2-0.2-0.3s0.2-0.2,0.5-0.2
		c0.5-0.1,1-0.3,1.4-0.6c0.1-0.1,0.3-0.1,0.4-0.1c0.1,0,0.1,0.1,0.1,0.4s0,1.4,0,1.8c0,0,0.1,0.1,0.1,0c0.8-1,2-2,3.1-2
		c0.4,0,0.7,0.2,1,0.4c0.1,0.1,0.1,0.2,0.1,0.3c-0.1,0.3-0.3,0.6-0.5,0.8c-0.2,0.2-0.3,0.2-0.4,0.2c-0.2,0-0.3-0.1-0.5-0.2
		c-0.3-0.2-0.6-0.3-0.9-0.3C137.7,10.7,137.2,10.9,136.9,11.3z">
  </path>
  <path class="st1" d="M133.8,19.9c-0.2,0-0.6,0-0.6-0.3s0.3-0.4,0.5-0.4c0.5-0.1,0.9-0.5,0.9-1c0.1-0.4,0.1-1.9,0.1-3.9v-3.2
		c0-0.1-0.1-0.1-0.3-0.3l-0.4-0.3c-0.2-0.1-0.3-0.2-0.3-0.4s0.4-0.3,0.6-0.4c0.5-0.1,0.9-0.3,1.4-0.6c0.1-0.1,0.3-0.1,0.4-0.2
		c0.2,0,0.2,0.4,0.2,0.6s0,0.4,0,0.7s0,0.7,0,0.9c0.8-0.9,2-1.9,3.1-1.9c0.4,0,0.8,0.2,1.1,0.4c0.1,0.1,0.2,0.3,0.1,0.4
		c-0.1,0.3-0.3,0.6-0.6,0.9c-0.3,0.2-0.4,0.2-0.5,0.2c-0.2,0-0.4-0.1-0.6-0.2c-0.3-0.2-0.6-0.2-0.9-0.3c-0.5,0-0.9,0.3-1.3,0.6
		c-0.3,0.3-0.5,0.6-0.5,1c0,0.2,0,0.9,0,1.5c0,2.1,0.1,3.7,0.1,4.2c0.1,0.8,0.4,1,1.5,1.1c0.3,0,0.6,0.1,0.6,0.4s-0.4,0.3-0.8,0.3
		h-0.7c-0.5,0-1.2-0.1-1.9-0.1c-0.3,0-0.7,0-1,0.1C134.1,19.9,133.9,19.9,133.8,19.9z M133.5,19.7c0.2,0.1,0.4,0.1,0.6,0
		c0.4-0.1,0.7-0.1,1.1-0.1c0.7,0,1.4,0,1.9,0.1h0.7c0.5,0,0.6-0.1,0.6-0.1s-0.3-0.1-0.4-0.1c-1.1-0.1-1.6-0.3-1.7-1.3
		c-0.1-0.5-0.1-2.1-0.1-4.2c0-0.6,0-1.3,0-1.5c0.1-0.5,0.3-0.9,0.6-1.2l0,0c0.4-0.4,0.9-0.6,1.4-0.7c0.4,0,0.7,0.1,1,0.3
		c0.1,0.1,0.3,0.1,0.4,0.2c0.1,0,0.1,0,0.3-0.2c0.2-0.2,0.4-0.4,0.5-0.7c0-0.1,0-0.2-0.1-0.2c-0.3-0.2-0.6-0.3-0.9-0.4
		c-1.1,0-2.2,1.1-3,1.9c-0.1,0.1-0.2,0.1-0.2,0.1c-0.1,0-0.1-0.1-0.1-0.2c0-0.2,0-0.7,0-1.1s0-0.6,0-0.7c0-0.1,0-0.2,0-0.3
		c-0.1,0-0.2,0.1-0.3,0.1c-0.5,0.2-0.9,0.4-1.4,0.6c-0.1,0-0.3,0.1-0.4,0.1c0,0.1,0.1,0.1,0.2,0.2l0.4,0.3c0.2,0.2,0.4,0.3,0.4,0.5
		v3.2c0,2,0,3.5-0.1,3.9c0,0.6-0.5,1.2-1.1,1.3C133.6,19.5,133.5,19.6,133.5,19.7z">
  </path>
  <path class="st1" d="M144.4,12.9c0,3.5,0,4.9,0.1,5.4s0.2,0.9,1,1c0.2,0,0.4,0.1,0.4,0.2s-0.2,0.2-0.6,0.2s-1.2,0-1.7,0
		c-0.7,0-1.5,0-1.8,0s-0.5,0-0.5-0.2s0.1-0.1,0.5-0.3c0.7-0.1,0.9-0.4,1-1.6c0.1-1,0.2-5.5,0.2-9.1c0-2.6,0-4.6,0-6
		c0-0.6,0-0.7-0.8-1.2C142.1,1.1,142,1.1,142,1s0.1-0.2,0.4-0.2c0.6-0.2,1.2-0.3,1.8-0.6c0.1,0,0.2-0.1,0.3-0.1
		c0.1,0,0.1,0.2,0.1,0.3s-0.1,5.1-0.1,9L144.4,12.9z">
  </path>
  <path class="st1" d="M145.3,19.8h-0.6c-0.4,0-0.8,0-1.1,0c-0.4,0-0.9,0-1.3,0h-0.5c-0.3,0-0.6,0-0.6-0.3s0.2-0.2,0.6-0.4
		c0.6-0.1,0.8-0.3,0.9-1.5c0.1-1,0.2-5.5,0.2-9.1c0-0.9,0-1.8,0-2.6c0-1.4,0-2.5,0-3.4c0-0.5,0-0.7-0.7-1.1l0,0
		c-0.2-0.1-0.3-0.2-0.3-0.3s0.2-0.3,0.5-0.3c0.6-0.2,1.1-0.4,1.7-0.6h0.1c0.1,0,0.2-0.1,0.3-0.1c0.1,0,0.2,0.2,0.2,0.5
		c0,0,0,0.2,0,0.5c0,1.4-0.1,5.3-0.1,8.5v3.3c0,2.5,0,4.3,0.1,5.4c0,0.6,0.1,0.8,0.9,0.9c0.1,0,0.5,0.1,0.5,0.3
		S145.8,19.8,145.3,19.8z M143.5,19.5c0.3,0,0.7,0,1.1,0h0.6c0.1,0,0.3,0,0.4-0.1c-0.1,0-0.2-0.1-0.3-0.1c-0.9-0.1-1-0.4-1.1-1.2
		c0-1.1-0.1-3-0.1-5.4V9.5c0-3.2,0.1-7,0.1-8.5c0-0.3,0-0.5,0-0.5c0-0.1,0-0.1,0-0.2l-0.2,0l0,0c-0.6,0.2-1.2,0.4-1.8,0.6
		c-0.1,0-0.2,0.1-0.3,0.1l0.2,0.1l0,0c0.8,0.5,0.9,0.7,0.9,1.3c0,0.9,0,2,0,3.4c0,0.8,0,1.6,0,2.6c0,3.6-0.1,8.2-0.2,9.2
		c-0.1,1.2-0.3,1.6-1.1,1.8c-0.1,0-0.3,0.1-0.4,0.1c0.1,0,0.2,0,0.4,0h0.5C142.6,19.5,143.1,19.5,143.5,19.5z">
  </path>
  <path class="st1" d="M155.1,12.1c0,0.1-0.1,0.2-0.2,0.2c-0.2,0-3.9-0.1-4.5-0.1h-1.7c-0.1,0-0.2,0.2-0.3,0.3
		c-0.2,0.5-0.3,1.1-0.2,1.7c0,1.3,0.5,2.5,1.3,3.4c0.8,0.8,1.8,1.3,2.9,1.2c1,0.1,2-0.3,2.7-0.9c0.3-0.2,0.3-0.2,0.3,0
		c-0.1,0.2-0.2,0.3-0.3,0.5c-1,1.1-2.4,1.7-3.8,1.6c-1.2,0-2.4-0.5-3.2-1.4c-0.9-1-1.4-2.4-1.4-3.8c0-1.5,0.5-2.9,1.5-4
		c0.9-0.9,2.2-1.4,3.5-1.4C153.1,9.3,155.1,10.4,155.1,12.1z M149.2,10.8c-0.3,0.3-0.5,0.6-0.6,1c0,0.1,0,0.1,0.1,0.1h4.1
		c0.6,0,0.6-0.2,0.6-0.5c0-0.4-0.1-0.8-0.4-1.1c-0.4-0.4-1-0.6-1.6-0.6C150.6,9.8,149.8,10.2,149.2,10.8L149.2,10.8z">
  </path>
  <path class="st1" d="M151.2,20.1c-1.3,0-2.5-0.5-3.3-1.5c-0.9-1.1-1.4-2.4-1.4-3.8c0-1.5,0.6-3,1.6-4.1c1-0.9,2.3-1.5,3.6-1.5
		c1.5,0,3.5,1,3.5,2.9c0,0.2-0.2,0.4-0.4,0.4h-1.3l-3.2-0.1h-1.8c-0.1,0.1-0.1,0.1-0.2,0.2c-0.2,0.5-0.3,1.1-0.2,1.6
		c0,1.2,0.5,2.4,1.3,3.3c0.7,0.8,1.8,1.2,2.9,1.2c1,0.1,1.9-0.3,2.6-0.9c0.1-0.1,0.3-0.2,0.4-0.2c0.1,0,0.1,0.1,0.1,0.2
		c-0.1,0.2-0.2,0.4-0.4,0.6C154.1,19.5,152.7,20.1,151.2,20.1z M151.7,9.4c-1.3,0-2.5,0.5-3.4,1.4c-1,1.1-1.5,2.5-1.5,3.9
		c0,1.3,0.4,2.7,1.3,3.7c0.8,0.9,2,1.4,3.2,1.4c1.4,0.1,2.8-0.5,3.7-1.6c0.1-0.1,0.2-0.2,0.2-0.3l-0.1,0.1c-0.8,0.7-1.8,1-2.8,1
		c-1.1,0-2.2-0.4-3-1.2c-0.9-1-1.3-2.2-1.3-3.5c0-0.6,0-1.2,0.3-1.7c0,0,0.2-0.3,0.4-0.3h1.7l3.2,0.1h1.3c0,0,0.1-0.1,0.1-0.1
		C154.9,10.4,153,9.4,151.7,9.4z M148.7,12c-0.1,0-0.2-0.1-0.2-0.2c0.1-0.4,0.3-0.8,0.6-1.1l0,0c0.6-0.7,1.4-1.1,2.3-1.1
		c0.6,0,1.2,0.2,1.6,0.6c0.3,0.3,0.5,0.8,0.4,1.2c0,0.3-0.1,0.6-0.7,0.6L148.7,12z M149.2,10.9c-0.2,0.3-0.4,0.6-0.5,0.9h4
		c0.5,0,0.5-0.2,0.5-0.4c0-0.4-0.1-0.7-0.4-1c-0.4-0.4-0.9-0.5-1.5-0.5C150.5,10,149.8,10.3,149.2,10.9L149.2,10.9z">
  </path>
  <path class="st1" d="M158.6,11.6c0.1,1,0.7,1.8,1.6,2.2c1.9,1.2,2.6,1.9,2.6,3.3c0,1-0.6,1.9-1.5,2.3c-0.6,0.4-1.3,0.5-2,0.5
		c-0.7,0-1.5-0.2-2.1-0.5c-0.2-0.1-0.3-0.2-0.4-0.4c0-0.4-0.1-1-0.1-1.3s0-0.4,0.1-0.4s0.1,0,0.3,0.5c0.2,0.6,0.6,1.1,1.2,1.4
		c0.4,0.2,0.8,0.3,1.2,0.3c1.1-0.1,1.9-0.9,1.9-2c0-1.1-0.8-1.7-1.8-2.4s-2.3-1.6-2.3-3c0-0.8,0.3-1.5,0.9-2.1
		c0.7-0.6,1.5-0.9,2.4-0.8c0.6,0,1.2,0.1,1.8,0.3c0.1,0.1,0.1,0.1,0.1,0.2c0,0.3,0.1,0.9,0.2,1.2s-0.1,0.4-0.1,0.4s-0.1-0.1-0.2-0.3
		c-0.1-0.4-0.3-0.8-0.7-1.1c-0.4-0.3-0.8-0.4-1.3-0.4c-0.9-0.1-1.7,0.6-1.8,1.5C158.6,11.4,158.6,11.5,158.6,11.6z">
  </path>
  <path class="st1" d="M159.3,20.1c-0.8,0-1.5-0.2-2.2-0.5c-0.2-0.1-0.4-0.3-0.4-0.5c0-0.3,0-0.8-0.1-1.2v-0.1c0-0.2,0-0.4,0.1-0.5
		c0,0,0.1-0.1,0.1-0.1c0.1,0,0.3,0.1,0.5,0.6c0.2,0.6,0.6,1.1,1.1,1.4c0.3,0.2,0.7,0.3,1.1,0.3c1-0.1,1.7-0.9,1.8-1.9
		c0-1.1-0.8-1.6-1.7-2.3s-2.4-1.7-2.4-3.1c0-0.8,0.3-1.6,0.9-2.2c0.7-0.6,1.5-0.9,2.4-0.9c0.6,0,1.2,0.1,1.8,0.3
		c0.1,0.1,0.2,0.2,0.2,0.3c0,0.1,0.1,0.4,0.1,0.6s0.1,0.5,0.1,0.6s0,0.6-0.3,0.6s-0.2-0.1-0.3-0.3l-0.1-0.2
		c-0.1-0.4-0.3-0.7-0.6-0.9c-0.3-0.2-0.8-0.4-1.2-0.4c-0.9,0-1.6,0.6-1.6,1.5c0,0.1,0,0.1,0,0.2c0.1,0.9,0.7,1.8,1.6,2.1
		c1.9,1.2,2.6,1.9,2.6,3.4c0,1-0.6,2-1.6,2.4C160.8,19.9,160.1,20.1,159.3,20.1z M156.9,17.5c0,0.1,0,0.2,0,0.2v0.2
		c0,0.3,0.1,0.9,0.1,1.2c0,0.1,0.1,0.3,0.3,0.3c0.7,0.3,1.4,0.5,2.1,0.5c0.7,0,1.4-0.2,2-0.5c0.9-0.4,1.4-1.3,1.5-2.2
		c0-1.4-0.7-2-2.5-3.2c-0.9-0.4-1.6-1.3-1.7-2.3c-0.1-1,0.6-1.9,1.6-2c0.1,0,0.2,0,0.3,0c0.5,0,0.9,0.1,1.3,0.4
		c0.3,0.3,0.6,0.6,0.7,1l0.1,0.2c0,0,0,0.1,0,0.1c0-0.1,0-0.2,0-0.3c0-0.2,0-0.4-0.1-0.6l-0.1-0.6c0,0,0-0.1-0.1-0.1
		c-0.6-0.2-1.1-0.3-1.7-0.3c-0.8,0-1.6,0.3-2.3,0.8c-0.6,0.5-0.9,1.2-0.9,2c0,1.3,1.2,2.2,2.3,2.9s1.9,1.3,1.9,2.5
		c0,1.1-0.9,2-2,2.1c-0.4,0-0.9-0.1-1.3-0.4c-0.5-0.3-0.9-0.8-1.1-1.4C157,17.7,156.9,17.6,156.9,17.5z">
  </path>
  <path class="st1" d="M180.2,2.8c1.1,0.8,1.7,2,1.7,3.4c0.1,1.3-0.5,2.5-1.6,3.2c-0.5,0.4-1.1,0.7-1.7,0.9c-0.1,0-0.1,0.2,0.1,0.5
		c1,1.7,2,3.4,3.2,5c0.6,0.9,1.3,1.7,2,2.5c0.6,0.7,1.4,1.1,2.2,1.1c0.2,0,0.4,0.1,0.4,0.2s-0.1,0.1-0.3,0.2c-0.3,0.1-0.7,0.1-1,0.1
		c-1.6-0.1-3-0.9-3.9-2.2c-1.4-1.8-3.8-5.7-4.2-6.1c-0.2-0.3-0.5-0.5-0.9-0.6c-0.5-0.1-0.9-0.1-1.4-0.1c-0.1,0-0.2,0.1-0.3,0.2
		c0,0.3-0.1,3.9,0,5c0,0.9,0.1,1.7,0.2,2.5c0.1,0.3,0.3,0.6,1.3,0.8c0.3,0.1,0.4,0.1,0.4,0.2s-0.2,0.2-0.6,0.2
		c-0.6,0-1.1-0.1-2.1-0.1s-1.9,0.1-2.4,0.1c-0.3,0-0.5-0.1-0.5-0.2s0.2-0.2,0.6-0.2c0.9-0.2,1.2-0.4,1.3-1.6
		c0.1-1.6,0.1-3.7,0.1-7.8s-0.1-5.4-0.2-6.3s-0.1-1.2-1.3-1.4c-0.2-0.1-0.5-0.1-0.5-0.2s0.1-0.2,0.5-0.2s1.1,0.1,2.1,0.1
		s2.1-0.1,3-0.1C177.8,1.8,179.1,2.1,180.2,2.8z M174.6,2.5c-0.1,0-0.1,0-0.2,0.5s0,6.5,0,7s0.1,0.5,0.2,0.5c0.3,0,0.5,0,0.8,0
		c1.1,0,2.1-0.2,3.1-0.6c1-0.8,1.6-2,1.7-3.2c0.1-1.2-0.3-2.4-1.2-3.2c-0.9-0.8-2.2-1.2-3.4-1.1C175.2,2.3,174.9,2.3,174.6,2.5z">
  </path>
  <path class="st1" d="M185.1,20.1c-1.6-0.1-3.1-0.9-4-2.3c-0.9-1.2-2.2-3.1-3.1-4.6c-0.5-0.8-0.9-1.4-1.1-1.6
		c-0.2-0.3-0.5-0.5-0.8-0.6c-0.4-0.1-0.9-0.1-1.3-0.1c-0.1,0-0.1,0.1-0.2,0.1c-0.1,0.3-0.1,3.8-0.1,5c0,0.8,0.1,1.7,0.2,2.5
		c0.1,0.3,0.2,0.5,1.2,0.7c0.2,0,0.5,0.1,0.5,0.3s-0.2,0.3-0.7,0.3c-0.3,0-0.5,0-0.8,0c-0.4-0.1-0.8-0.1-1.3-0.1
		c-0.6,0-1.1,0-1.6,0.1s-0.6,0-0.8,0c-0.5,0-0.6-0.2-0.6-0.3s0.3-0.3,0.7-0.4c0.8-0.2,1.1-0.4,1.2-1.5c0.1-1.9,0.1-4.2,0.1-7.8
		s-0.1-5.2-0.1-6.1V3.7c-0.1-0.8-0.1-1.1-1.2-1.3c-0.3-0.1-0.6-0.1-0.6-0.4s0.1-0.3,0.6-0.3c0.2,0,0.4,0,0.6,0
		c0.4,0,0.9,0.1,1.5,0.1s1.1,0,1.6-0.1s1-0.1,1.4-0.1c1.3-0.1,2.7,0.3,3.8,1c1.1,0.8,1.8,2.1,1.8,3.5c0.1,1.3-0.6,2.6-1.6,3.3
		c-0.5,0.4-1.1,0.7-1.7,0.9c0,0.1,0.1,0.3,0.1,0.4c1,1.7,2,3.4,3.1,5c0.6,0.9,1.3,1.7,2,2.5c0.5,0.6,1.3,1,2.1,1.1
		c0.3,0,0.5,0.1,0.5,0.3s0,0.2-0.4,0.3C185.8,20.1,185.4,20.1,185.1,20.1z M175.1,10.7c0.4,0,0.7,0,1.1,0.1c0.4,0.1,0.7,0.4,0.9,0.7
		c0.1,0.2,0.5,0.8,1.1,1.6c0.9,1.4,2.2,3.4,3.1,4.6c0.8,1.3,2.2,2.1,3.8,2.2c0.3,0,0.7,0,1-0.1c0.1,0,0.2-0.1,0.2-0.1
		c-0.1,0-0.1,0-0.2,0c-0.9-0.1-1.7-0.5-2.3-1.2c-0.7-0.8-1.4-1.6-2-2.5c-1.1-1.6-2.2-3.3-3.2-5c-0.1-0.3-0.2-0.6,0-0.7
		c0.6-0.2,1.2-0.5,1.7-0.9c1-0.7,1.6-1.9,1.6-3.1c0-1.3-0.6-2.5-1.7-3.3l0,0c-1.1-0.7-2.4-1.1-3.6-1c-0.4,0-0.9,0-1.4,0.1
		s-1.1,0.1-1.6,0.1s-1.1-0.1-1.5-0.1s-0.4,0-0.6,0c-0.3,0-0.4,0.1-0.4,0.1c0.1,0.1,0.2,0.1,0.4,0.1c1.2,0.2,1.3,0.7,1.4,1.5v0.2
		c0.1,0.9,0.1,2.4,0.1,6.1s0,5.9-0.1,7.8c-0.1,1.3-0.5,1.5-1.4,1.7c-0.2,0-0.3,0.1-0.5,0.1l0,0c0.1,0,0.2,0.1,0.4,0
		c0.2,0,0.5,0,0.8,0s1-0.1,1.6-0.1c0.4,0,0.9,0,1.3,0.1c0.3,0,0.5,0,0.8,0c0.2,0,0.3,0,0.4-0.1c0,0-0.1,0-0.3-0.1
		c-1-0.2-1.3-0.4-1.4-0.9c-0.2-0.9-0.2-1.7-0.2-2.6c0-1.1,0-4.7,0.1-5c0-0.2,0.2-0.3,0.4-0.3L175.1,10.7z M175.4,10.5
		c-0.3,0-0.5,0-0.8,0l0,0c-0.1,0-0.3-0.1-0.3-0.6c0-1.1,0-6.4,0-7s0.1-0.5,0.2-0.6l0,0c0.3-0.1,0.7-0.2,1-0.2
		c1.3-0.1,2.6,0.3,3.5,1.2c0.9,0.9,1.3,2.1,1.2,3.3c0,1.3-0.7,2.6-1.7,3.3C177.5,10.3,176.5,10.5,175.4,10.5z M175.6,2.4
		c-0.3,0-0.6,0.1-0.9,0.2l0,0c0,0-0.1,0-0.1,0.4c0,0.5,0,5.9,0,6.9c0,0.3,0.1,0.4,0.1,0.4c0.2,0,0.5,0,0.8,0c1,0,2-0.2,3-0.6
		c1-0.7,1.6-1.9,1.6-3.1c0.1-1.2-0.3-2.3-1.1-3.1C178,2.7,176.8,2.3,175.6,2.4z">
  </path>
  <path class="st1" d="M186.9,10.1c0.6-0.2,1.2-0.4,1.7-0.7c0.1-0.1,0.3-0.2,0.4-0.2c0.1,0,0.1,0.1,0.1,0.4c-0.1,0.5-0.1,2.4-0.1,4.4
		s0,4,0.1,4.5s0.4,0.7,0.8,0.8s0.4,0.1,0.4,0.2s-0.2,0.2-0.4,0.2s-1.3-0.1-1.9-0.1c-0.8,0-1.2,0-1.5,0s-0.3,0-0.3-0.2
		s0.1-0.2,0.5-0.3s0.9-0.3,0.9-1.5c0-0.8,0.1-6,0.1-6.3s0-0.5-0.9-0.9c-0.1,0-0.2-0.1-0.2-0.2S186.7,10.2,186.9,10.1z M189.4,5.5
		c0,0.5-0.4,0.9-0.9,0.9c-0.5,0-0.8-0.4-0.8-0.9c0-0.5,0.3-1,0.8-1c0,0,0,0,0,0C189.1,4.5,189.5,4.9,189.4,5.5
		C189.4,5.4,189.4,5.5,189.4,5.5z">
  </path>
  <path class="st1" d="M189.9,19.9h-0.5c-0.4,0-1.1-0.1-1.4-0.1s-0.8,0-1.1,0h-0.4c-0.3,0-0.5-0.1-0.5-0.3s0.2-0.3,0.6-0.4
		s0.8-0.2,0.8-1.4c0-0.9,0.1-6.1,0.1-6.3s0-0.4-0.8-0.8c-0.1,0-0.3-0.2-0.3-0.3c0-0.1,0.1-0.2,0.4-0.3c0.6-0.2,1.1-0.4,1.7-0.7
		c0.1-0.1,0.3-0.2,0.5-0.2c0.1,0,0.1,0,0.2,0.1c0.1,0.1,0.1,0.3,0.1,0.5c-0.1,0.5-0.1,2.4-0.1,4.4s0,4,0.1,4.5s0.3,0.6,0.7,0.7
		c0.2,0,0.5,0.1,0.5,0.3S190.2,19.9,189.9,19.9z M188,19.5c0.4,0,1,0,1.5,0.1h0.5c0.1,0,0.2,0,0.3-0.1c-0.1-0.1-0.2-0.1-0.3-0.1
		c-0.4-0.1-0.8-0.2-0.9-0.9c-0.1-0.5-0.1-2.4-0.1-4.5s0-3.9,0.1-4.4c0-0.1,0-0.2,0-0.3c0,0-0.1,0-0.4,0.2c-0.6,0.3-1.1,0.5-1.7,0.7
		l0,0c-0.1,0-0.1,0.1-0.2,0.1c0,0,0.1,0.1,0.1,0.1c0.8,0.4,0.9,0.6,0.9,1c0,0.2-0.1,5.5-0.1,6.3c0,1.2-0.3,1.5-1,1.7
		c-0.2,0-0.3,0.1-0.4,0.1c0.1,0,0.1,0,0.2,0h0.4C187.1,19.5,187.5,19.5,188,19.5z M188.5,6.5c-0.5,0-0.9-0.5-0.9-1
		c0-0.6,0.4-1.1,1-1.1c0.6,0,1,0.4,1,1c0,0,0,0,0,0.1C189.6,6.1,189.1,6.5,188.5,6.5L188.5,6.5z M188.6,4.7c-0.4,0-0.8,0.4-0.8,0.8
		c0,0.4,0.3,0.7,0.7,0.8c0.4,0,0.8-0.4,0.8-0.8C189.3,5.1,189,4.7,188.6,4.7C188.6,4.7,188.6,4.7,188.6,4.7L188.6,4.7z">
  </path>
  <path class="st1" d="M195.1,9.6c0.3,0,0.4,0,0.4,0.2s-0.2,0.2-0.4,0.2c-0.8,0.2-0.8,0.3-0.6,1.3s2,5.5,2.4,6.2
		c0,0.1,0.1,0.1,0.1,0.1c0.4-0.8,2.1-4.9,2.5-5.8c0.2-0.4,0.3-0.8,0.3-1.2c0-0.2-0.2-0.5-0.9-0.6c-0.2-0.1-0.3-0.1-0.3-0.2
		s0.1-0.1,0.3-0.1c0.4,0,0.7,0.1,1.3,0.1s1.2-0.1,1.4-0.1s0.4,0,0.4,0.1s-0.2,0.2-0.4,0.2c-0.6,0.2-0.8,0.5-1.1,1.2l-2.3,5
		c-0.5,1.1-1,2.2-1.4,3.3c-0.1,0.4-0.2,0.5-0.3,0.5s-0.2-0.1-0.3-0.5s-0.3-1.1-0.7-2.1c-0.5-1.3-2.1-5.7-2.6-6.5
		c-0.2-0.5-0.7-0.9-1.3-1c-0.2-0.1-0.4-0.1-0.4-0.2s0.1-0.2,0.4-0.2c0.8,0,1,0.1,1.9,0.1C194.3,9.6,194.6,9.6,195.1,9.6z">
  </path>
  <path class="st1" d="M196.4,20.2c-0.2,0-0.4-0.3-0.4-0.5s-0.1-0.3-0.2-0.5c-0.1-0.4-0.3-0.9-0.6-1.6c-0.1-0.2-2.1-5.6-2.5-6.5
		c-0.2-0.5-0.7-0.8-1.2-0.9c-0.2-0.1-0.5-0.1-0.5-0.3s0.1-0.3,0.6-0.3s0.6,0,0.9,0s0.6,0,1.1,0s0.7,0,1,0c0.2,0,0.4,0,0.6,0
		c0.2,0,0.6,0,0.6,0.3s-0.4,0.3-0.5,0.4c-0.3,0.1-0.5,0.1-0.6,0.3s0,0.4,0.1,0.9c0.2,0.8,1.9,5.2,2.3,6.1c0.5-1,2.1-4.7,2.4-5.7
		c0-0.1,0.1-0.2,0.1-0.4c0.1-0.2,0.2-0.5,0.2-0.8c0-0.1-0.2-0.4-0.9-0.5c-0.1,0-0.4-0.1-0.4-0.4s0.3-0.2,0.4-0.2c0.2,0,0.3,0,0.5,0
		c0.2,0,0.5,0,0.8,0s0.6,0,0.9,0h0.5c0.1,0,0.5,0,0.5,0.3s-0.2,0.3-0.5,0.4c-0.6,0.2-0.8,0.5-1.1,1.1l-1.5,3.3l-0.8,1.8
		c-0.1,0.3-0.2,0.5-0.4,0.8c-0.4,0.8-0.8,1.7-1.1,2.5C196.7,20,196.6,20.2,196.4,20.2z M191.3,9.8c0.1,0,0.2,0.1,0.3,0.1
		c0.6,0.1,1.1,0.5,1.4,1c0.5,0.9,2.5,6.3,2.6,6.5c0.3,0.7,0.4,1.2,0.6,1.6c0.1,0.2,0.1,0.4,0.2,0.5s0.1,0.4,0.2,0.4s0-0.1,0.2-0.4
		c0.3-0.9,0.7-1.7,1.1-2.5l0.4-0.8l0.8-1.8l1.5-3.3c0.3-0.7,0.6-1.1,1.2-1.3c0.1,0,0.2-0.1,0.3-0.1c-0.1,0-0.2,0-0.2,0h-0.5
		c-0.3,0-0.6,0-0.9,0s-0.6,0-0.8,0c-0.2,0-0.3,0-0.5,0c-0.1,0-0.1,0-0.2,0c0.1,0,0.1,0.1,0.2,0.1c0.8,0.2,1,0.5,1,0.8
		c0,0.3-0.1,0.6-0.2,0.9l-0.1,0.4c-0.4,1-2.1,5.1-2.5,5.8c0,0.1-0.1,0.1-0.2,0.1c-0.1,0-0.2-0.1-0.2-0.2c-0.4-0.7-2.1-5.4-2.4-6.2
		c-0.2-0.5-0.2-0.8-0.1-1.1s0.3-0.3,0.7-0.4s0.3-0.1,0.3-0.1l0,0c-0.1,0-0.2,0-0.3,0c-0.2,0-0.4,0-0.5,0c-0.3,0-0.6,0-1,0
		s-0.8,0-1.1,0s-0.5,0-0.9,0C191.5,9.8,191.4,9.7,191.3,9.8z">
  </path>
  <path class="st1" d="M210.7,12.1c0,0.1-0.1,0.2-0.2,0.2c-0.2,0-3.9-0.1-4.5-0.1h-1.7c0,0-0.2,0.2-0.3,0.3c-0.2,0.5-0.3,1.1-0.2,1.7
		c0,1.3,0.5,2.5,1.4,3.4c0.8,0.8,1.8,1.3,2.9,1.2c1,0.1,2-0.3,2.7-0.9c0.3-0.2,0.3-0.2,0.3,0c-0.1,0.2-0.2,0.3-0.3,0.5
		c-1,1.1-2.4,1.7-3.9,1.7c-1.2,0-2.4-0.5-3.2-1.4c-0.9-1-1.4-2.4-1.4-3.8c0-1.5,0.5-2.9,1.5-4c1-0.9,2.2-1.4,3.5-1.4
		C208.8,9.3,210.7,10.4,210.7,12.1z M204.8,10.8c-0.3,0.3-0.5,0.6-0.6,1c0,0.1,0,0.1,0.1,0.1h4.1c0.6,0,0.6-0.2,0.6-0.5
		c0-0.4-0.1-0.8-0.4-1.1c-0.4-0.4-1-0.6-1.6-0.6C206.2,9.8,205.4,10.2,204.8,10.8z">
  </path>
  <path class="st1" d="M206.9,20.1c-1.3,0-2.5-0.5-3.3-1.5c-0.9-1-1.4-2.4-1.4-3.8c0-1.5,0.5-3,1.5-4.1c1-0.9,2.3-1.5,3.6-1.5
		c1.5,0,3.5,1,3.5,2.9c0,0.2-0.2,0.4-0.4,0.4h-1.3l-3.2-0.1h-1.7c-0.1,0.1-0.1,0.1-0.2,0.2c-0.2,0.5-0.3,1.1-0.2,1.6
		c0,1.2,0.4,2.4,1.2,3.3c0.7,0.8,1.8,1.2,2.9,1.2c1,0.1,1.9-0.3,2.6-0.9c0.1-0.1,0.3-0.2,0.4-0.2c0.1,0,0.1,0.1,0.1,0.2
		c-0.1,0.2-0.2,0.4-0.3,0.6C209.7,19.5,208.3,20.1,206.9,20.1z M207.3,9.4c-1.3,0-2.5,0.5-3.4,1.4c-1,1.1-1.5,2.5-1.5,3.9
		c-0.1,1.3,0.4,2.7,1.3,3.7c0.8,0.9,2,1.4,3.1,1.4c1.4,0.1,2.8-0.5,3.7-1.6c0.1-0.1,0.2-0.2,0.2-0.3l-0.1,0.1c-0.8,0.7-1.8,1-2.8,1
		c-1.1,0-2.2-0.4-3-1.2c-0.9-1-1.3-2.2-1.3-3.5c0-0.6,0-1.2,0.3-1.7c0,0,0.2-0.3,0.4-0.3h1.7l3.2,0.1h1.3c0,0,0.1-0.1,0.1-0.1
		C210.6,10.4,208.7,9.4,207.3,9.4L207.3,9.4z M204.3,12c-0.1,0-0.2-0.1-0.2-0.2c0.1-0.4,0.3-0.8,0.6-1.1l0,0
		c0.6-0.7,1.5-1.1,2.4-1.1c0.6,0,1.2,0.2,1.6,0.6c0.3,0.3,0.4,0.8,0.4,1.2c0,0.3-0.1,0.6-0.8,0.6L204.3,12z M204.8,10.9
		c-0.2,0.3-0.4,0.6-0.5,0.9h4c0.5,0,0.5-0.2,0.5-0.4c0-0.4-0.1-0.7-0.4-1c-0.4-0.4-0.9-0.5-1.5-0.5C206.2,10,205.5,10.3,204.8,10.9
		L204.8,10.9z">
  </path>
  <path class="st1" d="M215.4,11.3c-0.3,0.3-0.5,0.7-0.6,1.1c0,0.2,0,0.9,0,1.5c0,2.1,0,3.7,0.1,4.2c0.1,0.9,0.5,1.1,1.6,1.2
		c0.4,0.1,0.5,0.1,0.5,0.2s-0.2,0.2-0.7,0.2s-1.5-0.1-2.6-0.1c-0.5,0-1,0.1-1.5,0.2c-0.3,0-0.4,0-0.4-0.1s0.2-0.2,0.4-0.3
		c0.6-0.1,1-0.6,1-1.1c0.1-0.5,0.1-2.1,0.1-3.9v-3.2c0-0.2-0.2-0.3-0.7-0.7c-0.2-0.1-0.2-0.2-0.2-0.3s0.2-0.2,0.5-0.2
		c0.5-0.1,1-0.3,1.4-0.6c0.1-0.1,0.2-0.1,0.4-0.1c0.1,0,0.1,0.1,0.1,0.4s0,1.4,0,1.8c0,0,0.1,0.1,0.1,0c0.8-1,2-2,3.1-2
		c0.4,0,0.7,0.1,1,0.4c0.1,0.1,0.1,0.2,0.1,0.3c-0.1,0.3-0.3,0.6-0.5,0.8c-0.2,0.2-0.3,0.2-0.4,0.2c-0.2,0-0.3-0.1-0.5-0.2
		c-0.3-0.2-0.6-0.3-0.9-0.3C216.2,10.7,215.8,10.9,215.4,11.3z">
  </path>
  <path class="st1" d="M212.3,19.9c-0.2,0-0.5,0-0.5-0.3s0.3-0.4,0.5-0.4c0.5-0.1,0.9-0.5,0.9-1c0.1-0.4,0.1-1.9,0.1-3.9v-3.2
		c0-0.1-0.1-0.1-0.3-0.3s-0.2-0.2-0.4-0.3s-0.3-0.2-0.3-0.4s0.4-0.3,0.6-0.4c0.5-0.1,0.9-0.3,1.4-0.6c0.1-0.1,0.3-0.1,0.5-0.2
		c0.2,0,0.2,0.4,0.2,0.6s0,0.4,0,0.7s0,0.7,0,0.9c0.8-0.9,1.9-1.9,3.1-1.9c0.4,0,0.8,0.2,1.1,0.4c0.1,0.1,0.2,0.3,0.2,0.4
		c-0.1,0.3-0.3,0.6-0.6,0.9c-0.3,0.2-0.4,0.2-0.5,0.2c-0.2,0-0.4-0.1-0.6-0.2c-0.3-0.2-0.6-0.2-0.9-0.3c-0.5,0-0.9,0.3-1.2,0.6
		c-0.3,0.3-0.5,0.6-0.5,1c0,0.2,0,0.9,0,1.5c0,2.1,0.1,3.7,0.1,4.2c0.1,0.8,0.4,1,1.5,1.1c0.3,0,0.6,0.1,0.6,0.4s-0.4,0.3-0.8,0.3
		h-0.7c-0.5,0-1.2-0.1-1.9-0.1c-0.3,0-0.7,0-1,0.1C212.6,19.9,212.4,19.9,212.3,19.9z M212,19.7c0.2,0.1,0.4,0.1,0.7,0
		c0.4-0.1,0.7-0.1,1.1-0.1c0.7,0,1.4,0,1.9,0.1h0.7c0.5,0,0.6-0.1,0.6-0.1s-0.1-0.1-0.4-0.1c-1.1-0.1-1.6-0.3-1.7-1.3
		c-0.1-0.5-0.1-2.1-0.1-4.2c0-0.6,0-1.3,0-1.5c0.1-0.5,0.3-0.9,0.6-1.2l0,0c0.4-0.4,0.9-0.6,1.4-0.7c0.4,0,0.7,0.1,1,0.3
		c0.1,0.1,0.3,0.1,0.4,0.2c0.1,0,0.1,0,0.3-0.2c0.2-0.2,0.4-0.4,0.5-0.7c0-0.1,0-0.2-0.1-0.2c-0.3-0.2-0.6-0.3-0.9-0.4
		c-1.1,0-2.2,1.1-3,1.9c-0.1,0.1-0.2,0.1-0.3,0.1c-0.1,0-0.1-0.1-0.1-0.2c0-0.2,0-0.7,0-1.1s0-0.6,0-0.7c0-0.1,0-0.2,0-0.3
		c-0.1,0-0.2,0.1-0.3,0.1c-0.5,0.2-0.9,0.4-1.4,0.6c-0.1,0-0.3,0.1-0.4,0.1c0,0,0.1,0.1,0.2,0.2l0.4,0.3c0.2,0.2,0.4,0.3,0.4,0.5
		v3.2c0,2,0,3.5-0.1,3.9c0,0.6-0.5,1.2-1.1,1.3C212.1,19.5,212.1,19.6,212,19.7z">
  </path>
  <path class="st1" d="M116.4,23.3c0.2,0.7,0.4,1.5,0.8,2.2c2.2,5.2,3.3,7.7,5.2,11.6c0.7,1.6,1,1.8,1.7,1.9c0.3,0,0.5,0.2,0.5,0.2
		s-0.3,0.2-0.5,0.2c-0.4,0-0.8-0.1-2.3-0.1c-0.8,0-1.9,0.1-2.5,0.1c-0.3,0-0.4-0.1-0.4-0.2s0.3-0.2,0.5-0.2c1.3-0.2,1.3-0.7,1.3-1.1
		c0-0.3-1-2.6-2-5.1c-0.1-0.2-0.2-0.3-0.3-0.3c-1,0.1-4.9,0-5.5,0.1c-0.1,0-0.3,0.3-0.4,0.5c-0.6,1.2-1.1,2.5-1.6,3.8
		c-0.3,1-0.3,1.5,0,1.8c0.3,0.2,0.7,0.4,1.1,0.4c0.3,0,0.4,0.2,0.4,0.2s-0.2,0.2-0.5,0.2c-0.5,0-1.7-0.1-2.8-0.1
		c-0.7,0-1.2,0.1-1.8,0.1c-0.3,0-0.5,0-0.5-0.2s0.3-0.2,0.6-0.2c1.3-0.2,1.5-0.4,2.6-2.5c0.8-1.4,3.3-7,5-10.9
		c0.1-0.2,0.2-0.5,0.2-0.7c0-0.1,0-0.2,0.1-0.3c0.4-0.3,0.7-0.8,0.8-1.3c0-0.1,0.1-0.3,0.2-0.3S116.4,23.2,116.4,23.3z M118,31.6
		c-1.3-3.2-1.9-4.5-2.4-5.5c-0.1-0.2-0.1-0.1-0.2,0.1c-0.8,1.7-1.9,4.5-2.3,5.6c0,0-0.1,0.2,0.1,0.2c0.4,0,1.2,0,2.2,0
		c0.9,0,1.7,0,2.6-0.1C118,31.8,118.1,31.7,118,31.6z">
  </path>
  <path class="st1" d="M111.9,39.7c-0.2,0-0.6,0-1,0c-0.5,0-1.2-0.1-1.8-0.1c-0.3,0-0.7,0-1,0.1c-0.3,0-0.5,0.1-0.8,0.1
		c-0.2,0-0.6,0-0.6-0.3s0.3-0.3,0.7-0.3c1.2-0.2,1.4-0.3,2.5-2.5c0.8-1.5,3.6-7.9,5-10.9c0.1-0.2,0.2-0.4,0.2-0.7
		c0-0.1,0-0.3,0.1-0.4v0c0.3-0.3,0.6-0.7,0.7-1.1v-0.1c0-0.1,0.1-0.3,0.3-0.3s0.3,0.1,0.3,0.3l0,0c0.2,0.7,0.4,1.5,0.8,2.1
		c2.1,5.1,3.3,7.5,5.2,11.6c0.7,1.5,1,1.7,1.6,1.9c0.2,0,0.6,0.1,0.6,0.3s-0.2,0.3-0.6,0.3h-0.5c-0.3,0-0.8,0-1.8,0
		c-0.4,0-0.9,0-1.4,0s-0.8,0-1.1,0s-0.6-0.1-0.6-0.3s0.6-0.3,0.6-0.3c1.2-0.1,1.2-0.6,1.2-1c0-0.2-0.8-2.2-1.6-4l-0.4-1
		c-0.1-0.1-0.1-0.2-0.2-0.2c-0.7,0-2.4,0.1-3.8,0.1h-1.7c-0.1,0.1-0.2,0.3-0.3,0.4c-0.5,1.2-1,2.5-1.4,3.8c-0.3,1.1-0.3,1.4,0,1.6
		c0.3,0.2,0.7,0.3,1.1,0.4c0.3,0.1,0.5,0.2,0.5,0.3S112.4,39.7,111.9,39.7z M109.1,39.3c0.6,0,1.3,0,1.8,0.1s0.7,0,1,0
		c0.1,0,0.3,0,0.4-0.1c-0.1-0.1-0.2-0.1-0.3-0.1c-0.4,0-0.8-0.2-1.2-0.4c-0.4-0.3-0.4-0.8,0-1.9c0.4-1.3,1-2.6,1.5-3.8
		c0,0,0.3-0.6,0.5-0.6h1.7c1.3,0,3.2,0,3.8-0.1l0,0c0.2,0,0.4,0.2,0.4,0.4l0.4,1c0.6,1.3,1.2,2.7,1.6,4.1c0,0.6-0.1,1.1-1.4,1.3
		c-0.1,0-0.3,0-0.4,0.1c0.1,0,0.2,0,0.3,0c0.3,0,0.7,0,1.1,0s1,0,1.4,0c1,0,1.5,0,1.8,0c0.2,0,0.3,0,0.5,0c0.1,0,0.2,0,0.3,0
		c-0.1-0.1-0.2-0.1-0.3-0.1c-0.8-0.2-1.1-0.5-1.8-2c-2-4.1-3.1-6.6-5.2-11.6c-0.4-0.7-0.6-1.4-0.8-2.2c0-0.1-0.1-0.1-0.1-0.1
		c0,0,0,0.1,0,0.1l0,0c-0.1,0.5-0.4,0.9-0.8,1.3l-0.1,0c0,0.1,0,0.1,0,0.2c0,0.3-0.1,0.5-0.2,0.8c-2.2,4.9-4.3,9.6-5,11
		c-1.1,2.2-1.3,2.4-2.6,2.6c-0.2,0-0.3,0.1-0.5,0.1c0.1,0,0.2,0,0.4,0c0.3,0,0.5,0,0.8-0.1C108.6,39.3,108.9,39.3,109.1,39.3z
		 M115.4,32c-1.1,0-1.8,0-2.2,0l0,0c-0.1,0-0.1,0-0.2-0.1c0-0.1,0-0.1,0-0.2c0,0,0-0.1,0-0.2c0.4-1,1.5-3.8,2.3-5.5
		c0-0.1,0.1-0.2,0.2-0.2s0.2,0.1,0.2,0.2l0.2,0.5c0.5,1,1.1,2.4,2.2,5l0,0c0,0.1,0,0.2,0,0.2l0,0h-0.1v0.1
		C117.2,32,116.3,32,115.4,32z M113.2,31.7L113.2,31.7h2.2c0.8,0,2,0,2.5-0.1c0,0,0-0.1,0-0.1c-1-2.6-1.7-4-2.2-5
		c-0.1-0.2-0.2-0.4-0.2-0.5l0,0c-0.8,1.8-1.9,4.5-2.3,5.6L113.2,31.7z">
  </path>
  <path class="st1" d="M127.6,31.2c0.1,1,0.7,1.8,1.7,2.2c1.8,1.2,2.6,1.9,2.6,3.3c0,1-0.6,1.9-1.5,2.3c-0.6,0.4-1.3,0.6-2.1,0.6
		c-0.7,0-1.5-0.2-2.1-0.5c-0.2-0.1-0.3-0.2-0.4-0.4c0-0.4,0-1-0.1-1.3s0-0.4,0.1-0.4s0.1,0,0.3,0.5c0.2,0.6,0.6,1.1,1.2,1.4
		c0.4,0.2,0.8,0.3,1.2,0.3c1.1-0.1,1.9-0.9,1.9-2c0-1.2-0.8-1.7-1.8-2.4s-2.3-1.6-2.3-3c0-0.8,0.3-1.5,0.9-2.1
		c0.7-0.6,1.5-0.9,2.4-0.8c0.6,0,1.2,0.1,1.8,0.3c0.1,0.1,0.1,0.1,0.1,0.2c0,0.3,0.1,0.9,0.2,1.2s-0.1,0.5-0.1,0.5s-0.1-0.1-0.2-0.3
		c-0.1-0.4-0.3-0.8-0.7-1.1c-0.4-0.3-0.8-0.4-1.3-0.4c-0.9,0-1.7,0.7-1.7,1.6C127.6,31,127.6,31.1,127.6,31.2z">
  </path>
  <path class="st1" d="M128.3,39.8c-0.8,0-1.5-0.2-2.2-0.5c-0.2-0.1-0.4-0.3-0.4-0.5c0-0.3,0-0.8-0.1-1.2v-0.2c0-0.2,0-0.4,0.1-0.5
		c0,0,0.1-0.1,0.2-0.1c0.2,0,0.3,0.1,0.5,0.6c0.2,0.6,0.6,1.1,1.1,1.4c0.3,0.2,0.7,0.3,1.1,0.3c1-0.1,1.7-0.9,1.8-1.9
		c0-1.1-0.8-1.7-1.7-2.3s-2.4-1.7-2.4-3.1c0-0.8,0.3-1.6,0.9-2.2c0.7-0.6,1.5-0.9,2.4-0.9c0.6,0,1.2,0.1,1.8,0.3
		c0.1,0.1,0.2,0.2,0.2,0.3c0,0.1,0.1,0.4,0.1,0.6s0.1,0.5,0.1,0.7s0,0.6-0.3,0.6s-0.2-0.2-0.3-0.3l-0.1-0.2
		c-0.1-0.4-0.3-0.7-0.6-0.9c-0.3-0.2-0.8-0.4-1.2-0.4c-0.9,0-1.6,0.6-1.6,1.5c0,0.1,0,0.1,0,0.2c0.1,0.9,0.7,1.8,1.6,2.1
		c1.9,1.2,2.6,1.9,2.6,3.4c0,1-0.6,2-1.6,2.4C129.7,39.6,129,39.8,128.3,39.8z M125.8,37.1c0,0.1,0,0.2,0,0.2v0.2
		c0,0.3,0.1,0.9,0.1,1.2c0,0.1,0.1,0.3,0.3,0.3c0.7,0.3,1.4,0.5,2.1,0.5c0.7,0,1.4-0.2,2-0.5c0.9-0.4,1.4-1.3,1.5-2.2
		c0-1.3-0.7-2-2.5-3.2c-0.9-0.4-1.6-1.3-1.7-2.3c-0.1-1,0.6-1.9,1.6-2c0.1,0,0.2,0,0.3,0c0.5,0,0.9,0.1,1.3,0.4
		c0.3,0.3,0.6,0.6,0.7,1v0.1c0,0,0,0.1,0,0.1l0.1,0.1c0-0.1,0-0.2,0-0.3c0-0.2-0.1-0.4-0.1-0.6l-0.1-0.6c0,0,0-0.1-0.1-0.1
		c-0.6-0.2-1.1-0.3-1.7-0.3c-0.8,0-1.6,0.3-2.3,0.8c-0.6,0.5-0.9,1.2-0.9,2c0,1.3,1.2,2.2,2.3,2.9s1.9,1.3,1.9,2.5
		c0,1.1-0.9,2-2,2.1c-0.4,0-0.9-0.1-1.3-0.3c-0.6-0.3-1-0.9-1.2-1.5C125.9,37.3,125.8,37.2,125.8,37.1z">
  </path>
  <path class="st1" d="M135.7,31.2c0.1,1,0.7,1.8,1.6,2.2c1.9,1.2,2.6,1.9,2.6,3.3c0,1-0.6,1.9-1.5,2.3c-0.6,0.4-1.3,0.6-2.1,0.6
		c-0.7,0-1.5-0.2-2.1-0.5c-0.2-0.1-0.3-0.2-0.4-0.4c0-0.4-0.1-1-0.1-1.3s0-0.4,0.1-0.4s0.1,0,0.3,0.5c0.2,0.6,0.6,1.1,1.2,1.4
		c0.4,0.2,0.8,0.3,1.2,0.3c1.1-0.1,1.9-0.9,1.9-2c0-1.2-0.8-1.7-1.8-2.4s-2.3-1.6-2.3-3c0-0.8,0.3-1.5,0.9-2.1
		c0.7-0.6,1.5-0.9,2.4-0.8c0.6,0,1.2,0.1,1.8,0.3c0.1,0.1,0.1,0.1,0.1,0.2c0,0.3,0.1,0.9,0.2,1.2s-0.1,0.5-0.1,0.5s-0.1-0.1-0.2-0.3
		c-0.1-0.4-0.4-0.8-0.7-1.1c-0.4-0.3-0.8-0.4-1.3-0.4c-0.9,0-1.7,0.7-1.7,1.6C135.7,31,135.7,31.1,135.7,31.2z">
  </path>
  <path class="st1" d="M136.4,39.8c-0.8,0-1.5-0.2-2.2-0.5c-0.2-0.1-0.4-0.3-0.4-0.5c0-0.4-0.1-1-0.1-1.3s0-0.4,0.1-0.5
		c0-0.1,0.1-0.1,0.1-0.1c0.1,0,0.3,0.1,0.4,0.6c0.2,0.6,0.6,1.1,1.1,1.4c0.3,0.2,0.7,0.3,1.1,0.3c1-0.1,1.8-0.9,1.8-1.9
		c0-1.1-0.8-1.7-1.7-2.3s-2.4-1.7-2.4-3.1c0-0.8,0.3-1.6,0.9-2.2c0.7-0.6,1.5-0.9,2.4-0.9c0.6,0,1.2,0.1,1.8,0.3
		c0.1,0.1,0.2,0.2,0.2,0.3c0,0.1,0,0.4,0.1,0.6s0.1,0.5,0.1,0.7s0,0.6-0.3,0.6s-0.2-0.2-0.3-0.3l-0.1-0.2c-0.1-0.4-0.3-0.7-0.6-0.9
		c-0.4-0.2-0.8-0.4-1.2-0.4c-0.9,0-1.6,0.6-1.6,1.5c0,0.1,0,0.1,0,0.2c0.1,0.9,0.7,1.8,1.6,2.1c1.9,1.2,2.6,1.9,2.6,3.4
		c0,1-0.6,2-1.6,2.4C137.9,39.6,137.1,39.7,136.4,39.8z M133.9,37.1c0,0.1,0,0.2,0,0.2l0,0c0,0.3,0.1,0.9,0.1,1.3
		c0,0.1,0.1,0.3,0.3,0.3c0.7,0.3,1.4,0.5,2.1,0.5c0.7,0,1.4-0.2,2-0.5c0.8-0.4,1.4-1.3,1.4-2.2c0-1.3-0.7-2-2.5-3.2
		c-0.9-0.4-1.6-1.3-1.7-2.3c-0.1-1,0.6-1.9,1.6-2c0.1,0,0.2,0,0.3,0c0.5,0,0.9,0.1,1.3,0.4c0.3,0.3,0.6,0.6,0.7,1l0.1,0.2
		c0,0,0,0.1,0.1,0.1c0-0.1,0-0.2,0-0.3c0-0.2-0.1-0.4-0.1-0.6s-0.1-0.5-0.1-0.6s0-0.1-0.1-0.1c-0.6-0.2-1.1-0.3-1.7-0.3
		c-0.8,0-1.6,0.3-2.3,0.8c-0.6,0.5-0.9,1.2-0.9,2c0,1.3,1.2,2.2,2.3,2.9s1.9,1.3,1.9,2.5c0,1.1-0.9,2-2,2.1c-0.4,0-0.9-0.1-1.3-0.3
		c-0.6-0.3-1-0.9-1.2-1.5C134.1,37.3,134,37.2,133.9,37.1z">
  </path>
  <path class="st1" d="M152.3,34.2c0,1.7-0.9,3.3-2.2,4.3c-0.9,0.6-1.9,1-3,1.1c-2.9,0-5.3-2.3-5.4-5.3c0-1.7,0.7-3.2,2.1-4.2
		c0.9-0.7,2-1.1,3.2-1.1C149.9,29,152.2,31.3,152.3,34.2C152.3,34.2,152.3,34.2,152.3,34.2z M143.3,33.9c0,1.4,0.5,2.7,1.3,3.8
		c0.7,0.9,1.7,1.4,2.8,1.5c0.7,0,1.4-0.3,2-0.8c0.9-1,1.3-2.4,1.3-3.7c0-2.4-1.5-5.2-4.2-5.2C145,29.4,143.3,30.9,143.3,33.9
		L143.3,33.9z">
  </path>
  <path class="st1" d="M147.1,39.8c-2.9,0-5.4-2.3-5.5-5.2c-0.1-1.7,0.7-3.4,2.1-4.5c1-0.7,2.1-1.1,3.3-1.2c3,0,5.4,2.3,5.4,5.3
		c0,0,0,0.1,0,0.1c0,1.7-0.8,3.3-2.2,4.4C149.3,39.3,148.2,39.7,147.1,39.8z M147,29.1c-1.1,0-2.3,0.4-3.2,1.1
		c-2.3,1.8-2.7,5-0.9,7.3c1,1.3,2.5,2,4.1,2c1.1,0,2.1-0.4,3-1c1.3-1,2.1-2.6,2.1-4.2c0.1-2.8-2.2-5.2-5-5.2
		C147.1,29.1,147,29.1,147,29.1L147,29.1z M147.5,39.3c-1.2,0-2.2-0.6-2.9-1.5c-0.9-1.1-1.4-2.4-1.4-3.8c0-3,1.7-4.6,3.3-4.6
		c2.7,0,4.3,2.7,4.3,5.4c0.1,1.4-0.4,2.8-1.3,3.8C148.9,39,148.2,39.3,147.5,39.3L147.5,39.3z M146.5,29.6c-1.5,0-3.1,1.5-3.1,4.4
		c0,1.3,0.5,2.6,1.3,3.7c0.7,0.8,1.6,1.3,2.7,1.4c0.7,0,1.4-0.3,1.9-0.7c0.9-1,1.3-2.3,1.2-3.6C150.6,32.2,149,29.6,146.5,29.6
		L146.5,29.6z">
  </path>
  <path class="st1" d="M155.6,33.8c-0.1,1.4,0.5,2.8,1.5,3.7c0.8,0.6,1.7,1,2.7,1c1.1,0.1,2.2-0.3,3-1.1c0,0,0.2-0.1,0.2,0
		c0,0.2-0.1,0.3-0.2,0.4c-1,1.1-2.4,1.8-3.8,1.7c-1.3,0-2.5-0.5-3.4-1.3c-1-1-1.5-2.4-1.4-3.8c0-1.5,0.6-2.9,1.6-3.9
		c1.1-1.1,2.6-1.6,4.1-1.6c0.9,0,1.7,0.2,2.5,0.7c0.4,0.2,0.4,0.4,0.4,0.6c-0.1,0.4-0.3,0.6-0.6,0.8c-0.2,0-0.3-0.1-0.4-0.3
		c-0.5-0.4-1-0.8-1.6-1.1c-0.3-0.2-0.7-0.2-1.1-0.2C157.7,29.4,155.6,30.6,155.6,33.8z">
  </path>
  <path class="st1" d="M158.8,39.7c-1.3,0-2.5-0.5-3.5-1.4c-1-1-1.5-2.4-1.5-3.8c0-1.5,0.6-2.9,1.7-4c1.1-1.1,2.7-1.7,4.2-1.7
		c0.9,0,1.8,0.2,2.6,0.7c0.3,0.1,0.5,0.4,0.5,0.7c0,0.4-0.4,0.8-0.8,0.9c-0.2,0-0.4-0.2-0.5-0.3c-0.4-0.4-0.9-0.7-1.5-1
		c-0.3-0.1-0.7-0.2-1-0.2c-1.3,0-3.4,1.2-3.4,4.3c-0.1,1.4,0.4,2.7,1.4,3.6c0.7,0.6,1.7,0.9,2.6,1c1.1,0.1,2.1-0.3,2.9-1.1
		c0.1,0,0.2,0,0.3,0c0.1,0,0.1,0.1,0.1,0.2c0,0.2-0.1,0.4-0.2,0.5C161.8,39.1,160.3,39.7,158.8,39.7z M159.8,29.1
		c-1.5,0-3,0.6-4.1,1.6c-1,1-1.6,2.4-1.6,3.8c0,1.4,0.5,2.7,1.4,3.7c0.9,0.8,2.1,1.3,3.3,1.3c1.4,0,2.8-0.6,3.7-1.7
		c0.1-0.1,0.1-0.1,0.1-0.2c-0.8,0.8-1.9,1.2-3,1.1c-1,0-2-0.4-2.8-1c-1.1-1-1.6-2.4-1.5-3.8c0-3.3,2.2-4.5,3.6-4.5
		c0.4,0,0.8,0.1,1.1,0.2c0.6,0.3,1.1,0.6,1.6,1.1c0.1,0.1,0.2,0.2,0.4,0.2c0.1,0,0.5-0.3,0.5-0.7c0-0.2-0.1-0.3-0.4-0.5
		C161.5,29.3,160.6,29.1,159.8,29.1z">
  </path>
  <path class="st1" d="M165.2,29.7c0.6-0.2,1.2-0.4,1.7-0.7c0.1-0.1,0.3-0.2,0.4-0.2c0.1,0,0.1,0.1,0.1,0.4c-0.1,0.5-0.1,2.4-0.1,4.4
		s0,4,0.1,4.5s0.4,0.7,0.8,0.8s0.4,0.1,0.4,0.2s-0.2,0.2-0.4,0.2s-1.3-0.1-1.9-0.1c-0.8,0-1.2,0.1-1.5,0.1s-0.3-0.1-0.3-0.2
		s0.1-0.2,0.5-0.2s0.9-0.3,0.9-1.5c0-0.8,0.1-6,0.1-6.3s-0.1-0.5-0.9-0.9c-0.1,0-0.2-0.1-0.2-0.2S165,29.8,165.2,29.7z M167.8,25.1
		c0,0.5-0.4,0.9-0.9,0.9c-0.5,0-0.8-0.4-0.8-0.9c0-0.5,0.4-0.9,0.9-1C167.4,24.2,167.8,24.6,167.8,25.1
		C167.8,25.1,167.8,25.1,167.8,25.1z">
  </path>
  <path class="st1" d="M168.2,39.5h-0.5c-0.4,0-1.1-0.1-1.4-0.1s-0.8,0-1.1,0h-0.4c-0.3,0-0.5-0.1-0.5-0.3s0.3-0.3,0.6-0.4
		s0.8-0.2,0.8-1.4c0-0.8,0.1-6,0.1-6.3s0-0.4-0.8-0.8c-0.2-0.1-0.3-0.2-0.3-0.3s0-0.2,0.4-0.4c0.6-0.2,1.1-0.4,1.7-0.7
		c0.3-0.2,0.4-0.2,0.5-0.2c0.1,0,0.1,0,0.2,0.1c0.1,0.1,0.1,0.3,0.1,0.5c0,0.5,0,2.4,0,4.4s0,4,0,4.5s0.3,0.6,0.7,0.7
		c0.2,0,0.5,0.1,0.5,0.3S168.6,39.5,168.2,39.5z M166.3,39.2c0.4,0,1,0,1.5,0.1h0.5c0.2,0,0.3,0,0.3-0.1s-0.1,0-0.3-0.1
		s-0.8-0.2-0.9-0.9c0-0.5,0-2.4,0-4.5s0-3.9,0-4.4c0-0.1,0-0.2,0-0.3c-0.1,0.1-0.2,0.1-0.4,0.2c-0.6,0.3-1.1,0.5-1.7,0.7l0,0
		c-0.1,0-0.2,0.1-0.2,0.1c0,0,0.1,0.1,0.1,0.1c0.8,0.4,0.9,0.6,0.9,1c0,0.2-0.1,5.5-0.1,6.3c0,1.2-0.3,1.5-1,1.7
		c-0.4,0.1-0.4,0.1-0.4,0.2s0.1,0,0.2,0h0.4C165.5,39.2,165.8,39.2,166.3,39.2z M166.9,26.2c-0.5,0-0.9-0.5-0.9-1
		c0-0.6,0.4-1.1,1-1.1c0.6,0,1,0.4,1,1c0,0,0,0,0,0.1C167.9,25.7,167.5,26.2,166.9,26.2z M166.9,24.3c-0.4,0-0.8,0.4-0.7,0.8
		c0,0.4,0.3,0.7,0.7,0.8c0.4,0,0.8-0.4,0.8-0.8C167.6,24.7,167.3,24.4,166.9,24.3L166.9,24.3z">
  </path>
  <path class="st1" d="M177.1,30.5c0.2,0.8,0.3,1.6,0.2,2.5c0,0.9-0.1,3.7-0.1,4.4c-0.1,0.5,0.3,1,0.9,1.1c0.1,0,0.1,0,0.2,0
		c0.3,0,0.6-0.1,0.8-0.2c0.2-0.1,0.3-0.1,0.2,0.2c-0.4,0.7-1.2,1.2-2,1.1c-0.7-0.1-1.3-0.6-1.6-1.3c0,0-0.1,0-0.1,0c0,0,0,0,0,0
		c-0.7,0.8-1.7,1.2-2.8,1.3c-1.2,0-2.2-1.1-2.2-2.3c0,0,0,0,0,0c0-0.7,0.4-1.2,1-1.5c0.6-0.4,3.3-1.2,3.8-1.4
		c0.2-0.1,0.3-0.2,0.4-0.4c0-0.3,0.1-0.8,0.1-1.3c0-1.2-0.2-2-0.7-2.4c-0.3-0.3-0.8-0.4-1.2-0.5c-0.4,0-0.8,0.1-1.2,0.4
		c-0.2,0.2-0.4,0.4-0.5,0.8c0,0.1,0,0.3,0,0.4c0,0.1,0,0.2-0.1,0.2c-0.4,0.2-0.7,0.4-1.1,0.5c-0.1,0-0.2-0.1-0.2-0.2
		c0-0.1,0.1-0.3,0.4-0.7c0.6-0.7,1.3-1.2,2.1-1.6c0.5-0.3,1-0.5,1.6-0.5C175.9,29,176.8,29.6,177.1,30.5z M175.3,38.1
		c0.2-0.2,0.3-0.5,0.4-0.7c0.1-0.9,0.1-1.7,0.1-2.6c0,0-0.1-0.2-0.1-0.1c-1,0.3-2,0.6-2.9,1.1c-0.4,0.3-0.7,0.8-0.6,1.4
		c0.1,0.9,0.9,1.6,1.8,1.5C174.4,38.6,174.9,38.4,175.3,38.1L175.3,38.1z">
  </path>
  <path class="st1" d="M177.3,39.7c-0.8-0.1-1.4-0.6-1.7-1.3c-0.7,0.8-1.8,1.2-2.8,1.3c-1.3,0-2.4-1.1-2.3-2.4c0,0,0,0,0,0
		c0-0.7,0.5-1.3,1.1-1.7c1.1-0.5,2.3-0.9,3.5-1.3l0.3-0.1c0.1-0.1,0.3-0.2,0.3-0.3c0-0.2,0.1-0.7,0.1-1.3c0-1.2-0.2-2-0.6-2.3
		c-0.3-0.2-0.7-0.4-1.1-0.4c-0.4,0-0.8,0.1-1.1,0.4c-0.2,0.2-0.4,0.4-0.4,0.7c0,0.1,0,0.3,0,0.4c0,0.1-0.1,0.2-0.1,0.3
		c-0.4,0.2-0.8,0.4-1.2,0.5c-0.2,0-0.3-0.2-0.4-0.4c0-0.2,0.1-0.3,0.4-0.8c0.6-0.7,1.4-1.3,2.2-1.7c0.5-0.3,1.1-0.5,1.6-0.5
		c1,0,1.9,0.7,2.2,1.6l0,0c0.2,0.8,0.3,1.7,0.3,2.5c0,0.5,0,1.5-0.1,2.4s-0.1,1.7-0.1,2c-0.1,0.5,0.2,0.9,0.7,1c0.1,0,0.2,0,0.3,0
		c0.3,0,0.5-0.1,0.8-0.2c0.1-0.1,0.3-0.1,0.3,0s0.1,0.3,0,0.4C179,39.3,178.2,39.8,177.3,39.7z M175.7,38.2L175.7,38.2
		c0.1,0,0.1,0,0.2,0.1c0.2,0.7,0.8,1.1,1.5,1.2c0.8,0,1.5-0.4,1.9-1c0,0,0,0,0-0.1l0,0c-0.3,0.2-0.6,0.2-0.9,0.3
		c-0.6,0-1.1-0.4-1.2-1c0-0.1,0-0.2,0-0.2c0-0.3,0-1.2,0.1-2s0.1-2,0.1-2.4c0-0.8-0.1-1.6-0.2-2.4c-0.3-0.9-1.1-1.5-2-1.5
		c-0.5,0-1.1,0.2-1.5,0.5c-0.8,0.4-1.5,1-2.1,1.6c-0.2,0.3-0.4,0.5-0.4,0.6c0,0.1,0,0.1,0.1,0.1c0.4-0.1,0.7-0.3,1.1-0.5
		c0,0,0.1-0.1,0.1-0.1c0-0.1,0-0.3,0-0.5c0.1-0.3,0.3-0.6,0.5-0.8c0.4-0.3,0.8-0.4,1.3-0.4c0.5,0,0.9,0.2,1.3,0.5
		c0.5,0.4,0.8,1.2,0.8,2.5c0,0.6,0,1.1-0.1,1.3c-0.1,0.2-0.2,0.4-0.5,0.5l-0.3,0.1c-1.2,0.4-2.3,0.8-3.5,1.3c-0.6,0.3-0.9,0.8-1,1.4
		c-0.1,1.2,0.9,2.2,2,2.2c0,0,0,0,0,0c1-0.1,2-0.5,2.7-1.2C175.5,38.2,175.6,38.1,175.7,38.2z M175.7,38.4L175.7,38.4z M173.9,38.7
		c-0.9,0-1.7-0.7-1.8-1.6c-0.1-0.6,0.2-1.2,0.7-1.5c1-0.4,1.9-0.8,2.9-1.1c0,0,0.1,0,0.1,0c0.1,0.1,0.1,0.1,0.1,0.2
		c0,0.9,0,1.8-0.1,2.6c0,0.3-0.2,0.6-0.4,0.8l0,0C175,38.5,174.5,38.7,173.9,38.7L173.9,38.7z M175.7,34.8c-1,0.3-1.9,0.6-2.8,1
		c-0.4,0.3-0.6,0.8-0.6,1.3c0.1,0.8,0.8,1.5,1.6,1.4c0,0,0,0,0,0c0.5,0,0.9-0.1,1.3-0.4c0.2-0.2,0.3-0.4,0.3-0.7
		C175.6,36.5,175.7,35.6,175.7,34.8L175.7,34.8L175.7,34.8z">
  </path>
  <path class="st1" d="M181.5,38.3c-0.2-0.5-0.4-1-0.3-1.5v-5.8c0-0.4,0-0.6-0.1-0.6c-0.3-0.1-0.5-0.1-0.8-0.2
		c-0.2,0-0.3-0.1-0.3-0.2s0-0.1,0.3-0.2c0.9-0.4,1.6-1,2.1-1.8c0.2-0.2,0.4-0.2,0.4-0.1c0,0.4-0.1,0.9-0.1,1.3c0,0.1,0,0.2,0.1,0.2
		c0.5,0,3-0.1,3.6-0.1c0.1,0,0.2,0.2,0.2,0.3c0,0.4-0.1,0.7-0.3,0.7H183c-0.4,0-0.4,0.1-0.4,0.2c0,0.4,0,4.8,0.1,5.7
		s0.1,1.3,0.3,1.6c0.4,0.6,1.1,0.9,1.9,0.8c0.6,0,1.2-0.1,1.6-0.5c0.2-0.1,0.3-0.1,0.3,0s-0.3,0.5-0.6,0.7c-0.6,0.4-1.4,0.7-2.1,0.7
		C183,39.7,182,39.2,181.5,38.3z">
  </path>
  <path class="st1" d="M184,39.7c-1.1,0.1-2.1-0.4-2.6-1.3c-0.3-0.5-0.4-1-0.4-1.6v-5.8c0-0.2,0-0.3,0-0.5c-0.2-0.1-0.5-0.1-0.8-0.2
		c-0.2,0-0.4-0.2-0.4-0.4s0.1-0.2,0.4-0.3c0.8-0.4,1.6-1,2.1-1.8c0.1-0.2,0.3-0.3,0.4-0.2c0.1,0,0.2,0.1,0.2,0.2
		c0,0.4-0.1,0.9-0.1,1.3c0,0.1,0,0.1,0,0.1h1.6h2c0.1,0,0.3,0.2,0.3,0.5c0,0.4-0.1,0.8-0.4,0.8h-1.9H183c-0.3,0-0.3,0-0.3,0.1
		c0,0.4,0,4.8,0.1,5.7s0.1,1.3,0.3,1.5c0.4,0.5,1.1,0.8,1.8,0.8c0.6,0,1.1-0.1,1.6-0.4c0,0,0.2-0.2,0.3-0.1c0.1,0,0.1,0.1,0.1,0.2
		c0,0.3-0.5,0.7-0.7,0.8C185.6,39.5,184.8,39.7,184,39.7z M180.1,29.9c0.1,0.1,0.1,0.1,0.2,0.1c0.3,0.1,0.5,0.1,0.8,0.2
		c0.2,0,0.2,0.3,0.2,0.7v5.8c0,0.5,0.1,1,0.3,1.5l0,0c0.5,0.8,1.4,1.3,2.4,1.2c0.7,0,1.5-0.2,2.1-0.7c0.2-0.1,0.4-0.3,0.6-0.5l0,0
		c-0.5,0.3-1.1,0.5-1.7,0.5c-0.8,0.1-1.5-0.3-2-0.9c-0.3-0.5-0.4-1.1-0.3-1.7c0-0.9-0.1-5.3-0.1-5.7c0-0.3,0.1-0.4,0.5-0.4h1.4h1.9
		c0.1-0.2,0.2-0.4,0.1-0.6c0-0.1,0-0.1-0.1-0.2h-2h-1.6c-0.2,0-0.3-0.1-0.3-0.4c0-0.4,0-0.9,0.1-1.3c0,0-0.1,0-0.2,0.1
		c-0.6,0.8-1.3,1.5-2.2,1.9L180.1,29.9z">
  </path>
  <path class="st1" d="M196.3,31.8c0,0.1-0.1,0.2-0.2,0.2c-0.2,0-3.9-0.1-4.5-0.1h-1.7c-0.1,0-0.2,0.2-0.3,0.2
		c-0.2,0.5-0.3,1.1-0.3,1.7c0,1.3,0.5,2.5,1.3,3.4c0.8,0.8,1.8,1.2,2.9,1.2c1,0.1,2-0.3,2.7-0.9c0.2-0.2,0.3-0.2,0.3-0.1
		c-0.1,0.2-0.2,0.4-0.3,0.5c-1,1.1-2.4,1.7-3.8,1.6c-1.2,0-2.4-0.5-3.2-1.4c-0.9-1-1.4-2.4-1.3-3.8c0-1.5,0.5-2.9,1.5-4
		c1-0.9,2.2-1.4,3.5-1.4C194.4,29,196.3,30,196.3,31.8z M190.4,30.4c-0.3,0.3-0.5,0.6-0.6,1c0,0.1,0,0.1,0.1,0.1h4.1
		c0.6,0,0.6-0.3,0.6-0.5c0-0.4-0.1-0.8-0.4-1.1c-0.4-0.4-1-0.6-1.6-0.6C191.8,29.4,191,29.8,190.4,30.4z">
  </path>
  <path class="st1" d="M192.5,39.7c-1.3,0-2.5-0.5-3.3-1.5c-0.9-1.1-1.4-2.4-1.4-3.8c0-1.5,0.5-3,1.6-4.1c1-0.9,2.3-1.5,3.6-1.5
		c1.5,0,3.5,1,3.5,2.9c0,0.2-0.2,0.4-0.4,0.4h-1.3l-3.2-0.1h-1.7c-0.1,0.1-0.1,0.1-0.2,0.2c-0.2,0.5-0.3,1.1-0.2,1.6
		c0,1.2,0.5,2.4,1.3,3.3c0.7,0.8,1.8,1.2,2.9,1.2c1,0.1,1.9-0.3,2.6-0.9c0.1-0.1,0.3-0.2,0.4-0.2c0.1,0,0.1,0.1,0.1,0.2
		c-0.1,0.2-0.2,0.4-0.4,0.6C195.4,39.2,194,39.8,192.5,39.7z M192.9,29.1c-1.3,0-2.5,0.5-3.4,1.4c-1,1.1-1.5,2.5-1.5,3.9
		c-0.1,1.3,0.4,2.7,1.3,3.7c0.8,0.9,2,1.4,3.2,1.4c1.4,0.1,2.8-0.5,3.7-1.6c0.1-0.1,0.2-0.2,0.2-0.3l-0.1,0.1
		c-0.7,0.7-1.7,1.1-2.8,1c-1.1,0-2.2-0.4-3-1.2c-0.9-1-1.3-2.2-1.3-3.5c0-0.6,0-1.2,0.3-1.7c0,0,0.2-0.3,0.4-0.3h1.7l3.2,0.1h1.3
		c0.1,0,0.1-0.1,0.1-0.1C196.2,30,194.3,29.1,192.9,29.1z M189.9,31.7c-0.1,0-0.2-0.1-0.2-0.2c0.1-0.4,0.3-0.8,0.6-1.1l0,0
		c0.6-0.7,1.4-1.1,2.3-1.1c0.6,0,1.2,0.2,1.7,0.6c0.3,0.3,0.4,0.8,0.4,1.2c0,0.3-0.1,0.6-0.7,0.6L189.9,31.7z M190.5,30.5
		c-0.2,0.3-0.4,0.6-0.5,0.9h4c0.5,0,0.5-0.2,0.5-0.4c0-0.4-0.1-0.7-0.4-1c-0.4-0.3-0.9-0.5-1.5-0.5C191.8,29.6,191.1,30,190.5,30.5
		L190.5,30.5z">
  </path>
  <path class="st1" d="M200.1,31.2c0.1,1,0.7,1.8,1.6,2.2c1.9,1.2,2.6,1.9,2.6,3.3c0,1-0.6,1.9-1.5,2.3c-0.6,0.4-1.3,0.6-2,0.6
		c-0.7,0-1.5-0.2-2.1-0.5c-0.2-0.1-0.3-0.2-0.4-0.4c0-0.4-0.1-1-0.1-1.3s0-0.4,0.1-0.4s0.1,0,0.3,0.5c0.2,0.6,0.6,1.1,1.2,1.4
		c0.4,0.2,0.8,0.3,1.2,0.3c1.1-0.1,1.9-0.9,1.9-2c0-1.2-0.8-1.7-1.8-2.4s-2.3-1.6-2.3-3c0-0.8,0.3-1.5,0.9-2.1
		c0.7-0.6,1.5-0.9,2.4-0.8c0.6,0,1.2,0.1,1.8,0.3c0.1,0.1,0.1,0.1,0.1,0.2c0,0.3,0.1,0.9,0.2,1.2s-0.1,0.5-0.1,0.5s-0.1-0.1-0.2-0.3
		c-0.1-0.4-0.4-0.8-0.7-1.1c-0.4-0.3-0.8-0.4-1.3-0.4c-0.9-0.1-1.7,0.6-1.8,1.5C200.1,31,200.1,31.1,200.1,31.2z">
  </path>
  <path class="st1" d="M200.7,39.8c-0.8,0-1.5-0.2-2.2-0.5c-0.2-0.1-0.4-0.3-0.4-0.5c0-0.3,0-0.8-0.1-1.2v-0.2
		c-0.1-0.2-0.1-0.3,0-0.5c0,0,0.1-0.1,0.2-0.1c0.1,0,0.3,0.1,0.4,0.6c0.2,0.6,0.6,1.1,1.1,1.4c0.3,0.2,0.7,0.3,1.1,0.3
		c1-0.1,1.8-0.9,1.8-1.9c0-1.1-0.8-1.7-1.7-2.3s-2.4-1.7-2.4-3.1c0-0.8,0.3-1.6,0.9-2.2c0.7-0.6,1.5-0.9,2.4-0.9
		c0.6,0,1.2,0.1,1.8,0.3c0.1,0.1,0.2,0.2,0.2,0.3c0,0.1,0,0.3,0.1,0.5s0.1,0.5,0.1,0.7s0,0.6-0.3,0.6s-0.2-0.2-0.3-0.3
		c0,0,0-0.1,0-0.1v-0.1c-0.1-0.4-0.3-0.7-0.6-0.9c-0.4-0.2-0.8-0.4-1.2-0.4c-0.9,0-1.6,0.6-1.6,1.5c0,0.1,0,0.1,0,0.2
		c0.1,0.9,0.7,1.8,1.6,2.1c1.9,1.2,2.6,1.9,2.6,3.4c0,1-0.6,2-1.6,2.4C202.2,39.6,201.5,39.8,200.7,39.8z M198.3,37.1
		c0,0.1,0,0.2,0,0.2v0.2c0,0.3,0.1,0.9,0.1,1.2c0,0.1,0.1,0.3,0.3,0.3c0.7,0.3,1.4,0.5,2.1,0.5c0.7,0,1.4-0.2,2-0.5
		c0.8-0.4,1.4-1.3,1.4-2.2c0-1.3-0.7-2-2.5-3.2c-0.9-0.4-1.6-1.3-1.7-2.3c-0.1-1,0.6-1.9,1.6-2c0.1,0,0.2,0,0.3,0
		c0.5,0,0.9,0.1,1.3,0.4c0.3,0.3,0.6,0.6,0.7,1v0.1v0.1c0,0,0,0.1,0.1,0.1c0-0.1,0-0.2,0-0.3c0-0.2,0-0.4-0.1-0.7s-0.1-0.4-0.1-0.6
		c0,0,0-0.1-0.1-0.1c-0.6-0.2-1.1-0.3-1.7-0.3c-0.8,0-1.6,0.3-2.3,0.8c-0.6,0.5-0.9,1.2-0.9,2c0,1.3,1.2,2.2,2.3,2.9
		s1.9,1.3,1.9,2.5c0,1.1-0.9,2-2,2.1c-0.4,0-0.9-0.1-1.3-0.3c-0.6-0.3-1-0.9-1.2-1.5C198.4,37.3,198.3,37.2,198.3,37.1z">
  </path>
 </g>
</svg>