<svg version="1.1" id="Layer_1" xmlns:x="ns_extend;" xmlns:i="ns_ai;" xmlns:graph="ns_graphs;" xmlns="http://www.w3.org/2000/svg" xmlns:xlink="http://www.w3.org/1999/xlink" x="0px" y="0px" viewBox="0 0 475.1 145" style="enable-background:new 0 0 475.1 145;" xml:space="preserve">
 <style type="text/css">
  .st0{fill:#003871;}
	.st1{fill:#96C93D;}
	.st2{fill:#FF8300;}
 </style>
 <metadata>
  <sfw xmlns="ns_sfw;">
   <slices>
   </slices>
   <sliceSourceBounds bottomLeftOrigin="true" height="145" width="475.1" x="-185.8" y="-134.7">
   </sliceSourceBounds>
  </sfw>
 </metadata>
 <g>
  <path class="st0" d="M56.7,32.6c27.2,0,40.1,15.6,40.1,15.6L85.4,66c0,0-10.8-11.3-27.2-11.3c-19.2,0-31.7,14.5-31.7,32.3
		c0,17.6,12.7,32.8,32.6,32.8c17.6,0,30.7-13.3,30.7-13.3l10,18.4c0,0-14.9,17-43,17C22.1,141.9,0,117.6,0,87.3
		C0,57.6,22.1,32.6,56.7,32.6">
  </path>
  <path class="st0" d="M177,108.4c0,0,11.5,11.5,28.5,11.5c7.4,0,13.7-3.3,13.7-9.4c0-15.6-50.8-13.5-50.8-47.1
		c0-19.5,17.4-30.7,39.9-30.7c23.5,0,35,11.9,35,11.9l-9.6,19.2c0,0-9.6-9-25.6-9c-6.8,0-13.3,2.9-13.3,9.4
		c0,14.7,50.8,12.9,50.8,46.5c0,17.4-15.1,31.3-39.9,31.3c-26,0-40.5-15.4-40.5-15.4L177,108.4z">
  </path>
  <rect x="106.7" class="st1" width="26.1" height="30.1">
  </rect>
  <rect x="132.7" y="30.1" class="st2" width="30.1" height="26.1">
  </rect>
  <path class="st0" d="M106.7,56.1V100c0,35,28.9,39.3,43.4,39.3c4.9,0,8-0.6,8-0.6v-22.7c0,0-1.8,0.4-4.7,0.4
		c-7.2,0-20.7-2.5-20.7-19.7V56.1H106.7z">
  </path>
  <path class="st0" d="M274,106.4v-9.2l-7.8-12.5h3.2c0,0,5.5,9,6.1,10.5h0.1c0.6-1.4,6.1-10.5,6.1-10.5h3.2l-8,12.5v9.3H274z">
  </path>
  <path class="st0" d="M297.8,98.4c0,5.8-4,8.3-7.8,8.3c-4.2,0-7.5-3.1-7.5-8c0-5.2,3.5-8.3,7.8-8.3
		C294.8,90.4,297.8,93.7,297.8,98.4 M285.4,98.6c0,3.4,1.9,6,4.7,6c2.7,0,4.7-2.6,4.7-6.1c0-2.6-1.3-6-4.7-6
		C286.9,92.5,285.4,95.6,285.4,98.6">
  </path>
  <path class="st0" d="M313.8,102.1c0,1.6,0,3.1,0.1,4.3h-2.5l-0.2-2.6h-0.1c-0.7,1.3-2.4,2.9-5.2,2.9c-2.5,0-5.4-1.4-5.4-6.8v-9.1
		h2.8v8.6c0,3,0.9,5,3.5,5c1.9,0,3.2-1.3,3.7-2.6c0.2-0.4,0.3-0.9,0.3-1.5v-9.6h2.8V102.1z">
  </path>
  <path class="st0" d="M317.4,95.6c0-1.8,0-3.4-0.1-4.9h2.5l0.1,3.1h0.1c0.7-2.1,2.5-3.4,4.4-3.4c0.3,0,0.5,0,0.8,0.1v2.7
		c-0.3-0.1-0.6-0.1-1-0.1c-2,0-3.4,1.5-3.8,3.6c-0.1,0.4-0.1,0.9-0.1,1.3v8.3h-2.8V95.6z">
  </path>
  <path class="st0" d="M338.2,84.9c1.4-0.2,4.4-0.4,6.7-0.4c2.8,0,4.8,0.6,6.1,1.8c1.2,1,1.9,2.6,1.9,4.6c0,2-0.6,3.5-1.7,4.7
		c-1.5,1.6-3.9,2.4-6.7,2.4c-0.8,0-2.9,0-3.5-0.2v8.7h-2.8V84.9z M341,95.4c0.6,0.2,2.7,0.2,3.6,0.2c3.4,0,5.5-1.7,5.5-4.6
		c0-2.9-2.1-4.3-5.1-4.3c-1.2,0-3.4,0.1-3.9,0.2V95.4z">
  </path>
  <path class="st0" d="M366.6,102.6c0,1.4,0.1,2.7,0.2,3.7h-2.6l-0.2-2H364c-0.9,1.2-2.6,2.3-4.8,2.3c-3.2,0-4.8-2.2-4.8-4.5
		c0-3.8,3.4-5.8,9.4-5.8v-0.3c0-1.3-0.4-3.6-3.6-3.6c-1.5,0-3,0.4-4.1,1.2l-0.6-1.9c1.3-0.8,3.2-1.4,5.2-1.4c4.8,0,5.9,3.3,5.9,6.4
		V102.6z M363.9,98.4c-3.1-0.1-6.6,0.5-6.6,3.5c0,1.9,1.2,2.7,2.6,2.7c2.1,0,3.4-1.3,3.8-2.6c0.1-0.3,0.1-0.6,0.1-0.9V98.4z">
  </path>
  <path class="st0" d="M369.8,95.6c0-1.8,0-3.4-0.1-4.9h2.5l0.1,3.1h0.1c0.7-2.1,2.5-3.4,4.4-3.4c0.3,0,0.5,0,0.8,0.1v2.7
		c-0.3-0.1-0.6-0.1-1-0.1c-2,0-3.4,1.5-3.8,3.6c-0.1,0.4-0.1,0.9-0.1,1.3v8.3h-2.8V95.6z">
  </path>
  <path class="st0" d="M385.2,87v3.7h4.1v2.2h-4.1v8.4c0,1.9,0.5,3,2.1,3c0.8,0,1.2-0.1,1.6-0.2l0.1,2.2c-0.5,0.2-1.4,0.4-2.5,0.4
		c-1.3,0-2.4-0.5-3.1-1.2c-0.8-0.9-1.1-2.3-1.1-4.1v-8.5H380v-2.2h2.4v-2.9L385.2,87z">
  </path>
  <path class="st0" d="M392.2,95c0-1.6,0-2.9-0.1-4.2h2.5l0.2,2.6h0.1c0.8-1.5,2.6-2.9,5.2-2.9c2.2,0,5.5,1.3,5.5,6.7v9.3h-2.8v-9
		c0-2.5-0.9-4.6-3.6-4.6c-1.8,0-3.3,1.3-3.8,2.9c-0.1,0.4-0.2,0.8-0.2,1.3v9.4h-2.8V95z">
  </path>
  <path class="st0" d="M410.7,99.1c0.1,3.8,2.5,5.4,5.4,5.4c2,0,3.3-0.4,4.3-0.8l0.5,2c-1,0.5-2.7,1-5.2,1c-4.8,0-7.7-3.2-7.7-7.9
		c0-4.7,2.8-8.4,7.3-8.4c5.1,0,6.5,4.5,6.5,7.3c0,0.6,0,1-0.1,1.3H410.7z M419,97c0-1.8-0.7-4.6-3.9-4.6c-2.9,0-4.1,2.6-4.4,4.6H419
		z">
  </path>
  <path class="st0" d="M424.3,95.6c0-1.8,0-3.4-0.1-4.9h2.5l0.1,3.1h0.1c0.7-2.1,2.5-3.4,4.4-3.4c0.3,0,0.5,0,0.8,0.1v2.7
		c-0.3-0.1-0.6-0.1-1-0.1c-2,0-3.4,1.5-3.8,3.6c-0.1,0.4-0.1,0.9-0.1,1.3v8.3h-2.8V95.6z">
  </path>
  <path class="st0" d="M446.3,86.4c0,1-0.7,1.7-1.8,1.7c-1,0-1.7-0.8-1.7-1.7s0.7-1.8,1.8-1.8C445.6,84.6,446.3,85.4,446.3,86.4
		 M443.1,90.8h2.8v15.6h-2.8V90.8z">
  </path>
  <path class="st0" d="M449.2,95c0-1.6,0-2.9-0.1-4.2h2.5l0.2,2.6h0.1c0.8-1.5,2.6-2.9,5.2-2.9c2.2,0,5.5,1.3,5.5,6.7v9.3h-2.8v-9
		c0-2.5-0.9-4.6-3.6-4.6c-1.8,0-3.3,1.3-3.8,2.9c-0.1,0.4-0.2,0.8-0.2,1.3v9.4h-2.8V95z">
  </path>
  <path class="st0" d="M266.8,135.2c1.3,0.8,3.1,1.4,5,1.4c2.9,0,4.6-1.5,4.6-3.7c0-2-1.2-3.2-4.1-4.3c-3.6-1.3-5.8-3.2-5.8-6.2
		c0-3.4,2.8-5.9,7-5.9c2.2,0,3.8,0.5,4.8,1.1l-0.8,2.3c-0.7-0.4-2.1-1-4.1-1c-3,0-4.1,1.8-4.1,3.3c0,2,1.3,3,4.3,4.2
		c3.7,1.4,5.5,3.2,5.5,6.4c0,3.4-2.5,6.3-7.6,6.3c-2.1,0-4.4-0.6-5.6-1.4L266.8,135.2z">
  </path>
  <path class="st0" d="M317.2,134.9c0,1.4,0.1,2.7,0.2,3.7h-2.6l-0.2-2h-0.1c-0.9,1.2-2.6,2.3-4.8,2.3c-3.2,0-4.8-2.2-4.8-4.5
		c0-3.8,3.4-5.8,9.4-5.8v-0.3c0-1.3-0.4-3.6-3.6-3.6c-1.5,0-3,0.4-4.1,1.2l-0.6-1.9c1.3-0.8,3.2-1.4,5.2-1.4c4.8,0,5.9,3.3,5.9,6.4
		V134.9z M314.5,130.7c-3.1-0.1-6.6,0.5-6.6,3.5c0,1.9,1.2,2.7,2.6,2.7c2.1,0,3.4-1.3,3.8-2.6c0.1-0.3,0.1-0.6,0.1-0.9V130.7z">
  </path>
  <path class="st0" d="M320.3,127.9c0-1.8,0-3.4-0.1-4.9h2.5l0.1,3.1h0.1c0.7-2.1,2.5-3.4,4.4-3.4c0.3,0,0.5,0,0.8,0.1v2.7
		c-0.3-0.1-0.6-0.1-1-0.1c-2,0-3.4,1.5-3.8,3.6c-0.1,0.4-0.1,0.9-0.1,1.3v8.3h-2.8V127.9z">
  </path>
  <path class="st0" d="M335.1,119.3v3.7h4.1v2.2h-4.1v8.4c0,1.9,0.5,3,2.1,3c0.8,0,1.2-0.1,1.6-0.2l0.1,2.2c-0.5,0.2-1.4,0.4-2.5,0.4
		c-1.3,0-2.4-0.5-3.1-1.2c-0.8-0.9-1.1-2.3-1.1-4.1v-8.5h-2.4V123h2.4v-2.9L335.1,119.3z">
  </path>
  <path class="st0" d="M349.4,135.2c1.3,0.8,3.1,1.4,5,1.4c2.9,0,4.6-1.5,4.6-3.7c0-2-1.2-3.2-4.1-4.3c-3.6-1.3-5.8-3.2-5.8-6.2
		c0-3.4,2.8-5.9,7-5.9c2.2,0,3.8,0.5,4.8,1.1l-0.8,2.3c-0.7-0.4-2.1-1-4.1-1c-3,0-4.1,1.8-4.1,3.3c0,2,1.3,3,4.3,4.2
		c3.7,1.4,5.5,3.2,5.5,6.4c0,3.4-2.5,6.3-7.6,6.3c-2.1,0-4.4-0.6-5.6-1.4L349.4,135.2z">
  </path>
  <path class="st0" d="M266.8,135.2c1.3,0.8,3.1,1.4,5,1.4c2.9,0,4.6-1.5,4.6-3.7c0-2-1.2-3.2-4.1-4.3c-3.6-1.3-5.8-3.2-5.8-6.2
		c0-3.4,2.8-5.9,7-5.9c2.2,0,3.8,0.5,4.8,1.1l-0.8,2.3c-0.7-0.4-2.1-1-4.1-1c-3,0-4.1,1.8-4.1,3.3c0,2,1.3,3,4.3,4.2
		c3.7,1.4,5.5,3.2,5.5,6.4c0,3.4-2.5,6.3-7.6,6.3c-2.1,0-4.4-0.6-5.6-1.4L266.8,135.2z">
  </path>
  <path class="st0" d="M379,130.7c0,5.8-4,8.3-7.8,8.3c-4.2,0-7.5-3.1-7.5-8c0-5.2,3.5-8.3,7.8-8.3C376,122.7,379,126,379,130.7
		 M366.6,130.9c0,3.4,1.9,6,4.7,6c2.7,0,4.7-2.6,4.7-6.1c0-2.6-1.3-6-4.7-6C368.1,124.8,366.6,127.9,366.6,130.9">
  </path>
  <rect x="381.4" y="115.7" class="st0" width="2.8" height="22.9">
  </rect>
  <path class="st0" d="M400.5,134.4c0,1.6,0,3.1,0.1,4.3h-2.5l-0.2-2.6h-0.1c-0.7,1.3-2.4,2.9-5.2,2.9c-2.5,0-5.4-1.4-5.4-6.8V123
		h2.8v8.6c0,3,0.9,5,3.5,5c1.9,0,3.2-1.3,3.7-2.6c0.2-0.4,0.3-0.9,0.3-1.5V123h2.8V134.4z">
  </path>
  <path class="st0" d="M408.4,119.3v3.7h4.1v2.2h-4.1v8.4c0,1.9,0.5,3,2.1,3c0.8,0,1.2-0.1,1.6-0.2l0.1,2.2c-0.5,0.2-1.4,0.4-2.5,0.4
		c-1.3,0-2.4-0.5-3.1-1.2c-0.8-0.9-1.1-2.3-1.1-4.1v-8.5h-2.4V123h2.4v-2.9L408.4,119.3z">
  </path>
  <path class="st0" d="M418.4,118.6c0,1-0.7,1.7-1.8,1.7c-1,0-1.7-0.8-1.7-1.7c0-1,0.7-1.8,1.8-1.8
		C417.7,116.9,418.4,117.6,418.4,118.6 M415.3,123h2.8v15.6h-2.8V123z">
  </path>
  <path class="st0" d="M435.9,130.7c0,5.8-4,8.3-7.8,8.3c-4.2,0-7.5-3.1-7.5-8c0-5.2,3.5-8.3,7.8-8.3
		C432.9,122.7,435.9,126,435.9,130.7 M423.5,130.9c0,3.4,1.9,6,4.7,6c2.7,0,4.7-2.6,4.7-6.1c0-2.6-1.3-6-4.7-6
		C425,124.8,423.5,127.9,423.5,130.9">
  </path>
  <path class="st0" d="M438.1,127.3c0-1.6,0-2.9-0.1-4.2h2.5l0.2,2.6h0.1c0.8-1.5,2.6-2.9,5.2-2.9c2.2,0,5.5,1.3,5.5,6.7v9.3h-2.8v-9
		c0-2.5-0.9-4.6-3.6-4.6c-1.8,0-3.3,1.3-3.8,2.9c-0.1,0.4-0.2,0.8-0.2,1.3v9.4h-2.8V127.3z">
  </path>
  <path class="st0" d="M454.5,135.8c0.9,0.5,2.4,1.1,3.8,1.1c2,0,3-1,3-2.3c0-1.4-0.8-2.1-2.9-2.8c-2.8-1-4.2-2.6-4.2-4.4
		c0-2.5,2.1-4.6,5.4-4.6c1.6,0,3,0.4,3.8,1l-0.7,2.1c-0.6-0.4-1.7-0.9-3.2-0.9c-1.7,0-2.6,1-2.6,2.1c0,1.3,0.9,1.9,2.9,2.7
		c2.7,1,4.1,2.4,4.1,4.7c0,2.8-2.2,4.7-5.8,4.7c-1.7,0-3.3-0.5-4.4-1.1L454.5,135.8z">
  </path>
  <path class="st0" d="M298,122.7c0,0-0.1,0-0.1,0c-0.1,0-0.1,0-0.2,0c-1.4,0-2.3,0.4-3.2,1.1c-0.5,0.4-1.1,1-1.5,1.8
		c-0.7-1.7-2.1-2.9-4-2.9c-0.1,0-0.1,0-0.2,0c0,0-0.1,0-0.1,0c-2.3,0-3.6,1.2-4.4,2.6l-0.1-2.3h-0.3h-2h-0.3
		c0.1,1.3,0.1,2.6,0.1,4.2v11.4h0.3h2.3h0.3v-9.4c0-0.5,0.1-1,0.2-1.4c0.4-1.4,1.6-2.7,3.1-2.8c1.9,0.1,2.9,1.8,2.9,4.2v9.4h0.3h2.3
		h0.3V129c0-0.5,0.1-1,0.2-1.4c0.5-1.3,1.6-2.5,3-2.5c2,0.1,3,1.8,3,4.8v8.8h0.3h2.3h0.3v-9.2C302.8,124.1,299.9,122.7,298,122.7">
  </path>
  <path class="st0" d="M246,130.7c3.4,0,6,2.7,6,6.1c0,3.4-2.7,6.2-6,6.2c-3.3,0-6-2.8-6-6.2C240,133.4,242.7,130.7,246,130.7
		 M246,141.6c2.6,0,4.6-2.1,4.6-4.8c0-2.7-2-4.8-4.6-4.8c-2.5,0-4.5,2.1-4.5,4.8C241.5,139.5,243.5,141.6,246,141.6 M243.9,133.7
		h2.6c1.2,0,2,0.8,2,1.9c0,1-0.7,1.5-1.1,1.6v0c0,0,0.1,0.1,0.2,0.4l1.2,2.2h-1.6l-1-2.3h-0.8v2.3h-1.4V133.7z M246.1,136.6
		c0.6,0,0.9-0.4,0.9-0.9c0-0.6-0.3-0.9-0.9-0.9h-0.8v1.8H246.1z">
  </path>
  <path class="st0" d="M470.3,135.4c2.6,0,4.7,2.1,4.7,4.8c0,2.7-2.1,4.8-4.7,4.8c-2.6,0-4.7-2.1-4.7-4.8
		C465.7,137.5,467.7,135.4,470.3,135.4 M470.3,144.1c2.1,0,3.8-1.7,3.8-3.9c0-2.2-1.6-3.9-3.8-3.9c-2.1,0-3.7,1.7-3.7,3.9
		C466.6,142.4,468.2,144.1,470.3,144.1 M468.7,137.7h1.9c0.9,0,1.6,0.6,1.6,1.5c0,0.8-0.5,1.2-0.9,1.3v0c0,0,0.1,0,0.2,0.3l1,1.8h-1
		l-0.9-1.9h-0.8v1.9h-0.9V137.7z M470.5,140c0.5,0,0.8-0.3,0.8-0.8c0-0.5-0.3-0.8-0.8-0.8h-0.8v1.6H470.5z">
  </path>
 </g>
</svg>