<svg version="1.1" id="Layer_1" xmlns:x="ns_extend;" xmlns:i="ns_ai;" xmlns:graph="ns_graphs;" xmlns="http://www.w3.org/2000/svg" xmlns:xlink="http://www.w3.org/1999/xlink" x="0px" y="0px" viewBox="0 0 188.4 53" style="enable-background:new 0 0 188.4 53;" xml:space="preserve">
 <style type="text/css">
  .st0{fill:#2E2459;}
	.st1{fill:#8500FF;}
 </style>
 <metadata>
  <sfw xmlns="ns_sfw;">
   <slices>
   </slices>
   <sliceSourceBounds bottomLeftOrigin="true" height="53" width="188.4" x="-108.3" y="0">
   </sliceSourceBounds>
  </sfw>
 </metadata>
 <g id="::_logo" transform="translate(-238 -25)">
  <path id="Path_1" class="st0" d="M348.1,25h-39.3c-3,0-5.5,2.4-5.5,5.5v46.4c0,0.6,0.5,1.1,1.1,1.1c0,0,0,0,0.1,0h12.7
		c0.6,0,1.1-0.5,1.1-1.1c0,0,0,0,0-0.1V63.3c0-0.2,0.1-0.3,0.3-0.3h29.5V49.8h-29.5c-0.2,0-0.3-0.1-0.3-0.3v-9.2
		c0-0.2,0.1-0.3,0.3-0.3h29.5V25z">
  </path>
  <path id="Path_2" class="st0" d="M425.3,25h-12.7c-0.6,0-1.1,0.5-1.1,1.1c0,0,0,0,0,0.1v26.2c0,0.2-0.1,0.3-0.3,0.3
		c-0.1,0-0.2-0.1-0.3-0.1l-16.1-24.9c-1.1-1.6-2.9-2.6-4.9-2.6h-11.8v53h13.8c0.6,0,1.1-0.5,1.1-1.1c0,0,0,0,0-0.1V52.3
		c0-0.2,0.1-0.3,0.3-0.3c0.1,0,0.2,0.1,0.3,0.1l16.1,23.3c1.1,1.5,2.9,2.5,4.8,2.5h10.7c0.6,0,1.1-0.5,1.1-1.1c0,0,0,0,0-0.1V26.1
		C426.4,25.5,425.9,25,425.3,25C425.3,25,425.3,25,425.3,25z">
  </path>
  <path id="Path_3" class="st1" d="M270.9,25h-27.4c-3,0-5.4,2.5-5.5,5.5v21l0,0c0,4.1,3.3,7.4,7.5,7.5c4.1,0,7.4-3.3,7.5-7.5l0,0V41
		c0-0.6,0.5-1.1,1.1-1.1c0,0,0,0,0.1,0H271c6.5,0,11.8,5.2,11.8,11.7c0,0,0,0,0,0C282.6,58,277.5,63,271.2,63h-32.1
		c-0.6,0-1.1,0.5-1.1,1.1c0,0,0,0,0,0.1v12.7c0,0.6,0.5,1.1,1.1,1.1c0,0,0,0,0.1,0l32.1-0.1c14.6,0,26.4-11.8,26.4-26.4
		c0-14.6-11.8-26.4-26.4-26.4C271.1,25,271,25,270.9,25z">
  </path>
  <rect id="Rectangle_1" x="355.6" y="25" class="st0" width="14.9" height="53">
  </rect>
 </g>
</svg>