<svg version="1.1" id="Layer_1" xmlns:x="ns_extend;" xmlns:i="ns_ai;" xmlns:graph="ns_graphs;" xmlns="http://www.w3.org/2000/svg" xmlns:xlink="http://www.w3.org/1999/xlink" x="0px" y="0px" viewBox="0 0 400.4 82" style="enable-background:new 0 0 400.4 82;" xml:space="preserve">
 <style type="text/css">
  .st0{fill:#531295;}
	.st1{fill:#00C1F3;}
 </style>
 <metadata>
  <sfw xmlns="ns_sfw;">
   <slices>
   </slices>
   <sliceSourceBounds bottomLeftOrigin="true" height="82" width="400.4" x="-124.2" y="-25.5">
   </sliceSourceBounds>
  </sfw>
 </metadata>
 <g id="Group_959" transform="translate(0 134.469)">
  <g>
   <g id="Group_814" transform="translate(0 -134.469)">
    <path id="Path_477" class="st0" d="M110.6,31.6h-4.4v-25h4.4c3.5-0.2,6.9,0.9,9.6,3.1c2.5,2.5,3.7,5.9,3.5,9.4
				c0.2,3.5-1,6.9-3.5,9.3C117.5,30.7,114.1,31.8,110.6,31.6 M125.4,5c-4.2-3.5-9.5-5.2-14.9-5H98.8v38.2h11.6
				c5.4,0.2,10.7-1.5,14.9-5c3.9-3.6,6-8.8,5.7-14.1C131.4,13.8,129.3,8.6,125.4,5">
    </path>
    <path id="Path_478" class="st0" d="M165.5,31.7h-19.2v-10h17.5v-6.5h-17.5V6.6h19V0h-26.3v38.2h26.5L165.5,31.7z">
    </path>
    <path id="Path_479" class="st0" d="M181.2,22.8h18v-6.5h-18V6.6h19.6V0h-26.9v38.2h7.3V22.8z">
    </path>
    <path id="Path_480" class="st0" d="M208.7,38.2h7.3V0h-7.3V38.2z">
    </path>
    <path id="Path_481" class="st0" d="M232.7,11.8l0.3,0.5l17.2,25.9h7V0h-7v26.4l-0.3-0.5L232.8,0h-7.1v38.2h7V11.8z">
    </path>
    <path id="Path_482" class="st0" d="M267,38.2h7.3V0H267V38.2z">
    </path>
    <path id="Path_483" class="st0" d="M292.8,38.2h7.3V6.7h11.7V0h-30.6v6.6h11.7V38.2z">
    </path>
    <path id="Path_484" class="st0" d="M318.6,38.2h7.3V0h-7.3V38.2z">
    </path>
    <path id="Path_485" class="st0" d="M367.7,0H360l-9.6,26.2l-0.7,2.3c-0.2-0.7-0.5-1.5-0.7-2.4L339.3,0h-7.7l14.5,38.2h7.1
				L367.7,0z">
    </path>
    <path id="Path_486" class="st0" d="M399,31.7h-19.2v-10h17.5v-6.5h-17.5V6.6h19V0h-26.3v38.2H399L399,31.7z">
    </path>
    <path id="Path_487" class="st1" d="M117.4,62.4h-13V49.7h-6.3v31.7h6.3V68.1h13v13.3h6.3V49.7h-6.3L117.4,62.4z">
    </path>
    <path id="Path_488" class="st1" d="M137.9,67.8h14.4v-5.6h-14.4v-6.9h15.7v-5.6h-21.9v31.7h22.1v-5.6h-15.8V67.8z">
    </path>
    <path id="Path_489" class="st1" d="M173.5,57.9l3.8,9.6h-7.6l3.4-8.6C173.2,58.6,173.4,58.2,173.5,57.9 M170.6,49.7l-13.1,31.7
				h6.7l3.3-8.4h11.9l3.3,8.4h6.7l-13.1-31.7L170.6,49.7z">
    </path>
    <path id="Path_490" class="st1" d="M199.7,49.7h-6.3v31.7h21.9v-5.6h-15.6L199.7,49.7z">
    </path>
    <path id="Path_491" class="st1" d="M215.1,55.4h9.7v26h6.2v-26h9.6v-5.7h-25.5L215.1,55.4z">
    </path>
    <path id="Path_492" class="st1" d="M265.5,62.4h-13V49.7h-6.3v31.7h6.3V68.1h13v13.3h6.3V49.7h-6.3V62.4z">
    </path>
    <path id="Path_493" class="st1" d="M303.7,70.5c-1.6,3.6-5.2,5.9-9.2,5.9c-2.7,0.1-5.3-1-7.1-3.1c-1.9-2.1-2.9-4.8-2.8-7.7
				c-0.1-2.9,1-5.6,2.9-7.7c1.8-2,4.4-3.1,7-3.1c3.9,0,7.4,2.3,8.9,5.9l0.4,0.7l5-3.5l-0.3-0.5c-1.2-2.5-3.1-4.6-5.4-6
				c-2.6-1.5-5.5-2.3-8.5-2.2c-4.3-0.1-8.6,1.6-11.6,4.6c-3.2,3.1-4.9,7.4-4.8,11.8c-0.1,4.4,1.5,8.6,4.6,11.8
				c3.1,3.1,7.2,4.8,11.6,4.6c2.9,0.1,5.8-0.6,8.3-2c2.4-1.6,4.4-3.7,5.9-6.2l0.4-0.6l-4.9-3.4L303.7,70.5z">
    </path>
    <path id="Path_494" class="st1" d="M327.1,57.9l3.8,9.6h-7.6l3.4-8.6C326.8,58.6,327,58.2,327.1,57.9 M324.2,49.7l-13.1,31.7h6.7
				l3.3-8.4H333l3.3,8.4h6.7l-13.1-31.7L324.2,49.7z">
    </path>
    <path id="Path_495" class="st1" d="M353.3,55.2h7c4.8,0,5.3,2.3,5.3,4c0,1.7-0.6,4-5.3,4h-7V55.2z M369.7,64.9
				c1.4-1.6,2.2-3.7,2.1-5.9c0.1-2.6-1.1-5.1-3.1-6.8c-2.4-1.8-5.3-2.7-8.2-2.5H347v31.7h6.3V68.7h5l7.3,12.7h7.3L364.9,68
				C366.7,67.4,368.4,66.4,369.7,64.9">
    </path>
    <path id="Path_496" class="st1" d="M384.6,75.8v-8H399v-5.6h-14.4v-6.9h15.7v-5.6h-21.9v31.7h22.1v-5.6L384.6,75.8z">
    </path>
    <path id="Path_497" class="st0" d="M59.9,60.6H49.7V31.1H20.3V21h39.6V60.6z">
    </path>
    <path id="Path_498" class="st0" d="M0,0.8v80.1h7.2l51.2-51.2l-7.2-7.2L10.2,63.5V10.9H70v59.8H31.7L21.5,80.9h58.6V0.8L0,0.8z">
    </path>
   </g>
  </g>
 </g>
</svg>