<svg version="1.1" id="Layer_1" xmlns:x="ns_extend;" xmlns:i="ns_ai;" xmlns:graph="ns_graphs;" xmlns="http://www.w3.org/2000/svg" xmlns:xlink="http://www.w3.org/1999/xlink" x="0px" y="0px" viewBox="0 0 432.1 148.1" style="enable-background:new 0 0 432.1 148.1;" xml:space="preserve">
 <style type="text/css">
  .st0{fill:#006A37;}
	.st1{fill:#FFFFFF;}
	.st2{fill:none;stroke:#FFFFFF;stroke-width:4.100000e-02;stroke-linecap:round;stroke-linejoin:round;stroke-miterlimit:10;}
	.st3{fill:#CE202F;}
 </style>
 <metadata>
  <sfw xmlns="ns_sfw;">
   <slices>
   </slices>
   <sliceSourceBounds bottomLeftOrigin="true" height="148.1" width="432.1" x="-16.6" y="-340.3">
   </sliceSourceBounds>
  </sfw>
 </metadata>
 <g>
  <path class="st0" d="M44.4,136.1c-9.8,0-15.7-4.4-17.8-13.4C16.4,78.4,4.5,25.4,0.1,6.4C-0.7,2.9,2.2-0.4,5.8,0l209.8,23.8L426.3,0
		c3.6-0.4,6.5,2.8,5.7,6.4c-4.4,18.8-17,72-27.4,116.4c-2.1,9-7.9,13.4-17.7,13.4">
  </path>
  <path class="st1" d="M386.4,128.7c6.5,0.1,9.4-1.7,10.8-7.6C410.2,65.3,423.8,7.8,423.8,7.8L215.7,31.3L8,7.8
		c0,0,12.7,57.5,25.8,113.3c1.4,5.9,4.4,7.7,10.8,7.6">
  </path>
  <path class="st0" d="M346.5,136.3c0,6.5-5.5,11.8-12.2,11.8H97c-6.8,0-12.2-5.3-12.2-11.8v-5.9c0-6.5,5.5-11.8,12.2-11.8h237.2
		c6.8,0,12.2,5.3,12.2,11.8">
  </path>
  <path class="st1" d="M111.2,137.8c2.5,0,4.4-2,4.4-4.5c0-2.5-1.8-4.5-4.4-4.5h-2.2v9.1 M105.6,125.9c0-0.2,0.2-0.4,0.4-0.4h5.5
		c4.3,0,7.9,3.5,7.9,7.8c0,4.3-3.6,7.9-7.9,7.9H106c-0.2,0-0.4-0.2-0.4-0.4V125.9z">
  </path>
  <path class="st2" d="M105.6,125.9c0-0.2,0.2-0.4,0.4-0.4h5.5c4.3,0,7.9,3.5,7.9,7.8c0,4.3-3.6,7.9-7.9,7.9H106
		c-0.2,0-0.4-0.2-0.4-0.4V125.9z">
  </path>
  <path class="st2" d="M111.2,137.8c2.5,0,4.4-2,4.4-4.5c0-2.5-1.8-4.5-4.4-4.5h-2.2v9.1H111.2z">
  </path>
  <path class="st1" d="M139.4,137.8c2.5,0,4.5-2,4.5-4.5c0-2.5-2-4.5-4.5-4.5c-2.4,0-4.5,2-4.5,4.5
		C134.9,135.8,136.9,137.8,139.4,137.8 M139.4,125.2c4.5,0,8.1,3.6,8.1,8.1c0,4.5-3.6,8-8.1,8c-4.5,0-8.1-3.6-8.1-8
		C131.3,128.8,134.9,125.2,139.4,125.2">
  </path>
  <path class="st2" d="M139.4,125.2c4.5,0,8.1,3.6,8.1,8.1c0,4.5-3.6,8-8.1,8c-4.5,0-8.1-3.6-8.1-8
		C131.3,128.8,134.9,125.2,139.4,125.2z">
  </path>
  <path class="st2" d="M139.4,137.8c2.5,0,4.5-2,4.5-4.5c0-2.5-2-4.5-4.5-4.5c-2.4,0-4.5,2-4.5,4.5
		C134.9,135.8,136.9,137.8,139.4,137.8z">
  </path>
  <path class="st1" d="M160.2,125.9c0-0.2,0.2-0.4,0.4-0.4h2.8c0.2,0,0.4,0.2,0.4,0.4v9.1c0,1.6,1.2,2.8,2.8,2.8
		c1.6,0,2.8-1.3,2.8-2.8v-9.1c0-0.2,0.2-0.4,0.4-0.4h2.8c0.2,0,0.4,0.2,0.4,0.4v9.2c0,3.4-2.9,6.2-6.4,6.2c-3.5,0-6.4-2.8-6.4-6.2">
  </path>
  <path class="st2" d="M160.2,125.9c0-0.2,0.2-0.4,0.4-0.4h2.8c0.2,0,0.4,0.2,0.4,0.4v9.1c0,1.6,1.2,2.8,2.8,2.8
		c1.6,0,2.8-1.3,2.8-2.8v-9.1c0-0.2,0.2-0.4,0.4-0.4h2.8c0.2,0,0.4,0.2,0.4,0.4v9.2c0,3.4-2.9,6.2-6.4,6.2c-3.5,0-6.4-2.8-6.4-6.2
		V125.9z">
  </path>
  <path class="st1" d="M193.9,125.3c1.9,0,4,0.8,5.5,2.1c0.2,0.2,0.2,0.4,0,0.6l-1.8,1.9c-0.2,0.2-0.4,0.2-0.6,0
		c-0.9-0.8-1.8-1.1-2.9-1.1c-2.4,0-4.4,2.1-4.4,4.5c0,2.4,2,4.5,4.4,4.5c0.7,0,1.3-0.1,2-0.4v-1.3h-1.4c-0.2,0-0.4-0.2-0.4-0.4v-2.2
		c0-0.2,0.2-0.4,0.4-0.4h4.5c0.2,0,0.4,0.2,0.4,0.4l0,6c0,0.1-0.1,0.3-0.2,0.4c0,0-2.3,1.5-5.6,1.5c-4.5,0-8.1-3.5-8.1-8
		C185.8,128.8,189.4,125.3,193.9,125.3">
  </path>
  <path class="st2" d="M193.9,125.3c1.9,0,4,0.8,5.5,2.1c0.2,0.2,0.2,0.4,0,0.6l-1.8,1.9c-0.2,0.2-0.4,0.2-0.6,0
		c-0.9-0.8-1.8-1.1-2.9-1.1c-2.4,0-4.4,2.1-4.4,4.5c0,2.4,2,4.5,4.4,4.5c0.7,0,1.3-0.1,2-0.4v-1.3h-1.4c-0.2,0-0.4-0.2-0.4-0.4v-2.2
		c0-0.2,0.2-0.4,0.4-0.4h4.5c0.2,0,0.4,0.2,0.4,0.4l0,6c0,0.1-0.1,0.3-0.2,0.4c0,0-2.3,1.5-5.6,1.5c-4.5,0-8.1-3.5-8.1-8
		C185.8,128.8,189.4,125.3,193.9,125.3z">
  </path>
  <path class="st1" d="M213.1,125.9c0-0.2,0.2-0.4,0.4-0.4h2.7c0.2,0,0.4,0.2,0.4,0.4v5.6h6.4v-5.6c0-0.2,0.2-0.4,0.4-0.4h2.7
		c0.2,0,0.4,0.2,0.4,0.4v14.8c0,0.2-0.2,0.4-0.4,0.4h-2.7c-0.2,0-0.4-0.2-0.4-0.4v-5.9h-6.4v5.9c0,0.2-0.2,0.4-0.4,0.4h-2.7
		c-0.2,0-0.4-0.2-0.4-0.4">
  </path>
  <path class="st2" d="M213.1,125.9c0-0.2,0.2-0.4,0.4-0.4h2.7c0.2,0,0.4,0.2,0.4,0.4v5.6h6.4v-5.6c0-0.2,0.2-0.4,0.4-0.4h2.7
		c0.2,0,0.4,0.2,0.4,0.4v14.8c0,0.2-0.2,0.4-0.4,0.4h-2.7c-0.2,0-0.4-0.2-0.4-0.4v-5.9h-6.4v5.9c0,0.2-0.2,0.4-0.4,0.4h-2.7
		c-0.2,0-0.4-0.2-0.4-0.4V125.9z">
  </path>
  <path class="st1" d="M240.7,125.6c0-0.2,0.2-0.4,0.4-0.4h0.6l9,8.6h0v-7.9c0-0.2,0.2-0.4,0.4-0.4h2.7c0.2,0,0.4,0.2,0.4,0.4V141
		c0,0.2-0.2,0.4-0.4,0.4h-0.4l-0.3-0.1l-8.9-8.9h0v8.3c0,0.2-0.2,0.4-0.4,0.4h-2.7c-0.2,0-0.4-0.2-0.4-0.4">
  </path>
  <path class="st2" d="M240.7,125.6c0-0.2,0.2-0.4,0.4-0.4h0.6l9,8.6h0v-7.9c0-0.2,0.2-0.4,0.4-0.4h2.7c0.2,0,0.4,0.2,0.4,0.4V141
		c0,0.2-0.2,0.4-0.4,0.4h-0.4l-0.3-0.1l-8.9-8.9h0v8.3c0,0.2-0.2,0.4-0.4,0.4h-2.7c-0.2,0-0.4-0.2-0.4-0.4L240.7,125.6z">
  </path>
  <path class="st1" d="M268.1,125.9c0-0.2,0.2-0.4,0.4-0.4h2.8c0.2,0,0.4,0.2,0.4,0.4v9.1c0,1.6,1.2,2.8,2.8,2.8
		c1.6,0,2.8-1.3,2.8-2.8v-9.1c0-0.2,0.2-0.4,0.4-0.4h2.8c0.2,0,0.4,0.2,0.4,0.4v9.2c0,3.4-2.9,6.2-6.4,6.2c-3.5,0-6.4-2.8-6.4-6.2">
  </path>
  <path class="st2" d="M268.1,125.9c0-0.2,0.2-0.4,0.4-0.4h2.8c0.2,0,0.4,0.2,0.4,0.4v9.1c0,1.6,1.2,2.8,2.8,2.8
		c1.6,0,2.8-1.3,2.8-2.8v-9.1c0-0.2,0.2-0.4,0.4-0.4h2.8c0.2,0,0.4,0.2,0.4,0.4v9.2c0,3.4-2.9,6.2-6.4,6.2c-3.5,0-6.4-2.8-6.4-6.2
		V125.9z">
  </path>
  <path class="st1" d="M296.7,128.8h-3.2c-0.2,0-0.4-0.2-0.4-0.4v-2.4c0-0.2,0.2-0.4,0.4-0.4h10c0.2,0,0.4,0.2,0.4,0.4v2.4
		c0,0.2-0.2,0.4-0.4,0.4h-3.2v12c0,0.2-0.2,0.4-0.4,0.4h-2.7c-0.2,0-0.4-0.2-0.4-0.4">
  </path>
  <path class="st2" d="M296.7,128.8h-3.2c-0.2,0-0.4-0.2-0.4-0.4v-2.4c0-0.2,0.2-0.4,0.4-0.4h10c0.2,0,0.4,0.2,0.4,0.4v2.4
		c0,0.2-0.2,0.4-0.4,0.4h-3.2v12c0,0.2-0.2,0.4-0.4,0.4h-2.7c-0.2,0-0.4-0.2-0.4-0.4V128.8z">
  </path>
  <path class="st1" d="M315.7,139l1.1-1.9c0.2-0.3,0.6-0.2,0.8-0.1c0.1,0,1.7,1.2,3.2,1.2c0.9,0,1.6-0.6,1.6-1.3
		c0-0.9-0.8-1.7-2.3-2.3c-1.9-0.8-4.4-2.3-4.4-4.9c0-2.2,1.7-4.5,5.2-4.5c2.3,0,4.1,1.2,4.8,1.7c0.3,0.2,0.2,0.6,0.1,0.7l-1.1,1.7
		c-0.2,0.2-0.6,0.4-0.8,0.3c-0.2-0.1-1.8-1.3-3.2-1.3c-0.8,0-1.4,0.5-1.4,1.1c0,0.8,0.7,1.5,2.4,2.2c1.8,0.7,4.5,2.1,4.5,5.1
		c0,2.3-2,4.6-5.3,4.6c-2.9,0-4.5-1.2-5.1-1.7C315.6,139.4,315.5,139.3,315.7,139">
  </path>
  <path class="st2" d="M315.7,139l1.1-1.9c0.2-0.3,0.6-0.2,0.8-0.1c0.1,0,1.7,1.2,3.2,1.2c0.9,0,1.6-0.6,1.6-1.3
		c0-0.9-0.8-1.7-2.3-2.3c-1.9-0.8-4.4-2.3-4.4-4.9c0-2.2,1.7-4.5,5.2-4.5c2.3,0,4.1,1.2,4.8,1.7c0.3,0.2,0.2,0.6,0.1,0.7l-1.1,1.7
		c-0.2,0.2-0.6,0.4-0.8,0.3c-0.2-0.1-1.8-1.3-3.2-1.3c-0.8,0-1.4,0.5-1.4,1.1c0,0.8,0.7,1.5,2.4,2.2c1.8,0.7,4.5,2.1,4.5,5.1
		c0,2.3-2,4.6-5.3,4.6c-2.9,0-4.5-1.2-5.1-1.7C315.6,139.4,315.5,139.3,315.7,139z">
  </path>
  <path class="st3" d="M311.5,67.6c1.8,0,1.8,2.4,1.7,4c-0.3,4.1-2.8,9-8.9,9.7C305,74.4,308.1,67.6,311.5,67.6 M385.7,67.6
		c1.3,0,1.6,1.6,1.6,2.8c0.1,6.1-3.8,10.6-8.9,10.9C379.2,74.4,382.1,67.6,385.7,67.6 M282,50.5c1.6,0,111.4,0,111.4,0
		c6.1,0,10.9-5,10.8-11.3c0,0,0-0.5-0.1-0.7c-0.1-0.8-1.3-1.5-1.7-0.8c-1.3,1.9-5.8,1.9-8.7,1.9c0,0-110.7,0-111.8,0
		c-18.7,0-34.5,22.3-38.1,27c1.8-5.1,5.3-16,5.3-20.2c-0.2-9.6-11.3-10.1-16.9-8c-0.6,0.2-0.4,1.2,0.3,1.4c1.9,0.4,5.4,1.7,4.1,7
		c-0.1,0.8-14.8,54.8-14.8,54.8c-0.2,0.6,0.3,1.1,0.8,1.1h10.4c0.4,0,0.7-0.2,0.8-0.6c1-3.6,5.2-18.3,5.2-18.5
		c2.7-7.4,6.6-12.3,9.9-12.3c1.5,0,2.3,0.9,2.3,2c0,2.4-3.4,13.1-4.8,18.7c-1.8,7.1,2.4,12,9.1,12c7,0,10.1-3.6,13.9-10.7
		c1.6-3,7.7-20.6,8.8-24.3c1.2,0.3,3,0.5,4.5,0.6c0,0.2-1.9,7.5-2.6,10.2c-0.7,2.9-1.5,5.7-1.5,8.8c-0.1,4.4,1.4,9.2,6.7,9.2
		c5.7,0,9.3-3.8,11.3-6.4c1.2,2.8,4.5,6.4,10,6.4c5.4,0,9.9-2.1,13.2-6.3l-1.4,4.9c-0.1,0.5,0.2,1,0.8,1h7.6c0.3,0,0.6-0.2,0.7-0.6
		l5.7-20.9c1.1-2.9,4.6-5.4,6.6-5.4c0.9,0,1.5,0.6,1.2,2l-6.2,23.9c-0.1,0.5,0.3,1,0.8,1h7.6c0.3,0,0.6-0.2,0.7-0.6l5.5-20.9
		c1.3-2.8,4.7-5.4,6.6-5.4c0.9,0,1.4,0.6,1.1,2c-0.1,0.3-1.9,7.3-2.5,9.4c-3.2,12.2-0.2,15.9,6.1,15.9c4.5,0,8.1-2.4,10.4-5.6
		c1.9,4.5,6.1,5.7,9.9,5.7c8,0,12.1-5.4,13.8-8.1c0.3-0.4,0.2-1-0.1-1.3c-0.3-0.3-0.6-0.5-1.1-0.8c-0.4-0.2-0.9-0.2-1.1,0.1
		c-1.9,2.4-4.3,4.5-8.7,4.5c-3.9,0-5.3-4-5.3-6.7c0-0.4,0-0.7,0.1-1c10.9,0,15.9-7.1,15.8-12.4c-0.1-4.2-2.2-8.5-8.3-8.5
		c-10.6,0-16.6,11.7-16.4,20.8c0,0.5,0.2,3.2,0.4,4.4c-1,1.3-3,2.9-4.9,2.9c-1.8,0-2.2-2-2-4.2c0.6-6.3,3.5-13.5,3.4-18.3
		c0-2-1-5.6-5.8-5.6c-3.9,0-8.1,2.4-10.6,5.6c-0.2-2.1-0.5-5.6-5.4-5.6c-2.5,0-6.5,1.3-9.7,4.9l1-3.5c0.1-0.5-0.2-1-0.8-1h-7.2
		c-0.3,0-0.6,0.2-0.7,0.6c0,0-4.2,15.4-4.3,15.9c-4.6,10.9-9.7,11.8-13.5,11.8c-3.5,0-5.4-4.2-5.1-7.8c9.1,0,15.9-5.4,15.8-12.5
		c-0.1-4.6-2.5-8.3-8.6-8.3c-11.6,0-16.3,14-16.1,21c0,1.1,0.1,2.3,0.3,3.2c-0.4,0.7-2.3,3-4.6,3c-3.5,0-3.4-8.1,2.1-24.7l0.2-0.6
		c0.2-0.5-0.2-1.1-0.7-1c-2.4,0-9.2,0.7-12.9-0.7c0-0.1,1.2-6-4.8-6c-2.9,0-5.1,1.9-5.1,4.5c0.1,3.7,2.8,5.2,4.4,5.9
		c-2.6,7.8-5.3,15.5-7.8,21.3c-2.4,5.5-4.5,7-6.1,7c-1.4,0-1.9-1-1.9-2.2c-0.1-4.3,6-15.3,5.8-25c-0.1-3.8-2.9-6-6.4-6
		c-1.8,0-4.8,0.4-7.5,2.5C250.2,65.5,260.8,50.5,282,50.5">
  </path>
  <path class="st3" d="M134.2,50.5l80.8,0c6.1,0,10.9-5.1,10.8-11.3c0,0,0-0.5-0.1-0.7c-0.1-0.8-1.2-1.7-1.7-0.8
		c-1.2,1.8-4.8,1.9-7.7,1.9h-82.2c1.1,1.6,1.7,3.4,1.7,5.5C136,47.2,135.1,49.3,134.2,50.5">
  </path>
  <path class="st3" d="M126.5,50.5c3,0,5.5-2.4,5.5-5.5c0-3-2.4-5.5-5.5-5.5c-3,0-5.5,2.4-5.5,5.5C121,48.1,123.5,50.5,126.5,50.5">
  </path>
  <path class="st3" d="M191.5,109.2c-1.1,0-1.8-0.7-1.8-1.6c-0.1-3.2,4.8-5,8-5.1C196,106.6,194.8,109.2,191.5,109.2 M174.1,76
		c-1.5,8.8-4.2,16.4-8.3,16.4c-2.2,0-3.1-2.4-2.2-5.8c1.2-4.6,2.3-8.7,2.6-9.8c1-3.6,2.8-7.4,5.9-7.4
		C173.6,69.4,174.9,71.2,174.1,76 M136.1,94c-1.3,0-2.5-0.7-2.5-1.4c0-1,1.5-1.7,1.4-4.1c0-1.3-0.6-3.2-1.8-3.8
		c0.8-1.3,5.8-10.3,6.3-11.4c0.2,1,1.5,5,1.6,12.9C141.2,90.7,138.7,94,136.1,94 M216.7,64h-7.5c-0.4,0-0.7,0.2-0.8,0.6l-5.2,18.9
		c-1.7,5.6-3.9,8.5-6,8.5c-2.2,0-2.5-2.8-2-5.1l6-21.8c0.1-0.5-0.3-1.1-0.8-1.1h-7.5c-0.4,0-0.7,0.2-0.8,0.6l-0.4,1.3l-3,11.1
		c-0.5,2.2-1.1,4.2-1.7,6.1c-1.1,4-4.3,6.5-4.9,6.9c-1.3,0.9-2.6,1.6-3.9,2.1c2.1-3.2,3.6-7.5,4.6-12.3c1.8-9-0.2-16.1-6.9-16.1
		c-2.5,0-5.3,0.8-7.6,3.7L169,65c0.1-0.5-0.3-1-0.8-1h-7.1c-0.3,0-0.6,0.2-0.7,0.6l-0.3,0.9l-5.2,19.1c-0.8,3-2.9,4.8-4,5.6
		c-0.8,0.5-1.6,1-2.4,1.4c1.3-2.6,1.4-5.2,1.4-6.3c-0.1-6.8-2.9-13.6-3-18.4c0-2.3,0.7-3.6,1.2-4.5c0.3-0.5,0.1-1-0.4-1
		c-0.3,0-4,0-4.2,0c-0.3,0-1,0.1-1.3,0.7c-1.9,3.1-8.4,15-12.4,21.5c-2.6,0.4-5,3.2-4.1,6.3c-0.4,0.5-1.6,2-3.2,2
		c-1.2,0-1.6-2.1-0.4-6.5c0.1-0.2,0.1-0.4,0.1-0.4l5.4-20.1c0.1-0.5-0.2-1-0.7-1h-7c-0.6,0-1.3,0.2-1.5,0.9l-0.3,0.9
		c0,0-4.5,16.8-5.3,19.7c-0.8,2.9-3.3,5.2-5.2,5.2c-3.4,0-3.3-8.8,2-24.8l0.2-0.6c0.2-0.5-0.2-1.1-0.7-1c-2.4,0-9.1,0.7-12.9-0.7
		c0.3-1.2,0.5-6-5.1-6c-2.9,0-5.3,2.4-4.8,5.5c0.4,2.7,2.8,4.2,4.4,4.9c-2.6,8.3-6.7,19.2-8.8,23.5c-0.8,1.7-3.1,4.9-5.4,4.9
		c-1.5,0-1.7-1.4-1.7-2.6c-0.1-3,5.8-16,5.8-24.2c0-2-1.2-6.5-6.2-6.5c-3.3,0-5.5,0.9-7.7,2.5c0,0,10.3-15,31.5-15
		c1.7,0,18.7,0,20.5,0c-1.1-1.6-1.7-3.4-1.7-5.4c0-2.1,0.7-4.1,1.7-5.5c-1.7,0-19.1,0-20.7,0c-18.7,0-34.1,22.3-37.8,27
		c1.8-5.1,5.3-16,5.3-20.2c-0.2-9.6-11.3-10.1-16.9-8c-0.6,0.2-0.4,1.2,0.3,1.4c1.9,0.4,5.4,1.7,4.1,7c-0.1,0.8-14.8,54.8-14.8,54.8
		c-0.2,0.6,0.3,1.1,0.8,1.1h10.4c0.4,0,0.7-0.2,0.8-0.6c1-3.6,5.2-18.3,5.2-18.5c2.4-6.7,6.3-12.3,9.9-12.3c3.2,0,2.4,3.1,1.7,5.6
		C65.7,82,64.4,86.8,63,92c-2.2,8.1,4.3,11.9,9.9,11.9c7.9,0,10.8-5.7,13.1-10.7c2.6-5.6,7.7-20.6,8.8-24.3c1.2,0.3,3.1,0.5,4.6,0.6
		c0,0.2-1.9,7.5-2.6,10.2c-0.7,2.9-1.5,5.7-1.5,8.8c-0.1,3.8,1.4,9.3,7.1,9.3c3.7,0,6.6-1.6,8.8-4c0.2-0.2,0.4-0.4,0.5-0.7
		c0.2,0.8,0.5,1.5,1,2.1c1.4,1.8,3.7,2.4,6,2.4c3.8,0,7.2-2.6,8.5-4.2c1.3,2.2,4.1,4.2,9.4,4.2c0.4,0,0.8,0,1.3,0
		c5.2-0.2,10.8-2,14.9-4.8l-0.6,2.4l-3.4,12.5c-0.2,0.6,0.3,1.1,0.8,1.1h7.4c0.4,0,0.7-0.3,0.8-0.6l3.5-13.3
		c1.2,1.8,3.3,2.7,7.8,2.7l0,0c6.7,0,12.9-2.6,16.9-6.9c0.5,4.2,3.6,6.9,6.6,6.8c1.9,0,5.1-0.2,7.7-3.3c0,0-1,3.6-1.3,4.5
		c-8.2,0-14.4,4.5-14.3,9.4c0.1,3.4,3.8,5.8,7.9,5.8c9.5,0,12.4-6.3,14.4-11.1c1.4,0.2,4.9,1.2,5.9,1.4c0.4,0.1,0.8-0.1,0.9-0.5
		l0.5-1.5c0.1-0.4,0-1-0.4-1.1l-5.7-1.6l9.4-34.7C217.7,64.5,217.3,64,216.7,64">
  </path>
  <path class="st0" d="M412.4,130.9h-1.3v-1.7c0.5,0,0.9,0,1.4,0c0.4,0,0.7,0.4,0.7,0.8C413.2,130.4,412.9,130.9,412.4,130.9
		 M414.3,129.9c0-1-0.8-1.5-1.7-1.5c-0.9,0-1.5,0-2.6,0v5.4h1.1v-2.1c0.4,0,0.9,0,1.1,0c0.8,0,0.9,0.7,0.9,2.1h1.1
		c-0.1-1,0.1-1.9-0.9-2.5C414,131,414.3,130.5,414.3,129.9">
  </path>
  <path class="st0" d="M412,126.9c-2.3,0-4.2,1.9-4.2,4.2c0,2.3,1.9,4.2,4.2,4.2c2.3,0,4.2-1.9,4.2-4.2
		C416.2,128.8,414.3,126.9,412,126.9 M417.1,131.1c0,2.8-2.3,5-5,5c-2.8,0-5-2.3-5-5c0-2.8,2.3-5,5-5
		C414.8,126.1,417.1,128.3,417.1,131.1">
  </path>
 </g>
</svg>