<svg version="1.1" id="Layer_1" xmlns:x="ns_extend;" xmlns:i="ns_ai;" xmlns:graph="ns_graphs;" xmlns="http://www.w3.org/2000/svg" xmlns:xlink="http://www.w3.org/1999/xlink" x="0px" y="0px" viewBox="0 0 290.7 102.9" style="enable-background:new 0 0 290.7 102.9;" xml:space="preserve">
 <style type="text/css">
  .st0{clip-path:url(#SVGID_2_);fill:#FFFFFF;}
	.st1{clip-path:url(#SVGID_2_);}
	.st2{fill:#FFFFFF;}
	.st3{font-family:'Arial-BoldMT';}
	.st4{font-size:19.1417px;}
	.st5{clip-path:url(#SVGID_2_);fill:#003A60;}
	.st6{clip-path:url(#SVGID_4_);fill:url(#SVGID_5_);}
	.st7{clip-path:url(#SVGID_7_);fill:url(#SVGID_8_);}
	.st8{clip-path:url(#SVGID_10_);fill:url(#SVGID_11_);}
	.st9{clip-path:url(#SVGID_13_);fill:url(#SVGID_14_);}
	.st10{clip-path:url(#SVGID_16_);fill:url(#SVGID_17_);}
	.st11{clip-path:url(#SVGID_19_);fill:url(#SVGID_20_);}
 </style>
 <metadata>
  <sfw xmlns="ns_sfw;">
   <slices>
   </slices>
   <sliceSourceBounds bottomLeftOrigin="true" height="137" width="309.6" x="-241.7" y="-548.5">
   </sliceSourceBounds>
  </sfw>
 </metadata>
 <g>
  <g>
   <g>
    <defs>
     <rect id="SVGID_1_" x="0" y="0.9" width="290.7" height="102">
     </rect>
    </defs>
    <clipPath id="SVGID_2_">
     <use href="#SVGID_1_" style="overflow:visible;">
     </use>
    </clipPath>
    <path class="st0" d="M132.4,20.2c-1.6-1.5-3.8-2.2-6.6-2.2c-2.8,0-5,0.7-6.6,2.2c-1.2,1.1-2,2.5-2.4,4.2h17.8
				C134.4,22.7,133.6,21.3,132.4,20.2 M116.7,28.6c0.6,4.6,3.6,6.8,9,6.8c4.4,0,7.4-0.6,9-4.3h5.1c-1.4,4.1-3.5,5.6-6.1,6.9
				c-2.3,1.2-5,1.7-8.1,1.7c-4.5,0-8-1.2-10.5-3.6c-2.3-2.3-3.5-5.4-3.5-9.4c0-3.8,1.3-6.9,3.8-9.4c2.6-2.5,6-3.7,10.4-3.7
				c4.2,0,7.7,1.1,10.3,3.3c2.6,2.2,3.9,5.2,3.9,8.9v2.8H116.7z">
    </path>
    <path class="st0" d="M165.2,39.3V23.2c0-3.5-2.3-5.2-6.8-5.2c-2.6,0-4.6,0.7-6,2c-1.4,1.3-2.1,3.1-2.1,5.3v14h-4.9V14.1h4.9v1.7
				c2.1-1.5,4.8-2.2,8-2.2c3.3,0,6,0.7,8.1,2.2c2.4,1.6,3.6,4,3.6,7v16.5H165.2z">
    </path>
    <path class="st0" d="M198.4,37.9c-2.3,1.3-4.9,1.9-8,1.9c-4.3,0-7.8-1.2-10.4-3.5c-2.6-2.3-3.9-5.4-3.9-9.2c0-4,1.3-7.3,4-9.8
				c2.7-2.5,6.3-3.7,10.9-3.7c2.8,0,5.3,0.6,7.4,1.8c2.4,1.3,4,3.7,5,7l-4.5,0.3c-0.7-2.5-4.1-4.7-8-4.7c-3.2,0-5.6,0.8-7.3,2.5
				c-1.7,1.7-2.5,3.9-2.5,6.7c0,2.6,0.8,4.6,2.4,6c1.6,1.5,4,2.3,6.9,2.3c4.7,0,8-2.3,8.6-5.2l4.7,0C202.8,33.9,201,36.5,198.4,37.9
				">
    </path>
    <path class="st0" d="M229.5,20.4c-1.7-1.6-4-2.4-7.1-2.4c-3,0-5.4,0.8-7,2.4c-1.7,1.6-2.5,3.7-2.5,6.4c0,2.6,0.8,4.7,2.5,6.3
				c1.7,1.6,4,2.4,7,2.4c3,0,5.3-0.8,7-2.4c1.7-1.6,2.6-3.7,2.6-6.3C232,24.1,231.1,22,229.5,20.4 M232.9,36.2
				c-2.6,2.4-6.2,3.6-10.6,3.6c-4.4,0-7.9-1.2-10.5-3.6c-2.6-2.4-3.9-5.6-3.9-9.4c0-3.9,1.3-7,4-9.5c2.6-2.4,6.2-3.7,10.6-3.7
				s7.9,1.2,10.5,3.7c2.6,2.4,3.9,5.6,3.9,9.5C236.9,30.6,235.6,33.8,232.9,36.2">
    </path>
    <path class="st0" d="M249.6,21.3c-1.4,1.9-2,4.5-2,7.6v10.3h-4.9V14.1h4.9v2.3c2.4-1.9,6.1-2.8,10.9-2.8V18
				C254.1,18,251.1,19.1,249.6,21.3">
    </path>
    <path class="st0" d="M283.1,20.2c-1.6-1.5-3.8-2.2-6.6-2.2c-2.8,0-5,0.7-6.6,2.2c-1.2,1.1-2,2.5-2.4,4.2h17.8
				C285.1,22.7,284.3,21.3,283.1,20.2 M267.4,28.6c0.6,4.6,3.6,6.8,9,6.8c4.4,0,7.4-0.2,9-3.9h5.1c-1.4,4.1-3.5,5.2-6.1,6.5
				c-2.3,1.2-5,1.7-8.1,1.7c-4.5,0-8-1.2-10.5-3.6c-2.3-2.3-3.5-5.4-3.5-9.4c0-3.8,1.3-6.9,3.8-9.4c2.6-2.5,6-3.7,10.4-3.7
				c4.2,0,7.7,1.1,10.3,3.3c2.6,2.2,3.9,5.2,3.9,8.9v2.8H267.4z">
    </path>
    <rect x="111.6" y="45.4" class="st0" width="179.1" height="0.2">
    </rect>
    <path class="st0" d="M131.7,60.2c-0.7,0.9-2.2,1.6-4.2,1.6c-3.1,0-5.5-1.8-5.5-4.9c0-2.8,2-4.8,5.8-4.8c2,0,3.5,0.7,4,1.5
				l-1.1,1.3c-0.6-0.8-1.6-1.2-3.1-1.2c-2.5,0-3.8,1.3-3.8,3.3c0,2,1.5,3.3,3.8,3.3c1.4,0,2.5-0.4,3.1-1.3L131.7,60.2z">
    </path>
    <path class="st0" d="M141,54.1l-1.9,3.7h3.8L141,54.1z M144.8,61.6l-1.2-2.5h-5l-1.2,2.5h-1.9l4.9-9.4h1.6l4.9,9.4H144.8z">
    </path>
    <path class="st0" d="M155.5,57c1.3,0,2-0.4,2-1.6c0-1.2-0.8-1.6-2-1.6h-2.7V57H155.5z M151,61.6v-9.4h4.7c2.3,0,3.5,0.9,3.5,3.1
				c0,2.2-1.2,3.2-3.5,3.2h-2.9v3.1H151z">
    </path>
    <rect x="163.8" y="52.3" class="st0" width="1.7" height="9.4">
    </rect>
    <polygon class="st0" points="173.4,61.6 173.4,53.8 169.9,53.8 169.9,52.3 178.6,52.3 178.6,53.8 175.1,53.8 175.1,61.6 			">
    </polygon>
    <path class="st0" d="M186.1,54.1l-1.9,3.7h3.8L186.1,54.1z M189.8,61.6l-1.2-2.5h-5l-1.2,2.5h-1.9l4.9-9.4h1.6l4.9,9.4H189.8z">
    </path>
    <polygon class="st0" points="196,61.6 196,52.3 197.7,52.3 197.7,60 203.6,60 203.6,61.6 			">
    </polygon>
    <path class="st0" d="M223,58h-3.6v-1.4h5.3v3.6c-0.9,1.4-3.1,1.8-4.4,1.8c-3,0-5.5-1.5-5.5-4.9c0-3,1.9-4.9,5.4-4.9
				c2.2,0,3.4,0.5,4.4,1.5l-1.1,1.3c-0.6-0.7-1.4-1.2-3.4-1.2c-2.3,0-3.6,1.2-3.6,3.3c0,2.2,1.6,3.3,3.8,3.3c1.2,0,2.1-0.3,2.6-0.8
				V58z">
    </path>
    <path class="st0" d="M231.3,53.8V57h3.3c1,0,1.8-0.5,1.8-1.6c0-1.1-0.8-1.5-1.8-1.5H231.3z M237,61.6l-2.6-3.3h-3.1v3.3h-1.7
				v-9.4h5.1c2.6,0,3.4,1.3,3.4,3c0,1.3-0.7,2.3-2,2.6l3.1,3.7H237z">
    </path>
    <path class="st0" d="M248,53.7c-2.2,0-3.8,1.3-3.8,3.4c0,2,1.7,3.2,3.8,3.2c2.2,0,3.8-1.2,3.8-3.2C251.7,55,250.1,53.7,248,53.7
				 M248,61.8c-3.1,0-5.5-1.9-5.5-4.8c0-2.9,2.2-5,5.5-5c3.2,0,5.5,2,5.5,5C253.5,60,251.2,61.8,248,61.8">
    </path>
    <path class="st0" d="M265.6,52.3h1.7V58c0,2.9-2.3,3.8-4.6,3.8c-2.3,0-4.6-0.9-4.6-3.8v-5.8h1.7V58c0,1.6,1.1,2.3,2.9,2.3
				c1.8,0,2.9-0.7,2.9-2.3V52.3z">
    </path>
    <path class="st0" d="M276.8,57c1.3,0,2-0.4,2-1.6c0-1.2-0.8-1.6-2-1.6H274V57H276.8z M272.2,61.6v-9.4h4.7c2.3,0,3.5,0.9,3.5,3.1
				c0,2.2-1.2,3.2-3.5,3.2H274v3.1H272.2z">
    </path>
    <path class="st0" d="M285.9,85.3c0,0.8-0.1,1.5-0.4,2.1c-0.3,0.6-0.6,1.2-1.1,1.6c-0.5,0.4-1,0.8-1.6,1c-0.6,0.2-1.2,0.4-1.9,0.4
				c-0.7,0-1.4-0.1-2-0.4c-0.6-0.3-1.1-0.6-1.6-1.1c-0.4-0.5-0.8-1-1-1.6c-0.2-0.6-0.4-1.3-0.4-2c0-0.8,0.1-1.5,0.4-2.1
				c0.3-0.6,0.6-1.2,1.1-1.6c0.5-0.4,1-0.8,1.6-1c0.6-0.2,1.2-0.4,1.9-0.4c0.7,0,1.3,0.1,1.9,0.4c0.6,0.2,1.1,0.6,1.6,1
				c0.5,0.4,0.8,1,1.1,1.6C285.8,83.9,285.9,84.5,285.9,85.3 M284.9,85.3c0-0.6-0.1-1.2-0.3-1.7c-0.2-0.5-0.5-1-0.8-1.3
				c-0.4-0.4-0.8-0.7-1.2-0.9c-0.5-0.2-1-0.3-1.5-0.3c-0.6,0-1.1,0.1-1.5,0.3c-0.5,0.2-0.9,0.5-1.2,0.9c-0.4,0.4-0.6,0.8-0.8,1.3
				c-0.2,0.5-0.3,1.1-0.3,1.7c0,0.6,0.1,1.1,0.3,1.6c0.2,0.5,0.4,0.9,0.8,1.3c0.3,0.4,0.7,0.7,1.2,0.9c0.5,0.2,1,0.3,1.6,0.3
				c0.5,0,1-0.1,1.5-0.3c0.5-0.2,0.9-0.5,1.2-0.9c0.4-0.4,0.6-0.8,0.8-1.3C284.7,86.5,284.9,85.9,284.9,85.3 M280,88.2H279v-5.6h2.1
				c0.7,0,1.2,0.1,1.5,0.4c0.3,0.3,0.5,0.7,0.5,1.2c0,0.5-0.1,0.9-0.4,1.1c-0.3,0.2-0.6,0.4-1,0.4l1.6,2.5h-1l-1.5-2.4H280V88.2z
				 M281,85c0.2,0,0.3,0,0.5,0c0.2,0,0.3-0.1,0.4-0.1c0.1-0.1,0.2-0.2,0.3-0.3c0.1-0.1,0.1-0.3,0.1-0.5c0-0.2,0-0.3-0.1-0.4
				c-0.1-0.1-0.2-0.2-0.3-0.2c-0.1-0.1-0.2-0.1-0.4-0.1c-0.1,0-0.3,0-0.4,0H280V85H281z">
    </path>
    <g class="st1">
     <text transform="matrix(1 0 0 1 16.7537 95.6515)" class="st2 st3 st4">
      Better Solutions. Better Life.
     </text>
    </g>
    <rect x="17.6" y="10.2" class="st5" width="54.8" height="11.4">
    </rect>
   </g>
   <g>
    <defs>
     <rect id="SVGID_3_" x="39.3" y="-11.4" transform="matrix(1.544633e-03 -1 1 1.544633e-03 28.9696 60.9483)" width="11.4" height="54.8">
     </rect>
    </defs>
    <clipPath id="SVGID_4_">
     <use xlink:href="#SVGID_3_" style="overflow:visible;">
     </use>
    </clipPath>
    <linearGradient id="SVGID_5_" gradientUnits="userSpaceOnUse" x1="116.324" y1="156.2731" x2="118.1254" y2="156.2731" gradientTransform="matrix(0.3896 7.5973 7.5973 -0.3896 -1187.918 -813.6126)">
     <stop offset="0" style="stop-color:#165DA3">
     </stop>
     <stop offset="0.2241" style="stop-color:#195290">
     </stop>
     <stop offset="0.733" style="stop-color:#1E3C6A">
     </stop>
     <stop offset="1" style="stop-color:#20345B">
     </stop>
    </linearGradient>
    <polygon class="st6" points="72.3,7.4 73,21.7 17.7,24.5 17,10.3 			">
    </polygon>
   </g>
   <g>
    <defs>
     <polygon id="SVGID_6_" points="31.2,43.7 96.5,46.5 99.8,31.3 32.7,31.3 				">
     </polygon>
    </defs>
    <clipPath id="SVGID_7_">
     <use xlink:href="#SVGID_6_" style="overflow:visible;">
     </use>
    </clipPath>
    <linearGradient id="SVGID_8_" gradientUnits="userSpaceOnUse" x1="118.9343" y1="159.1161" x2="120.7357" y2="159.1161" gradientTransform="matrix(0.1472 8.5396 8.5396 -0.1472 -1311.0095 -966.283)">
     <stop offset="0" style="stop-color:#165DA3">
     </stop>
     <stop offset="0.2241" style="stop-color:#195290">
     </stop>
     <stop offset="0.733" style="stop-color:#1E3C6A">
     </stop>
     <stop offset="1" style="stop-color:#20345B">
     </stop>
    </linearGradient>
    <polygon class="st7" points="99.8,30.1 100.1,46.5 31.2,47.7 31,31.3 			">
    </polygon>
   </g>
   <g>
    <defs>
     <polygon id="SVGID_9_" points="31.2,43.7 96.5,46.5 99.8,31.3 32.7,31.3 				">
     </polygon>
    </defs>
    <clipPath id="SVGID_10_">
     <use xlink:href="#SVGID_9_" style="overflow:visible;">
     </use>
    </clipPath>
    <linearGradient id="SVGID_11_" gradientUnits="userSpaceOnUse" x1="118.9343" y1="159.1177" x2="120.7357" y2="159.1177" gradientTransform="matrix(0.1472 8.5396 8.5396 -0.1472 -1311.0227 -966.2827)">
     <stop offset="0" style="stop-color:#165DA3">
     </stop>
     <stop offset="0.2241" style="stop-color:#195290">
     </stop>
     <stop offset="0.733" style="stop-color:#1E3C6A">
     </stop>
     <stop offset="1" style="stop-color:#20345B">
     </stop>
    </linearGradient>
    <polygon class="st8" points="99.8,30.1 100.1,46.5 31.2,47.7 31,31.3 			">
    </polygon>
   </g>
   <g>
    <defs>
     <path id="SVGID_12_" d="M40.7,10.8C61.3,10.5,71,21,71,21l-44-0.1V21C26.2,16.6,29.7,10.9,40.7,10.8 M31,0.9
					C16.7,0.9,7.1,3.3,3,8.5C2,9.9,1.4,11.4,1.3,13v1.8c0.4,4.2,3.2,9,7.4,14.1c6.9,8.3,14.6,13.9,27,18.7
					C48,52.5,61,54.9,74.6,54.9c11.3,0,20.3-1.6,25.3-4.7c4.9-3.1,5.3-10.2,2.9-14.6l-23,0c0.9,5.7-2.6,8.7-13.6,8.7
					c-5.6,0-13.9-1-20.4-3.8c-10-4.4-13-9.2-13.1-9.2l67.1,0l-1-1.4c-6.7-8-17.2-16.3-29-21.4C57.9,3.4,45,0.9,31.1,0.9H31z">
     </path>
    </defs>
    <clipPath id="SVGID_13_">
     <use xlink:href="#SVGID_12_" style="overflow:visible;">
     </use>
    </clipPath>
    <linearGradient id="SVGID_14_" gradientUnits="userSpaceOnUse" x1="126.5486" y1="180.7933" x2="128.35" y2="180.7933" gradientTransform="matrix(10.6009 -27.3856 -27.3856 -10.6009 3652.9893 5435.436)">
     <stop offset="0" style="stop-color:#FFFFFF">
     </stop>
     <stop offset="0.3979" style="stop-color:#FAFAFD">
     </stop>
     <stop offset="0.8955" style="stop-color:#EAEDF6">
     </stop>
     <stop offset="1" style="stop-color:#E6E9F4">
     </stop>
    </linearGradient>
    <polygon class="st9" points="-16.9,47.9 14.8,-34.1 123.3,7.9 91.6,89.9 			">
    </polygon>
   </g>
   <g>
    <defs>
     <path id="SVGID_15_" d="M10.8,51.9l-3.1-8.3l12.4-4.1c-4.1-3-8.1-6.6-11.4-10.6C3.5,22.6,0.4,16.8,1.4,12
					C-0.3,15.7-2.8,35.6,10.8,51.9">
     </path>
    </defs>
    <clipPath id="SVGID_16_">
     <use xlink:href="#SVGID_15_" style="overflow:visible;">
     </use>
    </clipPath>
    <linearGradient id="SVGID_17_" gradientUnits="userSpaceOnUse" x1="118.6506" y1="168.4526" x2="120.452" y2="168.4526" gradientTransform="matrix(7.7921 15.1947 15.1947 -7.7921 -3483.5198 -473.9951)">
     <stop offset="0" style="stop-color:#609230">
     </stop>
     <stop offset="0.7194" style="stop-color:#7DAC28">
     </stop>
     <stop offset="1" style="stop-color:#89B825">
     </stop>
    </linearGradient>
    <polygon class="st10" points="15.3,2.7 36.3,43.6 2,61.2 -18.9,20.3 			">
    </polygon>
   </g>
   <g>
    <defs>
     <path id="SVGID_18_" d="M12,45.5l8,22.4l2.5-6.2c0,0,4.2,2.5,6.6,3.7C41.1,71,54.4,72.9,68,72.5c32.4-1.1,34.7-24,35.3-26.3
					c-0.7,1.6-1.8,3-3.4,4c-5,3.1-14,4.7-25.3,4.7c-13.6,0-26.5-2.4-38.9-7.2c-2.8-1.1-7.7-3.4-7.7-3.4l1.5-4.4L12,45.5z">
     </path>
    </defs>
    <clipPath id="SVGID_19_">
     <use xlink:href="#SVGID_18_" style="overflow:visible;">
     </use>
    </clipPath>
    <linearGradient id="SVGID_20_" gradientUnits="userSpaceOnUse" x1="129.4724" y1="175.1538" x2="131.2738" y2="175.1538" gradientTransform="matrix(-46.9476 -12.4675 -12.4675 46.9476 8360.9668 -6541.5776)">
     <stop offset="0" style="stop-color:#609230">
     </stop>
     <stop offset="0.7194" style="stop-color:#7DAC28">
     </stop>
     <stop offset="1" style="stop-color:#89B825">
     </stop>
    </linearGradient>
    <polygon class="st11" points="97.3,95.6 3.8,70.8 18,17.1 111.5,41.9 			">
    </polygon>
   </g>
  </g>
 </g>
</svg>