<svg version="1.1" id="Layer_1" xmlns:x="ns_extend;" xmlns:i="ns_ai;" xmlns:graph="ns_graphs;" xmlns="http://www.w3.org/2000/svg" xmlns:xlink="http://www.w3.org/1999/xlink" x="0px" y="0px" viewBox="0 0 291.1 101.6" style="enable-background:new 0 0 291.1 101.6;" xml:space="preserve">
 <style type="text/css">
  .st0{clip-path:url(#SVGID_2_);fill:#133C63;}
	.st1{clip-path:url(#SVGID_2_);fill:#5E9732;}
	.st2{clip-path:url(#SVGID_2_);}
	.st3{fill:#133C63;}
	.st4{fill:#5E9732;}
	.st5{clip-path:url(#SVGID_2_);fill:#003A60;}
	.st6{clip-path:url(#SVGID_4_);fill:url(#SVGID_5_);}
	.st7{clip-path:url(#SVGID_7_);fill:url(#SVGID_8_);}
	.st8{clip-path:url(#SVGID_10_);fill:url(#SVGID_11_);}
	.st9{clip-path:url(#SVGID_13_);fill:url(#SVGID_14_);}
	.st10{clip-path:url(#SVGID_16_);fill:url(#SVGID_17_);}
	.st11{clip-path:url(#SVGID_19_);fill:url(#SVGID_20_);}
 </style>
 <metadata>
  <sfw xmlns="ns_sfw;">
   <slices>
   </slices>
   <sliceSourceBounds bottomLeftOrigin="true" height="137" width="309.6" x="-241.7" y="-429.1">
   </sliceSourceBounds>
  </sfw>
 </metadata>
 <g>
  <g>
   <g>
    <defs>
     <rect id="SVGID_1_" x="0.5" y="-0.4" width="290.7" height="102">
     </rect>
    </defs>
    <clipPath id="SVGID_2_">
     <use href="#SVGID_1_" style="overflow:visible;">
     </use>
    </clipPath>
    <path class="st0" d="M132.8,18.9c-1.6-1.5-3.8-2.2-6.6-2.2c-2.8,0-5,0.7-6.6,2.2c-1.2,1.1-2,2.5-2.4,4.2h17.8
				C134.8,21.4,134,20.1,132.8,18.9 M117.1,27.4c0.6,4.6,3.6,6.8,9,6.8c4.4,0,7.4-0.6,9-4.3h5.1c-1.4,4.1-3.5,5.6-6.1,6.9
				c-2.3,1.2-5,1.7-8.1,1.7c-4.5,0-8-1.2-10.5-3.6c-2.3-2.3-3.5-5.4-3.5-9.4c0-3.8,1.3-6.9,3.8-9.4c2.6-2.5,6-3.7,10.4-3.7
				c4.2,0,7.7,1.1,10.3,3.3c2.6,2.2,3.9,5.2,3.9,8.9v2.8H117.1z">
    </path>
    <path class="st0" d="M165.6,38V21.9c0-3.5-2.3-5.2-6.8-5.2c-2.6,0-4.6,0.7-6,2c-1.4,1.3-2.1,3.1-2.1,5.3v14h-4.9V12.9h4.9v1.7
				c2.1-1.5,4.8-2.2,8-2.2c3.3,0,6,0.7,8.1,2.2c2.4,1.6,3.6,4,3.6,7V38H165.6z">
    </path>
    <path class="st0" d="M198.8,36.7c-2.3,1.3-4.9,1.9-8,1.9c-4.3,0-7.8-1.2-10.4-3.5c-2.6-2.3-3.9-5.4-3.9-9.2c0-4,1.3-7.3,4-9.8
				c2.7-2.5,6.3-3.7,10.9-3.7c2.8,0,5.3,0.6,7.4,1.8c2.4,1.3,4,3.7,5,7l-4.5,0.3c-0.7-2.5-4.1-4.7-8-4.7c-3.2,0-5.6,0.8-7.3,2.5
				c-1.7,1.7-2.5,3.9-2.5,6.7c0,2.6,0.8,4.6,2.4,6c1.6,1.5,4,2.3,6.9,2.3c4.7,0,8-2.3,8.6-5.2l4.7,0
				C203.2,32.7,201.4,35.2,198.8,36.7">
    </path>
    <path class="st0" d="M229.9,19.1c-1.7-1.6-4-2.4-7.1-2.4c-3,0-5.4,0.8-7,2.4c-1.7,1.6-2.5,3.7-2.5,6.4c0,2.6,0.8,4.7,2.5,6.3
				c1.7,1.6,4,2.4,7,2.4c3,0,5.3-0.8,7-2.4c1.7-1.6,2.6-3.7,2.6-6.3C232.4,22.8,231.6,20.7,229.9,19.1 M233.4,34.9
				c-2.6,2.4-6.2,3.6-10.6,3.6c-4.4,0-7.9-1.2-10.5-3.6c-2.6-2.4-3.9-5.6-3.9-9.4c0-3.9,1.3-7,4-9.5c2.6-2.4,6.2-3.7,10.6-3.7
				s7.9,1.2,10.5,3.7c2.6,2.4,3.9,5.6,3.9,9.5C237.3,29.4,236,32.5,233.4,34.9">
    </path>
    <path class="st0" d="M250,20.1c-1.4,1.9-2,4.5-2,7.6V38H243V12.9h4.9v2.3c2.4-1.9,6.1-2.8,10.9-2.8v4.4
				C254.5,16.7,251.5,17.8,250,20.1">
    </path>
    <path class="st0" d="M283.5,18.9c-1.6-1.5-3.8-2.2-6.6-2.2c-2.8,0-5,0.7-6.6,2.2c-1.2,1.1-2,2.5-2.4,4.2h17.8
				C285.5,21.4,284.7,20.1,283.5,18.9 M267.8,27.4c0.6,4.6,3.6,6.8,9,6.8c4.4,0,7.4-0.2,9-3.9h5.1c-1.4,4.1-3.5,5.2-6.1,6.5
				c-2.3,1.2-5,1.7-8.1,1.7c-4.5,0-8-1.2-10.5-3.6c-2.3-2.3-3.5-5.4-3.5-9.4c0-3.8,1.3-6.9,3.8-9.4c2.6-2.5,6-3.7,10.4-3.7
				c4.2,0,7.7,1.1,10.3,3.3c2.6,2.2,3.9,5.2,3.9,8.9v2.8H267.8z">
    </path>
    <rect x="112.1" y="44.1" class="st0" width="179.1" height="0.2">
    </rect>
    <path class="st1" d="M132.1,58.9c-0.7,0.9-2.2,1.6-4.2,1.6c-3.1,0-5.5-1.8-5.5-4.9c0-2.8,2-4.8,5.8-4.8c2,0,3.5,0.7,4,1.5
				l-1.1,1.3c-0.6-0.8-1.6-1.2-3.1-1.2c-2.5,0-3.8,1.3-3.8,3.3c0,2,1.5,3.3,3.8,3.3c1.4,0,2.5-0.4,3.1-1.3L132.1,58.9z">
    </path>
    <path class="st1" d="M141.5,52.9l-1.9,3.7h3.8L141.5,52.9z M145.2,60.4l-1.2-2.5h-5l-1.2,2.5h-1.9l4.9-9.4h1.6l4.9,9.4H145.2z">
    </path>
    <path class="st1" d="M156,55.8c1.3,0,2-0.4,2-1.6c0-1.2-0.8-1.6-2-1.6h-2.7v3.2H156z M151.4,60.4V51h4.7c2.3,0,3.5,0.9,3.5,3.1
				c0,2.2-1.2,3.2-3.5,3.2h-2.9v3.1H151.4z">
    </path>
    <rect x="164.2" y="51" class="st1" width="1.7" height="9.4">
    </rect>
    <polygon class="st1" points="173.8,60.4 173.8,52.6 170.3,52.6 170.3,51 179,51 179,52.6 175.5,52.6 175.5,60.4 			">
    </polygon>
    <path class="st1" d="M186.5,52.9l-1.9,3.7h3.8L186.5,52.9z M190.2,60.4l-1.2-2.5h-5l-1.2,2.5h-1.9l4.9-9.4h1.6l4.9,9.4H190.2z">
    </path>
    <polygon class="st1" points="196.5,60.4 196.5,51 198.2,51 198.2,58.8 204,58.8 204,60.4 			">
    </polygon>
    <path class="st1" d="M223.4,56.7h-3.6v-1.4h5.3v3.6c-0.9,1.4-3.1,1.8-4.4,1.8c-3,0-5.5-1.5-5.5-4.9c0-3,1.9-4.9,5.4-4.9
				c2.2,0,3.4,0.5,4.4,1.5l-1.1,1.3c-0.6-0.7-1.4-1.2-3.4-1.2c-2.3,0-3.6,1.2-3.6,3.3c0,2.2,1.6,3.3,3.8,3.3c1.2,0,2.1-0.3,2.6-0.8
				V56.7z">
    </path>
    <path class="st1" d="M231.7,52.6v3.1h3.3c1,0,1.8-0.5,1.8-1.6c0-1.1-0.8-1.5-1.8-1.5H231.7z M237.4,60.4l-2.6-3.3h-3.1v3.3H230
				V51h5.1c2.6,0,3.4,1.3,3.4,3c0,1.3-0.7,2.3-2,2.6l3.1,3.7H237.4z">
    </path>
    <path class="st1" d="M248.4,52.4c-2.2,0-3.8,1.3-3.8,3.4c0,2,1.7,3.2,3.8,3.2c2.2,0,3.8-1.2,3.8-3.2
				C252.1,53.8,250.6,52.4,248.4,52.4 M248.4,60.6c-3.1,0-5.5-1.9-5.5-4.8c0-2.9,2.2-5,5.5-5c3.2,0,5.5,2,5.5,5
				C253.9,58.7,251.6,60.6,248.4,60.6">
    </path>
    <path class="st1" d="M266,51h1.7v5.8c0,2.9-2.3,3.8-4.6,3.8c-2.3,0-4.6-0.9-4.6-3.8V51h1.7v5.7c0,1.6,1.1,2.3,2.9,2.3
				c1.8,0,2.9-0.7,2.9-2.3V51z">
    </path>
    <path class="st1" d="M277.2,55.8c1.3,0,2-0.4,2-1.6c0-1.2-0.8-1.6-2-1.6h-2.7v3.2H277.2z M272.6,60.4V51h4.7
				c2.3,0,3.5,0.9,3.5,3.1c0,2.2-1.2,3.2-3.5,3.2h-2.9v3.1H272.6z">
    </path>
    <path class="st1" d="M286.4,84c0,0.8-0.1,1.5-0.4,2.1c-0.3,0.6-0.6,1.2-1.1,1.6c-0.5,0.4-1,0.8-1.6,1c-0.6,0.2-1.2,0.4-1.9,0.4
				c-0.7,0-1.4-0.1-2-0.4c-0.6-0.3-1.1-0.6-1.6-1.1c-0.4-0.5-0.8-1-1-1.6c-0.2-0.6-0.4-1.3-0.4-2c0-0.8,0.1-1.5,0.4-2.1
				c0.3-0.6,0.6-1.2,1.1-1.6c0.5-0.4,1-0.8,1.6-1c0.6-0.2,1.2-0.4,1.9-0.4c0.7,0,1.3,0.1,1.9,0.4c0.6,0.2,1.1,0.6,1.6,1
				c0.5,0.4,0.8,1,1.1,1.6C286.2,82.6,286.4,83.3,286.4,84 M285.3,84c0-0.6-0.1-1.2-0.3-1.7c-0.2-0.5-0.5-1-0.8-1.3
				c-0.4-0.4-0.8-0.7-1.2-0.9c-0.5-0.2-1-0.3-1.5-0.3c-0.6,0-1.1,0.1-1.5,0.3c-0.5,0.2-0.9,0.5-1.2,0.9c-0.4,0.4-0.6,0.8-0.8,1.3
				s-0.3,1.1-0.3,1.7c0,0.6,0.1,1.1,0.3,1.6c0.2,0.5,0.4,0.9,0.8,1.3c0.3,0.4,0.7,0.7,1.2,0.9c0.5,0.2,1,0.3,1.6,0.3
				c0.5,0,1-0.1,1.5-0.3c0.5-0.2,0.9-0.5,1.2-0.9c0.4-0.4,0.6-0.8,0.8-1.3C285.2,85.2,285.3,84.7,285.3,84 M280.4,86.9h-0.9v-5.6
				h2.1c0.7,0,1.2,0.1,1.5,0.4c0.3,0.3,0.5,0.7,0.5,1.2c0,0.5-0.1,0.9-0.4,1.1c-0.3,0.2-0.6,0.4-1,0.4l1.6,2.5h-1l-1.5-2.4h-0.9
				V86.9z M281.4,83.8c0.2,0,0.3,0,0.5,0c0.2,0,0.3-0.1,0.4-0.1c0.1-0.1,0.2-0.2,0.3-0.3c0.1-0.1,0.1-0.3,0.1-0.5
				c0-0.2,0-0.3-0.1-0.4c-0.1-0.1-0.2-0.2-0.3-0.2c-0.1-0.1-0.2-0.1-0.4-0.1c-0.1,0-0.3,0-0.4,0h-1.1v1.6H281.4z">
    </path>
    <g class="st2">
     <path class="st3" d="M18.6,80.7h5.5c1.1,0,1.9,0,2.4,0.1c0.5,0.1,1,0.3,1.4,0.6c0.4,0.3,0.8,0.7,1.1,1.1c0.3,0.5,0.4,1,0.4,1.6
					c0,0.6-0.2,1.2-0.5,1.8c-0.3,0.5-0.8,0.9-1.4,1.2c0.8,0.2,1.5,0.7,1.9,1.2c0.4,0.6,0.7,1.3,0.7,2.1c0,0.6-0.1,1.2-0.4,1.8
					c-0.3,0.6-0.7,1.1-1.2,1.4c-0.5,0.4-1.1,0.6-1.9,0.6c-0.5,0-1.6,0.1-3.3,0.1h-4.7V80.7z M21.3,83v3.2h1.8c1.1,0,1.7,0,2,0
					c0.5-0.1,0.8-0.2,1.1-0.5c0.3-0.3,0.4-0.6,0.4-1.1c0-0.4-0.1-0.8-0.4-1c-0.2-0.3-0.6-0.4-1-0.5c-0.3,0-1.1,0-2.4,0H21.3z
					 M21.3,88.4v3.7h2.6c1,0,1.6,0,1.9-0.1c0.4-0.1,0.7-0.3,1-0.5c0.3-0.3,0.4-0.7,0.4-1.2c0-0.4-0.1-0.8-0.3-1
					c-0.2-0.3-0.5-0.5-0.9-0.6s-1.2-0.2-2.5-0.2H21.3z">
     </path>
     <path class="st3" d="M38.1,91.2l2.6,0.4c-0.3,1-0.9,1.7-1.6,2.2c-0.7,0.5-1.6,0.8-2.7,0.8c-1.7,0-3-0.6-3.8-1.7
					c-0.7-0.9-1-2-1-3.4c0-1.6,0.4-2.9,1.3-3.9s1.9-1.4,3.3-1.4c1.5,0,2.6,0.5,3.5,1.5s1.3,2.5,1.2,4.5h-6.6c0,0.8,0.2,1.4,0.6,1.8
					c0.4,0.4,0.9,0.6,1.5,0.6c0.4,0,0.8-0.1,1-0.3C37.8,92.1,38,91.7,38.1,91.2z M38.3,88.6c0-0.8-0.2-1.3-0.6-1.7
					c-0.4-0.4-0.8-0.6-1.4-0.6c-0.6,0-1,0.2-1.4,0.6c-0.4,0.4-0.6,1-0.6,1.7H38.3z">
     </path>
     <path class="st3" d="M47.6,84.5v2.1h-1.8v4c0,0.8,0,1.3,0.1,1.4s0.1,0.2,0.2,0.3c0.1,0.1,0.3,0.1,0.4,0.1c0.2,0,0.6-0.1,1.1-0.3
					l0.2,2c-0.6,0.3-1.3,0.4-2.1,0.4c-0.5,0-0.9-0.1-1.3-0.2c-0.4-0.2-0.7-0.4-0.8-0.6s-0.3-0.6-0.4-1c-0.1-0.3-0.1-0.9-0.1-1.9
					v-4.3h-1.2v-2.1h1.2v-2l2.6-1.5v3.5H47.6z">
     </path>
     <path class="st3" d="M53.9,84.5v2.1h-1.8v4c0,0.8,0,1.3,0.1,1.4s0.1,0.2,0.2,0.3c0.1,0.1,0.3,0.1,0.4,0.1c0.2,0,0.6-0.1,1.1-0.3
					l0.2,2c-0.6,0.3-1.3,0.4-2.1,0.4c-0.5,0-0.9-0.1-1.3-0.2c-0.4-0.2-0.7-0.4-0.8-0.6s-0.3-0.6-0.4-1c-0.1-0.3-0.1-0.9-0.1-1.9
					v-4.3h-1.2v-2.1h1.2v-2l2.6-1.5v3.5H53.9z">
     </path>
     <path class="st3" d="M61.5,91.2l2.6,0.4c-0.3,1-0.9,1.7-1.6,2.2c-0.7,0.5-1.6,0.8-2.7,0.8c-1.7,0-3-0.6-3.8-1.7
					c-0.7-0.9-1-2-1-3.4c0-1.6,0.4-2.9,1.3-3.9s1.9-1.4,3.3-1.4c1.5,0,2.6,0.5,3.5,1.5s1.3,2.5,1.2,4.5h-6.6c0,0.8,0.2,1.4,0.6,1.8
					c0.4,0.4,0.9,0.6,1.5,0.6c0.4,0,0.8-0.1,1-0.3C61.2,92.1,61.4,91.7,61.5,91.2z M61.7,88.6c0-0.8-0.2-1.3-0.6-1.7
					c-0.4-0.4-0.8-0.6-1.4-0.6c-0.6,0-1,0.2-1.4,0.6c-0.4,0.4-0.6,1-0.6,1.7H61.7z">
     </path>
     <path class="st3" d="M68.9,94.4h-2.6v-9.9h2.4v1.4c0.4-0.7,0.8-1.1,1.1-1.3c0.3-0.2,0.7-0.3,1.1-0.3c0.6,0,1.2,0.2,1.7,0.5
					L71.9,87c-0.4-0.3-0.9-0.4-1.2-0.4c-0.4,0-0.7,0.1-0.9,0.3c-0.3,0.2-0.5,0.6-0.6,1.1c-0.1,0.5-0.2,1.6-0.2,3.3V94.4z">
     </path>
     <path class="st3" d="M78.5,89.9l2.7-0.3c0.2,0.9,0.5,1.6,1,2c0.5,0.4,1.2,0.6,2,0.6c0.9,0,1.6-0.2,2-0.6
					c0.5-0.4,0.7-0.8,0.7-1.3c0-0.3-0.1-0.6-0.3-0.8c-0.2-0.2-0.5-0.4-1-0.6c-0.3-0.1-1.1-0.3-2.2-0.6c-1.5-0.4-2.5-0.8-3.1-1.4
					c-0.8-0.8-1.3-1.7-1.3-2.8c0-0.7,0.2-1.4,0.6-2c0.4-0.6,1-1.1,1.7-1.4s1.6-0.5,2.7-0.5c1.7,0,3,0.4,3.9,1.1s1.3,1.8,1.4,3
					l-2.8,0.1c-0.1-0.7-0.4-1.2-0.8-1.5c-0.4-0.3-1-0.5-1.8-0.5c-0.8,0-1.4,0.2-1.9,0.5c-0.3,0.2-0.4,0.5-0.4,0.9
					c0,0.3,0.1,0.6,0.4,0.8c0.3,0.3,1.2,0.6,2.5,0.9c1.3,0.3,2.3,0.6,3,1c0.6,0.3,1.1,0.8,1.5,1.4c0.4,0.6,0.5,1.3,0.5,2.2
					c0,0.8-0.2,1.5-0.7,2.2c-0.4,0.7-1.1,1.2-1.9,1.5c-0.8,0.3-1.8,0.5-3,0.5c-1.7,0-3.1-0.4-4-1.2C79.2,92.6,78.7,91.5,78.5,89.9z">
     </path>
     <path class="st3" d="M91.3,89.3c0-0.9,0.2-1.7,0.6-2.5c0.4-0.8,1-1.4,1.8-1.9c0.8-0.4,1.7-0.6,2.6-0.6c1.5,0,2.7,0.5,3.7,1.5
					s1.4,2.2,1.4,3.7c0,1.5-0.5,2.7-1.5,3.7c-1,1-2.2,1.5-3.7,1.5c-0.9,0-1.8-0.2-2.6-0.6s-1.5-1-1.9-1.8
					C91.6,91.4,91.3,90.4,91.3,89.3z M94,89.4c0,1,0.2,1.7,0.7,2.3s1,0.8,1.7,0.8s1.3-0.3,1.7-0.8c0.5-0.5,0.7-1.3,0.7-2.3
					c0-1-0.2-1.7-0.7-2.2c-0.5-0.5-1-0.8-1.7-0.8s-1.3,0.3-1.7,0.8S94,88.4,94,89.4z">
     </path>
     <path class="st3" d="M103.6,94.4V80.7h2.6v13.7H103.6z">
     </path>
     <path class="st3" d="M115.5,94.4v-1.5c-0.4,0.5-0.8,0.9-1.4,1.3c-0.6,0.3-1.2,0.5-1.9,0.5c-0.7,0-1.3-0.1-1.8-0.4
					c-0.5-0.3-0.9-0.7-1.1-1.2c-0.2-0.5-0.4-1.3-0.4-2.2v-6.3h2.6V89c0,1.4,0,2.3,0.1,2.6c0.1,0.3,0.3,0.6,0.5,0.7s0.6,0.3,1,0.3
					c0.4,0,0.9-0.1,1.2-0.4c0.4-0.2,0.6-0.6,0.7-0.9c0.1-0.4,0.2-1.3,0.2-2.7v-4.2h2.6v9.9H115.5z">
     </path>
     <path class="st3" d="M125.2,84.5v2.1h-1.8v4c0,0.8,0,1.3,0.1,1.4s0.1,0.2,0.2,0.3c0.1,0.1,0.3,0.1,0.4,0.1
					c0.2,0,0.6-0.1,1.1-0.3l0.2,2c-0.6,0.3-1.3,0.4-2.1,0.4c-0.5,0-0.9-0.1-1.3-0.2c-0.4-0.2-0.7-0.4-0.8-0.6s-0.3-0.6-0.4-1
					c-0.1-0.3-0.1-0.9-0.1-1.9v-4.3h-1.2v-2.1h1.2v-2l2.6-1.5v3.5H125.2z">
     </path>
     <path class="st3" d="M127,83.1v-2.4h2.6v2.4H127z M127,94.4v-9.9h2.6v9.9H127z">
     </path>
     <path class="st3" d="M131.7,89.3c0-0.9,0.2-1.7,0.6-2.5c0.4-0.8,1-1.4,1.8-1.9c0.8-0.4,1.7-0.6,2.6-0.6c1.5,0,2.7,0.5,3.7,1.5
					s1.4,2.2,1.4,3.7c0,1.5-0.5,2.7-1.5,3.7c-1,1-2.2,1.5-3.7,1.5c-0.9,0-1.8-0.2-2.6-0.6s-1.5-1-1.9-1.8
					C132,91.4,131.7,90.4,131.7,89.3z M134.4,89.4c0,1,0.2,1.7,0.7,2.3s1,0.8,1.7,0.8s1.3-0.3,1.7-0.8c0.5-0.5,0.7-1.3,0.7-2.3
					c0-1-0.2-1.7-0.7-2.2c-0.5-0.5-1-0.8-1.7-0.8s-1.3,0.3-1.7,0.8S134.4,88.4,134.4,89.4z">
     </path>
     <path class="st3" d="M153.1,94.4h-2.6v-5.1c0-1.1-0.1-1.8-0.2-2.1c-0.1-0.3-0.3-0.6-0.5-0.7c-0.3-0.2-0.6-0.3-0.9-0.3
					c-0.5,0-0.9,0.1-1.2,0.4c-0.4,0.2-0.6,0.6-0.7,1c-0.1,0.4-0.2,1.2-0.2,2.3v4.5H144v-9.9h2.4v1.5c0.9-1.1,2-1.7,3.3-1.7
					c0.6,0,1.1,0.1,1.6,0.3s0.8,0.5,1.1,0.8s0.4,0.7,0.5,1.1s0.1,1,0.1,1.8V94.4z">
     </path>
     <path class="st3" d="M154.8,91.6l2.6-0.4c0.1,0.5,0.3,0.9,0.7,1.2s0.8,0.4,1.4,0.4c0.7,0,1.2-0.1,1.5-0.4
					c0.2-0.2,0.3-0.4,0.3-0.7c0-0.2-0.1-0.4-0.2-0.5c-0.1-0.1-0.4-0.2-0.9-0.3c-2.1-0.5-3.5-0.9-4-1.3c-0.8-0.5-1.2-1.3-1.2-2.2
					c0-0.9,0.3-1.6,1-2.2s1.7-0.9,3.2-0.9c1.4,0,2.4,0.2,3,0.7c0.7,0.4,1.1,1.1,1.4,2l-2.5,0.5c-0.1-0.4-0.3-0.7-0.6-0.9
					c-0.3-0.2-0.7-0.3-1.3-0.3c-0.7,0-1.2,0.1-1.5,0.3c-0.2,0.1-0.3,0.3-0.3,0.5c0,0.2,0.1,0.3,0.3,0.5c0.2,0.2,1.1,0.4,2.5,0.7
					c1.4,0.3,2.4,0.7,2.9,1.2c0.5,0.5,0.8,1.1,0.8,2c0,0.9-0.4,1.7-1.1,2.3s-1.9,1-3.4,1c-1.4,0-2.4-0.3-3.2-0.8
					C155.6,93.2,155,92.5,154.8,91.6z">
     </path>
     <path class="st3" d="M166.4,94.4v-2.6h2.6v2.6H166.4z">
     </path>
     <path class="st4" d="M177,80.7h5.5c1.1,0,1.9,0,2.4,0.1c0.5,0.1,1,0.3,1.4,0.6c0.4,0.3,0.8,0.7,1.1,1.1c0.3,0.5,0.4,1,0.4,1.6
					c0,0.6-0.2,1.2-0.5,1.8c-0.3,0.5-0.8,0.9-1.4,1.2c0.8,0.2,1.5,0.7,1.9,1.2c0.4,0.6,0.7,1.3,0.7,2.1c0,0.6-0.1,1.2-0.4,1.8
					c-0.3,0.6-0.7,1.1-1.2,1.4c-0.5,0.4-1.1,0.6-1.9,0.6c-0.5,0-1.6,0.1-3.3,0.1H177V80.7z M179.8,83v3.2h1.8c1.1,0,1.7,0,2,0
					c0.5-0.1,0.8-0.2,1.1-0.5c0.3-0.3,0.4-0.6,0.4-1.1c0-0.4-0.1-0.8-0.4-1c-0.2-0.3-0.6-0.4-1-0.5c-0.3,0-1.1,0-2.4,0H179.8z
					 M179.8,88.4v3.7h2.6c1,0,1.6,0,1.9-0.1c0.4-0.1,0.7-0.3,1-0.5c0.3-0.3,0.4-0.7,0.4-1.2c0-0.4-0.1-0.8-0.3-1
					c-0.2-0.3-0.5-0.5-0.9-0.6s-1.2-0.2-2.5-0.2H179.8z">
     </path>
     <path class="st4" d="M196.6,91.2l2.6,0.4c-0.3,1-0.9,1.7-1.6,2.2c-0.7,0.5-1.6,0.8-2.7,0.8c-1.7,0-3-0.6-3.8-1.7
					c-0.7-0.9-1-2-1-3.4c0-1.6,0.4-2.9,1.3-3.9s1.9-1.4,3.3-1.4c1.5,0,2.6,0.5,3.5,1.5s1.3,2.5,1.2,4.5h-6.6c0,0.8,0.2,1.4,0.6,1.8
					c0.4,0.4,0.9,0.6,1.5,0.6c0.4,0,0.8-0.1,1-0.3C196.2,92.1,196.4,91.7,196.6,91.2z M196.7,88.6c0-0.8-0.2-1.3-0.6-1.7
					c-0.4-0.4-0.8-0.6-1.4-0.6c-0.6,0-1,0.2-1.4,0.6c-0.4,0.4-0.6,1-0.6,1.7H196.7z">
     </path>
     <path class="st4" d="M206,84.5v2.1h-1.8v4c0,0.8,0,1.3,0.1,1.4s0.1,0.2,0.2,0.3c0.1,0.1,0.3,0.1,0.4,0.1c0.2,0,0.6-0.1,1.1-0.3
					l0.2,2c-0.6,0.3-1.3,0.4-2.1,0.4c-0.5,0-0.9-0.1-1.3-0.2c-0.4-0.2-0.7-0.4-0.8-0.6s-0.3-0.6-0.4-1c-0.1-0.3-0.1-0.9-0.1-1.9
					v-4.3h-1.2v-2.1h1.2v-2l2.6-1.5v3.5H206z">
     </path>
     <path class="st4" d="M212.4,84.5v2.1h-1.8v4c0,0.8,0,1.3,0.1,1.4s0.1,0.2,0.2,0.3c0.1,0.1,0.3,0.1,0.4,0.1
					c0.2,0,0.6-0.1,1.1-0.3l0.2,2c-0.6,0.3-1.3,0.4-2.1,0.4c-0.5,0-0.9-0.1-1.3-0.2c-0.4-0.2-0.7-0.4-0.8-0.6s-0.3-0.6-0.4-1
					c-0.1-0.3-0.1-0.9-0.1-1.9v-4.3h-1.2v-2.1h1.2v-2l2.6-1.5v3.5H212.4z">
     </path>
     <path class="st4" d="M220,91.2l2.6,0.4c-0.3,1-0.9,1.7-1.6,2.2c-0.7,0.5-1.6,0.8-2.7,0.8c-1.7,0-3-0.6-3.8-1.7
					c-0.7-0.9-1-2-1-3.4c0-1.6,0.4-2.9,1.3-3.9s1.9-1.4,3.3-1.4c1.5,0,2.6,0.5,3.5,1.5s1.3,2.5,1.2,4.5h-6.6c0,0.8,0.2,1.4,0.6,1.8
					c0.4,0.4,0.9,0.6,1.5,0.6c0.4,0,0.8-0.1,1-0.3C219.6,92.1,219.8,91.7,220,91.2z M220.1,88.6c0-0.8-0.2-1.3-0.6-1.7
					c-0.4-0.4-0.8-0.6-1.4-0.6c-0.6,0-1,0.2-1.4,0.6c-0.4,0.4-0.6,1-0.6,1.7H220.1z">
     </path>
     <path class="st4" d="M227.4,94.4h-2.6v-9.9h2.4v1.4c0.4-0.7,0.8-1.1,1.1-1.3c0.3-0.2,0.7-0.3,1.1-0.3c0.6,0,1.2,0.2,1.7,0.5
					l-0.8,2.3c-0.4-0.3-0.9-0.4-1.2-0.4c-0.4,0-0.7,0.1-0.9,0.3c-0.3,0.2-0.5,0.6-0.6,1.1c-0.1,0.5-0.2,1.6-0.2,3.3V94.4z">
     </path>
     <path class="st4" d="M237.7,94.4V80.8h2.8v11.3h6.9v2.3H237.7z">
     </path>
     <path class="st4" d="M249.3,83.1v-2.4h2.6v2.4H249.3z M249.3,94.4v-9.9h2.6v9.9H249.3z">
     </path>
     <path class="st4" d="M253.5,84.5h1.5v-0.7c0-0.8,0.1-1.5,0.3-1.9s0.5-0.7,1-1s1.1-0.4,1.8-0.4c0.7,0,1.5,0.1,2.2,0.3l-0.4,1.8
					c-0.4-0.1-0.8-0.1-1.2-0.1c-0.4,0-0.7,0.1-0.8,0.3c-0.2,0.2-0.2,0.5-0.2,1v0.7h2v2.1h-2v7.9H255v-7.9h-1.5V84.5z">
     </path>
     <path class="st4" d="M266.8,91.2l2.6,0.4c-0.3,1-0.9,1.7-1.6,2.2c-0.7,0.5-1.6,0.8-2.7,0.8c-1.7,0-3-0.6-3.8-1.7
					c-0.7-0.9-1-2-1-3.4c0-1.6,0.4-2.9,1.3-3.9s1.9-1.4,3.3-1.4c1.5,0,2.6,0.5,3.5,1.5s1.3,2.5,1.2,4.5H263c0,0.8,0.2,1.4,0.6,1.8
					c0.4,0.4,0.9,0.6,1.5,0.6c0.4,0,0.8-0.1,1-0.3C266.4,92.1,266.6,91.7,266.8,91.2z M266.9,88.6c0-0.8-0.2-1.3-0.6-1.7
					c-0.4-0.4-0.8-0.6-1.4-0.6c-0.6,0-1,0.2-1.4,0.6c-0.4,0.4-0.6,1-0.6,1.7H266.9z">
     </path>
     <path class="st4" d="M271.7,94.4v-2.6h2.6v2.6H271.7z">
     </path>
    </g>
    <rect x="18" y="9" class="st5" width="54.8" height="11.4">
    </rect>
   </g>
   <g>
    <defs>
     <rect id="SVGID_3_" x="39.8" y="-12.7" transform="matrix(1.544633e-03 -1 1 1.544633e-03 30.6532 60.1081)" width="11.4" height="54.8">
     </rect>
    </defs>
    <clipPath id="SVGID_4_">
     <use xlink:href="#SVGID_3_" style="overflow:visible;">
     </use>
    </clipPath>
    <linearGradient id="SVGID_5_" gradientUnits="userSpaceOnUse" x1="101.0744" y1="275.1817" x2="102.8758" y2="275.1817" gradientTransform="matrix(0.3896 7.5973 7.5973 -0.3896 -2084.9438 -652.6918)">
     <stop offset="0" style="stop-color:#165DA3">
     </stop>
     <stop offset="0.2241" style="stop-color:#195290">
     </stop>
     <stop offset="0.733" style="stop-color:#1E3C6A">
     </stop>
     <stop offset="1" style="stop-color:#20345B">
     </stop>
    </linearGradient>
    <polygon class="st6" points="72.7,6.2 73.4,20.4 18.2,23.2 17.4,9 			">
    </polygon>
   </g>
   <g>
    <defs>
     <polygon id="SVGID_6_" points="31.6,42.5 96.9,45.2 100.2,30 33.1,30 				">
     </polygon>
    </defs>
    <clipPath id="SVGID_7_">
     <use xlink:href="#SVGID_6_" style="overflow:visible;">
     </use>
    </clipPath>
    <linearGradient id="SVGID_8_" gradientUnits="userSpaceOnUse" x1="105.3813" y1="277.4621" x2="107.1827" y2="277.4621" gradientTransform="matrix(0.1472 8.5396 8.5396 -0.1472 -2319.2205 -834.3844)">
     <stop offset="0" style="stop-color:#165DA3">
     </stop>
     <stop offset="0.2241" style="stop-color:#195290">
     </stop>
     <stop offset="0.733" style="stop-color:#1E3C6A">
     </stop>
     <stop offset="1" style="stop-color:#20345B">
     </stop>
    </linearGradient>
    <polygon class="st7" points="100.2,28.8 100.5,45.2 31.7,46.4 31.4,30 			">
    </polygon>
   </g>
   <g>
    <defs>
     <polygon id="SVGID_9_" points="31.6,42.5 96.9,45.2 100.2,30 33.1,30 				">
     </polygon>
    </defs>
    <clipPath id="SVGID_10_">
     <use xlink:href="#SVGID_9_" style="overflow:visible;">
     </use>
    </clipPath>
    <linearGradient id="SVGID_11_" gradientUnits="userSpaceOnUse" x1="105.3813" y1="277.4637" x2="107.1827" y2="277.4637" gradientTransform="matrix(0.1472 8.5396 8.5396 -0.1472 -2319.2336 -834.3842)">
     <stop offset="0" style="stop-color:#165DA3">
     </stop>
     <stop offset="0.2241" style="stop-color:#195290">
     </stop>
     <stop offset="0.733" style="stop-color:#1E3C6A">
     </stop>
     <stop offset="1" style="stop-color:#20345B">
     </stop>
    </linearGradient>
    <polygon class="st8" points="100.2,28.8 100.5,45.2 31.7,46.4 31.4,30 			">
    </polygon>
   </g>
   <g>
    <defs>
     <path id="SVGID_12_" d="M41.1,9.5c20.6-0.2,30.3,10.3,30.3,10.3l-44-0.1v0.1C26.6,15.4,30.1,9.6,41.1,9.5 M31.4-0.4
					C17.1-0.4,7.5,2.1,3.5,7.3c-1,1.3-1.6,2.8-1.8,4.4v1.8c0.4,4.2,3.2,9,7.4,14.1c6.9,8.3,14.6,13.9,27,18.7
					c12.3,4.9,25.3,7.3,38.9,7.3c11.3,0,20.3-1.6,25.3-4.7c4.9-3.1,5.3-10.2,2.9-14.6l-23,0C81.1,40,77.5,43,66.6,43
					c-5.6,0-13.9-1-20.4-3.8c-10-4.4-13-9.2-13.1-9.2l67.1,0l-1-1.4c-6.7-8-17.2-16.3-29-21.4C58.3,2.1,45.5-0.4,31.5-0.4H31.4z">
     </path>
    </defs>
    <clipPath id="SVGID_13_">
     <use xlink:href="#SVGID_12_" style="overflow:visible;">
     </use>
    </clipPath>
    <linearGradient id="SVGID_14_" gradientUnits="userSpaceOnUse" x1="130.7605" y1="300.3657" x2="132.5618" y2="300.3657" gradientTransform="matrix(10.6009 -27.3856 -27.3856 -10.6009 6883.3213 6817.0908)">
     <stop offset="0" style="stop-color:#FFFFFF">
     </stop>
     <stop offset="0.3979" style="stop-color:#FAFAFD">
     </stop>
     <stop offset="0.8955" style="stop-color:#EAEDF6">
     </stop>
     <stop offset="1" style="stop-color:#E6E9F4">
     </stop>
    </linearGradient>
    <polygon class="st9" points="-16.5,46.6 15.2,-35.4 123.8,6.6 92,88.6 			">
    </polygon>
   </g>
   <g>
    <defs>
     <path id="SVGID_15_" d="M11.2,50.6l-3.1-8.3l12.4-4.1c-4.1-3-8.1-6.6-11.4-10.6c-5.2-6.3-8.3-12.1-7.3-16.9
					C0.1,14.5-2.3,34.3,11.2,50.6">
     </path>
    </defs>
    <clipPath id="SVGID_16_">
     <use xlink:href="#SVGID_15_" style="overflow:visible;">
     </use>
    </clipPath>
    <linearGradient id="SVGID_17_" gradientUnits="userSpaceOnUse" x1="112.8515" y1="289.7475" x2="114.6529" y2="289.7475" gradientTransform="matrix(7.7921 15.1947 15.1947 -7.7921 -5280.9507 558.0035)">
     <stop offset="0" style="stop-color:#609230">
     </stop>
     <stop offset="0.7194" style="stop-color:#7DAC28">
     </stop>
     <stop offset="1" style="stop-color:#89B825">
     </stop>
    </linearGradient>
    <polygon class="st10" points="15.7,1.5 36.7,42.3 2.4,59.9 -18.5,19.1 			">
    </polygon>
   </g>
   <g>
    <defs>
     <path id="SVGID_18_" d="M12.4,44.2l8,22.4l2.5-6.2c0,0,4.2,2.5,6.6,3.7c11.9,5.8,25.3,7.7,38.9,7.2c32.4-1.1,34.7-24,35.3-26.3
					c-0.7,1.6-1.8,3-3.4,4c-5,3.1-14,4.7-25.3,4.7c-13.6,0-26.5-2.4-38.9-7.2c-2.8-1.1-7.7-3.4-7.7-3.4l1.5-4.4L12.4,44.2z">
     </path>
    </defs>
    <clipPath id="SVGID_19_">
     <use xlink:href="#SVGID_18_" style="overflow:visible;">
     </use>
    </clipPath>
    <linearGradient id="SVGID_20_" gradientUnits="userSpaceOnUse" x1="130.5242" y1="290.8838" x2="132.3256" y2="290.8838" gradientTransform="matrix(-46.9476 -12.4675 -12.4675 46.9476 9853.625 -11962.9688)">
     <stop offset="0" style="stop-color:#609230">
     </stop>
     <stop offset="0.7194" style="stop-color:#7DAC28">
     </stop>
     <stop offset="1" style="stop-color:#89B825">
     </stop>
    </linearGradient>
    <polygon class="st11" points="97.7,94.3 4.2,69.5 18.4,15.8 111.9,40.7 			">
    </polygon>
   </g>
  </g>
 </g>
</svg>