<svg version="1.1" id="Layer_1" xmlns:x="ns_extend;" xmlns:i="ns_ai;" xmlns:graph="ns_graphs;" xmlns="http://www.w3.org/2000/svg" xmlns:xlink="http://www.w3.org/1999/xlink" x="0px" y="0px" viewBox="0 0 203.5 93.6" style="enable-background:new 0 0 203.5 93.6;" xml:space="preserve">
 <style type="text/css">
  .st0{display:none;fill-rule:evenodd;clip-rule:evenodd;fill:#CE0E2D;}
	.st1{fill-rule:evenodd;clip-rule:evenodd;fill:#CE0E2D;}
 </style>
 <metadata>
  <sfw xmlns="ns_sfw;">
   <slices>
   </slices>
   <sliceSourceBounds bottomLeftOrigin="true" height="287.8" width="287.8" x="0" y="0">
   </sliceSourceBounds>
  </sfw>
 </metadata>
 <rect x="-42.1" y="-97" class="st0" width="287.8" height="287.8">
 </rect>
 <g>
  <path class="st1" d="M130.8,34.4h-22l-5.1,9.6c-0.7,1.5-1.8,3.2-1.8,3.2h-0.2c0,0-1-1.7-1.8-3.2l-5.1-9.6H72.9L90.1,61L72.9,87.6
		h21.6l5.8-11.1c0.6-1,1.3-3,1.3-3h0.2c0,0,0.8,2,1.3,3l5.9,11.1h21.6L113.4,61L130.8,34.4 M33.6,74.1c-6.1,0-10.9-4.7-10.9-10.5
		c0-4.9,2.6-8.8,4.8-11.1c8.9,4,17,7.1,17,12.3C44.5,70.8,40.3,74.1,33.6,74.1z M34.2,19.5c5.9,0,9.5,3.3,9.5,8.4
		c0,5.6-2.4,9.8-3.2,11.1c-8-3.4-14.6-6.5-14.6-12.4C25.9,22.6,28.5,19.5,34.2,19.5z M56.5,46.8c0.9-1.1,8.9-10.8,8.9-20.6
		C65.4,9.4,51.6,0,34.7,0C13.5,0,4.3,12.9,4.3,26.1c0,7.7,3.4,13.1,8.2,17.3C9.7,45.6,0,53.8,0,65.5c0,14.4,11.5,28.1,33.6,28.1
		C56,93.6,67.2,79.8,67.2,66C67.1,56.9,62.5,51,56.5,46.8z M169.9,74.1c-6.1,0-10.9-4.7-10.9-10.5c0-4.9,2.6-8.8,4.8-11.1
		c8.9,4,17,7.1,17,12.3C180.7,70.8,176.5,74.1,169.9,74.1L169.9,74.1z M170.5,19.5c5.9,0,9.5,3.3,9.5,8.4c0,5.6-2.4,9.8-3.2,11.1
		c-8-3.4-14.6-6.5-14.6-12.4C162.3,22.6,164.8,19.5,170.5,19.5L170.5,19.5z M192.8,46.8c0.9-1.1,8.9-10.9,8.9-20.6
		C201.7,9.4,187.9,0,171,0c-21.2,0-30.4,12.9-30.4,26.1c0,7.7,3.4,13.1,8.2,17.3c-2.8,2.2-12.5,10.4-12.5,22
		c0,14.4,11.5,28.1,33.6,28.1c22.4,0,33.6-13.8,33.6-27.6C203.4,56.9,198.8,51,192.8,46.8z">
  </path>
 </g>
</svg>