<svg version="1.1" id="Layer_1" xmlns:x="ns_extend;" xmlns:i="ns_ai;" xmlns:graph="ns_graphs;" xmlns="http://www.w3.org/2000/svg" xmlns:xlink="http://www.w3.org/1999/xlink" x="0px" y="0px" viewBox="0 0 191.2 51.2" style="enable-background:new 0 0 191.2 51.2;" xml:space="preserve">
 <style type="text/css">
  .st0{clip-path:url(#SVGID_2_);fill:url(#SVGID_3_);}
	.st1{clip-path:url(#SVGID_5_);fill:#231F20;}
 </style>
 <metadata>
  <sfw xmlns="ns_sfw;">
   <slices>
   </slices>
   <sliceSourceBounds bottomLeftOrigin="true" height="51.2" width="191.2" x="104.6" y="-225.8">
   </sliceSourceBounds>
  </sfw>
 </metadata>
 <g>
  <g>
   <defs>
    <path id="SVGID_1_" d="M28.2,46c-0.5-0.5-0.7-1.1-0.7-1.7v-2.4H37c1.4,0,2.5,1.1,2.5,2.4c0,1.4-1.1,2.5-2.5,2.5h-7.1h0
				C29.2,46.8,28.6,46.5,28.2,46 M9.8,35c0-1.4,1.1-2.5,2.5-2.5H23v4.9H12.2C10.9,37.5,9.8,36.4,9.8,35 M27.4,23.2h14.9
				c1.4,0,2.5,1.1,2.5,2.5c0,1.4-1.1,2.5-2.5,2.5H27.4V23.2z M4.4,16.4c0-1.4,1.1-2.5,2.5-2.5H23v4.9H6.8
				C5.5,18.9,4.4,17.8,4.4,16.4 M27.4,6.9c0-1.4,1.1-2.5,2.5-2.5H51c-0.9,3-3.7,5.2-7,5.2H27.4V6.9z M29.9,0C26.1,0,23,3.1,23,6.9
				v2.7H6.8C3.1,9.5,0,12.6,0,16.4c0,3.8,3.1,6.8,6.8,6.8H23v4.9H12.2c-3.8,0-6.8,3.1-6.8,6.8c0,3.8,3.1,6.9,6.8,6.9H23v2.4
				c0,1.8,0.7,3.6,2,4.8c1.3,1.3,3,2,4.8,2H37c3.8,0,6.8-3.1,6.8-6.9c0-3.8-3.1-6.8-6.8-6.8h-9.6v-4.9h14.9c3.8,0,6.8-3.1,6.8-6.9
				c0-3.8-3.1-6.8-6.8-6.8H27.4v-4.9H44c6.5,0,11.7-5.3,11.7-11.7V0.4c0-0.2-0.2-0.4-0.4-0.4H29.9z">
    </path>
   </defs>
   <clipPath id="SVGID_2_">
    <use href="#SVGID_1_" style="overflow:visible;">
    </use>
   </clipPath>
   <linearGradient id="SVGID_3_" gradientUnits="userSpaceOnUse" x1="-216.1676" y1="427.8812" x2="-215.1676" y2="427.8812" gradientTransform="matrix(55.7408 0 0 -55.7408 12049.3643 23876.0332)">
    <stop offset="0" style="stop-color:#5951A1">
    </stop>
    <stop offset="0.1033" style="stop-color:#5554A3">
    </stop>
    <stop offset="0.2107" style="stop-color:#485CA9">
    </stop>
    <stop offset="0.3198" style="stop-color:#3469B4">
    </stop>
    <stop offset="0.4296" style="stop-color:#177CC3">
    </stop>
    <stop offset="0.5" style="stop-color:#008BCE">
    </stop>
    <stop offset="0.9" style="stop-color:#00A9E6">
    </stop>
    <stop offset="1" style="stop-color:#00A9E6">
    </stop>
   </linearGradient>
   <rect y="0" class="st0" width="55.7" height="51.1">
   </rect>
  </g>
  <g>
   <defs>
    <rect id="SVGID_4_" x="0" width="191.2" height="51.2">
    </rect>
   </defs>
   <clipPath id="SVGID_5_">
    <use xlink:href="#SVGID_4_" style="overflow:visible;">
    </use>
   </clipPath>
   <path class="st1" d="M76.8,46V39h-7.2V46H66V29h3.6v6.8h7.2V29h3.6v17H76.8z M88.7,46.3c1.9,0,3.9-0.6,5.1-1.7l-1.5-2.1
			c-0.8,0.8-2.2,1.2-3.3,1.2c-2.1,0-3.3-1.3-3.6-2.8h9.2v-0.8c0-4-2.5-6.8-6.2-6.8c-3.7,0-6.4,2.9-6.4,6.5
			C82.1,43.8,85,46.3,88.7,46.3 M91.6,38.7h-6.1c0.1-1.2,1-2.6,3-2.6C90.7,36,91.5,37.5,91.6,38.7 M114.2,46V33.7V29H111v4.7V46
			H114.2z M121.5,46.3c1.4,0,2.2-0.4,2.7-0.8l-0.7-2.5c-0.2,0.2-0.6,0.4-1.1,0.4c-0.7,0-1.1-0.6-1.1-1.4v-5.5h2.5v-2.8h-2.5v-3.4
			h-3.2v3.4h-2v2.8h2v6.4C118.1,45.2,119.3,46.3,121.5,46.3 M105.1,35.1c-0.9-1.1-2.2-1.7-3.7-1.7c-3.2,0-5.5,2.4-5.5,6.5
			c0,4.1,2.3,6.5,5.5,6.5c1.5,0,2.8-0.6,3.7-1.7V46h3.2V33.7h-3.2V35.1z M105.1,42.2c-0.6,0.8-1.4,1.2-2.6,1.2c-2,0-3.2-1.7-3.2-3.6
			c0-1.9,1.2-3.6,3.2-3.6c1.2,0,2,0.5,2.6,1.2V42.2z M186.3,14.3c-1.4-0.3-2.2-0.5-2.2-1.1c0-0.6,0.8-1.1,1.8-1.1
			c1.6,0,3,0.7,3.7,1.4l1.4-2.3c-1.6-1.3-3.4-1.7-5-1.7c-3.5,0-5.1,2-5.1,3.9c0,3,2.8,3.6,4.9,4c1.4,0.3,2.3,0.5,2.3,1.2
			c0,0.8-0.7,1.2-1.9,1.2c-1.6,0-3.5-1-4.3-1.7l-1.5,2.4c1.4,1.3,3.5,2,5.6,2c3.3,0,5.4-1.6,5.4-4C191.2,15.3,188.3,14.7,186.3,14.3
			 M179.3,18.5c0,2.4-2.1,4-5.4,4c-2.1,0-4.2-0.7-5.6-2l1.5-2.4c0.8,0.7,2.6,1.7,4.3,1.7c1.2,0,1.9-0.4,1.9-1.2
			c0-0.7-0.9-0.9-2.3-1.2c-2.1-0.4-4.9-0.9-4.9-4c0-1.9,1.6-3.9,5.1-3.9c1.7,0,3.5,0.5,5,1.7l-1.4,2.3c-0.7-0.7-2.1-1.4-3.7-1.4
			c-1,0-1.8,0.5-1.8,1.1c0,0.6,0.8,0.8,2.2,1.1C176.3,14.7,179.3,15.3,179.3,18.5 M66,5.1H78v3.2h-8.4v3.6h8.3v3.2h-8.3V19H78v3.2
			H66V5.1z M93.4,16c0,3.8,2.7,6.5,6.5,6.5c2.5,0,4.1-1.1,4.9-2.2l-2.1-2c-0.6,0.8-1.5,1.3-2.6,1.3c-2,0-3.3-1.5-3.3-3.6
			c0-2.1,1.4-3.6,3.3-3.6c1.1,0,2,0.5,2.6,1.3l2.1-2c-0.8-1.1-2.4-2.2-4.9-2.2C96.2,9.5,93.4,12.2,93.4,16 M112,22.5
			c4.1,0,6.5-3,6.5-6.5c0-3.5-2.5-6.5-6.5-6.5c-4.1,0-6.5,3-6.5,6.5C105.5,19.5,107.9,22.5,112,22.5 M112,19.6c-2,0-3.1-1.7-3.1-3.6
			c0-1.9,1.1-3.6,3.1-3.6c2,0,3.2,1.7,3.2,3.6C115.2,17.9,114,19.6,112,19.6 M87.8,9.5c-1.9,0-3.3,0.8-4.1,1.7V9.8h-3.2v12.3h3.2
			v-8.5c0.6-0.6,1.5-1.2,2.6-1.2c1.4,0,2.3,0.6,2.3,2.3v7.5h3.2v-8.7C91.8,11,90.5,9.5,87.8,9.5 M134.8,9.5c-1.8,0-3.4,1-4.1,2.1
			c-0.5-1.3-1.6-2.1-3.4-2.1c-1.7,0-3.2,1-3.9,1.7V9.8h-3.2v12.3h3.2v-8.5c0.5-0.6,1.4-1.2,2.4-1.2c1.3,0,1.8,0.8,1.8,2v7.8h3.3
			l0-8.5c0.5-0.6,1.4-1.2,2.4-1.2c1.3,0,1.8,0.8,1.8,2v7.8h3.3v-8.9C138.5,10.7,137.1,9.5,134.8,9.5 M144.1,9.8h-3.2v17.1h3.2v-6.1
			c0.9,1.1,2.2,1.7,3.7,1.7c3.2,0,5.5-2.4,5.5-6.5c0-4.1-2.3-6.5-5.5-6.5c-1.5,0-2.8,0.6-3.7,1.7V9.8z M144.1,13.6
			c0.6-0.8,1.4-1.2,2.6-1.2c2,0,3.2,1.7,3.2,3.6c0,1.9-1.2,3.6-3.2,3.6c-1.2,0-2-0.5-2.6-1.2V13.6z M163.5,11.2
			c-0.9-1.1-2.2-1.7-3.7-1.7c-3.2,0-5.5,2.4-5.5,6.5c0,4.1,2.3,6.5,5.5,6.5c1.5,0,2.8-0.6,3.7-1.7v1.4h3.2V9.8h-3.2V11.2z
			 M163.5,18.3c-0.6,0.8-1.4,1.2-2.6,1.2c-2,0-3.2-1.7-3.2-3.6c0-1.9,1.2-3.6,3.2-3.6c1.2,0,2,0.5,2.6,1.2V18.3z M133.4,33.4
			c-1.9,0-3.3,0.8-4.1,1.7V29h-3.2v17h3.2v-8.5c0.6-0.6,1.5-1.2,2.6-1.2c1.4,0,2.3,0.6,2.3,2.3V46h3.2v-8.7
			C137.4,34.9,136.1,33.4,133.4,33.4">
   </path>
   <path class="st1" d="M141.7,41.6c-1.2,0-2.2,1-2.2,2.2s1,2.2,2.2,2.2c1.2,0,2.2-1,2.2-2.2C143.9,42.6,142.9,41.6,141.7,41.6
			 M141.7,45.6c-1,0-1.8-0.8-1.8-1.8s0.8-1.8,1.8-1.8c1,0,1.8,0.8,1.8,1.8S142.7,45.6,141.7,45.6">
   </path>
   <path class="st1" d="M142.7,43.3c0-0.5-0.4-0.8-0.9-0.8h-1.1v2.6h0.5v-1h0.3l0.6,1h0.6l-0.7-1C142.4,44.1,142.7,43.8,142.7,43.3
			 M141.3,42.9h0.6c0.2,0,0.4,0.1,0.4,0.4c0,0.2-0.2,0.4-0.4,0.4h-0.6V42.9z">
   </path>
  </g>
 </g>
</svg>