<svg version="1.1" id="Layer_1" xmlns:x="ns_extend;" xmlns:i="ns_ai;" xmlns:graph="ns_graphs;" xmlns="http://www.w3.org/2000/svg" xmlns:xlink="http://www.w3.org/1999/xlink" x="0px" y="0px" viewBox="0 0 276.5 74.5" style="enable-background:new 0 0 276.5 74.5;" xml:space="preserve">
 <style type="text/css">
  .st0{fill:#53565A;}
	.st1{fill:#FFFFFF;}
	.st2{fill:#FED141;}
	.st3{fill:#00664F;}
 </style>
 <metadata>
  <sfw xmlns="ns_sfw;">
   <slices>
   </slices>
   <sliceSourceBounds bottomLeftOrigin="true" height="74.5" width="276.5" x="67.3" y="-247.5">
   </sliceSourceBounds>
  </sfw>
 </metadata>
 <g>
  <g>
   <rect x="91.7" y="49.3" class="st0" width="2.7" height="14.6">
   </rect>
   <polygon class="st0" points="100.1,63.9 100.1,49.3 102.6,49.3 110.2,59.4 110.3,59.4 110.3,49.3 111.4,49.3 111.4,63.9 
			110.2,63.9 101.3,52.3 101.3,52.3 101.3,63.9 		">
   </polygon>
   <polygon class="st0" points="118.8,63.9 118.8,50.3 115.8,50.3 115.8,49.3 124.4,49.3 124.4,50.3 121.5,50.3 121.5,63.9 		">
   </polygon>
   <polygon class="st0" points="128.9,63.9 128.9,49.3 137.5,49.3 137.5,50.3 131.6,50.3 131.6,55.9 137.2,55.9 137.2,56.9 
			131.6,56.9 131.6,63 137.6,63 137.6,63.9 		">
   </polygon>
   <path class="st0" d="M142.5,63.9V49.3h6.3c2.7,0,4.1,2,4.1,4.3c0,2.2-1.6,3.2-3.8,3.5l3.9,6.8h-3l-4-7.5h0.2c2.4,0,4-0.9,4-3.1
			c0-1.6-0.8-3.3-3.5-3.3h-1.5v13.9H142.5z">
   </path>
   <polygon class="st0" points="157.8,63.9 157.8,49.3 160.3,49.3 167.9,59.4 168,59.4 168,49.3 169.1,49.3 169.1,63.9 167.9,63.9 
			159,52.3 159,52.3 159,63.9 		">
   </polygon>
   <path class="st0" d="M184.7,63.9h-2.8l-1.6-3.8h-5l-1.5,3.8h-1.3l5.9-15h0L184.7,63.9z M177.8,53.8l-2.1,5.4h4.3L177.8,53.8z">
   </path>
   <polygon class="st0" points="189.3,63.9 189.3,50.3 186.4,50.3 186.4,49.3 195,49.3 195,50.3 192.1,50.3 192.1,63.9 		">
   </polygon>
   <rect x="199.7" y="49.3" class="st0" width="2.7" height="14.6">
   </rect>
   <path class="st0" d="M214.3,48.9c4.2,0,7.3,3.4,7.3,7.7c0,4.3-3,7.7-7.3,7.7c-4.2,0-7.2-3.4-7.2-7.7
			C207.1,52.3,210.1,48.9,214.3,48.9 M214.3,63.4c3.5,0,4.3-3.9,4.3-6.8c0-2.8-0.8-6.8-4.3-6.8c-3.5,0-4.3,3.9-4.3,6.8
			C210,59.5,210.8,63.4,214.3,63.4">
   </path>
   <polygon class="st0" points="226.1,63.9 226.1,49.3 228.5,49.3 236.1,59.4 236.2,59.4 236.2,49.3 237.4,49.3 237.4,63.9 
			236.1,63.9 227.3,52.3 227.2,52.3 227.2,63.9 		">
   </polygon>
   <path class="st0" d="M252.9,63.9h-2.8l-1.6-3.8h-5l-1.5,3.8h-1.3l5.9-15h0L252.9,63.9z M246,53.8l-2.1,5.4h4.3L246,53.8z">
   </path>
   <polygon class="st0" points="256.6,63.9 256.6,49.3 259.3,49.3 259.3,62.8 265.2,62.8 265.2,63.9 		">
   </polygon>
   <polygon class="st0" points="91.5,41 91.5,7.3 111.4,7.3 111.4,9.5 97.8,9.5 97.8,22.5 110.6,22.5 110.6,24.7 97.8,24.7 
			97.8,38.8 111.6,38.8 111.6,41 		">
   </polygon>
   <path class="st0" d="M119.7,7.3h11c12.2,0,17.9,8.6,17.9,17.4c0,10.8-6.9,16.2-16.7,16.2h-12.2L119.7,7.3z M126.1,38.8h3.9
			c10.1,0,12.3-7.3,12.3-13.9c0-8.5-3.9-15.4-11.9-15.4h-4.3L126.1,38.8z">
   </path>
   <rect x="156.2" y="7.3" class="st0" width="6.3" height="33.7">
   </rect>
   <path class="st0" d="M174,35c1.8,2.8,3.6,4.3,7,4.3c2.9,0,6-2.3,6-5.8c0-9.8-15.8-5.1-15.8-17.2c0-5.4,4.5-9.9,10.8-9.9
			c4.2,0,8.4,2.3,10.1,6l-2.2,1.4c-1.3-2.7-3.3-4.8-6.9-4.8c-3.5,0-5.5,2.6-5.5,5.9c0,7.9,15.8,4.6,15.8,16.7
			c0,6.2-5.4,10.3-11.1,10.3c-4.6,0-8.3-1.4-10.6-5.2L174,35z">
   </path>
   <path class="st0" d="M215.5,6.4c9.8,0,16.7,7.8,16.7,17.8c0,9.9-7,17.8-16.7,17.8c-9.7,0-16.7-7.8-16.7-17.8
			C198.8,14.2,205.8,6.4,215.5,6.4 M215.5,39.7c8.1,0,9.9-9,9.9-15.6c0-6.5-1.8-15.6-9.9-15.6c-8.1,0-9.9,9-9.9,15.6
			C205.6,30.7,207.4,39.7,215.5,39.7">
   </path>
   <polygon class="st0" points="239.1,41 239.1,7.3 244.7,7.3 262.3,30.5 262.4,30.5 262.4,7.3 265.1,7.3 265.1,41 262.3,41 
			241.9,14.1 241.8,14.1 241.8,41 		">
   </polygon>
   <rect y="0" class="st1" width="74.4" height="74.5">
   </rect>
   <polygon class="st2" points="0,45.6 31.1,48.3 8.3,31.6 34.5,41.1 9.3,9.3 41.1,34.3 31.6,8.3 47.5,30.4 46,0 56,30.4 63.4,0 0,0 
			0,63.4 0,63.4 30.8,56.5 		">
   </polygon>
   <polygon class="st3" points="0,63.4 63.4,63.4 63.4,0 74.4,0 74.4,74.5 0,74.5 		">
   </polygon>
   <path class="st0" d="M272.6,56.8c-2.2,0-4-1.8-4-4c0-2.2,1.8-4,4-4c2.2,0,4,1.8,4,4C276.5,55,274.7,56.8,272.6,56.8 M272.6,49.3
			c-2,0-3.5,1.6-3.5,3.5c0,2,1.6,3.5,3.5,3.5c2,0,3.5-1.6,3.5-3.5C276.1,50.9,274.5,49.3,272.6,49.3">
   </path>
   <path class="st0" d="M271.9,50.7c0-0.1,0-0.2,0.2-0.2c1.2,0,1.4,0.6,1.4,1.2c0,0.4-0.2,1.1-1.3,1.1c-0.1,0-0.2,0-0.3,0V50.7z
			 M270.7,55.1c0.3,0,0.6,0,0.9,0c0.2,0,0.5,0,0.8,0v-0.2h-0.2c-0.3,0-0.4-0.1-0.4-0.4V53c0.5,0,0.6,0,0.8,0.4l1.3,1.7
			c0.2,0,0.3,0,0.5,0c0.2,0,0.4,0,0.5,0v-0.2c-0.3,0-0.4,0-0.7-0.4l-0.9-1.2c-0.1-0.2-0.3-0.3-0.4-0.4c0.8-0.2,1.2-0.7,1.2-1.3
			c0-1-0.8-1.3-1.6-1.3c-0.3,0-0.6,0-1,0c-0.3,0-0.6,0-0.9,0v0.2h0.2c0.3,0,0.4,0.1,0.4,0.4v3.6c0,0.3-0.1,0.4-0.4,0.4h-0.2V55.1z">
   </path>
   <path class="st0" d="M271.9,50.7c0-0.1,0-0.2,0.2-0.2c1.2,0,1.4,0.6,1.4,1.2c0,0.4-0.2,1.1-1.3,1.1c-0.1,0-0.2,0-0.3,0V50.7z
			 M270.7,55.1c0.3,0,0.6,0,0.9,0c0.2,0,0.5,0,0.8,0v-0.2h-0.2c-0.3,0-0.4-0.1-0.4-0.4V53c0.5,0,0.6,0,0.8,0.4l1.3,1.7
			c0.2,0,0.3,0,0.5,0c0.2,0,0.4,0,0.5,0v-0.2c-0.3,0-0.4,0-0.7-0.4l-0.9-1.2c-0.1-0.2-0.3-0.3-0.4-0.4c0.8-0.2,1.2-0.7,1.2-1.3
			c0-1-0.8-1.3-1.6-1.3c-0.3,0-0.6,0-1,0c-0.3,0-0.6,0-0.9,0v0.2h0.2c0.3,0,0.4,0.1,0.4,0.4v3.6c0,0.3-0.1,0.4-0.4,0.4h-0.2V55.1z">
   </path>
  </g>
 </g>
</svg>