<svg version="1.1" id="Layer_1" xmlns:x="ns_extend;" xmlns:i="ns_ai;" xmlns:graph="ns_graphs;" xmlns="http://www.w3.org/2000/svg" xmlns:xlink="http://www.w3.org/1999/xlink" x="0px" y="0px" viewBox="0 0 60 46" style="enable-background:new 0 0 60 46;" xml:space="preserve">
 <style type="text/css">
  .st0{fill-rule:evenodd;clip-rule:evenodd;}
 </style>
 <metadata>
  <sfw xmlns="ns_sfw;">
   <slices>
   </slices>
   <sliceSourceBounds bottomLeftOrigin="true" height="46" width="60" x="170.5" y="-223.2">
   </sliceSourceBounds>
  </sfw>
 </metadata>
 <g>
  <path class="st0" d="M58.9,4.3c-1-1.7-2.9-2.7-4.9-2.7c-2.7,0-4.9,1.8-5.5,4.3c-0.3,1.3-0.5,2.7-0.5,5c0,0.3,0,7.6,0,7.8l8.1,0v1.7
		l-8.1,0l0,25.2h-3.3l0-25.2v-1.7c0-0.3,0-7.6,0-7.8C45,3.5,48.6,0,53.5,0c2.6,0,5,1.2,6.4,3.5C60,3.5,58.9,4.3,58.9,4.3z
		 M40.1,45.7c-0.5,0-0.9-0.4-0.9-0.9c0-0.5,0.4-0.9,0.9-0.9c0.5,0,0.9,0.4,0.9,0.9C41.1,45.3,40.6,45.7,40.1,45.7
		C40.1,45.7,40.1,45.7,40.1,45.7z M32.3,3c0-1.5,1.3-2.8,2.6-2.8h0.7v45.4h-3.3V3z M27.2,45.7c-0.5,0-0.9-0.4-0.9-0.9
		c0-0.5,0.4-0.9,0.9-0.9c0.5,0,0.9,0.4,0.9,0.9C28.1,45.3,27.7,45.7,27.2,45.7C27.2,45.7,27.2,45.7,27.2,45.7z M3.5,31.5
		c-0.1,8.5,5.2,12.8,10.3,12.8c4.6,0,7.3-2.5,8.6-3.7l1,1c-1.7,1.9-5.2,4.4-9.9,4.4C5.9,46,0,40,0,32c0-7.6,5.7-13.5,12.7-13.5
		c7.3,0,11.6,5.2,12,12.5c0,0.3,0,0.5,0,0.5H3.5z M12.7,20C9,20,3.9,23.4,3.5,30h17.8C21.1,23.9,17.4,20,12.7,20z M52.9,43.9
		c0.5,0,0.9,0.4,0.9,0.9c0,0.5-0.4,0.9-0.9,0.9c-0.5,0-0.9-0.4-0.9-0.9c0,0,0,0,0,0C52,44.3,52.4,43.9,52.9,43.9z">
  </path>
 </g>
</svg>