<svg version="1.1" id="Layer_1" xmlns:x="ns_extend;" xmlns:i="ns_ai;" xmlns:graph="ns_graphs;" xmlns="http://www.w3.org/2000/svg" xmlns:xlink="http://www.w3.org/1999/xlink" x="0px" y="0px" viewBox="0 0 312.6 72" style="enable-background:new 0 0 312.6 72;" xml:space="preserve">
 <style type="text/css">
  .st0{fill:#008286;}
 </style>
 <metadata>
  <sfw xmlns="ns_sfw;">
   <slices>
   </slices>
   <sliceSourceBounds bottomLeftOrigin="true" height="72" width="312.6" x="0" y="35.3">
   </sliceSourceBounds>
  </sfw>
 </metadata>
 <g>
  <path class="st0" d="M215,45.9c-8.4,6.9-21.8,1.2-21.7-10c-0.1-11.2,13.3-16.9,21.7-10l6.8-10.4c-1.5-1-3.2-1.9-4.9-2.5
		c-6.8-2.5-14.2-2.5-21,0c-12.7,5.2-18.8,19.7-13.6,32.4c0,0.1,0.1,0.2,0.1,0.3c2.5,6,7.4,10.8,13.6,13.1c6.8,2.5,14.2,2.5,21,0
		c1.7-0.7,3.4-1.5,4.9-2.6L215,45.9z">
  </path>
  <polygon class="st0" points="118.2,22.9 96.2,22.9 96.2,30.7 115.6,30.7 115.6,41 96.2,41 96.2,49.1 118.2,49.1 118.2,59.5 
		83.9,59.5 83.9,12.5 118.2,12.5 	">
  </polygon>
  <polygon class="st0" points="121.8,59.5 129.8,12.5 141.9,12.5 151.3,37.6 160.6,12.5 172.7,12.5 180.7,59.5 168.6,59.5 
		164.5,32.5 153.4,59.5 148.6,59.5 138,32.5 134,59.5 	">
  </polygon>
  <path class="st0" d="M312.6,59.5h-15.2l-11.6-18.1v18.1h-12.2v-47h19c2.3-0.1,4.7,0.3,6.9,1.2c3.6,1.3,6.4,4.2,7.7,7.8
		c0.7,1.8,1,3.7,1,5.6c0.1,3.1-0.8,6.2-2.6,8.7c-1.9,2.3-4.6,3.9-7.6,4.5L312.6,59.5z M285.7,33.5h2.3c2,0.1,3.9-0.4,5.5-1.5
		c2.4-2.1,2.6-5.7,0.5-8.1c-0.2-0.2-0.3-0.3-0.5-0.5c-1.6-1.1-3.6-1.6-5.5-1.5h-2.3V33.5z">
  </path>
  <path class="st0" d="M268.7,26.3c-1.3-3-3.1-5.6-5.4-7.9c-2.4-2.3-5.2-4.1-8.2-5.3c-6.8-2.5-14.2-2.5-21,0
		c-12.6,4.9-18.9,19.2-14,31.8c2.5,6.4,7.6,11.5,14,14c6.8,2.5,14.2,2.5,21,0c3.1-1.2,5.9-3,8.2-5.3c2.3-2.2,4.1-4.9,5.4-7.9
		C271.3,39.5,271.3,32.5,268.7,26.3z M239.5,48c-6.6-2.6-9.9-10.1-7.2-16.8c1.3-3.3,3.9-5.9,7.2-7.2c8.5-3.4,18.4,2.6,18.3,12
		S248,51.4,239.5,48z">
  </path>
  <path class="st0" d="M5.5,30.5l6.3-6.2h36c0.2,0,0.5,0.1,0.6,0.4l1,2c0.1,0.2,0.4,0.4,0.7,0.4H63l2,2H21.9c-0.2,0-0.4,0.1-0.5,0.3
		L21,30.1c-0.1,0.3-0.4,0.4-0.7,0.4L5.5,30.5z">
  </path>
  <path class="st0" d="M24.3,22.6c0.3,0,0.5-0.2,0.6-0.4l0.8-1.6c0.1-0.2,0.3-0.3,0.5-0.3h30.2l-2-2h-8.7c-0.3,0-0.5-0.2-0.7-0.4
		l-0.6-1.2c-0.1-0.2-0.3-0.4-0.6-0.3H19.6l-6.2,6.3L24.3,22.6z">
  </path>
  <path class="st0" d="M28.2,14.8c0.3,0,0.5-0.2,0.6-0.4l0.8-1.6c0.1-0.2,0.3-0.3,0.5-0.3h18.4l-2-2h-4.8c-0.3,0-0.5-0.2-0.7-0.4
		l-0.6-1.2c-0.1-0.2-0.3-0.4-0.6-0.4H27.4l-6.2,6.2H28.2z">
  </path>
  <path class="st0" d="M36,0l-7,7h3.1c0.3,0,0.5-0.2,0.7-0.4L33.5,5c0.1-0.2,0.3-0.3,0.5-0.3h6.7L36,0z">
  </path>
  <path class="st0" d="M71,35H54c-0.3,0-0.5-0.2-0.7-0.4L53,34c-0.1-0.2-0.3-0.4-0.6-0.4h-33c-0.1,0-0.2-0.1-0.2-0.2c0,0,0-0.1,0-0.1
		l0.4-0.9c0.1-0.1,0-0.3-0.1-0.4c0,0-0.1,0-0.1,0H3.9L0,36l3.9,3.9h15.6c0.2,0,0.3-0.1,0.3-0.3c0,0,0-0.1,0-0.1l-0.4-0.9
		c0-0.1,0-0.2,0.1-0.2c0,0,0.1,0,0.1,0h32.9c0.2,0,0.5-0.1,0.6-0.4l0.3-0.6c0.1-0.3,0.4-0.4,0.7-0.4h17.1l1-1L71,35z">
  </path>
  <path class="st0" d="M5.5,41.5l6.3,6.3h36c0.2,0,0.5-0.1,0.6-0.4l1-2c0.1-0.3,0.4-0.4,0.7-0.4H63l2-2H21.9c-0.2,0-0.4-0.1-0.5-0.3
		L21,41.8c-0.1-0.3-0.4-0.4-0.7-0.4L5.5,41.5z">
  </path>
  <path class="st0" d="M24.3,49.3c0.3,0,0.5,0.2,0.6,0.4l0.8,1.6c0.1,0.2,0.3,0.3,0.5,0.3h30.2l-2,2h-8.7c-0.3,0-0.5,0.2-0.7,0.4
		l-0.6,1.2c-0.1,0.2-0.3,0.4-0.6,0.4H19.6l-6.2-6.3L24.3,49.3z">
  </path>
  <path class="st0" d="M28.2,57.1c0.3,0,0.5,0.2,0.6,0.4l0.8,1.6c0.1,0.2,0.3,0.3,0.5,0.3h18.4l-2,2h-4.8c-0.3,0-0.5,0.2-0.7,0.4
		L40.5,63c-0.1,0.2-0.3,0.4-0.6,0.4H27.4l-6.2-6.2H28.2z">
  </path>
  <path class="st0" d="M36,72l-7-7h3.1c0.3,0,0.5,0.2,0.7,0.4l0.8,1.6c0.1,0.2,0.3,0.3,0.5,0.3h6.7L36,72z">
  </path>
 </g>
</svg>