<svg version="1.1" id="Layer_1" xmlns:x="ns_extend;" xmlns:i="ns_ai;" xmlns:graph="ns_graphs;" xmlns="http://www.w3.org/2000/svg" xmlns:xlink="http://www.w3.org/1999/xlink" x="0px" y="0px" viewBox="0 0 327.1 202.4" style="enable-background:new 0 0 327.1 202.4;" xml:space="preserve">
 <style type="text/css">
  .st0{fill:#1D1D1B;}
	.st1{fill:#CF132D;}
 </style>
 <metadata>
  <sfw xmlns="ns_sfw;">
   <slices>
   </slices>
   <sliceSourceBounds bottomLeftOrigin="true" height="202.4" width="327.1" x="36.7" y="-301.4">
   </sliceSourceBounds>
  </sfw>
 </metadata>
 <g>
  <polygon class="st0" points="15.3,117.5 36,0 86,0 81.8,23.5 53.7,23.5 49.9,45.1 77,45.1 72.8,68.6 45.8,68.6 41.3,94 71.3,94 
		67.2,117.5 	">
  </polygon>
  <path class="st0" d="M94.7,57.2l-1.2,7.5h0.2c2.2-4.6,7.2-9.2,11.8-9.2c6.9,0,12.4,4.4,11.1,12.6l-8.1,49.4H93.7l7-43.1
		c0.3-2.8-0.3-5.2-3.1-4.9s-4.2,1.8-4.8,4.9l-7,43.1H71.1L81,57.2L94.7,57.2z">
  </path>
  <path class="st0" d="M132.4,78.7l0.6-4c0.6-4.2,2.2-8.1,6.2-8.1c3.7,0,4.2,4,3.9,6.2l-0.9,5.9L132.4,78.7z M154.6,90.1l2.7-17.2
		c2-13-6.5-17.6-16.4-17.5c-11,0-19.8,5-22.2,20.6l-3.8,24.5c-2.1,13.8,6,18.9,16.2,18.8c12.3-0.2,20.4-7.3,22-22.8H139
		c-1.1,5-1.4,10.8-6.6,10.4c-3.1-0.2-3.9-3-3.4-6.4l1.7-10.6H154.6z">
  </path>
  <path class="st0" d="M177.5,56.9l-1.5,9.1h0.2c2.8-6.5,7.3-10.9,13.7-10.9l-3.2,19.4c-1.5-0.3-3-0.4-4.6-0.4c-4.4,0-6.3,1-7.4,5.9
		l-6.1,37.2h-15.4l9.8-60.3L177.5,56.9z">
  </path>
  <path class="st0" d="M201.9,90l-0.9,5.7c-0.7,4.6-0.1,8.7,4.7,8.7c3.5,0,5.7-4,6.3-8.1c1-6.7-3-9.4-6.5-12.4
		c-4.1-3.4-7.6-6.5-9.8-10.6s-3-9-1.9-16.2c2.3-15.1,10.8-22.9,22.5-22.9c13.1,0,18.2,11,15.1,26.2h-13.9c0.6-4.7,1.7-11.2-3.2-11.6
		c-3-0.3-5.2,1.8-6.1,5.4c-1.2,4.8,0.4,7.3,3,9.9c5,4.5,9.4,7.3,12.3,11.4c2.9,4.1,4.1,9.5,2.6,19.3c-2.4,15.5-10.6,24.1-23.1,24.1
		c-13.8,0-18.2-9.7-16.5-20.4l1.3-8.6L201.9,90z">
  </path>
  <path class="st0" d="M248.1,96h0.2l11-39h13.9l-17.1,51.6c-6.1,16.4-8,29.1-23.5,29.1c-2.5,0-4.1-0.5-5.5-0.5l2-12.7
		c0.9,0.1,1.8,0.2,2.7,0.4c2.1,0.3,4.2-1,4.8-3c0.3-3.4,0.3-6.8,0-10.2L235.1,57h14.3L248.1,96z">
  </path>
  <path class="st0" d="M294.4,75.1c0.3-4.1,1.1-8.4-3.4-8.4c-2.7,0-4.9,1.5-5.4,5c-0.5,3.2,1.5,4.9,3.4,6.2c8.3,5,17.6,8,15.4,22.4
		c-2,13.4-11.2,19.2-21.5,19.2c-11,0-17.9-5.8-15.1-20.4h13.3c-0.8,4.2-0.6,9.1,3.6,9.1c3,0,5.3-1.8,5.8-5.7
		c0.3-1.6-0.1-3.3-1.1-4.6c-5-3.7-12.5-6.3-15.9-12.4c-1.9-3.4-2.6-7.4-1.9-11.2c2-13.1,11.2-18.7,21-18.7
		c10.2,0,17.4,6.3,14.8,19.7L294.4,75.1z">
  </path>
  <path class="st1" d="M326.5,70.8c0.3,0,0.6-0.1,0.6,0.2l-6.7,2.8L310,78.3l-7.9,3.5c-9.6,4.2-19.2,8.6-28.6,13.2
		c-11.3,5.4-22.6,10.8-33.8,16.3l-21.6,11l-15.7,8c-14.9,7.8-29.7,15.9-44.5,24c-12.4,6.7-24.5,13.9-36.8,20.9l-15.5,9.1
		c-0.9,0.3-3.5-0.3-4.9-0.3c-3.6,0-7.1,0.6-10.6,1c-5.8,0.6-11.4,1.8-17,2.7c-8.8,1.2-17.4,3.1-26,4.8l-33.6,6.8L0,202.4v-0.2h0.4
		l7.2-3.1l17.6-7.2l55.5-22.5l58.4-23.5l103.2-41.3L326.5,70.8">
  </path>
  <path class="st0" d="M305.1,112.6c0-4,3.3-7.3,7.3-7.3c4,0,7.3,3.3,7.3,7.3c0,4-3.3,7.3-7.3,7.3C308.4,120,305.1,116.7,305.1,112.6
		C305.1,112.7,305.1,112.6,305.1,112.6 M318.4,112.6c0-3.3-2.7-6-6.1-6c-3.3,0-6,2.7-6,6.1c0,3.3,2.7,6,6,6
		C315.7,118.7,318.4,116,318.4,112.6C318.4,112.7,318.4,112.6,318.4,112.6 M310.8,113.1v3.7h-1.3v-8.6h2.8c1.6,0,3.2,0.4,3.2,2.4
		c0,1-0.7,1.9-1.7,2l0,0c1.2,0.2,1.3,0.8,1.4,1.7c0.1,0.8,0.3,1.7,0.5,2.5H314c-0.1-0.5-0.2-1-0.3-1.5c0-0.6-0.1-1.3-0.5-1.8
		c-0.3-0.4-0.8-0.3-1.2-0.4L310.8,113.1z M312.2,111.8c1.3,0,1.5-0.6,1.5-1.2c0-0.7-0.3-1-1.4-1h-1.6v2.2L312.2,111.8z">
  </path>
 </g>
</svg>