<svg version="1.1" id="Layer_1" xmlns:x="ns_extend;" xmlns:i="ns_ai;" xmlns:graph="ns_graphs;" xmlns="http://www.w3.org/2000/svg" xmlns:xlink="http://www.w3.org/1999/xlink" x="0px" y="0px" viewBox="0 0 181 43" style="enable-background:new 0 0 181 43;" xml:space="preserve">
 <style type="text/css">
  .st0{fill:#6A6360;}
	.st1{fill:#AB0D1C;}
 </style>
 <metadata>
  <sfw xmlns="ns_sfw;">
   <slices>
   </slices>
   <sliceSourceBounds bottomLeftOrigin="true" height="43" width="181" x="109.8" y="-221.8">
   </sliceSourceBounds>
  </sfw>
 </metadata>
 <g id="LOGO_-_Desktop_1x" transform="translate(-4.575 -6.19)">
  <path id="Path_985" class="st0" d="M109.6,29.2c0,5.9,3.6,10.1,8.9,10.1c3.7,0,6.2-1.7,7.3-5l0.1-0.3l-1.5-0.4l-0.1,0.2
		c-0.7,2.2-2.7,3.7-5,3.9c-3.1,0-4.6-2.3-4.6-7.3c0,0,0-1,0-1.2h11.5v-0.5c0-5.9-3.2-9.9-8.1-9.9C113.3,18.7,109.6,23.2,109.6,29.2
		 M114.7,27.5v-0.7c0-4.7,1-6.9,3.5-6.9c2.2,0,3.3,2.3,3.3,6.8v0.8L114.7,27.5z">
  </path>
  <path id="Path_986" class="st0" d="M161.8,14.7c0,1.3,1.4,2.5,3.1,2.5s3.1-1.1,3.1-2.5c-0.4-1.7-2-2.8-3.7-2.4
		C163,12.5,162,13.5,161.8,14.7">
  </path>
  <path id="Path_987" class="st0" d="M108.5,36.9c-0.8-0.1-1.2-0.6-1.2-2.8V20.7h2.8v-1.9h-2.8v-5.7H106l-3.6,5.7h-1.3v1.9h1.3v11.9
		c0,4,0.7,6.2,4.5,6.3l0,0h3.2v-2H108.5z">
  </path>
  <path id="Path_988" class="st0" d="M170.5,23.7c0,3.7,2.6,5.3,6.1,7l0.9,0.4c2.9,1.4,4.3,2.3,4.3,3.9c0,1.6-1.3,2.9-2.9,2.9
		c-0.1,0-0.1,0-0.2,0c-2.4,0-5.8-1.9-6.2-4.9h-1.8l0,5.9h1.9v-0.5c0-0.3,0.2-0.4,0.5-0.4c0.5,0.1,0.9,0.3,1.3,0.5
		c1.4,0.7,2.9,0.9,4.5,0.8c3.7,0,6.8-2.7,6.8-5.9c0-4-2.7-5.7-7.2-7.7c-2.7-1.2-4.2-2-4.2-3.3c0.1-1.5,1.4-2.7,2.9-2.6
		c2.7,0,5,1.8,5.7,4.4l1.7-0.1l0-5.5h-1.8v0.5c0,0.3-0.1,0.4-0.4,0.4c-0.5-0.1-0.9-0.3-1.3-0.5c-1.3-0.5-2.7-0.8-4.1-0.7
		C173.4,18.4,170.5,20.6,170.5,23.7">
  </path>
  <path id="Path_989" class="st0" d="M135.7,37.6c-2.4,0-3.4-2.6-3.4-9.1c0-5.2,1-7.9,3.1-7.9c1.8,0,3.7,2.2,3.7,6.4v4.6
		C139.2,35.3,137.9,37.6,135.7,37.6 M130.4,49.2c4.4,0,7.8-1.2,10.1-3.6c2.1-2.2,3.3-5.4,3.3-9.3c0,0,0-14.2,0-14.2
		c0-0.6,0-0.9,0.2-1.1s0.4-0.2,1.3-0.2h0.4v-1.9l-6.3,0v2.9c-1.1-1.8-3-2.9-5.1-2.9c-3.9,0-7,4.5-7,10.2c0,6,3.2,10.2,7.7,10.2
		c1.6,0.1,3.2-0.7,4.2-1.9c0,0,0,0.8,0,1.4c-0.1,2.1-0.8,4.1-2.1,5.8c-1.7,1.9-4.1,3.1-6.7,3.2L130.4,49.2z">
  </path>
  <path id="Path_990" class="st0" d="M169.6,36.9h-0.4c-0.9,0-1.1-0.1-1.3-0.2s-0.2-0.4-0.2-1.1l0-16.8h-6.7v1.9h0.4
		c0.9,0,1.1,0.1,1.3,0.2s0.2,0.4,0.2,1.1v16.8l6.7,0L169.6,36.9z">
  </path>
  <path id="Path_991" class="st0" d="M72.9,10.9c5.8,0,5.8,1.2,7,3.7h1.3l0-5.3H63.4v1.9h0.5c0.9,0,1.1,0.1,1.3,0.2s0.2,0.4,0.2,1.1
		v23c0,0.6,0,0.9-0.2,1.1s-0.4,0.2-1.3,0.2h-0.5v1.9h18.1v-6h-1.3c-1,3-1.1,4.4-6.7,4.4c-2.7,0-3.1-0.2-3.1-3V23.6h1.1
		c4.5,0,4.2,0.9,4.5,3.3l1.2,0v-7.9l-1.2,0c-0.4,2.7,0,3.2-4.5,3.2h-1.1v-8.8C70.3,11.3,69.9,10.9,72.9,10.9">
  </path>
  <path id="Path_992" class="st0" d="M101.1,36.9c-0.9,0-1.1-0.1-1.3-0.2s-0.2-0.4-0.2-1.1V26c0-4.8-1.4-7.3-5.8-7.3
		c-2.5,0-4.7,1.2-6,3.3v-3.2l-6.2,0v1.9H82c0.9,0,1.1,0.1,1.3,0.2s0.2,0.4,0.2,1.1v16.8H90v-1.9h-0.4c-0.9,0-1.1-0.1-1.3-0.2
		s-0.2-0.4-0.2-1.1v-8.6c0-3.7,2.6-6.3,4.6-6.3c1.6,0,2.1,2.1,2.1,4.1v14.2h6.5v-1.9H101.1z">
  </path>
  <path id="Path_993" class="st0" d="M157.5,18.5c-1.7,0-3.5,1.5-4.5,4.3c0,0,0,0,0,0v-4.1h-6.4v1.9h0.4c0.9,0,1.1,0.1,1.3,0.2
		s0.2,0.4,0.2,1.1l0,16.8h6.7v-1.9h-0.4c-0.9,0-1.1-0.1-1.3-0.2s-0.2-0.4-0.2-1.1v-7.5c0-4,1-6.1,1.8-6.1c0.4,0,0.3,0.4,0.6,1.2
		c0.3,0.9,1.2,1.6,2.2,1.5c1.6,0,2.6-1.1,2.6-3.1C160.6,20,159.2,18.6,157.5,18.5C157.6,18.5,157.5,18.5,157.5,18.5">
  </path>
  <path id="Path_994" class="st1" d="M35.3,14c0-2.2-0.8-4.3-2.3-5.8c-1.6-1.4-3.8-2.2-5.9-2c-4.8,0.1-10.7,3.3-15.3,8.2
		s-7.4,11-7.2,15.9c0,2.2,0.8,4.3,2.3,5.9c4,3.8,12,2,18.8-3.9c-0.4-0.3-0.9-0.6-1.3-1c-3.1,2.5-6.4,4-9.2,4.1
		c-1.4,0.1-2.8-0.3-3.8-1.3c-1-1-1.5-2.4-1.5-3.7C9.9,26.8,12.1,22,15.9,18s8.3-6.6,11.9-6.7c1.4-0.1,2.8,0.3,3.8,1.3
		c0.5,0.5,0.8,1,1.1,1.7c0.2,0.4,0.3,0.9,0.3,1.3c0,0.3,0.1,0.5,0.1,0.8c0.1,3.4-1.8,7.7-5,11.4c0.4,0.3,0.8,0.6,1.3,0.8
		c3.6-4.4,5.7-9.2,6-13.3C35.3,14.9,35.4,14.5,35.3,14">
  </path>
  <path id="Path_995" class="st1" d="M56.2,22.2c-2.9-3.9-8.8-6.9-15.5-7.8c-1.8-0.3-3.6-0.4-5.3-0.3c0,0.4,0,0.9,0,1.3
		c1.7-0.1,3.3,0,5,0.3c8.1,1.2,14.3,5.7,13.6,10.1s-7.7,7-15.9,5.9c-3.1-0.4-6.1-1.4-8.8-2.9c-0.4-0.3-0.9-0.5-1.3-0.8
		c-0.9-0.6-1.7-1.4-2.4-2.3c-0.9-1.1-1.4-2.6-1.2-4c0.3-1.4,1.1-2.7,2.3-3.5c1.9-1.3,4-2.1,6.3-2.4c-0.1-0.5-0.2-0.9-0.3-1.3
		c-6.7,0.8-11.8,4.1-12.4,8.6c-0.4,3,1.2,6,4.1,8.5c0.4,0.3,0.8,0.7,1.3,1c3.6,2.4,7.6,3.9,11.9,4.4c10.4,1.5,19.5-2.3,20.4-8.5
		C58.2,26.1,57.5,23.9,56.2,22.2">
  </path>
 </g>
</svg>