<svg version="1.1" id="Layer_1" xmlns:x="ns_extend;" xmlns:i="ns_ai;" xmlns:graph="ns_graphs;" xmlns="http://www.w3.org/2000/svg" xmlns:xlink="http://www.w3.org/1999/xlink" x="0px" y="0px" viewBox="0 0 292 71.4" style="enable-background:new 0 0 292 71.4;" xml:space="preserve">
 <style type="text/css">
  .st0{fill:#B5812E;}
	.st1{fill:#21415E;}
	.st2{clip-path:url(#SVGID_2_);}
	.st3{clip-path:url(#SVGID_4_);}
	.st4{fill:url(#SVGID_5_);}
	.st5{clip-path:url(#SVGID_7_);}
	.st6{fill:url(#SVGID_8_);}
	.st7{clip-path:url(#SVGID_10_);}
	.st8{fill:url(#SVGID_11_);}
	.st9{clip-path:url(#SVGID_13_);}
	.st10{fill:url(#SVGID_14_);}
	.st11{clip-path:url(#SVGID_16_);}
	.st12{fill:url(#SVGID_17_);}
	.st13{clip-path:url(#SVGID_19_);}
	.st14{fill:url(#SVGID_20_);}
 </style>
 <metadata>
  <sfw xmlns="ns_sfw;">
   <slices>
   </slices>
   <sliceSourceBounds bottomLeftOrigin="true" height="93.8" width="309.6" x="0" y="0">
   </sliceSourceBounds>
  </sfw>
 </metadata>
 <g>
  <path class="st0" d="M202.5,70h17v-4.5h-12V41.9h-5V70z M225.5,70H236c6.8,0,14.9-4.4,14.9-14.1s-6.9-14.1-14.3-14.1h-11L225.5,70z
		 M230.5,65.5V46.4h4.6c6.1,0,10.6,2.7,10.6,9.5s-5.1,9.5-11.4,9.5L230.5,65.5z">
  </path>
  <path class="st0" d="M165.7,56.3c0,8.8,6.2,14.7,14.9,14.7c8.8-0.2,15-6,15-14.8c0-9-6.2-14.9-15-14.7
		C171.9,41.4,165.7,47.2,165.7,56.3 M170.9,55.9c0-5.6,3.9-10,9.7-10s9.7,4.4,9.7,10c0,6-3.9,10.4-9.7,10.4S170.9,61.9,170.9,55.9">
  </path>
  <path class="st0" d="M158.7,53.5h-10.8v4.5h5.8v6.6c-2,1-4.3,1.5-6.6,1.5c-5.8,0-9.6-4.4-9.6-10.4c0-5.6,3.9-10,9.6-10
		c2.7-0.1,5.3,0.9,7.4,2.7l3.7-3.7c-2.9-2.6-6.8-3.5-11.1-3.5c-8.6,0-14.9,5.9-14.9,14.9c0,8.8,6.2,14.6,14.9,14.6
		c4.1,0.1,8.1-0.9,11.6-2.8V53.5z">
  </path>
  <polygon class="st1" points="285,5.5 278.4,15.9 271.8,5.5 265.5,5.5 274.8,18.9 264.8,33.6 270.9,33.6 278.3,21.8 285.7,33.6 
		292,33.6 281.8,18.9 291,5.5 	">
  </polygon>
  <path class="st1" d="M92.4,33.6h19.3v-4.5H97.4v-7.6h12.9V17H97.4v-6.9H111V5.5H92.4V33.6z M149.2,29.6h-8.1v-0.1
		c3.8-2.1,6.1-6.2,5.9-10.6c0-8.3-6.8-14.2-14.8-14.2c-8,0-14.7,5.9-14.7,14.2c0,9.1,6.6,14.7,15.3,14.7h16.4L149.2,29.6z
		 M132.2,9.4c5.2-0.2,9.5,3.9,9.7,9.1c0,0.2,0,0.5,0,0.7c0,5.8-4,10-9.6,10c-5.6,0-9.5-4.2-9.5-10C122.8,13.6,126.8,9.4,132.2,9.4
		 M177.9,5.6h-5v17.6c0,2.8-1.5,6.4-6.3,6.4c-4.8,0-6.3-3.7-6.3-6.4V5.5h-5v17.8c0,6.8,4.9,11,11.3,11s11.3-4.2,11.3-11V5.6z
		 M186.4,33.7h5V5.5h-5V33.7z M200,33.7h5V12.1h0.1l13.9,21.6h6.4V5.5h-5v20.9h-0.1L206.5,5.5h-6.6L200,33.7z">
  </path>
  <path class="st1" d="M232.5,19.4c0,9,6.3,15,15.2,15c9-0.2,15.3-6.2,15.3-15.1c0-9.2-6.3-15.2-15.3-15.1
		C238.9,4.2,232.5,10.2,232.5,19.4 M237.9,19.1c0-5.7,3.9-10.3,9.9-10.3s9.9,4.6,9.9,10.3c0,6.1-3.9,10.7-9.9,10.7
		S237.9,25.3,237.9,19.1">
  </path>
  <g>
   <defs>
    <path id="SVGID_1_" d="M247.7,4.2c-8.9,0-15.2,6-15.2,15.2c-0.1,4.3,1.6,8.4,4.8,11.3l3.6-3.8c-2-2.1-3.1-5-3-7.9
				c0-5.7,3.9-10.3,9.9-10.3c2.8-0.1,5.5,1.1,7.4,3.2l3.6-3.8c-2.9-2.7-6.7-4.2-10.7-4.1L247.7,4.2">
    </path>
   </defs>
   <clipPath id="SVGID_2_">
    <use href="#SVGID_1_" style="overflow:visible;">
    </use>
   </clipPath>
   <g class="st2">
    <path class="st0" d="M232.5,19.4c0,9,6.3,15,15.2,15c9-0.2,15.3-6.2,15.3-15.1c0-9.2-6.3-15.2-15.3-15.1
				C238.9,4.2,232.5,10.2,232.5,19.4 M237.9,19.1c0-5.7,3.9-10.3,9.9-10.3s9.9,4.6,9.9,10.3c0,6.1-3.9,10.7-9.9,10.7
				S237.9,25.2,237.9,19.1">
    </path>
   </g>
  </g>
  <g>
   <defs>
    <path id="SVGID_3_" d="M4.8,31.2C4,33.3,4.2,39,4.2,39c0.3,4.1,2,7.8,4.2,10.8C6.6,39.9,13,30.5,22.8,28.6
				c7.4-1.4,14.9,1.9,18.8,8.3c2.1-1.7,3.3-4.1,3.4-6.8c-8.8-10.9-24.7-12.5-35.6-3.7C7.7,27.8,6.2,29.4,4.8,31.2">
    </path>
   </defs>
   <clipPath id="SVGID_4_">
    <use xlink:href="#SVGID_3_" style="overflow:visible;">
    </use>
   </clipPath>
   <g class="st3">
    <linearGradient id="SVGID_5_" gradientUnits="userSpaceOnUse" x1="-223.2099" y1="-220.1363" x2="-221.7099" y2="-220.1363" gradientTransform="matrix(25.838 -17.5595 17.5595 25.838 9639.7578 1815.7135)">
     <stop offset="0" style="stop-color:#5F4017">
     </stop>
     <stop offset="0.11" style="stop-color:#825522">
     </stop>
     <stop offset="0.47" style="stop-color:#CB9731">
     </stop>
     <stop offset="1" style="stop-color:#DFBF83">
     </stop>
    </linearGradient>
    <polygon class="st4" points="-9,29.9 32.2,1.9 58.4,40.6 17.2,68.6 			">
    </polygon>
   </g>
  </g>
  <g>
   <defs>
    <path id="SVGID_6_" d="M0,46c0,14,11.3,25.3,25.3,25.3c3.4,0,6.7-0.7,9.8-2c-2.8-1.2-5.3-2.8-7.5-4.9c-0.5,0-0.9,0.1-1.4,0.1
				c-8.7,0-16.2-6.2-17.8-14.8c-3.8-5.4-5.1-12.1-3.6-18.5C1.7,35.5,0,40.7,0,46">
    </path>
   </defs>
   <clipPath id="SVGID_7_">
    <use xlink:href="#SVGID_6_" style="overflow:visible;">
    </use>
   </clipPath>
   <g class="st5">
    <linearGradient id="SVGID_8_" gradientUnits="userSpaceOnUse" x1="-263.8415" y1="-221.9487" x2="-262.3415" y2="-221.9487" gradientTransform="matrix(-9.7208 4.6366 -4.6366 -9.7208 -3577.7458 -879.7012)">
     <stop offset="0" style="stop-color:#5F4017">
     </stop>
     <stop offset="0.11" style="stop-color:#825522">
     </stop>
     <stop offset="0.47" style="stop-color:#CB9731">
     </stop>
     <stop offset="1" style="stop-color:#DFBF83">
     </stop>
    </linearGradient>
    <polygon class="st6" points="-17.5,39.6 28.6,17.6 52.6,68 6.5,90 			">
    </polygon>
   </g>
  </g>
  <g>
   <defs>
    <path id="SVGID_9_" d="M25.5,37c-1.1,2.7-1.6,5.6-1.7,8.6v0.9c0.2,12.8,10,23.4,22.7,24.7c6.3-1.9,11.5-6.4,14.2-12.3
				c-7.6,6.5-19,5.6-25.5-2c-4.9-5.7-5.7-13.8-2.2-20.3C32,36.2,30.9,36,29.7,36C28.3,36,26.8,36.3,25.5,37">
    </path>
   </defs>
   <clipPath id="SVGID_10_">
    <use xlink:href="#SVGID_9_" style="overflow:visible;">
    </use>
   </clipPath>
   <g class="st7">
    <linearGradient id="SVGID_11_" gradientUnits="userSpaceOnUse" x1="-240.3657" y1="-213.0054" x2="-238.8657" y2="-213.0054" gradientTransform="matrix(-28.126 -13.5966 13.5966 -28.126 -3805.1245 -9197.3525)">
     <stop offset="0" style="stop-color:#5F4017">
     </stop>
     <stop offset="0.11" style="stop-color:#825522">
     </stop>
     <stop offset="0.47" style="stop-color:#CB9731">
     </stop>
     <stop offset="1" style="stop-color:#DFBF83">
     </stop>
    </linearGradient>
    <polygon class="st8" points="10,64.6 30.8,21.5 74.6,42.6 53.7,85.7 			">
    </polygon>
   </g>
  </g>
  <g>
   <defs>
    <path id="SVGID_12_" d="M63.9,34.9c0.3,0.4,0.5,0.8,0.8,1.2c4.4,7.6,2.7,17.1-3.9,22.8c-2.8,6-7.9,10.5-14.2,12.4
				c0.9,0.1,1.7,0.1,2.6,0.1l0,0c14,0,25.3-11.3,25.3-25.3c0-7.9-3.7-15.4-10-20.1C64.8,28.9,64.6,32,63.9,34.9">
    </path>
   </defs>
   <clipPath id="SVGID_13_">
    <use xlink:href="#SVGID_12_" style="overflow:visible;">
    </use>
   </clipPath>
   <g class="st9">
    <linearGradient id="SVGID_14_" gradientUnits="userSpaceOnUse" x1="-217.7893" y1="-250.0243" x2="-216.2893" y2="-250.0243" gradientTransform="matrix(8.8758 6.1002 -6.1002 8.8758 470.0284 3596.0552)">
     <stop offset="0" style="stop-color:#5F4017">
     </stop>
     <stop offset="0.11" style="stop-color:#825522">
     </stop>
     <stop offset="0.47" style="stop-color:#CB9731">
     </stop>
     <stop offset="1" style="stop-color:#DFBF83">
     </stop>
    </linearGradient>
    <polygon class="st10" points="25.3,56.8 56.9,10.9 100,40.5 68.4,86.4 			">
    </polygon>
   </g>
  </g>
  <g>
   <defs>
    <path id="SVGID_15_" d="M42.3,8.9c1,0.4,2,0.8,3,1.4c8.7,5,11.6,16.1,6.6,24.7c-3.1,5.4-8.9,8.9-15.1,9c0.4,2.6,1.9,4.9,4.2,6.3
				c13.8-2.2,23.2-15.2,21-29c-0.3-2.2-1-4.3-1.9-6.4c-4.2-4-9.8-6.2-15.6-6.3C43.8,8.7,43,8.8,42.3,8.9">
    </path>
   </defs>
   <clipPath id="SVGID_16_">
    <use xlink:href="#SVGID_15_" style="overflow:visible;">
    </use>
   </clipPath>
   <g class="st11">
    <linearGradient id="SVGID_17_" gradientUnits="userSpaceOnUse" x1="-237.9844" y1="-231.3252" x2="-236.4844" y2="-231.3252" gradientTransform="matrix(2.288 31.1561 -31.1561 2.288 -6612.3643 7952.1929)">
     <stop offset="0" style="stop-color:#5F4017">
     </stop>
     <stop offset="0.11" style="stop-color:#825522">
     </stop>
     <stop offset="0.47" style="stop-color:#CB9731">
     </stop>
     <stop offset="1" style="stop-color:#DFBF83">
     </stop>
    </linearGradient>
    <polygon class="st12" points="33.7,9 66.8,6.5 70,50.1 36.9,52.5 			">
    </polygon>
   </g>
  </g>
  <g>
   <defs>
    <path id="SVGID_18_" d="M36.9,0c-12.7,0.1-23.4,9.5-25,22.1c2.4-1.8,5.1-3.2,8-4c0.2-0.4,0.4-0.8,0.6-1.2
				c4.4-7.6,13.5-10.9,21.7-8c6.5-0.6,13,1.6,17.8,6.1c-4-9-13-14.9-22.9-15H36.9z">
    </path>
   </defs>
   <clipPath id="SVGID_19_">
    <use xlink:href="#SVGID_18_" style="overflow:visible;">
    </use>
   </clipPath>
   <g class="st13">
    <linearGradient id="SVGID_20_" gradientUnits="userSpaceOnUse" x1="-216.5392" y1="-195.8549" x2="-215.0392" y2="-195.8549" gradientTransform="matrix(0.845 -10.7368 10.7368 0.845 2321.6675 -2146.2817)">
     <stop offset="0" style="stop-color:#5F4017">
     </stop>
     <stop offset="0.11" style="stop-color:#825522">
     </stop>
     <stop offset="0.47" style="stop-color:#CB9731">
     </stop>
     <stop offset="1" style="stop-color:#DFBF83">
     </stop>
    </linearGradient>
    <polygon class="st14" points="10.2,22 12.2,-3.7 61.8,0.2 59.8,25.9 			">
    </polygon>
   </g>
  </g>
 </g>
</svg>