<svg version="1.1" id="Layer_1" xmlns:x="ns_extend;" xmlns:i="ns_ai;" xmlns:graph="ns_graphs;" xmlns="http://www.w3.org/2000/svg" xmlns:xlink="http://www.w3.org/1999/xlink" x="0px" y="0px" viewBox="0 0 97.9 128.3" style="enable-background:new 0 0 97.9 128.3;" xml:space="preserve">
 <style type="text/css">
  .st0{fill:#868484;}
	.st1{fill:#FFFFFF;}
	.st2{fill:#231F20;}
 </style>
 <metadata>
  <sfw xmlns="ns_sfw;">
   <slices>
   </slices>
   <sliceSourceBounds bottomLeftOrigin="true" height="128.3" width="97.9" x="151.3" y="-264.3">
   </sliceSourceBounds>
  </sfw>
 </metadata>
 <g id="g10" transform="matrix(1.3333333,0,0,-1.3333333,0,171.84)">
  <g id="g12" transform="scale(0.1)">
   <path id="path14" class="st0" d="M727.9,1184.9v103.9H581.4v-2.5h-59.6v2.5H305.9v-2.5h-7.5v2.5H188.9v-2.5h-7.5v2.5H7.9v-103.9
			h2.5v-7.5H7.9V688.3h2.5v-7.5H7.9v-112h173.5v2.5h7.5v-2.5h262.7v2.5h78.8v-2.5h197.5v107.7h-2.5v11.8h2.5v141.5h-2.5v7.5h2.5
			v226.2c-0.8,1-1.7,2.1-2.5,3.1v75.7h2.5v35h-2.5v7.5h2.5">
   </path>
   <path id="path16" class="st1" d="M722.9,1112.6c0-9.8-0.8-19.3-2.4-28.7c-40.2,44.3-93.1,77-152.9,92.2l0.1,1.3h142.5
			C718.4,1157.4,722.9,1135.5,722.9,1112.6z M551.7,941.3c-1.6,0-3.2,0-4.7,0.1l19.9,227.1c59.8-15.5,112.4-48.8,151.8-93.9
			C701.4,998.4,633.1,941.3,551.7,941.3z M539.5,941.8c-36.1,2.6-69.1,16.4-95.6,37.9v54.6h-27.7v-6c0-5.3-0.2-10.3-0.7-15l-0.5-3.7
			c-21.6,28.7-34.5,64.3-34.5,102.9c0,16.1,2.2,31.6,6.4,46.3h17.9c49.6,0,78.7-26.3,86.6-78.3c1.5-9.6,1.1-19.4,1.1-19.4h29.1
			l-8.6,116.1c16-1.1,31.6-3.5,46.8-7L539.5,941.8z M530.3,837.4h-20.7c0,0-0.1-4.8-2-19.1c-9.3-69.2-46.7-111.5-101.9-111.5h-99.8
			v219H347c58.8,0,69.1-22.9,69.1-71.1v-5.9h27.7v121.4c26.8-20.3,59.5-33.3,95-35.9L530.3,837.4z M514.7,574.7l9.3,106.1h197.7
			C671.1,621,597.6,581.1,514.7,574.7z M491.1,573.8c-92.5,0-175.3,41.6-230.7,107h256.1l-9.4-106.6
			C501.8,574,496.5,573.8,491.1,573.8z M188.9,808c7.9-35.2,21.8-68.2,40.6-97.8v-3.4h-40.6V808z M229.5,1027.3V724.6
			c-25.8,44.5-40.6,96.2-40.6,151.3C188.9,931.1,203.7,982.8,229.5,1027.3z M188.9,1158.9h40.6v-117.2
			c-18.8-29.6-32.7-62.5-40.6-97.8V1158.9z M305.9,1124.2v34.7h59.2C344,1149.5,324.2,1137.8,305.9,1124.2z M413.3,999.6
			c-7.2-31.6-28.2-46.1-65.6-46.1H306v161.2c21.9,17.1,46.3,31.1,72.5,41.7c-3.6-14-5.4-28.7-5.4-43.8
			C373,1069.8,388.1,1030.4,413.3,999.6z M551.7,1283.8c6,0,11.9-0.3,17.7-0.9l-8.6-98h-48.6H396.5
			C423.8,1243.3,483.1,1283.8,551.7,1283.8z M706.9,1184.9H568.4l8.5,97.1C634.6,1273.4,683,1236,706.9,1184.9z M727.9,688.3H524.7
			l12.4,141.5h190.8v7.5H537.8l0,0l8.5,96.6c1.8-0.1,3.6-0.1,5.4-0.1c83,0,153,56.9,173,133.8c1.1-1.3,2.2-2.7,3.2-4v78.8
			c-2,12.1-5.3,23.8-9.7,35h9.7v7.5h-12.8c-24,53.9-73.8,93.9-133.8,103.9h-59.6c-59.8-10.1-109.6-50-133.6-103.9h-82.3v103.9h-7.5
			v-103.9H188.9v103.9h-7.5v-103.9H7.9v-7.5h173.5V688.3H7.9v-7.5h173.5v-112h7.5v112h61.7c48.9-60.2,120.1-101.7,200.9-112h78.8
			c79,10,148.7,49.8,197.5,107.7L727.9,688.3">
   </path>
   <path id="path18" class="st2" d="M551.1,417.9c0-5.9-4.2-10.6-9.4-10.6s-9.4,4.7-9.4,10.5c0,6.4,3.5,8.8,6,9.7
			c0,0-0.9,0.8-2.4,0.8c-10.4,0-24.5-22.9-24.5-47.6v-44.2h14.2v-5.3h-46.3v5.3h14.2v88.8h-14.2v5.3h12.3c9,0,15.5,1.3,19.8,3.4
			v-25.3h0.3c5.9,14.6,13.9,24.9,25.9,24.9C544.6,433.7,551.1,427.6,551.1,417.9z M436.4,356.2c-4-13-11-22.1-20.4-22.1
			s-14.9,7.5-14.9,21.6c0,17.8,8.2,26,28.9,26c1.9,0,6.4,0,6.4,0V356.2z M459.4,336.6c-4.2,0-5.2,5.3-5.2,13.5c0,0,0,29,0,51.6
			s-14.2,32.1-33.8,32.1c-20.4,0-31.7-11.5-31.7-26.5c0-5.9,4.2-11,9.4-11c5.2,0,9.4,4.7,9.4,10.5c0,9.2-5.7,7-5.7,13.2
			c0,4.8,7.6,8.5,18.1,8.5c11.9,0,16.4-5.8,16.4-18.1v-23.2h-3c-34.6,0-50.9-11.5-50.9-33.2c0-16.2,13.5-26.1,27.2-26.1
			c14.4,0,22.6,6.7,27.5,16.5c1-8.7,7-15.7,16-15.7c7.9,0,13.4,4.3,19.3,13l-4.2,3C465.2,340.3,462.3,336.6,459.4,336.6z
			 M734.4,363.1c0-21.6-11.6-35.6-28.7-35.6c-15.9,0-21.9,9.1-24.7,9.1c-2.7,0-3.9-1.7-3.9-6.7h-5.3V365h4
			c2.2-20.1,16.2-32.3,28.3-32.3c13.6,0,21.6,7,21.6,22.2c0,12.1-8.8,18.3-23.3,19.1c-18.6,1.1-29.3,11-29.3,28.6
			c0,17.5,11.3,30.6,26.3,30.6c13,0,18.5-6.5,20.8-6.5c1.9,0,2.5,1.5,2.5,4.2c0,0.7,0,1.5-0.3,2.6h5.4V404h-4.3
			c-3.1,16.7-11,23.9-24.1,23.9c-10.8,0-18.4-8.4-18.4-17.1c0-3.8,1-7.7,3.5-10.7c5.5-6.3,14.9-5.6,25.8-7.3
			C725.9,390.4,734.4,379.7,734.4,363.1L734.4,363.1z M627.6,363.5c-4-16.1-12-30.1-26.9-30.1c-14.6,0-20.7,10.9-20.7,33.9v27.9
			c0,21.7,6.9,32.9,20.5,32.9c12.9,0,22.9-14.2,27.1-32L627.6,363.5z M645.5,500.2c-4.3-2.1-10.8-3.4-19.8-3.4h-15.2v-5.3h17.2
			v-78.6h-0.3c-6.5,13.9-16.8,20.8-28,20.8c-20,0-39.7-20.2-39.7-52.3c0-32.2,18.2-53.2,41.6-53.2c10.8,0,19.5,6.1,26.1,18.9h0.3
			v-15.8h32.6v5.3h-14.7L645.5,500.2L645.5,500.2z M110.1,379.9h5.3l-4.3-48.7H0v5.3h15.9v155H0v5.3h107.2l2.8-37.6h-5.5
			c0,0,0.1,1.2-0.5,4.8c-3.1,20.3-15.5,27.5-31.1,27.5H37.6V419h15.6c20.5,0,25.1,12.9,25.1,27.2h5.3v-58.4h-5.3
			c0,16.7-3.7,25.9-25.3,25.9H37.6v-77.1c0,0,22.6,0,35.6,0c20.2,0,33,14.3,36.3,38.7C110.1,379.9,110.1,379.9,110.1,379.9z
			 M347.1,430.6h31.8v-5.3c-10.2,0-12.4-3.3-17-16.2c-3.3-9.3-29.1-82.5-29.1-82.5h-2.2l-24.2,66l-23.6-66h-2.1l-36.2,98.7h-11.4
			v5.3h42.3v-5.3H265l24-65.6l14.5,40.6l-9.1,25h-12.1v5.3h46.3v-5.3h-13.8l24-65.6l16.8,48.2c2.1,5.8,2.7,8.1,2.7,11.3
			c0,4-1.9,6-7.7,6H347v5.4H347.1z M199.4,363.5c-4.1-16.1-12-30.1-26.9-30.1c-14.6,0-20.7,10.9-20.7,33.9v27.9
			c0,21.7,6.9,32.9,20.5,32.9c12.9,0,22.9-14.2,27.1-32L199.4,363.5z M217.2,500.2c-4.3-2.1-10.8-3.4-19.8-3.4h-15.2v-5.3h17.2
			v-78.6H199c-6.5,13.9-16.8,20.8-28,20.8c-20,0-39.7-20.2-39.7-52.3c0-32.2,18.2-53.2,41.6-53.2c10.8,0,19.5,6.1,26.1,18.9h0.3
			v-15.8h32.6v5.3h-14.7V500.2">
   </path>
  </g>
 </g>
</svg>