<svg version="1.1" id="Layer_1" xmlns:x="ns_extend;" xmlns:i="ns_ai;" xmlns:graph="ns_graphs;" xmlns="http://www.w3.org/2000/svg" xmlns:xlink="http://www.w3.org/1999/xlink" x="0px" y="0px" viewBox="0 0 357.2 92" style="enable-background:new 0 0 357.2 92;" xml:space="preserve">
 <style type="text/css">
  .st0{fill:#FC4C02;}
	.st1{fill:#63666A;}
 </style>
 <metadata>
  <sfw xmlns="ns_sfw;">
   <slices>
   </slices>
   <sliceSourceBounds bottomLeftOrigin="true" height="92" width="357.2" x="21.7" y="-246.2">
   </sliceSourceBounds>
  </sfw>
 </metadata>
 <g>
  <path class="st0" d="M242.9,22c5.1,0,9.2-4.1,9.2-9.3c0-5.1-4.1-9.3-9.2-9.3c-5.1,0-9.2,4.2-9.2,9.3C233.7,17.8,237.8,22,242.9,22">
  </path>
  <path class="st0" d="M279.5,0c-1,0-2.1,0.5-2.8,1.4l-34.7,42.7l-13.4-21.5c-1.2-1.6-3-2.6-5.1-2.7h-9.9L229.7,46l-25.4,46h0.1
		c1.1,0,2-0.5,2.8-1.4L241.8,48l13.4,21.6c1.1,1.5,2.8,2.5,4.8,2.6h10.2L253.9,46">
  </path>
  <path class="st1" d="M88.2,72.2h9.9L77.7,46L98,19.9H84.8L71.1,37.5L59.2,22.3c-1.2-1.5-3.1-2.4-5.1-2.4h-9.9L64.5,46L44.1,72.2
		h13.2l13.8-17.7l12,15.4C84.3,71.3,86.1,72.2,88.2,72.2">
  </path>
  <path class="st1" d="M200.4,72.2c3.1,0,5.5-2.5,5.5-5.6h0V19.9h-5.8h0.3c-3.1,0-5.8,2.5-5.8,5.6l0,46.7">
  </path>
  <path class="st1" d="M284.1,72.2c3.1,0,5.5-2.5,5.5-5.6h0V19.9h-5.8h0.3c-3.1,0-5.8,2.5-5.8,5.6l0,46.7">
  </path>
  <path class="st1" d="M137.7,72.2c3,0,5.5-2.4,5.5-5.4v-4.3h-27V51.1H135c2.8-0.2,5-2.6,5.1-5.4v-4.4h-23.9V29.7h21.7
		c2.9-0.1,5.2-2.5,5.3-5.4v-4.4h-32.6c-3.1,0-5.5,2.5-5.5,5.6h0v46.7">
  </path>
  <path class="st1" d="M32.6,72.2c3,0,5.5-2.4,5.5-5.4v-4.3h-27V51.1H30c2.8-0.2,5-2.6,5.1-5.4v-4.4H11.1V29.7h21.7
		c2.9-0.1,5.2-2.5,5.3-5.4v-4.4H5.5c-3.1,0-5.5,2.5-5.5,5.6h0v46.7">
  </path>
  <path class="st1" d="M181.6,72.2c3.1,0,5.5-2.5,5.5-5.6h0v-4.2h-21.7V19.9h-5.5c-3.1,0-5.5,2.5-5.5,5.6h0v46.7">
  </path>
  <path class="st1" d="M322.6,39.9c-5.6-1.3-10.4-2.4-10.4-5.8c0-3.1,2.7-5.3,7.4-5.3c3.6,0,7.4,0.9,10.8,2.7
		c0.9,0.5,1.9,0.7,2.9,0.7c2.1,0,3.9-1,5.1-2.5v0l2.5-3.3c-5.2-4.8-12-7.3-20.3-7.3c-12.3,0-19.8,7.2-19.8,15.9
		c0,11.9,10.9,14.3,19.4,16.2c5.7,1.4,10.5,2.5,10.5,6.3c0,3-3,5.8-9.1,5.8c-4.7,0-8.7-1.4-12-3.4c-0.9-0.5-2-0.9-3.2-0.9
		c-2.1,0-4,1-5.2,2.7l-2.1,3c4.8,4.9,12,8.3,22,8.3c14.1,0,20.8-7.2,20.8-16.8C342.1,44.5,331.2,41.9,322.6,39.9">
  </path>
  <path class="st1" d="M357.2,25.2c0,3.4-2.6,6.1-5.9,6.1c-3.3,0-6-2.7-6-6.1c0-3.4,2.6-6.1,6-6.1C354.6,19.1,357.2,21.8,357.2,25.2
		 M356.2,25.2c0-2.8-2.2-5.1-4.9-5.1c-2.7,0-4.9,2.2-4.9,5.1c0,2.8,2.2,5.1,4.9,5.1C354,30.3,356.2,28,356.2,25.2 M352.4,25.8l1.8,3
		c-0.2,0.1-0.4,0.1-0.6,0.1c-0.2,0-0.5,0-0.6,0l-1.7-2.9h-0.1c-0.4,0-0.8,0-1.3-0.1v2.9c-0.2,0.1-0.3,0.1-0.5,0.1
		c-0.2,0-0.4,0-0.6-0.1v-7c0.7-0.2,1.6-0.3,2.3-0.3c1.9,0,2.7,0.8,2.7,2.1C353.9,24.7,353.3,25.5,352.4,25.8 M350,24.9
		c0.4,0.1,0.9,0.1,1.3,0.1c1.2,0,1.6-0.5,1.6-1.2c0-0.7-0.4-1.2-1.6-1.2c-0.4,0-0.8,0-1.3,0.1V24.9z">
  </path>
 </g>
</svg>