<svg version="1.1" id="Layer_1" xmlns:x="ns_extend;" xmlns:i="ns_ai;" xmlns:graph="ns_graphs;" xmlns="http://www.w3.org/2000/svg" xmlns:xlink="http://www.w3.org/1999/xlink" x="0px" y="0px" viewBox="0 0 309.4 110" style="enable-background:new 0 0 309.4 110;" xml:space="preserve">
 <style type="text/css">
  .st0{fill:#1F323F;}
 </style>
 <metadata>
  <sfw xmlns="ns_sfw;">
   <slices>
   </slices>
   <sliceSourceBounds bottomLeftOrigin="true" height="110" width="309.4" x="-209.4" y="0.4">
   </sliceSourceBounds>
  </sfw>
 </metadata>
 <g>
  <path class="st0" d="M76.4,25.2V2.4H0v106.5h22.9v-38h45.9V48.1H22.9V25.2H76.4z">
  </path>
  <path class="st0" d="M106.5,2.4H83.6v106.5h22.9V2.4z">
  </path>
  <path class="st0" d="M192.5,78.6c-4.6,4.4-10.5,7.3-16.8,8.4s-12.8,0.4-18.7-2.1c-5.9-2.5-10.9-6.7-14.4-12
		c-3.5-5.3-5.4-11.5-5.5-17.9c0-6.4,1.8-12.6,5.3-17.9c3.5-5.3,8.5-9.5,14.3-12.1c5.9-2.6,12.3-3.3,18.6-2.3
		c6.3,1.1,12.2,3.9,16.8,8.3c2.7-7.1,6.6-13.7,11.6-19.4c-8.2-6.4-18-10.3-28.3-11.3c-10.3-1.1-20.7,0.8-30,5.3
		c-9.3,4.6-17.1,11.6-22.6,20.4c-5.5,8.8-8.3,18.9-8.3,29.2c0.1,10.3,3,20.4,8.6,29.1c5.5,8.7,13.5,15.7,22.8,20.2
		c9.4,4.5,19.8,6.2,30.1,5c10.3-1.2,20.1-5.2,28.2-11.6C199.3,92.2,195.3,85.7,192.5,78.6z">
  </path>
  <path class="st0" d="M254,0.1c-10.9,0-21.6,3.2-30.7,9.3c-9.1,6-16.2,14.6-20.3,24.7c-4.2,10-5.3,21.1-3.1,31.8
		c2.1,10.7,7.4,20.5,15.1,28.1c7.7,7.7,17.6,12.9,28.3,15c10.7,2.1,21.8,1,31.9-3.1c10.1-4.2,18.7-11.2,24.8-20.3
		c6.1-9,9.3-19.7,9.3-30.5c0-7.2-1.4-14.4-4.2-21c-2.8-6.7-6.8-12.7-12-17.8C287.9,11,281.8,7,275.1,4.2
		C268.4,1.5,261.2,0.1,254,0.1z M254,87.7c-6.5,0-12.8-1.9-18.2-5.5c-5.4-3.6-9.6-8.7-12.1-14.6c-2.5-6-3.1-12.5-1.9-18.9
		c1.3-6.3,4.4-12.2,9-16.7c4.6-4.6,10.4-7.7,16.8-8.9c6.4-1.3,13-0.6,19,1.9c6,2.5,11.1,6.7,14.7,12c3.6,5.4,5.5,11.7,5.5,18.1
		c0,8.7-3.5,17-9.6,23.1C271,84.2,262.7,87.7,254,87.7z">
  </path>
  <path class="st0" d="M294.7,101.8c0-0.7,0.1-1.4,0.3-2.1c0.2-0.6,0.4-1.3,0.7-1.9c0.3-0.6,0.7-1.1,1.1-1.6c0.4-0.5,0.9-0.9,1.5-1.2
		c0.8-0.5,1.8-0.8,2.8-1c1-0.1,2-0.1,2.9,0.2c0.6,0.2,1.2,0.4,1.7,0.8c0.5,0.3,1,0.7,1.5,1.2c0.5,0.5,0.8,1,1.2,1.6
		c0.3,0.6,0.6,1.2,0.7,1.9c0.4,1.4,0.4,2.8,0,4.2c-0.2,0.6-0.4,1.3-0.7,1.9c-0.3,0.6-0.7,1.1-1.2,1.6c-0.4,0.5-0.9,0.9-1.5,1.2
		c-0.5,0.3-1.1,0.6-1.7,0.8c-1.3,0.4-2.6,0.4-3.9,0c-0.6-0.2-1.2-0.4-1.8-0.8c-0.5-0.3-1-0.7-1.5-1.2c-0.4-0.5-0.8-1-1.1-1.6
		c-0.3-0.6-0.6-1.2-0.7-1.9C294.7,103.2,294.6,102.5,294.7,101.8z M295.8,101.8c0,0.9,0.2,1.7,0.5,2.5c0.3,0.8,0.7,1.5,1.3,2.1
		c0.6,0.6,1.2,1,2,1.4c0.8,0.3,1.6,0.5,2.4,0.5c0.8,0,1.6-0.2,2.4-0.5c0.7-0.3,1.4-0.8,2-1.4c0.5-0.6,1-1.3,1.3-2.1
		c0.3-0.8,0.5-1.7,0.5-2.5c0-0.9-0.2-1.7-0.5-2.5c-0.3-0.8-0.7-1.5-1.3-2.1c-0.6-0.6-1.2-1-2-1.4c-0.8-0.3-1.6-0.5-2.4-0.5
		c-0.8,0-1.6,0.2-2.4,0.5c-0.7,0.3-1.4,0.8-2,1.4c-0.5,0.6-1,1.3-1.3,2.1C296,100.1,295.8,100.9,295.8,101.8z M300.5,102.6v3.5H299
		v-8.8h2.9c0.5,0,0.9,0,1.4,0.2c0.4,0.1,0.7,0.3,1.1,0.5c0.3,0.2,0.5,0.5,0.7,0.8c0.2,0.4,0.2,0.8,0.2,1.2c0,0.4-0.1,0.8-0.3,1.1
		c-0.3,0.3-0.6,0.6-1,0.8c0.2,0.1,0.4,0.2,0.6,0.4c0.2,0.1,0.3,0.3,0.4,0.5c0.1,0.2,0.2,0.4,0.2,0.6c0,0.2,0.1,0.5,0.1,0.7v0.6
		c0,0.2,0,0.5,0,0.7c0,0.2,0.1,0.4,0.1,0.6v0.2h-1.5c0-0.1-0.1-0.2-0.1-0.3c0-0.1,0-0.3,0-0.4c0-0.1,0-0.3,0-0.4V104
		c0-0.4-0.1-0.8-0.3-1.1c-0.3-0.3-0.8-0.4-1.2-0.4L300.5,102.6z M300.5,101.2h1.6c0.2,0,0.4,0,0.6-0.1c0.2-0.1,0.4-0.1,0.5-0.2
		c0.1-0.1,0.3-0.2,0.4-0.4c0.1-0.2,0.1-0.4,0.1-0.5c0-0.2,0-0.5-0.1-0.7c-0.1-0.2-0.2-0.3-0.3-0.4c-0.2-0.1-0.4-0.2-0.6-0.2
		c-0.3-0.1-0.6-0.1-0.9-0.1h-1.4L300.5,101.2z">
  </path>
 </g>
</svg>