<svg version="1.1" id="Layer_1" xmlns:x="ns_extend;" xmlns:i="ns_ai;" xmlns:graph="ns_graphs;" xmlns="http://www.w3.org/2000/svg" xmlns:xlink="http://www.w3.org/1999/xlink" x="0px" y="0px" viewBox="0 0 200.2 56" style="enable-background:new 0 0 200.2 56;" xml:space="preserve">
 <style type="text/css">
  .st0{fill-rule:evenodd;clip-rule:evenodd;fill:#222228;}
 </style>
 <metadata>
  <sfw xmlns="ns_sfw;">
   <slices>
   </slices>
   <sliceSourceBounds bottomLeftOrigin="true" height="56" width="200.2" x="-146.9" y="-209.3">
   </sliceSourceBounds>
  </sfw>
 </metadata>
 <g>
  <path class="st0" d="M50.3,1V55H56V30.7h20.1v-5.2H56V6.3h27.1V1H50.3z M95.7,55h5.7V1.1h-5.7V55z M182.4,24
		c-7.4-2.2-13.1-4.3-13.1-9.5c0-2.8,1.2-5.1,3.5-6.7c2.2-1.5,5.2-2.4,8.7-2.4c5.9,0,12.3,2.5,12.4,9.4l0,0.4h5.5v-0.4
		c-0.1-8.9-7.1-14.6-17.9-14.6c-10.8,0-17.8,5.7-17.8,14.6c0,8.6,7.3,11.6,16.9,14.6l0.3,0.1c7.4,2.3,13.8,4.4,13.8,10.5
		c0,3.2-1,5.7-3.1,7.5c-2.2,1.9-5.7,2.9-10.2,2.9c-9.7,0-13.2-5.5-13.4-10.3l0-0.4h-5.5l0,0.4c0.1,7.5,6.2,15.5,19.1,15.5
		c11.9,0,18.7-5.7,18.7-15.7C200.2,30.4,191.7,26.6,182.4,24 M135.5,32.5h10V40c0,0.1,0,0.1,0,0.2l0,0.3c-0.9,6.2-5,9.8-11.6,10.3
		l-0.1,0c-0.1,0-0.2,0-0.3,0c-0.3,0-0.5,0-0.8,0c-8.3-0.1-13-4.8-13-13V18.3c0-8.2,4.8-12.9,13-13c0.2,0,0.5,0,0.8,0
		c0.1,0,0.2,0,0.3,0l0.1,0c6.4,0.4,10.5,3.9,11.6,9.8l0,0.3h5.8l-0.1-0.4c-1.2-9.6-7.9-15-18.4-15h-0.1l0,0.4L132.6,0h-0.1
		c-11.7,0-18.6,6.8-18.6,18.3v19.5c0,11.4,6.9,18.2,18.6,18.2h0.3c10.7,0,17.4-5.6,18.5-15.5v-13h-15.7V32.5z M15.2,24.7V17h6.6v7.7
		c7.5,0.1,7.7,6.6,7.7,6.6h-7.7V39h-6.6v-7.7c-7-0.4-7.7-6.6-7.7-6.6H15.2z M10.6,54.7c2.3,0.9,4.9,1.3,7.8,1.3h0.4
		c3,0,5.6-0.5,7.9-1.3c6.4-2.4,10.4-8,10.4-16.8V18.1c0-8.9-4.1-14.5-10.5-16.8C24.3,0.4,21.7,0,18.8,0h-0.4c-3,0-5.6,0.5-7.9,1.4
		C4,3.7,0,9.3,0,18.1v19.8C0,46.7,4.1,52.3,10.6,54.7L10.6,54.7z M10.6,54.7">
  </path>
 </g>
</svg>