<svg version="1.1" id="Layer_1" xmlns:x="ns_extend;" xmlns:i="ns_ai;" xmlns:graph="ns_graphs;" xmlns="http://www.w3.org/2000/svg" xmlns:xlink="http://www.w3.org/1999/xlink" x="0px" y="0px" viewBox="0 0 139.3 45" style="enable-background:new 0 0 139.3 45;" xml:space="preserve">
 <style type="text/css">
  .st0{fill:#F26722;}
	.st1{fill:#313B3F;}
 </style>
 <metadata>
  <sfw xmlns="ns_sfw;">
   <slices>
   </slices>
   <sliceSourceBounds bottomLeftOrigin="true" height="45" width="139.3" x="-4.6" y="-1.5">
   </sliceSourceBounds>
  </sfw>
 </metadata>
 <g>
  <path class="st0" d="M0,27.9h42.9V17.5H26.1l2.7-7h14.1V0H21.5l-6.7,17.5H0V27.9z">
  </path>
  <path class="st0" d="M4.2,45h11.4l4-10.5H8.2L4.2,45z">
  </path>
  <path class="st1" d="M61,13.9v5.8h11.1v3.4H61v11.4h-4V10.4h16.4v3.4H61z">
  </path>
  <path class="st1" d="M72.7,25.7c0-5.6,3.4-9.2,9-9.2c5.6,0,9,3.6,9,9.2c0,5.6-3.4,9.2-9,9.2C76.1,35,72.7,31.4,72.7,25.7z
		 M86.8,25.7c0-4-1.9-6.2-5.1-6.2c-3.2,0-5.1,2.3-5.1,6.2c0,3.9,1.9,6.2,5.1,6.2C84.9,32,86.8,29.7,86.8,25.7z">
  </path>
  <path class="st1" d="M102,16.8v3.7c-0.4-0.1-0.9-0.1-1.3-0.1c-4.8,0-4.8,4.1-4.8,6.6v7.5H92V16.9h3.8v3c1-2,2.7-3.1,5.1-3.1
		C101.2,16.7,101.6,16.8,102,16.8z">
  </path>
  <path class="st1" d="M119.8,16.9v17.2c0,4.3-2.9,7.4-8.6,7.4c-4.9,0-7.8-2.3-8.3-5.7h3.8c0.5,1.9,2.1,2.8,4.5,2.8
		c3.2,0,4.7-1.6,4.7-4.4v-2.8c-1.1,1.8-3,3-5.9,3c-4.7,0-8-3.3-8-8.9c0-5.6,3.3-8.9,8-8.9c2.9,0,4.8,1.3,5.9,3v-2.6L119.8,16.9
		L119.8,16.9z M116.2,25.4c0-3.5-1.9-5.9-5.2-5.9c-3.3,0-5,2.5-5,5.9c0,3.4,1.7,5.9,5,5.9C114.3,31.4,116.2,28.9,116.2,25.4z">
  </path>
  <path class="st1" d="M139.3,26.7h-14.1c0.3,3.3,2.3,5.3,5.3,5.3c2.6,0,4.3-1.4,4.8-3.3h3.9c-0.9,4.1-4.2,6.3-8.7,6.3
		c-5.8,0-9.3-3.7-9.3-9.2c0-5.5,3.6-9.2,9.2-9.2C136.2,16.5,139.6,20.6,139.3,26.7z M135.3,24.1c-0.2-2.4-1.7-4.7-5-4.7
		c-2.9,0-4.7,1.7-5.1,4.7H135.3z">
  </path>
 </g>
</svg>