<svg version="1.1" id="Layer_1" xmlns:x="ns_extend;" xmlns:i="ns_ai;" xmlns:graph="ns_graphs;" xmlns="http://www.w3.org/2000/svg" xmlns:xlink="http://www.w3.org/1999/xlink" x="0px" y="0px" viewBox="0 0 474.9 120.1" style="enable-background:new 0 0 474.9 120.1;" xml:space="preserve">
 <style type="text/css">
  .st0{fill:#707372;}
	.st1{fill:#737B4C;}
	.st2{fill:#C99700;}
 </style>
 <metadata>
  <sfw xmlns="ns_sfw;">
   <slices>
   </slices>
   <sliceSourceBounds bottomLeftOrigin="true" height="120.1" width="474.9" x="-246.9" y="-142.1">
   </sliceSourceBounds>
  </sfw>
 </metadata>
 <g>
  <g>
   <g>
    <path class="st0" d="M55.1,24.9c-2.4-2.5-5.2-4.4-8.4-5.8c-3.3-1.4-7-2.1-11.2-2.1c-4.4,0-8.3,0.8-11.8,2.4
				c-3.5,1.6-6.4,3.8-8.8,6.5c-2.4,2.7-4.3,5.9-5.6,9.4c-1.3,3.6-2,7.3-2,11.3c0,3.9,0.6,7.7,2,11.3c1.3,3.6,3.2,6.7,5.6,9.3
				c2.4,2.7,5.4,4.9,8.8,6.4c3.5,1.6,7.4,2.4,11.8,2.4c3.9,0,7.3-0.4,10.6-1.2c3.2-0.9,5.8-1.9,7.8-3.1V51.1H38v-6.1h22.7v30.7
				c-3.7,2.2-7.7,3.9-12,5c-4.3,1.1-8.7,1.6-13.3,1.6c-5.1,0-9.8-0.9-14.2-2.7c-4.4-1.8-8.1-4.3-11.2-7.4C6.8,69,4.4,65.2,2.6,60.8
				C0.9,56.5,0,51.7,0,46.6c0-5.2,0.9-9.9,2.7-14.3C4.5,27.9,7,24.2,10.1,21c3.1-3.1,6.9-5.6,11.2-7.4c4.3-1.8,9-2.7,14.1-2.7
				c5.4,0,10.1,0.8,14.2,2.4c4,1.6,7.5,3.9,10.3,6.8L55.1,24.9z">
    </path>
    <path class="st0" d="M86.4,74.3H113v6.1H79.5V12.6h6.9V74.3z">
    </path>
    <path class="st0" d="M134.8,80.5h-7.6l29.3-67.8h6.7l29.1,67.8h-7.6l-7.5-17.8h-35.1L134.8,80.5z M144.8,56.3h29.9l-15-36
				L144.8,56.3z">
    </path>
    <path class="st0" d="M229.7,82.2c-5.1,0-9.3-0.9-12.6-2.6c-3.3-1.8-5.9-4-7.8-6.6c-1.9-2.7-3.2-5.6-4-8.8c-0.7-3.1-1.1-6.1-1.1-9
				V12.6h6.9v41.8c0,2.8,0.3,5.4,0.9,8c0.6,2.6,1.7,4.9,3.1,6.9c1.4,2,3.4,3.6,5.7,4.9c2.4,1.2,5.3,1.9,8.7,1.9
				c3.4,0,6.3-0.6,8.7-1.9c2.4-1.2,4.3-2.9,5.7-4.9c1.4-2,2.5-4.3,3.1-6.9c0.6-2.6,0.9-5.3,0.9-8V12.6h6.9v42.5c0,2.8-0.4,5.8-1.1,9
				c-0.7,3.1-2.1,6.1-4,8.8c-1.9,2.7-4.5,4.9-7.8,6.6C238.9,81.3,234.7,82.2,229.7,82.2z">
    </path>
    <path class="st0" d="M283.7,43.1L283.7,43.1l32.4-30.5h9.8l-34.2,30.7l36.1,37.1h-10.1l-34-36.1h-0.1v36.1h-6.9V12.6h6.9
				L283.7,43.1L283.7,43.1z">
    </path>
    <path class="st0" d="M406.5,46.6c0,5.2-0.9,9.9-2.7,14.3c-1.8,4.4-4.3,8.1-7.4,11.3c-3.1,3.1-6.9,5.6-11.2,7.4
				c-4.3,1.8-9,2.7-14.1,2.7c-5.1,0-9.7-0.9-14.1-2.7c-4.3-1.8-8.1-4.3-11.2-7.4c-3.1-3.1-5.6-6.9-7.4-11.3
				c-1.8-4.4-2.7-9.1-2.7-14.3c0-5.2,0.9-9.9,2.7-14.3c1.8-4.4,4.3-8.1,7.4-11.3c3.1-3.1,6.9-5.6,11.2-7.4c4.3-1.8,9-2.7,14.1-2.7
				c5.1,0,9.7,0.9,14.1,2.7c4.3,1.8,8.1,4.3,11.2,7.4c3.1,3.1,5.6,6.9,7.4,11.3C405.7,36.6,406.5,41.4,406.5,46.6z M399.2,46.6
				c0-3.9-0.6-7.7-1.9-11.3s-3.1-6.7-5.6-9.4c-2.4-2.7-5.4-4.9-8.8-6.5c-3.5-1.6-7.4-2.4-11.8-2.4c-4.4,0-8.3,0.8-11.8,2.4
				c-3.5,1.6-6.4,3.8-8.8,6.5s-4.3,5.9-5.6,9.4c-1.3,3.6-1.9,7.3-1.9,11.3c0,3.9,0.6,7.7,1.9,11.3c1.3,3.6,3.1,6.7,5.6,9.3
				c2.4,2.7,5.4,4.9,8.8,6.4c3.5,1.6,7.4,2.4,11.8,2.4c4.4,0,8.3-0.8,11.8-2.4c3.5-1.6,6.4-3.7,8.8-6.4c2.4-2.7,4.3-5.8,5.6-9.3
				C398.6,54.3,399.2,50.6,399.2,46.6z">
    </path>
    <path class="st0" d="M460.7,23.5c-1.5-2.1-3.4-3.7-5.6-4.9c-2.3-1.2-5.1-1.9-8.3-1.9c-1.6,0-3.4,0.3-5.1,0.8
				c-1.7,0.5-3.3,1.3-4.7,2.4c-1.4,1.1-2.6,2.4-3.4,4c-0.9,1.6-1.3,3.5-1.3,5.6c0,2.1,0.4,4,1.2,5.4c0.9,1.4,1.9,2.6,3.3,3.6
				c1.4,1,2.9,1.8,4.7,2.4c1.8,0.6,3.6,1.3,5.5,1.9c2.4,0.8,4.7,1.6,7.1,2.5c2.4,0.9,4.6,2.1,6.4,3.5c1.9,1.4,3.5,3.3,4.7,5.5
				c1.2,2.2,1.8,5,1.8,8.4c0,3.4-0.6,6.3-1.9,8.8c-1.3,2.4-3,4.5-5.1,6.1c-2.1,1.6-4.4,2.8-7.1,3.6c-2.6,0.8-5.3,1.1-8,1.1
				c-2.1,0-4.1-0.2-6.1-0.6c-2.1-0.4-4-1.1-5.9-1.9c-1.9-0.9-3.6-1.9-5.2-3.1c-1.6-1.3-3-2.7-4.2-4.4l5.9-4.4
				c1.5,2.4,3.5,4.4,6.2,6.1c2.6,1.6,5.8,2.4,9.3,2.4c1.7,0,3.5-0.3,5.3-0.8c1.8-0.6,3.4-1.4,4.9-2.5c1.4-1.1,2.6-2.5,3.6-4.1
				c0.9-1.6,1.4-3.5,1.4-5.7c0-2.4-0.5-4.4-1.4-5.9c-0.9-1.6-2.1-2.9-3.7-3.9c-1.5-1.1-3.3-1.9-5.3-2.6c-2-0.7-4.1-1.4-6.2-2.1
				c-2.2-0.7-4.4-1.5-6.6-2.4c-2.1-0.9-4.1-2.1-5.8-3.5c-1.7-1.4-3.1-3.2-4.1-5.4c-1.1-2.1-1.6-4.7-1.6-7.8c0-3.3,0.6-6.1,2-8.4
				c1.3-2.4,3-4.3,5.1-5.9c2.1-1.5,4.4-2.6,7-3.4c2.6-0.7,5.1-1.1,7.6-1.1c4.6,0,8.6,0.8,11.8,2.4c3.3,1.6,5.7,3.6,7.3,5.8
				L460.7,23.5z">
    </path>
    <path class="st1" d="M382.1,45.2c0.3,2.2-0.1,4.6-1.4,6.6c-0.3,0.5-0.6,1-1,1.5c-0.4,0.5-0.8,0.9-1.2,1.3
				c-0.4,0.4-0.9,0.8-1.4,1.1l-0.4,0.2c-0.1,0.1-0.3,0.1-0.4,0.2l-0.2,0.1l-0.2,0.1c-0.1,0.1-0.3,0.1-0.4,0.2
				c-0.6,0.3-1.1,0.5-1.7,0.6l-0.4,0.1c-0.1,0.1-0.3,0.1-0.4,0.1l-0.2,0.1l-0.2,0.1c-0.1,0-0.3,0.1-0.4,0.1c-0.3,0-0.6,0.1-0.9,0.1
				s-0.6,0-0.9,0c-0.6,0-1.2-0.1-1.9-0.2c-0.6-0.1-1.2-0.3-1.8-0.4c-0.1-0.1-0.3-0.1-0.4-0.1l-0.2-0.1l-0.2-0.1
				c-0.1-0.1-0.3-0.1-0.4-0.2l-0.4-0.2c-0.6-0.3-1.1-0.6-1.6-1c-0.5-0.4-1-0.8-1.4-1.2c-0.4-0.4-0.9-0.9-1.2-1.4
				c-0.4-0.5-0.7-1-1-1.6l-0.2-0.4c-0.1-0.1-0.1-0.3-0.2-0.4l-0.1-0.2l-0.1-0.2c-0.1-0.1-0.1-0.3-0.1-0.4l-0.1-0.4
				c-0.1-0.1-0.1-0.3-0.1-0.4l-0.1-0.2l-0.1-0.2c0-0.1-0.1-0.3-0.1-0.4c-0.1-0.6-0.1-1.2-0.2-1.9c0-0.6,0-1.2,0.1-1.9
				c0-0.1,0.1-0.3,0.1-0.4l0.1-0.2l0.1-0.2c0-0.1,0.1-0.3,0.1-0.4l0.1-0.4c0.1-0.6,0.4-1.1,0.6-1.7c0.3-0.6,0.6-1.1,0.9-1.6
				c0.4-0.5,0.7-1,1.1-1.4c0.4-0.4,0.9-0.9,1.3-1.2c0.5-0.4,0.9-0.7,1.5-1c2.1-1.1,4.4-1.6,6.6-1.4c-0.6,0.1-1.1,0.2-1.6,0.4
				c-0.1,0-0.3,0.1-0.4,0.1l-0.2,0.1l-0.2,0.1c-0.1,0.1-0.3,0.1-0.4,0.1l-0.4,0.1c-0.5,0.2-1,0.4-1.4,0.7s-0.9,0.6-1.3,0.9
				c-1.6,1.3-2.9,3-3.5,4.9l-0.1,0.4c-0.1,0.1-0.1,0.2-0.1,0.4l-0.1,0.2l-0.1,0.2c0,0.1-0.1,0.2-0.1,0.4c-0.1,0.5-0.1,1-0.2,1.5
				c0,0.2,0,0.5,0,0.7c0,0.2,0,0.5,0,0.7c0,0.1,0,0.2,0.1,0.4c0,0.1,0,0.1,0,0.2v0.2c0,0.1,0,0.2,0.1,0.4l0.1,0.4
				c0.4,1.9,1.4,3.6,2.8,5c1.4,1.4,3.1,2.4,5,2.8l0.4,0.1c0.1,0,0.2,0.1,0.4,0.1h0.2c0.1,0,0.1,0,0.2,0c0.1,0,0.2,0,0.4,0.1
				c0.5,0,1,0.1,1.5,0c0.5,0,1-0.1,1.5-0.2c0.5-0.1,1-0.2,1.4-0.4c1.9-0.6,3.6-1.9,4.9-3.5c0.4-0.4,0.6-0.9,0.9-1.3
				c0.3-0.4,0.5-0.9,0.7-1.4l0.1-0.4c0-0.1,0.1-0.1,0.1-0.2l0.1-0.2l0.1-0.2l0.1-0.2c0.1-0.1,0.1-0.3,0.1-0.4
				C382,46.3,382,45.8,382.1,45.2z">
    </path>
    <path class="st2" d="M371.7,26c3.9-0.5,8.1,0.4,11.7,2.5c0.9,0.5,1.8,1.1,2.6,1.8c0.4,0.4,0.8,0.6,1.2,1.1
				c0.4,0.4,0.7,0.7,1.1,1.1c0.7,0.8,1.4,1.6,1.9,2.5l0.4,0.6c0.1,0.1,0.1,0.2,0.2,0.4l0.2,0.4l0.2,0.4l0.2,0.4l0.1,0.4
				c0.1,0.1,0.1,0.2,0.1,0.4c0.4,1,0.8,2,1.1,3l0.2,0.8c0.1,0.1,0.1,0.3,0.1,0.4l0.1,0.4l0.1,0.4l0.1,0.4c0.1,0.3,0.1,0.5,0.1,0.8
				l0.1,0.8V45c0,0.1,0,0.1,0,0.2v0.4c0.1,0.6,0,1.1,0,1.6c-0.1,1.1-0.1,2.1-0.4,3.2c0,0.1-0.1,0.3-0.1,0.4l-0.1,0.4l-0.1,0.4
				c0,0.1-0.1,0.3-0.1,0.4l-0.1,0.4c-0.1,0.1-0.1,0.3-0.1,0.4l-0.3,0.8c-0.1,0.1-0.1,0.3-0.1,0.4l-0.1,0.4l-0.1,0.4l-0.1,0.4
				l-0.1,0.4c-0.1,0.1-0.1,0.3-0.1,0.4l-0.4,0.7c-0.1,0.1-0.1,0.2-0.2,0.4l-0.2,0.4c-0.1,0.1-0.1,0.2-0.2,0.4l-0.2,0.4l-0.2,0.4
				l-0.1,0.1c-0.1,0.1-0.1,0.1-0.1,0.1l-0.4,0.6c-0.6,0.9-1.4,1.7-2.1,2.5c-0.8,0.8-1.6,1.5-2.5,2.1c-0.9,0.6-1.8,1.2-2.8,1.7
				l-0.7,0.4c-0.1,0.1-0.2,0.1-0.4,0.1l-0.4,0.1l-0.4,0.1l-0.4,0.1l-0.4,0.1c-0.1,0.1-0.3,0.1-0.4,0.1l-0.8,0.3
				c-0.1,0.1-0.3,0.1-0.4,0.1l-0.4,0.1c-0.1,0-0.3,0.1-0.4,0.1l-0.4,0.1l-0.4,0.1c-0.1,0-0.3,0.1-0.4,0.1c-1.1,0.2-2.1,0.3-3.2,0.4
				c-0.6,0-1.1,0-1.6,0h-0.4c-0.1,0-0.1,0-0.2,0h-0.2l-0.8-0.1c-0.3,0-0.5-0.1-0.8-0.1l-0.4-0.1l-0.4-0.1l-0.4-0.1
				c-0.1,0-0.3-0.1-0.4-0.1l-0.8-0.2c-0.1,0-0.3-0.1-0.4-0.1l-0.4-0.1l-0.4-0.1c-0.1-0.1-0.3-0.1-0.4-0.1c-0.3-0.1-0.5-0.2-0.8-0.3
				l-0.7-0.4c-0.1-0.1-0.2-0.1-0.4-0.1l-0.4-0.1l-0.4-0.2l-0.4-0.2l-0.4-0.2c-0.1-0.1-0.2-0.1-0.4-0.2l-0.6-0.4
				c-0.9-0.6-1.7-1.2-2.5-1.9c-0.4-0.4-0.8-0.7-1.1-1.1c-0.4-0.4-0.7-0.8-1.1-1.2c-0.6-0.8-1.2-1.7-1.8-2.6c-2.1-3.6-3-7.8-2.5-11.7
				l0.1,0.7c0,0.1,0,0.2,0.1,0.4l0.1,0.4l0.1,0.4v0.2c0,0.1,0,0.1,0.1,0.2l0.1,0.7c0,0.1,0.1,0.2,0.1,0.4l0.1,0.4l0.3,0.4l0.1,0.4
				l0.1,0.4c0.1,0.1,0.1,0.2,0.1,0.4l0.3,0.6c0.1,0.1,0.1,0.2,0.1,0.4l0.1,0.4l0.1,0.4c0.1,0.1,0.1,0.2,0.1,0.4l0.1,0.3
				c0.1,0.1,0.1,0.2,0.1,0.3l0.4,0.6c0.5,0.8,1,1.6,1.6,2.4c0.6,0.7,1.2,1.4,1.9,2.1c0.4,0.3,0.6,0.6,1,0.9c0.1,0.1,0.4,0.3,0.6,0.4
				c0.2,0.1,0.4,0.3,0.6,0.4c0.7,0.6,1.5,1,2.4,1.4l0.6,0.3c0.1,0.1,0.2,0.1,0.3,0.1l0.3,0.1l0.3,0.1l0.3,0.1l0.3,0.1
				c0.1,0.1,0.2,0.1,0.3,0.1l0.6,0.2c0.1,0.1,0.2,0.1,0.4,0.1l0.4,0.1c0.1,0,0.2,0.1,0.4,0.1l0.4,0.1l0.4,0.1c0.1,0,0.2,0.1,0.4,0.1
				c0.9,0.2,1.8,0.3,2.6,0.4h0.6h0.1c0.1,0,0.1,0,0.1,0h0.4c0.4,0,0.9,0,1.4-0.1c0.2,0,0.4-0.1,0.6-0.1c0.1,0,0.2,0,0.4,0l0.4-0.1
				l0.4-0.1c0.1,0,0.2,0,0.4-0.1l0.6-0.1c0.1,0,0.2-0.1,0.4-0.1l0.4-0.1l0.4-0.1l0.3-0.1l0.3-0.1c0.1,0,0.2-0.1,0.3-0.1L378,63
				c0.9-0.3,1.6-0.6,2.4-1.1c0.8-0.4,1.5-0.9,2.2-1.4c0.7-0.5,1.4-1.1,2-1.7c0.6-0.6,1.2-1.3,1.7-2c0.5-0.7,1-1.4,1.4-2.2
				c0.4-0.8,0.8-1.6,1.1-2.4l0.2-0.6c0.1-0.1,0.1-0.2,0.1-0.3l0.1-0.3l0.1-0.3l0.1-0.4l0.1-0.4c0-0.1,0.1-0.2,0.1-0.4l0.1-0.6
				c0-0.1,0.1-0.2,0.1-0.4l0.1-0.4l0.1-0.4c0-0.1,0-0.2,0-0.4c0-0.2,0.1-0.4,0.1-0.6c0-0.4,0.1-0.9,0.1-1.4v-0.4c0-0.1,0-0.1,0-0.1
				v-0.1v-0.6c-0.1-0.9-0.1-1.8-0.4-2.6c0-0.1-0.1-0.2-0.1-0.4l-0.1-0.4l-0.1-0.4c0-0.1-0.1-0.2-0.1-0.4l-0.1-0.4
				c0-0.1-0.1-0.2-0.1-0.4l-0.2-0.6c-0.3-0.9-0.6-1.7-1.1-2.5c-0.4-0.8-0.9-1.6-1.4-2.4c-0.1-0.2-0.3-0.4-0.4-0.6
				c-0.1-0.2-0.3-0.4-0.4-0.6c-0.3-0.4-0.6-0.7-0.9-1c-0.6-0.6-1.4-1.3-2.1-1.9c-0.7-0.6-1.5-1.1-2.4-1.6l-0.6-0.4
				c-0.1-0.1-0.2-0.1-0.3-0.1l-0.3-0.1c-0.1-0.1-0.2-0.1-0.4-0.1l-0.4-0.1l-0.4-0.1c-0.1-0.1-0.2-0.1-0.4-0.1h-0.9
				c-0.1-0.1-0.2-0.1-0.4-0.1l-0.4-0.1l-0.4-0.1l-0.4-0.1l-0.4-0.1c-0.1,0-0.2-0.1-0.4-0.1l-0.7-0.1c-0.1,0-0.1,0-0.2-0.1h-0.2
				l-0.4-0.1l-0.4-0.1c-0.1,0-0.2,0-0.4-0.1L371.7,26z">
    </path>
    <path class="st1" d="M329.5,45.7c-0.4-4.2-0.1-8.5,0.9-12.6c1-4.1,2.6-8.2,4.9-12c2.2-3.7,5.1-7.1,8.3-10.1l0.6-0.6
				c0.2-0.2,0.4-0.4,0.6-0.5l0.3-0.3l0.4-0.3c0.2-0.1,0.4-0.4,0.6-0.5c0.9-0.6,1.8-1.3,2.7-1.9c1.9-1.2,3.8-2.3,5.9-3.1
				c4.1-1.9,8.4-3,12.8-3.6l0.9-0.1c0.3,0,0.6-0.1,0.9-0.1h0.4h0.4c0.3,0,0.6,0,0.9-0.1c1.1-0.1,2.2-0.1,3.4,0c0.3,0,0.6,0,0.9,0.1
				h0.4h0.4c0.3,0,0.6,0.1,0.9,0.1l0.9,0.1c0.1,0,0.3,0,0.4,0.1l0.4,0.1c0.3,0,0.6,0.1,0.9,0.1l0.9,0.1l0.9,0.1
				c4.4,0.8,8.7,2.3,12.7,4.4c2,1.1,3.9,2.3,5.7,3.6c0.9,0.6,1.8,1.4,2.6,2.1c0.9,0.7,1.7,1.5,2.5,2.3c0.8,0.8,1.6,1.6,2.3,2.5
				c0.7,0.9,1.4,1.7,2.1,2.6c0.6,0.9,1.3,1.9,1.9,2.8l0.4,0.7l0.4,0.7c0.1,0.2,0.3,0.5,0.4,0.7c0.1,0.2,0.3,0.5,0.4,0.7l0.4,0.8
				l0.4,0.8c0.1,0.3,0.2,0.5,0.4,0.8s0.2,0.5,0.4,0.8c0.4,1,0.9,2.1,1.2,3.1c0.4,1.1,0.7,2.1,1,3.2c0.3,1.1,0.5,2.2,0.7,3.3l0.1,0.9
				l0.1,0.9c0.1,0.3,0.1,0.6,0.1,0.9c0,0.3,0.1,0.6,0.1,0.9l0.1,0.9c0,0.3,0.1,0.6,0.1,0.9v0.4v0.4c0,0.3,0,0.6,0.1,0.9v0.9v0.2v0.2
				v0.4c0,0.6,0,1.1-0.1,1.7c0,0.3,0,0.6-0.1,0.9v0.4v0.4c0,0.3-0.1,0.6-0.1,0.9l-0.1,0.9c-0.3,2.2-0.7,4.4-1.3,6.6
				c-0.6,2.1-1.4,4.3-2.3,6.3c-0.9,2-2,4-3.1,5.9c-0.1,0.2-0.3,0.4-0.4,0.7l-0.2,0.4c-0.1,0.1-0.1,0.2-0.2,0.4
				c-0.1,0.2-0.3,0.4-0.5,0.6l-0.5,0.6c-0.6,0.9-1.4,1.7-2.1,2.6c-2.9,3.3-6.4,6.1-10.1,8.3c-3.7,2.2-7.8,3.9-12,4.9
				c-4.1,1-8.5,1.3-12.6,0.9c4.2-0.4,8.3-1.3,12.1-2.7c3.9-1.4,7.4-3.4,10.7-5.9c3.2-2.4,6.1-5.3,8.5-8.4c0.6-0.8,1.1-1.6,1.7-2.4
				c0.6-0.9,1.1-1.7,1.5-2.6c0.9-1.7,1.8-3.5,2.5-5.4c1.4-3.7,2.2-7.6,2.5-11.4l0.1-0.7c0-0.2,0-0.5,0-0.7v-0.4v-0.4V47
				c0-1,0-1.9-0.1-2.9c-0.1-1.9-0.4-3.9-0.8-5.8c-0.8-3.8-2.1-7.4-4-10.8c-0.5-0.9-0.9-1.7-1.5-2.5c-0.5-0.8-1.1-1.6-1.6-2.4
				c-0.6-0.8-1.2-1.5-1.8-2.3c-0.6-0.7-1.3-1.4-2-2.1c-0.7-0.7-1.4-1.4-2.1-2c-0.7-0.6-1.5-1.2-2.3-1.8c-0.8-0.6-1.6-1.1-2.4-1.6
				c-0.8-0.5-1.6-1-2.5-1.5c-3.4-1.9-7.1-3.2-10.8-4c-1.9-0.4-3.9-0.6-5.8-0.8l-0.7-0.1h-0.2h-0.2h-0.4c-0.5,0-1,0-1.4,0h-0.7h-0.4
				h-0.4c-0.2,0-0.5,0-0.7,0l-0.7,0.1c-3.9,0.3-7.8,1.1-11.4,2.5c-3.7,1.4-7.2,3.4-10.3,5.7c-3.2,2.4-6,5.3-8.4,8.5
				c-2.4,3.2-4.4,6.8-5.9,10.7C330.8,37.4,329.8,41.6,329.5,45.7z">
    </path>
    <path class="st1" d="M10.5,119.6H8.4v-18.9H1.4v-1.9h16.1v1.9h-7V119.6z">
    </path>
    <path class="st1" d="M22.4,119.6h-2.1V98.8h6.1c1,0,2,0.1,2.9,0.3c0.9,0.2,1.6,0.5,2.3,0.9c0.6,0.4,1.1,1,1.5,1.7
				c0.4,0.7,0.5,1.6,0.5,2.6c0,0.8-0.1,1.4-0.4,2.1c-0.3,0.6-0.6,1.1-1.1,1.6c-0.5,0.4-1,0.9-1.6,1.1c-0.6,0.3-1.4,0.4-2.1,0.5
				l6.1,9.9h-2.6l-5.8-9.7h-3.5V119.6z M22.4,108H26c1.7,0,3-0.3,3.9-0.9c0.9-0.6,1.4-1.6,1.4-2.8c0-0.7-0.1-1.3-0.4-1.7
				c-0.3-0.5-0.6-0.9-1.1-1.1c-0.4-0.3-1-0.5-1.6-0.6c-0.6-0.1-1.4-0.2-2.1-0.2h-3.8L22.4,108L22.4,108z">
    </path>
    <path class="st1" d="M37.4,119.6H35l9-20.8h2.1l8.9,20.8h-2.4l-2.3-5.5H39.7L37.4,119.6z M40.5,112.1h9.1L45,101.1L40.5,112.1z">
    </path>
    <path class="st1" d="M72.6,116.5l0.1-17.7h2.1v20.8h-2.6L60,101.6h-0.1v17.9h-2.1V98.8h2.6L72.6,116.5z">
    </path>
    <path class="st1" d="M90,102.1c-0.4-0.6-1-1.1-1.7-1.5c-0.7-0.4-1.6-0.6-2.6-0.6c-0.5,0-1,0.1-1.6,0.2c-0.5,0.1-1,0.4-1.4,0.7
				c-0.4,0.4-0.8,0.7-1.1,1.2c-0.3,0.5-0.4,1.1-0.4,1.7s0.1,1.2,0.4,1.6c0.2,0.4,0.6,0.8,1,1.1s0.9,0.6,1.4,0.7
				c0.6,0.2,1.1,0.4,1.7,0.6c0.7,0.2,1.4,0.5,2.2,0.8c0.7,0.3,1.4,0.6,2,1.1c0.6,0.4,1.1,1,1.4,1.6c0.4,0.6,0.6,1.5,0.6,2.6
				c0,1.1-0.2,1.9-0.6,2.7c-0.4,0.8-0.9,1.4-1.6,1.9c-0.6,0.5-1.4,0.9-2.1,1.1c-0.8,0.2-1.6,0.4-2.4,0.4c-0.6,0-1.3-0.1-1.9-0.2
				c-0.6-0.1-1.2-0.3-1.8-0.6s-1.1-0.6-1.6-1c-0.5-0.4-0.9-0.9-1.3-1.4l1.9-1.4c0.4,0.7,1.1,1.4,1.9,1.9c0.8,0.5,1.8,0.7,2.9,0.7
				c0.5,0,1.1-0.1,1.6-0.2c0.6-0.1,1.1-0.4,1.5-0.8c0.4-0.4,0.8-0.8,1.1-1.3c0.3-0.5,0.4-1.1,0.4-1.7c0-0.7-0.1-1.4-0.4-1.8
				c-0.3-0.5-0.6-0.9-1.1-1.2c-0.5-0.4-1-0.6-1.6-0.8c-0.6-0.2-1.2-0.4-1.9-0.6c-0.7-0.2-1.4-0.4-2-0.7c-0.6-0.3-1.3-0.6-1.8-1.1
				c-0.5-0.4-0.9-1-1.3-1.6c-0.4-0.6-0.5-1.4-0.5-2.4c0-1,0.2-1.9,0.6-2.6c0.4-0.7,0.9-1.4,1.6-1.8c0.6-0.5,1.4-0.8,2.1-1
				c0.8-0.2,1.6-0.4,2.4-0.4c1.4,0,2.6,0.2,3.6,0.7c1,0.5,1.8,1.1,2.3,1.8L90,102.1z">
    </path>
    <path class="st1" d="M98.4,119.6h-2.1V98.8h12.6v1.9H98.4v7.2h9.7v1.9h-9.7V119.6z">
    </path>
    <path class="st1" d="M133,109.1c0,1.6-0.3,3.1-0.9,4.4c-0.6,1.4-1.3,2.5-2.3,3.4c-1,0.9-2.1,1.7-3.4,2.3
				c-1.4,0.6-2.8,0.9-4.3,0.9c-1.5,0-3-0.3-4.3-0.9c-1.4-0.6-2.5-1.3-3.4-2.3c-0.9-1-1.7-2.1-2.3-3.4c-0.6-1.3-0.9-2.8-0.9-4.4
				c0-1.6,0.3-3.1,0.9-4.4s1.3-2.5,2.3-3.4c1-0.9,2.1-1.7,3.4-2.3c1.4-0.6,2.8-0.9,4.3-0.9c1.5,0,3,0.3,4.3,0.9
				c1.4,0.6,2.5,1.3,3.4,2.3c0.9,1,1.7,2.1,2.3,3.4C132.7,106.1,133,107.6,133,109.1z M130.8,109.1c0-1.2-0.2-2.4-0.6-3.4
				c-0.4-1.1-0.9-2.1-1.7-2.9c-0.7-0.9-1.6-1.5-2.7-2c-1.1-0.5-2.3-0.7-3.6-0.7c-1.3,0-2.5,0.2-3.6,0.7c-1.1,0.5-2,1.1-2.7,2
				c-0.7,0.9-1.3,1.8-1.7,2.9c-0.4,1.1-0.6,2.3-0.6,3.4c0,1.2,0.2,2.4,0.6,3.4c0.4,1.1,0.9,2.1,1.7,2.9c0.7,0.9,1.6,1.5,2.7,2
				c1.1,0.5,2.3,0.7,3.6,0.7c1.3,0,2.5-0.2,3.6-0.7c1.1-0.5,2-1.1,2.7-2c0.7-0.9,1.3-1.8,1.7-2.9
				C130.6,111.6,130.8,110.4,130.8,109.1z">
    </path>
    <path class="st1" d="M139.3,119.6h-2.1V98.8h6.1c1,0,2,0.1,2.9,0.3c0.9,0.2,1.6,0.5,2.3,0.9c0.6,0.4,1.1,1,1.5,1.7
				c0.4,0.7,0.5,1.6,0.5,2.6c0,0.8-0.1,1.4-0.4,2.1c-0.3,0.6-0.6,1.1-1.1,1.6c-0.5,0.4-1,0.9-1.6,1.1c-0.6,0.3-1.4,0.4-2.1,0.5
				l6.1,9.9h-2.6l-5.8-9.7h-3.5V119.6z M139.3,108h3.6c1.7,0,3-0.3,3.9-0.9c0.9-0.6,1.4-1.6,1.4-2.8c0-0.7-0.1-1.3-0.4-1.7
				c-0.3-0.5-0.6-0.9-1.1-1.1c-0.4-0.3-1-0.5-1.6-0.6c-0.6-0.1-1.4-0.2-2.1-0.2h-3.8L139.3,108L139.3,108z">
    </path>
    <path class="st1" d="M164.7,116l7-17.2h3.2v20.8h-2.1v-18.1h-0.1l-7.5,18.1h-1.1l-7.5-18.1h-0.1v18.1h-2.1V98.8h3.2L164.7,116z">
    </path>
    <path class="st1" d="M182.3,119.6h-2.1V98.8h2.1V119.6z">
    </path>
    <path class="st1" d="M202.2,116.5l0.1-17.7h2.1v20.8h-2.6l-12.1-17.9h-0.1v17.9h-2.1V98.8h2.6L202.2,116.5z">
    </path>
    <path class="st1" d="M225.4,102.5c-0.7-0.8-1.6-1.4-2.6-1.8c-1-0.4-2.1-0.6-3.4-0.6c-1.4,0-2.5,0.2-3.6,0.7c-1.1,0.5-2,1.1-2.7,2
				c-0.7,0.9-1.3,1.8-1.7,2.9c-0.4,1.1-0.6,2.3-0.6,3.4c0,1.2,0.2,2.4,0.6,3.4c0.4,1.1,1,2.1,1.7,2.9c0.7,0.9,1.6,1.5,2.7,2
				c1.1,0.5,2.3,0.7,3.6,0.7c1.1,0,2.3-0.1,3.2-0.4c1-0.3,1.8-0.6,2.4-1v-6.3h-4.9v-1.9h7v9.4c-1.1,0.7-2.4,1.2-3.6,1.5
				c-1.3,0.4-2.6,0.5-4.1,0.5c-1.6,0-3-0.3-4.4-0.9s-2.5-1.3-3.4-2.3c-0.9-1-1.7-2.1-2.2-3.4c-0.6-1.4-0.8-2.8-0.8-4.4
				c0-1.6,0.3-3.1,0.9-4.4c0.6-1.4,1.3-2.5,2.3-3.4c1-0.9,2.1-1.7,3.4-2.3c1.4-0.6,2.8-0.9,4.3-0.9c1.6,0,3.1,0.2,4.4,0.7
				c1.2,0.5,2.3,1.2,3.1,2.1L225.4,102.5z">
    </path>
    <path class="st1" d="M245.1,116.8l6.8-18h2.3l-8,20.8H244l-7.9-20.8h2.3L245.1,116.8z">
    </path>
    <path class="st1" d="M258.8,119.6h-2.1V98.8h2.1V119.6z">
    </path>
    <path class="st1" d="M274.2,102.1c-0.4-0.6-1-1.1-1.7-1.5c-0.7-0.4-1.6-0.6-2.6-0.6c-0.5,0-1,0.1-1.6,0.2c-0.5,0.1-1,0.4-1.4,0.7
				c-0.4,0.4-0.8,0.7-1.1,1.2c-0.3,0.5-0.4,1.1-0.4,1.7s0.1,1.2,0.4,1.6c0.2,0.4,0.6,0.8,1,1.1c0.4,0.3,0.9,0.6,1.4,0.7
				c0.6,0.2,1.1,0.4,1.7,0.6c0.7,0.2,1.4,0.5,2.2,0.8c0.7,0.3,1.4,0.6,2,1.1c0.6,0.4,1.1,1,1.4,1.6c0.4,0.6,0.6,1.5,0.6,2.6
				c0,1.1-0.2,1.9-0.6,2.7c-0.4,0.8-0.9,1.4-1.6,1.9c-0.6,0.5-1.4,0.9-2.1,1.1c-0.8,0.2-1.6,0.4-2.4,0.4c-0.6,0-1.3-0.1-1.9-0.2
				c-0.6-0.1-1.2-0.3-1.8-0.6c-0.6-0.3-1.1-0.6-1.6-1c-0.5-0.4-0.9-0.9-1.3-1.4l1.9-1.4c0.4,0.7,1.1,1.4,1.9,1.9
				c0.8,0.5,1.8,0.7,2.9,0.7c0.5,0,1.1-0.1,1.6-0.2c0.6-0.1,1.1-0.4,1.5-0.8c0.4-0.4,0.8-0.8,1.1-1.3c0.3-0.5,0.4-1.1,0.4-1.7
				c0-0.7-0.1-1.4-0.4-1.8c-0.3-0.5-0.6-0.9-1.1-1.2c-0.5-0.4-1-0.6-1.6-0.8c-0.6-0.2-1.2-0.4-1.9-0.6c-0.7-0.2-1.4-0.4-2-0.7
				c-0.6-0.3-1.3-0.6-1.8-1.1c-0.5-0.4-0.9-1-1.3-1.6c-0.4-0.6-0.5-1.4-0.5-2.4c0-1,0.2-1.9,0.6-2.6c0.4-0.7,0.9-1.4,1.6-1.8
				c0.6-0.5,1.4-0.8,2.1-1c0.8-0.2,1.6-0.4,2.4-0.4c1.4,0,2.6,0.2,3.6,0.7c1,0.5,1.8,1.1,2.3,1.8L274.2,102.1z">
    </path>
    <path class="st1" d="M282.5,119.6h-2.1V98.8h2.1V119.6z">
    </path>
    <path class="st1" d="M308.2,109.1c0,1.6-0.3,3.1-0.9,4.4c-0.6,1.4-1.3,2.5-2.3,3.4c-1,0.9-2.1,1.7-3.4,2.3
				c-1.4,0.6-2.8,0.9-4.3,0.9c-1.5,0-3-0.3-4.3-0.9c-1.4-0.6-2.5-1.3-3.4-2.3c-0.9-1-1.7-2.1-2.3-3.4c-0.6-1.4-0.9-2.8-0.9-4.4
				c0-1.6,0.3-3.1,0.9-4.4c0.6-1.4,1.3-2.5,2.3-3.4c1-0.9,2.1-1.7,3.4-2.3c1.4-0.6,2.8-0.9,4.3-0.9c1.5,0,3,0.3,4.3,0.9
				c1.4,0.6,2.5,1.3,3.4,2.3c0.9,1,1.7,2.1,2.3,3.4C308,106.1,308.2,107.6,308.2,109.1z M306,109.1c0-1.2-0.2-2.4-0.6-3.4
				c-0.4-1.1-0.9-2.1-1.7-2.9c-0.8-0.8-1.6-1.5-2.7-2c-1.1-0.5-2.3-0.7-3.6-0.7s-2.5,0.2-3.6,0.7c-1.1,0.5-2,1.1-2.7,2
				c-0.7,0.9-1.3,1.8-1.7,2.9c-0.4,1.1-0.6,2.3-0.6,3.4c0,1.2,0.2,2.4,0.6,3.4c0.4,1.1,0.9,2.1,1.7,2.9c0.7,0.9,1.6,1.5,2.7,2
				c1.1,0.5,2.3,0.7,3.6,0.7s2.5-0.2,3.6-0.7c1.1-0.5,2-1.1,2.7-2c0.7-0.9,1.3-1.8,1.7-2.9C305.8,111.6,306,110.4,306,109.1z">
    </path>
    <path class="st1" d="M327.1,116.5l0.1-17.7h2.1v20.8h-2.6l-12.1-17.9h-0.1v17.9h-2.1V98.8h2.6L327.1,116.5z">
    </path>
    <path class="st0" d="M467.4,14.8c0-2,1.6-3.7,3.7-3.7c2,0,3.7,1.6,3.7,3.7c0,2.1-1.6,3.7-3.7,3.7
				C469.1,18.4,467.4,16.7,467.4,14.8z M471.1,17.9c1.7,0,3.1-1.4,3.1-3.1c0-1.7-1.4-3.1-3.1-3.1c-1.7,0-3.1,1.4-3.1,3.1
				C467.9,16.5,469.4,17.9,471.1,17.9z M469.7,12.7h1.3c0.7,0,1.6,0.1,1.6,1.3c0,0.7-0.4,0.9-0.6,0.9l0.7,1.7h-0.8l-0.6-1.6h-0.9
				v1.6h-0.7V12.7z M470.4,14.4h0.9c0.4,0,0.6-0.1,0.6-0.5s-0.2-0.5-0.6-0.5h-0.8V14.4z">
    </path>
   </g>
  </g>
 </g>
</svg>