<svg version="1.1" id="Layer_1" xmlns:x="ns_extend;" xmlns:i="ns_ai;" xmlns:graph="ns_graphs;" xmlns="http://www.w3.org/2000/svg" xmlns:xlink="http://www.w3.org/1999/xlink" x="0px" y="0px" viewBox="0 0 271.7 53" style="enable-background:new 0 0 271.7 53;" xml:space="preserve">
 <style type="text/css">
  .st0{fill:#003E6E;}
	.st1{fill:#0071BB;}
 </style>
 <metadata>
  <sfw xmlns="ns_sfw;">
   <slices>
   </slices>
   <sliceSourceBounds bottomLeftOrigin="true" height="53" width="271.7" x="63.8" y="-226.7">
   </sliceSourceBounds>
  </sfw>
 </metadata>
 <g>
  <g>
   <path class="st0" d="M41.4,51.8h-5.6v-5.3h-0.1C32.1,51,26.5,53,22.3,53C7.9,53,0,43.5,0,31.1C0,10,13.9,0.4,26.9,0.4
			c11.8,0,20.9,5.5,21,17.2h-8.8C38.8,10.8,34,7.6,26.7,7.6c-12,0-17.9,12-17.9,23.2c0,9.4,5,15.1,13.8,15.1
			c8.7,0,13.4-5.8,15.3-13.8H24.1l1.4-6.7h21.6L41.4,51.8z">
   </path>
   <path class="st0" d="M48.2,36.9c0-12,8.2-22.4,20.7-22.4c10,0,15.9,5.5,15.9,15.6c0,12.7-7.8,22.7-20.7,22.7
			C54.1,52.8,48.2,47,48.2,36.9 M56.2,37.1c0,5.3,2.5,9.4,8.4,9.4c8.2,0,12.2-8.9,12.2-16.3c0-5.3-2.5-9.4-8.4-9.4
			C60.2,20.8,56.2,29.9,56.2,37.1">
   </path>
   <polygon class="st1" points="94,5.2 98.4,5.2 94.1,25.4 121.1,25.4 125.4,5.2 129.9,5.2 119.9,51.8 115.5,51.8 120.3,29.2 
			93.4,29.2 88.5,51.8 84.1,51.8 		">
   </polygon>
   <path class="st1" d="M130.4,36.1c-0.1,0.8-0.2,1.7-0.2,2.6c0,6.1,3.1,10.6,9.8,10.6c5.4,0,9.5-3.5,11-8.4h4.1
			c-2.2,7.5-7.4,11.8-15.4,11.8c-8.9,0-13.7-5.6-13.7-14.3c0-10.6,6.7-21.4,18.2-21.4c8.1,0,12.8,5.3,12.8,13.1
			c0,1.9-0.1,3.8-0.3,5.8H130.4z M152.9,32.6c0-0.9,0.1-1.8,0.1-2.6c0-5.6-3.5-9.4-9.2-9.4c-6.8,0-11.4,5.7-12.9,12H152.9z">
   </path>
   <path class="st1" d="M161.1,28.2c1.1-7.6,7-11,14.2-11c4.6,0,11.7,1.6,11.7,7.5c0,3.3-1.4,8.4-2.1,11.4c-1.5,7.6-2.2,9.3-2.2,11.4
			c0,1.2,1.2,1.4,2.2,1.4c0.6,0,1-0.1,1.6-0.1l-0.6,3.3c-0.9,0.2-2.3,0.3-3.4,0.3c-2.3,0-3.5-1.4-3.6-3.7c0-0.6,0.1-1.2,0.1-1.8
			l-0.1-0.1c-2.4,3.9-7,6.2-11.7,6.2c-6.1,0-10.8-2.7-10.8-9.3c0-7.1,5.7-9.4,11.7-10.5c4.3-0.7,8.1-0.3,10.7-1c2.7-0.7,4-2.2,4-6.6
			c0-4-4-4.8-7.1-4.8c-5.2,0-9.7,2-10.6,7.6H161.1z M181.5,33.8l-0.1-0.1c-1.3,1.6-5.4,1.8-7.4,1.9c-5,0.4-13.3,0.7-13.3,7.7
			c0,4.3,3.6,6.1,7.5,6.1c6.6,0,10.8-4,12.1-9.9L181.5,33.8z">
   </path>
   <polygon class="st1" points="198.3,5.2 202.4,5.2 192.4,51.8 188.3,51.8 		">
   </polygon>
   <path class="st1" d="M201.9,18.1h6.1l2.2-10.2h4.1l-2.2,10.2h6.7l-0.7,3.5h-6.9l-4.6,21.6c-0.3,1.6-0.5,2.2-0.5,3.2
			c0,1.2,0.6,2.4,2.2,2.4c1.6,0,3.2-0.1,4.8-0.4l-0.7,3.6c-1.4,0.1-2.8,0.3-4.2,0.3c-3.1,0-6.2-0.8-6.2-4.8c0-0.7,0.1-2,0.5-3.5
			l4.6-22.3h-6.1L201.9,18.1z">
   </path>
   <path class="st1" d="M225.2,5.2h4.1l-4.1,19.1h0.1c2.4-4,6.8-7.1,11.8-7.1c5.9,0,10.2,2.6,10.2,9.1c0,1-0.2,2.4-0.5,4l-4.6,21.6
			H238l4.7-21.8c0.3-1,0.5-2.3,0.5-3.4c0-4.4-3.4-6.1-7.1-6.1c-5.9,0-11.4,5.4-13.2,13.9l-3.7,17.3h-4.1L225.2,5.2z">
   </path>
   <path class="st0" d="M271.7,0c0,0,1.7,19.9-16.4,23.5C255.2,23.5,245,11.9,271.7,0">
   </path>
   <path class="st0" d="M271.5,22.4c0,0-5.3,9.6-14.8,5.7C256.7,28.1,255.6,19.6,271.5,22.4">
   </path>
  </g>
 </g>
</svg>