<svg version="1.1" id="Layer_1" xmlns:x="ns_extend;" xmlns:i="ns_ai;" xmlns:graph="ns_graphs;" xmlns="http://www.w3.org/2000/svg" xmlns:xlink="http://www.w3.org/1999/xlink" x="0px" y="0px" viewBox="0 0 176.3 81.8" style="enable-background:new 0 0 176.3 81.8;" xml:space="preserve">
 <style type="text/css">
  .st0{fill:#00609C;}
	.st1{fill:#003764;}
 </style>
 <metadata>
  <sfw xmlns="ns_sfw;">
   <slices>
   </slices>
   <sliceSourceBounds bottomLeftOrigin="true" height="81.8" width="176.3" x="41.2" y="-354.3">
   </sliceSourceBounds>
  </sfw>
 </metadata>
 <g>
  <polygon class="st0" points="50,72.3 47.2,76.8 44.3,72.3 42.6,72.3 42.6,81.7 44.2,81.7 44.2,75 47.1,79.4 47.2,79.4 50.1,75 
		50.1,81.7 51.8,81.7 51.8,72.3 	">
  </polygon>
  <polygon class="st0" points="56.8,72.3 56.8,81.7 63.8,81.7 63.8,80.2 58.5,80.2 58.5,77.7 63.2,77.7 63.2,76.2 58.5,76.2 
		58.5,73.8 63.8,73.8 63.8,72.3 	">
  </polygon>
  <polygon class="st0" points="67.8,72.3 67.8,73.9 70.7,73.9 70.7,81.7 72.4,81.7 72.4,73.9 75.4,73.9 75.4,72.3 	">
  </polygon>
  <g>
   <path class="st0" d="M86,77L86,77c0-2.7,2-4.9,4.8-4.9c1.7,0,2.8,0.6,3.7,1.5l-1.1,1.2c-0.7-0.7-1.5-1.2-2.6-1.2
			c-1.8,0-3.1,1.5-3.1,3.3v0c0,1.8,1.3,3.3,3.1,3.3c1.1,0,1.9-0.5,2.7-1.2l1.1,1.1c-1,1-2,1.7-3.8,1.7C88,81.8,86,79.7,86,77">
   </path>
   <path class="st0" d="M98.3,77L98.3,77c0-2.7,2-4.9,4.9-4.9s4.9,2.2,4.9,4.8v0c0,2.6-2,4.8-4.9,4.8C100.3,81.8,98.3,79.7,98.3,77
			 M106.3,77L106.3,77c0-1.8-1.3-3.3-3.2-3.3c-1.9,0-3.1,1.5-3.1,3.3v0c0,1.8,1.3,3.3,3.2,3.3S106.3,78.8,106.3,77">
   </path>
   <path class="st0" d="M115.4,72.3h1.5l4.1,9.4h-1.7l-0.9-2.3h-4.4l-1,2.3h-1.7L115.4,72.3z M117.7,78l-1.6-3.7l-1.6,3.7H117.7z">
   </path>
   <polygon class="st0" points="125.3,72.3 126.9,72.3 126.9,80.2 131.8,80.2 131.8,81.7 125.3,81.7 		">
   </polygon>
   <polygon class="st1" points="0,38.7 7.5,38.7 11.9,53.5 16.8,38.7 22.9,38.7 27.8,53.5 32.3,38.7 39.6,38.7 31.1,64.4 24.9,64.4 
			19.8,49.7 14.7,64.4 8.5,64.4 		">
   </polygon>
   <path class="st1" d="M46.3,38.6h6.8L64,64.2h-7.6l-1.8-4.6h-9.9l-1.8,4.6h-7.4L46.3,38.6z M52.5,54.1l-2.8-7.2l-2.9,7.2H52.5z">
   </path>
   <path class="st1" d="M64.8,38.7h12.1c3.9,0,6.6,1,8.3,2.7c1.5,1.5,2.3,3.4,2.3,5.9v0.1c0,3.9-2.1,6.5-5.2,7.9l6.1,8.9h-8.1
			L75,56.5h-3.1v7.7h-7.1V38.7z M76.6,51c2.4,0,3.8-1.2,3.8-3v-0.1c0-2-1.5-3.1-3.8-3.1h-4.7V51H76.6z">
   </path>
   <path class="st1" d="M89.4,38.7h12.1c3.9,0,6.6,1,8.3,2.7c1.5,1.5,2.3,3.4,2.3,5.9v0.1c0,3.9-2.1,6.5-5.2,7.9l6.1,8.9h-8.1
			l-5.1-7.7h-3.1v7.7h-7.1V38.7z M101.1,51c2.4,0,3.8-1.2,3.8-3v-0.1c0-2-1.5-3.1-3.8-3.1h-4.7V51H101.1z">
   </path>
   <rect x="114.1" y="38.7" class="st1" width="7.1" height="25.5">
   </rect>
   <path class="st1" d="M123.3,51.6L123.3,51.6c0-7.4,5.9-13.3,13.8-13.3c7.9,0,13.7,5.9,13.7,13.2v0.1c0,7.3-5.9,13.3-13.8,13.3
			C129.2,64.7,123.3,58.9,123.3,51.6 M143.6,51.6L143.6,51.6c0-3.8-2.6-7-6.5-7s-6.5,3.1-6.5,6.8v0.1c0,3.7,2.7,6.9,6.6,6.9
			C141,58.4,143.6,55.2,143.6,51.6">
   </path>
   <path class="st1" d="M152.8,38.7h12.1c3.9,0,6.6,1,8.3,2.7c1.5,1.5,2.3,3.4,2.3,5.9v0.1c0,3.9-2.1,6.5-5.2,7.9l6.1,8.9h-8.1
			l-5.1-7.7h-3.1v7.7h-7.1V38.7z M164.6,51c2.4,0,3.8-1.2,3.8-3v-0.1c0-2-1.5-3.1-3.8-3.1h-4.7V51H164.6z">
   </path>
   <polygon class="st0" points="107.8,30 98.1,30 91.4,7.5 98.9,0.1 		">
   </polygon>
   <polygon class="st1" points="95.6,30 85.9,30 79.3,7.5 86.7,0.1 		">
   </polygon>
   <polygon class="st1" points="83.8,29.9 74.1,29.9 67.4,7.4 74.9,0 		">
   </polygon>
  </g>
 </g>
</svg>