<svg version="1.1" id="Layer_1" xmlns:x="ns_extend;" xmlns:i="ns_ai;" xmlns:graph="ns_graphs;" xmlns="http://www.w3.org/2000/svg" xmlns:xlink="http://www.w3.org/1999/xlink" x="0px" y="0px" viewBox="0 0 90 49.5" style="enable-background:new 0 0 90 49.5;" xml:space="preserve">
 <style type="text/css">
  .st0{fill:#86D0CC;}
	.st1{fill:#00B5AD;}
	.st2{fill:#656868;}
 </style>
 <metadata>
  <sfw xmlns="ns_sfw;">
   <slices>
   </slices>
   <sliceSourceBounds bottomLeftOrigin="true" height="49.5" width="90" x="155.3" y="-225">
   </sliceSourceBounds>
  </sfw>
 </metadata>
 <g>
  <polygon class="st0" points="46.9,14.9 62.9,26.9 89.8,26.9 53.9,0 38.4,0 58.3,15 	">
  </polygon>
  <polygon class="st1" points="53.8,13.5 35.9,0 0,26.9 26.9,26.9 44.9,13.5 	">
  </polygon>
  <path class="st2" d="M4,42.8v4.6c0,1,0,1,1.7,1.1v0.7H0.1v-0.7c1.7-0.1,1.7-0.1,1.7-1.1v-9.6c0-1,0-1-1.7-1.1V36h5.6v0.7
		C4,36.8,4,36.8,4,37.8v4.1h6.5v-4.1c0-1,0-1-1.7-1.1V36h5.6v0.7c-1.7,0.1-1.7,0.1-1.7,1.1v9.6c0,1,0,1,1.7,1.1v0.7H8.7v-0.7
		c1.7-0.1,1.7-0.1,1.7-1.1v-4.6H4z">
  </path>
  <path class="st2" d="M20.1,40.7L20.1,40.7c-0.4,1.1-1,3.1-1.4,4.2h2.9C21.2,43.8,20.5,41.7,20.1,40.7 M18.5,45.8
		c-0.3,0.8-0.6,1.5-0.7,2.1c-0.1,0.2-0.1,0.6,0.3,0.6l1,0.1v0.7h-3.8v-0.7c1-0.1,1.2-0.2,1.5-0.9c0.7-1.9,2.3-6.1,3.1-8.6h1.7
		c0.9,2.4,2.5,6.5,3.3,8.7c0.2,0.7,0.6,0.7,1.5,0.8v0.7h-4.8v-0.7l0.9-0.1c0.4,0,0.3-0.2,0.2-0.6c-0.2-0.5-0.6-1.5-0.8-2.1H18.5z">
  </path>
  <path class="st2" d="M27.2,49.3v-0.8l0.6-0.1c0.3,0,0.6-0.2,0.7-0.5c0.1-0.5,0.1-1,0.1-1.8V41c0-1-0.1-1-1.5-1.1v-0.7h3.9
		c1,2.6,2.1,4.9,3,7.1H34c0.7-1.8,2.3-5.7,2.8-7.1h3.9v0.7c-1.4,0.1-1.5,0.1-1.5,1.1v6.4c0,1,0.2,1.1,1.5,1.1v0.8h-4.9v-0.8
		c1.3,0,1.5-0.1,1.5-1.1v-7h-0.1c-0.9,2.2-2.5,6.3-3.6,8.9H33c-0.3-0.9-2.6-6.7-3.5-8.9h0v5.7c0,0.8,0,1.4,0.1,1.9
		c0.1,0.3,0.3,0.5,0.8,0.5l0.7,0.1v0.8H27.2z">
  </path>
  <path class="st2" d="M47.2,48.5v0.8h-5v-0.8c1.4-0.1,1.5-0.1,1.5-1.1v-6.5c0-1-0.2-1.1-1.5-1.1v-0.7h5v0.7
		c-1.4,0.1-1.5,0.1-1.5,1.1v6.5C45.7,48.4,45.9,48.4,47.2,48.5">
  </path>
  <path class="st2" d="M48.7,49.3v-0.8c1.4-0.1,1.5-0.1,1.5-1.1V41c0-1.1-0.1-1-1.5-1.1v-0.7h5.1v0.7c-1.5,0.1-1.6,0.1-1.6,1.1v6.2
		c0,1.5,0.1,1.3,2.1,1.3c0.7,0,1.2-0.1,1.5-0.4c0.3-0.3,0.7-1.4,0.9-1.9h0.7l-0.4,3.2H48.7z">
  </path>
  <path class="st2" d="M62.9,47.4c0,1,0.2,1,1.7,1.1v0.8h-5.5v-0.8c1.6-0.1,1.7-0.1,1.7-1.1v-7.5h-0.9c-1.5,0-1.9,0.6-2.1,2.2h-0.7
		v-3h9.5v3h-0.7c-0.2-1.6-0.6-2.2-2.1-2.2h-0.9V47.4z">
  </path>
  <path class="st2" d="M69.7,44.2c0,2.2,0.8,4.5,3,4.5c2.2,0,3-2.2,3-4.5c0-2.1-0.8-4.5-3.1-4.5C70.5,39.7,69.7,41.9,69.7,44.2
		 M78,44.2c0,3.4-1.8,5.4-5.3,5.4c-3.5,0-5.3-1.9-5.3-5.4c0-3.4,1.8-5.4,5.3-5.4C76.2,38.8,78,40.8,78,44.2">
  </path>
  <path class="st2" d="M82.3,39.1c1.7,2.6,3.5,5.1,5.3,7.7l0,0v-4.4c0-0.8,0-1.4-0.1-1.8c-0.1-0.4-0.3-0.6-0.8-0.6l-0.9-0.1v-0.7H90
		v0.7l-0.7,0.1c-0.3,0-0.6,0.3-0.6,0.6c-0.1,0.6-0.1,1.1-0.1,1.9v6.9h-1.7c-1.8-2.6-4-5.8-5.9-8.7h0v5.4c0,0.8,0,1.4,0.1,1.9
		c0.1,0.5,0.3,0.6,0.8,0.6l0.8,0.1v0.7h-4.1v-0.7l0.8-0.1c0.3,0,0.6-0.2,0.7-0.6c0.1-0.5,0.1-1,0.1-1.9v-5c0-1-0.1-1-1.5-1.1v-0.7
		H82.3z">
  </path>
 </g>
</svg>