<svg version="1.1" id="Layer_1" xmlns:x="ns_extend;" xmlns:i="ns_ai;" xmlns:graph="ns_graphs;" xmlns="http://www.w3.org/2000/svg" xmlns:xlink="http://www.w3.org/1999/xlink" x="0px" y="0px" viewBox="0 0 116.2 44" style="enable-background:new 0 0 116.2 44;" xml:space="preserve">
 <style type="text/css">
  .st0{fill-rule:evenodd;clip-rule:evenodd;fill:#00A817;}
 </style>
 <metadata>
  <sfw xmlns="ns_sfw;">
   <slices>
   </slices>
   <sliceSourceBounds bottomLeftOrigin="true" height="44" width="116.2" x="1187.2" y="378.3">
   </sliceSourceBounds>
  </sfw>
 </metadata>
 <g>
  <path class="st0" d="M31.1,0.2c-2.2,0-3.9,1.8-3.9,4c0,2.2,1.7,3.9,3.9,3.9c2.2,0,3.9-1.7,3.9-3.9C35.1,1.9,33.3,0.2,31.1,0.2z
		 M28.1,34.5h6.2V11.6h-6.2V34.5z M51.4,11c-3.1,0-5.3,1.3-6.8,3.1v-2.5h-6V44h6.1V32.2c1.5,1.8,3.7,3,6.7,3
		c6.3,0,11.1-5.2,11.1-12.1C62.5,16.2,57.7,11,51.4,11z M50.2,29.4c-3.5,0-5.9-2.7-5.9-6.3c0-3.6,2.4-6.3,5.9-6.3
		c3.6,0,5.9,2.8,5.9,6.3C56.1,26.6,53.9,29.4,50.2,29.4z M11.6,10.9c-1.9,0-3.8,0.5-5.4,1.3V0H0v34.5h6.3V22.5l0,0
		c0-3,2.4-5.4,5.4-5.4s5.4,2.4,5.4,5.4v12.1h6.3V22.5l0,0C23.2,16.1,18,10.9,11.6,10.9z M104.2,11c-6.7,0-12.1,5.4-12.1,12.1
		s5.4,12.1,12.1,12.1c6.7,0,12.1-5.4,12.1-12.1S110.8,11,104.2,11z M104.2,29.2c-3.4,0-6.1-2.7-6.1-6.1s2.7-6.1,6.1-6.1
		c3.4,0,6.1,2.7,6.1,6.1S107.5,29.2,104.2,29.2z M78.5,11c-3.1,0-5.3,1.3-6.8,3.1v-2.5h-6V44h6.1V32.2c1.5,1.8,3.7,3,6.7,3
		c6.3,0,11.1-5.2,11.1-12.1C89.6,16.2,84.8,11,78.5,11z M77.3,29.4c-3.5,0-5.9-2.7-5.9-6.3c0-3.6,2.4-6.3,5.9-6.3
		c3.6,0,5.9,2.8,5.9,6.3C83.2,26.6,81,29.4,77.3,29.4z">
  </path>
 </g>
</svg>