<svg version="1.1" id="Layer_1" xmlns:x="ns_extend;" xmlns:i="ns_ai;" xmlns:graph="ns_graphs;" xmlns="http://www.w3.org/2000/svg" xmlns:xlink="http://www.w3.org/1999/xlink" x="0px" y="0px" viewBox="0 0 100 100" style="enable-background:new 0 0 100 100;" xml:space="preserve">
 <style type="text/css">
  .st0{fill:#02AD4E;}
 </style>
 <metadata>
  <sfw xmlns="ns_sfw;">
   <slices>
   </slices>
   <sliceSourceBounds bottomLeftOrigin="true" height="100" width="100" x="119.8" y="-220.2">
   </sliceSourceBounds>
  </sfw>
 </metadata>
 <g>
  <path class="st0" d="M0,0h100v100H0V0z M17.3,59.1h-4.5v-6.2H7.5v17.3h5.4v-6.3h4.5v6.3h5.5V52.9h-5.5V59.1z M39.3,66.6
		c0.5-1.1,0.7-2.3,0.7-3.4v-2.7h-3.8V63l-4.1-4.5c-0.4-0.5-0.7-0.9-0.7-1.4c0-0.7,0.5-1.1,1.3-1.1c0.7,0,1.2,0.5,1.2,1.2v0.9H38
		v-1.1c0-2.7-2.3-4.5-5.5-4.5c-3.4,0-5.7,1.8-5.7,4.5c0,0.7,0.2,2,1.4,3C26.6,60.9,25,62.5,25,65c0,3.4,2.7,5.7,7.5,5.7
		c1.6,0,3.2-0.5,4.3-1.2l0.7,0.9h4.8L39.3,66.6z M32.7,67c-1.3,0-2.9-0.7-2.9-2.3c0-0.9,0.5-1.6,1.3-2c0,0,2.9,3.2,3.4,3.8
		C34.1,66.8,33.4,67,32.7,67z M49.3,65.7h1.6l2.7,4.5h6.3l-3.4-5.5c1.8-1.1,3-3,3-5.5c0-3.8-2.3-6.4-6.8-6.4h-8.7V70h5.4
		C49.3,70,49.3,65.7,49.3,65.7z M49.3,57.1H52c1.2,0,2,0.9,2,2.1c0,1.2-0.7,2.1-2,2.1h-2.7V57.1z M19.3,83.4
		c1.4-0.7,2.3-2.1,2.3-3.9c0-2.7-2-4.5-5.2-4.5H7.5v17.3h9.1c3.9,0,6.1-2,6.1-5C22.7,85.4,21.4,83.9,19.3,83.4z M12.7,79.1h2.5
		c0.7,0,1.2,0.5,1.2,1.2c0,0.9-0.5,1.4-1.2,1.4h-2.5C12.7,81.8,12.7,79.1,12.7,79.1z M16.2,88.4h-3.6v-2.9h3.6
		c0.9,0,1.4,0.7,1.4,1.4S17.1,88.4,16.2,88.4z M30.4,75H25v17.3h12.3v-4.5h-7V75z M47.1,74.6c-5.4,0-8.2,3.2-8.2,7.9v2.1
		c0,4.6,2.9,7.9,8.2,7.9s8.2-3.2,8.2-7.9v-2.1C55.4,77.9,52.5,74.6,47.1,74.6z M50,85.2c0,2-1.1,3-2.9,3s-2.9-1.1-2.9-3v-2.9
		c0-2,1.1-3,2.9-3s2.9,1.1,2.9,3V85.2z M65.4,79.3c2,0,2.7,1.2,2.7,2.5h5.2c-0.2-3.9-2.9-7.1-7.7-7.1c-5.5,0-8.2,3.2-8.2,7.9v2.3
		c0,4.6,2.7,7.9,8.2,7.9c4.8,0,7.7-3.2,7.7-7.1H68c-0.2,1.3-0.7,2.5-2.7,2.5c-1.8,0-2.7-1.2-2.7-3v-2.7
		C62.7,80.4,63.6,79.3,65.4,79.3z M91.6,75h-6.1L82,81.1h-0.4V75h-5.4v17.3h5.4v-7.1H82l3.6,7.1H92l-5-9.5C87,82.9,91.6,75,91.6,75z
		 M94.1,75.5h-0.5v1.2h0.4v-0.4l0.2,0.4h0.5l-0.2-0.4c0-0.2,0.2-0.4,0.2-0.5C94.6,75.5,94.5,75.5,94.1,75.5z M94.1,76.1l-0.2-0.2
		L94.1,76.1C94.1,75.9,94.1,75.9,94.1,76.1z M93.9,74.6c-0.9,0-1.4,0.7-1.4,1.4s0.5,1.4,1.4,1.4c0.9,0,1.4-0.7,1.4-1.4
		C95.5,75.4,94.8,74.6,93.9,74.6z M93.9,77.1c-0.7,0-1.1-0.5-1.1-1.1c0-0.7,0.4-1.1,1.1-1.1c0.7,0,1.1,0.5,1.1,1.1
		C95.2,76.8,94.6,77.1,93.9,77.1z">
  </path>
 </g>
</svg>