<svg version="1.1" id="Layer_1" xmlns:x="ns_extend;" xmlns:i="ns_ai;" xmlns:graph="ns_graphs;" xmlns="http://www.w3.org/2000/svg" xmlns:xlink="http://www.w3.org/1999/xlink" x="0px" y="0px" viewBox="0 0 266.5 56" style="enable-background:new 0 0 266.5 56;" xml:space="preserve">
 <style type="text/css">
  .st0{fill:#FF574A;}
	.st1{fill:#00324A;}
 </style>
 <metadata>
  <sfw xmlns="ns_sfw;">
   <slices>
   </slices>
   <sliceSourceBounds bottomLeftOrigin="true" height="56" width="266.5" x="-142.1" y="-215">
   </sliceSourceBounds>
  </sfw>
 </metadata>
 <g>
  <path class="st0" d="M123.7,33.3h-3.9L111,55.1h4.1l2.3-6.1h8.5l2.4,6.1h4L123.7,33.3L123.7,33.3z M124.8,46h-6.3l3.2-8.5L124.8,46
		z">
  </path>
  <rect x="115.2" y="1" class="st1" width="3.8" height="21.8">
  </rect>
  <path class="st1" d="M144.8,23.1c-0.6,0-4.2-0.1-4.2-4.7V8.9h-2.2V6h2.2V1h3.7V6h4.1v3h-4.1v9.2c0,0.5,0.2,0.9,0.5,1.2
		c0.3,0.2,0.7,0.4,1.1,0.4c0,0,0.8,0.1,1.9-0.7l1.5,2.7C149.4,21.6,147.9,23.1,144.8,23.1">
  </path>
  <path class="st1" d="M191,12.7c0.4-1.1,1.1-2,2.1-2.5c1-0.6,2.1-0.9,3.4-1l0.1,0V5.9c0,0-0.3-0.1-0.9-0.1c-1.1,0.1-2.1,0.5-3,1.2
		c-0.8,0.6-1.5,1.4-2,2.3V6h-3.5v16.8h3.7V12.7z">
  </path>
  <path class="st1" d="M212,18.6v-6c0-2.1-0.7-3.8-2-5c-1.3-1.2-3.1-2.1-5.4-2.1c-2.3,0-4.5,0.6-6.4,2.1l-0.1,0.1l1.4,2.6
		c0,0,2.1-1.6,4.8-1.6c1.3,0,2.3,0.3,2.9,0.9c0.7,0.6,1,1.6,1,2.7V13c-1.7-0.4-3.5-0.6-4.2-0.6c-1,0-7.1,0.2-7.1,5.4
		c0,0.8,0.1,1.5,0.4,2.1c0.3,0.6,0.7,1.2,1.2,1.7c0.5,0.5,1.2,0.9,1.9,1.1c0.7,0.3,1.7,0.4,2.5,0.4c3.2,0,4.8-1.3,5.8-2.6
		c0,0,0,1.1,0.9,1.9c0.4,0.4,1.1,0.5,1.9,0.5c0.8,0,1.6-0.2,1.6-0.2v-3.2C213,19.6,212,19.8,212,18.6 M203.5,20.3
		c-0.9,0-1.7-0.3-2.3-0.8c-0.6-0.5-0.9-1.2-0.9-2c0-0.9,0.4-1.5,1.1-2c0.8-0.5,1.8-0.7,3-0.7c0.6,0,1.3,0.1,1.9,0.2
		c0.6,0.1,1.3,0.2,1.8,0.4v0.9C208.3,17.7,207.3,20.3,203.5,20.3">
  </path>
  <path class="st0" d="M188,49.9c-0.1,0.3-0.3,0.6-0.6,0.8c-0.3,0.3-0.6,0.5-1,0.7c-0.4,0.2-0.8,0.4-1.2,0.5
		c-1.1,0.3-2.2,0.2-3.2-0.2c-0.6-0.3-1.1-0.7-1.6-1.1c-0.4-0.5-0.8-1.1-1.1-1.7c-0.3-0.7-0.4-1.4-0.4-2.2c0-0.8,0.1-1.5,0.4-2.2
		c0.2-0.6,0.6-1.2,1-1.7c0.4-0.5,1-0.8,1.5-1.1c0.6-0.3,1.2-0.4,1.9-0.4c0.8,0,1.6,0.2,2.3,0.6c0.7,0.4,1.3,0.9,1.7,1.6l0.1,0.1
		l3.4-1.2l-0.1-0.1c-0.6-1.3-1.6-2.3-2.8-3.1c-1.3-0.8-2.8-1.1-4.5-1.1c-1.3,0-2.5,0.2-3.6,0.7c-1.1,0.5-2,1.1-2.8,1.9
		c-0.8,0.8-1.3,1.7-1.8,2.8c-0.4,1-0.6,2.2-0.6,3.3c0,1.2,0.2,2.3,0.6,3.3c0.4,1,1,2,1.8,2.8c0.8,0.8,1.7,1.4,2.8,1.9
		c1.1,0.5,2.3,0.7,3.6,0.7c1.8,0,3.3-0.4,4.6-1.2c1.3-0.8,2.3-1.9,2.8-3.1l0.1-0.1l-3.5-1.1L188,49.9z">
  </path>
  <path class="st0" d="M245.3,49.9c-0.1,0.3-0.3,0.6-0.6,0.8c-0.3,0.3-0.6,0.5-1,0.7c-0.4,0.2-0.8,0.4-1.2,0.5
		c-1.1,0.3-2.2,0.2-3.2-0.2c-0.6-0.3-1.1-0.7-1.6-1.1c-0.4-0.5-0.8-1.1-1.1-1.7c-0.3-0.7-0.4-1.4-0.4-2.2c0-0.8,0.1-1.5,0.4-2.2
		c0.2-0.6,0.6-1.2,1-1.7c0.4-0.5,1-0.8,1.5-1.1c0.6-0.3,1.2-0.4,1.9-0.4c0.8,0,1.6,0.2,2.3,0.6c0.7,0.4,1.3,0.9,1.7,1.6l0.1,0.1
		l3.4-1.2l-0.1-0.1c-0.6-1.3-1.6-2.3-2.8-3.1c-1.3-0.8-2.8-1.1-4.5-1.1c-1.3,0-2.5,0.2-3.6,0.7c-1.1,0.5-2,1.1-2.8,1.9
		c-0.8,0.8-1.3,1.7-1.8,2.8c-0.4,1-0.6,2.2-0.6,3.3c0,1.2,0.2,2.3,0.6,3.3c0.4,1,1,2,1.8,2.8c0.8,0.8,1.7,1.4,2.8,1.9
		c1.1,0.5,2.3,0.7,3.6,0.7c1.8,0,3.3-0.4,4.6-1.2c1.3-0.8,2.3-1.9,2.8-3.1l0.1-0.1l-3.5-1.1L245.3,49.9z">
  </path>
  <rect x="192.7" y="32.7" class="st0" width="3.8" height="3.8">
  </rect>
  <rect x="192.7" y="38.2" class="st0" width="3.8" height="16.8">
  </rect>
  <path class="st0" d="M225.6,37.9c-1.8,0-4.2,0.6-5.8,3.3v-3h-3.4v16.8h3.7v-10c1.1-3.7,4-3.8,4.4-3.8c2.1,0,3.2,1.6,3.2,4.3v9.4
		h3.7V45C231.5,39.4,227.4,37.9,225.6,37.9">
  </path>
  <path class="st1" d="M131.2,5.7c-1.8,0-4.2,0.6-5.8,3.3V6H122v16.8h3.7v-10c1.1-3.7,4-3.8,4.4-3.8c2.1,0,3.2,1.6,3.2,4.3v9.4h3.7
		V12.7C137.1,7.2,133,5.7,131.2,5.7">
  </path>
  <path class="st1" d="M166.1,11.1c-0.4-1-0.9-2-1.6-2.7c-0.7-0.8-1.7-1.4-2.8-1.9c-1.1-0.5-2.3-0.7-3.6-0.7c-1.3,0-2.5,0.2-3.6,0.7
		c-1.1,0.5-2,1.1-2.8,1.9c-0.8,0.8-1.4,1.7-1.8,2.8c-0.4,1.1-0.6,2.2-0.6,3.4c0,1.2,0.2,2.3,0.6,3.3c0.4,1,1,2,1.8,2.8
		c0.8,0.8,1.7,1.4,2.8,1.9c1.1,0.5,2.3,0.7,3.6,0.7c1.8,0,3.5-0.4,4.8-1.2c1.4-0.8,2.4-1.9,3-3.1l0.1-0.1l-3.4-1l0,0.1
		c-0.2,0.4-0.4,0.6-0.7,0.9c-0.3,0.3-0.6,0.5-1,0.7c-0.4,0.2-0.8,0.4-1.3,0.5c-1.1,0.3-2.2,0.2-3.2-0.2c-0.6-0.2-1.1-0.5-1.5-0.9
		c-0.4-0.4-0.8-0.9-1.1-1.4c-0.3-0.5-0.4-1.1-0.5-1.7h13.3l0-0.1c0-0.1,0-0.3,0.1-0.6c0-0.2,0-0.5,0-0.7
		C166.6,13.2,166.5,12.1,166.1,11.1 M162.9,13.1h-9.6c0.1-0.6,0.2-1.2,0.5-1.7c0.3-0.6,0.6-1,1-1.4c0.4-0.4,0.9-0.7,1.5-0.9
		c1.1-0.4,2.5-0.4,3.7,0C160.8,9.4,162.8,10.6,162.9,13.1">
  </path>
  <path class="st0" d="M214.6,43.3c-0.4-1-0.9-2-1.6-2.7c-0.7-0.8-1.7-1.4-2.8-1.9c-1.1-0.5-2.3-0.7-3.6-0.7c-1.3,0-2.5,0.2-3.6,0.7
		c-1.1,0.5-2,1.1-2.8,1.9c-0.8,0.8-1.4,1.7-1.8,2.8c-0.4,1.1-0.6,2.2-0.6,3.4c0,1.2,0.2,2.3,0.6,3.3c0.4,1,1,2,1.8,2.8
		c0.8,0.8,1.7,1.4,2.8,1.9c1.1,0.5,2.3,0.7,3.6,0.7c1.8,0,3.5-0.4,4.8-1.2c1.4-0.8,2.4-1.9,3-3.1l0.1-0.1l-3.4-1l0,0.1
		c-0.2,0.4-0.4,0.6-0.7,0.9c-0.3,0.3-0.6,0.5-1,0.7c-0.4,0.2-0.8,0.4-1.3,0.5c-1.1,0.3-2.2,0.2-3.2-0.2c-0.6-0.2-1.1-0.5-1.5-0.9
		c-0.4-0.4-0.8-0.9-1.1-1.4c-0.3-0.5-0.4-1.1-0.5-1.7h13.3l0-0.1c0-0.1,0-0.3,0.1-0.6c0-0.2,0-0.5,0-0.7
		C215.2,45.4,215,44.3,214.6,43.3 M211.4,45.2h-9.6c0.1-0.6,0.2-1.2,0.5-1.7c0.3-0.6,0.6-1,1-1.4c0.4-0.4,0.9-0.7,1.5-0.9
		c1.1-0.4,2.5-0.4,3.7,0C209.3,41.5,211.4,42.8,211.4,45.2">
  </path>
  <path class="st0" d="M265.9,43.3c-0.4-1-0.9-2-1.6-2.7c-0.7-0.8-1.7-1.4-2.8-1.9c-1.1-0.5-2.3-0.7-3.6-0.7c-1.3,0-2.5,0.2-3.6,0.7
		c-1.1,0.5-2,1.1-2.8,1.9c-0.8,0.8-1.4,1.7-1.8,2.8c-0.4,1.1-0.6,2.2-0.6,3.4c0,1.2,0.2,2.3,0.6,3.3c0.4,1,1,2,1.8,2.8
		c0.8,0.8,1.7,1.4,2.8,1.9c1.1,0.5,2.3,0.7,3.6,0.7c1.8,0,3.5-0.4,4.8-1.2c1.4-0.8,2.4-1.9,3-3.1l0.1-0.1l-3.4-1l0,0.1
		c-0.2,0.4-0.4,0.6-0.7,0.9c-0.3,0.3-0.6,0.5-1,0.7c-0.4,0.2-0.8,0.4-1.3,0.5c-1.1,0.3-2.2,0.2-3.2-0.2c-0.6-0.2-1.1-0.5-1.5-0.9
		c-0.4-0.4-0.8-0.9-1.1-1.4c-0.3-0.5-0.4-1.1-0.5-1.7h13.3l0-0.1c0-0.1,0-0.3,0.1-0.6c0-0.2,0-0.5,0-0.7
		C266.5,45.4,266.3,44.3,265.9,43.3 M262.7,45.2h-9.6c0.1-0.6,0.2-1.2,0.5-1.7c0.3-0.6,0.6-1,1-1.4c0.4-0.4,0.9-0.7,1.5-0.9
		c1.1-0.4,2.5-0.4,3.7,0C260.6,41.5,262.7,42.8,262.7,45.2">
  </path>
  <path class="st1" d="M181.5,6v2.8c-0.6-0.9-1.4-1.7-2.3-2.2c-1-0.6-2.2-0.9-3.6-0.9c-1.2,0-2.2,0.2-3.2,0.7c-1,0.5-1.8,1.1-2.5,1.9
		c-0.7,0.8-1.2,1.7-1.6,2.8c-0.4,1.1-0.6,2.2-0.6,3.4c0,1.1,0.2,2.2,0.6,3.2c0.4,1,0.9,1.9,1.6,2.7c0.7,0.8,1.5,1.4,2.4,1.9
		c0.9,0.5,2,0.7,3.1,0.7c1.2,0,2.4-0.3,3.5-0.8c1-0.5,1.7-1.1,2.4-2.1v2.4c0,3.1-2.3,4.6-5.5,4.6c-3.6,0-5.7-2.4-5.7-2.4l-2.1,2.5
		c0,0,2.9,3.2,7.7,3.2c1.3,0,2.5-0.2,3.6-0.5c1.1-0.3,2.1-0.8,2.9-1.5c2.1-1.8,2.6-4,2.6-6.5V6H181.5z M180.7,16.5
		c-1.3,3.1-3.7,3.2-4.4,3.2c-0.7,0-3.1-0.1-4.4-3.2c-0.3-0.6-0.4-1.3-0.4-2c0-0.7,0.1-1.4,0.3-2.1c0.2-0.7,0.5-1.3,1-1.8
		c0.4-0.5,0.9-0.9,1.5-1.3c0.6-0.3,1.3-0.5,2-0.5c0.7,0,1.5,0.2,2,0.5c0.6,0.3,1.1,0.7,1.5,1.3c0.4,0.5,0.7,1.1,1,1.8
		c0.2,0.7,0.3,1.3,0.3,2.1C181.1,15.2,181,15.9,180.7,16.5">
  </path>
  <path class="st0" d="M149.6,51.8c-0.8,0-1-0.5-1-1.2V32.7h-3.8v8.1c-0.6-0.7-1.3-1.3-2.2-1.8c-1-0.6-2.2-0.8-3.6-0.8
		c-1.1,0-2.1,0.2-3,0.7c-0.9,0.5-1.7,1.1-2.4,1.9c-0.7,0.8-1.2,1.7-1.6,2.7c-0.4,1-0.6,2.1-0.6,3.3c0,1.2,0.2,2.4,0.6,3.4
		c0.4,1.1,1,2,1.7,2.8c0.7,0.8,1.6,1.4,2.5,1.9c1,0.5,2,0.7,3.2,0.7c2.6,0,4.9-1.2,5.9-3.2l0,0.6c0,0.6,0.3,1.3,0.8,1.7
		c0.5,0.4,1.1,0.6,1.8,0.6c1.2,0,1.7-0.3,1.7-0.3v-3.1L149.6,51.8z M135.4,46.6c0-0.7,0.1-1.4,0.4-2.1c0.2-0.7,0.6-1.2,1-1.7
		c0.4-0.5,0.9-0.9,1.5-1.2c0.6-0.3,1.2-0.5,1.9-0.5c0.6,0,1.2,0.2,1.8,0.4c0.6,0.3,1.1,0.7,1.6,1.2c0.5,0.5,0.8,1,1.1,1.7
		c0.3,0.7,0.4,1.8,0.4,2.5c0,0.7-0.1,1.4-0.4,2.1c-0.2,0.7-0.6,1.3-1,1.8c-0.4,0.5-0.9,0.9-1.5,1.2c-0.6,0.3-1.2,0.5-1.9,0.5
		c-0.6,0-1.2-0.2-1.8-0.4c-0.6-0.3-1.2-0.7-1.6-1.2c-0.5-0.5-0.8-1.1-1.1-1.7C135.6,48.5,135.4,47.3,135.4,46.6">
  </path>
  <path class="st1" d="M221,19.6c-1.1,0.2-1.8,0-2-0.2c-0.3-0.2-0.5-0.6-0.5-1.2V1h-3.7v17.3c0,4.6,3.7,4.7,4.2,4.7
		c0.8,0,1.5-0.1,2.1-0.2V19.6z">
  </path>
  <g>
   <rect y="40" class="st0" width="10.9" height="15.3">
   </rect>
  </g>
  <g>
   <path class="st0" d="M93,40c-0.3,1.2-0.8,2.3-1.7,3.2c-1.2,1.2-2.8,1.9-4.5,2l-0.3,0c-1.6,0-3.1-0.6-4.3-1.6
			C81,42.7,80.3,41.4,80,40H69.1c0.1,1.2,0.4,2.4,0.4,2.4C71.2,50.2,78,55.8,86,56c0,0,0.3,0,0.5,0c9.1,0,16.6-7,17.4-16H93z">
   </path>
  </g>
  <g>
   <polygon class="st0" points="13.5,55.3 24.6,55.3 31.2,40 20,40 		">
   </polygon>
   <polygon class="st0" points="65.2,40 54.2,40 60.6,55.3 71.7,55.3 		">
   </polygon>
  </g>
  <g>
   <path class="st0" d="M173.9,46.1c-0.4-0.7-0.9-1.3-1.5-1.7c-0.6-0.5-1.4-0.9-2.3-1.2c-0.9-0.3-1.9-0.6-3-0.9
			c-0.9-0.2-1.7-0.4-2.4-0.6c-0.7-0.2-1.2-0.4-1.7-0.6c-0.4-0.2-0.8-0.5-1-0.8c-0.2-0.3-0.3-0.7-0.3-1.2c0-0.9,0.3-1.5,1-2
			c0.7-0.5,1.7-0.7,3.2-0.7c0.7,0,1.3,0.1,1.9,0.2c0.6,0.1,1.2,0.3,1.7,0.5c0.5,0.2,1,0.4,1.4,0.7c0.3,0.2,0.7,0.5,1,0.7l1.7-3.1
			l-0.1-0.1c-1-0.7-2.1-1.3-3.4-1.8c-1.3-0.5-2.8-0.7-4.3-0.7c-1.2,0-2.2,0.1-3.2,0.4c-1,0.3-1.9,0.7-2.6,1.3
			c-0.7,0.6-1.3,1.3-1.7,2.1c-0.4,0.8-0.6,1.8-0.6,2.9c0,0.9,0.1,1.6,0.4,2.3c0.3,0.6,0.7,1.2,1.3,1.6c0.5,0.5,1.2,1,2.1,1.3
			c0.8,0.3,1.8,0.6,2.9,0.9c0.9,0.2,1.8,0.5,2.5,0.7c0.7,0.2,1.4,0.5,1.9,0.7c0.5,0.3,0.9,0.6,1.2,0.9c0.3,0.3,0.4,0.8,0.4,1.3
			c0,0.8-0.3,1.4-1.1,1.9c-0.7,0.4-1.8,0.6-3.1,0.6c-0.8,0-1.7-0.1-2.4-0.3c-0.8-0.2-1.5-0.4-2.2-0.7c-0.7-0.3-1.3-0.5-1.8-0.8
			c-0.4-0.2-1-0.6-1.3-0.9l-1.7,3.2l0.1,0.1c1.3,1,2.7,1.7,4.4,2.2c1.6,0.5,3.3,0.8,5,0.8c1.1,0,2.2-0.1,3.2-0.4
			c1-0.2,1.9-0.6,2.6-1.1c0.8-0.5,1.4-1.2,1.8-2c0.4-0.8,0.7-1.8,0.7-2.9C174.5,47.9,174.3,46.8,173.9,46.1z">
   </path>
  </g>
  <g>
   <path class="st1" d="M8.7,0.7H2.2C1,0.7,0,1.6,0,2.8V40h10.9V2.8C10.9,1.6,9.9,0.7,8.7,0.7z">
   </path>
   <path class="st1" d="M100.1,27.7c-2.4-3-5.8-5.2-9.5-6.1c0,0-5-1.1-6.2-1.4c-2-0.6-3.5-2.5-3.5-4.6c0-2.6,2.2-4.8,4.8-4.8
			c2.3,0,4.3,1.6,4.7,3.8c0.1,0.6,0.5,1.1,1,1.4c0.5,0.3,1.1,0.5,1.7,0.3l6.2-1.2c0.6-0.1,1.1-0.5,1.4-1c0.3-0.5,0.4-1.1,0.3-1.7
			C99.5,5.3,93.1,0,85.7,0c-8.6,0-15.6,7-15.6,15.6c0,7.1,4.7,13.3,11.5,15c0,0,3.3,0.8,6.5,1.5c1.4,0.3,2.7,1.2,3.6,2.3
			c0.9,1.2,1.4,2.6,1.4,4.1c0,0.3,0,0.7-0.1,1c0,0,0,0.3-0.1,0.4h10.9l0-0.3c0-0.4,0-0.7,0-1.1C103.9,34.6,102.5,30.8,100.1,27.7z">
   </path>
  </g>
  <path class="st1" d="M44.1,0.7h-3c-2.6,0-4.9,1.6-6,3.9L20,40h11.2l11.4-26.4l7,16.1h-7.3c-2.4,0-3.6,1.1-4.3,2.8L34.9,40h30.3
		L50.1,4.7C49.1,2.3,46.7,0.7,44.1,0.7z">
  </path>
 </g>
</svg>