<svg version="1.1" id="Layer_1" xmlns:x="ns_extend;" xmlns:i="ns_ai;" xmlns:graph="ns_graphs;" xmlns="http://www.w3.org/2000/svg" xmlns:xlink="http://www.w3.org/1999/xlink" x="0px" y="0px" viewBox="0 0 147.2 56.1" style="enable-background:new 0 0 147.2 56.1;" xml:space="preserve">
 <style type="text/css">
  .st0{fill-rule:evenodd;clip-rule:evenodd;fill:#1981C3;}
	.st1{filter:url(#Adobe_OpacityMaskFilter);}
	.st2{fill-rule:evenodd;clip-rule:evenodd;fill:#FFFFFF;}
	.st3{mask:url(#mask-2_2_);fill-rule:evenodd;clip-rule:evenodd;fill:#1981C3;}
	.st4{filter:url(#Adobe_OpacityMaskFilter_1_);}
	.st5{mask:url(#mask-2_1_);fill-rule:evenodd;clip-rule:evenodd;fill:#1981C3;}
 </style>
 <metadata>
  <sfw xmlns="ns_sfw;">
   <slices>
   </slices>
   <sliceSourceBounds bottomLeftOrigin="true" height="56.1" width="147.2" x="126.8" y="-228.2">
   </sliceSourceBounds>
  </sfw>
 </metadata>
 <g>
  <desc>
   Created with Sketch.
  </desc>
  <g id="Symbols">
   <g id="tranparent-header" transform="translate(-210.000000, -22.000000)">
    <g id="logo">
     <g transform="translate(210.000000, 22.000000)">
      <polyline id="Fill-1" class="st0" points="31.7,0 21,38.3 2.9,38.3 13.5,0 31.7,0 					">
      </polyline>
      <g id="Group-5">
       <g id="Clip-3">
       </g>
       <defs>
        <filter id="Adobe_OpacityMaskFilter" filterUnits="userSpaceOnUse" x="24" y="0" width="123.1" height="38.3">
         <feColorMatrix type="matrix" values="1 0 0 0 0  0 1 0 0 0  0 0 1 0 0  0 0 0 1 0">
         </feColorMatrix>
        </filter>
       </defs>
       <mask maskUnits="userSpaceOnUse" x="24" y="0" width="123.1" height="38.3" id="mask-2_2_">
        <g class="st1">
         <polygon id="path-1_2_" class="st2" points="0.1,56.1 147.2,56.1 147.2,0 0.1,0 								">
         </polygon>
        </g>
       </mask>
       <path id="Fill-2" class="st3" d="M34.7,0h16.4c5.9,0,11,5.8,11.5,13c2.7-7.7,9.8-13,15.3-13h38.3l3.6,6.5l6.7-6.5h20.7
							L127,19.5l10.4,18.8l-18.4,0l-4-7.3l-7.6,7.3H74c-5.1,0-11.6-5.2-12.6-13.2C58.1,33,52,38.3,45.2,38.3H24L34.7,0z M86.8,10.2
							c-2.7,0-4.4,2.1-4.4,2.7h14.4L95.6,17H46.1l-0.9,3.1h49.5l-1.2,4.4H80.2c0.4,1.7,2.4,3.1,3.6,3.1h8.9l-1.9,6.8l14.8-14.3h10.1
							l0.8-3.1h-9.3L99.5,3l-2,7.2L86.8,10.2L86.8,10.2z">
       </path>
       <defs>
        <filter id="Adobe_OpacityMaskFilter_1_" filterUnits="userSpaceOnUse" x="0" y="43.5" width="11.2" height="12.6">
         <feColorMatrix type="matrix" values="1 0 0 0 0  0 1 0 0 0  0 0 1 0 0  0 0 0 1 0">
         </feColorMatrix>
        </filter>
       </defs>
       <mask maskUnits="userSpaceOnUse" x="0" y="43.5" width="11.2" height="12.6" id="mask-2_1_">
        <g class="st4">
         <polygon id="path-1_1_" class="st2" points="0.1,56.1 147.2,56.1 147.2,0 0.1,0 								">
         </polygon>
        </g>
       </mask>
       <path id="Fill-4" class="st5" d="M8.6,47.9c0.1-1.5-0.7-2.2-1.9-2.2c-2.6,0-4,2.7-4.1,5.1c-0.1,1.7,0.6,3.1,2.4,3.1
							c1.4,0,2.6-1.1,2.9-2.4h2.5c-1.3,3.4-3.1,4.6-5.6,4.6c-3.2,0-5-1.9-4.8-5.3c0.3-3.9,2.9-7.3,6.8-7.3c2.7,0,4.6,1.5,4.3,4.5
							H8.6">
       </path>
      </g>
      <path id="Fill-6" class="st0" d="M18.4,53.8c2.5,0,3.9-2.8,4.1-5c0.1-1.7-0.5-3.1-2.4-3.1c-2.6,0-4,2.7-4.1,5.1
						C15.9,52.4,16.6,53.8,18.4,53.8z M20.3,43.5c3.1,0,5,1.8,4.8,5.2c-0.3,4-2.8,7.4-6.8,7.4c-3.2,0-5-1.9-4.8-5.3
						C13.7,46.9,16.4,43.5,20.3,43.5L20.3,43.5z">
      </path>
      <path id="Fill-7" class="st0" d="M30.8,49.2h2.3c1.3,0,2.7-0.6,2.8-1.9c0.1-1.3-0.8-1.5-1.8-1.5h-2.4L30.8,49.2z M29.8,43.8
						h5.5c2.1,0,3.4,0.8,3.2,3.2c-0.1,1.6-1.3,3-2.9,3.2l0,0c0.9,0.3,1.1,1.2,1,2.1c0,0.5-0.2,1.3-0.2,2.1c0,0.5,0,1,0.1,1.4H34
						c0-0.3-0.1-0.5-0.1-0.8c0.1-0.8,0.2-1.6,0.3-2.4c0.1-1.2-0.6-1.4-1.6-1.4h-2.4L29,55.8h-2.5L29.8,43.8L29.8,43.8z">
      </path>
      <path id="Fill-8" class="st0" d="M43.9,49.4h2.6c1.3,0,2.1-0.7,2.2-2.1c0.1-1.2-0.8-1.5-1.7-1.5h-2.2L43.9,49.4z M42.9,43.8
						h4.6c2.3,0,4,0.8,3.8,3.5c-0.2,2.7-2.4,4.2-4.8,4.2h-3.1l-1.2,4.3h-2.5L42.9,43.8L42.9,43.8z">
      </path>
      <path id="Fill-9" class="st0" d="M57.8,53.8c2.5,0,3.9-2.8,4.1-5c0.1-1.7-0.5-3.1-2.4-3.1c-2.6,0-4,2.7-4.1,5.1
						C55.3,52.4,56,53.8,57.8,53.8z M59.7,43.5c3.1,0,5,1.8,4.8,5.2c-0.3,4-2.8,7.4-6.8,7.4c-3.2,0-5-1.9-4.8-5.3
						C53.2,46.9,55.8,43.5,59.7,43.5L59.7,43.5z">
      </path>
      <path id="Fill-10" class="st0" d="M70.3,49.2h2.3c1.3,0,2.7-0.6,2.8-1.9c0.1-1.3-0.8-1.5-1.8-1.5h-2.4L70.3,49.2z M69.2,43.8
						h5.5c2.1,0,3.4,0.8,3.2,3.2c-0.1,1.6-1.3,3-2.9,3.2l0,0c0.9,0.3,1.1,1.2,1,2.1c0,0.5-0.2,1.3-0.2,2.1c0,0.5,0,1,0.1,1.4h-2.5
						c0-0.3-0.1-0.5-0.1-0.8c0.1-0.8,0.2-1.6,0.3-2.4c0.1-1.2-0.6-1.4-1.6-1.4h-2.4l-1.3,4.7h-2.5L69.2,43.8L69.2,43.8z">
      </path>
      <path id="Fill-11" class="st0" d="M83.3,51.1h3.1l-0.2-4.8h0L83.3,51.1z M85.5,43.8h2.6l1.1,12h-2.5l-0.2-2.7h-4.3l-1.6,2.7
						h-2.7L85.5,43.8L85.5,43.8z">
      </path>
      <polyline id="Fill-12" class="st0" points="95.9,46 92.3,46 92.9,43.8 102.6,43.8 102,46 98.5,46 95.8,55.8 93.3,55.8 95.9,46 
											">
      </polyline>
      <polyline id="Fill-13" class="st0" points="105.3,43.8 107.9,43.8 104.6,55.8 102,55.8 105.3,43.8 					">
      </polyline>
      <path id="Fill-14" class="st0" d="M114.2,53.8c2.5,0,3.9-2.8,4.1-5c0.1-1.7-0.5-3.1-2.4-3.1c-2.6,0-4,2.7-4.1,5.1
						C111.7,52.4,112.4,53.8,114.2,53.8z M116.1,43.5c3.1,0,5,1.8,4.8,5.2c-0.3,4-2.8,7.4-6.8,7.4c-3.2,0-5-1.9-4.8-5.3
						C109.6,46.9,112.2,43.5,116.1,43.5L116.1,43.5z">
      </path>
      <polyline id="Fill-15" class="st0" points="125.6,43.8 128.2,43.8 130.8,52.3 130.8,52.3 133,43.8 135.4,43.8 132.1,55.8 
						129.6,55.8 127,47.3 126.9,47.3 124.7,55.8 122.3,55.8 125.6,43.8 					">
      </polyline>
     </g>
    </g>
   </g>
  </g>
 </g>
</svg>