<svg version="1.1" id="Layer_1" xmlns:x="ns_extend;" xmlns:i="ns_ai;" xmlns:graph="ns_graphs;" xmlns="http://www.w3.org/2000/svg" xmlns:xlink="http://www.w3.org/1999/xlink" x="0px" y="0px" viewBox="0 0 160 55.4" style="enable-background:new 0 0 160 55.4;" xml:space="preserve">
 <style type="text/css">
  .st0{fill-rule:evenodd;clip-rule:evenodd;fill:#7E91B9;}
	.st1{fill-rule:evenodd;clip-rule:evenodd;fill:#0B3090;}
 </style>
 <metadata>
  <sfw xmlns="ns_sfw;">
   <slices>
   </slices>
   <sliceSourceBounds bottomLeftOrigin="true" height="55.4" width="160" x="120.3" y="-235.5">
   </sliceSourceBounds>
  </sfw>
 </metadata>
 <g>
  <path class="st0" d="M63.7,39.6c0,0-5.8,15-26,15.8C37.7,55.4,52.5,51.5,63.7,39.6">
  </path>
  <path class="st1" d="M20.8,46.2h3.9V22.4h-3.9V46.2z M48.8,46.2V30.5c0-2.6,0-5.5-4.1-5.5c-2.3,0-5.7,1.4-7.7,2.2v18.9h-4.5V21.6
		h4.1v2.2c4.7-2.2,6.3-2.7,9.5-2.7c3.4,0,7.1,2.1,7.1,7.5v17.6H48.8L48.8,46.2z M77.2,33.5c0,5.6-2.4,9.3-7,9.3c-4.6,0-7-3.6-7-9.3
		c0-5.6,2.4-9,7-9C74.8,24.5,77.2,27.9,77.2,33.5 M82,33.5c0-7.6-4.3-12.4-11.7-12.4c-7.4,0-11.7,4.7-11.7,12.4
		c0,7.5,4.2,12.7,11.7,12.7C77.1,46.2,82,40.9,82,33.5 M102.7,29.5c0,3.6-1.9,5.2-5.5,5.2c-3.1,0-5.3-1.6-5.3-5.2
		c0-3,1.9-4.9,5.3-4.9C100.5,24.6,102.7,26.4,102.7,29.5 M110.6,24.9v-3.7l-10.1,0.6c-0.9-0.1-1.9-0.3-3.3-0.3c-5.7,0-10,2.7-10,8.3
		c0,4,2.2,5.8,3.9,6.7c-2.2,1.6-3.4,3.1-3.4,5.4c0,4.2,4.6,4.6,9.3,4.6h3.2c1.6,0,5.1,0,5.1,2.2c0,2-3.6,3.6-8.4,3.6
		c-2.5,0-5.8-0.5-8.3-0.9v3.4c3.3,0.7,6.3,0.8,9.1,0.8c7.3,0,12.5-2.3,12.5-7.5c0-7.3-10.9-5.2-15.6-5.7c-1.7-0.2-2.4-0.7-2.4-1.4
		c0-1.3,1.5-2.4,2.5-3.1c0.8,0.1,1.7,0.2,2.5,0.2c8.3,0,10.3-4.8,10.3-8.3c0-2.2-0.8-4-2-5.2C107.1,24.7,109.6,24.9,110.6,24.9
		 M129,31.9h-12.3c0.1-4.7,2.2-7.5,6.1-7.5C127.4,24.4,128.9,27.5,129,31.9z M134,35.1v-1.2c0-7.7-3.2-12.8-11.2-12.8
		c-5.9,0-10.9,3.6-10.9,12c0,8.2,4.5,13,12.6,13c2.5,0,4.9-0.1,7.7-0.9v-3.2c-2.2,0.4-4.2,0.7-6.3,0.7c-3.3,0-8.5-0.2-9.2-7.6
		L134,35.1L134,35.1z M155.4,46.2V30.5c0-2.6,0-5.5-4.1-5.5c-2.3,0-5.7,1.4-7.7,2.2v18.9h-4.5V21.6h4.1v2.2c4.7-2.2,6.3-2.7,9.6-2.7
		c3.4,0,7.1,2.1,7.1,7.5v17.6H155.4z">
  </path>
  <path class="st0" d="M0,4.9c0,0,103.5-9.3,70.1,28.1C70.1,33,95.5-15.3,0,4.9">
  </path>
 </g>
</svg>