<svg version="1.1" id="Layer_1" xmlns:x="ns_extend;" xmlns:i="ns_ai;" xmlns:graph="ns_graphs;" xmlns="http://www.w3.org/2000/svg" xmlns:xlink="http://www.w3.org/1999/xlink" x="0px" y="0px" viewBox="0 0 636 45" style="enable-background:new 0 0 636 45;" xml:space="preserve">
 <style type="text/css">
  .st0{fill:#1C1C1B;}
	.st1{clip-path:url(#SVGID_2_);}
	.st2{clip-path:url(#SVGID_4_);}
 </style>
 <metadata>
  <sfw xmlns="ns_sfw;">
   <slices>
   </slices>
   <sliceSourceBounds bottomLeftOrigin="true" height="45" width="636" x="-228.5" y="-214.8">
   </sliceSourceBounds>
  </sfw>
 </metadata>
 <g>
  <path class="st0" d="M0,38h7.4V0.7H0V38z">
  </path>
  <path class="st0" d="M54.1,0.7L54,38h-7L36.4,23.6c-0.9-1.2-1.7-2.3-2.6-3.5c-0.8-1.1-1.6-2.2-2.4-3.4c-0.7-1-1.4-1.9-1.8-2.5
		l-0.7-1h0V38h-7.4V0.7h7l10.8,14.5c0.6,0.9,1.4,1.9,2.2,3c0.8,1.1,1.6,2.2,2.4,3.2c0.7,1.1,1.4,2,1.9,2.7l0.8,1.1h0.1V0.7">
  </path>
  <path class="st0" d="M95.3,0.7v6.9H83.6V38h-7.4V7.6H64.5V0.7">
  </path>
  <path class="st0" d="M132.4,31.1V38h-26.7V0.7h26.4v6.9h-19v7.9h15V22h-15v9">
  </path>
  <path class="st0" d="M153.2,18.6l6.6,0.1c1,0,1.9-0.2,2.7-0.5c0.7-0.3,1.4-0.7,1.9-1.3c0.5-0.5,0.9-1.1,1.1-1.8
		c0.3-0.6,0.4-1.3,0.4-2c0-0.7-0.1-1.4-0.4-2.1c-0.3-0.6-0.7-1.2-1.1-1.8c-0.5-0.6-1.2-1-1.9-1.3c-0.8-0.3-1.6-0.5-2.6-0.5h-6.6
		L153.2,18.6z M166.6,38l-7.4-12.7h-6.1V38h-7.4V0.8h13.1c2.3,0,4.4,0.3,6.2,0.8c1.8,0.6,3.4,1.4,4.6,2.6c1.2,1.1,2.2,2.5,2.9,4
		c0.7,1.5,1,3.2,1,5.1c0,2.6-0.6,4.7-1.8,6.6c-1.2,1.8-3,3.2-5.3,4.1l8.5,14.1">
  </path>
  <path class="st0" d="M199.8,18.7L199.8,18.7c2.2,0,3.9-0.4,5.1-1.4c1.2-1,1.8-2.4,1.8-4.2c0-1.8-0.6-3.1-1.8-4.1
		c-1.2-1-2.9-1.4-5-1.4H194v11.1H199.8z M199.9,0.7c2.2,0,4.3,0.3,6,0.9c1.8,0.6,3.2,1.4,4.5,2.4c1.2,1.1,2.2,2.4,2.8,3.9
		c0.6,1.5,1,3.3,1,5.3c0,2-0.3,3.7-1,5.3c-0.6,1.5-1.6,2.9-2.8,3.9c-1.2,1.1-2.7,1.9-4.5,2.4c-1.8,0.6-3.8,0.9-6,0.9H194V38h-7.4
		V0.7">
  </path>
  <path class="st0" d="M243.8,24.3l-3.8-9.3c-0.2-0.5-0.4-1.1-0.6-1.7c-0.2-0.6-0.4-1.2-0.5-1.7c-0.2-0.5-0.3-1-0.4-1.3l-0.2-0.5h0
		l-0.2,0.5c-0.1,0.3-0.3,0.7-0.4,1.3c-0.2,0.5-0.3,1.1-0.5,1.6c-0.2,0.6-0.4,1.2-0.6,1.7l-3.7,9.4H243.8z M246.3,30.9h-16.1
		l-2.8,7.1h-8l15.3-37.2h7L257,38h-8">
  </path>
  <path class="st0" d="M274.6,18.6l6.5,0.1c1,0,1.9-0.2,2.7-0.5c0.7-0.3,1.4-0.7,1.9-1.3c0.5-0.5,0.9-1.1,1.1-1.8
		c0.3-0.6,0.4-1.3,0.4-2c0-0.7-0.1-1.4-0.4-2.1c-0.3-0.6-0.6-1.2-1.1-1.8c-0.5-0.6-1.2-1-1.9-1.3c-0.7-0.3-1.6-0.5-2.6-0.5h-6.6
		L274.6,18.6z M288,38l-7.4-12.7h-6.1V38h-7.4V0.8h13c2.3,0,4.4,0.3,6.2,0.8c1.8,0.6,3.4,1.4,4.6,2.6c1.2,1.1,2.2,2.5,2.9,4
		c0.7,1.5,1,3.2,1,5.1c0,2.6-0.6,4.7-1.8,6.6c-1.2,1.8-3,3.2-5.3,4.1l8.5,14.1">
  </path>
  <path class="st0" d="M315.4,7.6v9.1h14.4v6.7h-14.4V38H308V0.7h25.8v6.9">
  </path>
  <path class="st0" d="M376.8,0.7l-0.1,21.1c0,2.7-0.4,5.1-1.1,7.2c-0.7,2.1-1.8,3.9-3.2,5.3c-1.4,1.4-3.1,2.5-5.1,3.2
		c-2,0.7-4.2,1.1-6.7,1.1c-2.4,0-4.7-0.4-6.7-1.1c-2-0.7-3.7-1.8-5.1-3.2c-1.4-1.4-2.4-3.2-3.2-5.3c-0.7-2.1-1.1-4.6-1.1-7.3V0.7
		h7.4v21c0,3.5,0.7,6,2.2,7.7c1.4,1.6,3.6,2.4,6.5,2.4c2.8,0,5-0.8,6.4-2.4c1.4-1.7,2.2-4.2,2.2-7.7v-21">
  </path>
  <path class="st0" d="M426.5,0.7L426.2,38h-7.3V26.4c0-2,0-3.8,0.1-5.4c0-1.6,0.1-3,0.1-4.2c0-1.2-0.1-2.1,0-2.7l0.1-1h-0.1
		l-0.4,0.7c-0.3,0.5-0.6,1.1-1,1.7c-0.4,0.6-0.7,1.3-1.1,1.9c-0.4,0.6-0.6,1.1-0.8,1.3l-5.8,10h-3.8l-5.8-10
		c-0.2-0.3-0.4-0.7-0.8-1.3c-0.4-0.6-0.7-1.3-1.1-1.9c-0.4-0.6-0.7-1.2-1-1.7l-0.4-0.7h0l0,1c0.1,0.6,0.1,1.5,0.1,2.7
		c0.1,1.2,0.1,2.6,0.2,4.2c0,1.6,0,3.4,0,5.3V38h-7.3V0.7h7l7.7,12.8c0.7,1.2,1.3,2.1,1.7,2.9c0.4,0.8,0.8,1.3,1.1,1.8
		c0.3,0.4,0.4,0.7,0.5,0.9l0.2,0.3h0.1l0.2-0.3c0.1-0.2,0.3-0.5,0.5-0.9c0.3-0.4,0.6-1,1.1-1.8c0.4-0.7,1-1.7,1.7-2.9l7.8-12.8">
  </path>
  <path class="st0" d="M459.5,12h-0.4c-0.2-0.9-0.6-1.7-1.1-2.4c-0.5-0.7-1-1.3-1.7-1.8c-0.7-0.5-1.4-0.8-2.2-1.1
		c-0.8-0.2-1.6-0.3-2.4-0.3c-1.7,0-3,0.4-4,1.1c-1,0.7-1.5,1.6-1.5,2.8c0,0.7,0.3,1.4,0.7,1.9c0.5,0.5,1.1,1,2,1.4
		c0.9,0.4,1.8,0.8,2.9,1.2l3.4,1.1c1.3,0.4,2.7,1,4.1,1.7c1.4,0.6,2.7,1.4,3.8,2.3c1.1,0.9,2,2,2.7,3.2c0.7,1.2,1.1,2.7,1.1,4.3
		c0,1.6-0.3,3.2-1,4.6c-0.7,1.4-1.7,2.6-2.9,3.6c-1.3,1.1-2.8,1.9-4.5,2.3c-1.8,0.6-3.7,0.8-5.8,0.8c-3.9,0-7.2-1-9.8-3
		c-2.6-2-4.4-4.7-5.4-8.2l7.1-1.9c0.2,0.8,0.5,1.6,1,2.4c0.5,0.8,1.1,1.5,1.8,2.1c0.7,0.6,1.5,1.1,2.5,1.4c1,0.4,2,0.5,3.2,0.5
		c2,0,3.6-0.4,4.6-1.3c1-0.9,1.5-1.9,1.5-3.1c0-1-0.3-1.8-0.8-2.4c-0.6-0.6-1.3-1.2-2.3-1.7c-1.1-0.5-2.2-0.9-3.3-1.3
		c-1.3-0.4-2.6-0.8-3.8-1.3c-1.2-0.4-2.3-0.9-3.4-1.4c-1.2-0.5-2.2-1.2-3.2-2c-1-0.8-1.8-1.8-2.4-2.9c-0.6-1.1-1-2.5-1-4.2
		c0-1.4,0.3-2.8,1-4.1c0.7-1.3,1.7-2.5,2.9-3.5c1.3-1,2.7-1.9,4.3-2.4c1.7-0.6,3.5-0.9,5.4-0.9c1.7,0,3.3,0.3,5,0.8
		c3,0.9,5.5,2.8,7.3,5.3c0.9,1.2,1.5,2.6,1.9,4">
  </path>
  <g>
   <defs>
    <rect id="SVGID_1_" x="475.2" y="30.7" width="10.2" height="14.3">
    </rect>
   </defs>
   <clipPath id="SVGID_2_">
    <use href="#SVGID_1_" style="overflow:visible;">
    </use>
   </clipPath>
   <g class="st1">
    <path class="st0" d="M480.7,38.3l-0.8,0c-0.7,0-1.3-0.4-1.9-0.9c-0.6-0.6-0.9-1.4-0.9-2.4c0-1,0.4-1.9,1.1-2.6
				c0.7-0.7,1.6-1.1,2.7-1.1c1,0,1.9,0.4,2.6,1.1c0.7,0.7,1.1,1.8,1.1,3c0,0.9-0.2,1.7-0.4,2.5c-0.3,0.9-0.7,1.7-1.1,2.6
				c-0.5,0.9-1.1,1.6-1.7,2.4c-0.6,0.7-1.3,1.4-2.1,2h-2.8c0.5-0.4,0.9-0.8,1.3-1.3c0.4-0.5,0.9-1.1,1.2-1.7
				c0.4-0.6,0.6-1.2,0.8-1.9c0.2-0.6,0.3-1.2,0.3-1.7">
    </path>
   </g>
  </g>
  <path class="st0" d="M516.1,38h7.4V0.7h-7.4V38z">
  </path>
  <path class="st0" d="M570.1,0.7L570,38h-7l-10.6-14.3c-0.9-1.2-1.7-2.3-2.6-3.5c-0.8-1.1-1.6-2.2-2.4-3.4c-0.7-1-1.4-1.9-1.8-2.5
		l-0.7-1h-0.1V38h-7.4V0.7h7l10.8,14.5c0.6,0.9,1.4,1.9,2.2,3c0.9,1.1,1.7,2.2,2.4,3.2c0.7,1.1,1.4,2,1.9,2.7l0.8,1.1h0V0.7">
  </path>
  <path class="st0" d="M610.6,11.8l-0.2,0.2c-1-1.4-2.4-2.6-4-3.3c-1.7-0.8-3.5-1.2-5.3-1.2c-1.6,0-3.3,0.3-4.8,0.9
		c-1.4,0.6-2.7,1.4-3.7,2.5c-1,1.1-1.8,2.4-2.3,3.8c-0.5,1.6-0.8,3.2-0.8,4.9c0,1.8,0.3,3.5,0.9,5c0.6,1.5,1.4,2.8,2.4,3.8
		c1,1,2.3,1.9,3.7,2.4c1.4,0.6,3,0.8,4.6,0.8c2.1,0,4.1-0.5,5.9-1.5c1.8-1,3.2-2.3,4.1-4l7.5,2c-0.8,1.6-1.8,3.1-2.9,4.5
		c-1.2,1.3-2.5,2.5-4,3.4c-1.5,1-3.2,1.7-4.9,2.2c-1.8,0.5-3.6,0.8-5.6,0.8c-2.7,0-5.2-0.5-7.5-1.4c-2.3-0.9-4.4-2.3-6.1-4
		c-1.8-1.7-3.1-3.8-4.2-6.2c-1-2.4-1.5-5-1.5-7.8c0-2.8,0.5-5.4,1.5-7.8c1-2.4,2.4-4.5,4.2-6.2c1.8-1.7,3.9-3.1,6.2-4
		c2.4-1,4.9-1.5,7.5-1.4c1.9,0,3.6,0.2,5.3,0.7c1.6,0.4,3.2,1.1,4.7,2c1.4,0.8,2.8,1.9,3.9,3.1c1.2,1.2,2.2,2.6,3,4">
  </path>
  <g>
   <defs>
    <rect id="SVGID_3_" x="626.8" y="30.7" width="9.2" height="8.2">
    </rect>
   </defs>
   <clipPath id="SVGID_4_">
    <use xlink:href="#SVGID_3_" style="overflow:visible;">
    </use>
   </clipPath>
   <g class="st2">
    <path class="st0" d="M629.8,37.6c-0.7-0.7-1.1-1.6-1.1-2.6c0-1,0.4-1.9,1.1-2.6c0.7-0.7,1.5-1.1,2.6-1.1c1,0,1.9,0.4,2.6,1.1
				c0.7,0.7,1.1,1.5,1.1,2.6c0,1-0.4,1.9-1.1,2.6c-0.7,0.6-1.5,1-2.6,1C631.4,38.6,630.5,38.2,629.8,37.6">
    </path>
   </g>
  </g>
 </g>
</svg>