<svg version="1.1" id="Layer_1" xmlns:x="ns_extend;" xmlns:i="ns_ai;" xmlns:graph="ns_graphs;" xmlns="http://www.w3.org/2000/svg" xmlns:xlink="http://www.w3.org/1999/xlink" x="0px" y="0px" viewBox="0 0 515.6 135.3" style="enable-background:new 0 0 515.6 135.3;" xml:space="preserve">
 <style type="text/css">
  .st0{fill:#0A1151;}
 </style>
 <metadata>
  <sfw xmlns="ns_sfw;">
   <slices>
   </slices>
   <sliceSourceBounds bottomLeftOrigin="true" height="135.3" width="515.6" x="-293.2" y="-241.6">
   </sliceSourceBounds>
  </sfw>
 </metadata>
 <g>
  <path class="st0" d="M495.7,47.1c-9.9-6.7-23.6-6.1-31.5,2.9c-6.4,7.1-11.3,15.6-17.2,24c7,4.8,13.5,9.2,19.9,13.5
		c9.4,6.3,22.8,5.9,30.5-2.4c6.7-7.3,12-16,18.1-24.4C508.4,55.7,502.1,51.3,495.7,47.1 M434.2,0c6,4.5,12.2,9.2,18.2,13.9
		c11.4,8.7,13.9,25.3,5.5,37.1c-4.4,6.3-8.9,12.6-13.6,19.2c-8.1-7.1-18.2-11.4-24.5-20.3c-6.2-8.9-6.9-19.1-1.3-28.6
		C423.1,14,428.8,7.4,434.2,0 M385.2,72.7l19.6,29.9l-20.7,31h19l11.2-16.7l11.6,16.7h19.8l-21.1-31.1l20.4-29.8h-19.4L415,88.9
		l-10.1-16.2H385.2z M365.9,89.4c-2.3-2-5.2-3-8.2-2.9c-3.2,0-6.3,1.1-8.9,3c-2.6,1.9-4.4,4.9-4.7,8.2h25.8
		C369.6,94.5,368.2,91.5,365.9,89.4L365.9,89.4z M381.1,125.7c-6.2,6.3-14.6,9.7-23.3,9.7c-8.2,0.3-16.2-2.8-22.1-8.5
		c-5.8-5.6-8.8-13.2-8.8-22.7c0-9.5,3-17.1,8.9-22.7c5.7-5.5,13.2-8.5,21.1-8.4c7.5-0.2,14.9,2.5,20.6,7.5c5.6,5,8.5,11.9,8.5,20.7
		v9H343c0.5,3.3,2.3,6.2,5,8.1c2.8,2.1,6.2,3.2,9.6,3.1c5.3,0.2,10.5-1.9,14.2-5.9L381.1,125.7z M287.6,89.1
		c2.1-2.3,5.1-3.7,8.2-3.7c6.4,0,9.5,4.6,9.5,13.9v34.2h16.7v-37c0-7.5-2.1-13.5-6.2-18c-3.9-4.4-9.5-6.9-15.3-6.8
		c-6.1,0-11.6,2.6-16.5,7.8v-6.9h-16.7v60.8h16.7V99.9C284.1,95.2,285.3,91.6,287.6,89.1 M221.8,99.9v33.7h-16.7V72.7h16.7v6.9
		c4.9-5.2,10.4-7.8,16.5-7.8c5.8-0.1,11.4,2.4,15.3,6.8c4.1,4.5,6.2,10.5,6.2,18v37h-16.7V99.4c0-9.3-3.2-13.9-9.5-13.9
		c-3.1,0-6.1,1.3-8.2,3.7C223,91.6,221.8,95.2,221.8,99.9 M177.4,117.4c-2.2,1.8-4.9,2.8-7.7,2.7c-2.4,0.1-4.7-0.5-6.7-1.9
		c-1.6-1.2-2.4-3-2.4-5c0-4.2,3.3-6.2,9.8-6.2h10.3v2.9C180.9,112.8,179.7,115.6,177.4,117.4 M197.5,95.5c0-7.8-2.3-13.5-6.9-17.2
		S180.1,73,172.8,73c-9.6-0.2-19.1,2.8-27,8.5l7.5,10.8c2.5-1.8,5.3-3.3,8.2-4.3c2.9-1.1,6-1.7,9.1-1.7c6.8,0,10.1,3.2,10.1,9.5v0.3
		h-11.5c-7.5,0-13.4,1.5-17.7,4.5c-4.3,3-6.5,7.6-6.5,13.7c-0.2,5.6,2.1,11,6.3,14.6c4.3,3.7,9.8,5.7,15.5,5.5
		c6.1,0,11.9-3,15.5-8.1v7.2h15.2L197.5,95.5z M116.2,119.7c5.5,0,10.4-2.8,14.8-8.4l9.7,11.2c-7.6,8.1-15.8,12.1-24.6,12.1
		c-8.3,0.2-16.3-2.9-22.4-8.6c-6.1-5.7-9.1-13.2-9.1-22.5C84.4,95,87.7,86.7,93.9,81c5.9-5.7,13.8-8.8,21.9-8.7
		c4.4,0,8.8,0.9,12.8,2.6c4.3,1.8,8.2,4.5,11.4,8l-8.5,11.5c-3.8-4.5-9.3-7.2-15.1-7.3c-4.1-0.1-8.1,1.5-11.1,4.3
		c-3.2,3.1-4.9,7.5-4.6,12c-0.3,4.5,1.4,8.9,4.6,12C108.3,118.2,112.2,119.7,116.2,119.7 M44.8,89.1c2.3-2.4,5.5-3.7,8.8-3.7
		c6.8,0,10.2,4.6,10.2,13.9v34.2H79v-37c0-7.5-2.1-13.6-6.2-18.1c-3.9-4.4-9.5-6.8-15.3-6.7c-6.1,0-11.6,2.6-16.5,7.8v-6.9H24.3
		v60.8H41V99.9C41,95.2,42.3,91.6,44.8,89.1 M0,55.5h16.7v78H0V55.5z">
  </path>
 </g>
</svg>