<svg version="1.1" id="jll-logo-positive" xmlns:x="ns_extend;" xmlns:i="ns_ai;" xmlns:graph="ns_graphs;" xmlns="http://www.w3.org/2000/svg" xmlns:xlink="http://www.w3.org/1999/xlink" x="0px" y="0px" viewBox="0 0 563.5 250.8" style="enable-background:new 0 0 563.5 250.8;" xml:space="preserve">
 <style type="text/css">
  .st0{fill:#E30613;}
 </style>
 <metadata>
  <sfw xmlns="ns_sfw;">
   <slices>
   </slices>
   <sliceSourceBounds bottomLeftOrigin="true" height="250.8" width="563.5" x="9.1" y="-0.1">
   </sliceSourceBounds>
  </sfw>
 </metadata>
 <g>
  <path d="M341.5,50.2h-63.7V56c2.6,0.2,5.1,0.6,7.6,1.1c2,0.4,3.8,1.2,5.4,2.4c3.8,3.2,3.7,9.3,3.7,20.3v73.8c0,15,1.3,36.3-19.9,36
		c-9.1-0.1-18.5-6.6-21.4-18.5H246c3.1,19.9,13.7,33.4,39.4,33.4h0.1c21.8,0,41.3-10,41.2-44.1V79.8c0-11-0.1-16.8,3.7-20.1
		c2.5-2.1,4.5-3.1,11.1-3.8V50.2z">
  </path>
  <path d="M414.6,50.2h-63.7V56c6.7,0.7,8.7,1.7,11.1,3.8c3,2.6,3.6,6.9,3.7,14.1c0,2.2,0,4.6,0,7.4v88.3c0,2.7,0,5.2,0,7.4
		c-0.1,7.2-0.6,11.5-3.7,14.1c-2.4,2.1-4.4,3.1-11.1,3.8v5.9h96.3l10.1-29.5h-7.4c-7.4,16.2-18.8,18.1-29.3,18.1
		c-8.5,0-14.2-0.5-18.2-3.1c-3.2-2.1-4.5-7.6-4.5-16.9V79.8c0-11-0.1-17.1,3.7-20.3c2.4-2.1,6.4-2.8,13.1-3.5L414.6,50.2L414.6,50.2
		z">
  </path>
  <path d="M520.8,50.2h-63.7V56c6.6,0.7,8.7,1.7,11.1,3.8c3,2.6,3.6,6.9,3.7,14.1c0,2.2,0,4.6,0,7.4v88.3c0,2.7,0,5.2,0,7.4
		c-0.1,7.2-0.6,11.5-3.7,14.1c-2.4,2.1-4.4,3.1-11.1,3.8v5.9h96.3l10.2-29.5H556c-7.4,16.2-18.8,18.1-29.3,18.1
		c-8.5,0-14.2-0.5-18.2-3.1c-3.2-2.1-4.5-7.6-4.5-16.9V79.8c0-11-0.1-17.1,3.7-20.3c2.4-2.1,6.4-2.8,13.1-3.5L520.8,50.2L520.8,50.2
		z">
  </path>
  <path class="st0" d="M93.5,246c3-1.4,5.8-3,8.5-4.9c0.6-0.4,1.2-0.8,1.7-1.2c3.4-2.5,6.5-5.4,9.4-8.5c3.8-4,7.2-8.4,10.3-13.1
		c2.4-3.7,4.6-7.5,6.6-11.4c7.7-15.5,12.9-32,15.4-49.1c1.6-10.8,2.5-21.6,2.4-32.5l0,0c0-10.9-0.8-21.8-2.4-32.5
		c-2.5-17.1-7.7-33.6-15.4-49.1c-0.9-1.8-1.9-3.5-2.9-5.3c-4.1,7.6-7.6,15.6-10.4,23.9c5,15.1,8.1,30.9,9.1,46.8
		c0.4,5.4,0.5,10.8,0.5,16.2l0,0c0,5.4-0.1,10.8-0.5,16.2c-1.2,19.4-5.5,38.6-12.8,56.6c-2.9,7-6.3,13.7-10.3,20.2
		c-0.9,1.5-1.8,3.1-2.8,4.6c-2,3-4.2,5.9-6.5,8.8c-2.6,3.3-5.5,6.4-8.5,9.4c-3.2,3.1-6.6,6-10.2,8.6c-0.3,0.2-0.6,0.4-0.9,0.6v0.3
		l0,0C80.7,250.5,87.4,248.9,93.5,246z">
  </path>
  <path class="st0" d="M132.7,246c3-1.4,5.8-3,8.5-4.9c0.6-0.4,1.1-0.8,1.7-1.2c11.4-8.5,19.9-20.4,26.3-33
		c7.7-15.5,12.9-32,15.4-49.1c1.6-10.8,2.5-21.6,2.4-32.5l0,0c0-10.9-0.8-21.8-2.4-32.5c-2.5-17.1-7.7-33.6-15.4-49.1
		c-5.9-11.6-13.7-22.6-23.8-30.9c-3.2,3.5-6.2,7.2-9,11c1,1.3,1.9,2.7,2.8,4c16.2,24,23.9,52.7,25.9,81.4c0.4,5.4,0.6,10.8,0.6,16.2
		c0,5.4-0.2,10.8-0.6,16.2c-2,28.6-9.7,57.4-25.9,81.4c-2,3-4.2,5.9-6.5,8.8c-2.6,3.3-5.5,6.4-8.5,9.4c-3.2,3.1-6.6,6-10.2,8.6
		l-0.9,0.6v0.3l0,0C119.9,250.5,126.5,248.9,132.7,246z">
  </path>
  <path class="st0" d="M182.1,239.9c11.4-8.5,19.9-20.4,26.3-33c7.7-15.4,12.9-32,15.4-49.1c1.6-10.8,2.5-21.6,2.4-32.5l0,0
		c0-10.9-0.8-21.8-2.4-32.5c-2.5-17.1-7.7-33.6-15.4-49.1c-6.4-12.5-14.9-24.5-26.3-33C173.6,4.4,162.9,0.3,152.3,0l0,0v0.3
		c10.4,7.2,19.1,17.1,26.1,27.5c16.2,24,23.9,52.7,25.9,81.4c0.4,5.4,0.5,10.8,0.6,16.2c0,5.4-0.2,10.8-0.6,16.2
		c-2,28.6-9.7,57.4-25.9,81.4c-7,10.3-15.7,20.2-26.1,27.5v0.3l0,0C162.9,250.4,173.6,246.3,182.1,239.9z">
  </path>
  <path class="st0" d="M132.7,4.7c-3,1.4-5.8,3-8.5,4.9c-0.6,0.4-1.2,0.8-1.7,1.2c-3.4,2.5-6.5,5.4-9.4,8.5
		c-3.8,4.1-7.2,8.4-10.3,13.1c-2.4,3.7-4.6,7.5-6.6,11.4c-7.7,15.4-12.9,32-15.4,49.1c-1.6,10.8-2.5,21.6-2.4,32.5l0,0
		c0,10.9,0.8,21.7,2.4,32.5c2.5,17.1,7.7,33.7,15.4,49.1c0.9,1.8,1.9,3.5,2.9,5.3c4.1-7.7,7.6-15.7,10.3-23.9
		c-5-15.1-8.1-30.9-9.1-46.8c-0.4-5.4-0.5-10.8-0.5-16.2l0,0c0-5.4,0.1-10.8,0.5-16.2c1.2-19.4,5.5-38.6,12.8-56.6
		c2.9-7,6.3-13.8,10.3-20.2c0.9-1.5,1.8-3.1,2.8-4.5c2-3,4.2-5.9,6.5-8.8c2.6-3.3,5.5-6.4,8.5-9.4c3.2-3.1,6.6-6,10.2-8.6
		c0.3-0.2,0.6-0.4,0.9-0.6V0l0,0C145.5,0.2,138.8,1.8,132.7,4.7z">
  </path>
  <path class="st0" d="M93.5,4.7c-3,1.4-5.8,3-8.5,4.9c-0.6,0.4-1.2,0.8-1.7,1.2C72,19.3,63.4,31.2,57,43.8
		c-7.7,15.4-12.9,32-15.4,49.1c-1.6,10.8-2.5,21.6-2.4,32.5l0,0c0,10.9,0.8,21.7,2.4,32.5C44.1,175,49.3,191.5,57,207
		c5.9,11.6,13.7,22.6,23.8,30.9c3.2-3.5,6.2-7.1,9-10.9c-1-1.3-1.9-2.7-2.8-4c-16.2-24-23.9-52.7-25.9-81.4
		c-0.4-5.4-0.6-10.8-0.6-16.2s0.2-10.8,0.6-16.2c2-28.6,9.7-57.4,25.9-81.4c2-3,4.2-5.9,6.5-8.8c2.6-3.3,5.5-6.4,8.5-9.4
		c3.2-3.2,6.6-6.1,10.3-8.7c0.3-0.2,0.6-0.4,0.9-0.6V0l0,0C106.3,0.2,99.7,1.8,93.5,4.7z">
  </path>
  <path class="st0" d="M44.2,10.8c-11.4,8.5-19.9,20.4-26.3,33C10.2,59.2,5,75.8,2.4,92.8C0.8,103.6,0,114.5,0,125.4l0,0
		c0,10.9,0.8,21.7,2.4,32.5C5,175,10.2,191.5,17.9,207c6.4,12.6,14.9,24.5,26.3,33c8.5,6.4,19.1,10.5,29.8,10.8l0,0v-0.3
		c-10.4-7.3-19.2-17.2-26.1-27.6c-16.2-24-23.9-52.7-25.9-81.4c-0.4-5.4-0.5-10.8-0.5-16.2s0.2-10.8,0.5-16.2
		c1.9-28.6,9.7-57.4,25.9-81.4C54.8,17.5,63.6,7.6,73.9,0.3V0l0,0C63.3,0.3,52.6,4.4,44.2,10.8z">
  </path>
  <path class="st0" d="M120,237.9c3.2-3.5,6.2-7.2,9-11c-1-1.3-1.9-2.7-2.8-4c-1-1.5-1.9-3-2.8-4.5c-3,4.7-6.5,9-10.3,13.1
		C115.2,233.7,117.5,235.9,120,237.9">
  </path>
  <path class="st0" d="M141.2,241.1c-2.7,1.9-5.5,3.5-8.5,4.9c6.1,2.9,12.8,4.5,19.6,4.7l0,0v-0.3
		C148.3,247.6,144.6,244.5,141.2,241.1">
  </path>
  <path class="st0" d="M109.4,250.5c1.1-0.1,2.1-0.3,3.2-0.5c-1.1-0.8-2.1-1.5-3.2-2.4c-2.6-2-5.1-4.2-7.4-6.5
		c-2.7,1.9-5.5,3.5-8.5,4.9c4.1,1.9,8.3,3.2,12.7,4C107.3,250.2,108.3,250.4,109.4,250.5 M113.1,250.7v-0.3
		c-0.2-0.1-0.3-0.3-0.5-0.4c-1,0.2-2.1,0.4-3.2,0.5C110.6,250.6,111.9,250.7,113.1,250.7z">
  </path>
  <path class="st0" d="M106.2,12.8c-3.2,3.5-6.2,7.2-9,11c1,1.3,1.9,2.7,2.8,4c1,1.5,1.9,3,2.8,4.5c3-4.7,6.5-9,10.3-13.1
		C111,17,108.7,14.9,106.2,12.8">
  </path>
  <path class="st0" d="M85,9.6c2.7-1.9,5.5-3.5,8.5-4.9C87.4,1.8,80.7,0.2,73.9,0l0,0v0.3C77.9,3.1,81.6,6.2,85,9.6">
  </path>
  <path class="st0" d="M132.7,4.7c-4.1-1.9-8.3-3.2-12.7-4c-1.1-0.2-2.1-0.4-3.2-0.5l0,0c-1.2-0.1-2.5-0.2-3.7-0.3l0,0v0.3
		c0.2,0.1,0.3,0.3,0.5,0.4l0,0c1.1,0.8,2.1,1.5,3.2,2.3c2.6,2,5.1,4.2,7.4,6.5C126.9,7.7,129.7,6.1,132.7,4.7">
  </path>
 </g>
</svg>