<svg version="1.1" id="Layer_1" xmlns:x="ns_extend;" xmlns:i="ns_ai;" xmlns:graph="ns_graphs;" xmlns="http://www.w3.org/2000/svg" xmlns:xlink="http://www.w3.org/1999/xlink" x="0px" y="0px" viewBox="0 0 197 45" style="enable-background:new 0 0 197 45;" xml:space="preserve">
 <style type="text/css">
  .st0{fill-rule:evenodd;clip-rule:evenodd;fill:#4A4A4A;}
 </style>
 <metadata>
  <sfw xmlns="ns_sfw;">
   <slices>
   </slices>
   <sliceSourceBounds bottomLeftOrigin="true" height="45" width="197" x="-138.6" y="-238.6">
   </sliceSourceBounds>
  </sfw>
 </metadata>
 <g>
  <path class="st0" d="M182.3,31.6l-0.1-1.1c0-0.2-0.7-4.7,2.4-7.9c0.9-0.9,2-1.5,3-1.5c0.8,0,1.5,0.4,1.9,1.1
		C191.1,25.6,182.3,31.6,182.3,31.6L182.3,31.6z M169,24.5l-0.1-1.9l0-0.2c0-0.1-0.4-6.1,0-10.4c0.4-4.7,1.8-7.7,3.5-7.7
		c0.3,0,0.7,0.2,0.9,0.5c0.8,1.1,1.1,3.9,0.6,6.4c-0.9,4-2.2,7.3-3.2,9.6c-0.3,0.7-0.5,1.3-0.7,1.8L169,24.5z M159.7,37.2
		c-2.2,0-3.2-2.1-3.2-4c0-10.1,5.5-12.1,8-11.3c0,0,0.1,1.9,0.3,4.4c0.2,2.1,0.3,4.7,0.4,4.9C165.2,31.2,163.1,37.2,159.7,37.2
		L159.7,37.2z M142.1,22.3c0,0-0.6,14.9-6.2,14.9c-2.7,0-2.9-3-2.9-3.9C133,22.7,141,20.8,142.1,22.3L142.1,22.3z M90.2,37.6
		c-3.2,0-4.4-3.2-4.4-6.2c0-5.5,3.2-9.7,5.9-9.7c2.7,0,3.6,3.7,3.6,6.1C95.3,33.3,93.1,37.6,90.2,37.6L90.2,37.6z M38.9,24.9
		c-1.8,2.9-6.1,5.7-7.3,6.2c0,0-0.9-5.6,3.7-8.9C38.7,19.7,40.3,22.8,38.9,24.9z M179.3,38.1c1.3,2.1,3.6,3.1,6.9,3.1
		c3.6,0,7.4-2.7,9.5-5.3c1.3-1.5,1.4-2.4,0.9-2.9c-0.5-0.4-1.6,0.1-2.6,1c-1.3,1.2-4.2,3-6.6,3c-3,0-4.4-2-4.4-2
		c6.1-3.7,10.6-8,10.6-11.6c0-4.1-3-5.9-6-5.9c-5.3,0-11.1,4.9-11.1,12.8c0,2.6,0.9,4.8,0.9,4.8s-1.1,1.7-4.4,1.4
		c-3.6-0.3-3.4-6.8-3.4-6.8s1.1-2,1.5-2.8c2.4-4.5,5.7-10.6,6.3-17.9c0.3-4.1-0.9-6.3-1.9-7.4c-0.9-1-2.1-1.6-3.3-1.6
		c-4.1,0-7,4.3-7.7,8.5c-0.7,4.1-0.4,10.3-0.4,10.3s-3.7-0.9-7.5,1.6c-3.4,2.3-4.9,7-5.4,9.3c-0.2,1.1-0.3,2.2-0.2,3.3
		c0,0.5,0.2,1.5,0.2,1.5s-1.2,2.6-3.4,2.6c-3.5,0-1.2-16.4-1.1-17.3c0.1-0.7,0.6-2.3-1.9-2.4c-1.5-0.1-2.1,0.5-2.2,1.2l-0.1,0.7
		c0,0-5.1-3.5-10.8,2.8c-3.1,3.3-4.2,8.1-4.2,12l0,0.2c0,0-1.3,3.7-4.2,3.1c-2-0.4-2.2-3.9-2.2-5.2c0-2.6,0.6-5.5,1.1-7.8
		c0.3-1.5,0.6-2.7,0.6-3.4c0-2.5-0.7-3.5-2.3-3.5c-2.2,0-4.2,1.8-6.4,4.5c-2.8,3.5-4.9,8.8-4.9,8.8s0.1-1,0.2-1.9
		c0.1-0.6,0.3-3.4,0.8-5.9c0.3-1.4,0.4-2.5,0.4-2.7c0.1-0.7-0.1-1.3-0.4-1.7c-0.4-0.4-0.9-0.7-1.5-0.7c-1,0-2.2,0.7-2.8,2.5
		c-0.3,0.8-0.4,1.4-0.6,2.4l-0.2,0.9l-0.7-0.6c-2.7-2.5-6.4-5.4-11.8-5.4c-7.5,0-11.6,7-11.6,13.6c0,0.8,0.1,1.6,0.1,2.3l0,0.3
		c0,0-1.6,3.8-4.3,3.1c-1.2-0.3-2-1.6-2-4.7c0-2.6,0.5-6.1,0.8-8.1c0.1-0.7,0.2-1.3,0.2-1.5l0.1-0.8c0.2-2.3,0.3-3.4-0.5-3.9
		c-0.6-0.4-1.2-0.5-1.8-0.5c-0.6,0-1.1,0.3-1.6,0.6c-0.7,0.5-2.9,3.5-7.1,10.4c-0.1,0.1-0.1,0.2-0.1,0.2l-0.5,0.9l-1.1,2.4l0.6-3.6
		l0-0.2c0.1-0.6,0.3-1.7,0.3-2l0.2-0.8c0.3-1.2,0.9-3.8,1-4.3c0.3-1.5,0.2-2.5-0.3-3.1c-0.3-0.4-0.9-0.6-1.7-0.6
		c-1.5,0-2.8,1.2-4.9,4.6c-0.3,0.5-1.6,2.6-2.6,4.2c-1.3,2.1-2.4,3.7-2.4,3.7l0.3-2.8c0.2-1.3,1-7.1,1-7.4c0-1.2-0.6-1.8-1.9-1.8
		c-0.5,0-1.8,0.1-2.4,1.2c-0.5,1-1.9,5.5-2.5,12.3c0,0-5.3,5.2-11,5.2c-2.1,0-3.8-0.8-4.4-2.4c0,0,3-1.6,4.5-2.6
		c3.7-2.6,6.4-5.2,6.4-8.6c0-4.1-3.8-6-6.9-5.6c-5.4,0.7-9.9,6.4-9.9,13c0,6.2,3.4,10.7,9.4,10.7c6.9,0,11.7-5.7,11.7-5.7l-0.1,2.6
		c-0.1,1.4,0.5,3.1,2.7,3.1c0.6,0,1.7-0.2,2.3-1.5c3.5-7.8,7.2-14,7.3-14l0.1-0.2l0.6-1.2l1-1.6l-0.8,3.5c-0.1,0.8-1.4,7.8-1.5,10.9
		c-0.1,1.6-0.1,3.1,0.5,3.8c0.3,0.3,0.8,0.5,1.5,0.5c1.7,0,2.7-0.6,3.1-1.7c2.7-8.3,5.7-13.9,5.8-14.1l0.1-0.2l1.5-3
		c0,0-1.2,6.9-1.2,11.6c0,2.3,0.4,6.4,3.6,7.1c4.9,1.2,7.9-3.9,7.9-3.9l0.3,0.9c1.4,2.4,3.7,3.6,6.7,3.6c6.2,0,10.2-4.9,10.2-12.4
		c0-4.7-2.1-7.4-2.1-7.4s2.4,0.8,4.1,2.1c1.9,1.4,3.2,2.8,3.2,2.8l0,0.3c-0.1,0.4-0.1,0.7-0.2,1.1c-0.2,1.4-0.4,3-0.5,4.5
		c-0.1,1.4-0.2,2.7-0.2,3.9c0,0.7,0,1.3,0.1,1.9c0.1,0.6,0.2,1.1,0.4,1.6c0.1,0.1,0.7,1.4,2.2,1.4c1,0,1.7-0.4,2.2-1.5
		c4.8-11.3,8.7-15,9-15.3c0.9-1,0.5,0.8,0.5,0.8l0,0.2c0,0-0.6,3.9-0.7,5c-0.1,1.2-0.2,2.2-0.2,3.3c0,3.2,0.7,6.8,4.4,7.3
		c5,0.8,6.7-3.2,6.7-3.2s1.8,3.3,6.1,3.3c6.3,0,8.2-4.8,8.2-4.8c0.7,2.9,1.8,4.5,4.7,4.5c3.1,0,5.2-3.5,5.2-3.5s1.8,3.8,6.1,3.8
		c5,0,7.6-3.8,7.7-4l0.6-0.9c0,0,1.6,4.2,5.8,4.4C176.6,40.9,179.3,38.1,179.3,38.1z M7.5,39.6c-4.4-0.2-4.7-3.6-0.6-4.5
		c3.7-0.8,6.8,0.5,6.8,0.5S12.8,39.8,7.5,39.6L7.5,39.6z M27.1,4.7c2.6,0.2,2.4,3.8,1.7,6c-2,6.6-6.9,6.8-6.9,6.8S23.4,4.4,27.1,4.7
		L27.1,4.7z M21.5,20.6c0,0,8.2,0.1,11-9.6C34.1,5.3,31.8,0.5,27,0.4c-4.8-0.1-8.6,4.2-10.3,17.1c0,0-4.7-0.6-6.7-4.3
		c-1-1.8-2.5-0.9-2,0.7c1.6,5.6,8.4,6.5,8.4,6.5S16,22.9,15.6,26c-0.4,3-1.1,6.7-1.1,6.7s-4.3-1.4-9-0.4c-7.1,1.5-7.9,10.3,0.8,11.2
		c10.2,1,12.1-6.1,12.1-6.1s2,1,4.8,3.5c3.2,2.8,4.6,4.6,5.2,4c0.7-0.7-0.9-3.1-3.8-6.2c-3.3-3.5-5.6-4.4-5.6-4.4s0.5-2.3,1.1-6
		C20.9,24.4,21.5,20.6,21.5,20.6z">
  </path>
 </g>
</svg>