<svg version="1.1" id="Layer_1" xmlns:x="ns_extend;" xmlns:i="ns_ai;" xmlns:graph="ns_graphs;" xmlns="http://www.w3.org/2000/svg" xmlns:xlink="http://www.w3.org/1999/xlink" x="0px" y="0px" viewBox="0 0 328.3 95.3" style="enable-background:new 0 0 328.3 95.3;" xml:space="preserve">
 <style type="text/css">
  .st0{fill:#005581;}
	.st1{fill:#FFFFFF;}
	.st2{fill:#F36E21;}
 </style>
 <metadata>
  <sfw xmlns="ns_sfw;">
   <slices>
   </slices>
   <sliceSourceBounds bottomLeftOrigin="true" height="95.3" width="328.3" x="34.2" y="-246">
   </sliceSourceBounds>
  </sfw>
 </metadata>
 <g>
  <g>
   <rect class="st0" width="112" height="79.9">
   </rect>
   <g>
    <path class="st1" d="M30.8,15.3H15.7v49.2h36.1V50.9h-21L30.8,15.3L30.8,15.3z M77.8,15.3H56.7v49.2h15.1V51.1h5.3
				c13,0,21-6.9,21-18.1v-0.1C98.1,22.1,90.3,15.3,77.8,15.3z M71.7,28.5h5c2.9,0,6.3,0.9,6.3,5v0.1c0,3.1-2.4,5-6.3,5h-5.1
				L71.7,28.5L71.7,28.5z">
    </path>
    <path class="st2" d="M0,80.1v15.3h112V80.1H0z">
    </path>
    <path class="st1" d="M83.6,61.3c0,2.1-1.6,3.4-3.4,3.4s-3.4-1.3-3.4-3.4c0-2.1,1.6-3.4,3.4-3.4C82.1,57.9,83.6,59.2,83.6,61.3z
				 M83,61.3c0-1.8-1.3-2.9-2.8-2.9c-1.5,0-2.8,1.1-2.8,2.9c0,1.8,1.3,2.9,2.8,2.9C81.7,64.2,83,63.1,83,61.3L83,61.3z M81.1,61.6
				l0.9,1.5h-1l-0.8-1.4h-0.4v1.4h-0.9v-3.7h1.6c0.9,0,1.4,0.4,1.4,1.2C81.8,61.1,81.5,61.5,81.1,61.6z M79.8,61.1h0.5
				c0.4,0,0.6-0.2,0.6-0.5c0-0.4-0.2-0.5-0.6-0.5h-0.5V61.1L79.8,61.1z">
    </path>
   </g>
  </g>
  <g>
   <path class="st0" d="M141.1,26.7c2.5-0.7,3.9-2.6,3.9-5.2c0-4.1-2.7-6.7-7.7-6.7h-10.2V40h10.4c5.1,0,7.9-2.8,7.9-7.2h0
			C145.5,29.5,143.9,27.4,141.1,26.7z M133.7,19.4L133.7,19.4L133.7,19.4h1.9c1.6,0,2.6,1,2.6,2.7c0,2-0.9,3-2.6,3h-1.9V19.4z
			 M135.9,35.5h-2.1v-6.3h2.1c1.7,0,2.7,1,2.7,3.2C138.6,34.4,137.6,35.5,135.9,35.5z">
   </path>
   <path class="st0" d="M164.3,32c0,1.9-1.1,3.1-2.8,3.1s-2.7-1.1-2.7-3.1V14.9h-6.6v17.5c0,5.1,3.4,8.2,9.3,8.2
			c5.9,0,9.3-3.1,9.3-8.2V14.9h-6.5V32z">
   </path>
   <polygon class="st0" points="185.4,14.9 178.8,14.9 178.8,39.9 178.8,39.9 178.8,40 185.4,40 		">
   </polygon>
   <polygon class="st0" points="207.9,34.4 200.2,34.4 200.2,14.9 193.6,14.9 193.6,40 207.9,40 		">
   </polygon>
   <path class="st0" d="M223.7,39.9c6.6,0,10.8-3.4,10.8-12.5c0-9.1-4.2-12.5-10.7-12.5h-8.9v25H223.7z M221.4,19.6h2.3
			c2.7,0,3.9,1.9,3.9,7.8c0,4.9-1.4,7.8-3.9,7.8v-0.1h-2.3V19.6z">
   </path>
   <polygon class="st0" points="248.1,14.9 241.5,14.9 241.5,39.9 241.5,39.9 241.5,40 248.1,40 		">
   </polygon>
   <path class="st0" d="M262.4,29c0-1.7-0.1-3.9-0.1-5.1h0.1c0.2,1.5,0.6,3,1.2,4.4l5.5,11.7h6.5V14.9h-6V25c0,1.7,0,3.4,0.1,5.2
			h-0.1c-0.3-1.9-0.7-3.1-1.2-4.4l-5-10.9h-7V40h6.1V29z">
   </path>
   <path class="st0" d="M291.6,40.6c3.1,0,5.1-1.6,6-4.2l0.2,3.6h4.8V25.7h-9.9v4.8h3.6v0.4c0,3.4-1.4,4.6-3.1,4.6
			c-2.4,0-3.6-1.4-3.6-8.4c0-6.1,1.3-7.8,3.5-7.8c1.8,0,2.9,1.1,3.1,4.2l6.4-1.3c-0.4-5.4-4-7.8-9.5-7.8c-6.4,0-10.4,3.9-10.4,12.8
			C282.8,36.7,286,40.5,291.6,40.6z">
   </path>
   <path class="st0" d="M134.9,58.9c1.8,0,3.6,1.1,4.5,3.8l5.1-3c-1.4-4-4.8-5.7-9.3-5.7c-5.2,0-9,2.8-9,7.6c0,3.6,1.5,6.2,5.2,7.3
			l3.8,1.2c1.9,0.5,2.4,1.4,2.4,2.6c0,1.2-1,2.2-2.7,2.2c-2,0-3.5-1.3-4.5-4l-5.5,2.9c1.6,4,4.9,6.4,9.8,6.4c5.9,0,9.3-3.5,9.3-8.2
			c0-3.7-1.3-5.8-5.1-7.2l-3.9-1.3c-1.8-0.6-2.7-1.5-2.7-2.7C132.3,59.7,133.4,58.9,134.9,58.9z">
   </path>
   <path class="st0" d="M158.9,54.1c-6.4,0-10.4,3.6-10.4,13.1c0,9.5,3.9,13.1,10.4,13.1c6.4,0,10.4-3.6,10.4-13.1
			C169.2,57.7,165.2,54.1,158.9,54.1z M158.8,75.2c-2.3,0-3.6-1.5-3.6-8c0-6.6,1.4-8,3.6-8c2.2,0,3.5,1.4,3.5,8
			C162.3,73.7,161.1,75.2,158.8,75.2z">
   </path>
   <polygon class="st0" points="181.7,54.6 175.1,54.6 175.1,54.6 175.1,79.7 189.4,79.7 189.4,74.2 181.7,74.2 		">
   </polygon>
   <path class="st0" d="M207.6,71.8c0,1.9-1.1,3.1-2.8,3.1c-1.7,0-2.7-1.1-2.7-3.1V54.6h-6.6v17.5c0,5.1,3.5,8.2,9.3,8.2
			s9.3-3.1,9.3-8.2V54.6h-6.5V71.8z">
   </path>
   <polygon class="st0" points="220.4,60 226.2,60 226.2,79.7 232.7,79.7 232.7,60 238.5,60 238.6,60 238.6,54.7 220.4,54.7 		">
   </polygon>
   <polygon class="st0" points="244.9,79.7 251.5,79.7 251.5,54.6 244.9,54.6 		">
   </polygon>
   <path class="st0" d="M267.8,54.1c-6.4,0-10.4,3.6-10.4,13.1c0,9.5,4,13.1,10.4,13.1c6.4,0,10.4-3.6,10.4-13.1
			C278.1,57.7,274.1,54.1,267.8,54.1z M267.8,75.2c-2.3,0-3.6-1.5-3.6-8c0-6.6,1.4-8,3.6-8c2.2,0,3.5,1.4,3.5,8
			C271.3,73.7,270,75.2,267.8,75.2z">
   </path>
   <path class="st0" d="M297.3,64.7c0,1.7,0,3.4,0.1,5.2h-0.1c-0.3-1.9-0.7-3.1-1.3-4.4l-5-10.9h-7v25.1h6.1v-11
			c0-1.7-0.1-3.8-0.1-5.1h0.1c0.2,1.5,0.6,3,1.2,4.4l5.5,11.7h6.5V54.6h-6V64.7z">
   </path>
   <path class="st0" d="M322.8,65l-3.9-1.3c-1.8-0.6-2.7-1.5-2.7-2.7c0-1.2,1-2,2.6-2c1.8,0,3.6,1.1,4.5,3.8l5.1-3
			c-1.4-4-4.8-5.7-9.3-5.7c-5.2,0-9,2.8-9,7.6c0,3.6,1.5,6.2,5.2,7.3l3.8,1.2c1.9,0.5,2.4,1.4,2.4,2.6c0,1.2-1,2.2-2.7,2.2
			c-2,0-3.5-1.3-4.5-4l-5.5,2.9c1.6,4,4.9,6.4,9.8,6.4c5.9,0,9.3-3.5,9.3-8.2C327.9,68.4,326.6,66.3,322.8,65z">
   </path>
  </g>
 </g>
</svg>