<svg version="1.1" id="Layer_1" xmlns:x="ns_extend;" xmlns:i="ns_ai;" xmlns:graph="ns_graphs;" xmlns="http://www.w3.org/2000/svg" xmlns:xlink="http://www.w3.org/1999/xlink" x="0px" y="0px" viewBox="0 0 748.4 121" style="enable-background:new 0 0 748.4 121;" xml:space="preserve">
 <style type="text/css">
  .st0{fill:#FFC222;}
 </style>
 <metadata>
  <sfw xmlns="ns_sfw;">
   <slices>
   </slices>
   <sliceSourceBounds bottomLeftOrigin="true" height="121" width="748.4" x="-485.3" y="-209.9">
   </sliceSourceBounds>
  </sfw>
 </metadata>
 <g>
  <path d="M242.5,66H191l16.3-62.4c0.2-0.9,0-1.8-0.5-2.5c-0.5-0.7-1.4-1.1-2.3-1.1h-13.8c-1.3,0-2.5,0.9-2.8,2.2l-19.5,74.9
		c-0.2,0.9,0,1.8,0.5,2.5c0.5,0.7,1.4,1.1,2.3,1.1h69.1c1.3,0,2.5-0.9,2.8-2.2l2.3-8.9c0.2-0.9,0-1.8-0.5-2.5
		C244.2,66.4,243.4,66,242.5,66">
  </path>
  <path d="M329.8,2.2C329.5,0.9,328.4,0,327,0h-13.8c-0.9,0-1.7,0.4-2.3,1.1L250.7,76c-0.7,0.9-0.8,2.1-0.4,3.1
		c0.5,1,1.5,1.6,2.6,1.6h14.2c0.9,0,1.7-0.4,2.3-1.1l15.5-19.4h39.7l4.7,18.3c0.3,1.3,1.5,2.2,2.8,2.2h14.7c0.9,0,1.7-0.4,2.3-1.1
		c0.5-0.7,0.7-1.6,0.5-2.5L329.8,2.2 M321,46.2h-24.9l10.7-13.5c3.1-3.8,6.1-8,8.4-11.3c0.5,3.1,1.2,6.8,2,10.2L321,46.2z">
  </path>
  <path d="M438.9,0h-80.6c-1.3,0-2.5,0.9-2.8,2.2l-2.3,8.9c-0.2,0.9,0,1.8,0.5,2.5c0.6,0.7,1.4,1.1,2.3,1.1h29.7l-16.3,62.4
		c-0.2,0.9,0,1.8,0.5,2.5c0.5,0.7,1.4,1.1,2.3,1.1h13.8c1.3,0,2.5-0.9,2.8-2.2l16.6-63.8h31c1.4,0,2.6-0.9,2.9-2.2l2.4-8.9
		c0.2-0.9,0-1.8-0.5-2.5C440.7,0.4,439.8,0,438.9,0">
  </path>
  <path d="M530.2,12.5l2.3-8.9c0.2-0.9,0-1.8-0.5-2.5c-0.5-0.7-1.4-1.1-2.3-1.1h-80.5c-1.4,0-2.6,0.9-2.9,2.2l-2.4,8.9
		c-0.2,0.9,0,1.8,0.5,2.5c0.6,0.7,1.4,1.1,2.4,1.1h29.6l-16.3,62.4c-0.2,0.9,0,1.8,0.5,2.5c0.5,0.7,1.4,1.1,2.3,1.1h13.8
		c1.3,0,2.5-0.9,2.8-2.2l16.6-63.8h31.2C528.7,14.7,529.9,13.8,530.2,12.5">
  </path>
  <path d="M562.3,1.1C561.8,0.4,560.9,0,560,0h-14.2c-1.3,0-2.5,0.9-2.8,2.2l-19.5,74.9c-0.2,0.9,0,1.8,0.5,2.5
		c0.6,0.7,1.4,1.1,2.3,1.1h14.2c1.3,0,2.5-0.9,2.8-2.2l19.5-74.9C563.1,2.8,562.9,1.8,562.3,1.1">
  </path>
  <path d="M636.1,66h-30.8c-10.2,0-17-2.2-20.3-6.4c-3-4-3.5-10-1.3-18.4c4.7-18,16.3-26.4,36.5-26.4H651c1.3,0,2.5-0.9,2.8-2.2
		l2.3-8.9c0.2-0.9,0-1.8-0.5-2.5c-0.6-0.7-1.4-1.1-2.3-1.1h-32c-29.4,0-50.8,14.8-57.3,39.7c-3,11.4-1.6,21.2,3.9,28.3
		c6.4,8.3,18.1,12.7,33.9,12.7h32c1.3,0,2.5-0.9,2.8-2.2l2.3-8.9c0.2-0.9,0-1.8-0.5-2.5C637.9,66.4,637,66,636.1,66">
  </path>
  <path d="M747.8,1.1c-0.5-0.7-1.4-1.1-2.3-1.1h-73.7c-1.3,0-2.5,0.9-2.8,2.2l-19.5,74.9c-0.2,0.9,0,1.8,0.5,2.5
		c0.6,0.7,1.4,1.1,2.3,1.1h74.8c1.3,0,2.5-0.9,2.8-2.2l2.3-8.9c0.2-0.9,0-1.8-0.5-2.5c-0.5-0.7-1.4-1.1-2.3-1.1h-57.2l5.1-19.7H730
		c1.3,0,2.5-0.9,2.8-2.2l2.2-8.3c0.2-0.9,0-1.8-0.5-2.5c-0.5-0.7-1.4-1.1-2.3-1.1H681l4.6-17.6h57.6c1.3,0,2.5-0.9,2.8-2.2l2.3-8.9
		C748.5,2.8,748.3,1.8,747.8,1.1">
  </path>
  <path class="st0" d="M24,34.6h32c1.2,0,2.3-0.8,2.6-2l7.2-28.9c0.2-0.8,0-1.6-0.5-2.3c-0.5-0.6-1.3-1-2.1-1h-32
		c-1.2,0-2.3,0.8-2.6,2l-7.2,28.9c-0.2,0.8,0,1.6,0.5,2.3S23.1,34.6,24,34.6">
  </path>
  <path class="st0" d="M47.9,75.6L55,46.7c0.2-0.8,0-1.6-0.5-2.3c-0.5-0.6-1.3-1-2.1-1h-32c-1.2,0-2.3,0.8-2.6,2l-7.2,28.9
		c-0.2,0.8,0,1.6,0.5,2.3c0.5,0.6,1.3,1,2.1,1h32C46.5,77.6,47.6,76.8,47.9,75.6">
  </path>
  <path class="st0" d="M41.8,86.5h-32c-1.2,0-2.3,0.8-2.6,2l-7.2,28.9c-0.2,0.8,0,1.6,0.5,2.3c0.5,0.6,1.3,1,2.1,1h32
		c1.2,0,2.3-0.8,2.6-2l7.2-28.9c0.2-0.8,0-1.6-0.5-2.3S42.6,86.5,41.8,86.5">
  </path>
  <path d="M70.4,34.6h32c1.2,0,2.3-0.8,2.6-2l7.2-28.9c0.2-0.8,0-1.6-0.5-2.3c-0.5-0.6-1.3-1-2.1-1h-32c-1.2,0-2.3,0.8-2.6,2
		l-7.2,28.9c-0.2,0.8,0,1.6,0.5,2.3S69.6,34.6,70.4,34.6">
  </path>
  <path d="M94.4,75.6l7.2-28.9c0.2-0.8,0-1.6-0.5-2.3c-0.5-0.6-1.3-1-2.1-1h-32c-1.2,0-2.3,0.8-2.6,2l-7.1,28.9
		c-0.2,0.8,0,1.6,0.5,2.3c0.5,0.6,1.3,1,2.1,1h32C93,77.6,94.1,76.8,94.4,75.6">
  </path>
  <path class="st0" d="M88.3,86.5h-32c-1.2,0-2.3,0.8-2.6,2l-7.2,28.9c-0.2,0.8,0,1.6,0.5,2.3c0.5,0.6,1.3,1,2.1,1h32
		c1.2,0,2.3-0.8,2.6-2l7.2-28.9c0.2-0.8,0-1.6-0.5-2.3S89.1,86.5,88.3,86.5">
  </path>
  <path d="M158.2,1.4c-0.5-0.6-1.3-1-2.1-1h-32c-1.2,0-2.3,0.8-2.6,2l-7.2,28.9c-0.2,0.8,0,1.6,0.5,2.3c0.5,0.6,1.3,1,2.1,1h32
		c1.2,0,2.3-0.8,2.6-2l7.2-28.9C158.8,2.9,158.7,2.1,158.2,1.4">
  </path>
  <path d="M145.4,43.5h-32c-1.2,0-2.3,0.8-2.6,2l-7.2,28.9c-0.2,0.8,0,1.6,0.5,2.3c0.5,0.6,1.3,1,2.1,1h32c1.2,0,2.3-0.8,2.6-2
		l7.2-28.9c0.2-0.8,0-1.6-0.5-2.3C147,43.8,146.2,43.5,145.4,43.5">
  </path>
  <path class="st0" d="M134.8,86.5h-32c-1.2,0-2.3,0.8-2.6,2L93,117.4c-0.2,0.8,0,1.6,0.5,2.3c0.5,0.6,1.3,1,2.1,1h32
		c1.2,0,2.3-0.8,2.6-2l7.2-28.9c0.2-0.8,0-1.6-0.5-2.3C136.3,86.9,135.6,86.5,134.8,86.5">
  </path>
  <path class="st0" d="M189.4,96.4h-13c-6.9,0-11.4,2.5-12.6,7c-0.5,1.8-0.3,3.4,0.7,4.6c1.3,1.7,3.9,2.5,7.8,2.5h6.3
		c1.8,0,2.9,0.3,3.4,0.9c0.3,0.4,0.4,1.1,0.1,2c-0.7,2.7-3.6,3.3-5.9,3.3h-14.6c-0.3,0-0.6,0.2-0.7,0.5l-0.7,2.7
		c-0.1,0.2,0,0.4,0.1,0.6c0.1,0.2,0.3,0.3,0.5,0.3h14.4c6.7,0,11.2-2.6,12.4-7.1c0.5-1.9,0.3-3.5-0.7-4.7c-1.3-1.7-3.9-2.6-7.8-2.6
		h-6.2c-1.9,0-3-0.3-3.5-0.9c-0.3-0.4-0.3-1-0.1-1.8c0.6-2.3,2.3-3.2,5.9-3.2h13.4c0.3,0,0.6-0.2,0.7-0.5l0.7-2.7
		c0.1-0.2,0-0.4-0.1-0.6C189.8,96.5,189.6,96.4,189.4,96.4">
  </path>
  <path class="st0" d="M234.3,96.4h-22.6c-0.3,0-0.6,0.2-0.7,0.5l-6,22.9c-0.1,0.2,0,0.4,0.1,0.6c0.1,0.2,0.3,0.3,0.5,0.3h22.9
		c0.3,0,0.6-0.2,0.7-0.5l0.7-2.7c0.1-0.2,0-0.4-0.1-0.6c-0.1-0.2-0.3-0.3-0.5-0.3h-17.8l1.7-6.4h16.3c0.3,0,0.6-0.2,0.7-0.5l0.7-2.5
		c0.1-0.2,0-0.4-0.1-0.6c-0.1-0.2-0.3-0.3-0.5-0.3h-15.9l1.5-5.8h17.8c0.3,0,0.6-0.2,0.7-0.5l0.7-2.7c0.1-0.2,0-0.4-0.1-0.6
		C234.7,96.5,234.5,96.4,234.3,96.4">
  </path>
  <path class="st0" d="M285.9,96.4h-5.8c-0.2,0-0.4,0.1-0.5,0.3l-11.2,15.1c-0.8,1-1.7,2.4-2.4,3.4c-0.2-1-0.4-2.2-0.6-3.1l-3.6-15.1
		c-0.1-0.3-0.4-0.5-0.7-0.5h-5.7c-0.3,0-0.6,0.2-0.7,0.5l-6,22.9c0,0.2,0,0.4,0.1,0.6c0.1,0.2,0.3,0.3,0.5,0.3h4
		c0.3,0,0.6-0.2,0.7-0.5l3.5-13.3c0.2-0.7,0.4-1.5,0.6-2.3c0.1,0.7,0.3,1.4,0.4,2l3.3,13.6c0.1,0.3,0.4,0.5,0.7,0.5h4.2
		c0.2,0,0.4-0.1,0.5-0.3l10.3-13.6c0.4-0.6,0.9-1.2,1.4-1.9c-0.2,0.6-0.3,1.1-0.4,1.6l-3.5,13.3c-0.1,0.2,0,0.4,0.1,0.6
		c0.1,0.2,0.3,0.3,0.5,0.3h4.2c0.3,0,0.6-0.2,0.7-0.5l6-22.9c0.1-0.2,0-0.4-0.1-0.6C286.4,96.5,286.2,96.4,285.9,96.4">
  </path>
  <path class="st0" d="M313,96.4h-4.3c-0.3,0-0.6,0.2-0.7,0.5l-6,22.9c-0.1,0.2,0,0.4,0.1,0.6c0.1,0.2,0.3,0.3,0.5,0.3h4.3
		c0.3,0,0.6-0.2,0.7-0.5l6-22.9c0.1-0.2,0-0.4-0.1-0.6C313.4,96.5,313.2,96.4,313,96.4">
  </path>
  <path class="st0" d="M357.7,96.4H348c-8.9,0-15.4,4.5-17.3,12c-0.9,3.4-0.5,6.4,1.1,8.5c1.9,2.5,5.5,3.8,10.2,3.8h9.8
		c0.3,0,0.6-0.2,0.7-0.5l0.7-2.7c0.1-0.2,0-0.4-0.1-0.6c-0.1-0.2-0.3-0.3-0.5-0.3H343c-3.2,0-5.3-0.7-6.4-2c-1-1.3-1.1-3.2-0.4-5.8
		c1.5-5.6,5.1-8.2,11.4-8.2h9.4c0.3,0,0.6-0.2,0.7-0.5l0.7-2.7c0.1-0.2,0-0.4-0.1-0.6C358.2,96.5,358,96.4,357.7,96.4">
  </path>
  <path class="st0" d="M391.3,96.1c-10.2,0-16.6,4.3-18.7,12.4c-1,3.7-0.6,6.6,1,8.7c2,2.6,5.9,3.9,11.6,3.9
		c10.3,0,16.5-4.1,18.6-12.2c1-3.7,0.6-6.7-1-8.8C400.8,97.4,396.9,96.1,391.3,96.1 M385.9,117c-3.8,0-6.1-0.7-7.2-2.1
		c-1-1.3-1.1-3.2-0.4-6c1.9-7.2,6.3-8.7,12.3-8.7c3.8,0,6.1,0.7,7.1,2.1c1,1.3,1.1,3.3,0.3,6.3C396.5,114.5,393,117,385.9,117z">
  </path>
  <path class="st0" d="M451.3,96.4h-4c-0.3,0-0.6,0.2-0.7,0.5l-4.4,17c-0.3-0.5-0.6-1.1-0.9-1.7l-9-15.5c-0.1-0.2-0.3-0.3-0.6-0.3
		h-4.8c-0.3,0-0.6,0.2-0.7,0.5l-6,22.9c0,0.2,0,0.4,0.1,0.6c0.1,0.2,0.3,0.3,0.5,0.3h4c0.3,0,0.6-0.2,0.7-0.5l4.5-17.1
		c0.3,0.6,0.6,1.2,1,1.9l9,15.4c0.1,0.2,0.4,0.3,0.6,0.3h4.7c0.3,0,0.6-0.2,0.7-0.5l6-22.9c0-0.2,0-0.4-0.1-0.6
		C451.7,96.5,451.5,96.4,451.3,96.4">
  </path>
  <path class="st0" d="M485.9,96.4h-12.1c-0.3,0-0.6,0.2-0.7,0.5l-6,22.9c-0.1,0.2,0,0.4,0.1,0.6c0.1,0.2,0.3,0.3,0.5,0.3h12.1
		c9.6,0,15.5-4,17.5-12c1-3.7,0.7-6.7-0.9-8.7C494.6,97.6,491.2,96.4,485.9,96.4 M480,116.6h-6.4l4.2-16.1h6.7
		c3.7,0,5.9,0.6,6.9,1.9c0.9,1.2,1,3.2,0.2,6.2C490.1,114.6,487.1,116.6,480,116.6z">
  </path>
  <path class="st0" d="M545.3,96.4h-4.2c-0.3,0-0.6,0.2-0.7,0.5l-3.6,13.8c-1.3,4.9-3.3,6.2-9.6,6.2c-3.4,0-5.3-0.4-6-1.4
		c-0.6-0.8-0.7-2.2-0.1-4.5l3.6-13.8c0.1-0.2,0-0.4-0.1-0.6c-0.1-0.2-0.3-0.3-0.5-0.3h-4.2c-0.3,0-0.6,0.2-0.7,0.5l-3.7,14.2
		c-0.7,2.8-0.5,5,0.8,6.7c1.7,2.2,5,3.2,10.3,3.2c9,0,14.1-3.1,15.8-9.5l3.7-14.2c0-0.2,0-0.4-0.1-0.6
		C545.8,96.5,545.6,96.4,545.3,96.4">
  </path>
  <path class="st0" d="M588.9,96.4h-9.8c-8.9,0-15.4,4.5-17.3,12c-0.9,3.4-0.5,6.4,1.1,8.5c1.9,2.5,5.5,3.8,10.2,3.8h9.8
		c0.3,0,0.6-0.2,0.7-0.5l0.7-2.7c0.1-0.2,0-0.4-0.1-0.6c-0.1-0.2-0.3-0.3-0.5-0.3h-9.4c-3.2,0-5.3-0.7-6.4-2c-1-1.3-1.1-3.2-0.4-5.8
		c1.5-5.6,5.1-8.2,11.4-8.2h9.4c0.3,0,0.6-0.2,0.7-0.5l0.7-2.7c0.1-0.2,0-0.4-0.1-0.6C589.3,96.5,589.1,96.4,588.9,96.4">
  </path>
  <path class="st0" d="M631.2,96.4h-24.7c-0.3,0-0.6,0.2-0.7,0.5l-0.7,2.7c-0.1,0.2,0,0.4,0.1,0.6c0.1,0.2,0.3,0.3,0.5,0.3h9.4
		l-5,19.3c-0.1,0.2,0,0.4,0.1,0.6c0.1,0.2,0.3,0.3,0.5,0.3h4.2c0.3,0,0.6-0.2,0.7-0.5l5.1-19.7h9.7c0.3,0,0.6-0.2,0.7-0.5l0.7-2.7
		c0.1-0.2,0-0.4-0.1-0.6C631.6,96.5,631.4,96.4,631.2,96.4">
  </path>
  <path class="st0" d="M664.4,96.1c-10.2,0-16.6,4.3-18.7,12.4c-1,3.7-0.6,6.6,1,8.7c2,2.6,5.9,3.9,11.6,3.9
		c10.3,0,16.5-4.1,18.6-12.2c1-3.7,0.6-6.7-1-8.8C673.8,97.4,669.9,96.1,664.4,96.1 M658.9,117c-3.8,0-6.1-0.7-7.2-2.1
		c-1-1.3-1.1-3.2-0.4-6c1.9-7.2,6.3-8.7,12.3-8.7c3.8,0,6.1,0.7,7.1,2.1c1,1.3,1.1,3.3,0.3,6.3C669.5,114.5,666,117,658.9,117z">
  </path>
  <path class="st0" d="M722.9,99.2c-1.5-1.9-4.5-2.8-9.4-2.8h-13.7c-0.3,0-0.6,0.2-0.7,0.5l-6,22.9c0,0.2,0,0.4,0.1,0.6
		c0.1,0.2,0.3,0.3,0.5,0.3h4.2c0.3,0,0.6-0.2,0.7-0.5l2.1-8.1h5.8c2.3,0,2.8,0.4,3.9,2.4l3.5,5.9c0.1,0.2,0.4,0.3,0.6,0.3h4.8
		c0,0,0,0,0,0c0.4,0,0.7-0.3,0.7-0.7c0-0.2-0.1-0.4-0.2-0.5l-3.6-6.1c-0.5-0.8-0.9-1.4-1.3-1.9c4.7-1.1,7.5-3.4,8.5-7.3
		C724.2,102.2,723.9,100.5,722.9,99.2 M704,100.5h8.3c3.1,0,4.9,0.4,5.5,1.2c0.2,0.3,0.5,0.9,0.1,2.4c-0.8,3.1-2.5,3.9-7.9,3.9H702
		L704,100.5z">
  </path>
  <path class="st0" d="M730.6,114h-5.3c-0.2,0-0.3,0.1-0.3,0.3v0.7c0,0,0,0.1,0,0.1c0,0.1,0.1,0.2,0.3,0.2h1.9v5.2c0,0,0,0.1,0,0.1
		c0,0.1,0.1,0.2,0.3,0.2h0.9c0.2,0,0.3-0.1,0.3-0.3v-5.2h1.9c0.1,0,0.3-0.1,0.3-0.3v-0.7c0,0,0,0,0,0
		C730.9,114.1,730.8,114,730.6,114">
  </path>
  <path class="st0" d="M738.6,114h-1.2c-0.1,0-0.2,0.1-0.3,0.2l-1.6,4.1c-0.1,0.2-0.1,0.4-0.2,0.5c-0.1-0.2-0.1-0.4-0.2-0.5l-1.6-4.1
		c0-0.1-0.1-0.2-0.3-0.2h-1.2c-0.2,0-0.3,0.1-0.3,0.3v6.3c0,0.1,0.1,0.3,0.3,0.3h0.9c0.1,0,0.2-0.1,0.2-0.1c0-0.1,0.1-0.1,0.1-0.2
		v-3.4l1.4,3.6c0,0.1,0.1,0.2,0.3,0.2h0.9c0.1,0,0.2-0.1,0.3-0.2l1.4-3.6v3.5c0,0.1,0.1,0.3,0.3,0.3h0.9c0.1,0,0.2,0,0.2-0.1
		c0,0,0.1-0.1,0.1-0.2v-6.2C738.9,114.1,738.8,114,738.6,114">
  </path>
 </g>
</svg>