<svg version="1.1" id="Layer_1" xmlns:x="ns_extend;" xmlns:i="ns_ai;" xmlns:graph="ns_graphs;" xmlns="http://www.w3.org/2000/svg" xmlns:xlink="http://www.w3.org/1999/xlink" x="0px" y="0px" viewBox="0 0 882.3 121" style="enable-background:new 0 0 882.3 121;" xml:space="preserve">
 <style type="text/css">
  .st0{fill:#0C9ED9;}
 </style>
 <metadata>
  <sfw xmlns="ns_sfw;">
   <slices>
   </slices>
   <sliceSourceBounds bottomLeftOrigin="true" height="121" width="882.3" x="-722.3" y="0">
   </sliceSourceBounds>
  </sfw>
 </metadata>
 <g>
  <g id="Group_4656">
   <path id="Path_1127" d="M0,8.9v100.3c0,6.1,3.5,8.8,10.3,8.8h94.8c6.6,0,10.3-2.8,10.3-8.8c0-5.8-3.8-8.8-10.3-8.8H23.7
			c-3.3,0-4.5-1.5-4.5-4.5V8.9C19.2,4,15.2,0,10.4,0c-0.3,0-0.5,0-0.8,0C4.6-0.3,0.4,3.4,0,8.4C0,8.5,0,8.7,0,8.9">
   </path>
   <path id="Path_1128" d="M162.9,74V8.9c-0.4-5.3-5.1-9.2-10.3-8.8c-4.7,0.4-8.4,4.1-8.8,8.8v66.9c0,40.6,25.2,45.2,68.8,45.2
			s68.8-4.6,68.8-45.2V8.9c-0.4-5.3-5.1-9.2-10.3-8.8c-4.7,0.4-8.4,4.1-8.8,8.8V74c0,33-17.6,28.6-49.7,28.6S162.9,106.5,162.9,74">
   </path>
   <path id="Path_1129" d="M468.2,29.5v81.2c0,4.9,3.9,8.8,8.8,8.9c0.3,0,0.5,0,0.8,0c4.8,0.5,9-3,9.5-7.7c0-0.4,0.1-0.7,0-1.1V13.1
			c0.4-6.8-4.9-12.7-11.7-13.1c-0.1,0-0.3,0-0.4,0c-6.6,0-9.5,3.7-15.9,9.6l-48.9,48.3h-0.3l-48.9-48C355,3.4,350.3,0,344.7,0
			c-6.8,0.6-12.2,6.2-12.4,13.1v97.6c0,4.9,3.9,8.8,8.8,8.9c0.3,0,0.5,0,0.8,0c4.8,0.5,9-3,9.5-7.7c0-0.4,0.1-0.7,0-1.1V29.3h1
			l46.6,44.2c4.2,4.1,7.5,7.3,10.8,7.3c4.2,0,6.4-3.3,11.1-7.3l46.4-44L468.2,29.5z">
   </path>
   <path id="Path_1130" class="st0" d="M655.3,10.6c0-5.8-3.5-9.1-10.3-9.1h-95.8c-6.8,0-10.3,3.3-10.3,9.1v8.8l106.4-0.2
			C651.8,19.2,655.4,16.2,655.3,10.6">
   </path>
   <path id="Path_1131" d="M538.8,51.3v57.8c0,6.1,3.5,8.8,10.3,8.8H646c6.6,0,10.1-2.8,10.1-8.8c0-5.8-3.5-8.8-10.1-8.8h-83.5
			c-3.3,0-4.5-1.5-4.5-4.5V69.2h63c6.8,0,10.3-3,10.3-8.8c0-5.5-3.5-8.8-10.3-8.8L538.8,51.3z">
   </path>
   <path id="Path_1132" d="M838.7,108.2V8.9c-0.1-5-4.1-8.9-9.1-8.8c-0.2,0-0.3,0-0.5,0c-4.9-0.4-9.1,3.2-9.6,8c0,0.3,0,0.5,0,0.8
			v80.4L724.7,9.6C718.2,4.1,714.5,0,708.3,0c-6.8,0-11.3,4.5-11.3,13.1v97.6c0.1,5,4.1,8.9,9.1,8.8c0.2,0,0.3,0,0.5,0
			c4.9,0.4,9.1-3.2,9.6-8c0-0.3,0-0.5,0-0.8V28.5l93.8,80.6c6.3,5.3,10.6,10.3,17.1,10.3c6.2,0.2,11.4-4.6,11.6-10.8
			C838.6,108.5,838.6,108.3,838.7,108.2">
   </path>
  </g>
  <g id="Group_4660">
   <g id="Group_4659">
    <g id="Group_4658">
     <path id="Path_1133" d="M852,16.1L852,16.1c-0.2-8.5,6.5-15.4,14.8-15.6c8.4-0.2,15.3,6.5,15.5,14.8c0,0.2,0,0.4,0,0.6V16
					c0.2,8.4-6.5,15.3-14.8,15.5c-8.4,0.2-15.3-6.5-15.5-14.8C852,16.5,852,16.3,852,16.1z M880.6,16L880.6,16
					c0.1-7.5-5.8-13.6-13.2-13.7c-7.4-0.1-13.5,5.8-13.6,13.2c0,0.2,0,0.4,0,0.5v0.1c-0.1,7.4,5.8,13.5,13.2,13.6
					c7.4,0.1,13.5-5.8,13.6-13.2C880.6,16.4,880.6,16.2,880.6,16z M861.3,8h7c3.4,0,5.9,1.7,5.9,4.9c0.1,2.2-1.4,4.2-3.6,4.7
					l4.1,5.8h-3.6l-3.7-5.3h-3.2v5.3h-3L861.3,8z M868,15.7c2,0,3.1-1,3.1-2.5c0-1.7-1.1-2.5-3.1-2.5h-3.8v5.1H868z">
     </path>
    </g>
   </g>
  </g>
 </g>
</svg>