<svg version="1.1" id="Layer_1" xmlns:x="ns_extend;" xmlns:i="ns_ai;" xmlns:graph="ns_graphs;" xmlns="http://www.w3.org/2000/svg" xmlns:xlink="http://www.w3.org/1999/xlink" x="0px" y="0px" viewBox="0 0 468 77" style="enable-background:new 0 0 468 77;" xml:space="preserve">
 <metadata>
  <sfw xmlns="ns_sfw;">
   <slices>
   </slices>
   <sliceSourceBounds bottomLeftOrigin="true" height="77" width="468" x="-33.9" y="-238.3">
   </sliceSourceBounds>
  </sfw>
 </metadata>
 <g>
  <path d="M3,1.1h8.8c1.7,0,3,1.3,3,3v36.2c0,0.8,0.7,1.5,1.5,1.5h20.5c1.7,0,3,1.3,3,3v6.5c0,1.7-1.3,3-3,3H3c-1.7,0-3-1.3-3-3V4.1
		C0,2.4,1.3,1.1,3,1.1z M48.6,1.1h35c1.7,0,3,1.3,3,3v6.6c0,1.7-1.3,3-3,3H61.7c-0.8,0-1.5,0.7-1.5,1.5v5.1c0,0.8,0.7,1.5,1.5,1.5
		H81c1.7,0,3,1.3,3,3v5.6c0,1.7-1.3,3-3,3H61.7c-0.8,0-1.5,0.7-1.5,1.5v5.4c0,0.8,0.7,1.5,1.5,1.5H84c1.7,0,3,1.3,3,3v6.5
		c0,1.7-1.3,3-3,3H48.6c-1.7,0-3-1.3-3-3V4.1C45.6,2.4,47,1.1,48.6,1.1z M92.6,27.8v-0.1C92.6,12.2,104.8,0,121.3,0
		c8,0,14,2.1,19.1,5.8c1.4,1,1.6,3,0.5,4.3l-4.9,5.8c-1,1.2-2.8,1.4-4.1,0.5c-3.1-2.1-6.4-3.3-10.6-3.3c-7.7,0-13.6,6.5-13.6,14.6
		v0.1c0,8.6,6,14.8,14.4,14.8c2.7,0,4.9-0.4,6.8-1.3c1.1-0.5,1.7-1.6,1.7-2.7v-3.2c0-0.8-0.7-1.5-1.5-1.5h-6c-1.7,0-3-1.3-3-3v-4.8
		c0-1.7,1.3-3,3-3h18.5c1.7,0,3,1.3,3,3v18.5c0,1.6-0.8,3.2-2.1,4.1c-5.4,3.8-12.5,6.6-21,6.6C105,55.4,92.6,44,92.6,27.8L92.6,27.8
		z M171.8,0.7h7.6c2,0,3.8,1.2,4.6,3.1l19.6,46.4c0.8,2-0.6,4.2-2.8,4.2h-7.9c-2,0-3.9-1.2-4.6-3.1l-2.1-5.2c-0.3-0.8-1-1.2-1.9-1.2
		h-17.8c-0.8,0-1.6,0.5-1.9,1.3l-2,5.1c-0.8,1.9-2.6,3.1-4.6,3.2h-7.6c-2.1,0-3.6-2.2-2.8-4.2l19.6-46.4
		C167.9,1.9,169.7,0.7,171.8,0.7L171.8,0.7z M180.8,31.9l-4.5-11.4c-0.3-0.9-1.5-0.9-1.9,0L170,31.9c-0.3,0.7,0.2,1.4,0.9,1.4h9
		C180.6,33.3,181.1,32.6,180.8,31.9L180.8,31.9z M223.1,40.3V4.1c0-1.7-1.3-3-3-3h-8.8c-1.7,0-3,1.3-3,3v47.2c0,1.7,1.3,3,3,3h23.8
		c1.4,0,2.8-0.6,3.7-1.7l7.4-8.4c0.9-1,0.2-2.5-1.1-2.5h-20.6C223.8,41.8,223.1,41.1,223.1,40.3z M285.6,49.5v-0.2
		c0-15.3,12.3-27.7,28.7-27.7s28.6,12.2,28.6,27.5v0.2c0,15.3-12.3,27.7-28.7,27.7S285.6,64.7,285.6,49.5z M327.8,49.5v-0.2
		c0-7.7-5.5-14.4-13.7-14.4s-13.5,6.5-13.5,14.2v0.2c0,7.7,5.5,14.4,13.6,14.4S327.8,57.1,327.8,49.5L327.8,49.5z M348.3,49.5v-0.2
		c0-15.3,12.3-27.7,28.7-27.7s28.6,12.2,28.6,27.5v0.2c0,15.3-12.3,27.7-28.7,27.7S348.3,64.7,348.3,49.5z M390.5,49.5v-0.2
		c0-7.7-5.5-14.4-13.7-14.4s-13.5,6.5-13.5,14.2v0.2c0,7.7,5.5,14.4,13.6,14.4S390.5,57.1,390.5,49.5L390.5,49.5z M427.7,48.3
		c-0.5-0.8-1.8-0.5-1.8,0.5v24.1c0,1.7-1.3,3-3,3h-8.4c-1.7,0-3-1.3-3-3V25.7c0-1.7,1.3-3,3-3h9.8c1.7,0,3.4,0.9,4.3,2.4l10.4,16.9
		c0.3,0.5,0.9,0.6,1.4,0.3c0.1-0.1,0.2-0.2,0.3-0.3L451,25.1c0.9-1.5,2.5-2.4,4.3-2.4h9.8c1.7,0,3,1.3,3,3v47.2c0,1.7-1.3,3-3,3
		h-8.7c-1.7,0-3-1.3-3-3V48.7c0-1-1.3-1.4-1.8-0.5l-10.7,16.3c-0.6,0.9-1.9,0.9-2.5,0L427.7,48.3L427.7,48.3z">
  </path>
  <path d="M281,22.7h-32c-1.4,0-2.8,0.6-3.7,1.7l-7.4,8.3c-0.9,1-0.2,2.5,1.1,2.5h22.3c0.9,0,1.3,1,0.8,1.7l-23.9,27
		c-0.8,0.9-1.3,2.1-1.3,3.3v5.8c0,1.7,1.3,3,3,3h41.5c1.7,0,3-1.3,3-3v-6.5c0-1.7-1.3-3-3-3h-21.9c-0.9,0-1.3-1-0.8-1.7l23.9-27
		c0.8-0.9,1.3-2.1,1.3-3.3v-5.8C284,24,282.6,22.7,281,22.7L281,22.7z">
  </path>
 </g>
</svg>