<svg version="1.1" id="rgb" xmlns:x="ns_extend;" xmlns:i="ns_ai;" xmlns:graph="ns_graphs;" xmlns="http://www.w3.org/2000/svg" xmlns:xlink="http://www.w3.org/1999/xlink" x="0px" y="0px" viewBox="0 0 366.4 50" style="enable-background:new 0 0 366.4 50;" xml:space="preserve">
 <style type="text/css">
  .st0{fill:#005A8C;}
	.st1{fill:#EF8200;}
 </style>
 <metadata>
  <sfw xmlns="ns_sfw;">
   <slices>
   </slices>
   <sliceSourceBounds bottomLeftOrigin="true" height="50" width="366.4" x="-150.4" y="-0.1">
   </sliceSourceBounds>
  </sfw>
 </metadata>
 <g>
  <path class="st0" d="M355.5,0.9v31l-17.7-31h-14.1v48h10.9V17.1c1.8,3.2,18.2,31.8,18.2,31.8h13.6v-48H355.5z">
  </path>
  <path class="st0" d="M34.3,0.9c0,0-8.6,26.6-9.5,29.3c-0.9-2.8-9.5-29.3-9.5-29.3H0v48h10.6V16.2c1.7,5.7,9.9,32.8,9.9,32.8h8.1
		c0,0,8.7-27.4,10.4-32.9v32.9h10.7v-48H34.3">
  </path>
  <polygon class="st0" points="175.5,48.9 140,48.9 140,0.9 175.5,0.9 175.5,10.3 151.6,10.3 151.6,19.2 173.5,19.2 173.5,28.5 
		151.6,28.5 151.6,39.6 175.5,39.6 	">
  </polygon>
  <rect x="59.4" y="40.3" class="st1" width="26" height="8.7">
  </rect>
  <path class="st0" d="M120,0.9c0,0-12.8,16.1-14.7,18.2V0.9H94.5v48h10.9V27.7c1.9,2.3,15.1,21.2,15.1,21.2h15.3
		c0,0-20.2-24.9-21-25.7l19.7-22.3H120z">
  </path>
  <path class="st0" d="M270.8,24.8c0,14.8,7.8,25.1,22.7,25.1s22.7-10.5,22.7-25.1S308,0,293.4,0S270.7,10,270.8,24.8 M282.3,24.8
		c0-7.3,3.2-14.7,11.1-14.7c7.9,0,11.1,7.5,11.1,14.7s-3,15-11.1,15C285.3,39.8,282.3,32.3,282.3,24.8">
  </path>
  <path class="st0" d="M206,19.8c-5.2-1.4-10.2-2.2-10.3-5.6c0-0.9,0.4-1.8,1.1-2.5c1.8-1.7,6.1-2.3,9.4-2c4.2,0.2,8.3,1.4,12,3.5
		l2.4-9.8C214.9,1.2,209,0.1,203,0c-12,0.1-19.5,6-19.5,15.5s9.1,12.1,16.8,14.3c5,1.4,10,2.1,10,5.9c0,3.7-6,5.1-10.1,5.1
		c-5-0.1-9.9-1.6-14.1-4.3l-3.1,9.7c6.9,2.7,11.1,3.9,17.8,3.9c7.3,0,13.3-2,17-5.7c2.7-2.7,4.1-6.3,4-10.1
		c0-9.8-8.6-12.5-15.9-14.4">
  </path>
  <path class="st0" d="M249.5,19.8c-5.2-1.4-10.2-2.2-10.3-5.6c0-0.9,0.4-1.8,1-2.5c1.9-1.7,6.1-2.3,9.4-2c4.2,0.2,8.4,1.4,12,3.5
		l2.3-9.8c-5.6-2.2-11.5-3.4-17.5-3.4c-12,0.1-19.5,6-19.5,15.5s9.1,12.1,16.8,14.3c5,1.4,10,2.1,10,5.9c0,3.7-6,5.1-10.1,5.1
		c-5-0.1-9.9-1.5-14.1-4.3l-3.1,9.7c6.9,2.7,11.1,3.9,17.8,3.9c7.3,0,13.3-2,17-5.7c2.6-2.7,4.1-6.3,4-10.1
		c0-9.8-8.6-12.5-15.9-14.4">
  </path>
  <path class="st0" d="M75.6,35.2c3.8,0.1,7.6-0.7,11.1-2.2l-3.3-7.8c-1.7,1-3.7,1.6-5.7,1.6c-5.6,0-10.3-2.8-10.3-9.2
		S72,8.5,77.7,8.5c2,0,4,0.5,5.7,1.6l3.3-7.7C83.2,0.8,79.4,0,75.6,0.1c-11.5,0-18.8,6.6-18.8,17.6S64.1,35.2,75.6,35.2">
  </path>
 </g>
</svg>