<svg version="1.1" id="Layer_1" xmlns:x="ns_extend;" xmlns:i="ns_ai;" xmlns:graph="ns_graphs;" xmlns="http://www.w3.org/2000/svg" xmlns:xlink="http://www.w3.org/1999/xlink" x="0px" y="0px" viewBox="0 0 149.5 44" style="enable-background:new 0 0 149.5 44;" xml:space="preserve">
 <style type="text/css">
  .st0{fill:#EE2C46;}
	.st1{fill:#0B1B2B;}
	.st2{fill:#0E202E;}
 </style>
 <metadata>
  <sfw xmlns="ns_sfw;">
   <slices>
   </slices>
   <sliceSourceBounds bottomLeftOrigin="true" height="44" width="149.5" x="125.3" y="-222">
   </sliceSourceBounds>
  </sfw>
 </metadata>
 <g>
  <path class="st0" d="M57.8,9.5c2.3,0,4.1-1.8,4.1-4.1s-1.9-4.1-4.1-4.1s-4.1,1.8-4.1,4.1S55.5,9.5,57.8,9.5">
  </path>
  <path class="st1" d="M57.8,14.4c-1.9,0-3.3,1.5-3.3,3.3v16.1c0,2-1.6,3.5-3.4,3.5c-1.9,0-3.4-1.5-3.4-3.5V11.5h0
		c0-5.8-4.6-10.2-10.2-10.2S27.2,5.8,27.2,11.5v22.4c0,2-1.5,3.5-3.4,3.5s-3.4-1.6-3.4-3.5V11.5c0-5.8-4.6-10.2-10.2-10.2
		S0,5.8,0,11.5v29.1C0,42.4,1.5,44,3.4,44s3.4-1.5,3.4-3.4V11.4c0-2,1.5-3.5,3.4-3.5s3.4,1.5,3.4,3.5v22.4c0,5.8,4.6,10.2,10.2,10.2
		S34,39.5,34,33.8V11.4c0-2,1.5-3.5,3.4-3.5c1.9,0,3.4,1.5,3.4,3.5v17.3c0,0.1,0,0.1,0,0.2v4.8C40.8,39.5,45.4,44,51,44
		s10.1-4.5,10.1-10.2v-3.3c0-0.1,0-0.1,0-0.2V17.8C61.1,15.9,59.7,14.4,57.8,14.4">
  </path>
  <path class="st2" d="M67.8,11.2V4.7c0-1.9,1.5-3.3,3.3-3.3s3.3,1.5,3.3,3.3v6.6h8.6c1.8,0,3.3,1.5,3.3,3.3s-1.5,3.3-3.3,3.3h-8.6
		v14.7c0,2.8,2.1,4.9,4.9,4.9h3.6c1.8,0,3.3,1.5,3.3,3.3S84.9,44,83.1,44h-3.7c-6.4,0-11.6-5.2-11.6-11.6V11.2L67.8,11.2z">
  </path>
  <path class="st2" d="M88.1,27.6c0-9.2,7-16.4,16.4-16.4c4.8,0,8.6,1.9,10.7,3.8c0.7,0.7,1.2,1.6,1.2,2.6c0,0.9-0.2,1.6-1,2.5
		l-9.5,11.3c-0.7,0.8-1.4,1.1-2.4,1.1c-1.9,0-3.2-1.3-3.2-3.1c0-0.7,0.2-1.5,0.7-2l7.5-8.8c-1.1-0.7-2.7-1.1-4.1-1.1
		c-5.3,0-9.5,4.5-9.5,10.1s4.1,10.1,9.5,10.1c2.9,0,5.1-1.2,6.6-2.8c1-0.8,1.7-1.5,3-1.5c1.9,0,3.3,1.4,3.3,3.3c0,0.7-0.4,1.5-1,2.2
		c-2.4,2.9-6.6,5.1-11.9,5.1C95.1,44,88.1,36.7,88.1,27.6">
  </path>
  <path class="st2" d="M148.6,38.2L139.2,27l9-10.7c0.6-0.6,0.7-1.3,0.7-2c0-1.8-1.4-3.1-3.2-3.1c-1,0-1.7,0.4-2.4,1.1l-10,11.9h-4.4
		V3.4c0-1.9-1.5-3.4-3.4-3.4c-1.9,0-3.4,1.5-3.4,3.4v37.1c0,1.9,1.5,3.5,3.4,3.5c1.9,0,3.4-1.5,3.4-3.5v-9.8h4.6l10,11.8
		c0.6,0.8,1.6,1.2,2.5,1.2c1.8,0,3.5-1.5,3.5-3.4C149.5,39.7,149.1,38.8,148.6,38.2">
  </path>
 </g>
</svg>