<svg version="1.1" id="Layer_1" xmlns:x="ns_extend;" xmlns:i="ns_ai;" xmlns:graph="ns_graphs;" xmlns="http://www.w3.org/2000/svg" xmlns:xlink="http://www.w3.org/1999/xlink" x="0px" y="0px" viewBox="0 0 252 96" style="enable-background:new 0 0 252 96;" xml:space="preserve">
 <style type="text/css">
  .st0{fill:#004F7E;}
	.st1{fill:#007DC0;}
	.st2{fill:#85CCCF;}
	.st3{fill:#7AB929;}
	.st4{fill:#009B3E;}
	.st5{fill:#CDD500;}
	.st6{fill:#DCAE6B;}
	.st7{fill:#F3E7CE;}
	.st8{fill:#E7C89D;}
	.st9{fill:#00A9BE;}
	.st10{fill:#E2A38D;}
	.st11{fill:#E30613;}
	.st12{fill:#7BC6EF;}
	.st13{fill:#EF7B00;}
	.st14{fill:#BF1C1D;}
	.st15{fill:#F7A600;}
	.st16{fill:#921913;}
 </style>
 <metadata>
  <sfw xmlns="ns_sfw;">
   <slices>
   </slices>
   <sliceSourceBounds bottomLeftOrigin="true" height="96" width="252" x="74.1" y="-247.8">
   </sliceSourceBounds>
  </sfw>
 </metadata>
 <g>
  <path class="st0" d="M136.2,60.4h-10l4.8-13.8h0.1L136.2,60.4z M115.2,76.6h9.8v-3.1h-3.4l3.4-10h12.5l3.6,10h-3.6v3.1h13.1v-3.1
		h-3.3l-13.2-35.3h-3.2l-12.4,35.3h-3.2V76.6z">
  </path>
  <polygon class="st0" points="152.7,74.1 157.3,74.1 157.3,38 152.7,38 152.7,35.5 163.1,35.5 163.1,74.1 167.5,74.1 167.5,76.6 
		152.7,76.6 	">
  </polygon>
  <path class="st0" d="M168,53l9.4-9.7v7.1h7.3V53h-7.3v15.1c0,4.1,1.1,6.1,3.5,6.1c2.5,0,3.8-2,4.4-2l0.6,0.8c0,0.7-2.3,4.3-6.9,4.3
		c-4.8,0-7.4-3.1-7.4-8.7V53H168z">
  </path>
  <path class="st0" d="M187.5,74.1h4.7V53h-4.7v-2.6H198v4.4h0.1c3.1-3.9,4.7-5.1,6.4-5.1c1.6,0,2.9,0.7,4.4,2.5
		c-0.5,2.6-1.3,4.8-2.4,6.4c-1.5-2.8-2.4-3.7-4.1-3.7c-1.7,0-3,1.1-4.4,3.1v15.9h4.7v2.6h-15.1V74.1z">
  </path>
  <path class="st0" d="M211.7,74.1h4.6v-21h-4.6v-2.6H222v23.6h4.4v2.6h-14.8V74.1z M221.7,42.1c0,1.7-1.4,3.2-3.2,3.2
		c-1.7,0-3.2-1.4-3.2-3.2c0-1.7,1.4-3.2,3.2-3.2C220.3,38.9,221.7,40.4,221.7,42.1">
  </path>
  <path class="st0" d="M240.8,64.3v7c-1.6,1.3-3,1.9-4.3,1.9c-1.9,0-3.4-1.5-3.4-3.5C233.2,67.2,235.4,65.6,240.8,64.3 M229.1,55.9
		c3.1-1.9,5.4-2.8,7.4-2.8c3.4,0,4.4,2.1,4.4,5.2v3.5l-5.8,1.4c-5.1,1.3-7.3,3.4-7.3,7.3c0,3.8,2.6,6.9,6.1,6.9
		c2.2,0,4.5-1.6,7.6-3.9c1.4,2.7,2.8,3.9,4.8,3.9c1.8,0,3.8-0.7,5.7-2.1v-1.8c-0.6,0.1-2.2,0.4-2.7,0.4c-1.6,0-2.7-1.6-2.7-4.3V58.9
		c0-5.7-3.1-9.2-8.2-9.2c-3.1,0-6.8,1.6-9.9,4.3L229.1,55.9z">
  </path>
  <rect class="st0" width="19.1" height="19.2">
  </rect>
  <rect y="19.2" class="st1" width="19.1" height="19.2">
  </rect>
  <rect y="38.4" class="st2" width="19.1" height="19.2">
  </rect>
  <rect y="57.6" class="st3" width="19.1" height="19.2">
  </rect>
  <rect y="76.8" class="st4" width="19.1" height="19.2">
  </rect>
  <rect x="19.1" y="76.8" class="st3" width="19.1" height="19.2">
  </rect>
  <rect x="38.3" y="76.8" class="st5" width="19.1" height="19.2">
  </rect>
  <rect x="57.4" y="76.8" class="st6" width="19.1" height="19.2">
  </rect>
  <rect x="76.6" y="76.8" class="st7" width="19.1" height="19.2">
  </rect>
  <rect x="19.1" y="57.6" class="st5" width="19.1" height="19.2">
  </rect>
  <rect x="38.3" y="57.6" class="st7" width="19.1" height="19.2">
  </rect>
  <rect x="57.4" y="57.6" class="st8" width="19.1" height="19.2">
  </rect>
  <rect x="76.6" y="57.6" class="st6" width="19.1" height="19.2">
  </rect>
  <rect x="19.1" y="38.4" class="st9" width="19.1" height="19.2">
  </rect>
  <rect x="38.3" y="38.4" class="st8" width="19.1" height="19.2">
  </rect>
  <rect x="57.4" y="38.4" class="st10" width="19.1" height="19.2">
  </rect>
  <rect x="76.6" y="38.4" class="st11" width="19.1" height="19.2">
  </rect>
  <rect x="19.1" y="19.2" class="st12" width="19.1" height="19.2">
  </rect>
  <rect x="38.3" y="19.2" class="st13" width="19.1" height="19.2">
  </rect>
  <rect x="57.4" y="19.2" class="st11" width="19.1" height="19.2">
  </rect>
  <rect x="76.6" y="19.2" class="st14" width="19.1" height="19.2">
  </rect>
  <rect x="19.1" class="st1" width="19.1" height="19.2">
  </rect>
  <rect x="38.3" class="st15" width="19.1" height="19.2">
  </rect>
  <rect x="57.4" class="st14" width="19.1" height="19.2">
  </rect>
  <rect x="76.6" class="st16" width="19.1" height="19.2">
  </rect>
 </g>
</svg>