<svg version="1.1" id="Layer_1" xmlns:x="ns_extend;" xmlns:i="ns_ai;" xmlns:graph="ns_graphs;" xmlns="http://www.w3.org/2000/svg" xmlns:xlink="http://www.w3.org/1999/xlink" x="0px" y="0px" viewBox="0 0 228.8 108.2" style="enable-background:new 0 0 228.8 108.2;" xml:space="preserve">
 <style type="text/css">
  .st0{fill:#002F6C;}
	.st1{fill:#FFD100;}
	.st2{clip-path:url(#SVGID_2_);}
 </style>
 <metadata>
  <sfw xmlns="ns_sfw;">
   <slices>
   </slices>
   <sliceSourceBounds bottomLeftOrigin="true" height="108.2" width="228.8" x="35.1" y="35.2">
   </sliceSourceBounds>
  </sfw>
 </metadata>
 <g>
  <path class="st0" d="M114.4,4.4c-2.4,0-7.5,1.4-9.3,1.9L22.5,30.2c-10.6,3-18,12.8-18,23.9c0,11,7.4,20.9,18,23.9l82.6,23.8
		c1.8,0.5,6.9,1.9,9.3,1.9c2.4,0,7.5-1.4,9.3-1.9L206.3,78c10.6-3,18-12.8,18-23.9c0-11-7.4-20.9-18-23.9L123.7,6.4
		C122,5.8,116.9,4.4,114.4,4.4z">
  </path>
  <g>
   <path class="st1" d="M114.4,108.2c-3.5,0-9.9-1.9-10.6-2.1L21.2,82.3C8.7,78.7,0,67.2,0,54.1c0-13,8.7-24.6,21.2-28.2l82.6-23.8
			c0.7-0.2,7-2.1,10.6-2.1c3.5,0,9.9,1.9,10.6,2.1l82.6,23.8c12.5,3.6,21.2,15.1,21.2,28.2c0,13-8.7,24.6-21.2,28.2L125,106.1
			C124.3,106.3,118,108.2,114.4,108.2z M114.4,4.4c-2.4,0-7.5,1.4-9.3,1.9L22.5,30.2c-10.6,3-18,12.8-18,23.9c0,11,7.4,20.9,18,23.9
			l82.6,23.8c1.8,0.5,6.9,1.9,9.3,1.9c2.4,0,7.5-1.4,9.3-1.9L206.3,78c10.6-3,18-12.8,18-23.9c0-11-7.4-20.9-18-23.9L123.7,6.4
			C122,5.8,116.9,4.4,114.4,4.4z">
   </path>
   <g>
    <g>
     <path class="st1" d="M38.8,70.8V37.4h6.6L59,59.6V37.4h6.3v33.4h-6.8L45.1,49v21.8H38.8z">
     </path>
     <path class="st1" d="M119.2,43c3.1,0,4.1,0,4.8,0.1c1.1,0.1,2,0.5,2.5,1.2c0.6,0.6,0.8,1.5,0.8,2.5c0,1.1-0.3,1.9-1,2.6
					s-1.6,1.1-2.7,1.2c-0.6,0.1-1.3,0.1-3.9,0.1h-4.4V43C115.3,43,119.2,43,119.2,43z M108.6,70.8h11.3c4.3,0,6.1-0.1,7.2-0.2
					c1.8-0.2,3.3-0.7,4.5-1.6s2.2-2,2.9-3.4s1.1-2.9,1.1-4.4c0-1.9-0.5-3.6-1.6-5s-2.7-2.4-4.7-3c1.4-0.7,2.6-1.6,3.4-2.9
					c0.8-1.3,1.3-2.7,1.3-4.3c0-1.4-0.3-2.7-1-3.9c-0.7-1.2-1.5-2.1-2.6-2.8c-1-0.7-2.2-1.2-3.5-1.4c-1.3-0.2-3.3-0.3-5.9-0.3h-12.4
					V70.8z M120.8,56.3c3,0,4.1,0.2,5,0.5s1.6,0.8,2.1,1.5s0.7,1.5,0.7,2.5c0,1.2-0.3,2.1-0.9,2.8c-0.6,0.7-1.4,1.1-2.4,1.3
					c-0.6,0.1-1.2,0.2-3.7,0.2h-6.2v-8.9L120.8,56.3L120.8,56.3z">
     </path>
     <path class="st1" d="M139.8,70.8V37.4h6.8v27.7h15.8v5.6L139.8,70.8L139.8,70.8z">
     </path>
     <path class="st1" d="M166,70.8V37.4h23V43h-16.2v7.4h15V56h-15v9.1h17.3v5.6H166V70.8z">
     </path>
    </g>
   </g>
   <g>
    <g>
     <g>
      <g>
       <defs>
        <circle id="SVGID_1_" cx="86.9" cy="54.1" r="16.2">
        </circle>
       </defs>
       <clipPath id="SVGID_2_">
        <use href="#SVGID_1_" style="overflow:visible;">
        </use>
       </clipPath>
       <g class="st2">
        <g>
         <g>
          <path class="st1" d="M81.8,68.8L81.8,68.8L81.8,68.8z">
          </path>
          <polygon class="st1" points="81.8,68.9 81.9,69 81.9,68.9 									">
          </polygon>
          <polygon class="st1" points="82,69.1 82,69.1 82.1,69.1 82.1,69.1 									">
          </polygon>
          <polygon class="st1" points="82.9,69.6 82.9,69.6 82.8,69.6 82.8,69.6 82.9,69.7 83,69.7 82.9,69.6 83,69.6 									">
          </polygon>
          <polygon class="st1" points="81.3,68 81.3,68 81.3,67.9 81.2,67.9 									">
          </polygon>
          <polygon class="st1" points="83.4,69.9 83.7,69.9 83.5,69.8 83.4,69.8 									">
          </polygon>
          <polygon class="st1" points="81.3,68.3 81.4,68.3 81.4,68.1 81.3,68.1 									">
          </polygon>
          <polygon class="st1" points="82.9,59 82.8,58.9 82.8,59 									">
          </polygon>
          <polygon class="st1" points="86.5,60.3 86.3,59.9 85.9,59.9 85.6,59.8 85.5,59.7 85.2,59.5 84.9,59.6 84.8,59.5 84.7,59.6 
										84.4,59.5 84.3,59.6 84.3,59.5 84.2,59.5 84.2,59.6 84.1,59.7 84.1,59.4 84.1,59.4 83.9,59.3 83.8,59.2 83.7,59.3 
										83.7,59.2 83.6,59.2 83.6,59.2 83.3,59.2 83.3,59.3 83.3,59.4 82.8,59.5 83.2,59.3 83.2,59.2 83.2,59.2 83.3,59 83,59 
										82.8,59 82.8,59 82.7,59.3 82.5,59.4 82.7,59.2 82.7,59 82.9,58.8 82.6,58.6 82.6,58.3 82.5,58.1 82.4,58 82.4,58.1 
										82.4,58.1 82.1,57.8 81.8,57.8 81.8,57.8 81.4,57.7 81.4,57.8 81.3,57.7 81.2,57.8 81.1,57.6 81,57.5 80.9,57.6 80.9,57.4 
										80.5,57.1 80.5,57.1 80.2,57.1 80.3,56.9 80,56.8 80,56.7 79.9,56.7 79.9,56.6 80.1,56.6 79.7,56.6 79.6,56.6 79.7,56.6 
										79.5,56.7 79.2,56.6 78.9,56.6 78.8,56.4 78.6,56.4 78.3,56.5 78.4,56.8 78.4,56.9 78.3,57 78.2,56.8 78.2,56.5 78.2,56.3 
										78.3,56.3 78.3,56.3 78.1,56.3 77.9,56.4 77.8,56.4 77.8,56.5 77.7,56.5 77.7,56.4 77.6,56.4 77.5,56.6 77.5,56.8 77.4,57 
										77.4,57.1 77.2,57 77.2,57 77.3,57.2 77.3,57.2 77.3,57.2 77.2,57.3 77.2,57.2 77.2,57.3 77.4,57.7 77.3,57.7 77.4,58.1 
										77.4,58.1 77.3,58.4 77.2,58.5 77.2,58.6 77.1,58.6 77.2,58.7 77,58.8 77,59 77,59.1 77,59.2 76.9,59.3 77,59.6 77.2,59.5 
										77.1,59.8 77.1,59.8 77,60 77.1,60.2 77.1,60.3 77.1,60.4 77.3,60.6 77.6,61 77.9,61.6 78.3,62.1 78.4,62.3 78.6,62.6 
										79.2,62.9 79.7,63.2 79.7,63.2 79.9,63.9 80,64.2 79.9,64.2 80,64.3 80,64.4 80.1,64.7 80.2,65.4 80.4,65.5 80.3,65.7 
										80.6,66.1 80.6,66.2 80.7,66.5 80.6,66.6 80.7,66.8 80.6,66.8 80.7,66.9 80.7,66.9 80.9,67.2 81,67.6 81.2,67.7 81.2,67.6 
										81.3,67.7 81.3,67.8 81.4,67.9 81.4,68 81.5,68.1 81.5,68.1 81.6,68.2 81.6,68.4 81.6,68.4 81.6,68.4 81.7,68.4 81.7,68.5 
										81.5,68.4 81.4,68.5 81.6,68.5 81.7,68.6 81.9,68.7 81.7,68.7 82,68.9 82,68.9 82,68.9 82,69 82,69 82.1,69 82,69 
										82.1,69.1 82,69 82.3,69.2 82.3,69.3 82.4,69.3 82.4,69.3 82.5,69.3 82.6,69.5 82.8,69.5 82.7,69.5 82.9,69.6 82.8,69.5 
										83,69.4 83,69.4 83.1,69.4 83.1,69.4 83,69.3 82.9,69.2 82.9,69.1 82.7,69 82.9,69 82.9,68.9 83,68.8 82.9,68.7 82.8,68.6 
										82.5,68.4 82.5,68.3 82.7,68.3 82.6,68.1 82.7,67.9 82.6,67.9 82.7,67.8 82.5,67.8 82.4,67.6 82.4,67.6 82.7,67.6 
										82.8,67.6 82.7,67.3 82.6,67.2 82.8,67.2 83.1,67.2 83.4,67.1 83.5,66.8 83.3,66.7 83.3,66.6 83,66.4 82.9,66.3 82.9,66 
										83,66.3 83.1,66.4 83.2,66.4 83.7,66.5 83.8,66.4 83.9,66.2 84,66.1 83.9,65.8 84,65.7 84,65.5 84.2,65.6 84.1,65.8 
										84,65.8 84,65.9 84.2,65.8 84.3,65.3 84.4,65.2 84.4,64.9 84.3,64.7 84.3,64.6 84.3,64.6 84.4,64.5 84.7,64.2 84.9,64.2 
										84.8,64.1 85,64.1 85,64 85.5,63.9 85.6,63.8 85.7,63.7 85.7,63.6 85.8,63.2 85.8,63.2 85.8,62.9 85.9,62.8 85.9,62.7 
										85.9,62.4 85.8,62.1 85.8,61.7 85.9,61.7 86.1,61.3 86.1,61.3 86.2,61.1 86.3,60.9 86.3,60.9 86.4,60.8 									">
          </polygon>
          <polygon class="st1" points="83,69.7 83.2,69.8 83.3,69.8 83.5,69.8 83.6,69.8 83.8,69.8 83.9,69.8 83.9,69.8 83.7,69.7 
										83.2,69.6 83.2,69.5 83.2,69.5 83.1,69.5 83,69.5 83.1,69.6 83.3,69.7 83.1,69.7 									">
          </polygon>
          <polygon class="st1" points="84.1,69.8 84.1,69.8 84,69.8 84,69.8 									">
          </polygon>
          <polygon class="st1" points="78.3,49.4 78.5,49.3 78.2,49.3 78.1,49.4 									">
          </polygon>
          <polygon class="st1" points="72.7,45.8 72.7,45.9 72.7,45.9 									">
          </polygon>
          <polygon class="st1" points="74.1,42.3 74.2,42.2 74.2,42.3 74.1,42.4 									">
          </polygon>
          <polygon class="st1" points="73.8,43.4 73.8,43.4 73.7,43.5 73.8,43.5 									">
          </polygon>
          <polygon class="st1" points="73.7,43.5 73.6,43.7 73.7,43.6 									">
          </polygon>
          <polygon class="st1" points="73.7,43.5 73.7,43.5 73.5,43.8 73.6,43.8 									">
          </polygon>
          <polygon class="st1" points="73.5,44 73.5,43.9 73.5,43.9 73.4,44 									">
          </polygon>
          <polygon class="st1" points="73.6,43.8 73.6,43.8 73.6,43.9 									">
          </polygon>
          <polygon class="st1" points="85.5,37.9 85.5,37.8 85.4,37.8 85.4,37.9 									">
          </polygon>
          <polygon class="st1" points="85.2,37.9 85.2,37.9 85.2,37.8 									">
          </polygon>
          <polygon class="st1" points="83,39.3 83.1,39.2 83.1,39.2 83,39.2 									">
          </polygon>
          <polygon class="st1" points="86.8,40.6 86.9,40.5 87.1,40.6 87.2,40.8 87.4,40.8 87.4,40.7 87.5,40.8 87.6,40.8 87.4,40.4 
										87.3,40.4 87.3,40.4 87,40.3 86.9,40.4 86.9,40.3 86.8,40.1 86.7,40 86.8,40 86.9,40 86.8,39.9 87,40 87,39.8 87.2,39.9 
										87,39.9 87.1,40 87.2,40 87.4,39.9 87.2,39.9 87.1,39.8 87.1,39.6 87.4,39.7 87.5,39.6 87.4,39.6 87.2,39.6 87.2,39.5 
										87.1,39.5 87,39.5 87,39.4 87.2,39.4 87.3,39.5 87.3,39.4 87.2,39.2 87,39.2 86.9,39.1 87,39 87.3,39.1 87.3,39 87.1,38.8 
										86.9,38.8 86.9,38.9 86.8,38.6 86.9,38.5 86.9,38.4 86.9,38.4 87,38.3 86.8,38.3 86.8,38.4 86.7,38.3 86.8,38.3 86.9,38.3 
										87,38.2 86.8,38.2 86.8,38.1 87,38.1 87,37.9 86.8,37.8 86.7,37.8 86.7,38 86.6,37.9 86.6,38 86.6,37.9 86.5,38 86.5,38.2 
										86.5,38.1 86.5,38 86.4,37.8 86.4,37.9 86.4,37.9 86.3,38 86.2,38 86.3,37.9 86.1,37.9 86.2,37.8 86.3,37.8 86.4,37.7 
										86.3,37.7 86.3,37.7 86.3,37.6 86.2,37.7 86.2,37.6 86.2,37.6 86.2,37.5 86.1,37.5 86.1,37.6 86.1,37.5 86,37.5 86,37.6 
										86,37.5 85.9,37.5 85.9,37.6 85.9,37.5 85.8,37.6 85.8,37.6 85.8,37.7 85.8,37.7 85.7,37.8 85.8,37.7 85.7,37.6 85.7,37.7 
										85.6,37.6 85.5,37.7 85.5,37.7 85.7,37.7 85.7,37.8 85.7,37.8 85.6,37.8 85.6,37.9 85.6,37.8 85.5,37.8 85.4,38 85.4,37.9 
										85.4,37.9 85.4,37.9 85.3,37.8 85.3,38 85.2,38 85.1,38.1 85.2,38 85.1,38 85,38.1 85.1,37.9 84.9,38 84.8,38.1 84.8,38.2 
										84.7,38.2 84.8,38 84.6,38.2 84.5,38.2 84.5,38.2 84.4,38.4 84.4,38.2 84,38.5 84,38.6 84.1,38.6 84.2,38.5 83.8,38.8 
										83.6,38.8 83.6,38.9 83.3,38.9 83.1,39 83.3,39.1 83.2,39.2 83.2,39.2 83.4,39.2 83.4,39.2 83.3,39.3 83.1,39.3 83,39.3 
										83,39.4 83.1,39.4 82.9,39.5 83,39.6 83.1,39.5 83.1,39.6 83.2,39.5 83.2,39.6 83.3,39.5 83.6,39.6 83.7,39.7 83.6,39.8 
										83.7,40 83.6,40.3 83.7,40.3 83.5,40.5 83.6,40.6 83.5,40.7 83.5,40.7 83.4,40.8 83.4,40.8 83.4,40.9 83.6,40.9 83.6,40.8 
										83.7,40.7 83.7,40.9 83.8,40.9 83.7,41 83.8,41 83.8,41.1 83.9,41.2 83.8,41.2 83.6,41.1 83.5,41.1 83.4,41.2 83.6,41.3 
										83.8,41.3 83.7,41.6 83.5,41.6 83.4,41.7 83.7,41.7 83.3,41.9 83.6,41.9 83.7,42 83.4,42 83.4,42.1 83.1,42.1 83.1,42.3 
										83.5,42.2 83.6,42.2 83.5,42.2 83.1,42.4 83.2,42.6 83.4,42.5 83.2,42.7 83.2,42.9 83.4,42.6 83.5,42.8 83.5,42.7 
										83.4,43.1 83.3,43.2 83.4,43.1 83.4,43.5 83.6,43.5 83.5,43.7 83.6,43.6 83.6,43.7 83.8,43.7 83.6,43.9 83.9,43.9 
										84.1,43.7 84,43.8 84.2,43.7 84.1,44.1 84.5,44 84.7,43.5 84.5,43.2 84.8,43 84.9,43 84.8,42.9 85,42.9 85,42.8 84.9,42.7 
										85,42.7 84.9,42.5 85.2,42.3 85.3,42.4 85.3,42.3 85.4,42.1 85.5,42.2 85.4,42.3 85.5,42.3 85.9,42.1 86.1,41.7 86.2,41.7 
										86.2,41.4 86.3,41.6 86.5,41.6 86.5,41.5 86.5,41.6 86.6,41.5 86.6,41.5 87.1,41.3 87.2,41.1 87.3,41.1 87.3,41.1 
										87.3,41.1 87.5,40.9 87.1,40.9 86.8,41 86.7,41 86.8,40.9 86.6,40.9 86.7,40.7 86.7,40.8 87,40.6 86.6,40.6 86.7,40.5 
																			">
          </polygon>
          <polygon class="st1" points="83.5,41 83.6,41.1 83.6,40.9 83.6,40.9 									">
          </polygon>
          <polygon class="st1" points="83.6,41.4 83.4,41.3 83.4,41.6 									">
          </polygon>
          <polygon class="st1" points="83.8,41.4 83.7,41.4 83.6,41.5 									">
          </polygon>
          <polygon class="st1" points="77.5,54.7 77.4,54.7 77.7,54.8 78,54.8 78,54.8 78,54.8 78.3,54.8 78.5,54.7 78.8,54.8 
										78.9,54.7 78.6,54.6 78.5,54.6 78.5,54.5 78.2,54.4 78,54.5 77.8,54.4 77.7,54.4 77.9,54.7 77.6,54.7 									">
          </polygon>
          <polygon class="st1" points="76.7,54.4 77.1,54.3 77.2,54.4 77.3,54.3 77.3,54.4 77.5,54.3 77.3,54.2 77.1,54.2 77.2,54.1 
										76.9,54 76.8,53.9 76.5,53.7 76.4,53.7 76.3,53.6 76,53.6 76,53.5 75.6,53.5 75.4,53.6 75.3,53.7 75.4,53.7 75.7,53.6 
										75.8,53.6 76.1,53.8 76.3,53.9 76.5,53.9 76.6,54.1 76.8,54.2 76.8,54.2 76.8,54.3 									">
          </polygon>
          <polygon class="st1" points="83.4,38.1 83.2,38.2 83.3,38.2 82.6,38.5 82.4,38.6 82.4,38.7 82.6,38.6 82.4,38.7 82.3,38.7 
										82.1,38.9 82.2,39 82.4,38.8 82.3,39 82.6,38.8 82.8,38.7 82.8,38.6 83.1,38.4 83,38.5 83.1,38.4 83.1,38.3 									">
          </polygon>
          <polygon class="st1" points="85,37.8 84.9,37.8 84.9,37.7 84.8,37.8 84.9,37.7 84.9,37.7 84.8,37.8 84.8,37.7 84.6,37.8 
										84.7,37.7 84.7,37.7 84.5,37.8 84.6,37.7 84.6,37.7 84.5,37.8 84.4,37.8 84.5,37.8 84.5,37.8 84.4,37.8 84.4,37.8 
										84.2,37.9 84.3,37.9 84.2,37.9 84.2,37.9 84.1,38 84.2,37.9 84.1,38 84,38 84.2,37.8 84.2,37.8 83.9,38 83.9,37.9 83.8,38 
										83.6,38 83.6,38.1 83.5,38.1 83.7,38.1 83.6,38.1 83.5,38.1 83.4,38.2 83.5,38.2 83.3,38.2 83.5,38.2 83.7,38.1 83.5,38.2 
										83.6,38.2 83.5,38.3 83.5,38.3 83.3,38.4 83.4,38.4 83.6,38.3 83.4,38.4 83.5,38.4 83.3,38.6 83.4,38.5 83.3,38.5 
										83.2,38.6 83.2,38.5 83.1,38.4 82.9,38.6 82.9,38.6 82.9,38.7 82.8,38.8 82.7,38.9 82.7,38.8 82.6,38.8 82.4,39 82.5,38.9 
										82.4,39.1 82.6,39 82.6,39 82.2,39.2 82.2,39.2 82.3,39.1 82.2,39 81.9,39.2 81.7,39.3 81.7,39.5 81.8,39.4 81.8,39.4 
										81.9,39.4 81.9,39.5 82,39.4 82.1,39.3 82,39.4 82.2,39.3 82.1,39.4 82.2,39.5 82.1,39.5 82.4,39.4 82.5,39.3 82.4,39.2 
										82.3,39.3 82.5,39.1 82.5,39.2 82.7,39.2 82.8,39.1 82.9,39.1 83.2,38.8 83.1,38.8 83.3,38.7 83.3,38.7 83.5,38.7 
										83.5,38.6 83.5,38.6 83.6,38.6 83.7,38.6 83.9,38.4 83.9,38.5 84,38.4 84.2,38.3 84.2,38.3 84.2,38.3 84.5,38.1 84.6,38.1 
										84.9,37.9 84.9,37.8 84.8,37.9 84.9,37.8 									">
          </polygon>
          <polygon class="st1" points="81.6,38.8 81.6,38.8 81.7,38.8 81.6,38.8 81.7,38.8 81.6,38.9 81.6,39 81.9,38.8 82,38.6 
										81.9,38.7 82.1,38.6 									">
          </polygon>
          <polygon class="st1" points="81.5,38.7 81.7,38.6 81.4,38.7 81.3,38.7 									">
          </polygon>
          <polygon class="st1" points="82.2,38.8 82.2,38.6 81.9,38.9 82,38.9 									">
          </polygon>
          <polygon class="st1" points="81.1,38.8 81.2,38.7 81.1,38.7 80.9,38.9 									">
          </polygon>
          <polygon class="st1" points="81.4,39 81.5,39 81.4,39 81.3,39 									">
          </polygon>
          <polygon class="st1" points="81.8,39.1 82,39 81.9,38.9 81.8,39 									">
          </polygon>
          <polygon class="st1" points="80.5,39 80.6,39 80.9,38.8 80.8,38.8 80.8,38.8 80.5,38.9 80.5,38.9 80.3,39 80.3,39 80.1,39 
										80.1,39.1 80.2,39 80,39.1 80.3,39 80.6,38.9 80.3,39.1 									">
          </polygon>
          <polygon class="st1" points="81.8,39.3 81.8,39.2 81.7,39.3 81.6,39.4 									">
          </polygon>
          <polygon class="st1" points="80.9,39.3 81,39.2 80.8,39.3 80.7,39.4 									">
          </polygon>
          <polygon class="st1" points="81.1,39.4 81.3,39.2 80.9,39.3 80.6,39.5 80.9,39.4 80.7,39.5 80.6,39.7 80.8,39.6 80.7,39.7 
																			">
          </polygon>
          <polygon class="st1" points="81.7,40 81.9,39.7 81.9,39.6 81.6,39.7 81.4,39.8 81.5,39.6 81.5,39.6 81.4,39.7 81.5,39.6 
										81.3,39.7 81.6,39.4 81.5,39.4 81.6,39.3 81.5,39.3 81.4,39.3 81.6,39.2 81.5,39.2 81.3,39.2 81.2,39.4 81.4,39.4 
										81.2,39.6 80.9,39.9 81,39.9 81.2,39.8 81.1,39.9 81.2,39.9 81.3,39.9 81.2,39.9 81.3,40 81.4,39.9 81.4,40 81.5,39.8 
										81.5,40 									">
          </polygon>
          <polygon class="st1" points="80.3,39.4 80.2,39.4 80.5,39.1 80.4,39.2 80.5,39.1 80.5,39.1 80.3,39.1 80.2,39.2 80.1,39.3 
										80,39.3 79.9,39.3 79.8,39.4 80,39.3 79.8,39.4 80.2,39.3 80,39.4 80.1,39.4 79.7,39.6 79.9,39.6 80,39.5 80.2,39.5 
										80.1,39.6 80.2,39.6 80.5,39.4 80.6,39.3 80.4,39.3 80.8,39.1 									">
          </polygon>
          <polygon class="st1" points="79.9,39.9 79.9,39.8 79.7,39.9 79.6,40.1 									">
          </polygon>
          <polygon class="st1" points="81.3,40.5 81.5,40.4 81.5,40.5 81.6,40.2 81.4,40.3 81.4,40.2 									">
          </polygon>
          <polygon class="st1" points="80.5,40 80.1,40.3 79.8,40.5 79.9,40.5 80.1,40.3 80.2,40.4 80.8,40 80.6,40.1 80.7,39.9 
																			">
          </polygon>
          <polygon class="st1" points="78.2,40.2 78.7,39.9 79.2,39.8 79.5,39.6 79.3,39.6 79.5,39.4 79.4,39.4 79.1,39.5 78.8,39.7 
										78.7,39.7 78.5,39.8 78.3,40 78.3,40 78,40.3 									">
          </polygon>
          <polygon class="st1" points="80.3,40 80.1,40 80.1,39.9 79.8,40.2 79.6,40.3 79.7,40.1 79.5,40.2 79.4,40.4 79.5,40.4 
										79.3,40.7 79.4,40.7 79.6,40.5 79.5,40.6 79.6,40.6 80,40.3 79.9,40.2 									">
          </polygon>
          <polygon class="st1" points="79,40.5 79.5,40.1 79.4,40.1 79.5,40 79,40.3 79,40.4 78.8,40.5 79.1,40.2 78.9,40.2 
										79.1,40.1 79.1,40 78.9,40.1 78.9,40.1 79.2,39.8 78.9,39.9 78.6,40.1 78.3,40.2 78.4,40.2 78.3,40.3 78.5,40.3 78.2,40.4 
										78.2,40.4 78.1,40.4 78,40.5 78.2,40.7 78,40.9 78,40.7 77.7,40.7 77.8,40.9 77.8,41 77.6,41.2 77.8,41.2 78,41.1 78,41.2 
										78.2,41.1 78.2,41 78.4,41.2 78.6,41.1 78.6,41.2 78.7,41 78.8,40.8 78.7,40.9 78.7,40.8 									">
          </polygon>
          <polygon class="st1" points="78.5,41.4 78.6,41.5 78.8,41.5 78.9,41.1 78.7,41.3 78.6,41.3 									">
          </polygon>
          <polygon class="st1" points="79.6,41.6 79.6,41.6 79.4,41.8 									">
          </polygon>
          <polygon class="st1" points="82.2,42.4 82.3,42.5 82.3,42.4 82.4,42.3 82.3,42.2 82.2,42.2 82.3,42.1 82.1,42.2 82.2,42.1 
										82.2,41.9 82.1,41.9 82,42 82,41.9 81.9,42 82,41.9 81.9,41.9 81.9,41.8 81.8,41.7 82.1,41.7 82,41.5 81.8,41.5 82,41.4 
										82.1,41.1 81.9,41.2 81.7,41.4 81.7,41.2 82,40.9 82,40.8 81.7,41.1 81.8,40.8 81.6,41 81.9,40.7 81.8,40.6 81.5,40.8 
										81.5,40.7 81.3,40.8 81.5,40.6 81.2,40.7 81.5,40.5 81.7,40.2 81.4,40.2 81.3,40.3 81.4,40.2 81.3,40.3 81.2,40.4 
										81.1,40.4 80.9,40.5 80.6,41 80.6,40.8 80.4,41 80.8,40.6 81,40.4 81.4,40.2 81.3,40.1 81.1,40.2 80.9,40.4 80.9,40.3 
										80.4,40.7 80.1,41.1 80.2,41.2 80.4,41.1 80.3,41.2 80.6,41.3 80.8,41.1 80.9,41.4 81.1,41.1 81.1,41.3 81,41.4 81.1,41.3 
										81,41.4 81.1,41.6 80.9,41.6 80.9,41.7 81.1,41.6 81.2,41.6 81.1,41.7 81.2,41.7 81.1,41.8 81.2,41.8 81.1,42.1 81,42.2 
										81.1,42.3 81.3,42.2 81.4,42.3 81.2,42.4 81,42.5 80.9,42.3 80.7,42.4 80.7,42.6 80.4,42.6 80.3,42.8 80.2,42.6 79.9,42.9 
										80,43 80.3,42.9 80.4,42.9 80.6,42.8 80.5,42.9 80.7,43.1 80.5,43.2 80.6,43.3 80.8,43.4 80.9,43.5 81.2,43.6 81.5,43.3 
										81.5,43.3 81.7,43 81.6,42.9 81.7,42.9 81.6,42.8 81.5,42.8 81.5,42.7 81.4,42.8 81.5,42.6 81.5,42.4 81.7,42.3 81.8,42.4 
										81.8,42.3 81.8,42.5 82,42.4 82,42.7 									">
          </polygon>
          <polygon class="st1" points="79.1,42.5 79.1,42.4 79.1,42.4 									">
          </polygon>
          <polygon class="st1" points="79,43 79.1,43.1 79.1,43.1 79.2,42.8 79.1,42.7 79.1,42.6 79.1,42.5 79,42.6 79.1,42.4 
										79,42.4 78.7,42.7 78.6,42.9 78.4,43 78.6,43 78.5,43.2 78.7,43 78.8,43 79,42.9 									">
          </polygon>
          <polygon class="st1" points="73.3,44.2 73.3,44.2 73.3,44.3 									">
          </polygon>
          <polygon class="st1" points="73.2,44.4 73.3,44.3 73.3,44.3 									">
          </polygon>
          <polygon class="st1" points="73.2,44.4 73.2,44.4 73.2,44.5 									">
          </polygon>
          <polygon class="st1" points="73.2,44.5 73.2,44.4 73.1,44.6 73.1,44.7 									">
          </polygon>
          <polygon class="st1" points="72.9,45.4 72.8,45.4 72.8,45.5 									">
          </polygon>
          <polygon class="st1" points="72.6,45.6 72.7,45.5 72.7,45.5 72.6,45.5 									">
          </polygon>
          <polygon class="st1" points="72.8,45.2 72.7,45.4 72.7,45.5 72.7,45.6 72.7,45.6 72.6,45.7 72.7,45.7 72.6,45.8 72.6,46 
										72.7,45.7 72.7,45.6 72.8,45.4 									">
          </polygon>
          <polygon class="st1" points="80.6,47.1 80.8,47.2 80.9,47.2 80.9,47.1 80.7,47 80.6,47 									">
          </polygon>
          <polygon class="st1" points="82.3,46.4 82,46.5 81.9,46.7 81.8,47 81.6,47.3 81.4,47.5 81.4,47.5 81.6,47.5 81.9,47.5 
										82.1,47.4 82.2,47.7 82.4,47.5 82.4,47.4 82.5,47.7 82.7,47.7 82.7,47.3 82.6,47.5 82.5,47.2 82.6,47.1 82.4,47 82.2,47.1 
										82.1,46.9 81.9,47 82.2,46.6 82.2,46.5 82.3,46.5 									">
          </polygon>
          <polygon class="st1" points="81.1,47.6 80.9,47.9 80.9,48 81.2,47.9 81,47.9 81.2,47.7 									">
          </polygon>
          <path class="st1" d="M74.2,42.3L74.2,42.3L74.2,42.3z">
          </path>
          <polygon class="st1" points="74.2,42.3 74.2,42.3 74.3,42.3 									">
          </polygon>
          <path class="st1" d="M79.9,47.1l0.2-0.2l0.6-0.1l0.6,0.1l0.3-0.2l0.1-0.1l0.3-0.1l0.3-0.2l0,0V46l-0.2-0.1L82,46l0.1-0.1
										l-0.2-0.1v0.1L81.5,46l-0.1,0.1h-0.1l0.1-0.2h0.3l0.1-0.1l0.2-0.1l-0.4-0.1l0.1-0.1l-0.2,0.1v-0.1h-0.1l-0.1,0.1v-0.3h-0.1
										l0.1-0.1h-0.1l0.1-0.1l-0.1-0.3L81,44.9l0.1-0.1H81l0.1-0.1H81l0.1-0.1H81v-0.1h-0.1l0.1-0.1h-0.1l-0.2,0.4h-0.1L80.5,45
										v-0.1l-0.2,0.2l-0.1,0.1v-0.1l-0.1,0.1l-0.2,0.1l0.3-0.2l-0.1-0.2H80l0.1-0.1L80,44.7h0.2l0.1-0.3l-0.1-0.1H80l0.1-0.1H80
										l0.1-0.1L80,43.9v-0.1l-0.2,0.1h-0.2l0.1-0.1h-0.2l-0.1,0.1v0.2l-0.2,0.1l0.1,0.1l-0.1,0.1v0.1l-0.4,0.4l0.1,0.4l-0.3,0.4
										l-0.5,0.2v0.2L78,46.3v0.3h-0.1l-0.1,0.2v-0.1l-0.1,0.2l-0.2-0.4l0.2-0.6l0.1-0.2v-0.1l-0.3-0.1l-0.1,0.1l0.1-0.1l-0.2-0.2
										v-0.2l-0.2-0.2L76.8,45l0.2-0.2l0.1-0.3H77l-0.1,0.1v-0.2l0.3-0.4l0.3-0.3l0.1-0.1v-0.1h0.1l0.1-0.1h0.1l0.1-0.1h0.1
										l0.1-0.1V43l-0.1,0.1V43l0.1-0.1l0.2,0.2l0.2-0.1v0.1l0.1-0.1h0.1l0.3-0.3l-0.2-0.1l-0.1-0.2h0.3l0.1,0.2l0.3-0.3h0.1v0.1
										h0.1v-0.1v0.1l0.1-0.2h0.1l-0.1,0.2l0.2-0.1l0.1-0.1h0.1l0.1-0.1v-0.2l0.2-0.1v-0.1l0.1-0.1v-0.1h-0.4l-0.1,0.2l-0.5,0.4
										l0.2-0.4l0.1-0.2l-0.4,0.2l0.3-0.3l-0.2-0.1l0.6-0.6v-0.1l-0.3,0.2h-0.1L79.6,41l-0.2,0.2l0.1,0.2l-0.1,0.1l-0.2,0.1
										l0.2-0.1l-0.1,0.1L79,41.7l-0.4,0.4l0.3-0.4v-0.1l-0.1,0.2l-0.4-0.1v-0.1h-0.1l0.1-0.3h-0.2L78,41.5l0.2-0.1v0.1L78,41.6
										l-0.3,0.3l0.3-0.4l-0.2,0.1l0.2-0.2l-0.3,0.1v-0.2L78,41h-0.1v-0.2l0.2-0.2H78l-0.2,0.1h-0.1l0.3-0.2l-0.3,0.2l0.3-0.3
										l0.1-0.1l-0.3,0.2h-0.1l-0.2,0.1v-0.1h-0.1l-0.1,0.1l0.1-0.1l0.3-0.2l0,0l0.2-0.1l0.1-0.1h-0.1l-0.1,0.1l0,0l-0.4,0.2
										l0.1-0.1l-0.1,0.1l0.1-0.1l0.1-0.2l0.1-0.1l0.1-0.1l0.1-0.1l0.1-0.1l0,0l0.1-0.1l0,0l0.1-0.1l0.1-0.1l0,0l0.1-0.1l-0.1,0.1
										l0.1-0.1l0.2-0.1h-0.1l0.2-0.1l-0.2,0.1l0.2-0.1l0.1-0.1l-0.2,0.1l0,0l-0.2,0.1l0.2-0.1h-0.1l0,0l-0.3,0.1l0.1-0.1
										l-0.1,0.1l-0.4,0.2l-0.2,0.1l-0.2,0.1l-0.2,0.2l0.1-0.1l0.1-0.1l-0.2,0.2l0.2-0.1l0.1-0.1l0.1-0.1l0,0h-0.1l0,0l-0.1,0.1
										l-0.1,0.1l-0.1,0.1L77,40l0.2-0.1L77,40.1h0.1l-0.4,0.3l-0.1,0.1h-0.1c-0.3,0.3-0.7,0.7-1,1l-0.2,0.2l0.1-0.1l-0.1,0.1l0,0
										l-0.1,0.1l-0.1,0.1L75,42l-0.1,0.1L75,42l0,0l0.1-0.1L75,42l0.1-0.1l0.2-0.2l0.2-0.2l-0.1,0.1l0.2-0.1l-0.4,0.3L75,42
										l0.2-0.1L75.1,42l0.3-0.2l0.1-0.1l-0.2,0.2h0.1L75.3,42v0.1l0.1-0.1l-0.2,0.2l-0.1,0.1h0.1l-0.1,0.1v0.1h0.1l-0.3,0.4V43
										l0.2-0.2l0,0L75,42.9L74.9,43l0,0l0.2-0.2L74.9,43H75l-0.1,0.1v0.1l-0.1,0.1v0.1l-0.1,0.1v0.1l-0.1,0.1h0.1L74.5,44h0.1
										l0,0l-0.1,0.2l0,0l-0.1,0.1v0.1v0.1l-0.2,0.3l0.1,0.1L74.1,45L74,45.1v0.1v0.1h0.1L74,45.4v0.1l0.1-0.1v0.1l0.1-0.1
										l-0.1,0.3L74,45.8v0.1h0.1L74,46v0.1l-0.1,0.3l-0.1,0.2h-0.1l0.2-0.2h-0.1v-0.1l-0.2,0.3l0,0l0,0v0.1l-0.1,0.1l-0.3,0.6
										l0,0L73,47.6l-0.1,0.2l-0.1,0.3l-0.1,0.1v0.2l-0.1,0.2v0.3V49h0.1l-0.2,0.4v0.3l0,0l-0.1,0.2l0.1,0.1v0.1l0,0v0.3l0,0v0.3
										v0.1v0.1V51l0,0v0.1l0,0v0.1v0.1v0.2l-0.1,0.1l0.1,0.2l0.1,0.2v0.1v0.2l0.1,0.4v0.2l0.1-0.1l-0.1-0.3v-0.1v-0.2V52v-0.1V52
										v-0.3v-0.1l-0.1-0.4l0.1-0.6l0.1,0.3V51v0.5l0.1,0.3H73v0.1l-1.1-0.1v0.1l0,0V52l0.1,0.2v0.1h0.1v0.1l0.2,0.4l0.1,0.4
										l-0.1,0.1v0.1h-0.1l0.1,0.3l0.1,0.1l0.1,0.1l0.2,0.1l0.1,0.2l0.2,0.2l0.1,0.1l0.1,0.2l0.2,0.1l0.2-0.1h0.1v-0.1l0.2,0.1
										l0.3,0.4l0.1,0.2l0.2,0.1l0.3,0.1h0.1v-0.1l0,0l0,0.4h-0.1L75,56l0.2,0.3v0.3l0.4,0.2v0.1l0.1,0.1v-0.1h0.1l0.1,0.1
										l0.1-0.1l0.2,0.2V57v0.1h0.7v-0.2l0.1-0.1l0,0l0.3,0.1l0.1,0.3v-0.1h0.1l0,0l0,0l0,0L77.4,57l0,0l-0.2-0.2L77,56.7l-1,0.2
										l-0.1-0.1h-0.1l-0.1-0.1l-0.2-0.3v-0.6l0.1-0.2v-0.1h0.1l-0.2-0.2l-0.3-0.1l-0.1-0.1L75,55.2h-0.3l0,0l-0.1-0.1l0.1-0.2
										v-0.3l0,0l0,0v-0.1l0.1,0.2l0.1-0.3h-0.1l0.2-0.3l-0.1-0.3h-0.2l-0.3,0.1l-0.1,0.3v0.1l-0.1,0.1v0.1H74h-0.2h-0.1l-0.1-0.1
										h-0.1l-0.1-0.3l-0.1-0.2l-0.1-0.5l0.1-0.5l0.1-0.3v-0.3v-0.1l0,0l0.4-0.2l0.1-0.2v-0.1l0.1,0.1l0.1-0.1v0.1l0.2,0.1
										l0.1-0.1l0.1,0.1V52h0.1h0.1v0.1l0,0V52l0.1,0.1V52l-0.1-0.1h0.2h0.2l0.1,0.1h0.2v0.1V52h0.1v0.1v0.1v0.1l0.3-0.1l0.2,0.3
										l-0.1,0.2v0.1v-0.1l0.1,0.1h-0.1L76,53h0.1v0.1l0,0l0.2,0.3v0.1h0.1l0.1-0.4l-0.1-0.3v-0.1l-0.1-0.5l0.2-0.4l0.3-0.2
										l0.2-0.2l0.3-0.2l0.2-0.1L77.4,51h0.3l-0.2-0.1l0.1-0.1l0.1,0.2v-0.3l-0.2-0.3l0.1-0.2l0.1,0.2v-0.3l0.2-0.1l-0.1,0.3
										l0.1,0.1l-0.1,0.1l0.2-0.1v-0.1V50h0.1v0.2l0.2-0.2l0.1-0.2l-0.1-0.1l0.3-0.2h0.2H79l0.2-0.4l0.4-0.2l0.1-0.1v0.1v-0.1v0.1
										l0.2-0.1v-0.1h0.3l0.2-0.2l-0.1,0.2h0.1l-0.2,0.1L80,48.9l0.1,0.2l0.3-0.2v-0.1h0.3l0.3-0.1h0.2L81,48.5l-0.2,0.1l-0.4-0.2
										v-0.2h-0.1l0.2-0.2h-0.2h-0.2l0.2-0.1l0.1,0.1l0.2-0.1l0.1-0.2h-0.2h-0.2L79.7,48l-0.3,0.3l0.3-0.4L79.9,47.1z M76.1,41.7
										l0.3-0.1v-0.2h0.4v0.1l-0.2,0.1h0.1l-0.3,0.2v-0.1l-0.3,0.2l0.2-0.2L76,41.8L76.1,41.7z M75.3,43l0.2-0.1l0.2-0.3v0.3
										l0.4-0.2l0.1,0.1l-0.7,0.3l-0.1,0.1h-0.2L75.3,43z M75.3,46.2l-0.2,0.2v-0.1l0.1-0.3l-0.1-0.2l0.1-0.4l0.2-0.2v0.2
										L75.3,46.2z M77.6,48.6l-0.4,0.1l-0.1,0.2L76.5,49l-0.2-0.1l0.3-0.1l-0.1-0.1l0.1-0.1v-0.2l-0.3,0.1l0.3-0.3v-0.1L76.4,48
										l-0.2,0.2v-0.1L76,48.4v0.3L75.7,49v-0.3l0.3-0.6l0.5-0.2l-0.2-0.1H76v-0.1h-0.1l-0.3,0.2l-0.2-0.1v-0.1l0.5-0.3l0.4-0.2
										h0.2v0.2h0.1v0.3l0.5,0.2l0.1,0.3l-0.1,0.1L77,48.1l-0.2,0.4l-0.2,0.1v0.1l0.1-0.1H77l0.2-0.2h0.4l0,0h0.1L77.6,48.6z">
          </path>
          <polygon class="st1" points="75.8,40.6 75.8,40.6 75.9,40.6 									">
          </polygon>
          <polygon class="st1" points="81.5,45 81.5,45.1 81.5,45.1 									">
          </polygon>
         </g>
         <g>
          <path class="st1" d="M100.2,57.9l0.1-0.2l0.4-0.6l0.2-0.3l0.4-0.7l0.3-1v-0.2h0.1v-0.3h-0.1l-0.1,0.1l-0.3,0.1l-0.1,0.1
										l-0.1-0.1l-0.1,0.2h-0.1l-0.1-0.2h-0.1l0.1-0.3l-0.3-0.4h-0.1V54l-0.1,0.1l-0.1-0.5l-0.1-0.2l-0.2-0.2v-0.1l-0.1-0.4
										l-0.1-0.2l0,0l-0.3-0.3V52l-0.1-0.1l-0.3-0.7L98.7,51l-0.1-0.4l-0.1-0.2l-0.2-0.1l-0.1,0.1h-0.1L98,50.5l-0.2-0.1l0,0
										l-0.3-0.1h-0.1l0,0v-0.1h-0.2h-0.1L97,50.1L96.7,50l-0.2,0.1l-0.1,0.1l0.1,0.3l-0.1,0.2L96,50.5h-0.3l-0.2-0.3l-0.4-0.1
										h-0.2L94.7,50l-0.2-0.1l-0.1-0.1l0.1-0.1l0.1-0.1l-0.2-0.2l0.1-0.2l-0.2-0.1l-0.2,0.1l0,0h-0.4l-0.2,0.1l-0.1-0.1H93
										l-0.1,0.1h-0.3l-0.2,0.2h-0.2L92,49.7h-0.1h-0.6l-0.1-0.1h-0.1L90.9,50l-0.3,0.1l-0.3,0.5l0.1,0.3L90,51.3l-0.3,0.1
										l-0.1,0.1l-0.1,0.2l-0.2,0.1l-0.1,0.4L89,52.4l-0.2,0.4h-0.1V53v0.1l0.2,0.1v0.6l-0.1,0.4l-0.1,0.2l-0.2,0.1l0.2,0.2v0.1
										h0.1l-0.1,0.1V55v0.1h0.2l-0.2,0.1l0.2,0.1h0.2L89,55.4l0.1,0.1l0.3,0.3v0.1h0.1V56l0.1,0.3l0.2,0.1h-0.1l0.2,0.1l0.5,0.5
										l0.5-0.2l0.4-0.2h0.2v-0.1l0.1,0.1h0.2l0.1-0.1v0.1l0,0l0.2,0.1l0.7-0.3l0,0h0.1h0.2l0,0h0.4l0.1,0.1h0.1v0.2l0.1,0.1
										l0.3-0.1v-0.1v0.1h0.1v-0.1h0.1l0.2,0.1v0.2l-0.1,0.2l0,0v0.3l-0.2,0.4h-0.1l0.1,0.4h0.1h-0.1l0.2,0.3l0.2,0.2l0,0v0.2h0.1
										h0.1L94.7,59l0.2,0.5v0.1l-0.1,0.1l0.1,0.3v0.2v0.6l-0.1,0.4l-0.1,0.1v0.3v0.2l0.2,0.4v0.1l0.1,0.3v0.1v0.1L94.9,63v0.2
										v0.1v0.3v0.1l0.1,0.1l0,0v0.1v0.2l0.1,0.3L95,64.6h-0.1v0.2l-0.1,0.1L95,65l0.1-0.1h0.2l0.2-0.1h0.3l0,0l0.2-0.1l0.3-0.2
										l0.5-0.4l0.4-0.4l0.2-0.2l0.2-0.3v-0.1l0.1-0.3l0.1-0.1l0.3-0.2l0.1-0.1l0.1-0.3V62l0,0l0.1-0.3v-0.1l0.1-0.1v-0.1l0.3-0.2
										l0.1-0.2l0.2-0.2h0.2l0.1-0.1l0.2-0.4v-0.1l0,0l0.1-0.3l0,0l0,0v-0.3l0.1-0.1l0,0l-0.1-0.1V59l0.1-0.1h-0.1l0.1-0.2
										l-0.1-0.2l0.1-0.3l0.1-0.2v-0.1h0.1v-0.1l0.1-0.1v-0.1L100.2,57.9L100.2,57.9z">
          </path>
          <polygon class="st1" points="99.4,62.2 99.3,62.4 99.3,62.6 99.2,62.8 99.2,62.9 99.3,63 99.6,62.8 99.8,62.5 99.9,62.3 
										100.4,61.4 100.4,61.2 100.5,61.1 100.6,60.8 100.7,60.8 100.7,60.7 100.8,60.3 100.7,60.2 100.7,60.1 100.6,60.4 
										100.5,60.5 100.5,60.5 100.5,60.6 100.5,60.6 100.4,60.6 100.4,60.7 100.3,60.8 100.2,60.9 100.2,61 100.1,60.9 
										100.1,60.9 100.1,61 100,61 99.9,61 99.7,61.3 99.7,61.7 99.7,61.7 99.7,61.8 99.7,61.8 99.5,62.1 									">
          </polygon>
          <polygon class="st1" points="92.7,37.9 92.4,37.8 92.5,37.9 92.5,37.9 92.6,37.9 92.7,38 92.7,38 92.8,38 92.9,38 92.9,38 
										93,38.1 93.1,38.1 93,38 92.9,38 									">
          </polygon>
          <polygon class="st1" points="93.1,38.1 93.2,38.2 93.2,38.1 93.2,38.1 									">
          </polygon>
          <polygon class="st1" points="93.2,38.1 93.3,38.2 93.3,38.2 93.5,38.2 93.5,38.2 93.6,38.2 93.6,38.2 93.4,38.2 93.1,38 
										93.2,38.1 93,38 93,38 93.1,38.1 93,38.1 									">
          </polygon>
          <polygon class="st1" points="93.6,38.2 93.6,38.2 94,38.4 94,38.4 93.9,38.3 93.9,38.3 93.7,38.2 93.6,38.2 93.5,38.1 
										93.6,38.2 93.4,38.1 									">
          </polygon>
          <polygon class="st1" points="93.9,38.3 93.9,38.3 93.9,38.3 93.8,38.3 									">
          </polygon>
          <path class="st1" d="M104.1,53L104.1,53L104.1,53c0-0.1,0-0.2,0-0.2V53L104.1,53z">
          </path>
          <path class="st1" d="M104.1,52.7v-0.3v-0.1v0.1l0,0v-0.1l0,0v-0.1l0,0l0,0v-0.1c0,0.3,0.1,0.6,0.1,0.9L104.1,52.7z">
          </path>
          <path class="st1" d="M98.7,41.4c-1.3-1.1-1.4-1.1-2.2-1.7l-0.7-0.5h-0.1l0,0l-0.1-0.1l0,0c-0.3-0.2-0.8-0.4-1.2-0.6h-0.1
										l0,0h0.1l0,0l-0.2-0.1l0,0h0.1l0,0h-0.1h-0.1l0,0H94l0,0l0.3,0.1h0.1l0.2,0.1h-0.1l0,0l0.2,0.1l0.4,0.2l-0.2-0.1l-0.3-0.1
										l0.1,0.1l0,0l0,0l-0.1-0.1l0,0l0,0h0.1l0,0h0.1l0,0h-0.1l0.1,0.1l0,0l0.1,0.1l0,0H95l0.1,0.1H95l0.3,0.1l0.3,0.2l-0.1-0.1
										l0,0l-0.2-0.1l0.1,0.1h-0.1v0.1l0.3,0.2l0.1,0.1l0.1,0.1l0.2,0.1l0.3,0.2l0.2,0.2l-0.2-0.1L96,39.9h-0.1l-0.2-0.1h-0.1
										l0.2,0.1h-0.1l0,0l0.1,0.1l0.1,0.1l0,0l0.2,0.1l0,0l0.1,0.1L96,40.2h-0.1l-0.2-0.1l-0.4-0.3l0.3,0.2v0.1l0.1,0.1l0.3,0.2
										l0.2,0.2l0.3,0.2l0,0l0.2,0.1l0.3,0.2l0.2,0.1l0,0h-0.1L96.9,41l-0.1-0.1V41l0.3,0.2l0.2,0.2v0.1l0.1,0.1h-0.2l-0.1-0.1
										h0.1L97,41.2l-0.1-0.1V41l-0.2-0.1l-0.4-0.3l-0.2-0.2l-0.3-0.1l-0.3-0.2L95.3,40h-0.2l0.1,0.1l0.3,0.2l0.1,0.2h0.1l0.4,0.3
										h0.1l0.2,0.1l0,0l0.1,0.1l0,0l-0.2-0.1L96,40.8l-0.2-0.1h-0.2l-0.3-0.2l0.1,0.1l0.3,0.1l0.2,0.1v0.1L96,41l-0.2-0.1V41l0,0
										h-0.1l0,0l0.1,0.1h-0.2V41l-0.1-0.1h-0.1v0.2h-0.1l0.1,0.1h-0.1l0.2,0.2h-0.1l-0.2-0.1l-0.1-0.1h0.1L95,41.1h-0.3l0.2,0.1
										l0.2,0.2l0.1,0.1l0.1,0.1l0.1,0.1l-0.2-0.1h-0.1v0.1v0.1l0.3,0.3h-0.1h-0.1v0.1v-0.1L95,42l0.2,0.2h0.1l0.1,0.1h-0.2
										l-0.1-0.1H95l0,0h-0.1l-0.2-0.3l-0.5-0.3l0.2,0.1v-0.1l0.1,0.1h0.3h0.1H95v-0.2l-0.1-0.1l-0.2-0.1l-0.4-0.1L94,41.1
										l-0.1-0.3v0.1v-0.1h-0.1v-0.1l0,0h-0.2v0.1h-0.1h-0.2l0.1-0.1l-0.2-0.1L93,40.5v0.1l-0.1-0.1h-0.1l0.1,0.2l-0.1-0.1
										l0.1,0.3l-0.1-0.1v-0.1h-0.1v0.1l-0.1,0.1l0.1,0.1l-0.1-0.1h-0.1l0,0h0.1l0.1,0.1l-0.1-0.1l-0.2-0.1l0.1,0.1V41l-0.1-0.1
										l0.1,0.1l-0.1-0.1l0,0l0.1,0.1l-0.2-0.1l0.1,0.1l-0.1-0.1V41h-0.1l0.1,0.1h-0.1l0.1,0.1L92.2,41v0.1L92.1,41H92l0.1,0.2
										h-0.2v0.1l0.2-0.1l0,0l0.1,0.1v0.1l-0.1-0.1v0.1L92,41.3v0.1h0.1l0.1,0.1h-0.1L92,41.6h0.1H92l0.1,0.1v0.1H92l0.1,0.2
										L92,42.1h0.1L92,42.2l0.1,0.1L92,42.2l0,0v0.2h0.2l-0.1,0.1H92v0.1h-0.1l0.1,0.1h-0.1l0.1,0.1l-0.1-0.1l0.1,0.1l-0.1-0.1
										h-0.1v0.2h-0.2V43l0.3-0.2l0.1-0.1l-0.1,0.1h-0.1l0.1,0.1h0.2l0.1-0.1h0.1h-0.1H92h-0.1v0.1H92l0.1,0.1H92l0.1,0.1h0.2
										l0.1-0.1v0.2h-0.1l0.1,0.1l-0.1-0.1l0.1,0.3l0.2,0.1v0.1l0.2-0.1h0.1l0.1-0.2l0,0l-0.1-0.1l0.1,0.1v-0.2l0.2,0.2l0,0
										l0.2,0.3l0.2,0.2l0.1,0.1v0.1h-0.1l0.2,0.2v0.1H94v-0.2h0.2v-0.3l0,0l-0.1-0.1h0.1v-0.1h-0.1h0.1l-0.1-0.1h0.2v-0.1
										l0.1,0.1v-0.1l-0.2-0.1h0.1v-0.1l0.1,0.1l0.1-0.1l-0.3-0.2h-0.1L94,42.9h0.1L94,42.7l0.1-0.1v-0.2l0.1-0.1v-0.2L94.1,42
										v-0.1H94l0.1-0.1H94l0,0h0.2l0,0l0.2,0.1l0.1,0.1h-0.1v0.2v0.1l0,0v0.1l0,0l0.1,0.1l-0.1,0.1l0.3,0.3l0.1,0.3l0.2,0.1v-0.1
										v0.1l0,0v0.1l0.2-0.1h0.1v-0.1h0.1v-0.1l0,0h0.1l0,0l0.3,0.1l-0.1,0.1v0.1h-0.2h-0.2l-0.2,0.1l0.3,0.2v0.1l0.1,0.2h-0.2
										l-0.1-0.1h-0.1v0.3v0.1l0.1,0.2v0.1H95l0.1,0.1L95,44.8l0,0h-0.1l-0.1-0.1l-0.2,0.1v0.1L94.4,45v0.1l0,0h-0.1l0,0h-0.1V45
										l-0.1-0.1V45H94v0.1h-0.2l-0.2-0.2h-0.1v-0.2v-0.1h0.1v-0.1h-0.1l-0.1-0.1h0.1v-0.1l-0.2,0.2l0.1,0.1h-0.2l0.1,0.3l0.1,0.1
										v0.1l0.1,0.2l0.1,0.1h-0.1v0.1l-0.6-0.7h-0.1v0.1l0,0l-0.1-0.1l-0.1,0.1V45v0.1v0.1h-0.1l-0.1-0.1V45h-0.1v0.2l-0.1,0.1
										h0.1l0,0h-0.1l0,0l-0.1,0.1L92,45.5v0.2l-0.3,0.1l0.1,0.1h-0.1l-0.2-0.1h-0.1l0.2,0.3h-0.2L91.3,46L91,46.1l0.1,0.2h0.2
										v0.1h0.1h0.1l0,0h0.1l0,0v0.1l0.2,0.1l0.1,0.4l-0.1,0.3h-0.2l-0.1-0.1h-0.2L91,47.1h-0.2L90.6,47l-0.2,0.2l0,0l0.1,0.3
										l0.1,0.3l-0.1,0.3l0,0v0.2l0.1,0.1v0.3h0.3H91l0.1,0.1l0.1,0.2h0.1l0,0l0.2-0.1l0.4-0.1l0.1,0.1l0.1-0.2h0.1v-0.1l0.1-0.2
										l-0.1-0.1v-0.1l0.2-0.3l0.2-0.1h0.3v-0.1l0,0l-0.1-0.1v-0.1l0.1-0.1l0.4,0.1l0.2-0.2l0.2-0.2l0.3,0.1l0.1,0.3l0.1,0.1
										l0.4,0.3h0.1l0.1,0.1h0.1l0.1,0.1l0.1,0.1l0.2,0.3l-0.1,0.2h0.1v-0.2l0.1-0.1v-0.1l-0.1-0.1v-0.1l0.1-0.1l0.3,0.2v-0.1
										L95.6,48l-0.2-0.1l-0.2-0.1v-0.1h-0.3l-0.2-0.1l-0.1-0.2l-0.3-0.2V47l0,0l-0.1-0.1l0.1-0.1h0.1l0,0l0,0v0.1l0.1,0.1v-0.1
										h0.1l0.2,0.3l0.2,0.2h0.2h0.1h0.1h-0.2l0.3,0.1h0.1l0,0l0.2,0.2l0,0l0.1,0.4l0.1,0.1l0.3,0.4l0.2-0.1l0.2,0.1h-0.2
										l-0.2,0.1l0.2,0.2l0.1,0.2V49l0.1,0.1l-0.1-0.3l0.2-0.2l-0.2-0.1h-0.1v-0.1h0.1l-0.2-0.2v-0.1V48l0.2,0.1l-0.1-0.2l0.2-0.1
										l0.2,0.1L97,48l0.1-0.2l0.2-0.1l-0.2-0.2L97,47.4v-0.2l0.1-0.1l0,0L97,46.8h0.1v-0.1l0,0l0.1-0.3l0.1-0.1h0.1v0.1h0.2l0,0
										l0,0v0.1l-0.1,0.1l0.3,0.2l0.2-0.1v-0.1h0.1l-0.2-0.1l-0.1-0.2l0.1-0.1H98v-0.1l0.1-0.1l0,0h0.1l-0.1,0.1H98l0.2,0.1v0.2
										h-0.1l0.2,0.1l0.1,0.1h0.1l0.2,0.2L99,47l0.1,0.2v0.1l-0.2,0.5h-0.1l-0.1,0.1l-0.2-0.1h-0.1l0,0l-0.1-0.1h-0.1l-0.1-0.1
										l0,0h-0.2l-0.2,0.2h-0.3l0.1,0.1V48h-0.2l0,0h-0.1l-0.1,0.1l0.2,0.3l0.1,0.1h-0.1l0.2,0.1v0.1h0.1v0.1h0.2l-0.1,0.1h0.2
										l0.2,0.1l0.1-0.2h0.1l0.3,0.2l0.2-0.1l0.1-0.1l0.1,0.1l0.1-0.1l0.1,0.3l0.1,0.3v0.4v0.3v0.2l-0.2,0.1H99l0.1,0.2l0.2,0.3
										l0.2,0.2v-0.4l0,0v0.1l0,0v0.3h0.1l0.4,0.7l0.1,0.2l0.2,0.1l0.1,0.3v0.3l0.1,0.2l0.2,0.1l0.2,0.4l0.1,0.1l0.1,0.2l0.1,0.9
										h0.2l0.1-0.1l0.3-0.2h0.1l0.1-0.2l0.3-0.3v-0.2l0.1-0.1l0.1-0.1h0.1v-0.2h0.1V53l0.1-0.1v-0.3l0.1-0.5l-0.2-0.3l-0.2-0.1
										l-0.1-0.2v-0.2v-0.1l0,0v0.1v0.2l-0.1,0.1v0.2h-0.2v0.1l0,0v-0.1l0,0v-0.1l0,0v-0.1v-0.2v-0.1v0.1v0.2l-0.1-0.3l0,0v-0.1
										v-0.1l-0.2-0.2h-0.1l-0.1-0.2l-0.1-0.2v-0.1v-0.1l0.2-0.1l0.2,0.2l0.1,0.2l0.2,0.1l0.1,0.1v0.1h0.1l0.1-0.1l0,0l0.1-0.1
										h0.1l0.1,0.1l0.1,0.2l0.2,0.1h0.1h0.1h0.2V51l0.1,0.1l0,0h0.1V51v0.1l0,0l0.1,0.3l0,0l0,0l0.1,0.2l0.1-0.1v0.1v0.1v-0.1
										v0.1l0.1,0.3l0.1,0.1l0.1-0.1v-0.3v0.2V52v0.2v0.1l0,0v0.1v-0.1l0,0v0.1v0.3V53l0.1,0.3l0,0l0,0v0.1v0.2v0.2l0,0l0,0V54
										v0.1v0.3v0.1l0,0v0.2v0.1h0.1v-0.2l0,0l0,0v-0.2l0,0v-0.3l0,0v-0.3v-0.2v-0.2v-0.2V53v-0.2v-0.1v-0.1v-0.3v-0.2V52v-0.1
										l0,0v-0.1v-0.1l0,0v-0.2v-0.2v-0.2l0,0V51v0.1l0,0l0,0V51v-0.2l-0.1-0.2v0.1v0.2l0,0V51l0,0v0.2l0,0v0.1
										c-0.1-0.4-0.1-0.8-0.2-1.2c-0.4-1.8-0.4-1.8-0.8-2.7c-0.7-1.7-0.7-1.7-1.2-2.5c-0.9-1.5-1-1.5-1.5-2.3
										C99.4,42.1,99.4,42,98.7,41.4z M95.4,43.7L95.4,43.7l-0.2-0.2l-0.1-0.1h0.1l0.1,0.1l0,0L95.4,43.7L95.4,43.7z M95.6,43.3
										L95.6,43.3L95.3,43h-0.1v-0.1h0.1l0.1,0.1h0.1l0.2,0.2l0,0L95.6,43.3L95.6,43.3L95.6,43.3z M95.9,43l-0.1-0.1l-0.2-0.1
										l-0.1-0.1h0.1l-0.2-0.2l0.2,0.1l0.1,0.1l0.2,0.1V43L95.9,43z M101.8,47.1L101.8,47.1L101.8,47.1L101.8,47.1z M101.7,45.9
										L101.7,45.9l0.1,0.2h-0.2v0.1l0.1,0.2l-0.2-0.2l-0.1-0.3L101.7,45.9L101.7,45.9z M100.9,48.5l0.1,0.2h-0.1l-0.2,0.1
										l-0.2-0.1l-0.1-0.1h-0.1l-0.1-0.1v-0.1l-0.1-0.2h0.1l-0.1-0.3l0.1-0.1l-0.2-0.1l-0.2-0.2l0,0l-0.2-0.2L99.5,47l-0.1-0.1
										v-0.1v-0.2h0.1v-0.2l0,0h0.1l0.1-0.2h0.2l0.1,0.3h-0.1v0.1v0.2h-0.1L100,47l0.1,0.2l0.1,0.1h0.1v0.2v0.1l0.1,0.1v-0.2h0.1
										v0.1l0.1,0.1l-0.1,0.1l-0.1-0.1l0.1,0.2h0.1V48l0.1,0.1l0.1,0.3L100.9,48.5z">
          </path>
          <polygon class="st1" points="95.8,39.3 95.8,39.2 95.8,39.3 96,39.4 									">
          </polygon>
          <polygon class="st1" points="101.2,51.2 101.2,51.1 101.2,51.3 									">
          </polygon>
          <polygon class="st1" points="91,45.5 90.9,45.8 91.1,45.7 91.2,45.7 91.2,45.7 91.4,45.7 91.6,45.6 91.9,45.7 92,45.5 
										91.8,45.5 92,45.3 92,45.1 91.9,45 91.8,45.1 91.7,45.1 91.7,45 91.7,44.9 91.7,44.9 91.5,44.7 91.4,44.6 91.2,44.4 
										91.1,44.3 90.9,44.3 91,44.1 91.1,43.9 90.8,43.9 90.7,43.9 90.8,43.6 90.6,43.7 90.6,43.6 90.5,43.7 90.5,43.6 90.4,43.9 
										90.5,44 90.4,44.1 90.5,44.2 90.6,44.1 90.4,44.3 90.5,44.4 90.6,44.2 90.6,44.4 90.6,44.4 90.6,44.3 90.7,44.3 90.7,44.3 
										90.7,44.4 90.7,44.6 90.7,44.5 90.8,44.6 90.8,44.5 90.9,44.6 91,44.5 91,44.7 91.1,44.7 91.1,44.7 91.1,44.9 91.2,45 
										91,45 90.9,44.9 90.9,44.9 90.9,45 90.9,45.1 91,45.1 91,45.2 90.9,45.3 91.2,45.5 91.3,45.4 91.3,45.5 									">
          </polygon>
          <polygon class="st1" points="90.2,43.8 90.3,43.7 90.3,43.7 90.2,43.7 									">
          </polygon>
          <polygon class="st1" points="90.3,43.9 90.3,43.9 90.4,44 90.4,44 90.4,43.8 90.3,43.8 									">
          </polygon>
          <polygon class="st1" points="95.2,40.8 95.4,40.8 95.3,40.7 95.2,40.7 									">
          </polygon>
          <polygon class="st1" points="92.6,40.6 92.5,40.5 92.5,40.6 									">
          </polygon>
          <polygon class="st1" points="92.6,40.6 92.7,40.6 92.6,40.6 									">
          </polygon>
          <polygon class="st1" points="92.4,40.7 92.4,40.7 92.3,40.7 									">
          </polygon>
          <polygon class="st1" points="92.3,40.8 92.4,40.8 92.4,40.7 92.3,40.7 92.3,40.7 									">
          </polygon>
          <polygon class="st1" points="92.2,41.1 92.1,41 92.1,41.1 									">
          </polygon>
          <polygon class="st1" points="92.1,42.3 92.1,42.3 92,42.2 92,42.3 									">
          </polygon>
          <polygon class="st1" points="91.9,42.7 91.9,42.6 91.8,42.7 									">
          </polygon>
          <polygon class="st1" points="92.3,40.9 92.3,40.8 92.2,40.9 									">
          </polygon>
          <polygon class="st1" points="94,48.6 94.2,48.5 94.2,48.2 94,48 93.9,48.1 93.8,48.1 94,48.3 94,48.5 									">
          </polygon>
          <polygon class="st1" points="95,48.8 94.9,48.7 94.8,48.8 95,49 95.3,49.1 95.3,48.9 95.3,48.7 									">
          </polygon>
          <polygon class="st1" points="90.5,44.4 90.4,44.5 90.3,44.4 90.3,44.5 90.2,44.4 90.1,44.6 90.2,44.6 90.1,44.7 89.9,44.7 
										90,44.8 89.9,44.9 90.1,45 89.9,45.2 90.2,45.1 90,45.2 89.9,45.3 90,45.3 89.9,45.4 90,45.4 90,45.4 90.2,45.4 90.4,45.3 
										90.6,45.3 90.6,45.1 90.5,44.8 90.7,44.6 									">
          </polygon>
          <polygon class="st1" points="88.7,42.1 88.8,42 88.6,41.8 88.5,41.9 88.3,41.8 88.2,41.8 88.2,41.9 88.1,41.8 88.1,42 
										88,41.9 87.9,41.9 87.9,41.9 87.8,41.8 87.8,42 87.8,42 87.7,42 87.7,42.1 87.7,41.9 87.4,41.7 87.3,42 87.4,42 87.5,42 
										87.6,42 87.6,42 87.6,42.1 87.3,42.1 87.5,42.2 87.6,42.1 87.7,42.2 87.6,42.2 87.7,42.3 87.5,42.3 87.5,42.4 87.7,42.4 
										88.1,42.5 88.3,42.4 88.5,42.4 88.6,42.2 88.7,42.3 88.7,42.2 88.7,42.2 88.7,42.1 88.8,42.1 									">
          </polygon>
          <polygon class="st1" points="93.8,47.6 93.9,47.7 93.9,47.8 93.9,47.9 94,47.9 94,47.8 94,47.7 94,47.5 93.9,47.5 
										93.9,47.5 93.9,47.5 									">
          </polygon>
          <polygon class="st1" points="93.3,44.6 93.3,44.4 93.2,44.4 									">
          </polygon>
          <polygon class="st1" points="92.9,44.5 92.8,44.4 92.9,44.6 									">
          </polygon>
          <polygon class="st1" points="93.3,44.4 93.5,44.6 93.5,44.4 93.4,44.3 93.4,44.4 									">
          </polygon>
          <polygon class="st1" points="98.3,49.3 98.2,49.3 98.4,49.4 98.5,49.2 98.5,49.1 98.5,49.2 98.3,49.2 									">
          </polygon>
         </g>
        </g>
       </g>
      </g>
     </g>
    </g>
    <path class="st1" d="M86.9,71.6c-9.7,0-17.5-7.9-17.5-17.5s7.9-17.5,17.5-17.5c9.7,0,17.5,7.9,17.5,17.5S96.6,71.6,86.9,71.6z
				 M86.9,38.1c-8.8,0-16,7.2-16,16s7.2,16,16,16s16-7.2,16-16C103,45.2,95.8,38.1,86.9,38.1z">
    </path>
   </g>
  </g>
 </g>
</svg>