<svg version="1.1" id="Layer_1" xmlns:x="ns_extend;" xmlns:i="ns_ai;" xmlns:graph="ns_graphs;" xmlns="http://www.w3.org/2000/svg" xmlns:xlink="http://www.w3.org/1999/xlink" x="0px" y="0px" viewBox="0 0 474.7 76" style="enable-background:new 0 0 474.7 76;" xml:space="preserve">
 <style type="text/css">
  .st0{fill:none;}
	.st1{fill:#00AE4D;}
	.st2{fill:#00682C;}
	.st3{fill:#8CCB32;}
	.st4{fill:#D0D1D3;}
	.st5{fill:#8DC63F;}
 </style>
 <metadata>
  <sfw xmlns="ns_sfw;">
   <slices>
   </slices>
   <sliceSourceBounds bottomLeftOrigin="true" height="76" width="474.7" x="-38.1" y="-215.7">
   </sliceSourceBounds>
   <optimizationSettings>
    <targetSettings fileFormat="JPEGFormat" targetSettingsID="0">
     <JPEGFormat blurAmount="0" embedICCProfile="false" matteColor="#FFFFFF" noMatteColor="false" optimized="true" progressive="false" quality="60">
     </JPEGFormat>
    </targetSettings>
   </optimizationSettings>
  </sfw>
 </metadata>
 <g>
  <g>
   <path class="st0" d="M25.3,50.7L25.3,50.7L25.3,50.7L25.3,50.7 M25.3,50.7L25.3,50.7L25.3,50.7L25.3,50.7">
   </path>
   <path class="st1" d="M25.2,0.1C24.9,0.1,24.6,0,24.4,0H1.7C0.7,0,0,0.7,0,1.7v23.7L25.2,0.1z">
   </path>
   <path class="st0" d="M25.3,50.7L25.3,50.7L25.3,50.7L25.3,50.7">
   </path>
   <path class="st1" d="M0.5,75.5C0.8,75.8,1.2,76,1.7,76h22c0.9,0,1.7-0.7,1.7-1.7V50.7L0.5,75.5z">
   </path>
   <path class="st2" d="M50.7,25.3v50.5l0.2,0.1L76,50.7L50.7,25.3z">
   </path>
   <path class="st0" d="M25.3,50.7L25.3,50.7L25.3,50.7">
   </path>
   <path class="st3" d="M25.3,50.7V0.2c0,0-0.1,0-0.2-0.1L0,25.3v49c0,0.4,0.2,0.9,0.5,1.2L25.3,50.7z M76,50.7v-49
			C76,0.7,75.3,0,74.3,0c0,0,0,0,0,0h-22c-0.9,0-1.7,0.7-1.7,1.7v23.7L76,50.7z M76,50.7L50.8,75.9c0.3,0.1,0.5,0.1,0.8,0.1h22.7
			c0.9,0,1.7-0.7,1.7-1.7L76,50.7L76,50.7z">
   </path>
   <path class="st4" d="M25.3,50.7L25.3,50.7L25.3,50.7">
   </path>
   <path class="st1" d="M26,0.7c-0.2-0.2-0.4-0.4-0.7-0.5v50.5L50,75.3c0.2,0.2,0.4,0.4,0.7,0.5V25.3L26,0.7z">
   </path>
  </g>
  <g>
   <path class="st5" d="M473.2,33.7h-7.7V48c0,1.7,0.3,3.1,1.1,4c0.6,0.9,2,1.4,3.7,1.4c0.6,0,1.1,0,2-0.3h0.3c0.6,0,1.1,0.3,1.4,1.1
			v6.9c0,0.6-0.3,0.9-0.9,1.1c-0.6,0.3-1.4,0.3-2.3,0.6c-1.4,0.3-2.6,0.3-4,0.3c-2.6,0-4.6-0.3-6.3-0.9c-1.7-0.6-3.1-1.4-4-2.6
			c-1.1-1.1-1.7-2.6-2.3-4.3c-0.6-1.7-0.6-3.4-0.6-5.4V16.6c0-0.6,0.6-1.1,1.1-1.1h8.6c0.9,0,1.4,0.6,1.4,1.4l0.9,8.6h7.7
			c0.6,0,1.1,0.6,1.1,1.1v6.9C474.4,33.5,473.8,33.7,473.2,33.7z M422.7,46.3c0,1.1,0.3,2,0.9,2.9c0.6,0.9,1.1,1.7,2,2.3
			c0.9,0.6,1.7,1.1,2.9,1.4c1.1,0.3,2,0.6,3.1,0.6c2,0,3.7-0.3,4.9-1.1l2.6-1.7c0.6-0.6,1.1-0.6,1.7,0l5.1,5.4
			c0.6,0.6,0.6,1.4,0,1.7c-1.4,1.1-2.9,2.3-4.6,3.1c-2.9,1.4-6.3,2-10,2c-2.9,0-5.4-0.6-8-1.4c-2.6-0.9-4.6-2-6.6-3.7
			c-2-1.7-3.4-3.7-4.3-6c-1.1-2.6-1.7-5.1-1.7-8.3c0-3.1,0.6-5.7,1.4-8.3c1.1-2.6,2.6-4.6,4.3-6.3c1.7-1.7,4-3.1,6.3-4
			c2.6-0.9,5.1-1.4,8-1.4s5.1,0.6,7.4,1.4c2.3,0.9,4.3,2.3,6,4c1.7,1.7,2.9,3.7,3.7,6.3c0.9,2.6,1.4,5.4,1.4,8.6v2.9h-26.5V46.3
			L422.7,46.3z M436.7,33.7c-1.1-1.4-3.1-2-5.4-2c-1.1,0-2.3,0.3-3.1,0.6c-0.9,0.3-2,0.9-2.6,1.4c-0.9,0.6-1.4,1.4-1.7,2.3
			c-0.6,0.9-0.6,1.7-0.9,2.9h15.7C438.4,36.9,437.8,35.2,436.7,33.7z M405.6,61.4h-10.3c-0.6,0-1.1-0.6-1.1-1.1V10.9
			c0-0.6,0.6-1.1,1.1-1.1h10.3c0.6,0,1.1,0.6,1.1,1.1v49.4C406.4,60.9,406.1,61.4,405.6,61.4z M385,61.4h-10.3
			c-0.6,0-1.1-0.6-1.1-1.1V10.9c0-0.6,0.6-1.1,1.1-1.1H385c0.6,0,1.1,0.6,1.1,1.1v49.4C386.2,60.9,385.6,61.4,385,61.4z M364.8,61.4
			h-7.4c-0.6,0-1.1-0.3-1.4-1.1l-0.9-2.9c-1.1,1.1-2.9,2.3-4.9,3.1c-1.7,0.9-3.7,1.4-6,1.4h-2c-2.9,0-5.1-0.6-7.4-1.7
			c-2.3-1.1-4-2.6-5.4-4.3s-2.6-4-3.4-6.3c-0.9-2.3-1.1-4.9-1.1-7.4c0-2.6,0.3-5.1,1.1-7.4c0.9-2.3,2-4.3,3.4-6.3
			c1.4-1.7,3.4-3.1,5.4-4.3c2.3-1.1,4.6-1.4,7.1-1.4c3.1,0,5.7,0.6,7.7,1.4c1.7,0.9,2.9,1.7,4,2.6l0.9-3.4c0.3-0.6,0.9-1.1,1.4-1.1
			h8.6c0.6,0,1.1,0.6,1.1,1.1v36.3C365.9,60.9,365.3,61.4,364.8,61.4L364.8,61.4z M353.6,39.5c-0.3-1.1-1.1-2.3-1.7-3.1
			c-0.9-0.9-1.7-1.7-2.9-2.3c-1.1-0.6-2.3-0.9-3.7-0.9s-2.6,0.3-3.7,0.9c-1.1,0.6-2,1.1-2.9,2c-0.9,0.9-1.4,2-1.7,3.1
			c-0.3,1.1-0.6,2.3-0.6,3.4c0,1.1,0.3,2.3,0.6,3.4c0.3,1.1,0.9,2.3,1.7,3.1c0.9,0.9,1.7,1.7,2.9,2.3c1.1,0.6,2.3,0.9,3.7,0.9
			s2.6-0.3,3.7-0.9c1.1-0.6,2-1.1,2.9-2.3c0.9-0.9,1.4-2,1.7-3.1c0.3-1.1,0.6-2.3,0.6-3.4C354.2,41.7,353.9,40.6,353.6,39.5
			L353.6,39.5z M312.5,60.6c-0.3,0.6-0.6,0.9-1.1,0.9h-10.8c-0.6,0-0.9-0.3-1.1-0.9l-7.1-22.3H292l-6.9,22.3c0,0.6-0.6,0.9-1.1,0.9
			h-10.8c-0.6,0-0.9-0.3-1.1-0.9l-12-34.8c-0.3-0.6,0.3-1.4,1.1-1.4H272c0.6,0,0.9,0.3,1.1,0.9l6.3,22.6h0.3l6.3-22.6
			c0-0.6,0.6-0.9,1.1-0.9h10.6c0.6,0,0.9,0.3,1.1,0.9l6.6,22.6h0.3l6.3-22.6c0-0.6,0.6-0.9,1.1-0.9h10.3c0.9,0,1.1,0.9,1.1,1.4
			L312.5,60.6L312.5,60.6z M256.8,61.4h-7.4c-0.6,0-1.1-0.3-1.4-1.1l-0.9-2.3c-1.1,1.1-2.6,2-4.3,2.9c-2,1.1-4.6,1.4-7.4,1.7h-0.9
			c-2.9,0-5.1-0.6-7.4-1.7c-2.3-1.1-4-2.6-5.4-4.3c-1.4-1.7-2.6-4-3.4-6.3c-0.9-2.3-1.1-4.9-1.1-7.4s0.3-5.1,1.1-7.4
			c0.9-2.3,2-4.3,3.4-6.3c1.4-1.7,3.4-3.1,5.4-4.3c2.3-1.1,4.6-1.4,7.1-1.4c2.9,0,5.1,0.6,6.9,1.4c2,1.1,3.4,2.3,4.3,3.4h0.3V10.9
			c0-0.6,0.6-1.1,1.1-1.1h10c0.6,0,1.1,0.6,1.1,1.1v49.4C257.7,60.9,257.4,61.4,256.8,61.4L256.8,61.4z M245.4,39.5
			c-0.3-1.1-1.1-2.3-1.7-3.1c-0.9-0.9-1.7-1.7-2.9-2.3c-1.1-0.6-2.3-0.9-3.7-0.9s-2.6,0.3-3.7,0.9c-1.1,0.6-2,1.1-2.9,2
			c-0.9,0.9-1.4,2-1.7,3.1c-0.3,1.1-0.6,2.3-0.6,3.4c0,1.1,0.3,2.3,0.6,3.4c0.3,1.1,0.9,2.3,1.7,3.1c0.9,0.9,1.7,1.7,2.9,2.3
			c1.1,0.6,2.3,0.9,3.7,0.9s2.6-0.3,3.7-0.9c1.1-0.6,2-1.1,2.9-2.3c0.9-0.9,1.4-2,1.7-3.1c0.3-1.1,0.6-2.3,0.6-3.4
			C246,41.7,246,40.6,245.4,39.5L245.4,39.5z M216.3,24.6l-0.3,8.6c0,0.6-0.6,1.1-1.1,0.9h-2c-1.7,0-3.1,0.3-4,0.9
			c-1.1,0.6-2,1.4-2.6,2.3c-0.6,0.9-1.1,1.7-1.4,2.9c-0.3,0.9-0.6,1.7-0.6,2.6v18c0,0.6-0.6,1.1-1.1,1.1h-10c-0.6,0-1.1-0.6-1.1-1.1
			V25.8c0-0.6,0.6-1.1,1.1-1.1h8c0.6,0,1.1,0.6,1.4,1.1l0.9,2.6c1.3-1.3,2.9-2.4,4.6-3.1c0.6-0.3,1.1-0.6,1.7-0.6
			c1.4-0.6,2.9-0.9,4.3-0.9h1.7C216,23.5,216.3,24,216.3,24.6L216.3,24.6z M160.6,46.3c0,1.1,0.3,2,0.9,2.9c0.6,0.9,1.1,1.7,2,2.3
			c0.9,0.6,1.7,1.1,2.9,1.4s2,0.6,3.1,0.6c2,0,3.7-0.3,4.9-1.1l2.6-1.7c0.6-0.6,1.1-0.6,1.7,0l5.1,5.4c0.6,0.6,0.6,1.4,0,1.7
			c-1.4,1.1-2.9,2.3-4.6,3.1c-2.9,1.4-6.3,2-10,2c-2.9,0-5.4-0.6-8-1.4s-4.6-2-6.6-3.7c-2-1.7-3.4-3.7-4.3-6
			c-1.1-2.6-1.7-5.1-1.7-8.3s0.6-5.7,1.4-8.3c1.1-2.6,2.6-4.6,4.3-6.3c1.7-1.7,4-3.1,6.3-4c2.6-0.9,5.1-1.4,8-1.4s5.1,0.6,7.4,1.4
			c2.3,0.9,4.3,2.3,6,4s2.9,3.7,3.7,6.3c0.9,2.6,1.4,5.4,1.4,8.6v2.9h-26.5L160.6,46.3L160.6,46.3z M174.3,33.7
			c-1.1-1.4-3.1-2-5.4-2c-1.1,0-2.3,0.3-3.1,0.6c-0.9,0.3-2,0.9-2.6,1.4c-0.9,0.6-1.4,1.4-1.7,2.3c-0.6,0.9-0.6,1.7-0.9,2.9h15.7
			C176.3,36.9,175.8,35.2,174.3,33.7z M143.8,61.4h-10.3c-0.6,0-1.1-0.6-1.1-1.1V41.2c0-1.1,0-2-0.3-2.9l-0.9-2.6
			c-0.3-0.9-0.9-1.4-1.7-1.7c-0.9-0.3-1.7-0.6-2.9-0.6c-1.1,0-2,0.3-2.9,0.6c-0.9,0.3-1.4,1.1-2,1.7c-0.6,0.9-0.9,1.7-1.1,2.6
			c-0.3,0.9-0.3,2-0.3,3.1v19.1c0,0.6-0.6,1.1-1.1,1.1H109c-0.6,0-1.1-0.6-1.1-1.1V25.8c0-0.6,0.6-1.1,1.1-1.1h8
			c0.6,0,1.1,0.3,1.4,1.1l0.9,2.3c1.1-1.1,2.6-2,4.3-2.9c2-0.9,4.3-1.4,7.1-1.4h0.3c2.3,0,4.6,0.6,6,1.4c1.7,0.9,3.1,2,4.3,3.4
			s1.7,3.1,2.3,4.9c0.6,1.7,0.6,3.7,0.6,5.4v21.7C144.7,60.9,144.4,61.4,143.8,61.4L143.8,61.4z">
   </path>
  </g>
 </g>
</svg>