<svg version="1.1" id="Layer_1" xmlns:x="ns_extend;" xmlns:i="ns_ai;" xmlns:graph="ns_graphs;" xmlns="http://www.w3.org/2000/svg" xmlns:xlink="http://www.w3.org/1999/xlink" x="0px" y="0px" viewBox="0 0 144.7 44" style="enable-background:new 0 0 144.7 44;" xml:space="preserve">
 <style type="text/css">
  .st0{fill:#1E93CF;}
	.st1{fill:#6D6F72;}
 </style>
 <metadata>
  <sfw xmlns="ns_sfw;">
   <slices>
   </slices>
   <sliceSourceBounds bottomLeftOrigin="true" height="44" width="144.7" x="61.9" y="-328.6">
   </sliceSourceBounds>
  </sfw>
 </metadata>
 <g>
  <polygon class="st0" points="19.6,2.4 22.7,2.3 21.2,0.7 	">
  </polygon>
  <polygon class="st0" points="16.5,5.4 23.1,5.3 19.7,3.5 18.3,3.6 	">
  </polygon>
  <polygon class="st0" points="15.6,6.4 14.1,7.9 23.3,7.9 19.1,6.4 	">
  </polygon>
  <polygon class="st0" points="12.9,9.2 11.2,10.8 23.3,10.8 18,8.8 	">
  </polygon>
  <polygon class="st0" points="10,11.9 8.4,13.6 23.4,13.6 17.2,11.7 	">
  </polygon>
  <polygon class="st0" points="7.1,14.8 5.5,16.4 23.3,16.4 16.1,14.5 	">
  </polygon>
  <polygon class="st0" points="4.5,17.6 2.9,19.1 23,19.1 15.8,17.3 	">
  </polygon>
  <polygon class="st0" points="1.3,20.7 0,22.1 23,22.1 15.7,20.2 	">
  </polygon>
  <polygon class="st0" points="1.2,23.5 2.6,24.8 22.9,24.8 15.9,22.9 	">
  </polygon>
  <polygon class="st0" points="4.1,26.3 5.3,27.5 22.6,27.5 16.3,25.9 	">
  </polygon>
  <polygon class="st0" points="6.8,29.2 8.2,30.5 22.8,30.5 16.5,28.7 	">
  </polygon>
  <polygon class="st0" points="9.4,31.6 10.7,33.1 22.7,33.1 17,31.4 	">
  </polygon>
  <polygon class="st0" points="12,34.2 13.7,36.1 22.4,36.1 17.8,34.3 	">
  </polygon>
  <polygon class="st0" points="14.7,36.9 16.4,38.6 22,38.6 18.3,36.9 	">
  </polygon>
  <polygon class="st0" points="17.5,39.8 19.1,41.4 21.4,41.4 19.3,39.8 	">
  </polygon>
  <polygon class="st0" points="20.1,42.3 21.8,44 21.8,42.2 	">
  </polygon>
  <polygon class="st0" points="21.9,0.8 22.7,0.8 21.9,0 	">
  </polygon>
  <polygon class="st0" points="23.1,2.6 23.8,3.5 25.4,3.5 24.6,2.6 	">
  </polygon>
  <polygon class="st0" points="23.5,5.4 24.9,6.1 28,6.1 27.3,5.4 	">
  </polygon>
  <polygon class="st0" points="24.1,8 26.1,8.8 30.4,8.6 29.7,7.9 	">
  </polygon>
  <polygon class="st0" points="24.2,10.9 26.5,11.8 33.5,11.6 32.7,10.9 	">
  </polygon>
  <polygon class="st0" points="24.2,13.7 27.6,14.6 36.3,14.5 35.4,13.7 	">
  </polygon>
  <polygon class="st0" points="24.3,16.5 28,17.6 39,17.3 38.2,16.4 	">
  </polygon>
  <polygon class="st0" points="24.1,19.2 28.3,20.3 41.8,20 41,19.2 	">
  </polygon>
  <polygon class="st0" points="24.2,22 28.6,23.1 42.9,22.7 43.5,22 	">
  </polygon>
  <polygon class="st0" points="24.2,24.8 27.6,25.9 40,25.5 40.8,24.8 	">
  </polygon>
  <polygon class="st0" points="23.8,27.5 27.6,28.6 37.4,28.1 38.2,27.5 	">
  </polygon>
  <polygon class="st0" points="23.8,30.4 26.7,31.3 34.6,31 35.2,30.4 	">
  </polygon>
  <polygon class="st0" points="25.9,34.1 31.6,34 32.2,33.4 23.8,33.3 	">
  </polygon>
  <polygon class="st0" points="25.7,36.9 28.7,36.9 29.5,36.1 23.5,36.1 	">
  </polygon>
  <polygon class="st0" points="22.8,38.7 24.6,39.6 26.1,39.6 26.9,38.7 	">
  </polygon>
  <polygon class="st0" points="23.3,42.4 24.2,41.6 22.4,41.6 	">
  </polygon>
  <path class="st1" d="M56.7,22.1c0,5.5,1.9,13.3,6.2,13.3c4.3,0,6.2-7.8,6.2-13.3c0-5.5-1.9-13.3-6.2-13.3
		C58.6,8.9,56.7,16.6,56.7,22.1 M51.7,22.1c0-7.1,4.3-14.7,11.2-14.7c6.9,0,11.2,7.6,11.2,14.7c0,7.1-4.3,14.7-11.2,14.7
		C55.9,36.9,51.7,29.2,51.7,22.1 M112.8,23.9c0,4.6,1.6,11.1,5.2,11.1c3.6,0,5.2-6.5,5.2-11.1c0-4.6-1.6-11.1-5.2-11.1
		C114.4,12.9,112.8,19.3,112.8,23.9 M108.6,23.9c0-5.9,3.6-12.3,9.4-12.3c5.8,0,9.4,6.4,9.4,12.3c0,5.9-3.6,12.3-9.4,12.3
		C112.2,36.2,108.6,29.8,108.6,23.9 M134.4,35c0.4,0.1,0.7,0.1,0.7,0.6c0,0.4-0.2,0.6-0.6,0.6c-0.7,0-1.3-0.1-3-0.1
		c-2.2,0-2.7,0.1-3.4,0.1c-0.4,0-0.7-0.2-0.7-0.6c0-0.4,0.3-0.5,0.7-0.6c1.4-0.2,1.5-0.3,1.5-2.2V15c0-0.9-0.2-1.2-0.8-1.2
		c-0.7-0.1-1.3-0.3-1.3-0.6c0-0.4,0.3-0.6,0.8-0.6c0.4,0,0.9,0.1,3.3,0.1c2,0,2.5-0.1,3-0.1c0.5,0,0.7,0.1,0.7,0.5
		c0,0.5-0.2,0.7-1.2,0.8c-0.6,0-0.8,0.2-0.8,0.9v7.7c2.1-2.8,3.5-4.6,4.4-5.8c1-1.3,1.3-1.9,1.3-2.2c0-0.3-0.2-0.5-0.8-0.6
		c-0.9-0.1-1.2-0.2-1.3-0.6c0-0.4,0.3-0.7,0.8-0.7c0.8,0,1.3,0.1,2.7,0.1c1.4,0,2.1-0.1,2.6-0.1c0.4,0,0.6,0.1,0.6,0.6
		c0,0.3-0.3,0.4-1,0.6c-0.7,0.1-1.2,0.4-2.1,1.4c-0.8,1-2,2.6-4.1,5.3c3,6.7,4.4,10.1,5.3,12c0.7,1.4,0.9,2.1,2.2,2.7
		c0.2,0.1,0.4,0.2,0.4,0.5c0,0.5-0.3,0.6-0.8,0.6c-0.4,0-0.8-0.1-2.9-0.1c-2,0-2.8,0.1-3.1,0.1c-0.4,0-0.7-0.2-0.7-0.7
		c0-0.4,0.4-0.6,0.7-0.6c0.7,0,0.9-0.3,0.9-0.8c0-0.2-0.1-0.3-0.4-1.2c-0.4-0.8-1-2.2-2.2-4.9c-0.9-2.1-1.4-3.3-1.7-3.9
		c0,0-0.3-0.6-0.4-0.6c0,0-0.7,0.7-0.7,1v9C133.4,34.4,133.5,34.7,134.4,35 M94,13.8l-0.5-0.1c-0.4-0.1-0.7-0.1-0.7-0.6
		c0-0.5,0.4-0.6,1.2-0.6c0.3,0,1.2,0.1,5.9,0.1c3.9,0,5.6-0.1,6.7-0.1c0.7,0,1,0.2,1,0.8V18c0,0.5-0.2,0.8-0.5,0.8
		c-0.3,0-0.5-0.1-0.6-0.4c-0.1-0.3-0.3-0.8-0.7-1.7c-1-2.2-2-2.9-4.8-2.9c-1.8,0-1.9,0.2-1.9,0.9v7.5c0,0.4,0,0.6,0.9,0.6
		c3.1,0,3.2,0,3.8-1.4c0.3-0.6,0.4-1,0.6-1.3c0.1-0.3,0.3-0.5,0.6-0.5c0.4,0,0.5,0.3,0.5,0.8c0,0.8-0.2,2-0.2,3.2
		c0,1.4,0.2,2.4,0.2,3.1c0,0.6-0.1,1.1-0.6,1.1c-0.3,0-0.5-0.2-0.6-0.6c-0.1-0.3-0.2-0.9-0.4-1.5c-0.5-1.6-0.6-1.7-3.2-1.7
		c-1.5,0-1.5,0.1-1.5,0.6v7.1c0,2.6,0.4,3.3,2.9,3.3c2.4,0,3.5-1,4.5-3.6c0.4-1,0.5-1.5,0.7-1.8c0.1-0.3,0.3-0.4,0.5-0.4
		c0.4,0,0.5,0.2,0.5,1v5.3c0,0.6-0.2,0.8-1,0.8c-1,0-2.8-0.1-6.6-0.1c-4.2,0-5.3,0.1-7,0.1c-0.7,0-0.9-0.2-0.9-0.5
		c0-0.5,0.2-0.6,0.7-0.7c1.6-0.3,1.9-0.6,1.9-1.6V15C95.3,14.2,95.1,13.9,94,13.8 M88.5,29.1c0.1-0.1,0.1-0.6,0.1-0.6V16.9
		c0-2.5-0.4-3-1.5-3.1c-0.5-0.1-1.2,0-1.2-0.6c0-0.5,0.5-0.6,0.9-0.6c0.5,0,1,0.1,2.5,0.1c1.3,0,1.6-0.1,2.1-0.1
		c0.5,0,0.7,0.2,0.7,0.5c0,0.5-0.5,0.6-1.1,0.7c-0.9,0.1-1.2,0.7-1.2,1.5v20.4c0,0.7-0.3,1-0.8,1c-0.5,0-0.8-0.5-1-0.9l-9.8-17.7
		c-0.1-0.2-0.3-0.7-0.5-0.9c0,0.2,0,0.4,0,0.7v14.2c0,1.8,0.1,2.6,1.6,2.9c0.4,0.1,0.7,0.1,0.9,0.2c0.3,0.1,0.5,0.2,0.5,0.5
		c0,0.2,0,0.5-0.5,0.5c-0.9,0-2-0.1-3.1-0.1c-1,0-1.6,0.1-2.4,0.1c-0.6,0-0.9-0.1-0.9-0.6c0-0.4,0.3-0.5,1.1-0.6
		c1.3-0.1,1.6-0.4,1.6-3.8v-16c0-1.1-0.2-1.2-1.2-1.4c-0.8-0.2-1.1-0.3-1.1-0.7c0-0.3,0.3-0.5,0.8-0.5c0.4,0,0.7,0.1,2.2,0.1
		c1.3,0,1.6-0.1,2-0.1c0.3,0,0.5,0.2,0.7,0.5c0.2,0.3,0.4,0.8,0.8,1.5L88,28.2C88.2,28.5,88.3,28.8,88.5,29.1L88.5,29.1z">
  </path>
 </g>
</svg>