<svg version="1.1" id="Layer_1" xmlns:x="ns_extend;" xmlns:i="ns_ai;" xmlns:graph="ns_graphs;" xmlns="http://www.w3.org/2000/svg" xmlns:xlink="http://www.w3.org/1999/xlink" x="0px" y="0px" viewBox="0 0 269 93" style="enable-background:new 0 0 269 93;" xml:space="preserve">
 <style type="text/css">
  .st0{fill:#F78D2D;}
	.st1{fill:#BE4729;}
	.st2{fill:#55585A;}
	.st3{fill:#CCCDCD;}
 </style>
 <metadata>
  <sfw xmlns="ns_sfw;">
   <slices>
   </slices>
   <sliceSourceBounds bottomLeftOrigin="true" height="93" width="269" x="65.5" y="-246.5">
   </sliceSourceBounds>
  </sfw>
 </metadata>
 <g>
  <polygon class="st0" points="72.5,0 64.1,8.5 64.1,12.9 68.5,12.9 77,4.5 77,0 	">
  </polygon>
  <polygon class="st0" points="72.5,32 64.1,40.5 64.1,45 68.5,45 77,36.5 77,32 	">
  </polygon>
  <polygon class="st0" points="72.5,61 64.1,52.5 64.1,48 68.5,48 77,56.5 77,61 	">
  </polygon>
  <polygon class="st0" points="24.5,48 16,56.5 16,61 20.5,61 28.9,52.5 28.9,48 	">
  </polygon>
  <polygon class="st0" points="24.5,80.1 16,88.5 16,93 20.5,93 28.9,84.5 28.9,80.1 	">
  </polygon>
  <polygon class="st1" points="40.5,64.1 32,72.5 32,77 36.5,77 45,68.5 45,64.1 	">
  </polygon>
  <polygon class="st1" points="36.5,16 45,24.5 45,28.9 40.5,28.9 32,20.5 32,16 	">
  </polygon>
  <polygon class="st1" points="56.5,16 48,24.5 48,28.9 52.5,28.9 61,20.5 61,16 	">
  </polygon>
  <polygon class="st1" points="56.5,45 48,36.5 48,32 52.5,32 61,40.5 61,45 	">
  </polygon>
  <polygon class="st2" points="20.5,32 28.9,40.5 28.9,45 24.5,45 16,36.5 16,32 	">
  </polygon>
  <polygon class="st2" points="40.5,32 32,40.5 32,45 36.5,45 45,36.5 45,32 	">
  </polygon>
  <polygon class="st2" points="36.5,48 45,56.5 45,61 40.5,61 32,52.5 32,48 	">
  </polygon>
  <polygon class="st2" points="56.5,48 48,56.5 48,61 52.5,61 61,52.5 61,48 	">
  </polygon>
  <polygon class="st2" points="52.5,64.1 61,72.5 61,77 56.5,77 48,68.5 48,64.1 	">
  </polygon>
  <polygon class="st3" points="0,16 0,20.5 8.5,28.9 12.9,28.9 12.9,24.5 4.5,16 	">
  </polygon>
  <polygon class="st3" points="84.5,64.1 93,72.5 93,77 88.5,77 80.1,68.5 80.1,64.1 	">
  </polygon>
  <g>
   <path class="st2" d="M92.6,46.8L92.6,46.8c0-9.8,7.4-17.8,18-17.8s17.9,8,17.9,17.6v0.1c0,9.7-7.4,17.7-18,17.7
			S92.6,56.5,92.6,46.8 M122.2,46.8L122.2,46.8c0-6.8-4.9-12.3-11.7-12.3c-6.8,0-11.6,5.4-11.6,12.1v0.1c0,6.7,4.9,12.2,11.7,12.2
			C117.4,58.9,122.2,53.5,122.2,46.8">
   </path>
   <polygon class="st2" points="130.7,38.2 137,38.2 143.9,57.1 150.9,38.2 157.1,38.2 146.6,64.1 141.3,64.1 		">
   </polygon>
   <path class="st2" d="M160.7,28.7h6.3V32v2.2h-6.3V28.7z M160.9,38.2h5.9v20.6v5.2h-5.9V38.2z">
   </path>
   <path class="st2" d="M173.6,38.2h5.9v3.9c1.7-2.4,4-4.5,8-4.5c5.8,0,9.1,3.9,9.1,9.8v16.6h-5.9V49.3c0-4-2-6.3-5.5-6.3
			c-3.4,0-5.8,2.4-5.8,6.4v14.7h-5.9V38.2z">
   </path>
   <path class="st2" d="M204.2,56.8V43.3h-3.3v-5.1h3.3v-7h5.9v7h6.9v5.1h-6.9v12.6c0,2.3,1.2,3.2,3.2,3.2c1.3,0,2.5-0.3,3.6-0.9V63
			c-1.5,0.8-3.1,1.3-5.3,1.3C207.3,64.3,204.2,62.4,204.2,56.8">
   </path>
   <path class="st2" d="M221.9,28.7h6.3V32v2.2h-6.3V28.7z M222.1,38.2h5.9v20.7v5.2h-5.9V38.2z">
   </path>
   <polygon class="st2" points="231.8,38.2 238.1,38.2 245,57.1 252,38.2 258.2,38.2 247.7,64.1 242.4,64.1 		">
   </polygon>
   <polygon class="st2" points="262.5,38.8 261.3,38.8 261.3,38.2 264.4,38.2 264.4,38.8 263.2,38.8 263.2,42.1 262.5,42.1 		">
   </polygon>
   <polygon class="st2" points="265.2,38.2 265.9,38.2 267.1,40 268.2,38.2 269,38.2 269,42.1 268.3,42.1 268.3,39.3 267.1,41.1 
			267,41.1 265.8,39.3 265.8,42.1 265.2,42.1 		">
   </polygon>
  </g>
 </g>
</svg>