<svg version="1.1" id="Layer_1" xmlns:x="ns_extend;" xmlns:i="ns_ai;" xmlns:graph="ns_graphs;" xmlns="http://www.w3.org/2000/svg" xmlns:xlink="http://www.w3.org/1999/xlink" x="0px" y="0px" viewBox="0 0 351.6 72" style="enable-background:new 0 0 351.6 72;" xml:space="preserve">
 <style type="text/css">
  .st0{fill:url(#SVGID_1_);}
	.st1{fill:#3E53A4;}
	.st2{fill:#4E4E4E;}
 </style>
 <metadata>
  <sfw xmlns="ns_sfw;">
   <slices>
   </slices>
   <sliceSourceBounds bottomLeftOrigin="true" height="72" width="351.6" x="-219.7" y="0">
   </sliceSourceBounds>
  </sfw>
 </metadata>
 <g>
  <linearGradient id="SVGID_1_" gradientUnits="userSpaceOnUse" x1="290.1241" y1="107.4625" x2="341.0225" y2="56.5375" gradientTransform="matrix(1 0 0 -1 0 118)">
   <stop offset="0.2" style="stop-color:#C869A8">
   </stop>
   <stop offset="0.5" style="stop-color:#6E7EBB">
   </stop>
   <stop offset="0.8" style="stop-color:#00BCF1">
   </stop>
  </linearGradient>
  <path class="st0" d="M315.6,0c-19.9,0-36,16.1-36,36s16.1,36,36,36c19.9,0,36-16.1,36-36S335.5,0,315.6,0z M315.6,70.1
		c-18.8,0-34.1-15.3-34.1-34.1s15.3-34.1,34.1-34.1c18.8,0,34.1,15.3,34.1,34.1c0,0,0,0,0,0C349.7,54.8,334.4,70.1,315.6,70.1z
		 M303.7,8.7h-0.4c-15,6.8-21.7,24.5-14.9,39.6c6.8,15,24.5,21.7,39.6,14.9s21.7-24.5,14.9-39.6C338,12.9,327.3,6.1,315.6,6.1h-0.7
		c-0.6,0-1,0.4-1,1.1s0.4,1.1,0.9,1.1h0.7c15.2,0,27.5,12.4,27.5,27.6c0,15.2-12.4,27.5-27.6,27.5c-15.2,0-27.5-12.4-27.5-27.6
		c0-10.8,6.3-20.6,16.2-25.1c0.5-0.2,0.7-0.8,0.4-1.4C304.4,9,304.1,8.8,303.7,8.7z M303.3,16c-0.2,0-0.5,0.1-0.6,0.2
		c-10.9,7.1-13.9,21.8-6.8,32.6c1.8,2.7,4.1,5,6.8,6.8c0.2,0.1,0.4,0.2,0.6,0.2c0.5,0,0.9-0.3,1.1-0.7c0.5-0.5,0.4-1.3-0.1-1.8
		c0,0,0,0-0.1,0l0,0c-9.6-6.3-12.2-19.2-5.9-28.8c1.5-2.3,3.5-4.3,5.9-5.9c0.3-0.2,0.5-0.5,0.5-0.8c0-0.4-0.1-0.7-0.3-1
		C304.2,16.3,303.8,16,303.3,16z M315.1,56.7c-0.3,0-0.6,0.1-0.8,0.3c-0.3,0.3-0.4,0.7-0.4,1.1c0,0.9,0.5,1.4,1.2,1.4h0.5
		c13,0,23.6-10.6,23.6-23.6s-10.6-23.6-23.6-23.6h-0.5c-0.7,0-1.2,0.6-1.2,1.4s0.5,1.4,1.2,1.4h0.5c11.5,0,20.8,9.3,20.8,20.8
		c0,11.5-9.3,20.8-20.8,20.8L315.1,56.7z M301.7,25.9c0.5-0.7,1.5-0.8,2.1-0.3c0,0,0.1,0.1,0.1,0.1c0.7,0.4,1,1.3,0.6,2.1
		c0,0.1-0.1,0.1-0.1,0.1c-3.4,4.8-3.4,11.2,0,16c0.5,0.7,0.3,1.6-0.4,2.1c0,0-0.1,0.1-0.1,0.1c-0.6,0.6-1.6,0.6-2.1,0
		c0,0-0.1-0.1-0.1-0.1c-2.1-2.9-3.2-6.4-3.2-10.1C298.5,32.4,299.6,28.9,301.7,25.9L301.7,25.9z">
  </path>
  <path class="st1" d="M315.7,45.7c-1.1,0-1.8-0.8-1.8-2.1s0.6-2.1,1.8-2.1c3-0.1,5.4-2.7,5.3-5.7c-0.1-3-2.7-5.4-5.7-5.3
		c-1.4-0.1-2.8,0.4-3.9,1.2v25.7c0,1.2-0.9,1.8-2.1,1.8c-1.2,0-2.1-0.6-2.1-1.8V32c0,0,0-1.6,0-1.9c0.3-0.9,0.9-1.6,1.7-2
		c2-1.1,4.3-1.8,6.7-1.8c5.3,0.3,9.4,4.8,9.1,10.1C324.5,41.4,320.5,45.3,315.7,45.7L315.7,45.7z M315.7,53.2
		c-1.1,0-1.8-0.8-1.8-2.1c0-1.3,0.6-2.1,1.8-2.1c7.2,0,13-5.8,13-13s-5.8-13-13-13c-2.1,0-4.1,0.4-6,1.2c-1,0.3-2-0.2-2.3-1.2
		c-0.1-0.2-0.1-0.5-0.1-0.7V7c0-1.1,0.8-1.8,2.1-1.8c1.3,0,2.1,0.7,2.1,1.8v12.4c1.4-0.4,2.8-0.5,4.2-0.5
		c9.5,0.4,16.8,8.3,16.5,17.8C331.7,45.7,324.5,52.8,315.7,53.2L315.7,53.2z">
  </path>
  <path class="st2" d="M249.3,47.8c2.1,1.3,4.5,1.9,7,1.8c5.8,0,9.2-3,9.2-7.8c0-3.8-2-5.7-7.4-7.5c-3.6-1.2-5.1-2.3-5.1-4
		c0-2.2,1.9-3.4,4.7-3.4c2.5,0,4.9,0.7,7,1.9v-3.3c-2.1-1.3-4.5-1.9-6.9-1.9c-5.3,0-8.6,2.5-8.6,6.7c0,3.2,1.9,5.5,6.5,7
		c4.6,1.5,6,2.3,6,4.7c0,2.4-2,4.2-5.3,4.2c-2.5,0.1-4.9-0.6-7-1.9L249.3,47.8z M227.4,34.3c0.4-4.5,2.9-7.3,7.2-7.3
		s6.7,2.4,6.8,7.3H227.4z M244.7,44.6c-2.5,1.1-5.2,1.7-8,1.7c-6,0-9.1-2.9-9.3-8.6h17.9c0-0.7,0.2-2,0.2-2.7
		c0-7-3.5-11.3-10.4-11.3c-7.7,0-11.5,5.7-11.5,13c0,8.3,4.4,12.9,12.8,12.9c2.9,0.1,5.9-0.5,8.5-1.8L244.7,44.6z M214.3,49
		l7.2-24.8h-3.8l-5.1,19.5l-5.7-19.5h-4.1L197,44l-5.2-19.7h-4.2l7.1,24.8h4l6-19.7l5.7,19.7L214.3,49z M174.1,46.2
		c-5,0-7.7-3.8-7.7-9.5s2.7-9.6,7.7-9.6c5,0,7.7,3.8,7.7,9.5S179,46.2,174.1,46.2z M174.1,49.6c8,0,11.8-5.7,11.8-13
		s-3.4-13-11.8-13c-7.9,0-11.8,5.7-11.8,13S165.7,49.6,174.1,49.6z M140.3,28.3c1.8-0.9,3.8-1.4,5.9-1.3c4.4-0.3,8.2,3,8.5,7.5
		c0,0.5,0,1,0,1.4c0,6.7-3.7,10.3-10,10.3c-1.4,0-2.9-0.2-4.2-0.7L140.3,28.3z M136.4,48.2c2.5,0.9,5.2,1.3,7.8,1.3
		c9,0,14.4-5,14.4-13.8c0.5-6.2-4.1-11.6-10.3-12c-0.6,0-1.1,0-1.7,0c-2.1,0-4.3,0.4-6.2,1.3V12.6h-4L136.4,48.2z M112.2,61.5
		l4.7-12.6l9.8-24.7h-4.3L115,44.5l-7.4-20.2h-4.4L113,49l-4.7,12.6L112.2,61.5z M83.2,34.3c0.5-4.5,2.9-7.3,7.2-7.3
		c4.3,0,6.6,2.4,6.8,7.3H83.2z M100.4,44.6c-2.5,1.1-5.2,1.7-8,1.7c-6,0-9.1-2.9-9.3-8.6H101c0-0.7,0-2,0-2.7
		c0-7-3.5-11.3-10.4-11.3c-7.7,0-11.5,5.7-11.5,13c0,8.3,4.3,12.9,12.7,12.9c3,0.2,5.9-0.3,8.6-1.5V44.6z M74.9,49V32.8
		c0-7-4.2-9.1-9.6-9.1c-3.8,0.1-7.6,0.8-11.1,2.1V49h3.9V28.3c2-0.7,4.1-1.1,6.3-1.1c4.5,0,6.6,1.5,6.6,7V49H74.9z M50.5,45.6
		c-1.4,0.4-2.9,0.7-4.4,0.6c-1.8,0-3.1-0.5-3.1-3.7v-15h6.5v-3.3H43v-6.1h-3.8v6.1h-4.1v3.3h4.1v15.8c0,4.5,2.3,6.3,6,6.3
		c1.8,0,3.6-0.3,5.3-0.9L50.5,45.6z M28.9,19.6c1.4,0.1,2.6-1,2.7-2.3c0-0.1,0-0.2,0-0.3c0.4-1.4-0.3-2.9-1.8-3.3
		c-1.4-0.4-2.9,0.3-3.3,1.8c-0.2,0.5-0.2,1.1,0,1.6C26.5,18.3,27.6,19.5,28.9,19.6z M30.8,24.3H27V49h3.9L30.8,24.3z M3.9,28.6
		c1.8-1.1,3.8-1.6,5.9-1.5c4.4-0.2,8.2,3.1,8.4,7.5c0,0.4,0,0.8,0,1.2c0,6.7-3.7,10.3-10.1,10.3c-1.4,0.1-2.9-0.2-4.2-0.7L3.9,28.6z
		 M3.9,61.6V49.1c1.3,0.4,2.7,0.6,4.1,0.6c8.8,0,14.3-5,14.3-13.8c0.5-6.2-4.1-11.6-10.4-12.1c-0.6,0-1.2,0-1.8,0
		c-3.7,0-7.3,1.2-10.1,3.6v34.3L3.9,61.6z">
  </path>
 </g>
</svg>