<svg version="1.1" id="Layer_1" xmlns:x="ns_extend;" xmlns:i="ns_ai;" xmlns:graph="ns_graphs;" xmlns="http://www.w3.org/2000/svg" xmlns:xlink="http://www.w3.org/1999/xlink" x="0px" y="0px" viewBox="0 0 177 55" style="enable-background:new 0 0 177 55;" xml:space="preserve">
 <style type="text/css">
  .st0{fill:#FD66E2;}
 </style>
 <metadata>
  <sfw xmlns="ns_sfw;">
   <slices>
   </slices>
   <sliceSourceBounds bottomLeftOrigin="true" height="55" width="177" x="-65.3" y="0">
   </sliceSourceBounds>
  </sfw>
 </metadata>
 <g id="Group_180" transform="translate(-1584.28 -1300.448)">
  <path id="Path_31" d="M1661.2,1348.5v-15.8l-3.2-0.2v-6.1l11.1-0.3v5.7c0.5-1.5,1.3-2.8,2.4-3.9c1.3-1.2,3-1.9,4.7-1.9
		c0.9,0,1.9,0.2,2.8,0.4l-0.4,7.2c-0.9-0.2-1.8-0.3-2.8-0.3c-1.9,0-3.7,0.9-4.8,2.4c-0.8,1.1-1.3,2.3-1.5,3.6v9l3.7,0.2v6.1H1658
		v-6.1L1661.2,1348.5z">
  </path>
  <path id="Path_32" d="M1685.4,1348.5v-15.7l-3.2-0.2v-6.1l11.5-0.3v22.3l3.2,0.2v6.1h-14.7v-6.1L1685.4,1348.5z">
  </path>
  <path id="Path_33" d="M1712.6,1331.9c-2.2-0.1-4.2,1.3-4.9,3.4c-0.7,1.7-1,3.5-0.9,5.4c-0.1,2,0.3,4,1.2,5.8c0.9,1.8,2.7,3,4.8,2.9
		c2.2,0.1,4.2-1.3,5-3.4c0.7-1.7,1-3.5,0.9-5.4c0.1-2-0.3-4-1.2-5.8C1716.6,1332.9,1714.7,1331.7,1712.6,1331.9 M1712.9,1325.8
		c4.8,0,8.4,1.4,10.9,4.2c2.4,3,3.7,6.7,3.5,10.6c0.2,4.2-1.3,8.3-4.1,11.3c-2.4,2.4-5.9,3.5-10.4,3.5c-4.9,0-8.6-1.4-11-4.2
		c-2.4-3-3.7-6.8-3.5-10.6c-0.2-4.2,1.3-8.3,4.1-11.3C1704.7,1327,1708.2,1325.8,1712.9,1325.8">
  </path>
  <path id="Path_34" d="M1646.2,1337.9c0-1.3-0.3-2.5-0.9-3.6c-0.9-1.8-2.8-2.8-4.8-2.6c-2-0.1-3.9,0.9-4.9,2.6
		c-0.6,1.1-1,2.4-1.1,3.6L1646.2,1337.9z M1634.6,1343.4c0.3,4.1,2.8,6.1,7.4,6.1c3.2-0.1,6.3-1,8.9-2.8l2.9,5.9
		c-3.7,1.9-7.8,2.9-12,2.8c-5.4,0-9.5-1.3-12.2-4c-2.5-2.5-3.7-6-3.7-10.6c-0.2-3.9,1.1-7.8,3.7-10.8c2.5-2.8,6.1-4.2,10.9-4.2
		c3.7-0.2,7.4,1,10.2,3.4c2.3,2.4,3.6,5.5,3.7,8.9c0.1,1.2,0.2,3,0.2,5.3H1634.6z">
  </path>
  <path id="Path_35" d="M1731.7,1348.6V1333l-3.2-0.2v-6l10.7-0.3v4.2c0.9-1,1.8-1.8,2.9-2.6c2-1.3,4.4-2,6.8-2c3.9,0,6.6,1.4,8,4.3
		c0.9,2.2,1.3,4.6,1.1,7v11.1l3.2,0.2v6h-14.5v-6l3.2-0.2v-11.1c0.1-1.3-0.2-2.6-0.8-3.7c-0.7-1-1.8-1.6-3-1.5
		c-2.2,0-4.2,1.5-6.1,4.4v11.9l3.2,0.2v6h-14.5v-6L1731.7,1348.6z">
  </path>
  <path id="Path_36" class="st0" d="M1684.7,1314.4c-1.9,1.9-1.8,5,0.1,6.9c1.9,1.9,5,1.8,6.9-0.1c0.9-0.9,1.4-2.2,1.4-3.5
		c0-1.2-0.4-2.5-1.3-3.4c-0.9-1-2.2-1.5-3.5-1.5C1687,1312.9,1685.7,1313.4,1684.7,1314.4">
  </path>
  <path id="Path_37" d="M1584.3,1300.5l2.7,8.1h4.5l-0.1,38.6l-5.3,0.3v7.2h21.6v-7.2l-6.3-0.3l0-46.8L1584.3,1300.5z">
  </path>
  <path id="Path_38" d="M1629.2,1318.3c0-2.5-0.4-4.9-1.3-7.2c-0.8-2.2-2.2-4.1-3.9-5.6c-2-1.7-4.3-3-6.8-3.7
		c-3.1-0.9-6.4-1.4-9.7-1.3h-6.2v8.1h6.2c1.7,0,3.4,0.2,5,0.7c1.3,0.4,2.5,1.1,3.5,1.9c0.9,0.9,1.6,1.9,2.1,3.1
		c0.5,1.3,0.7,2.7,0.7,4.1c0,1.5-0.2,2.9-0.7,4.3c-0.4,1.2-1.2,2.3-2.1,3.2c-1,0.9-2.2,1.6-3.5,2c-1.8,0.4-3.5,0.8-5.3,1l2.6,8.1
		c2.4-0.4,4.9-0.9,7.3-1.6c2.5-0.8,4.8-2.1,6.8-3.8c1.8-1.6,3.2-3.6,4.1-5.8C1628.7,1323.4,1629.2,1320.9,1629.2,1318.3">
  </path>
 </g>
</svg>