<svg version="1.1" id="Layer_1" xmlns:x="ns_extend;" xmlns:i="ns_ai;" xmlns:graph="ns_graphs;" xmlns="http://www.w3.org/2000/svg" xmlns:xlink="http://www.w3.org/1999/xlink" x="0px" y="0px" viewBox="0 0 234.2 50" style="enable-background:new 0 0 234.2 50;" xml:space="preserve">
 <style type="text/css">
  .st0{fill:#010E22;}
	.st1{fill:#183D85;}
	.st2{fill:#1E8CFA;}
 </style>
 <metadata>
  <sfw xmlns="ns_sfw;">
   <slices>
   </slices>
   <sliceSourceBounds bottomLeftOrigin="true" height="50" width="234.2" x="-90.1" y="-219.3">
   </sliceSourceBounds>
  </sfw>
 </metadata>
 <g>
  <path class="st0" d="M147.1,24.4h-6.9v4.3h4.9c0.1,0,0.3,0,0.4,0.1c0.1,0,0.2,0.1,0.3,0.2c0.1,0.1,0.2,0.2,0.2,0.3
		c0,0.1,0.1,0.3,0.1,0.4c0,2.4-3.1,4.4-6.2,4.4c-4.2,0-7.5-3.3-7.5-8.5s3.3-8.3,7.7-8.3c2.8,0,4.8,1.3,5.6,3.3h5.6
		c-0.9-4.8-5.2-8-11.1-8c-6.7,0-12.9,4.3-12.9,12.9c0,8.6,6,12.9,12.5,12.9c1.5,0,3-0.3,4.4-0.9c0.8-0.4,1.6-0.9,2.4-1.4v2h4.8v-9.7
		c0-0.5-0.1-1.1-0.3-1.6c-0.2-0.5-0.5-1-0.9-1.3c-0.4-0.4-0.8-0.7-1.3-0.9C148.2,24.5,147.7,24.4,147.1,24.4z">
  </path>
  <path class="st0" d="M75.1,38.3V13h10.5c5.4,0,8.6,3.3,8.6,8c0,4.7-3.2,8-8.6,8h-5v9.3H75.1z M80.6,24.4h4.6c2.5,0,3.6-1.6,3.6-3.5
		c0-1.8-1.1-3.5-3.6-3.5h-4.6V24.4z">
  </path>
  <path class="st0" d="M116.5,38.3l-2-5.5h-9.2l-2,5.5h-5.7l9.6-25.3h5.2l9.6,25.3H116.5z M107,28.2h5.9l-3-8.2L107,28.2z">
  </path>
  <path class="st0" d="M177.1,38.3l-2-5.5h-9.2l-2,5.5h-5.7l9.6-25.3h5.2l9.6,25.3H177.1z M167.5,28.2h5.9l-2.9-8.2L167.5,28.2z">
  </path>
  <path class="st0" d="M193.5,38.3V27.8L184.8,13h5.8l5.5,9.8l5.5-9.8h5.8l-8.7,14.8v10.5H193.5z">
  </path>
  <path class="st0" d="M228.5,38.3l-2-5.5h-9.2l-2,5.5h-5.7l9.6-25.3h5.2l9.6,25.3H228.5z M219,28.2h5.9L222,20L219,28.2z">
  </path>
  <path class="st1" d="M44.5,16.9v5.2L10.8,2.8l3.8-2.2C15.3,0.2,16.1,0,16.9,0c0.8,0,1.6,0.2,2.3,0.6L43,14.4
		c0.5,0.3,0.8,0.6,1.1,1.1S44.5,16.4,44.5,16.9z">
  </path>
  <path class="st2" d="M44.5,17.1c0,0.5-0.1,1-0.4,1.5c-0.3,0.5-0.6,0.8-1.1,1.1L15.2,35.8v6.9l27.8-16c0.5-0.3,0.8-0.6,1.1-1.1
		c0.3-0.5,0.4-1,0.4-1.5V17.1z">
  </path>
  <path class="st1" d="M15.4,49.6L10.8,47l33.7-19.4v4.3c0,0.8-0.2,1.6-0.6,2.3c-0.4,0.7-1,1.3-1.7,1.6L18.4,49.6
		c-0.5,0.3-1,0.4-1.5,0.4C16.3,50,15.8,49.9,15.4,49.6z">
  </path>
  <path class="st2" d="M15.2,49.5c-0.5-0.3-0.8-0.6-1.1-1.1c-0.3-0.5-0.4-1-0.4-1.5l-0.1-32l-6-3.4v31.9c0,0.5,0.1,1,0.4,1.5
		c0.3,0.5,0.6,0.8,1.1,1.1L15.2,49.5z">
  </path>
  <path class="st1" d="M1.5,8.1L6,5.5v38.8l-3.8-2.2c-0.7-0.4-1.3-1-1.7-1.6C0.2,39.8,0,39,0,38.2V10.7c0-0.5,0.1-1,0.4-1.5
		C0.7,8.8,1,8.4,1.5,8.1z">
  </path>
  <path class="st2" d="M1.6,8.1c0.5-0.3,1-0.4,1.5-0.4s1,0.1,1.5,0.4L32.5,24l6-3.5l-27.7-16c-0.5-0.3-1-0.4-1.5-0.4
		c-0.5,0-1,0.1-1.5,0.4L1.6,8.1z">
  </path>
  <path class="st1" d="M44.5,16.9v5.2L10.8,2.8l3.8-2.2C15.3,0.2,16.1,0,16.9,0c0.8,0,1.6,0.2,2.3,0.6L43,14.4
		c0.5,0.3,0.8,0.6,1.1,1.1S44.5,16.4,44.5,16.9z">
  </path>
  <path class="st2" d="M44.6,17.1c0,0.5-0.1,1-0.4,1.5c-0.3,0.5-0.6,0.8-1.1,1.1L15.2,35.8v6.9l27.8-16c0.5-0.3,0.8-0.6,1.1-1.1
		c0.3-0.5,0.4-1,0.4-1.5V17.1z">
  </path>
  <path class="st1" d="M15.4,49.6L10.8,47l33.7-19.4v4.3c0,0.8-0.2,1.6-0.6,2.3c-0.4,0.7-1,1.3-1.7,1.6L18.4,49.6
		c-0.5,0.3-1,0.4-1.5,0.4C16.3,50,15.8,49.9,15.4,49.6z">
  </path>
  <path class="st2" d="M15.2,49.5c-0.5-0.3-0.8-0.6-1.1-1.1c-0.3-0.5-0.4-1-0.4-1.5l-0.1-32l-6-3.4v31.9c0,0.5,0.1,1,0.4,1.5
		c0.3,0.5,0.6,0.8,1.1,1.1L15.2,49.5z">
  </path>
  <path class="st1" d="M1.5,8.1L6,5.5v38.8l-3.8-2.2c-0.7-0.4-1.3-1-1.7-1.6C0.2,39.8,0,39,0,38.2V10.7c0-0.5,0.1-1,0.4-1.5
		C0.7,8.8,1,8.4,1.5,8.1z">
  </path>
  <path class="st2" d="M1.6,8.1c0.5-0.3,1-0.4,1.5-0.4s1,0.1,1.5,0.4L32.5,24l6-3.5l-27.7-16c-0.5-0.3-1-0.4-1.5-0.4
		c-0.5,0-1,0.1-1.5,0.4L1.6,8.1z">
  </path>
 </g>
</svg>