<svg version="1.1" id="Layer_1" xmlns:x="ns_extend;" xmlns:i="ns_ai;" xmlns:graph="ns_graphs;" xmlns="http://www.w3.org/2000/svg" xmlns:xlink="http://www.w3.org/1999/xlink" x="0px" y="0px" viewBox="0 0 120.2 45" style="enable-background:new 0 0 120.2 45;" xml:space="preserve">
 <style type="text/css">
  .st0{fill:#005670;}
 </style>
 <metadata>
  <sfw xmlns="ns_sfw;">
   <slices>
   </slices>
   <sliceSourceBounds bottomLeftOrigin="true" height="45" width="120.2" x="133.9" y="-220">
   </sliceSourceBounds>
  </sfw>
 </metadata>
 <g>
  <path class="st0" d="M12.3,6C8.6,6,6.8,7.2,6.8,9.6c0,1.1,0.4,1.9,1.3,2.4c0.9,0.6,3,1.4,6.3,2.4c3.3,1.1,5.6,2.3,7,3.6
		c1.3,1.3,2,3.4,2,6.2c0,3.6-1.1,6.3-3.2,8.1c-2.2,1.8-5,2.7-8.5,2.7c-2.6,0-5.8-0.4-9.5-1.2l-1.8-0.3l0.7-5.3
		c4.5,0.6,7.9,0.9,10.2,0.9c3.5,0,5.3-1.5,5.3-4.4c0-1.1-0.4-1.9-1.2-2.5c-0.8-0.6-2.4-1.2-4.9-1.9c-3.9-1.1-6.6-2.4-8.2-3.9
		C0.8,14.9,0,12.8,0,10.1c0-3.4,1-5.9,3.1-7.6C5.2,0.8,8,0,11.6,0C14,0,17.2,0.3,21,1l1.8,0.3l-0.5,5.4C17.5,6.3,14.2,6,12.3,6">
  </path>
  <path class="st0" d="M25.9,45V9.6h6.6v1.3C34.7,9.6,36.6,9,38.2,9c3.4,0,5.8,1,7.4,3c1.6,2,2.4,5.4,2.4,10.3
		c0,4.8-0.9,8.2-2.6,10.1c-1.8,1.9-4.7,2.8-8.7,2.8c-1.1,0-2.3-0.1-3.5-0.3l-0.6-0.1V45H25.9z M36.9,15c-1.2,0-2.5,0.2-3.7,0.7
		L32.6,16V29c1.5,0.2,2.7,0.3,3.6,0.3c1.9,0,3.3-0.6,4-1.7c0.7-1.1,1.1-3.1,1.1-5.8C41.3,17.3,39.8,15,36.9,15">
  </path>
  <path class="st0" d="M50.5,34.5V9.6h6.6v2.6c2.8-1.7,5.5-2.7,8-3.2v6.7c-2.7,0.6-5,1.1-6.9,1.7l-1,0.3v16.7H50.5z">
  </path>
  <path class="st0" d="M67.9,12.4c1.8-2.3,4.7-3.4,8.8-3.4c4.1,0,7.1,1.1,8.8,3.4c1.8,2.3,2.6,5.5,2.6,9.6c0,8.7-3.8,13.1-11.5,13.1
		c-7.7,0-11.5-4.4-11.5-13.1C65.3,17.9,66.2,14.7,67.9,12.4 M73.1,27.6c0.7,1.2,1.9,1.8,3.7,1.8c1.8,0,3-0.6,3.7-1.8
		c0.7-1.2,1-3.1,1-5.6c0-2.6-0.3-4.4-1-5.6c-0.7-1.2-1.9-1.7-3.7-1.7c-1.8,0-3,0.6-3.7,1.7c-0.7,1.2-1,3-1,5.6
		C72.1,24.6,72.4,26.4,73.1,27.6">
  </path>
  <path class="st0" d="M104.5,15.3h-6.1v10.2c0,1,0,1.7,0.1,2.1c0.1,0.4,0.2,0.8,0.5,1.1c0.3,0.3,0.8,0.4,1.5,0.4l3.8-0.1l0.3,5.3
		c-2.2,0.5-3.9,0.7-5.1,0.7c-3,0-5-0.7-6.1-2c-1.1-1.3-1.6-3.8-1.6-7.5V15.3h-2.9V9.6h2.9V2.6h6.7v6.9h6.1V15.3z">
  </path>
  <path class="st0" d="M120.1,15.3H114v10.2c0,1,0,1.7,0.1,2.1c0.1,0.4,0.2,0.8,0.5,1.1c0.3,0.3,0.8,0.4,1.5,0.4l3.8-0.1l0.3,5.3
		c-2.2,0.5-3.9,0.7-5.1,0.7c-3,0-5-0.7-6.1-2c-1.1-1.3-1.6-3.8-1.6-7.5V15.3h-2.9V9.6h2.9V2.6h6.7v6.9h6.1V15.3z">
  </path>
 </g>
</svg>