<svg version="1.1" id="Layer_1" xmlns:x="ns_extend;" xmlns:i="ns_ai;" xmlns:graph="ns_graphs;" xmlns="http://www.w3.org/2000/svg" xmlns:xlink="http://www.w3.org/1999/xlink" x="0px" y="0px" viewBox="0 0 153 55" style="enable-background:new 0 0 153 55;" xml:space="preserve">
 <style type="text/css">
  .st0{fill:#A23795;}
 </style>
 <metadata>
  <sfw xmlns="ns_sfw;">
   <slices>
   </slices>
   <sliceSourceBounds bottomLeftOrigin="true" height="55" width="153" x="556.5" y="0">
   </sliceSourceBounds>
  </sfw>
 </metadata>
 <g>
  <path class="st0" d="M47.7,45.2h3.6c0.4,0,0.8,0,1.2,0.2s0.7,0.3,1.1,0.6c0.2,0.2,0.4,0.5,0.5,0.8c0.1,0.3,0.2,0.6,0.2,1
		c0,0.6-0.1,1.1-0.5,1.5c-0.3,0.4-0.7,0.7-1.2,0.9l1.9,2.8h-2l-1.7-2.5h-1.3V53h-1.7V45.2z M51.2,49c0.4,0,0.7-0.1,1-0.3
		c0.1-0.1,0.2-0.2,0.3-0.4c0.1-0.1,0.1-0.3,0.1-0.4c0-0.2,0-0.3-0.1-0.5c-0.1-0.1-0.2-0.3-0.3-0.4c-0.3-0.2-0.6-0.3-1-0.3h-1.7V49
		L51.2,49z">
  </path>
  <path class="st0" d="M56.9,45.2h5.9v1.5h-4.2v1.6h3.7v1.5h-3.7v1.6h4.2V53h-5.9V45.2z">
  </path>
  <path class="st0" d="M67.4,46.8H65v-1.6h6.5v1.6h-2.4V53h-1.7L67.4,46.8z">
  </path>
  <path class="st0" d="M75.4,45.1h1.6l3.3,7.8h-1.8l-0.7-1.8h-3.3L73.8,53H72L75.4,45.1z M77.2,49.7l-1-2.5l-1,2.5H77.2z">
  </path>
  <path class="st0" d="M84,45.2h-1.7V53H84V45.2z">
  </path>
  <path class="st0" d="M87,45.2h1.7v6.3h3.9V53H87L87,45.2z">
  </path>
  <path class="st0" d="M52.8,34.4C52.8,34.4,52.9,34.4,52.8,34.4c0,0.1,0,0.2,0.1,0.2c0,0,0.1,0,0.1,0.1c0,0,0.1,0,0.1,0h4
		c0.1,0,0.1,0,0.2-0.1c0,0,0.1-0.1,0.1-0.2V8.1c0-0.1,0-0.1-0.1-0.2c0,0-0.1-0.1-0.2-0.1h-4c0,0-0.1,0-0.1,0c0,0-0.1,0-0.1,0.1
		c0,0,0,0.1-0.1,0.1c0,0,0,0.1,0,0.1v15c0,1.1-0.2,2.2-0.6,3.2c-0.4,0.9-0.9,1.8-1.6,2.5c-0.7,0.7-1.5,1.2-2.3,1.6
		c-0.9,0.4-2,0.6-3,0.6c-2.2,0-3.9-0.7-5.1-2c-1.2-1.3-1.8-3.2-1.8-5.5V8.1c0-0.1,0-0.1-0.1-0.2s-0.1-0.1-0.2-0.1h-4.1
		c0,0-0.1,0-0.1,0c0,0-0.1,0-0.1,0.1C34,7.9,34,8,34,8c0,0,0,0.1,0,0.1v16.3c0,1.5,0.2,2.9,0.7,4.3c0.4,1.3,1.1,2.4,2,3.4
		c0.9,1,2,1.7,3.2,2.2c1.4,0.5,2.8,0.8,4.3,0.8c2,0.1,4-0.5,5.7-1.5c1.1-0.8,2.1-1.7,2.9-2.8L52.8,34.4z">
  </path>
  <path class="st0" d="M152.1,30.1c0-0.1,0.1-0.1,0.1-0.2c0-0.1,0-0.1-0.1-0.2l-2.5-2.2c0-0.1-0.1-0.1-0.2-0.1c-0.1,0-0.1,0-0.2,0.1
		l-0.1,0.1c-1,1.1-2.2,1.9-3.5,2.6c-1.4,0.7-2.9,1-4.5,1c-1.1,0-2.1-0.2-3.2-0.6c-2.1-0.8-3.7-2.3-4.7-4.3c-0.4-0.9-0.8-1.9-0.9-2.9
		c0-0.1,0.1-0.2,0.3-0.2h20.1c0.1,0,0.1,0,0.1-0.1c0,0,0.1-0.1,0.1-0.1v-0.1c0-0.3,0.1-0.5,0.1-0.8v-0.6c0-1.9-0.3-3.7-0.8-5.5
		c-0.5-1.6-1.3-3.2-2.4-4.5c-1.1-1.3-2.4-2.3-3.9-3c-1.6-0.7-3.4-1.1-5.2-1.1c-1.8,0-3.6,0.4-5.2,1.1c-1.5,0.7-2.9,1.7-4.1,3
		c-1.2,1.3-2.1,2.8-2.7,4.4c-0.6,1.7-1,3.6-0.9,5.4c0,1.9,0.3,3.9,1.1,5.7c0.7,1.6,1.6,3.1,2.9,4.4c1.2,1.2,2.6,2.2,4.2,2.8
		c1.6,0.7,3.4,1,5.2,1c2.2,0.1,4.4-0.4,6.4-1.4C149.2,32.9,150.8,31.7,152.1,30.1L152.1,30.1L152.1,30.1z M133.3,16.3
		c0.4-1,1-1.9,1.8-2.7c0.7-0.7,1.5-1.3,2.5-1.8c0.9-0.4,2-0.6,3-0.6c1.1,0,2.2,0.2,3.3,0.7c0.9,0.4,1.7,1,2.4,1.8
		c0.7,0.8,1.2,1.7,1.6,2.7c0.3,0.8,0.5,1.7,0.7,2.6c0,0.1,0,0.1-0.1,0.2c0,0-0.1,0.1-0.2,0.1h-15.4c-0.1,0-0.3-0.1-0.2-0.2
		C132.6,18.1,132.9,17.2,133.3,16.3">
  </path>
  <path class="st0" d="M79.6,12V7.7c0-0.1,0-0.1-0.1-0.2c0,0-0.1-0.1-0.2-0.1h-0.1c-1.2,0-2.4,0.1-3.6,0.5c-1.1,0.3-2.1,0.9-3.1,1.5
		c-0.9,0.7-1.8,1.5-2.5,2.4c-0.4,0.6-0.8,1.1-1.2,1.8V8.1c0-0.1,0-0.1-0.1-0.2c0,0-0.1-0.1-0.2-0.1h-4c-0.1,0-0.1,0-0.2,0.1
		c0,0-0.1,0.1-0.1,0.2v26.2c0,0.1,0,0.1,0.1,0.2c0,0,0.1,0.1,0.2,0.1h4c0.1,0,0.1,0,0.2-0.1c0,0,0.1-0.1,0.1-0.2V23.9
		c0-1.7,0.2-3.4,0.8-5.1c0.5-1.3,1.2-2.6,2.1-3.6c0.9-1,2-1.7,3.2-2.2c1.2-0.5,2.5-0.7,3.9-0.7h0.4c0.1,0,0.1,0,0.2-0.1
		C79.5,12.1,79.5,12.1,79.6,12">
  </path>
  <path class="st0" d="M101.3,34.4c0,0.1,0,0.1,0.1,0.2c0,0,0.1,0.1,0.2,0.1h4c0.1,0,0.1,0,0.2-0.1c0,0,0.1-0.1,0.1-0.2v-16
		c0-3.4-0.9-6-2.8-7.9c-2-2-4.9-2.9-8.6-2.9c-1.7,0-3.5,0.2-5.2,0.6c-1.5,0.4-2.9,1-4.3,1.6l-0.2,0.1c0,0-0.1,0.1-0.1,0.1
		c0,0.1,0,0.1,0,0.2l2.3,2.9c0,0,0.1,0.1,0.1,0.1c0,0,0.1,0,0.1,0l0.1,0c0.8-0.3,1.7-0.6,2.6-0.9c1.3-0.3,2.7-0.5,4.1-0.5
		c2.3,0,4.2,0.6,5.5,1.7c1.3,1.1,1.9,2.8,1.9,5v0.4c-1.1-0.3-2.1-0.5-3.2-0.7c-1.5-0.2-2.9-0.3-4.4-0.3c-1.5,0-3.1,0.2-4.6,0.6
		c-1.3,0.3-2.5,0.9-3.6,1.7c-1,0.7-1.8,1.7-2.4,2.8c-0.6,1.2-0.9,2.5-0.8,3.9v0.1c0,1.3,0.3,2.6,0.9,3.7c0.6,1,1.3,1.9,2.3,2.6
		c1,0.7,2.1,1.3,3.2,1.6c1.2,0.3,2.4,0.5,3.7,0.5c2,0.1,4.1-0.4,5.9-1.4c1.2-0.7,2.2-1.5,3.1-2.5L101.3,34.4z M100.7,27.4
		c-0.4,0.8-1,1.5-1.8,2.1c-0.8,0.6-1.7,1.1-2.6,1.4c-1.1,0.3-2.2,0.5-3.3,0.5c-0.8,0-1.6-0.1-2.4-0.3c-0.7-0.2-1.4-0.5-2-0.9
		c-0.6-0.4-1-0.9-1.3-1.5c-0.3-0.6-0.5-1.3-0.5-2v-0.1c0-0.7,0.1-1.4,0.5-2s0.8-1.1,1.4-1.5c1.3-0.9,3.1-1.4,5.4-1.4
		c1.4,0,2.8,0.1,4.2,0.3c1.1,0.2,2.1,0.4,3,0.7v2.2C101.4,25.6,101.2,26.5,100.7,27.4">
  </path>
  <path class="st0" d="M126.1,33.5l-2-2.6c-0.1-0.1-0.1-0.1-0.2-0.2c-0.1,0-0.2,0-0.3,0c-0.5,0.1-1,0.1-1.5,0.1c-1.1,0-2.1-0.3-3-0.9
		c-0.7-0.6-1.1-1.6-1.1-3.1V12h6.9c0.1,0,0.1,0,0.2-0.1c0,0,0.1-0.1,0.1-0.2V8.1c0-0.1,0-0.1-0.1-0.2c0,0-0.1-0.1-0.1-0.1h-6.9V0.3
		c0,0,0-0.1,0-0.1c0,0,0-0.1-0.1-0.1c0,0-0.1,0-0.1-0.1c0,0-0.1,0-0.1,0h-4c-0.1,0-0.1,0-0.2,0.1c0,0-0.1,0.1-0.1,0.2v7.6h-4.1
		c0,0-0.1,0-0.1,0c0,0-0.1,0-0.1,0.1c0,0,0,0.1-0.1,0.1c0,0,0,0.1,0,0.1v3.6c0,0,0,0.1,0,0.1c0,0,0,0.1,0.1,0.1c0,0,0,0,0.1,0.1
		c0,0,0.1,0,0.1,0h4.1v15.4c0,1.2,0.2,2.4,0.6,3.5c0.3,0.9,0.9,1.8,1.6,2.4c0.7,0.6,1.6,1.1,2.5,1.4c1,0.3,2,0.4,3,0.4
		c0.9,0,1.8-0.1,2.6-0.3c0.8-0.2,1.5-0.5,2.2-0.9l0.1-0.1C126.2,33.8,126.2,33.6,126.1,33.5">
  </path>
  <path class="st0" d="M39,52.8v-4c0-0.1,0-0.1-0.1-0.2c0-0.1-0.1-0.1-0.2-0.1c-7.8-0.1-11.8-5.6-11.8-16.2v-2.4V8.1
		c0-0.1,0-0.1-0.1-0.2c0,0-0.1-0.1-0.2-0.1h-4c0,0-0.1,0-0.1,0c0,0-0.1,0-0.1,0.1c0,0,0,0-0.1,0.1c0,0,0,0.1,0,0.1v4.1
		c-0.4-0.5-0.8-0.9-1.2-1.3C20.5,10.2,19.8,9.5,19,9c-0.9-0.5-1.8-1-2.8-1.2c-1.1-0.3-2.3-0.5-3.4-0.5c-1.6,0-3.2,0.3-4.7,1
		C6.5,8.9,5.1,9.9,3.9,11c-1.2,1.2-2.2,2.7-2.9,4.4C0.3,17.2,0,19.2,0,21.2v0.1c0,2,0.3,4,1.1,5.9c0.7,1.6,1.6,3.1,2.9,4.3
		c2.3,2.3,5.5,3.6,8.8,3.7c1.1,0,2.3-0.1,3.4-0.5c1-0.3,1.9-0.7,2.8-1.3c0.8-0.6,1.6-1.2,2.2-1.9c0.4-0.5,0.8-0.9,1.2-1.4v2.1
		c0,7.9,2,13.6,6,17.1c2.7,2.4,6.3,3.6,10.4,3.7c0.1,0,0.1,0,0.2-0.1C39,52.9,39,52.8,39,52.8L39,52.8z M22.6,21.3
		c0,1.4-0.2,2.7-0.8,4c-0.5,1.1-1.2,2.2-2,3.1c-0.8,0.8-1.8,1.5-2.9,2c-1.1,0.5-2.2,0.7-3.4,0.7s-2.3-0.2-3.4-0.7
		c-1.1-0.5-2-1.1-2.8-1.9c-0.8-0.9-1.5-1.9-1.9-3c-0.5-1.3-0.7-2.7-0.7-4.1v-0.1c0-1.4,0.2-2.8,0.7-4.1c0.4-1.1,1.1-2.2,1.9-3
		C8,13.2,9,12.5,10,12.1c1.1-0.4,2.2-0.7,3.4-0.7c1.2,0,2.3,0.2,3.4,0.7c1.1,0.5,2.1,1.1,2.9,2c0.9,0.9,1.6,1.9,2,3
		c0.5,1.3,0.8,2.6,0.8,4L22.6,21.3z">
  </path>
  <path class="st0" d="M95.3,53.1h-0.7v-1.8h1.9v1.6c0,1.5-0.8,2.1-2.1,2.2l-0.2-0.7C95,54.2,95.4,53.8,95.3,53.1L95.3,53.1z">
  </path>
  <path class="st0" d="M101.7,53.1V45h1.8v8.1H101.7z">
  </path>
  <path class="st0" d="M111.1,53.1l-3.9-5.1v5.1h-1.8V45h1.6l3.8,5v-5h1.8v8.1H111.1z">
  </path>
  <path class="st0" d="M118.3,53.3c-0.5,0-1.1-0.1-1.6-0.3c-0.5-0.2-1-0.5-1.3-0.9c-0.4-0.4-0.7-0.8-0.9-1.4c-0.2-0.5-0.3-1-0.3-1.6
		c0-0.6,0.1-1.1,0.3-1.6c0.2-0.5,0.5-1,0.9-1.4c0.4-0.4,0.9-0.7,1.4-0.9c0.5-0.2,1.1-0.3,1.6-0.3c0.6,0,1.2,0.1,1.7,0.3
		c0.5,0.2,1,0.5,1.5,1l-1.1,1.3c-0.3-0.3-0.6-0.5-0.9-0.7c-0.4-0.2-0.7-0.2-1.1-0.2c-0.3,0-0.6,0.1-0.9,0.2
		c-0.3,0.1-0.6,0.3-0.8,0.6c-0.2,0.2-0.4,0.5-0.5,0.8c-0.1,0.3-0.2,0.6-0.1,0.9c0,0.3,0,0.6,0.1,1c0.1,0.3,0.3,0.6,0.5,0.8
		c0.2,0.2,0.5,0.4,0.8,0.6c0.3,0.1,0.6,0.2,0.9,0.2c0.4,0,0.8-0.1,1.2-0.3c0.4-0.2,0.7-0.4,1-0.7l1.1,1.1c-0.4,0.5-0.9,0.9-1.5,1.1
		C119.6,53.2,118.9,53.3,118.3,53.3L118.3,53.3z">
  </path>
  <path class="st0" d="M122.8,53.1v-1.8h1.9v1.8H122.8z">
  </path>
 </g>
</svg>