<svg version="1.1" id="Layer_1" xmlns:x="ns_extend;" xmlns:i="ns_ai;" xmlns:graph="ns_graphs;" xmlns="http://www.w3.org/2000/svg" xmlns:xlink="http://www.w3.org/1999/xlink" x="0px" y="0px" viewBox="0 0 164 54" style="enable-background:new 0 0 164 54;" xml:space="preserve">
 <metadata>
  <sfw xmlns="ns_sfw;">
   <slices>
   </slices>
   <sliceSourceBounds bottomLeftOrigin="true" height="54" width="164" x="-101.6" y="-234">
   </sliceSourceBounds>
  </sfw>
 </metadata>
 <g>
  <path id="icon" d="M56.2,11.3l-27-10.4L27,0v2.4v18.8L0,11.3L28.1,54L56.2,11.3z M53,12.4l-23.8,8.8v-18L53,12.4z M27,23.6v24.6
		L5.6,15.7L27,23.6z M29.2,48.2V23.6l21.4-7.9L29.2,48.2z">
  </path>
  <g id="vicarious">
   <path id="v" d="M65.8,22.9l-3.5,9.2l-3.7-9.2H56l6.2,14.6l6.2-14.6H65.8z">
   </path>
   <path id="i_00000078748693965054561870000011560353370877679018_" d="M73.4,22.9h-2.2v13.9h2.2C73.4,36.8,73.4,22.9,73.4,22.9z">
   </path>
   <path id="a" d="M93.5,36.8l3.5-9.2l3.7,9.2h2.7l-6.2-14.6l-6.2,14.6H93.5z">
   </path>
   <path id="r" d="M114.2,29.8c0.4-0.7,0.6-1.5,0.6-2.4c0-1.4-0.5-2.5-1.4-3.3c-0.9-0.8-2.2-1.2-3.8-1.2h-3.9v14h2.2V32v-2.1V25h2.1
			c0.6,0,1.1,0.1,1.4,0.4c0.4,0.3,0.6,0.6,0.8,0.9s0.2,0.7,0.2,1.1c0,0.6-0.2,1.2-0.6,1.7s-1.1,0.7-1.9,0.7h-1l2.1,3.5l2.3,3.5h2.6
			l-3.4-5.4C113.3,31.1,113.8,30.5,114.2,29.8z">
   </path>
   <path id="o" d="M126.5,29.9c0-0.9,0.2-1.7,0.6-2.5s1-1.4,1.7-1.8c0.7-0.5,1.6-0.7,2.4-0.7c0.9,0,1.7,0.2,2.4,0.7
			c0.7,0.5,1.3,1,1.8,1.8s0.6,1.6,0.6,2.5s-0.2,1.7-0.6,2.5c-0.4,0.8-1,1.4-1.7,1.8c-0.7,0.4-1.5,0.7-2.4,0.7
			c-0.9,0-1.7-0.2-2.5-0.7c-0.8-0.5-1.3-1-1.8-1.8C126.7,31.6,126.5,30.8,126.5,29.9z M124.2,29.9c0,1.3,0.3,2.5,1,3.6
			c0.6,1.1,1.5,1.9,2.6,2.6c1.1,0.6,2.3,1,3.6,1c1.3,0,2.5-0.3,3.6-1c1.1-0.6,2-1.5,2.6-2.6s1-2.3,1-3.6c0-1.3-0.3-2.5-1-3.5
			c-0.6-1.1-1.5-2-2.6-2.6c-1.1-0.6-2.3-1-3.6-1c-1.3,0-2.5,0.3-3.6,1c-1.1,0.6-2,1.5-2.6,2.6C124.5,27.4,124.2,28.6,124.2,29.9z">
   </path>
   <path id="i" d="M121.3,22.9h-2.2v14h2.2V22.9z">
   </path>
   <path id="u" d="M143.6,31.8v-8.9h-2.2v9c0,1,0.2,1.9,0.7,2.6s1.1,1.4,1.9,1.8s1.7,0.7,2.7,0.7c1,0,1.9-0.2,2.7-0.7s1.5-1,2-1.8
			c0.5-0.8,0.7-1.7,0.7-2.6v-9H150v8.9c0,0.5-0.1,1.1-0.4,1.5s-0.7,0.8-1.2,1.1s-1,0.4-1.6,0.4c-0.6,0-1.1-0.1-1.6-0.4
			c-0.5-0.3-0.9-0.6-1.1-1.1C143.7,32.9,143.6,32.4,143.6,31.8z">
   </path>
   <path id="s" d="M163.1,25.7l0.8-1.7c-0.6-0.4-1.2-0.7-1.9-0.9c-0.7-0.2-1.5-0.3-2.4-0.3c-1.3,0-2.3,0.4-3.1,1.1
			c-0.8,0.7-1.2,1.6-1.2,2.8c0,0.8,0.2,1.4,0.6,1.9c0.4,0.5,0.8,0.9,1.4,1.2c0.5,0.3,1.2,0.6,2,0.9c0.8,0.3,1.4,0.6,1.8,1
			s0.6,0.8,0.6,1.3c0,0.7-0.3,1.2-0.8,1.5c-0.5,0.3-1.1,0.5-1.8,0.5c-0.6,0-1.1-0.1-1.8-0.4c-0.6-0.2-1.2-0.5-1.7-0.9l-1,1.7
			c0.6,0.5,1.4,0.8,2.2,1.1c0.8,0.3,1.6,0.4,2.5,0.4c1,0,1.8-0.2,2.5-0.5c0.7-0.4,1.2-0.8,1.6-1.4s0.6-1.3,0.6-2
			c0-0.8-0.2-1.5-0.5-2c-0.3-0.5-0.7-1-1.2-1.3c-0.5-0.3-1.1-0.6-1.8-0.8c-0.9-0.3-1.6-0.7-2.1-1c-0.5-0.4-0.8-0.8-0.8-1.3
			c0-0.5,0.2-1,0.6-1.3c0.4-0.3,0.9-0.5,1.6-0.5C160.8,24.8,161.9,25.1,163.1,25.7z">
   </path>
   <path id="c" d="M88.1,31.8c-0.1,0.2-0.2,0.3-0.2,0.5c-0.4,0.8-1,1.4-1.7,1.8c-0.7,0.4-1.5,0.7-2.4,0.7c-0.9,0-1.7-0.2-2.5-0.7
			s-1.3-1-1.8-1.8s-0.7-1.6-0.7-2.5s0.2-1.7,0.6-2.5s1-1.4,1.7-1.8c0.7-0.5,1.6-0.7,2.4-0.7c0.9,0,1.7,0.2,2.4,0.7s1.3,1,1.8,1.8
			c0.1,0.2,0.2,0.3,0.2,0.5l2-0.9c-0.1-0.2-0.2-0.4-0.3-0.6c-0.7-1.1-1.5-2-2.6-2.6c-1.1-0.6-2.3-1-3.6-1c-1.3,0-2.5,0.3-3.6,1
			s-2,1.5-2.6,2.6c-0.6,1.1-1,2.3-1,3.6c0,1.3,0.3,2.5,1,3.6c0.6,1.1,1.5,1.9,2.6,2.6c1.1,0.6,2.3,1,3.6,1c1.3,0,2.5-0.3,3.6-1
			c1.1-0.6,2-1.5,2.6-2.6c0.1-0.2,0.2-0.4,0.3-0.7L88.1,31.8z">
   </path>
  </g>
  <g id="surgical">
   <path id="s_00000032639684719376616770000015838211622913024919_" d="M114.1,47.2c0,0.7,0.1,1.4,0.7,1.8c0.2,0.2,0.7,0.5,1.5,0.5
			c0.7,0,2.2-0.2,2.2-2.2c0-1-0.3-1.5-1.1-2.3l-1.2-1.2c-0.7-0.7-0.9-1-0.9-1.6c0-0.3,0-1.1,1-1.1c0.8,0,0.9,0.6,0.9,0.7
			c0,0.2,0,0.3,0.1,1.1h1c0-1.3,0-1.7-0.3-2.1c-0.4-0.7-1.2-0.8-1.7-0.8c-2.1,0-2.1,1.6-2.1,2.1c0,0.8,0.2,1.4,1.1,2.3l1.2,1.3
			c0.5,0.5,0.8,0.9,0.8,1.6c0,1-0.8,1.1-1.2,1.1c-1,0-1.1-0.9-1.1-1.1c0-0.2,0-0.3,0-1.2h-1.1V47.2L114.1,47.2z">
   </path>
   <path id="u_00000085963281944278812380000001466038325026377624_" d="M124.2,40.2v6.1c0,0.7,0,0.8,0,1.1c0,0.4,0,1.1-1,1.1
			c-1.1,0-1.1-0.8-1.1-1.6v-6.7h-1.2v6.2c0,1.4,0,1.6,0.2,2c0.3,0.7,1,1,2,1c0.5,0,1.6-0.1,2-1.1c0.2-0.5,0.2-0.9,0.2-2v-6.2H124.2
			L124.2,40.2z">
   </path>
   <path id="r_00000074441738111375670200000008654265755702551960_" d="M132.2,44.3c0.1-0.3,0.2-0.9,0.2-1.6c0-2.3-1.2-2.5-2.4-2.5
			h-2v9.1h1.1v-8.1c1.2,0,1.4,0,1.7,0.2c0.4,0.3,0.4,0.8,0.4,1.4c0,0.5,0,1.2-0.4,1.5c-0.2,0.1-0.4,0.2-1.1,0.2l0.3,0.9l1.6,4h1.2
			l-1.6-4.1C131.5,45.1,132,45,132.2,44.3z">
   </path>
   <path id="g" d="M139.7,46.1v-1.5h-2.4v1h1.3v0.5c0,1.1,0,1.3-0.1,1.5c0,0.2-0.2,0.9-1,0.9c-0.9,0-1-0.7-1.1-0.9
			c-0.1-0.4-0.1-2.2-0.1-2.8c0-0.7,0-2.1,0.1-2.8c0-0.3,0.1-1.1,1.1-1.1c0.9,0,0.9,0.8,0.9,1.4v0.7h1.1c0-0.7,0-1.3-0.1-1.7
			c-0.2-1-1.2-1.3-1.9-1.3c-1.9,0-2.1,1.3-2.2,1.7c-0.1,0.4-0.1,0.7-0.1,3.1c0,2.3,0.1,2.7,0.1,2.9c0.1,0.8,0.7,1.7,2.1,1.7
			c1.6,0,1.9-0.9,2.1-1.5C139.6,47.7,139.7,47.3,139.7,46.1z">
   </path>
   <path id="i_00000128484987969927368260000018350422612790493579_" d="M143.6,40.2h-1.1v9.1h1.1V40.2z">
   </path>
   <path id="c_00000076590079742778497840000003546178541093182851_" d="M149.7,46.1c0,1.1,0,1.3-0.1,1.5c0,0.2-0.2,0.9-1,0.9
			c-0.9,0-1-0.7-1.1-0.9c-0.1-0.4-0.1-2.2-0.1-2.8c0-0.7,0-2.1,0.1-2.8c0-0.3,0.1-1.1,1.1-1.1c0.9,0,0.9,0.8,0.9,1.4v0.7h1.1
			c0-0.7,0-1.3-0.1-1.7c-0.2-1-1.2-1.3-1.9-1.3c-1.9,0-2.1,1.3-2.2,1.7c-0.1,0.4-0.1,0.7-0.1,3.1c0,2.3,0.1,2.7,0.1,2.9
			c0.1,0.8,0.7,1.7,2.1,1.7c1.6,0,1.9-0.9,2.1-1.5c0.1-0.3,0.1-0.7,0.1-1.9L149.7,46.1L149.7,46.1z">
   </path>
   <path id="a_00000088811320943396560730000017956495836081545912_" d="M157.9,49.3l-2-9.1h-1.1l-2,9.1h1.2l1.4-7.5l1.4,7.5H157.9z">
   </path>
   <path id="l" d="M164,48.3h-2.7v-8.1h-1.1v9.1h3.8V48.3z">
   </path>
  </g>
  <path id="icon_1_" d="M56.2,11.3l-27-10.4L27,0v2.4v18.8L0,11.3L28.1,54L56.2,11.3z M53,12.4l-23.8,8.8v-18L53,12.4z M27,23.6v24.6
		L5.6,15.7L27,23.6z M29.2,48.2V23.6l21.4-7.9L29.2,48.2z">
  </path>
 </g>
</svg>