<svg version="1.1" id="Layer_1" xmlns:x="ns_extend;" xmlns:i="ns_ai;" xmlns:graph="ns_graphs;" xmlns="http://www.w3.org/2000/svg" xmlns:xlink="http://www.w3.org/1999/xlink" x="0px" y="0px" viewBox="0 0 276.7 64" style="enable-background:new 0 0 276.7 64;" xml:space="preserve">
 <style type="text/css">
  .st0{fill-rule:evenodd;clip-rule:evenodd;}
	.st1{fill-rule:evenodd;clip-rule:evenodd;fill:#D22730;}
	.st2{fill-rule:evenodd;clip-rule:evenodd;fill:#FFFFFF;}
 </style>
 <metadata>
  <sfw xmlns="ns_sfw;">
   <slices>
   </slices>
   <sliceSourceBounds bottomLeftOrigin="true" height="64" width="276.7" x="-69.2" y="-16">
   </sliceSourceBounds>
  </sfw>
 </metadata>
 <g>
  <path class="st0" d="M90,23.2V48h7V26.5c0-0.9,0.6-1.5,1.5-1.5h8.9v-6H94.4L90,23.2z M118.4,26.5c0-0.9,0.6-1.5,1.5-1.5h9.4
		c0.9,0,1.5,0.6,1.5,1.5v4h-12.4V26.5z M131.2,41.4c-0.5,0.5-0.8,0.6-1.2,0.6h-10.1c-0.9,0-1.5-0.6-1.5-1.5v-4.4h19.4V23.3l-4.3-4.4
		h-17.6l-4.4,4.3v20.5l4.4,4.3h17.7l5-5l-4.5-4.4L131.2,41.4z M151,25h9c0.5,0,0.8,0.1,1.2,0.6l2.4,2.4l4.6-4.4l-4.7-4.6h-16.5
		l-4.4,4.3v7.7c0,1.9,1.1,3.4,3.9,3.8l13.6,2.3c0.6,0.1,0.9,0.4,0.9,1v2.3c0,0.9-0.6,1.5-1.5,1.5h-8.9c-0.5,0-0.8-0.1-1.2-0.6
		l-2.8-2.6l-4.6,4.2l5,5h16.4l4.4-4.3v-8.3c0-1.9-1.1-3.4-3.9-3.8l-13.6-2.3c-0.6-0.1-0.9-0.4-0.9-1v-1.8
		C149.5,25.6,150.2,25,151,25L151,25z M174.9,14.8h7.2V8h-7.2V14.8z M171.2,18.9H182V48h-7V26.3c0-0.9-0.5-1.3-1.3-1.3h-2.5V18.9z
		 M206.6,40.5c0,0.9-0.6,1.5-1.5,1.5h-9.4c-0.9,0-1.5-0.6-1.5-1.5v-14c0-0.9,0.6-1.5,1.5-1.5h9.4c0.9,0,1.5,0.6,1.5,1.5V40.5z
		 M213.6,8h-7.2v10.9h-14.8l-4.4,4.3v20.5l4.4,4.3h17.6l4.4-4.4V8z M225.7,26.5c0-0.9,0.6-1.5,1.5-1.5h9.4c0.9,0,1.5,0.6,1.5,1.5v4
		h-12.4V26.5z M238.6,41.4c-0.5,0.5-0.8,0.6-1.2,0.6h-10.1c-0.9,0-1.5-0.6-1.5-1.5v-4.4h19.4V23.3l-4.4-4.4h-17.6l-4.4,4.3v20.5
		l4.4,4.3h17.7l5-5l-4.5-4.4L238.6,41.4z M269.7,40.5c0,0.9-0.6,1.5-1.5,1.5h-9.4c-0.9,0-1.5-0.6-1.5-1.5v-14c0-0.9,0.6-1.5,1.5-1.5
		h9.4c0.9,0,1.5,0.6,1.5,1.5V40.5z M272.3,18.9h-17.6l-4.4,4.3v20.5l4.4,4.3h17.6l4.4-4.4V23.3L272.3,18.9z">
  </path>
  <path class="st1" d="M0,0h64v64H0V0z">
  </path>
  <path class="st2" d="M16,32h16v16H16V32z M16,32V16h32v16H16z">
  </path>
 </g>
</svg>