<svg version="1.1" id="Layer_1" xmlns:x="ns_extend;" xmlns:i="ns_ai;" xmlns:graph="ns_graphs;" xmlns="http://www.w3.org/2000/svg" xmlns:xlink="http://www.w3.org/1999/xlink" x="0px" y="0px" viewBox="0 0 288.4 62.9" style="enable-background:new 0 0 288.4 62.9;" xml:space="preserve">
 <style type="text/css">
  .st0{fill:#333333;}
 </style>
 <metadata>
  <sfw xmlns="ns_sfw;">
   <slices>
   </slices>
   <sliceSourceBounds bottomLeftOrigin="true" height="62.9" width="288.4" x="56.3" y="-231.7">
   </sliceSourceBounds>
  </sfw>
 </metadata>
 <g>
  <path class="st0" d="M93.7,60c-0.6,0.9-1.6,0.9-2.5,0.9h-2.7v-6.2h2.8c0.8,0,1.8,0,2.5,1c0.3,0.4,0.5,1.1,0.5,2
		C94.3,58.9,94,59.6,93.7,60 M92.5,53.1c-0.4,0-0.7,0-1.1-0.1h-5.3v9.6h5c1.5,0,3.3,0,4.6-1.8c0.7-0.9,0.9-2,0.9-3.1
		C96.7,55.3,95.3,53.3,92.5,53.1">
  </path>
  <path class="st0" d="M71.1,59.1l1.5-3.2c0.1-0.1,0.1-0.2,0.1-0.4c0-0.1,0.1-0.2,0.1-0.3c0,0.1,0,0.3,0.1,0.4c0,0.1,0.1,0.3,0.2,0.4
		l1.4,3.1H71.1z M71.5,53l-4.6,9.6h2.6l0.8-1.8h4.9l0.8,1.8h2.7L74.1,53H71.5z">
  </path>
  <path class="st0" d="M110.5,61.2c-1.8,0-3.5-1.3-3.5-3.4c0-1.8,1.2-3.4,3.4-3.4c1.9,0,2.6,1.1,2.9,1.6l2.6-0.3
		c-1.3-2.8-4.4-3-5.5-3c-3,0-5.9,1.5-5.9,5.1c0,3.4,2.4,5.2,5.8,5.2c2.5,0,3.7-0.8,4.5-1.5c0.9-0.8,1.1-1.5,1.3-2.1l-2.5,0
		C113.2,59.9,112.6,61.2,110.5,61.2">
  </path>
  <path class="st0" d="M126.5,59.1l1.5-3.2c0.1-0.1,0.1-0.2,0.1-0.4c0-0.1,0.1-0.2,0.1-0.3c0,0.1,0,0.3,0.1,0.4
		c0,0.1,0.1,0.3,0.2,0.4l1.4,3.1H126.5z M126.9,53l-4.6,9.6h2.6l0.8-1.8h4.9l0.8,1.8h2.7l-4.6-9.6H126.9z">
  </path>
  <path class="st0" d="M54.2,61.2c-1.9,0-2.6-1-2.8-1.3c-0.2-0.2-0.6-0.8-0.6-2c0-2.3,1.7-3.4,3.3-3.4c1.9-0.1,3.5,1.3,3.5,3.4
		C57.7,59.7,56.5,61.2,54.2,61.2 M53.9,52.7c-3.2,0.1-5.5,1.8-5.5,5.1c0,3,2.1,5.1,5.9,5.1c3.9,0,5.9-2.2,5.9-5.2
		c0-1.6-0.6-2.7-1-3.1C57.9,53.1,55.8,52.6,53.9,52.7">
  </path>
  <path class="st0" d="M130.1,32.9c-2.3,1.5-4.9,2.3-7.6,2.3c-4.4,0-7.5-2.3-9.1-6.9c-0.9-2.4-1.3-5.6-1.3-9.3
		c0-5.1,0.7-9.2,2.2-12.3c1.5-3.1,4-4.6,7.5-4.6c3.1,0,5.9,1.4,8.4,4.3c1.3,1.5,2.6,3.7,3.9,6.3h1.3V0.4h-1.5
		c-0.1,0.6-0.4,1.1-0.8,1.6c-0.4,0.5-0.9,0.8-1.6,0.8c-0.3,0-1.5-0.4-3.8-1.2c-2.3-0.8-4.5-1.2-6.7-1.2c-5.1,0-9.4,1.7-12.9,5
		c-3.7,3.6-5.6,8.2-5.6,14c0,5.8,2,10.4,5.9,13.8c3.5,3.1,7.9,4.6,13.1,4.6c3.4,0,6.5-0.9,9.3-2.8c1.6-1,3.4-2.7,5.4-5l-1.6-1.3
		C133,30.6,131.5,32,130.1,32.9">
  </path>
  <path class="st0" d="M71.5,35.4c-2.2-0.1-3.6-0.7-4.3-1.8c-0.4-0.7-0.7-1.8-0.7-3.4V9.4h0.4l23.2,28.3h1.5V6.5
		c0-1.6,0.3-2.6,0.8-3.1C93,3,94.1,2.6,95.7,2.3V1H84.4v1.3c2,0.2,3.3,0.6,3.9,1.4c0.6,0.8,1,2,1,3.8v15.5H89L70.8,1H59.6v1.3
		c0.7,0.1,1.2,0.3,1.5,0.6c0.4,0.3,1.4,1.4,3,3.2v25c0,1.4-0.3,2.4-0.9,3.1c-0.6,0.7-1.8,1.1-3.8,1.1v1.3h12V35.4z">
  </path>
  <path class="st0" d="M52.1,35.4c-1.7,0-2.9-0.2-3.7-0.8c-0.8-0.5-1.2-1.5-1.2-3V6c0-1.6,0.5-2.6,1.5-3.2c0.6-0.3,1.8-0.5,3.4-0.6V1
		H33.7v1.3c1.6,0.1,2.7,0.3,3.3,0.6c1,0.5,1.5,1.6,1.5,3.1v25.6c0,1.6-0.5,2.6-1.6,3.2c-0.7,0.3-1.7,0.5-3.2,0.5v1.3h18.5V35.4z">
  </path>
  <path class="st0" d="M146,54.4c0.5,0,1.3,0.1,1.9,0.4c0.6,0.3,0.8,0.6,0.8,0.8L151,55c-0.2-0.3-0.6-1-1.6-1.6
		c-1-0.5-2.1-0.7-3.5-0.7c-1.5,0-3.3,0.3-4.1,1.6c-0.2,0.4-0.4,0.9-0.4,1.4c0,2.2,2.2,2.6,3.1,2.8c0.5,0.1,2.4,0.4,2.8,0.5
		c0.5,0.1,1.2,0.3,1.2,1c0,1.2-1.8,1.3-2.4,1.3c-1.3,0-2.7-0.4-3.2-1.5l-2.2,0.6c1.2,2.4,3.7,2.7,5.3,2.7c1.2,0,4.9-0.1,4.9-3.2
		c0-2.1-1.9-2.5-3-2.7c-0.5-0.1-2.4-0.4-2.8-0.5c-0.7-0.2-1.3-0.3-1.3-1C143.8,54.6,144.9,54.4,146,54.4">
  </path>
  <path class="st0" d="M244.4,35.4c-1.7,0-2.9-0.2-3.7-0.8c-0.8-0.5-1.2-1.5-1.2-3V6c0-1.6,0.5-2.6,1.5-3.2c0.6-0.3,1.8-0.5,3.4-0.6
		V1h-18.5v1.3c1.6,0.1,2.7,0.3,3.3,0.6c1,0.5,1.5,1.6,1.5,3.1v25.6c0,1.6-0.5,2.6-1.6,3.2c-0.7,0.3-1.7,0.5-3.2,0.5v1.3h18.5V35.4z">
  </path>
  <path class="st0" d="M36.8,57H33v-2.4h3.7c1,0,1.2,0.2,1.4,0.5c0.2,0.2,0.2,0.6,0.2,0.8C38.2,57,37.3,57,36.8,57 M39.8,58
		c0.7-0.5,0.9-1.4,0.9-2.1c0-0.6-0.1-1.3-0.6-1.9c-0.8-0.9-1.8-1-2.9-1h-6.6v9.6H33v-3.9h2.7l2.6,3.9h2.8l-2.9-4
		C38.6,58.5,39.2,58.4,39.8,58">
  </path>
  <path class="st0" d="M18,60.9h-3.6v-2.5h3.9c0.4,0,1.3,0,1.3,1.2C19.6,60.9,18.5,60.9,18,60.9 M14.4,54.7H18c0.4,0,1.2,0,1.2,1
		c0,0.1,0,0.7-0.6,1c-0.2,0.1-0.5,0.1-0.8,0.1h-3.4V54.7z M19.9,57.4c0.3-0.1,0.8-0.2,1.2-0.8c0.4-0.5,0.4-1,0.4-1.3
		c0-0.3,0-0.9-0.4-1.4c-0.7-0.9-1.9-1-2.9-1H12v9.6h6.6c0.9,0,2.2,0,2.9-1.1c0.3-0.5,0.4-1.1,0.4-1.6C22,57.9,20.5,57.6,19.9,57.4">
  </path>
  <path class="st0" d="M17.8,16.2l-3.9-2c-3.3-1.6-5.4-2.9-6.3-3.7c-1-0.8-1.4-2.1-1.4-3.7c0-1.4,0.5-2.6,1.5-3.6
		c1-1,2.4-1.5,4.1-1.5c2.5,0,4.6,1,6.3,2.9c1.7,1.9,3,4.2,3.6,6.9h1.5V0h-1.6c-0.1,0.5-0.3,1-0.5,1.3C21,1.7,20.6,1.8,20,1.8
		c-0.3,0-1.3-0.3-3.1-0.9c-1.8-0.6-3.6-0.9-5.5-0.9c-3.8,0-6.5,1.1-8.4,3.4c-1.8,2.2-2.7,4.6-2.7,7.2c0,2.4,0.7,4.5,2.1,6.1
		c1.4,1.7,3.7,3.3,7.1,5l3.4,1.7c2.1,1.1,3.5,1.9,4.2,2.6c1,1,1.6,2.3,1.6,3.9c0,1.4-0.5,2.7-1.5,3.9c-1,1.2-2.7,1.8-5,1.8
		c-2.4,0-4.6-0.9-6.4-2.7c-1.9-1.8-3.2-4.7-4.1-8.6H0v13.1h1.5c0.2-0.6,0.3-1,0.5-1.4c0.2-0.3,0.6-0.5,1.1-0.5c0.2,0,0.3,0,0.6,0.1
		c0.2,0,0.4,0.1,0.7,0.2l1,0.4c1.1,0.4,2.1,0.7,3.2,0.9c1.1,0.2,2.1,0.3,3.2,0.3c4.6,0,7.9-1.2,10-3.5c2.1-2.4,3.1-4.9,3.1-7.5
		c0-2.9-1-5.3-2.9-7.3C20.9,18,19.6,17,17.8,16.2">
  </path>
  <path class="st0" d="M230,61.2c-1.9,0-2.6-1-2.8-1.3c-0.2-0.2-0.6-0.8-0.6-2c0-2.3,1.7-3.4,3.3-3.4c1.9-0.1,3.5,1.3,3.5,3.4
		C233.5,59.7,232.3,61.2,230,61.2 M229.6,52.7c-3.2,0.1-5.5,1.8-5.5,5.1c0,3,2.1,5.1,5.9,5.1c3.9,0,5.9-2.2,5.9-5.2
		c0-1.6-0.6-2.7-1-3.1C233.7,53.1,231.5,52.6,229.6,52.7">
  </path>
  <path class="st0" d="M272.4,17c-1.5,0.9-4,1.4-7.4,1.5V5c0-0.8,0.2-1.4,0.7-1.7c0.4-0.4,1.4-0.5,2.8-0.5c2.6,0,4.4,1,5.4,3
		c0.6,1.2,0.9,2.8,0.9,4.9C274.6,14,273.9,16.1,272.4,17 M287.2,35.2c-0.3-0.1-0.6-0.4-0.9-0.8l-11.2-15c1.9-0.3,3.7-1.1,5.4-2.4
		c2.2-1.7,3.3-3.9,3.3-6.8c0-3.9-2.1-6.6-6.4-8.1c-2.2-0.7-5-1.1-8.6-1.1h-17v1.3c1.8,0.2,3,0.4,3.5,0.8c0.8,0.6,1.2,1.9,1.2,4v23.4
		c0,2-0.3,3.2-1,3.8c-0.7,0.6-1.9,0.9-3.7,1v1.3h17.9v-1.3c-1.9-0.1-3.1-0.4-3.7-1.1c-0.6-0.6-0.9-1.9-0.9-3.8V20.2h0l12.3,16.5h11
		v-1.3C287.9,35.4,287.5,35.3,287.2,35.2">
  </path>
  <polygon class="st0" points="157.8,54.8 161.3,54.8 161.3,62.6 163.7,62.6 163.7,54.8 167.3,54.8 167.3,53 157.8,53 	">
  </polygon>
  <path class="st0" d="M192.1,24.2l4.8-12.2h0.4l5.1,12.2H192.1z M215.8,34.1c-0.7-0.9-1.6-2.9-3-6L201,0.3h-1.5l-11.7,28.9
		c-0.9,2.3-1.6,3.8-2.1,4.4c-0.8,1.1-1.8,1.6-3.1,1.7v1.3h10.8v-1.3c-1.2,0-2.1-0.1-2.7-0.3c-1-0.3-1.5-0.9-1.5-1.7
		c0-0.6,0.2-1.6,0.7-3c0.2-0.6,0.7-2,1.5-4.1h11.9l1.3,3.2c0.3,0.7,0.5,1.3,0.7,1.8c0.3,0.8,0.4,1.5,0.4,1.9c0,0.9-0.3,1.5-0.8,1.7
		c-0.5,0.2-1.7,0.4-3.4,0.4v1.3h17.1v-1.3C217.3,35.4,216.4,35,215.8,34.1">
  </path>
  <path class="st0" d="M269,57.3h-3v-2.6h2.7c1,0,1.4,0,1.7,0.3c0.2,0.2,0.4,0.5,0.4,1.1C270.8,57.3,269.7,57.3,269,57.3 M269.6,53
		h-5.9v9.6h2.4V59h3.4c1.2,0,2.4-0.1,3.2-1c0.4-0.4,0.7-1,0.7-2c0-0.7-0.2-1.4-0.5-1.9C271.9,53,270.6,53,269.6,53">
  </path>
  <path class="st0" d="M252.2,58.7c0,1-0.2,1.3-0.4,1.6c-0.4,0.4-1,0.7-1.9,0.8c-0.7,0-1.4,0.1-2.2-0.3c-0.9-0.4-1.1-1.2-1.1-2V53
		h-2.4v5.6c0,1.1,0,2.4,1.5,3.4c0.6,0.4,1.2,0.6,1.7,0.7c0.7,0.2,1.3,0.2,2,0.2c1.5,0,3.3-0.4,4.3-1.5c0.8-0.9,0.8-1.9,0.8-2.9V53
		h-2.4V58.7z">
  </path>
  <path class="st0" d="M212.6,57h-3.8v-2.4h3.7c1,0,1.2,0.2,1.4,0.5c0.2,0.2,0.2,0.6,0.2,0.8C214,57,213.1,57,212.6,57 M215.5,58
		c0.7-0.5,0.9-1.4,0.9-2.1c0-0.6-0.1-1.3-0.6-1.9c-0.8-0.9-1.8-1-2.9-1h-6.6v9.6h2.4v-3.9h2.7l2.6,3.9h2.8l-2.9-4
		C214.4,58.5,215,58.4,215.5,58">
  </path>
  <path class="st0" d="M191.9,54.5c1.8,0,2.5,0.8,2.9,1.3l2.7-0.4c-0.2-0.4-0.7-1.2-1.7-1.8c-1.3-0.8-2.8-0.9-3.8-0.9
		c-0.7,0-3.2,0-4.8,1.7c-0.9,0.9-1.3,2.1-1.3,3.4c0,2.3,1.3,5.1,5.8,5.1c1.5,0,2.9-0.4,4-1.4v1.1h1.8v-5.2h-5.2v1.7h3.2
		c-0.1,0.3-0.2,0.7-0.8,1.1c-0.6,0.5-1.6,0.8-2.7,0.8c-2.3,0-3.6-1.5-3.6-3.4C188.4,55.7,189.9,54.5,191.9,54.5">
  </path>
  <path class="st0" d="M170.3,32.9c-2.2,1.4-4.8,2.1-8,2.1c-1.8,0-3-0.2-3.6-0.6c-0.6-0.4-0.9-1.2-0.9-2.3v-25c0-2.1,0.4-3.4,1.1-3.9
		c0.7-0.5,2.1-0.8,4.3-0.9V1h-18.5v1.3c1.5,0.1,2.6,0.3,3.2,0.6c1,0.5,1.5,1.6,1.5,3.1v25.6c0,1.5-0.5,2.6-1.6,3.1
		c-0.6,0.3-1.7,0.5-3.1,0.6v1.3h30.6l2.1-12h-1.5C174.3,28.8,172.5,31.5,170.3,32.9">
  </path>
 </g>
</svg>