<svg version="1.1" id="Layer_1" xmlns:x="ns_extend;" xmlns:i="ns_ai;" xmlns:graph="ns_graphs;" xmlns="http://www.w3.org/2000/svg" xmlns:xlink="http://www.w3.org/1999/xlink" x="0px" y="0px" viewBox="0 0 1165.9 75" style="enable-background:new 0 0 1165.9 75;" xml:space="preserve">
 <style type="text/css">
  .st0{display:none;}
	.st1{display:inline;fill:#F90606;}
 </style>
 <metadata>
  <sfw xmlns="ns_sfw;">
   <slices>
   </slices>
   <sliceSourceBounds bottomLeftOrigin="true" height="95.2" width="1186.2" x="-777.4" y="-20.2">
   </sliceSourceBounds>
  </sfw>
 </metadata>
 <g id="Layer_3" class="st0">
  <rect x="728.5" y="16.3" class="st1" width="457.7" height="78.9">
  </rect>
 </g>
 <g id="Layer_1_1_">
  <g>
   <g>
    <g>
     <path d="M1149.7,4.8v8.7h-1.8V4.8h-3V3.3h7.8v1.5H1149.7L1149.7,4.8z">
     </path>
     <path d="M1163.8,13.5V5.7l-3.3,4.8h-0.3l-3.3-4.8v7.8h-1.8V3.3h2.1l3.3,4.2l3.3-4.2h2.1v10.2H1163.8z">
     </path>
     <path d="M712.6,40.2c-12.6,0-24.6,0-36.9,0c0,11.1,0,22.2,0,33.3c-5.4,0-10.8,0-16.2,0c0-23.4,0-46.5,0-69.9
					c5.4,0,10.8,0,16.2,0c0,9.9,0,20.1,0,30c12.3,0,24.6,0,36.9,0c0-9.9,0-20.1,0-30c5.4,0,10.8,0,16.5,0c0,23.4,0,46.8,0,70.2
					c-5.4,0-10.8,0-16.2,0C712.6,62.4,712.6,51.6,712.6,40.2z">
     </path>
     <path d="M1115.2,40.2c-12.6,0-24.6,0-36.9,0c0,11.1,0,22.2,0,33.3c-5.4,0-10.8,0-16.2,0c0-23.4,0-46.5,0-69.9
					c5.4,0,10.8,0,16.2,0c0,9.9,0,20.1,0,30c12.3,0,24.6,0,36.9,0c0-9.9,0-20.1,0-30c5.4,0,10.8,0,16.5,0c0,23.4,0,46.8,0,70.2
					c-5.4,0-10.8,0-16.2,0C1115.2,62.4,1115.2,51.6,1115.2,40.2z">
     </path>
     <path d="M824.5,73.8c3.6-7.2,7.2-14.1,10.8-21c8.1-15.9,16.5-31.8,24.6-47.7c0.6-1.2,1.2-1.8,2.7-1.8c2.4,0.3,5.4-0.6,7.5,0.3
					c1.8,1.2,2.4,4.2,3.6,6.3C884.5,30.3,895,51,905.8,71.4c0.3,0.6,0.6,1.2,0.9,1.8c-0.6,0-0.9,0-1.5,0c-5.1,0-9.9,0-15,0
					c-1.2,0-1.8-0.3-2.4-1.5c-1.8-3.9-3.9-7.8-6-11.7c-0.3-0.9-0.9-1.2-2.1-1.2c-13.2,0-26.1,0-39.3,0c-0.6,0-1.5,0.6-1.8,1.2
					c-2.1,3.9-4.2,7.8-6,11.7c-0.3,0.6-1.2,1.2-1.8,1.2C829,73.8,826.9,73.8,824.5,73.8z M878.2,53.1c-6-11.4-11.7-22.5-17.7-34.2
					c-6,11.7-11.7,22.8-17.7,34.2C854.8,53.1,866.2,53.1,878.2,53.1z">
     </path>
     <path d="M769,33.6c11.1,0,21.9,0,32.7,0c0,2.1,0,4.2,0,6.3c-10.8,0-21.9,0-32.7,0c0,9,0,18,0,27.3c15.6,0,31.2,0,47.1,0
					c-0.9,2.1-1.8,4.2-2.7,6c0,0.3-0.6,0.3-1.2,0.3c-19.8,0-39.3,0-59.1,0c0,0-0.3,0-0.6-0.3c0-23.4,0-46.5,0-70.2
					c0.9,0,1.5,0,2.1,0c17.7,0,35.7,0,53.4,0c1.5,0,2.4,0.6,2.7,1.8c0.6,1.5,1.2,2.7,1.8,4.5c-14.7,0-29.4,0-44.1,0
					C769,18,769,25.8,769,33.6z">
     </path>
     <path d="M1002.4,9.9c-9.9,0-19.2,0-29.1,0c0.9-2.1,1.8-4.2,2.7-6c0.3-0.3,1.2-0.6,1.8-0.6c12.3,0,24.3,0,36.6,0
					c9.3,0,18.3,0,27.6,0c1.8,0,2.7,0.6,3.3,2.1c0.6,1.5,1.2,2.7,1.8,4.2c-9.6,0-19.2,0-28.8,0c0,21.3,0,42.6,0,63.9
					c-5.4,0-10.5,0-15.9,0C1002.4,52.5,1002.4,31.2,1002.4,9.9z">
     </path>
     <path d="M937.3,67.2c14.7,0,28.8,0,43.8,0c-0.9,2.1-1.8,4.2-2.7,6c-0.3,0.3-1.2,0.6-1.8,0.6c-10.8,0-21.9,0-32.7,0
					c-7.5,0-14.7,0-22.2,0c0-23.4,0-46.8,0-70.2c5.1,0,10.5,0,15.9,0C937.3,24.6,937.3,45.9,937.3,67.2z">
     </path>
     <path d="M157,73.5c0-23.4,0-46.8,0-70.2c0.6,0,0.9,0,1.5,0c14.4,0,28.8,0,43.5,0.3c4.8,0,9.6,0.9,14.1,3c6.3,3,9,8.1,8.7,14.7
					c0,6.3-3,11.1-9,13.5c-1.5,0.6-3,1.2-4.8,1.8c1.8,0.6,3.3,0.9,5.1,1.5c5.7,2.1,10.5,5.4,12,11.7c2.4,10.5-0.9,19.5-14.4,22.5
					c-3.9,0.9-8.1,1.5-12.3,1.5c-14.4,0.3-28.8,0-43.2,0C157.9,73.8,157.3,73.8,157,73.5z M172.9,67.2c0.6,0,0.9,0,1.2,0
					c7.8,0,15.9,0,23.7,0c1.8,0,3.6-0.3,5.4-0.6c4.2-0.9,6.9-3.6,7.2-7.8c0.3-3.3,0.3-6.6,0-9.6c-0.3-4.5-3.3-7.2-7.5-8.4
					c-1.8-0.3-3.6-0.6-5.4-0.6c-7.5,0-15.3,0-22.8,0c-0.6,0-1.2,0-1.5,0C172.9,49.2,172.9,58.2,172.9,67.2z M172.9,33.6
					c0.6,0,0.9,0,1.2,0c7.2,0,14.4,0,21.6,0c1.8,0,3.3-0.3,5.1-0.6c3.9-0.9,6.3-3.9,6.6-8.1c0-2.1,0-4.5,0-6.6
					c0-3.9-2.1-6.6-5.7-7.8c-1.5-0.3-2.7-0.6-4.2-0.6c-7.8,0-15.6,0-23.4,0c-0.3,0-0.6,0-0.9,0.3C172.9,18,172.9,25.8,172.9,33.6z">
     </path>
     <path d="M400.9,73.8c-5.7,0-11.1,0-16.8,0c-0.6,0-1.5-0.6-1.8-1.2c-2.1-3.9-4.2-7.8-6-11.7c-0.6-0.9-0.9-1.2-2.1-1.2
					c-12.9,0-26.1,0-39,0c-1.2,0-1.8,0.3-2.1,1.2c-1.8,3.9-3.9,7.8-6,11.7c-0.6,0.9-0.9,1.5-2.1,1.2c-2.1,0-3.9,0-6.3,0
					c0.3-0.9,0.6-1.5,0.9-2.1c11.4-22.2,22.8-44.4,34.2-66.6c0.6-1.5,1.5-2.1,3-1.8c2.1,0,4.2,0,6.3,0c0.6,0,1.5,0.6,1.8,0.9
					c12,22.8,23.7,45.6,35.7,68.4C400.9,73.2,400.9,73.2,400.9,73.8z M354.7,18.9c-6,11.4-11.7,22.8-17.7,33.9c12,0,23.4,0,35.1,0
					C366.4,41.7,360.7,30.6,354.7,18.9z">
     </path>
     <path d="M247.3,73.8c0-23.4,0-46.8,0-70.2c0.6,0,1.5,0,2.1,0c18,0,35.7,0,53.7,0c1.5,0,2.4,0.3,2.7,1.8c0.6,1.5,1.2,3,2.1,4.8
					c-15,0-29.4,0-44.1,0c0,8.1,0,15.9,0,23.7c11.1,0,21.9,0,33,0c0,2.1,0,4.2,0,6.3c-10.8,0-21.9,0-33,0c0,9,0,18,0,27
					c15.6,0,31.2,0,47.1,0c-0.9,2.1-1.8,4.2-2.7,6c-0.3,0.3-1.2,0.6-1.8,0.6c-12.6,0-25.5,0-38.1,0c-6.3,0-12.3,0-18.6,0
					C248.5,73.8,247.9,73.8,247.3,73.8z">
     </path>
     <path d="M468.7,3.6c2.4,0,4.5,0,6.6,0c0,0.6,0,1.2,0,1.8c0,15,0,29.7,0,44.7c0,5.1-0.9,9.9-3.6,14.1c-3.6,5.7-9.3,8.4-15.9,9.6
					c-9.9,1.8-19.8,1.8-29.7-1.8c-8.7-3-14.7-8.7-16.5-18c-0.3-1.5-0.3-3.3-0.3-5.1c0-14.4,0-29.1,0-43.5c0-0.6,0-1.2,0-2.1
					c5.4,0,10.5,0,16.2,0c0,0.9,0,1.5,0,2.1c0,14.7,0,29.1,0,43.8c0,10.5,4.5,15.9,14.4,18c5.1,1.2,10.5,1.2,15.6-0.3
					c8.1-2.1,12.9-7.5,12.9-15.9c0-15.3,0-30.3,0-45.6C468.7,5.1,468.7,4.5,468.7,3.6z">
     </path>
     <path d="M649.3,3.3c-5.1,6-9.6,11.4-14.1,16.8c-6,7.2-12,14.4-18,21.3c-0.6,0.6-0.9,1.8-0.9,2.7c0,9,0,18,0,27
					c0,0.6,0,1.2,0,2.1c-5.4,0-10.5,0-15.9,0c0-0.6,0-1.2,0-2.1c0-9,0-18,0-27c0-0.9-0.3-2.1-0.9-2.7
					c-10.2-12.3-20.4-24.3-30.6-36.3c-0.3-0.6-0.9-0.9-1.5-1.8c0.9,0,1.5,0,2.1,0c5.4,0,10.8,0,16.2,0c1.5,0,2.4,0.3,3.6,1.5
					c7.8,9.3,15.6,18.6,23.4,27.9c0.6,0.6,0.9,1.2,1.5,1.8c0.9-0.9,1.5-1.8,2.4-2.7c7.5-9,15.3-18,22.8-27c0.9-1.2,1.8-1.5,3.3-1.5
					C644.5,3.6,646.6,3.3,649.3,3.3z">
     </path>
     <path d="M561.4,9.9c-9.9,0-19.5,0-29.1,0c0,21.3,0,42.3,0,63.6c-5.4,0-10.5,0-15.9,0c0-21.3,0-42.3,0-63.6c-9.6,0-19.2,0-29.1,0
					c0.9-2.4,1.8-4.2,2.7-6c0.3-0.3,1.2-0.3,1.8-0.6c7.8,0,15.3,0,23.1,0c13.8,0,27.6,0,41.4,0c1.5,0,2.4,0.3,2.7,1.8
					C559.9,6.6,560.5,8.1,561.4,9.9z">
     </path>
     <path d="M40.6,70.8c-1.5,0-3-0.6-4.5-2.1l-7.8-7.5c-5.7-5.7-11.7-11.1-17.4-16.8C7,40.8,4.3,36.9,2.5,33
					C-0.2,27.3-0.8,21.3,1,15C3.1,7.2,8.8,2.4,17.2,0.6c6.3-1.2,12-0.3,17.1,2.7c2.4,1.5,4.5,3,6.3,4.5C41.8,6.9,43,6,44.2,5.1
					c3.6-3,6.9-4.5,10.5-4.8c9.6-1.2,17.1,1.5,22.2,8.1c2.4,3,3.9,6.9,4.2,12c0.6,7.2-1.8,14.1-7.5,20.4c-2.7,3-5.7,6-8.4,8.7
					l-2.1,2.1c-4.2,4.2-8.7,8.4-13.2,12.6L44.8,69C43.6,70.2,42.1,70.8,40.6,70.8z M22.6,6.9c-1.2,0-2.7,0-4.2,0.3
					c-5.7,1.5-9.3,4.5-10.8,9.9C6.4,21.6,6.7,25.8,8.5,30c1.5,3.3,3.9,6.3,7.2,9.3c5.7,5.7,11.7,11.1,17.4,16.8l7.5,7.2l4.8-4.5
					c4.5-4.2,8.7-8.4,12.9-12.6l2.1-2.1c2.7-2.7,5.7-5.4,8.1-8.1c4.2-4.8,6.3-9.6,5.7-15c-0.3-3.6-1.2-6.3-2.7-8.4
					c-3.6-4.5-8.7-6.3-15.9-5.4c-2.4,0.3-4.5,1.2-7.2,3.3c-1.2,0.9-2.7,2.1-3.9,3l-4.2,3.3l-2.1-2.1l2.4-2.4l-2.4,2.4l-0.3-0.3
					c-2.1-1.8-4.2-3.6-6.9-5.1C28.3,7.8,25.6,6.9,22.6,6.9z">
     </path>
     <path d="M76.6,70.8c-1.5,0-3-0.6-4.5-2.1l-7.8-7.5c-5.7-5.7-11.7-11.1-17.4-16.8c-3.9-3.6-6.6-7.5-8.4-11.4
					c-2.7-5.7-3.3-11.7-1.5-18c2.1-7.8,7.8-12.6,16.2-14.4c6.3-1.2,12-0.3,17.1,2.7c2.4,1.5,4.5,3,6.3,4.5C77.8,6.9,79,6,80.2,5.1
					c3.6-2.7,7.2-4.2,10.5-4.8c9.6-1.2,17.1,1.5,22.2,8.1c2.4,3,3.9,6.9,4.2,12c0.6,7.2-1.8,14.1-7.5,20.4c-2.7,3-5.7,6-8.4,8.7
					l-2.1,2.1c-4.2,4.2-8.7,8.4-13.2,12.6L80.8,69C79.6,70.2,78.1,70.8,76.6,70.8z M58.6,6.9c-1.2,0-2.7,0-4.2,0.3
					c-5.7,1.2-9.3,4.5-11.1,9.6c-0.9,4.8-0.6,9,1.5,13.2c1.5,3.3,3.9,6.3,7.2,9.3c5.7,5.7,11.7,11.1,17.4,16.8l7.5,7.2l4.8-4.5
					c4.5-4.2,8.7-8.4,12.9-12.6l2.1-2.1c2.7-2.7,5.7-5.4,8.1-8.1c4.2-4.8,6.3-9.6,5.7-15c-0.3-3.6-1.2-6.3-2.7-8.4
					c-3.6-4.5-8.7-6.3-15.9-5.4c-2.4,0.3-4.5,1.2-7.2,3.3c-1.2,0.9-2.7,2.1-3.9,3l-4.2,3.3l-2.1-2.1l2.4-2.7l-2.4,2.4l-0.3-0.3
					c-2.1-1.8-4.2-3.6-6.9-5.1C64.3,7.8,61.6,6.9,58.6,6.9z">
     </path>
    </g>
   </g>
  </g>
 </g>
</svg>