<svg version="1.1" id="Layer_1" xmlns:x="ns_extend;" xmlns:i="ns_ai;" xmlns:graph="ns_graphs;" xmlns="http://www.w3.org/2000/svg" xmlns:xlink="http://www.w3.org/1999/xlink" x="0px" y="0px" viewBox="0 0 252.6 52" style="enable-background:new 0 0 252.6 52;" xml:space="preserve">
 <style type="text/css">
  .st0{fill:url(#SVGID_1_);}
	.st1{fill:url(#SVGID_2_);}
	.st2{fill:#004D71;}
 </style>
 <metadata>
  <sfw xmlns="ns_sfw;">
   <slices>
   </slices>
   <sliceSourceBounds bottomLeftOrigin="true" height="52" width="252.6" x="-81.6" y="0.5">
   </sliceSourceBounds>
  </sfw>
 </metadata>
 <g>
  <linearGradient id="SVGID_1_" gradientUnits="userSpaceOnUse" x1="30.6627" y1="28.198" x2="17.0679" y2="61.3195" gradientTransform="matrix(1 0 0 -1 0 70.9688)">
   <stop offset="0" style="stop-color:#006288">
   </stop>
   <stop offset="1" style="stop-color:#B2D235">
   </stop>
  </linearGradient>
  <path class="st0" d="M48.9,27.9H24.4c-1.5,0-2.8,1.2-2.8,2.8c0,1.5,1.2,2.8,2.8,2.8h1.8c1,0,1.9,0.8,1.9,1.9c0,1-0.8,1.9-1.9,1.9
		H14c-1,0-1.9-0.8-1.9-1.9c0-1,0.8-1.9,1.9-1.9h0.7c1.5,0,2.8-1.2,2.8-2.8c0-1.5-1.2-2.8-2.8-2.8H2.8c-1.5,0-2.8,1.2-2.8,2.8
		c0,1.5,1.2,2.8,2.8,2.8h4.5c1,0,1.9,0.8,1.9,1.9c0,1-0.8,1.9-1.9,1.9H6.3c-1.5,0-2.8,1.2-2.8,2.8c0,1.5,1.2,2.8,2.8,2.8h16.4
		c1,0,1.9,0.8,1.9,1.9c0,1-0.8,1.9-1.9,1.9h-3.5c-1.5,0-2.8,1.2-2.8,2.8c0,1.5,1.2,2.8,2.8,2.8h13.7c1.5,0,2.8-1.2,2.8-2.8
		c0-1.5-1.2-2.8-2.8-2.8h-3.5c-1,0-1.9-0.8-1.9-1.9c0-1,0.8-1.9,1.9-1.9H45c1.5,0,2.8-1.2,2.8-2.8c0-1.5-1.2-2.8-2.8-2.8h-3.6
		c-1,0-1.9-0.8-1.9-1.9c0-1,0.8-1.9,1.9-1.9h7.6c1.5,0,2.8-1.2,2.8-2.8C51.6,29.1,50.5,27.9,48.9,27.9z M36.5,35.1
		c0,1-0.8,1.9-1.9,1.9h-1.7c-1,0-1.9-0.8-1.9-1.9c0-1,0.8-1.9,1.9-1.9h1.7C35.7,33.3,36.5,34.1,36.5,35.1z">
  </path>
  <linearGradient id="SVGID_2_" gradientUnits="userSpaceOnUse" x1="6.0594" y1="103.2996" x2="22.193" y2="59.4515" gradientTransform="matrix(1 0 0 -1 0 70.9688)">
   <stop offset="0" style="stop-color:#006288">
   </stop>
   <stop offset="1" style="stop-color:#B2D235">
   </stop>
  </linearGradient>
  <path class="st1" d="M48.9,18.6h-3.8c-1,0-1.9-0.8-1.9-1.9c0-1,0.8-1.9,1.9-1.9H45c1.5,0,2.8-1.2,2.8-2.8c0-1.5-1.2-2.8-2.8-2.8
		H29.5c-1,0-1.9-0.8-1.9-1.9c0-1,0.8-1.9,1.9-1.9h3.5c1.5,0,2.8-1.2,2.8-2.8c0-1.5-1.2-2.8-2.8-2.8H19.2c-1.5,0-2.8,1.2-2.8,2.8
		c0,1.5,1.2,2.8,2.8,2.8h3.5c1,0,1.9,0.8,1.9,1.9c0,1-0.8,1.9-1.9,1.9h-0.1c-1.5,0-2.8,1.2-2.8,2.8c0,1.5,1.2,2.8,2.8,2.8h0.1
		c1,0,1.9,0.8,1.9,1.9c0,1-0.8,1.9-1.9,1.9H14c-1,0-1.9-0.8-1.9-1.9c0-1,0.8-1.9,1.9-1.9h0.7c1.5,0,2.8-1.2,2.8-2.8
		c0-1.5-1.2-2.8-2.8-2.8H6.8c-1.5,0-2.8,1.2-2.8,2.8c0,1.5,1.2,2.8,2.8,2.8h0.4c1,0,1.9,0.8,1.9,1.9c0,1-0.8,1.9-1.9,1.9H2.8
		c-1.5,0-2.8,1.2-2.8,2.8c0,1.5,1.2,2.8,2.8,2.8h27.5c1.5,0,2.8-1.2,2.8-2.8c0-1.5-1.2-2.8-2.8-2.8h-0.8c-1,0-1.9-0.8-1.9-1.9
		c0-1,0.8-1.9,1.9-1.9h8.9c1,0,1.9,0.8,1.9,1.9c0,1-0.8,1.9-1.9,1.9c-1.5,0-2.8,1.2-2.8,2.8c0,1.5,1.2,2.8,2.8,2.8h10.5
		c1.5,0,2.8-1.2,2.8-2.8C51.6,19.9,50.5,18.6,48.9,18.6z">
  </path>
  <path class="st2" d="M82,36.5c-1.7,1.7-4.4,2.7-7.7,2.7c-5.9,0-10-2.5-10.8-7.3h1.7c0.8,3.8,4.1,5.7,9.1,5.7c2.8,0,5.2-0.9,6.5-2.3
		c0.8-0.9,1.2-2,1.2-3.2c-0.1-2.8-2.4-4.3-8.1-5.1c-4-0.6-9-1.2-9.1-5.9c0-3.2,3-6.3,8.8-6.3c5.2,0,8.6,2.3,9.5,6.5h-1.7
		c-0.9-3.1-3.6-4.9-7.8-4.9c-4.2,0-7.2,2-7.1,4.7c0.1,2.7,2.5,3.6,7.6,4.2c4.9,0.7,9.3,2,9.5,6.7C83.6,33.7,83.1,35.3,82,36.5z">
  </path>
  <path class="st2" d="M90,30.8v7.8h-1.7V15.3H90v13.2l13.7-13.2h2.4l-8.8,8.5l10,14.8h-2L96.1,25L90,30.8z">
  </path>
  <path class="st2" d="M119.6,45.7c4.8,0,8-3.3,8-8.1v-2.8c-1.6,2.7-4.4,4.4-8.1,4.4c-5.7,0-9.7-4.1-9.7-9.7V15.3h1.7v14
		c0,4.7,3.4,8.1,8.1,8.1c4.7,0,8.1-3.4,8.1-8.1v-14h1.7v22.3c0,5.7-4,9.7-9.7,9.7">
  </path>
  <path class="st2" d="M169.1,30.4c0,5.1-3.7,8.9-8.9,8.9c-3.8,0-6.7-2.1-8-5.2c-1.2,3.1-4.2,5.2-8,5.2c-5.1,0-8.9-3.8-8.9-8.9V15.3
		h1.7v15c0,4.1,3,7.1,7.1,7.1c4.1,0,7.2-3.1,7.2-7.1v-15h1.7v15c0,4.1,3.1,7.1,7.1,7.1c4.1,0,7.2-3.1,7.2-7.1v-15h1.7V30.4z">
  </path>
  <path class="st2" d="M205.1,30.6c0,4,1.8,6.7,6.3,6.5v1.5c-5,0.4-7.9-2.8-7.9-8.1V17h-3.2v-1.7h3.2v-4.9h1.7v4.9h6.3V17h-6.3V30.6z
		">
  </path>
  <path class="st2" d="M215.3,27c0.1,6,4.6,10.5,10.3,10.5c5.5,0,7.9-3.1,9.1-6.1h1.7c-1.6,5-5.4,7.8-10.8,7.8
		c-6.6,0-11.9-5.3-11.9-12.1c0-6.8,5.2-12.3,11.6-12.3c7,0,11.7,6.3,11.6,12.2H215.3z M235.1,25.3c-0.8-5-4.9-8.8-9.8-8.8
		c-4.9,0-9,3.8-9.7,8.8H235.1z">
  </path>
  <path class="st2" d="M252.6,16.4c-3.1-0.3-5.5,0.6-6.9,2c-1.7,1.5-2.5,3.8-2.5,6.2v14h-1.7v-14c0-4.6,2.6-7,3.3-7.6
		c2-1.8,4.7-2.7,7.9-2.3V16.4z">
  </path>
  <path class="st2" d="M196.6,27.6v-0.5c0-5.3-3.1-9.7-7.6-11.5c-0.1-0.1-0.2-0.1-0.3-0.1c-0.1-0.1-0.3-0.1-0.5-0.1
		c-0.3-0.1-0.5-0.1-0.8-0.2c-0.1,0-0.1,0-0.2-0.1c-0.3-0.1-0.6-0.1-0.9-0.1H186c-0.4,0-0.7-0.1-1-0.1c-6.4,0-11.6,5.5-11.6,12.3
		c0,6.7,5.2,12.1,11.6,12.1c4.4,0,8.1-2.5,10-6.2v5.6h1.7V28.5C196.6,28.1,196.6,27.9,196.6,27.6z M184.9,37.5
		c-5.5,0-10-4.7-10-10.5c0-5.8,4.5-10.6,10-10.6c4.9,0,8.9,3.7,9.7,8.6c0.1,0.7,0.1,1.3,0.1,2C194.9,32.8,190.5,37.5,184.9,37.5z">
  </path>
 </g>
</svg>