<svg version="1.1" id="Layer_1" xmlns:x="ns_extend;" xmlns:i="ns_ai;" xmlns:graph="ns_graphs;" xmlns="http://www.w3.org/2000/svg" xmlns:xlink="http://www.w3.org/1999/xlink" x="0px" y="0px" viewBox="0 0 263.7 52" style="enable-background:new 0 0 263.7 52;" xml:space="preserve">
 <metadata>
  <sfw xmlns="ns_sfw;">
   <slices>
   </slices>
   <sliceSourceBounds bottomLeftOrigin="true" height="52" width="263.7" x="-34.9" y="-205.4">
   </sliceSourceBounds>
  </sfw>
 </metadata>
 <g>
  <polygon points="142.8,29.6 111.6,0.5 111.6,49.8 120.8,49.8 120.8,22.3 152.1,51.3 152.1,1.9 142.8,1.9 	">
  </polygon>
  <path d="M71,0C56.7,0,45.1,11.6,45.1,25.9S56.7,51.8,71,51.8s25.9-11.6,25.9-25.9c0,0,0,0,0,0C96.9,11.6,85.3,0,71,0z M71,42.5
		c-9.2,0.1-16.7-7.3-16.8-16.4S61.5,9.4,70.7,9.3s16.7,7.3,16.8,16.4c0,0.1,0,0.1,0,0.2C87.5,35,80.1,42.4,71,42.5z">
  </path>
  <path d="M29.4,26.3c-2.5-1.9-5.7-3.4-10.5-4.9c-9.4-3-9.4-5.3-9.4-6.5c0-2.7,3-5.4,8-5.4c3.1,0.1,6.2,1.1,8.7,3l0.6,0.5l7.5-5
		l-0.8-1C29.3,2.5,23.5,0,17.5,0C12.7,0,8.2,1.6,5,4.3c-3.1,2.6-5,6.5-5,10.6c0,4.3,1.9,7.8,5.5,10.6c2.5,1.9,5.7,3.4,10.5,4.9
		c9.4,3,9.4,5.3,9.4,6.5c0,2.7-3,5.4-8,5.4c-3.1-0.1-6.2-1.1-8.7-3l-0.6-0.5l-7.5,5.1l0.8,1c4.1,4.4,9.9,7,16,7
		c4.8,0,9.2-1.6,12.4-4.3c3.1-2.6,5-6.5,5-10.6C34.9,32.7,33,29.1,29.4,26.3z">
  </path>
  <path d="M192.6,0.2c-14.3,0-25.9,11.6-25.9,25.9S178.3,52,192.6,52s25.9-11.6,25.9-25.9c0,0,0,0,0,0
		C218.5,11.8,206.9,0.2,192.6,0.2z M192.6,42.7c-9.2,0.1-16.7-7.3-16.7-16.4c-0.1-9.2,7.3-16.7,16.4-16.7
		c9.2-0.1,16.7,7.3,16.7,16.4c0,0,0,0.1,0,0.1C209.1,35.2,201.7,42.6,192.6,42.7z">
  </path>
  <path d="M234.3,25.7c2.5,1.9,5.7,3.4,10.5,4.9c9.4,3,9.4,5.3,9.4,6.5c0,2.7-3,5.4-8,5.4c-3.1-0.1-6.2-1.1-8.7-3l-0.6-0.5l-7.5,5
		l0.8,1c4.1,4.4,9.9,7,16,7c4.8,0,9.2-1.6,12.4-4.3c3.1-2.6,5-6.5,5-10.6c0-4.3-1.9-7.8-5.5-10.6c-2.5-1.9-5.7-3.4-10.5-4.9
		c-9.4-3-9.4-5.3-9.4-6.5c0-2.7,3-5.4,8-5.4c3.1,0.1,6.2,1.1,8.7,3l0.6,0.5l7.5-5l-0.8-1c-4.1-4.4-9.9-7-16-7
		c-4.8,0-9.2,1.6-12.4,4.3c-3.1,2.6-5,6.5-5,10.6C228.8,19.3,230.6,22.9,234.3,25.7z">
  </path>
 </g>
</svg>