<svg version="1.1" id="Layer_1" xmlns:x="ns_extend;" xmlns:i="ns_ai;" xmlns:graph="ns_graphs;" xmlns="http://www.w3.org/2000/svg" xmlns:xlink="http://www.w3.org/1999/xlink" x="0px" y="0px" viewBox="0 0 636.8 75.6" style="enable-background:new 0 0 636.8 75.6;" xml:space="preserve">
 <style type="text/css">
  .st0{fill:#67AE3E;}
	.st1{opacity:0.75;}
	.st2{fill:#005DA9;}
	.st3{clip-path:url(#SVGID_2_);fill:url(#SVGID_3_);}
	.st4{clip-path:url(#SVGID_5_);fill:url(#SVGID_6_);}
 </style>
 <metadata>
  <sfw xmlns="ns_sfw;">
   <slices>
   </slices>
   <sliceSourceBounds bottomLeftOrigin="true" height="75.6" width="636.8" x="-82.6" y="-607.4">
   </sliceSourceBounds>
  </sfw>
 </metadata>
 <g>
  <g>
   <path class="st0" d="M483.4,22.7c-1.7,0-3.1,0.5-4.4,1.4c-1.3,0.9-2.4,2-3.3,3.2c-0.9,1.2-1.7,2.5-2.2,3.7c-0.6,1.2-1,2.1-1.3,2.8
			h-0.1l0.1-11.1h-0.5l-10.5,4.1v0.5c0.6,0.3,1.3,0.6,1.9,1c0.6,0.4,1.2,0.7,1.7,1c0.4,0.3,0.6,0.5,0.7,0.7c0.1,0.2,0.1,0.5,0.1,1
			v27c0,0.9-0.4,1.5-1.3,1.8c-0.9,0.4-1.9,0.6-3.2,0.7v0.8h17.9v-0.8c-0.5-0.1-1.2-0.2-1.9-0.2c-0.7,0-1.4-0.1-2.1-0.2
			c-0.7-0.1-1.3-0.3-1.8-0.6c-0.5-0.3-0.9-0.6-1-1.1v-23c0.3-0.8,0.7-1.6,1.1-2.5c0.4-0.9,0.9-1.7,1.4-2.4c0.5-0.7,1.1-1.3,1.7-1.7
			c0.6-0.4,1.2-0.7,1.9-0.7c0.7,0,1.3,0.1,1.7,0.4c0.4,0.3,0.8,0.6,1.2,1c0.4,0.4,0.8,0.7,1.3,1c0.5,0.3,1.2,0.4,2,0.4
			c0.9,0,1.7-0.4,2.4-1.2c0.7-0.8,1-1.7,1-2.9c0-1.2-0.5-2.2-1.4-3C485.9,23.1,484.7,22.7,483.4,22.7 M454,35.5
			c-1.5-1.2-3.1-2.2-5-2.9c-1.9-0.7-3.7-1.2-5.7-1.4v-0.3c3.6-0.7,6.6-2.2,8.8-4.4c2.3-2.1,3.4-5,3.4-8.5c0-3.2-0.9-5.8-2.6-7.9
			c-1.8-2.1-4-3.6-6.7-4.6c-1.7-0.6-3.5-1.1-5.3-1.3c-1.8-0.2-3.8-0.4-5.8-0.4h-26.9v0.8c1.4,0.2,2.5,0.4,3.4,0.7
			c0.8,0.3,1.6,0.9,2.4,1.7c0.3,0.3,0.6,0.8,0.8,1.6c0.2,0.7,0.3,1.5,0.5,2.4c0.1,0.9,0.2,1.8,0.3,2.8c0.1,1,0.1,2,0.1,2.9
			c0,1.6,0,3,0,4.2c0,1.2,0,2.4,0,3.6v12.4c0,1.6,0,3.2,0,4.7c0,1.5-0.1,2.9-0.1,4.2c0,1.3,0,2.3,0,3c0,0.9,0,1.7-0.1,2.6
			c-0.1,0.9-0.1,1.7-0.3,2.5c-0.1,0.8-0.3,1.5-0.4,2.1c-0.2,0.6-0.4,1.1-0.6,1.4c-0.7,0.9-1.7,1.5-2.9,2c-1.2,0.5-2.5,0.8-3.8,1v0.8
			h27.5c2.3,0,4.8-0.1,7.3-0.2c2.5-0.2,4.8-0.6,6.8-1.4c1.2-0.4,2.4-1,3.5-1.9c1.2-0.8,2.2-1.8,3.2-3c1-1.2,1.7-2.5,2.3-4.1
			c0.6-1.5,0.9-3.3,0.9-5.2c0-2.1-0.4-4-1.3-5.7C456.6,38.2,455.5,36.7,454,35.5 M424.3,23.6c0-2,0-4.1,0-6.4c0-2.2,0.1-4.3,0.1-6.1
			c0-1,0.1-1.7,0.1-2.3c0-0.6,0.1-1.1,0.1-1.5c0-0.4,0.1-0.7,0.1-1c0-0.3,0.1-0.6,0.2-0.9c0.5-0.2,1.2-0.3,2.1-0.4
			c0.9-0.1,1.9-0.2,3-0.2c3.7,0,6.8,0.5,9.2,1.6c2,0.9,3.7,2.4,5.1,4.5c1.4,2.1,2,4.4,2,7.1c0,3.6-1.2,6.7-3.7,9.1
			c-2.5,2.4-6.1,3.8-10.9,4.1c-0.7,0.1-1.7,0.1-3,0.1h-4.5V23.6z M447.7,53.4c-1.2,2-3,3.5-5.2,4.7c-1.7,0.9-3.4,1.5-5.3,1.7
			c-1.8,0.2-3.5,0.3-5,0.3c-1.8,0-3.2-0.2-4.2-0.6c-1-0.4-1.7-0.9-2.2-1.5c-0.6-0.9-1-1.9-1.2-3.2c-0.1-1.3-0.2-3-0.3-5
			c0-0.9,0-2,0-3.2c0-1.3,0-2.6,0-4.1v-10h7.7c1.5,0,2.9,0.1,4,0.2c1.1,0.1,2.3,0.4,3.5,0.8c1.4,0.5,2.8,1.1,3.9,2
			c1.2,0.8,2.2,1.8,3.1,3c0.9,1.1,1.6,2.4,2.1,3.8c0.5,1.4,0.8,2.8,0.8,4.4C449.5,49.1,448.9,51.5,447.7,53.4 M560.9,60
			c-0.5-0.1-0.9-0.3-1.2-0.6c-0.3-0.3-0.5-0.6-0.5-1V35c0-3.6-0.8-6.6-2.5-8.9c-1.6-2.3-4-3.4-7.1-3.4c-1.4,0-2.8,0.3-4.1,0.8
			s-2.5,1.3-3.7,2.1c-1.1,0.9-2.1,1.8-3,2.8c-0.9,1-1.6,2-2.2,2.9l-0.2-0.1v-8.6H536l-10.5,3.7V27c0.6,0.3,1.3,0.6,1.9,0.9
			c0.6,0.4,1.2,0.7,1.7,0.9c0.4,0.3,0.6,0.5,0.7,0.7c0.1,0.2,0.1,0.5,0.1,1v27.5c0,0.9-0.4,1.5-1.3,1.8c-0.9,0.4-1.9,0.6-3.1,0.7
			v0.8h15.4v-0.8c-0.5-0.1-1-0.2-1.5-0.2c-0.5,0-0.9-0.1-1.3-0.2c-0.4-0.1-0.7-0.3-1-0.5c-0.3-0.2-0.4-0.6-0.6-1.2V32.2
			c1.4-1.4,2.7-2.5,3.9-3.3c1.2-0.7,2.6-1.1,4.4-1.1c2.8,0,4.7,1,5.9,2.8c1.2,1.9,1.8,4.4,1.8,7.5v20.1c0,0.9-0.4,1.4-1.3,1.6
			s-2,0.4-3.4,0.5v0.9H564v-0.7c-0.5,0-1-0.1-1.6-0.2C561.9,60.3,561.3,60.2,560.9,60 M522.9,55.4c-0.6,0.5-1.5,0.8-2.7,0.8
			c-1.1,0-2-0.4-2.8-1.1c-0.8-0.8-1.2-2.4-1.2-4.7c0-1.8,0-3.5,0-5c0-1.5,0-3,0-4.4c0-1.4,0-2.9,0-4.5c0-1.5,0-3.3,0-5.2
			c0-0.9,0-1.8-0.1-2.8c0-0.9-0.2-1.6-0.4-2c-0.5-1.1-1.4-1.9-2.6-2.7c-1.2-0.7-2.5-1.1-3.9-1.1c-0.7,0-1.6,0.2-2.7,0.5
			c-1.1,0.3-2.3,0.7-3.6,1.3c-1.3,0.5-2.7,1.2-4.1,1.9c-1.4,0.7-2.8,1.5-4.2,2.3c-0.4,0.3-0.9,0.6-1.5,0.9c-0.6,0.3-1.1,0.7-1.6,1.1
			c-0.5,0.4-0.9,0.9-1.2,1.4c-0.3,0.5-0.5,1.1-0.5,1.8c0,0.8,0.3,1.5,0.9,2.1c0.6,0.6,1.3,0.9,2.2,0.9c0.9,0,1.7-0.3,2.5-0.9
			c0.8-0.6,1.2-1.3,1.2-2v-3.6c0-0.3,0.2-0.7,0.6-1.2c0.4-0.5,0.9-0.9,1.5-1.4c0.6-0.5,1.4-0.8,2.2-1.1c0.8-0.3,1.7-0.4,2.5-0.4
			c1.3,0,2.3,0.2,3.1,0.5c0.8,0.3,1.4,0.7,1.9,1.2c0.5,0.4,0.8,0.8,1,1.2c0.2,0.4,0.3,0.7,0.3,0.8v8.2c-0.5,0.3-1.2,0.7-2,1.1
			c-0.8,0.4-1.7,0.9-2.7,1.4s-2.2,1.2-3.5,2c-1.4,0.8-2.9,1.8-4.7,2.9c-1.8,1.1-3.2,2.4-4.4,3.8c-1.2,1.4-1.8,2.8-1.8,4.3
			c0,1.4,0.2,2.6,0.7,3.5c0.5,1,1,1.7,1.8,2.4c0.7,0.6,1.5,1,2.4,1.3c0.9,0.2,1.7,0.4,2.6,0.4c1.4,0,2.8-0.2,3.9-0.7
			c1.2-0.5,2.3-1,3.3-1.8c1-0.7,1.8-1.5,2.6-2.4c0.7-0.9,1.3-1.6,1.7-2.3l0.2,0.1c0,2.7,0.7,4.5,2.1,5.6c1.4,1.1,3,1.6,4.8,1.6
			c1.1,0,2.2-0.2,3.1-0.6c0.9-0.4,1.7-1,2.4-1.8c0.7-0.8,1.2-1.6,1.7-2.6c0.4-1,0.7-1.9,0.7-3h-0.5
			C523.8,54.3,523.4,54.9,522.9,55.4 M509.7,51.9c0,0.9-0.3,1.7-1,2.2c-0.9,0.9-1.9,1.5-2.9,1.8c-1.1,0.3-2.3,0.5-3.7,0.5
			c-1.5,0-2.8-0.6-3.7-1.7c-1-1.1-1.4-2.4-1.4-3.8c0-1.4,0.5-2.6,1.5-3.7c1-1.1,2.2-2.1,3.5-3c1.4-0.9,2.8-1.7,4.2-2.5
			c1.4-0.8,2.6-1.5,3.6-2.2V51.9z M634.3,42.8c-1.7-1.9-3.7-3.1-6.1-3.7c-1-0.3-2.2-0.5-3.6-0.8c-1.4-0.3-2.7-0.6-3.8-0.8
			c-1.7-0.4-3.1-1.1-4.2-1.9c-1.1-0.9-1.7-2.3-1.7-4.2c0-1.2,0.2-2.3,0.6-3.2c0.4-0.9,1-1.7,1.6-2.3c0.7-0.6,1.4-1.1,2.3-1.4
			c0.9-0.3,1.8-0.5,2.7-0.5c1.5,0,2.8,0.3,4,0.8c1.1,0.5,2.2,1.3,3.1,2.3c0.9,1,1.7,2.2,2.5,3.5c0.8,1.4,1.5,2.8,2.2,4.4l0.6-0.2
			l-1-9.9c-1.5-0.6-3.2-1.1-4.9-1.5c-1.7-0.4-3.7-0.6-5.9-0.6c-1.8,0-3.4,0.3-4.9,0.8c-1.5,0.5-2.9,1.2-4.1,2.2
			c-1.2,1-2.1,2.1-2.8,3.4c-0.7,1.3-1,2.8-1,4.5c0,2.4,0.6,4.4,1.9,6.1c1.2,1.7,2.9,2.9,4.9,3.6c1.1,0.4,2.3,0.7,3.6,1
			c1.3,0.3,2.7,0.6,4.1,0.9c1.8,0.4,3.2,1.1,4.3,2.2c1,1.1,1.6,2.5,1.6,4.1c0,3-0.7,5.3-2.3,6.7c-1.5,1.5-3.5,2.2-6.1,2.2
			c-1.7,0-3.3-0.4-4.5-1.2c-1.3-0.8-2.4-1.8-3.3-2.9c-0.9-1.2-1.7-2.5-2.3-3.9c-0.6-1.4-1.2-2.8-1.6-4h-0.6V59
			c1.8,0.8,3.7,1.4,5.7,1.8c2.1,0.4,4.3,0.6,6.6,0.6c2,0,3.8-0.2,5.6-0.6c1.8-0.4,3.4-1.1,4.8-2.1c1.4-1,2.5-2.2,3.3-3.7
			c0.8-1.5,1.2-3.3,1.2-5.4C636.8,46.9,636,44.6,634.3,42.8 M600.7,55.1V3.3H600l-12.7,3.5v0.5l6.5,2.5v6.8c0,1.4,0,2.9,0,4.2
			c0,1.4,0.1,2.5,0.1,3.3c-1.2-0.4-2.5-0.7-3.9-1c-1.4-0.3-2.9-0.4-4.5-0.4c-3,0-5.8,0.5-8.3,1.5c-2.5,1-4.7,2.4-6.4,4.2
			c-1.8,1.8-3.2,3.9-4.1,6.3c-1,2.4-1.5,5-1.5,7.7c0,3.1,0.4,5.8,1.3,8.2c0.9,2.4,2,4.4,3.4,6c1.4,1.6,3.1,2.8,4.9,3.6
			c1.8,0.8,3.7,1.2,5.7,1.2c3.1,0,5.7-0.6,7.9-1.9c2.1-1.3,3.9-3.2,5.5-5.9h0.1v8h0.5l11.8-3.3v-0.6c-1-0.4-2.1-0.9-3.3-1.4
			C601.9,55.8,601.1,55.4,600.7,55.1 M593.9,50.5c-0.4,2.3-1.4,4.2-3,5.7c-1.6,1.5-3.4,2.2-5.6,2.2c-2.1,0-3.9-0.5-5.5-1.4
			c-1.6-1-2.9-2.2-4-3.8c-1.1-1.6-1.9-3.4-2.4-5.4c-0.5-2.1-0.8-4.2-0.8-6.3c0-2.2,0.2-4.3,0.7-6.4c0.4-2.1,1.1-3.9,2.1-5.5
			c1-1.6,2.2-2.9,3.6-3.8c1.5-1,3.2-1.4,5.3-1.4c1.5,0,3.2,0.7,5,2c1.8,1.3,3.3,3.1,4.5,5.3V50.5z">
   </path>
  </g>
  <g>
   <g>
    <g class="st1">
     <g>
      <g>
       <path class="st2" d="M382.4,61.7h13.2v-3.1c-4.4-1.2-8.7-2.3-13.2-3.4V61.7z M353.5,61.7h13.2v-10c-4.3-0.9-8.7-1.8-13.2-2.6
							V61.7z M7,57.7c5.9,3.3,12.4,4.9,18.9,4.9c11.2,0,19.5-4.9,21.7-13.9C33.6,51.4,20.1,54.3,7,57.7 M324.6,61.7h13.2V46.3
							c-4.4-0.7-8.7-1.4-13.2-2V61.7z M89.2,42.1c-1.3,5.7-5.8,9.3-11,9.3c-4.2,0-7.9-2.4-9.8-6.3c-4.9,0.8-9.7,1.6-14.5,2.4v28
							h13.2V55.7c3.1,3.7,7.5,6.9,14.5,6.9c10.5,0,20.3-7.8,21.1-22.1C98.1,41,93.6,41.5,89.2,42.1 M274.6,45.3
							c0,10.7,5.8,17.3,15.8,17.3c6.7,0,10.6-3.6,13.6-7.5v6.6h13.2V43.2c-4.4-0.6-8.8-1.1-13.2-1.7c-0.1,6-3.3,9-8.2,9
							c-5,0-8-3.2-8-9.4v-1.3c-4.4-0.4-8.8-0.8-13.2-1.2V45.3z M107.4,40c0.6,13.5,10.7,22.8,24.2,22.8c8.4,0,14.7-3.3,19-8.7
							l-7.6-6.7c-3.6,3.4-6.8,4.8-11.3,4.8c-5.9,0-10.1-3.1-11.4-9.1h32.3c0.1-1.2,0.2-2.4,0.2-3.5c0-1.1-0.1-2.2-0.2-3.2
							C137.3,37.2,122.2,38.4,107.4,40 M240.5,61.7h13.2V44.6c0-2.8,0.4-5.3,1-7.4c-4.7-0.3-9.4-0.6-14.2-0.8V61.7z M157.4,36.2
							c-0.1,0.8-0.1,1.6-0.1,2.4v0.2c0,13.3,10.2,24,24.2,24c9.3,0,14.5-3.6,19-8.5l-7.7-7.8c-3.2,3-6.2,4.9-10.7,4.9
							c-7.2,0-11.8-5.7-11.8-12.8v-0.2c0-0.9,0.1-1.9,0.3-2.7C166.1,35.8,161.8,36,157.4,36.2 M208.9,35.4v13.2
							c0,10.8,5.5,14,13.5,14c4.4,0,7.6-1,10.4-2.7V49.2c-1.9,1-4.1,1.7-6.5,1.7c-3,0-4.3-1.5-4.3-4.5V35.5c-1.5,0-3-0.1-4.5-0.2
							H208.9z">
       </path>
       <path class="st2" d="M152.8,36.4c0,0.5,0.1,0.9,0.1,1.4C152.9,37.3,152.8,36.9,152.8,36.4L152.8,36.4z M274.6,15.2v23.4
							c4.4,0.4,8.8,0.8,13.2,1.2V15.2H274.6z M304,15.2v25.9c0,0.1,0,0.3,0,0.4c4.4,0.5,8.8,1.1,13.2,1.7v-28H304z M67.1,21.9v-6.7
							H53.9v32.3c4.8-0.9,9.6-1.7,14.5-2.4c-0.9-1.9-1.5-4.1-1.5-6.6v-0.2c0-7.7,5.1-12.8,11.3-12.8c6.2,0,11.4,5.1,11.4,12.8v0.2
							c0,1.3-0.2,2.4-0.4,3.5c4.5-0.6,9-1.1,13.5-1.6c-0.1,0.9,0.1-0.3,0.1-1.9v-0.2c0-15.5-10.3-24-21.2-24
							C74.7,14.4,70.3,17.6,67.1,21.9 M130.3,25c5.6,0,9,4,9.8,9.9h-19.9C121.3,28.9,124.9,25,130.3,25 M107.3,38.6v0.2
							c0,0.4,0,0.8,0,1.3c14.8-1.6,29.9-2.8,45.4-3.6c-1.1-11.9-8.2-22-22.5-22C116.8,14.4,107.3,25.3,107.3,38.6 M157.4,36.2
							c4.4-0.2,8.7-0.4,13.2-0.5c1.1-5.6,5.3-9.9,11-9.9c4.7,0,7.6,2,10.6,5.1l8.1-8.7c-4.4-4.9-9.8-7.8-18.6-7.8
							C168.3,14.4,158.5,24,157.4,36.2 M364.6,21.7c-2.4-4.7-7-7.4-13.1-7.4c-6.7,0-10.7,3.6-13.7,7.5v-6.6h-13.2v29
							c4.4,0.6,8.8,1.3,13.2,2V35.8c0-6.2,3-9.5,8-9.5c4.9,0,7.7,3.2,7.7,9.5v13.3c4.4,0.8,8.8,1.7,13.2,2.6V35.8c0-6.2,3-9.5,8-9.5
							c4.9,0,7.7,3.2,7.7,9.5v19.4c4.4,1.1,8.8,2.2,13.2,3.4V31.5c0-11.2-5.9-17.1-15.7-17.1C373.5,14.4,368.7,17,364.6,21.7
							 M253.7,24.6v-9.4h-13.2v21.1c4.8,0.2,9.5,0.5,14.2,0.8c2-6.1,6.6-9,13.1-9h0.7V14.4c-0.3,0-0.6,0-0.9,0
							C260.4,14.4,256.3,18.4,253.7,24.6 M208.9,3.4v11.9h-5.6v11.3h5.6v8.9h8.7c1.5,0.1,3,0.1,4.5,0.2v-9H233V15.2h-10.9V3.4H208.9
							z M2.6,18.5v0.2c0,12.1,7.9,15.4,20.1,18.6c10.1,2.6,12.2,4.3,12.2,7.7v0.2c0,3.6-3.3,5.7-8.8,5.7c-6.9,0-12.7-2.9-18.1-7.4
							l-7.9,9.5c2.1,1.9,4.4,3.5,6.8,4.8c13.1-3.4,26.7-6.3,40.6-9c0.4-1.5,0.6-3.2,0.6-4.9v-0.2c0-10.6-6.9-15-19.3-18.2
							c-10.5-2.7-13.1-4-13.1-8v-0.2c0-2.9,2.7-5.3,7.8-5.3c5.1,0,10.4,2.3,15.8,6l6.9-10.1c-6.2-4.9-13.7-7.7-22.5-7.7
							C11.4,0.2,2.6,7.4,2.6,18.5">
       </path>
      </g>
     </g>
    </g>
   </g>
   <g>
    <defs>
     <path id="SVGID_1_" d="M382.2,61.6h13.2v-3.1c-4.3-1.2-8.7-2.3-13.2-3.4V61.6z M353.3,61.6h13.2v-10c-4.3-0.9-8.7-1.8-13.2-2.6
					V61.6z M6.8,57.5c5.9,3.3,12.4,4.9,18.9,4.9c11.2,0,19.5-4.9,21.7-13.9C33.5,51.2,19.9,54.2,6.8,57.5 M324.4,61.6h13.2V46.1
					c-4.4-0.7-8.7-1.4-13.2-2V61.6z M89,42c-1.3,5.7-5.8,9.3-11,9.3c-4.2,0-7.9-2.4-9.8-6.3c-4.9,0.8-9.7,1.6-14.5,2.4v28h13.2V55.5
					c3.1,3.7,7.5,6.9,14.5,6.9c10.5,0,20.3-7.8,21.1-22.1C98,40.9,93.5,41.4,89,42 M274.4,45.2c0,10.7,5.8,17.3,15.8,17.3
					c6.7,0,10.6-3.5,13.6-7.5v6.6H317V43.1c-4.4-0.6-8.8-1.1-13.2-1.7c-0.1,6-3.3,9-8.2,9c-5,0-8-3.2-8-9.4v-1.3
					c-4.4-0.4-8.8-0.8-13.2-1.2V45.2z M107.2,39.8c0.6,13.5,10.7,22.8,24.2,22.8c8.4,0,14.7-3.3,19-8.7l-7.5-6.7
					c-3.6,3.4-6.8,4.8-11.3,4.8c-5.9,0-10.1-3.1-11.4-9.1h32.3c0.1-1.2,0.2-2.4,0.2-3.5c0-1.1-0.1-2.2-0.2-3.2
					C137.2,37,122,38.3,107.2,39.8 M240.4,61.6h13.2V44.4c0-2.8,0.4-5.3,1-7.4c-4.7-0.3-9.4-0.6-14.2-0.8V61.6z M157.2,36
					c-0.1,0.8-0.1,1.6-0.1,2.4v0.2c0,13.3,10.2,24,24.2,24c9.3,0,14.5-3.6,19-8.5l-7.7-7.8c-3.2,3-6.2,4.9-10.7,4.9
					c-7.2,0-11.8-5.7-11.8-12.8v-0.2c0-0.9,0.1-1.9,0.3-2.7C166,35.6,161.6,35.8,157.2,36 M208.7,35.2v13.2c0,10.8,5.5,14,13.5,14
					c4.4,0,7.6-1,10.4-2.7V49.1c-1.9,1-4.1,1.7-6.5,1.7c-2.9,0-4.3-1.5-4.3-4.5V35.4c-1.5,0-3-0.1-4.5-0.2H208.7z">
     </path>
    </defs>
    <clipPath id="SVGID_2_">
     <use href="#SVGID_1_" style="overflow:visible;">
     </use>
    </clipPath>
    <linearGradient id="SVGID_3_" gradientUnits="userSpaceOnUse" x1="-122.9546" y1="2.3926" x2="-120.5789" y2="2.3926" gradientTransform="matrix(0 -13.3436 -13.3436 0 233.0214 -1573.1815)">
     <stop offset="0" style="stop-color:#00BFF2">
     </stop>
     <stop offset="0.1667" style="stop-color:#00BFF2">
     </stop>
     <stop offset="0.6219" style="stop-color:#0083C7">
     </stop>
     <stop offset="0.8765" style="stop-color:#0066B2">
     </stop>
     <stop offset="1" style="stop-color:#0066B2">
     </stop>
    </linearGradient>
    <rect x="6.8" y="35.2" class="st3" width="388.6" height="40.2">
    </rect>
   </g>
   <g>
    <defs>
     <path id="SVGID_4_" d="M152.6,36.2c0,0.5,0.1,0.9,0.1,1.4C152.7,37.1,152.7,36.7,152.6,36.2L152.6,36.2z M274.4,15.1v23.4
					c4.4,0.4,8.8,0.8,13.2,1.2V15.1H274.4z M303.8,15.1V41c0,0.1,0,0.3,0,0.4c4.4,0.5,8.8,1.1,13.2,1.7v-28H303.8z M66.9,21.8v-6.7
					H53.8v32.3c4.8-0.9,9.6-1.7,14.5-2.4c-0.9-1.9-1.5-4.1-1.5-6.6v-0.2c0-7.7,5.1-12.8,11.3-12.8c6.2,0,11.4,5.1,11.4,12.8v0.2
					c0,1.3-0.1,2.4-0.4,3.5c4.5-0.6,9-1.1,13.5-1.6c-0.1,0.9,0.1-0.3,0.1-1.9v-0.2c0-15.5-10.3-24-21.2-24
					C74.6,14.2,70.2,17.4,66.9,21.8 M130.2,24.8c5.6,0,9,4,9.8,9.9h-19.9C121.1,28.7,124.7,24.8,130.2,24.8 M107.2,38.4v0.2
					c0,0.4,0,0.8,0.1,1.3c14.8-1.6,29.9-2.8,45.4-3.6c-1.1-11.9-8.2-22-22.5-22C116.6,14.2,107.2,25.1,107.2,38.4 M157.2,36
					c4.4-0.2,8.7-0.4,13.2-0.5c1.1-5.6,5.3-9.9,11-9.9c4.7,0,7.6,2,10.6,5.1l8.1-8.7c-4.4-4.9-9.8-7.8-18.6-7.8
					C168.1,14.2,158.4,23.9,157.2,36 M364.4,21.6c-2.4-4.7-7-7.4-13.1-7.4c-6.7,0-10.7,3.6-13.7,7.5v-6.6h-13.2v29
					c4.4,0.6,8.8,1.3,13.2,2V35.6c0-6.2,3-9.5,8-9.5c4.9,0,7.7,3.2,7.7,9.5v13.3c4.4,0.8,8.8,1.7,13.2,2.6V35.6c0-6.2,3-9.5,8-9.5
					c4.9,0,7.7,3.2,7.7,9.5v19.4c4.4,1.1,8.8,2.2,13.2,3.4V31.3c0-11.2-5.9-17.1-15.7-17.1C373.4,14.2,368.5,16.8,364.4,21.6
					 M253.6,24.4v-9.4h-13.2v21.1c4.8,0.2,9.5,0.5,14.2,0.8c2-6.1,6.6-9,13.1-9h0.7V14.2c-0.3,0-0.6,0-0.9,0
					C260.2,14.2,256.1,18.3,253.6,24.4 M208.7,3.2v11.9h-5.6v11.3h5.6v8.9h8.7c1.5,0,3,0.1,4.5,0.2v-9h10.9V15.1h-10.9V3.2H208.7z
					 M2.4,18.3v0.2c0,12.1,7.9,15.4,20.1,18.6c10.1,2.6,12.2,4.3,12.2,7.7v0.2c0,3.6-3.3,5.7-8.8,5.7c-6.9,0-12.7-2.9-18.1-7.4
					L0,52.7c2.1,1.9,4.4,3.5,6.8,4.8c13.1-3.4,26.7-6.3,40.6-9c0.4-1.5,0.6-3.2,0.6-4.9v-0.2c0-10.6-6.9-15-19.2-18.2
					c-10.5-2.7-13.1-4-13.1-8v-0.2c0-2.9,2.7-5.3,7.8-5.3c5.1,0,10.4,2.3,15.8,6l6.9-10.1C40.1,2.8,32.5,0,23.7,0
					C11.3,0,2.4,7.3,2.4,18.3">
     </path>
    </defs>
    <clipPath id="SVGID_5_">
     <use xlink:href="#SVGID_4_" style="overflow:visible;">
     </use>
    </clipPath>
    <linearGradient id="SVGID_6_" gradientUnits="userSpaceOnUse" x1="-120.9606" y1="0.643" x2="-118.5849" y2="0.643" gradientTransform="matrix(0 -14.3376 -14.3376 0 206.9132 -1698.1151)">
     <stop offset="0" style="stop-color:#00BFF2">
     </stop>
     <stop offset="0.1127" style="stop-color:#00BFF2">
     </stop>
     <stop offset="0.4002" style="stop-color:#00A0DC">
     </stop>
     <stop offset="0.8766" style="stop-color:#0066B2">
     </stop>
     <stop offset="1" style="stop-color:#0066B2">
     </stop>
    </linearGradient>
    <rect class="st4" width="395.4" height="58.4">
    </rect>
   </g>
  </g>
 </g>
</svg>