<svg version="1.1" id="Layer_1" xmlns:x="ns_extend;" xmlns:i="ns_ai;" xmlns:graph="ns_graphs;" xmlns="http://www.w3.org/2000/svg" xmlns:xlink="http://www.w3.org/1999/xlink" x="0px" y="0px" viewBox="0 0 442 100" style="enable-background:new 0 0 442 100;" xml:space="preserve">
 <style type="text/css">
  .st0{fill:#14428A;}
	.st1{fill:#EC7623;}
 </style>
 <metadata>
  <sfw xmlns="ns_sfw;">
   <slices>
   </slices>
   <sliceSourceBounds bottomLeftOrigin="true" height="100" width="442" x="-32.5" y="-307.8">
   </sliceSourceBounds>
  </sfw>
 </metadata>
 <g>
  <path class="st0" d="M60.1,0.2l10.6,10.7v36.7c-0.1,0.3-0.4,0.5-0.7,0.6l-6.7-0.1l-0.7-0.3L51.9,37.1L51.1,35l-4.3-12.4l0,0
		l-0.1,0.1l0,42.1h5.4l0.2,0l10.9,11c0.1,3.8,0.1,7.7,0,11.6c-0.2,0.3-0.4,0.5-0.8,0.6H46.5c1.1,1.9,1.6,4.5,0.9,6.7
		c-0.7,2.5-3.1,4.7-5.5,5.3c-2.5,0.5-4.9,0-6.8-1.5L24.6,87.8l-7.6,0l-0.4-0.2L6.1,76.9V65.2c0.1-0.2,0.2-0.4,0.5-0.5h15.3h0.8
		l-0.1-28l-3.7,10.6c-0.2,0.5-0.7,0.8-1.1,0.9l-6.7,0.1l-0.2,0l-0.1-0.1l-0.2-0.1L0.1,37.4l0,0l0-0.1L0,0.4C0.1,0.2,0.4,0.1,0.6,0
		l59,0L60.1,0.2z">
  </path>
  <path class="st0" d="M66.1,85.4h0.4c0.2,0,0.6,0,0.6-0.4c0-0.1,0-0.2-0.2-0.3c-0.1,0-0.2,0-0.5,0h-0.3V85.4z M66.5,84.3
		c0.3,0,0.4,0,0.6,0.1c0.3,0.1,0.4,0.4,0.4,0.6c0,0.3-0.2,0.5-0.5,0.6c0.2,0.1,0.3,0.2,0.4,0.5c0.1,0.4,0.1,0.5,0.2,0.8H67
		c0,0-0.1-0.1-0.1-0.4c0-0.1,0-0.3-0.1-0.4c-0.1-0.4-0.2-0.4-0.6-0.4h-0.2v1.2h-0.5v-2.6H66.5z M66.5,83.8c-1.1,0-1.9,0.8-1.9,1.9
		c0,1.1,0.8,1.9,1.9,1.9c1.1,0,1.9-0.8,1.9-1.9C68.4,84.6,67.6,83.8,66.5,83.8 M66.5,87.7c-1.1,0-2.1-0.8-2.1-2.1
		c0-1.2,0.9-2.1,2.1-2.1c1.2,0,2.1,0.9,2.1,2.1C68.6,86.8,67.7,87.7,66.5,87.7">
  </path>
  <path class="st1" d="M29.2,83.9c-1.3,0-2.3-1-2.3-2.3c0-1.3,1-2.3,2.3-2.3c1.3,0,2.3,1,2.3,2.3C31.6,82.9,30.5,83.9,29.2,83.9
		 M53,36.1h5.6V1.4H1.2v34.6h5.6l9-25.7l0.4-0.4h7.4l0.3,0.4l0,55.2l-0.4,0.5l-16.2,0l0,9.6l17.4,0l0,0c0.6,0.5,0.4,1,0,1.4
		c-1.2,1.2-1.9,2.8-1.9,4.6c0,3.5,2.8,6.3,6.3,6.3c3.5,0,6.3-2.8,6.3-6.3c0-1.8-0.7-3.4-1.9-4.6c-0.4-0.4-0.6-0.9,0.1-1.4l0,0
		l17.5,0v-9.6H35l-0.5-0.5V10.3L35,9.9h8.6l0.4,0.3">
  </path>
  <polygon class="st0" points="93.2,36.7 94.4,28.9 129.8,28.9 128.5,36.7 115.2,36.7 109.7,71.1 101,71.1 106.5,36.7 	">
  </polygon>
  <polygon class="st0" points="138.4,71.1 129.8,71.1 136.5,28.9 145.1,28.9 	">
  </polygon>
  <path class="st0" d="M155.4,63.3h8.6c4.7,0,8.3-1.4,11-4.2c2.6-2.8,3.9-6.5,3.9-10.9c0-3.3-1.1-6-3.3-8.2c-2.2-2.2-5.2-3.4-8.7-3.4
		h-7.2L155.4,63.3z M152.2,28.9h14.3c6.4,0,11.6,1.8,15.5,5.5c3.9,3.6,5.8,8.3,5.8,14.2c0,6.5-2.3,11.9-6.9,16.1
		c-4.6,4.3-10.5,6.4-17.7,6.4h-17.6L152.2,28.9z">
  </path>
  <polygon class="st0" points="221.5,71.1 189.9,71.1 196.6,28.9 227.5,28.9 226.3,36.7 204,36.7 202.7,44.8 220.6,44.8 219.4,52.5 
		201.5,52.5 199.8,63.3 222.7,63.3 	">
  </polygon>
  <polygon class="st0" points="246,56.7 260.6,28.8 269.2,28.8 272.1,56.7 288.3,28.9 297.9,28.9 273.6,71.3 265.1,71.3 262,44.8 
		248.3,71.3 239.7,71.3 232.2,28.9 241.6,28.9 	">
  </polygon>
  <path class="st0" d="M314.3,54.2l-3.7-14.6l-8.4,14.6H314.3z M327.7,71.1h-9l-2.5-9.8h-18l-5.5,9.8h-9.3L308,28.7h8.3L327.7,71.1z">
  </path>
  <polygon class="st0" points="395.7,71.1 364.1,71.1 370.8,28.9 401.7,28.9 400.5,36.7 378.2,36.7 376.9,44.8 394.9,44.8 
		393.6,52.5 375.7,52.5 374,63.3 396.9,63.3 	">
  </polygon>
  <path class="st0" d="M415.7,46.7H426c2,0,3.6-0.5,4.8-1.5c1.3-1,1.9-2.4,1.9-4.1c0-1.4-0.5-2.6-1.5-3.4c-1-0.8-2.4-1.2-4.2-1.2
		h-9.8L415.7,46.7z M431.5,53.1l10.5,18h-9.8l-9.9-17h-7.8l-2.7,17h-8.7l6.7-42.1h18.4c4.1,0,7.4,1.1,9.8,3.2
		c2.4,2.1,3.6,4.8,3.6,8.1c0,3-0.9,5.6-2.7,7.9C437.1,50.4,434.6,52,431.5,53.1">
  </path>
  <polygon class="st0" points="327.7,36.7 328.9,28.9 364.3,28.9 363.1,36.7 349.7,36.7 344.2,71.1 335.5,71.1 341,36.7 	">
  </polygon>
 </g>
</svg>