<svg version="1.1" id="Layer_1" xmlns:x="ns_extend;" xmlns:i="ns_ai;" xmlns:graph="ns_graphs;" xmlns="http://www.w3.org/2000/svg" xmlns:xlink="http://www.w3.org/1999/xlink" x="0px" y="0px" viewBox="0 0 627.7 100" style="enable-background:new 0 0 627.7 100;" xml:space="preserve">
 <style type="text/css">
  .st0{filter:url(#Adobe_OpacityMaskFilter);}
	.st1{fill-rule:evenodd;clip-rule:evenodd;fill:#FFFFFF;}
	.st2{mask:url(#mask-2_2_);fill-rule:evenodd;clip-rule:evenodd;fill:#8B2434;}
	.st3{fill:#8B2434;}
 </style>
 <metadata>
  <sfw xmlns="ns_sfw;">
   <slices>
   </slices>
   <sliceSourceBounds bottomLeftOrigin="true" height="100" width="627.7" x="-447.6" y="60.7">
   </sliceSourceBounds>
  </sfw>
 </metadata>
 <desc>
  Created with Sketch.
 </desc>
 <g id="Transmedics_Branding_White" transform="translate(33.000000, 24.000000)">
  <g id="Group-3" transform="translate(0.000000, 1.000000)">
   <g id="Fill-1-Clipped">
    <g id="path-1_1_">
    </g>
    <defs>
     <filter id="Adobe_OpacityMaskFilter" filterUnits="userSpaceOnUse" x="-33" y="-24" width="113" height="99">
      <feColorMatrix type="matrix" values="1 0 0 0 0  0 1 0 0 0  0 0 1 0 0  0 0 0 1 0">
      </feColorMatrix>
     </filter>
    </defs>
    <mask maskUnits="userSpaceOnUse" x="-33" y="-24" width="113" height="99" id="mask-2_2_">
     <g class="st0">
      <polygon id="path-1_3_" class="st1" points="-32.8,-24 80,-24 80,75 -32.8,75 					">
      </polygon>
     </g>
    </mask>
    <path id="Fill-1_1_" class="st2" d="M29.9-5.8l28.7,0c3.8,0,6.8,3,6.8,6.6c0,3.7-3.1,6.6-6.8,6.6l-14.5,0
				c-7.6,0-13.7,5.9-13.7,13.3l0,39.8c0,3.7-3.1,6.6-6.9,6.6h-0.3c-3.8,0-6.8-3-6.8-6.6l0-39.8c0-7.3-6.1-13.3-13.7-13.3l-14.5,0
				c-3.8,0-6.9-3-6.9-6.6c0-3.7,3.1-6.6,6.9-6.6l28.8,0v0C14.2-16.3,4.3-24-7.4-24C-20.8-24-32-13.8-32.9-0.8c0,0-0.1,1.7-0.1,1.7
				c0,0,0.2,51.6,0.2,51.6c0,8,6.7,14.5,15,14.5c8.3,0,15-6.5,15-14.5c0,0,0.1-31.8,0.1-31.8c0-3,2.5-5.4,5.5-5.4
				c3.1,0,5.5,2.4,5.5,5.4l0,39.8c0,8,6.7,14.5,15,14.5h0.3c8.3,0,15-6.5,15-14.5l0-39.8c0-3,2.5-5.4,5.5-5.4c3.1,0,5.5,2.4,5.5,5.4
				c0,0,0.1,31.8,0.1,31.8c0,8,6.7,14.5,15,14.5s15-6.5,15-14.5c0,0,0.2-51.6,0.2-51.6c0,0-0.1-1.5-0.1-1.6
				C79-13.7,67.8-23.8,54.4-23.8C42.8-23.8,33-16.2,29.9-5.8">
    </path>
   </g>
  </g>
  <path id="Fill-4" d="M146.8,31v32.2h11.9V38.5c0-1.3,0.1-2.5,0.3-3.6c1.1-5.5,5-9.1,10.6-9.1c1.5,0,2.5,0.1,3.6,0.3V14.9
		c-1-0.2-1.6-0.3-2.8-0.3c-5.1,0-10.6,3.4-12.9,10.1h-0.3l-0.5-9h-10.2C146.7,19.9,146.8,24.5,146.8,31z M202.3,40
		c-8.4-0.1-16.4,1.7-16.4,8.9c0,4.7,3,6.8,6.8,6.8c4.8,0,8.2-3.1,9.4-6.5c0.3-0.9,0.3-1.8,0.3-2.6V40z M213.9,51.8
		c0,4.3,0.2,8.5,0.8,11.4H204l-0.9-5.3h-0.3c-2.8,3.7-7.7,6.3-13.9,6.3c-9.5,0-14.8-6.9-14.8-14.2c0-11.9,10.5-18.1,27.9-18v-0.8
		c0-3.1-1.3-8.3-9.6-8.3c-4.6,0-9.5,1.5-12.7,3.5l-2.3-7.8c3.5-2.1,9.6-4.2,17-4.2c15.1,0,19.4,9.7,19.4,20.1V51.8z M222.6,29.8
		c0-5.5-0.2-10.1-0.4-14.2h10.3l0.6,7.1h0.3c2.1-3.7,7.2-8.2,15.1-8.2c8.2,0,16.7,5.4,16.7,20.4v28.2h-11.9V36.4c0-6.8-2.5-12-9-12
		c-4.7,0-8,3.4-9.3,7c-0.4,1-0.6,2.4-0.6,3.8v28h-11.9V29.8z M273.5,52.1c2.6,1.7,7.7,3.5,12,3.5c5.2,0,7.5-2.2,7.5-5.4
		c0-3.2-1.9-4.8-7.7-6.9c-9.2-3.1-12.9-8.2-12.9-13.9c0-8.4,6.9-14.8,17.8-14.8c5.2,0,9.8,1.3,12.6,2.8l-2.4,8.4
		c-1.9-1.2-5.8-2.7-10-2.7c-4.3,0-6.6,2.1-6.6,5.1c0,3,2.2,4.4,8.2,6.6c8.6,3,12.5,7.4,12.6,14.5c0,8.7-6.7,14.9-19.1,14.9
		c-5.7,0-10.8-1.4-14.3-3.3L273.5,52.1z M366.3,36.4c-0.4-8.5-0.9-18.7-0.8-27.6h-0.3c-2.1,8-4.8,16.9-7.7,25.2L348,62.4h-9.1
		l-8.7-28.1c-2.5-8.4-4.8-17.4-6.6-25.6h-0.2c-0.3,8.6-0.7,19-1.2,28l-1.5,26.5h-11.1L314-3.9h15.3l8.9,27.7
		c2.3,7.7,4.3,15.5,6,22.8h0.3c1.7-7.1,4-15.2,6.5-22.9l9.3-27.6h14.9l3.9,67.1h-11.6L366.3,36.4z M416,34.4
		c0.1-4.4-1.8-11.6-9.8-11.6c-7.3,0-10.4,6.7-10.9,11.6H416z M395.3,42.8c0.3,8.6,7,12.3,14.5,12.3c5.5,0,9.4-0.9,13-2.1l1.7,8.2
		c-4.1,1.8-9.7,3-16.4,3c-15.3,0-24.3-9.5-24.3-24c0-13.2,7.9-25.6,23-25.6c15.3,0,20.3,12.7,20.3,23.1c0,2.2-0.2,4-0.4,5.1H395.3z
		 M466.3,35.5c0-1-0.1-2.2-0.3-3.2c-1.1-4.6-4.8-8.4-10.2-8.4c-7.6,0-11.9,6.8-11.9,15.6s4.3,15.1,11.8,15.1c4.8,0,9.1-3.3,10.2-8.5
		c0.3-1.1,0.4-2.2,0.4-3.5V35.5z M478.2-6.2v56c0,4.9,0.2,10.2,0.4,13.4h-10.5l-0.6-7.5h-0.2c-2.8,5.3-8.5,8.6-15.3,8.6
		c-11.3,0-20.2-9.7-20.2-24.3c-0.1-15.9,9.8-25.4,21.1-25.4c6.5,0,11.1,2.6,13.2,6.2h0.2V-6.2H478.2z M485.6,63.2h11.9V15.7h-11.9
		V63.2z M491.5,8.8c-4,0-6.6-2.9-6.6-6.4c0-3.7,2.7-6.5,6.7-6.5c4.1,0,6.6,2.8,6.7,6.5C498.3,5.9,495.7,8.8,491.5,8.8L491.5,8.8z
		 M541.1,61.7c-2.5,1.2-7.4,2.4-13.3,2.4c-14.7,0-24.2-9.6-24.2-24.3c0-14.3,9.7-25.3,26.2-25.3c4.3,0,8.8,1,11.5,2.1l-2.1,9.1
		c-1.9-1-4.7-1.9-9-1.9c-9.1,0-14.5,6.7-14.4,15.4c0,9.8,6.3,15.3,14.4,15.3c4.1,0,7-0.9,9.4-1.9L541.1,61.7z M546.9,52.1
		c2.6,1.7,7.7,3.5,12,3.5c5.2,0,7.5-2.2,7.5-5.4c0-3.2-1.9-4.8-7.7-6.9c-9.2-3.1-12.9-8.2-12.9-13.9c0-8.4,6.9-14.8,17.8-14.8
		c5.2,0,9.8,1.3,12.6,2.8l-2.4,8.4c-1.9-1.2-5.8-2.7-10-2.7c-4.3,0-6.6,2.1-6.6,5.1c0,3,2.2,4.4,8.2,6.6c8.6,3,12.5,7.4,12.6,14.5
		c0,8.7-6.7,14.9-19.1,14.9c-5.7,0-10.8-1.4-14.3-3.3L546.9,52.1z M122.9,6.4h-18.3V-4.9h49.2V6.4h-18.6v56.8h-12.3V6.4z">
  </path>
  <g id="Group-8" transform="translate(33.000000, 0.000000)">
   <path id="Fill-7" class="st3" d="M53.8-19.7c-0.3-0.2-0.9-0.3-1.6-0.3H51v2.8h1.2c0.6,0,1-0.1,1.3-0.2c0.5-0.2,0.8-0.6,0.8-1.2
			C54.3-19.1,54.2-19.5,53.8-19.7z M52.4-20.9c1,0,1.6,0.1,2.1,0.3c0.8,0.3,1.2,1,1.2,1.9c0,0.7-0.3,1.2-0.7,1.5
			c-0.3,0.2-0.6,0.3-1.1,0.4c0.6,0.1,1,0.3,1.3,0.7c0.3,0.4,0.4,0.8,0.4,1.2v0.6c0,0.2,0,0.4,0,0.6c0,0.2,0,0.3,0.1,0.4l0,0.1h-1.3
			c0,0,0-0.1,0-0.1c0,0,0-0.1,0-0.1l0-0.2v-0.6c0-0.9-0.2-1.5-0.7-1.7c-0.3-0.2-0.8-0.2-1.5-0.2H51v3h-1.4v-7.6H52.4z M48.2-21.3
			c-1.2,1.2-1.8,2.6-1.8,4.2c0,1.7,0.6,3.1,1.7,4.3c1.2,1.2,2.6,1.8,4.3,1.8c1.7,0,3.1-0.6,4.3-1.8c1.2-1.2,1.8-2.6,1.8-4.3
			c0-1.7-0.6-3.1-1.8-4.2c-1.2-1.2-2.6-1.8-4.3-1.8C50.8-23.1,49.4-22.5,48.2-21.3z M57.4-12.1c-1.4,1.4-3,2-5,2s-3.6-0.7-4.9-2
			c-1.4-1.4-2-3-2-4.9c0-1.9,0.7-3.6,2-4.9c1.4-1.4,3-2,4.9-2c1.9,0,3.6,0.7,5,2c1.4,1.4,2,3,2,4.9C59.5-15.1,58.8-13.5,57.4-12.1z">
   </path>
  </g>
  <path id="Fill-9" d="M589.3,55c-0.3-0.2-0.8-0.3-1.6-0.3h-1.1v2.7h1.2c0.5,0,1-0.1,1.2-0.2c0.5-0.2,0.8-0.6,0.8-1.2
		C589.8,55.5,589.6,55.2,589.3,55z M587.9,53.8c0.9,0,1.6,0.1,2,0.3c0.8,0.3,1.1,0.9,1.1,1.9c0,0.7-0.2,1.1-0.7,1.5
		c-0.3,0.2-0.6,0.3-1.1,0.4c0.6,0.1,1,0.3,1.3,0.7c0.3,0.4,0.4,0.8,0.4,1.1v0.5c0,0.2,0,0.4,0,0.5c0,0.2,0,0.3,0.1,0.4l0,0.1h-1.2
		c0,0,0,0,0-0.1c0,0,0-0.1,0-0.1l0-0.2v-0.6c0-0.8-0.2-1.4-0.7-1.7c-0.3-0.2-0.8-0.2-1.4-0.2h-1v2.9h-1.3v-7.4H587.9z M583.9,53.5
		c-1.1,1.1-1.7,2.5-1.7,4.1c0,1.6,0.6,3,1.7,4.1c1.1,1.1,2.5,1.7,4.1,1.7c1.6,0,3-0.6,4.1-1.7c1.1-1.1,1.7-2.5,1.7-4.1
		c0-1.6-0.6-3-1.7-4.1c-1.1-1.1-2.5-1.7-4.1-1.7C586.4,51.8,585.1,52.3,583.9,53.5z M592.8,62.3c-1.3,1.3-2.9,2-4.8,2
		c-1.9,0-3.4-0.7-4.7-2c-1.3-1.3-2-2.9-2-4.8c0-1.8,0.7-3.4,2-4.7c1.3-1.3,2.9-2,4.7-2c1.9,0,3.4,0.7,4.8,2c1.3,1.3,2,2.9,2,4.7
		C594.7,59.4,594.1,61,592.8,62.3z">
  </path>
 </g>
</svg>