<svg version="1.1" id="Layer_1" xmlns:x="ns_extend;" xmlns:i="ns_ai;" xmlns:graph="ns_graphs;" xmlns="http://www.w3.org/2000/svg" xmlns:xlink="http://www.w3.org/1999/xlink" x="0px" y="0px" viewBox="0 0 383.1 105" style="enable-background:new 0 0 383.1 105;" xml:space="preserve">
 <style type="text/css">
  .st0{fill:#004B8D;}
	.st1{clip-path:url(#SVGID_2_);fill:#7B868C;}
	.st2{clip-path:url(#SVGID_2_);fill:#004B8D;}
 </style>
 <metadata>
  <sfw xmlns="ns_sfw;">
   <slices>
   </slices>
   <sliceSourceBounds bottomLeftOrigin="true" height="105" width="383.1" x="8.7" y="-252.9">
   </sliceSourceBounds>
  </sfw>
 </metadata>
 <g>
  <rect x="184.5" y="29" class="st0" width="20.7" height="41.5">
  </rect>
  <polygon class="st0" points="177.6,29 128.3,29 124.4,35.3 124.4,35.8 142.6,35.8 142.6,70.5 163.3,70.5 163.3,35.8 181.6,35.8 
		181.6,35.3 	">
  </polygon>
  <polygon class="st0" points="212.1,29 261.5,29 265.4,35.3 265.4,35.8 247.1,35.8 247.1,70.5 226.4,70.5 226.4,35.8 208.1,35.8 
		208.1,35.3 	">
  </polygon>
  <path class="st0" d="M271.9,56.4l8.2-15.9l7.5,15.9H271.9z M290.9,63l3.9,7.6h22.4V70l-21.7-41h-20.9l-23.8,41v0.5H265l3.9-7.6
		H290.9z">
  </path>
  <polygon class="st0" points="329.3,29 361.7,51.1 361.7,29 373.2,29 373.2,70.5 362.2,70.5 330.6,49.3 330.6,70.5 319.3,70.5 
		319.3,29 	">
  </polygon>
  <g>
   <defs>
    <rect id="SVGID_1_" width="383.1" height="105">
    </rect>
   </defs>
   <clipPath id="SVGID_2_">
    <use href="#SVGID_1_" style="overflow:visible;">
    </use>
   </clipPath>
   <path class="st1" d="M38.9,29.8c14.6-6.1,29.4-10.1,42.8-11.7c0.8,0.7,1.6,1.5,2.4,2.2c-13.4,2.5-28.4,7-43.6,13.3
			C25.2,39.9,11.4,47.3,0.2,55.1c0-1.1,0.1-2.2,0.2-3.3C11,43.4,24.3,35.8,38.9,29.8">
   </path>
   <path class="st1" d="M52.4,62.5C69.6,55.3,86,48.1,98.8,41.9c0.6,2,1.1,4,1.5,6.1c-12,7.5-27.7,15.4-44.5,22.4
			C38.9,77.3,22.2,82.9,8.4,86c-1.2-1.7-2.3-3.5-3.2-5.3C18.5,76,35.2,69.6,52.4,62.5">
   </path>
   <path class="st1" d="M44.5,43.3c16.8-7,33.6-12.5,47.3-15.7c1.2,1.7,2.3,3.5,3.2,5.4c-13.3,4.7-30,11.1-47.2,18.2
			C30.6,58.3,14.3,65.6,1.5,71.7c-0.6-2-1.1-4-1.5-6.1C12,58.2,27.7,50.2,44.5,43.3">
   </path>
   <path class="st1" d="M66.1,95.3c9.5-4,18.6-8.8,26.6-14.3c-0.6,1.1-1.2,2.2-1.9,3.2c-7.2,5.2-15.3,9.6-23.9,13.2
			c-8.6,3.6-17.4,6.1-26.2,7.6c-1.3-0.2-2.5-0.6-3.6-1C46.7,102.2,56.5,99.3,66.1,95.3">
   </path>
   <path class="st1" d="M59.8,80.1c15.3-6.3,29-13.7,40.3-21.5c0,1.1-0.1,2.2-0.2,3.3c-10.6,8.3-23.9,15.9-38.5,22
			C46.7,90,31.9,94,18.6,95.6c-0.9-0.7-1.6-1.5-2.5-2.2C29.5,90.9,44.5,86.4,59.8,80.1">
   </path>
   <path class="st1" d="M33.3,16.2c8.6-3.6,17.4-6.1,26.2-7.6c1.2,0.2,2.4,0.6,3.6,0.9c-9.5,1.8-19.3,4.8-29,8.7
			c-9.5,4-18.6,8.8-26.6,14.3c0.6-1.1,1.2-2.2,1.9-3.2C16.7,24.2,24.7,19.8,33.3,16.2">
   </path>
   <path class="st2" d="M104.2,21.6c-1.3-1.8-2.7-3.5-4.2-5.2c-13.5,2.1-29.8,6.8-46.8,13.9c-17,7-31.8,15.3-42.9,23.3
			c0.1,2.2,0.3,4.4,0.7,6.6c11.7-7.4,27.4-15.4,45.2-22.8C74,30.1,90.8,24.7,104.2,21.6">
   </path>
   <path class="st2" d="M79.9,95c-9.2,3.8-18.4,6.4-27.3,7.9c9.5,1.8,19.7,0.9,29.3-3.1c9.7-4,17.4-10.5,22.9-18.5
			C97.5,86.5,89.2,91.2,79.9,95">
   </path>
   <path class="st2" d="M44.2,8.7c9.2-3.8,18.4-6.4,27.3-7.9C62-0.9,51.9,0,42.3,3.9c-9.6,4-17.4,10.5-22.9,18.5
			C26.7,17.2,35.1,12.6,44.2,8.7">
   </path>
   <path class="st2" d="M71,73.4c17-7,31.8-15.3,42.9-23.3c-0.1-2.2-0.3-4.4-0.7-6.6c-11.7,7.4-27.4,15.4-45.2,22.8
			C50.3,73.6,33.4,79.1,20,82.1c1.3,1.8,2.7,3.5,4.2,5.2C37.7,85.1,54.1,80.5,71,73.4">
   </path>
   <rect x="290.1" y="78.8" class="st1" width="12.5" height="24.9">
   </rect>
   <path class="st1" d="M351.3,95.2l4.9-9.5l4.5,9.5H351.3z M362.6,99.2l2.4,4.5h13.4v-0.3l-13-24.6h-12.5l-14.3,24.6v0.3h8.5
			l2.3-4.5H362.6z">
   </path>
   <path class="st1" d="M142.2,95.2l4.9-9.5l4.4,9.5H142.2z M153.5,99.2l2.4,4.5h13.4v-0.3l-13-24.6h-12.6l-14.2,24.6v0.3h8.5
			l2.3-4.5H153.5z">
   </path>
   <polygon class="st1" points="170.6,103.7 170.6,78.8 185.8,78.8 195.7,93.8 204.5,78.8 217.9,78.8 217.9,103.7 205.7,103.7 
			205.7,88.2 196.6,103.7 188.7,103.7 178.4,88.2 178.4,103.7 		">
   </polygon>
   <polygon class="st1" points="232.8,82.9 232.8,89.1 247.1,89.1 247.1,93.1 232.8,93.1 232.8,99.6 249,99.6 249,99.9 246.7,103.7 
			220.4,103.7 220.4,78.8 244.8,78.8 247.1,82.6 247.1,82.9 		">
   </polygon>
   <path class="st1" d="M263.9,91.3v-8.7h3.1c3.3,0,5.3,1.7,5.3,4C272.2,89.2,270.3,91.3,263.9,91.3 M266.2,95.3l9,8.5h13.7v-0.3
			l-11.8-10.5c3.4-1.4,8-2.5,8-7.3c0-6-8.3-6.8-16.7-6.8h-16.9v24.9h12.4v-9.2C263.9,94.5,265.2,94.2,266.2,95.3">
   </path>
   <path class="st1" d="M341.1,81.7l-4.9,3c0,0-4.1-2.6-9.4-2.6c-8.3,0-9.3,5.8-9.3,9.1c0,3.3,1,9.1,9.3,9.1c5.3,0,9.4-2.6,9.4-2.6
			l4.9,3c-3.9,2.2-9.3,3.6-15.1,3.6c-12.3,0-22.2-5.3-22.2-13.1c0-7.9,9.9-13.1,22.2-13.1C331.8,78.2,337.2,79.6,341.1,81.7">
   </path>
   <path class="st2" d="M379.5,29.7c2,0,3.6,1.6,3.6,3.6c0,2.1-1.6,3.6-3.6,3.6c-2,0-3.6-1.6-3.6-3.6
			C375.9,31.3,377.5,29.7,379.5,29.7 M379.5,30.3c-1.6,0-2.9,1.4-2.9,3.1c0,1.7,1.3,3.1,2.9,3.1c1.6,0,2.9-1.4,2.9-3.1
			C382.4,31.6,381.1,30.3,379.5,30.3 M378.8,35.4h-0.6v-4c0.3,0,0.6-0.1,1.1-0.1c0.6,0,1,0.1,1.3,0.3c0.2,0.2,0.4,0.5,0.4,0.8
			c0,0.5-0.4,0.9-0.8,1v0c0.3,0.1,0.6,0.4,0.7,1c0.1,0.6,0.2,0.9,0.2,1h-0.6c-0.1-0.1-0.2-0.5-0.3-1c-0.1-0.5-0.4-0.7-0.9-0.7h-0.5
			V35.4z M378.8,33.2h0.5c0.5,0,1-0.2,1-0.7c0-0.4-0.3-0.7-1-0.7c-0.2,0-0.3,0-0.5,0V33.2z">
   </path>
  </g>
 </g>
</svg>