<svg version="1.1" id="Layer_1" xmlns:x="ns_extend;" xmlns:i="ns_ai;" xmlns:graph="ns_graphs;" xmlns="http://www.w3.org/2000/svg" xmlns:xlink="http://www.w3.org/1999/xlink" x="0px" y="0px" viewBox="0 0 495.3 102" style="enable-background:new 0 0 495.3 102;" xml:space="preserve">
 <style type="text/css">
  .st0{fill:#00548E;}
	.st1{fill:#EF3E42;}
 </style>
 <metadata>
  <sfw xmlns="ns_sfw;">
   <slices>
   </slices>
   <sliceSourceBounds bottomLeftOrigin="true" height="102" width="495.3" x="-36.8" y="-255.2">
   </sliceSourceBounds>
  </sfw>
 </metadata>
 <g>
  <g>
   <path class="st0" d="M98.6,31.4C91.1,13.2,73.5,0.6,51.2,0.6c-21.4,0-38.8,12.2-46.3,29.9l26.8,10.3c0.7-1.6,2.4-6.2,4.4-9.3
			c3.7-3.8,5.5-5.2,5.5,9.3l0.9,8.4l8.8,3.2l10.3-3l0.5-7.1c0.1-3,0.8-6,0.8-8.7c0-4.3,0.5-5.7,3.5-2.7c1.1,1,2.7,2.5,4.5,4.8
			c0.9,1.3,1.7,2.9,2.4,5.2L98.6,31.4z">
   </path>
  </g>
  <g>
   <g>
    <path class="st0" d="M51.2,52.8l-9.3-3.4L41,40.7c0-7.1-0.4-10.9-1.4-11.3c-0.6-0.2-2.1,1.3-3.2,2.3c-1.5,2.3-2.9,5.8-3.7,7.8
				c-0.2,0.6-0.4,1-0.5,1.3L32,41.5L4.1,30.8l0.2-0.5C12.2,11.6,30.2,0,51.2,0c21.7,0,40.1,12,47.9,31.2l0.2,0.6l-26.6,9.7l-0.2-0.6
				c-0.8-2.2-1.5-3.8-2.4-5c-1.7-2.1-3.2-3.6-4.4-4.7c-1.6-1.6-2-1.5-2-1.4c-0.2,0.1-0.5,0.7-0.5,3.7c0,1.4-0.2,2.9-0.4,4.5
				c-0.2,1.4-0.4,2.9-0.4,4.3L62,49.6L51.2,52.8z M42.9,48.6l8.3,3l9.7-2.9l0.5-6.7c0-1.4,0.2-2.9,0.4-4.4c0.2-1.5,0.4-3,0.4-4.3
				c0-2.8,0.2-4.4,1.2-4.8c0.8-0.3,1.7,0.2,3.2,1.7c1.2,1.1,2.8,2.6,4.6,4.9c0.8,1.2,1.6,2.7,2.3,4.8l24.3-8.9
				C90,12.6,72.2,1.2,51.2,1.2c-20.3,0-37.7,11.1-45.5,29L31.4,40c0.1-0.2,0.2-0.5,0.3-0.8c0.8-2.1,2.3-5.6,3.9-8.1
				c1.7-1.7,3.2-3.2,4.5-2.7c1.3,0.5,2.1,2.8,2.1,12.3L42.9,48.6z">
    </path>
   </g>
  </g>
  <g>
   <path class="st1" d="M51.2,101.2c28.4,0,50.4-22.5,50.6-50.5c0.1-8.6-1.7-15-1.7-15l-26.4,9.3c0.6,3.3,0.6,7.5,0.4,10.4
			c-1.5,9.9-3.9,14-6,16.6c-3.7,4.8-5.4,2.3-5.4-0.8c0-3.1-1.2-17.4-1.2-17.4l-10.4,3l-9-2.8c-0.7,5.5-0.6,16.4-0.6,16.4
			c-0.4,4.2-1.6,4.1-1.6,4.1c-2.8,0-6.6-4.4-8.4-9.6c-2.8-8-2.6-14.4-1.1-19.8L3.2,35c-2.6,6.4-2.7,13.9-2.7,15.8
			c0,28,22.7,50.6,50.6,50.6c28,0,50.6-22.7,50.6-50.6">
   </path>
  </g>
  <g>
   <g>
    <path class="st1" d="M51.2,102C23,102,0,79,0,50.8c0-6,1-11.7,2.7-16l0.2-0.5l28.3,10.4l-0.1,0.5c-1.6,6.3-1.3,12.5,1.1,19.5
				c1.7,4.9,5.3,9.2,7.8,9.2c0,0,0.7-0.4,1-3.6c0,0-0.1-10.9,0.6-16.4l0.1-0.7l9.5,3l10.9-3.1l0.1,0.7c0,0.6,1.2,14.4,1.2,17.5
				c0,1.5,0.4,2.6,1,2.9c0.7,0.3,2-0.7,3.3-2.4C69.7,69,72,65,73.5,55.4c0.2-2.6,0.2-6.9-0.4-10.2l-0.1-0.5l0.5-0.2l27-9.5l0.2,0.6
				c0,0.1,1.8,6.6,1.7,15.2c0,8.9-2.3,17.3-6.3,24.6c-3.9,7.2-9.5,13.3-16.2,17.8C71.8,98.7,61.9,102,51.2,102z M3.6,35.8
				c-1.6,4.1-2.4,9.4-2.4,15c0,27.6,22.5,50.1,50.1,50.1v-0.2c10.8,0,20.7-3.3,28.8-9c6-4.2,11-9.7,14.6-16.1
				c4.1-7.3,6.5-15.7,6.6-24.8c0.1-7-1.1-12.5-1.6-14.3l-25.3,8.9c0.5,3.4,0.5,7.5,0.3,10.1c-1.5,9.9-3.9,14.1-6.1,16.9
				c-1.8,2.3-3.4,3.3-4.6,2.8c-1.1-0.4-1.8-1.9-1.8-3.9c0-2.6-0.9-13.7-1.1-16.7l-9.9,2.8L51,57.4l-8.4-2.6
				c-0.6,5.6-0.5,15.5-0.5,15.6c-0.2,2.3-0.7,3.8-1.4,4.4C40.4,75.1,40,75,39.9,75c0,0,0,0,0,0c-3,0-7-4.5-8.8-10
				c-2.4-7.1-2.8-13.3-1.3-19.6L3.6,35.8z">
    </path>
   </g>
  </g>
  <g>
   <path class="st0" d="M140.7,26.7c-9.9,0-11.9,1.5-15.5,6.5c-5.3,7.3-6.8,11.9-11,11.9c-2.2,0-2.9-1.7-2.9-3.1
			c0-4.8,6.7-20.4,9.6-23.8c0.9-1.1,1.9-1.9,3.3-1.9c6.1,0,2.8,5.2,9.3,5.2h46.5c8.7,0,8.4-5.2,13-5.2c1.5,0,2.5,0.5,2.5,1.8
			c0,2-6,22.6-9.1,25.8c-0.5,0.5-1.6,1-2.5,1c-3.3,0-4.2-1.4-4.2-6.2c0-2.6,0.6-5.4,0.6-7.5c0-4.2-4.7-4.3-10.9-4.4
			c-5.6,15.2-21.7,58.9-21.7,60.4c0,5.5,7.9,3.9,7.9,7c0,2-1.7,2.3-6,2.3c-7.9,0-16-0.5-23.9-0.5c-7,0-12.1,0.5-16.9,0.5
			c-1.7,0-3.6-0.7-3.6-2.1c0-5,9.5-0.2,12.7-8.3L140.7,26.7z">
   </path>
   <path class="st0" d="M149.6,97.1c-4,0-8-0.1-12-0.2c-3.9-0.1-8-0.2-11.9-0.2c-3.8,0-7.1,0.1-10,0.3c-2.4,0.1-4.7,0.2-6.9,0.2
			c-2.1,0-4.1-0.9-4.1-2.7c0-2.7,2.4-3.1,4.8-3.4c3-0.4,6.3-0.9,8-5.1l22.5-58.5c-9.3,0.1-10.9,1.7-14.2,6.3
			c-1.4,1.9-2.5,3.6-3.5,5.1c-2.9,4.4-4.6,7-8,7c-2.4,0-3.5-1.8-3.5-3.7c0-4.9,6.7-20.6,9.8-24.2c0.9-1,2-2.1,3.7-2.1
			c3.3,0,4.2,1.5,4.9,2.8c0.7,1.3,1.4,2.4,4.4,2.4h46.5c4.8,0,6.7-1.6,8.4-3.1c1.3-1.1,2.5-2.2,4.7-2.2c2.5,0,3.1,1.3,3.1,2.4
			c0,2.2-6.1,22.8-9.3,26.2c-0.6,0.6-1.9,1.1-2.9,1.1c-4,0-4.8-2.3-4.8-6.8c0-1.4,0.2-2.8,0.3-4.2c0.1-1.2,0.3-2.3,0.3-3.3
			c0-3.4-3.6-3.7-9.9-3.8l-2.6,7c-6.1,16.6-18.8,51.1-18.9,52.8c0,2.7,2.2,3.4,4.4,4.1c1.7,0.6,3.5,1.1,3.5,2.9
			C156.2,97,153.7,97.1,149.6,97.1z M125.7,95.5c4,0,8,0.1,12,0.2c3.9,0.1,8,0.2,11.9,0.2c4.8,0,5.5-0.4,5.5-1.7
			c0-0.9-1-1.2-2.7-1.8c-2.2-0.7-5.2-1.7-5.2-5.2c0-1.2,7-20.4,19-53.2l2.9-7.8l0.4,0c6.1,0.1,11.4,0.2,11.4,5
			c0,1.1-0.1,2.2-0.3,3.4c-0.2,1.3-0.3,2.7-0.3,4c0,4.8,0.9,5.6,3.6,5.6c0.8,0,1.7-0.4,2.1-0.8c2.9-3,9-23.4,9-25.4
			c0-0.6-0.1-1.2-1.9-1.2s-2.7,0.8-3.9,1.9c-1.7,1.5-3.9,3.4-9.1,3.4h-46.5c-3.7,0-4.6-1.6-5.4-3c-0.7-1.3-1.3-2.3-3.9-2.3
			c-1.1,0-1.9,0.6-2.8,1.7c-2.9,3.3-9.5,18.8-9.5,23.4c0,0.4,0.1,2.5,2.4,2.5c2.8,0,4.3-2.3,7-6.5c1-1.5,2.1-3.2,3.5-5.1
			c3.6-5,5.8-6.8,16-6.8h0.8l-23.1,60.1c-1.9,4.8-5.9,5.4-8.9,5.8c-2.6,0.4-3.8,0.6-3.8,2.3c0,1,1.5,1.6,3,1.6
			c2.2,0,4.4-0.1,6.9-0.2C118.5,95.6,121.8,95.5,125.7,95.5z">
   </path>
   <path class="st0" d="M200.3,41.5c2.2-6.2,4-9.5,4-12.5c0-4.6-6.7-1.4-6.7-5.2c0-2.5,3.1-2.6,5.7-2.6c6.8,0,13.5,0.5,20.3,0.5
			c5,0,9.9-0.5,14.7-0.5c3.1,0,5,0.5,5,2.5c0,3-7.6,0.2-10.2,7.6l-14.3,40.9c-3.3,9.2-4.8,12.7-4.8,15.3c0,3.8,7.1,2.9,7.1,6.1
			c0,3-5.4,3-10.2,3c-5.1,0-10.2-0.5-15.4-0.5c-6.4,0-13.3,0.5-17.2,0.5c-1.9,0-4.3-0.4-4.3-1.9c0-4.3,7.6-2,9.8-7.8L200.3,41.5z">
   </path>
   <path class="st0" d="M211,97.1c-2.6,0-5.2-0.1-7.7-0.2c-2.5-0.1-5.1-0.2-7.6-0.2c-3.6,0-7.3,0.1-10.6,0.3
			c-2.6,0.1-4.9,0.2-6.6,0.2c-3.2,0-4.9-0.9-4.9-2.5c0-2.5,2.1-3.1,4.2-3.8c2.2-0.7,4.6-1.5,5.6-4.3l16.4-45.3
			c0.7-2,1.4-3.7,1.9-5.2c1.2-3,2-5.2,2-7.1c0-1.8-1.2-2.1-3.1-2.4c-1.6-0.2-3.6-0.5-3.6-2.8c0-3.2,4-3.2,6.3-3.2
			c3.4,0,6.9,0.1,10.2,0.2c3.3,0.1,6.7,0.2,10.1,0.2c2.5,0,5-0.1,7.5-0.2c2.4-0.1,4.9-0.2,7.3-0.2c2.9,0,5.5,0.4,5.5,3.1
			c0,1.6-1.6,2-3.3,2.4c-2.5,0.6-5.5,1.3-7,5.4l-14.3,40.9c-0.7,1.9-1.3,3.6-1.8,5c-2,5.4-3,8.1-3,10.1c0,1.5,1.4,2.1,3.4,2.8
			c1.7,0.6,3.7,1.3,3.7,3.3C221.8,97.1,216,97.1,211,97.1z M195.6,95.5c2.6,0,5.2,0.1,7.7,0.2c2.5,0.1,5.1,0.2,7.7,0.2
			c4.3,0,9.7,0,9.7-2.4c0-1.1-1.1-1.5-3-2.2c-1.9-0.7-4.2-1.5-4.2-3.9c0-2.2,0.9-4.8,3-10.5c0.5-1.5,1.1-3.1,1.8-5L232.6,31
			c1.7-4.7,5.4-5.6,7.8-6.1c1.7-0.4,2.4-0.6,2.4-1.3c0-1.2-0.7-1.9-4.4-1.9c-2.4,0-4.8,0.1-7.2,0.2c-5.8,0.3-11.9,0.2-17.7,0
			c-3.3-0.1-6.7-0.2-10.1-0.2c-3.3,0-5.2,0.3-5.2,2c0,1.2,0.8,1.4,2.6,1.7c1.7,0.3,4.1,0.6,4.1,3.5c0,2.1-0.9,4.4-2.1,7.5
			c-0.6,1.5-1.2,3.2-1.9,5.1l0,0L184.4,87c-1.2,3.3-4.1,4.2-6.4,4.9c-2.2,0.7-3.4,1.2-3.4,2.7c0,1,2,1.3,3.8,1.3
			c1.7,0,3.9-0.1,6.6-0.2C188.3,95.6,192,95.5,195.6,95.5z">
   </path>
   <path class="st0" d="M269.9,26.7c-9.9,0-11.9,1.5-15.5,6.5c-5.3,7.3-6.8,11.9-11,11.9c-2.2,0-2.9-1.7-2.9-3.1
			c0-4.8,6.7-20.4,9.6-23.8c0.9-1.1,1.9-1.9,3.3-1.9c6.1,0,2.8,5.2,9.3,5.2h46.5c8.7,0,8.4-5.2,13-5.2c1.5,0,2.5,0.5,2.5,1.8
			c0,2-6,22.6-9.1,25.8c-0.5,0.5-1.6,1-2.5,1c-3.3,0-4.2-1.4-4.2-6.2c0-2.6,0.6-5.4,0.6-7.5c0-4.2-4.6-4.3-10.9-4.4
			c-5.6,15.2-21.7,58.9-21.7,60.4c0,5.5,7.9,3.9,7.9,7c0,2-1.7,2.3-6.1,2.3c-7.9,0-16-0.5-23.9-0.5c-7,0-12.1,0.5-16.9,0.5
			c-1.7,0-3.6-0.7-3.6-2.1c0-5,9.5-0.2,12.7-8.3L269.9,26.7z">
   </path>
   <path class="st0" d="M278.7,97.1c-4,0-8-0.1-12-0.2c-3.9-0.1-8-0.2-11.9-0.2c-3.8,0-7.1,0.1-10,0.3c-2.4,0.1-4.7,0.2-6.9,0.2
			c-2.1,0-4.1-0.9-4.1-2.7c0-2.7,2.4-3.1,4.8-3.4c3-0.4,6.3-0.9,8-5.1L269,27.3c-9.3,0.1-10.9,1.7-14.2,6.3
			c-1.4,1.9-2.5,3.6-3.5,5.1c-2.9,4.4-4.6,7-8,7c-2.4,0-3.5-1.8-3.5-3.7c0-4.9,6.7-20.6,9.8-24.2c0.9-1,2-2.1,3.7-2.1
			c3.3,0,4.2,1.5,4.9,2.8c0.7,1.3,1.4,2.4,4.4,2.4h46.5c4.8,0,6.7-1.6,8.3-3.1c1.3-1.1,2.5-2.2,4.7-2.2c2.5,0,3.1,1.3,3.1,2.4
			c0,2.2-6.1,22.8-9.3,26.2c-0.6,0.6-1.9,1.1-2.9,1.1c-4,0-4.8-2.3-4.8-6.8c0-1.4,0.2-2.8,0.3-4.2c0.1-1.2,0.3-2.3,0.3-3.3
			c0-3.4-3.6-3.7-9.9-3.8l-2.6,7c-6.1,16.6-18.8,51.1-18.9,52.8c0,2.7,2.2,3.4,4.4,4.1c1.7,0.6,3.5,1.1,3.5,2.9
			C285.3,97,282.8,97.1,278.7,97.1z M254.8,95.5c4,0,8,0.1,12,0.2c3.9,0.1,8,0.2,11.9,0.2c4.7,0,5.5-0.4,5.5-1.7
			c0-0.9-1-1.2-2.7-1.8c-2.2-0.7-5.2-1.7-5.2-5.2c0-1.2,7-20.4,19-53.2l2.9-7.8l0.4,0c6.1,0.1,11.4,0.2,11.4,5
			c0,1.1-0.1,2.2-0.3,3.4c-0.2,1.3-0.3,2.7-0.3,4c0,4.8,0.9,5.6,3.6,5.6c0.8,0,1.7-0.4,2.1-0.8c2.9-3,9-23.4,9-25.4
			c0-0.6-0.1-1.2-1.9-1.2c-1.8,0-2.7,0.8-3.9,1.9c-1.7,1.5-3.9,3.4-9.1,3.4h-46.5c-3.6,0-4.6-1.6-5.4-3c-0.7-1.3-1.3-2.3-3.9-2.3
			c-1.1,0-1.9,0.7-2.8,1.7c-2.9,3.3-9.5,18.8-9.5,23.4c0,0.4,0.1,2.5,2.4,2.5c2.8,0,4.3-2.3,7-6.5c1-1.5,2.1-3.2,3.5-5.1
			c3.6-5,5.8-6.8,16-6.8h0.8l-23.1,60.1c-1.9,4.8-5.9,5.4-8.9,5.8c-2.6,0.4-3.8,0.6-3.8,2.3c0,1,1.5,1.6,3,1.6
			c2.2,0,4.4-0.1,6.9-0.2C247.7,95.6,251,95.5,254.8,95.5z">
   </path>
   <path class="st0" d="M347.6,70.7h-22.3c-2.9,0-3.6,0.8-6.4,5.2c-4.6,7.2-5.9,9.7-5.9,12.2c0,3.8,8.7,2.5,8.7,5.6
			c0,2-2,2.7-4.5,2.7c-5.3,0-9.1-0.5-13-0.5c-3.7,0-7.6,0.5-11.2,0.5c-2.5,0-3.4-0.7-3.3-2.1c-0.2-4,7.9-0.8,13.8-8.7l48.1-64.1
			c0.8-0.8,1.4-1.2,2.8-1.2h16.4c1.9,0,2.3,0.2,2.5,2l4.7,65.8c0.3,3.8,7.4,2.5,7.4,5.5c0,2.3-1.1,2.9-4.6,2.9
			c-1.9,0-6.2-0.5-18.1-0.5c-12.1,0-16.4,0.5-22.3,0.5c-3.4,0-4.5-1.1-4.5-2.4c0-4.9,11.8-0.4,11.8-8.2V70.7z M346.7,38.5h-0.3
			l-18.9,26.3h19.8L346.7,38.5z">
   </path>
   <path class="st0" d="M380.8,97.1c-0.5,0-1.3,0-2.3-0.1c-2.5-0.1-7.3-0.4-15.8-0.4c-7.1,0-11.6,0.2-15.2,0.3
			c-2.5,0.1-4.7,0.2-7.1,0.2c-4.2,0-5.1-1.6-5.1-3c0-2.7,2.7-3,5.3-3.4c3.9-0.6,6.4-1.2,6.4-4.8V71.3h-21.8c-2.6,0-3.1,0.6-5.9,5
			c-4.7,7.3-5.8,9.6-5.8,11.9c0,1.4,1.7,2,4.2,2.6c2.2,0.5,4.4,1.1,4.4,3c0,1.2-0.7,3.3-5.1,3.3c-2.9,0-5.4-0.1-7.6-0.3
			c-1.9-0.1-3.7-0.2-5.5-0.2c-1.9,0-3.8,0.1-5.7,0.2c-1.8,0.1-3.7,0.2-5.5,0.2c-1.7,0-2.7-0.3-3.3-1c-0.4-0.5-0.6-1.1-0.5-1.8
			c-0.1-2.2,1.9-2.7,4.2-3.2c2.8-0.7,6.6-1.6,9.7-5.8l48.1-64.1c0.9-0.9,1.6-1.4,3.3-1.4h16.4c2.1,0,2.9,0.4,3.1,2.5l4.7,65.8
			c0.1,1.5,1.6,2,3.7,2.6c1.8,0.5,3.7,1.1,3.7,2.9C386,96.6,384.3,97.1,380.8,97.1z M362.7,95.5c8.6,0,13.3,0.2,15.9,0.4
			c1,0.1,1.7,0.1,2.3,0.1c3.7,0,4.1-0.7,4.1-2.3c0-0.9-1.1-1.3-2.9-1.8c-1.9-0.6-4.4-1.2-4.6-3.6l-4.7-65.8
			c-0.1-1.4-0.2-1.5-1.9-1.5h-16.4c-1.2,0-1.7,0.3-2.4,1l-48,64c-3.4,4.5-7.4,5.5-10.4,6.2c-2.5,0.6-3.3,0.9-3.3,2.1
			c-0.1,0.6,0.1,0.9,0.2,1c0.4,0.4,1.2,0.6,2.5,0.6c1.7,0,3.5-0.1,5.4-0.2c1.9-0.1,3.8-0.2,5.7-0.2c1.8,0,3.6,0.1,5.5,0.2
			c2.3,0.1,4.7,0.3,7.5,0.3c1.8,0,3.9-0.4,3.9-2.2c0-0.9-1.4-1.4-3.6-1.9c-2.4-0.6-5.1-1.3-5.1-3.7c0-2.6,1.2-5.1,6-12.6
			c2.8-4.4,3.6-5.5,6.8-5.5h22.9v15.8c0,4.9-4.1,5.5-7.4,5.9c-2.7,0.4-4.4,0.7-4.4,2.3c0,1.5,2.1,1.8,3.9,1.8c2.4,0,4.6-0.1,7.1-0.2
			C351.1,95.6,355.5,95.5,362.7,95.5z M347.9,65.3h-21.6l19.8-27.4h1.2l0,0.6L347.9,65.3z M328.6,64.2h18.1l-0.6-24.4L328.6,64.2z">
   </path>
   <path class="st0" d="M462,94c-0.8,2.4-1.2,2.5-8.1,2.5c-5.6,0-6-0.2-7.3-3l-25-52.9h-0.3c-4,12.2-14.6,42.1-14.6,46.5
			c0,5.6,8.4,3.6,8.4,7.1c0,1.3-0.8,2.3-3.4,2.3c-2.9,0-6.4-0.5-10.2-0.5c-3.6,0-6.7,0.5-9.9,0.5c-2.3,0-3.1-0.7-3.1-2.5
			c0-3.3,7.8-1.5,9.1-5.5c17.4-48.2,20.6-55.7,20.6-58.3c0-5.1-7.6-3.4-7.6-6.5c0-1.7,0.9-2.6,5.3-2.6c4.3,0,8.5,0.5,12.9,0.5
			c3.6,0,7-0.5,10.5-0.5c2,0,2.8,0.9,3.7,2.7l21.1,42.6h0.3c9-24.8,11.9-34.1,11.9-37c0-4-8.4-2.6-8.4-5.8c0-1.8,1.6-2.5,4-2.5
			c2.9,0,5.9,0.5,9.6,0.5c2.9,0,6.2-0.5,9.5-0.5c2.3,0,3.6,0.6,3.6,2.3c0,3.7-8.5,1-10.9,7.5L462,94z">
   </path>
  </g>
  <g>
   <path class="st0" d="M479.7,86.9c2.8,0,5.1,2.3,5.1,5.2c0,2.9-2.3,5.2-5.1,5.2c-2.8,0-5.2-2.3-5.2-5.2
			C474.5,89.2,476.9,86.9,479.7,86.9L479.7,86.9z M479.7,87.7c-2.3,0-4.2,2-4.2,4.4c0,2.5,1.9,4.4,4.2,4.4c2.3,0,4.2-1.9,4.2-4.4
			C483.9,89.7,482,87.7,479.7,87.7L479.7,87.7z M478.7,95.1h-0.9v-5.8c0.5-0.1,0.9-0.1,1.6-0.1c0.9,0,1.5,0.2,1.8,0.4
			c0.3,0.3,0.5,0.6,0.5,1.2c0,0.8-0.5,1.2-1.1,1.4v0c0.5,0.1,0.9,0.6,1,1.4c0.1,0.9,0.3,1.2,0.4,1.4h-1c-0.1-0.2-0.3-0.7-0.4-1.5
			c-0.1-0.7-0.5-1-1.2-1h-0.7V95.1z M478.7,91.9h0.7c0.8,0,1.4-0.3,1.4-1c0-0.5-0.4-1-1.4-1c-0.3,0-0.5,0-0.7,0V91.9z">
   </path>
  </g>
  <g>
   <g>
    <path class="st0" d="M453.9,97.1c-5.5,0-6.4-0.2-7.8-3.3l-24.5-52c-0.9,2.6-2,5.8-3.2,9.3c-4.7,13.8-11.1,32.7-11.1,36
				c0,2.7,2.2,3.3,4.5,4c1.9,0.6,3.9,1.1,3.9,3.2c0,1.9-1.3,2.8-4,2.8c-1.4,0-2.9-0.1-4.5-0.2c-1.8-0.1-3.7-0.3-5.8-0.3
				c-1.8,0-3.5,0.1-5.1,0.2c-1.6,0.1-3.2,0.2-4.8,0.2c-2.6,0-3.7-0.9-3.7-3.1c0-2.1,2.2-2.6,4.4-3c2.1-0.4,4.2-0.9,4.8-2.6
				c6.1-16.8,10.3-28.5,13.5-37c5.6-15.3,7.1-19.4,7.1-21c0-2.3-1.6-2.9-4.1-3.7c-1.7-0.5-3.5-1.1-3.5-2.8c0-2.7,2.3-3.2,5.9-3.2
				c2.2,0,4.4,0.1,6.5,0.2c3.8,0.2,7.8,0.3,11.6,0c1.7-0.1,3.5-0.2,5.3-0.2c2.5,0,3.4,1.4,4.2,3l20.7,41.7
				c8.4-23.3,11.6-33.1,11.6-35.9c0-1.6-1.6-2.1-4.1-2.8c-2.1-0.5-4.3-1.1-4.3-3.1c0-1.4,0.8-3.1,4.6-3.1c1.4,0,2.8,0.1,4.3,0.2
				c2.9,0.2,6.1,0.3,9.8,0c1.6-0.1,3.3-0.2,5-0.2c1,0,4.1,0,4.1,2.8c0,2.1-2,2.5-4.1,3c-2.6,0.6-5.6,1.3-6.8,4.7l-21.9,63.1
				C461.6,97,460.7,97.1,453.9,97.1z M420.9,40.1h1.1l25.1,53.2c1.1,2.4,1.2,2.6,6.8,2.6c6.8,0,6.9-0.2,7.5-2.1l0,0l21.9-63.1
				c1.4-4,5-4.8,7.6-5.4c2.3-0.5,3.2-0.9,3.2-1.9c0-0.8-0.2-1.7-3-1.7c-1.6,0-3.3,0.1-4.9,0.2c-1.6,0.1-3.1,0.2-4.5,0.2
				c-2,0-3.7-0.1-5.4-0.3c-1.5-0.1-2.8-0.2-4.2-0.2c-3.5,0-3.5,1.4-3.5,1.9c0,1,1.3,1.4,3.4,1.9c2.2,0.6,5,1.3,5,3.9
				c0,3-3.1,12.8-12,37.2l-0.1,0.4h-1.1l-0.2-0.3l-21.1-42.6c-0.9-1.8-1.6-2.4-3.2-2.4c-1.8,0-3.5,0.1-5.2,0.2
				c-3.8,0.3-7.9,0.2-11.8,0c-2.1-0.1-4.2-0.2-6.4-0.2c-4.7,0-4.7,1.1-4.7,2c0,0.9,1,1.2,2.7,1.7c2.1,0.6,4.9,1.5,4.9,4.8
				c0,1.8-1.2,5.2-7.2,21.4c-3.1,8.6-7.4,20.3-13.5,37c-0.8,2.3-3.4,2.9-5.6,3.4c-2.1,0.5-3.5,0.8-3.5,1.9c0,1.3,0.4,1.9,2.5,1.9
				c1.6,0,3.1-0.1,4.7-0.2c1.7-0.1,3.4-0.2,5.2-0.2c2.1,0,4,0.1,5.9,0.3c1.6,0.1,3,0.2,4.4,0.2c2.8,0,2.8-1.1,2.8-1.7
				c0-1.1-1.2-1.5-3.1-2c-2.4-0.7-5.3-1.5-5.3-5.1c0-3.5,6.2-21.7,11.1-36.4c1.4-4,2.6-7.6,3.5-10.3L420.9,40.1z">
    </path>
   </g>
  </g>
 </g>
</svg>