<svg version="1.1" id="Layer_1" xmlns:x="ns_extend;" xmlns:i="ns_ai;" xmlns:graph="ns_graphs;" xmlns="http://www.w3.org/2000/svg" xmlns:xlink="http://www.w3.org/1999/xlink" x="0px" y="0px" viewBox="0 0 1479.4 96.6" style="enable-background:new 0 0 1479.4 96.6;" xml:space="preserve">
 <style type="text/css">
  .st0{fill:#0C0D0D;}
 </style>
 <metadata>
  <sfw xmlns="ns_sfw;">
   <slices>
   </slices>
   <sliceSourceBounds bottomLeftOrigin="true" height="96.7" width="1479.4" x="0" y="-0.1">
   </sliceSourceBounds>
  </sfw>
 </metadata>
 <g>
  <path class="st0" d="M585.4,0.2c19.9,0,30,12,30,28.8v10.2c0,14.7-6.5,24.4-19,28.3l19,28.8h-28.6L568.2,68h-20.7l-10.9-20.2h44.8
		c2.1,0.3,4.2-0.5,5.7-2s2.2-3.6,2-5.7v-8.5c0.3-2.1-0.5-4.2-2-5.7s-3.6-2.2-5.7-2h-48.3v72.4h-26.4V0.2H585.4z">
  </path>
  <path class="st0" d="M876.9,0.2c19.9,0,30,12,30,28.8v10.2c0,14.7-6.5,24.4-19,28.3l19,28.8h-28.7L859.6,68h-20.7L828,47.8h44.8
		c2.1,0.3,4.2-0.5,5.7-2s2.2-3.6,2-5.7v-8.5c0.3-2.1-0.5-4.2-2-5.7s-3.6-2.2-5.7-2h-48.3v72.4h-26.4V0.2H876.9z">
  </path>
  <path class="st0" d="M1418.1,0.2c19.9,0,30,12,30,28.8v10.2c0,14.7-6.5,24.4-19,28.3l19,28.8h-28.7L1400.8,68H1380l-10.9-20.2h44.8
		c2.1,0.3,4.2-0.5,5.7-2s2.2-3.6,2-5.7v-8.5c0.3-2.1-0.5-4.2-2-5.7s-3.6-2.2-5.7-2h-48.3v72.4h-26.4V0.2H1418.1z">
  </path>
  <path class="st0" d="M108.4,68.6c0.7,7.6-2,15.1-7.4,20.4s-12.9,8.1-20.5,7.4H27.9c-7.6,0.7-15-2-20.4-7.4s-8.1-12.9-7.4-20.4V0.2
		h26.5v63.4c-0.4,2.4,0.4,4.8,2.1,6.5c1.7,1.7,4.1,2.5,6.5,2.2h38.1c2.4,0.4,4.9-0.4,6.7-2.1s2.6-4.2,2.3-6.6V0.2h26L108.4,68.6z">
  </path>
  <path class="st0" d="M148.2,0.2c5.3-0.8,10.6,1.2,14,5.3l36,40.8l13.5,17.1L211,41V0h26.4v96.4h-20.2c-5.3,0.8-10.7-1.3-14.1-5.5
		L167,50.1l-15-18l1.1,22.5v41.9h-26.2V0.2H148.2z">
  </path>
  <path class="st0" d="M341.7,63.8v-31c0.3-2.4-0.5-4.8-2.2-6.5s-4.1-2.5-6.5-2.2h-49.5v72.4H257V0.2h83.4c7.6-0.7,15,2,20.4,7.4
		s8.1,12.9,7.4,20.4v40.6c0.7,7.6-2,15.1-7.4,20.5s-12.9,8.1-20.4,7.4h-40.5l-12.6-24h45.6c2.4,0.3,4.8-0.5,6.5-2.2s2.5-4.1,2.1-6.5
		">
  </path>
  <path class="st0" d="M489.8,24.4h-77.1c-0.5,0-1,0.2-1.4,0.6s-0.6,0.9-0.6,1.4v44c0,1.1,0.9,2,2,2h77.1v24.2h-89.5
		c-4.4,0.4-8.7-1.2-11.8-4.3c-3.1-3.1-4.7-7.4-4.3-11.8V16.2c-0.4-4.4,1.2-8.7,4.3-11.8c3.1-3.1,7.4-4.6,11.8-4.2h89.5V24.4z
		 M488.4,57h-64.3l-9.6-18.2h64.3L488.4,57z">
  </path>
  <path class="st0" d="M652.3,96.5l50.5-96.3h26.9c7.5,0,11,1.6,13.8,6.5l46.6,89.5h-31.3L751,80.8h-34.1L706,60.6h34.6L721,22.3
		l-37.6,73.9L652.3,96.5z">
  </path>
  <path class="st0" d="M950.7,0.2c5.5-0.6,10.7,2.6,12.7,7.7l22.3,42l8.4,19.5l8.6-19.5l22.2-42c2-5.3,7.4-8.5,13-7.7h26.8v96.3h-26
		V64.8l1.8-33.5l-12,25.1l-22.5,40h-23l-22.3-40l-12.3-25.1l2,33.5v31.7h-26V0.2H950.7z">
  </path>
  <path class="st0" d="M1109.7,0.2h58.6c7.5-0.7,15,2,20.4,7.4c5.3,5.4,8,12.8,7.3,20.4v40.6c0.7,7.6-2,15.1-7.4,20.5
		s-12.9,8.1-20.4,7.4h-58.6c-7.6,0.7-15.1-2-20.5-7.4s-8.1-12.9-7.4-20.5V28c-0.7-7.6,2-15.1,7.4-20.4S1102-0.5,1109.7,0.2
		 M1160.6,72.5c2.4,0.3,4.8-0.5,6.5-2.2s2.5-4.1,2.2-6.5v-31c0.3-2.4-0.5-4.8-2.2-6.5s-4.1-2.5-6.5-2.2h-43.7
		c-2.4-0.4-4.8,0.4-6.5,2.1s-2.5,4.1-2.2,6.5v31c-0.3,2.4,0.5,4.8,2.2,6.5s4.1,2.5,6.5,2.2L1160.6,72.5z">
  </path>
  <path class="st0" d="M1321.1,68.6c0.7,7.6-2,15.1-7.4,20.4c-5.4,5.4-12.9,8.1-20.5,7.4h-52.8c-7.6,0.7-15-2-20.4-7.4
		s-8.1-12.9-7.4-20.4V0.2h26.5v63.4c-0.4,2.4,0.5,4.9,2.2,6.7c1.8,1.7,4.3,2.5,6.7,2.1h38.1c2.4,0.3,4.8-0.5,6.5-2.2
		s2.5-4.1,2.2-6.5V0.2h26.5L1321.1,68.6z">
  </path>
  <path class="st0" d="M1477.8,86.9c0,3.2-1.9,6.1-4.9,7.3c-2.9,1.2-6.3,0.5-8.6-1.7c-2.3-2.3-2.9-5.6-1.7-8.6
		c1.2-2.9,4.1-4.9,7.3-4.9C1474.2,79.1,1477.8,82.6,1477.8,86.9 M1479.4,86.9c0-3.9-2.3-7.4-5.9-8.9s-7.7-0.7-10.5,2.1
		c-2.7,2.7-3.6,6.9-2.1,10.5s5,5.9,8.9,5.9C1475.1,96.4,1479.4,92.2,1479.4,86.9">
  </path>
  <path class="st0" d="M1471.8,91.5h1.8l-2.8-4c0.6,0,1.3-0.3,1.7-0.8c0.4-0.5,0.6-1.1,0.5-1.8c0-1.5-0.8-2.5-3-2.5h-3.4v9.1h1.6
		v-3.9h1L1471.8,91.5z M1468.1,83.6h1.4c1.2,0,1.8,0.5,1.8,1.4s-0.5,1.5-1.8,1.5h-1.4V83.6z">
  </path>
 </g>
</svg>