<svg version="1.1" id="Layer_1" xmlns:x="ns_extend;" xmlns:i="ns_ai;" xmlns:graph="ns_graphs;" xmlns="http://www.w3.org/2000/svg" xmlns:xlink="http://www.w3.org/1999/xlink" x="0px" y="0px" viewBox="0 0 329.8 82" style="enable-background:new 0 0 329.8 82;" xml:space="preserve">
 <style type="text/css">
  .st0{fill-rule:evenodd;clip-rule:evenodd;fill:#241F20;}
	.st1{fill-rule:evenodd;clip-rule:evenodd;fill:#2574DB;}
 </style>
 <metadata>
  <sfw xmlns="ns_sfw;">
   <slices>
   </slices>
   <sliceSourceBounds bottomLeftOrigin="true" height="82" width="329.8" x="35.3" y="-241.2">
   </sliceSourceBounds>
  </sfw>
 </metadata>
 <g>
  <path class="st0" d="M126.2,42.1c0,5.1-2.4,7.7-5.9,7.7c-3.1,0-5.1-2.3-5.1-5.7V24.6h-13.4V47c0,9.1,5.4,14.8,13.6,14.8
		c4.1,0.1,8.1-1.7,10.9-4.7v3.6h13.4V24.6h-13.4V42.1z">
  </path>
  <path class="st0" d="M167.2,23.5c-4.4,0-8,1.4-10.6,4v-2.9h-13.4v51.8l13.4-3.6V57.8c2.6,2.6,6.1,4,10.6,4
		c9.9,0,17.4-7.7,17.4-19.1S177.1,23.5,167.2,23.5z M164,50.6c-4.1,0-7.4-3.4-7.4-7.9s3.3-8,7.4-8c4.4,0,7.3,3.4,7.3,8
		S168.4,50.6,164,50.6L164,50.6z">
  </path>
  <polygon class="st0" points="187.2,60.7 200.6,60.7 200.6,5.6 187.2,9.2 	">
  </polygon>
  <path class="st0" d="M231.2,27.6c-2.6-2.6-6.1-4-10.6-4c-9.9,0-17.4,7.7-17.4,19.2s7.5,19.1,17.4,19.1c4.4,0,8-1.4,10.6-4v2.9h13.4
		V24.6h-13.4V27.6z M223.9,50.6c-4.4,0-7.3-3.4-7.3-7.9s2.9-8,7.3-8c4.1,0,7.4,3.4,7.4,8S227.9,50.6,223.9,50.6z">
  </path>
  <path class="st0" d="M272.4,23.5c-4.1-0.1-8.1,1.7-10.9,4.7v-3.6h-13.4v36.1h13.4V43.2c0-5.1,2.4-7.7,5.9-7.7
		c3.1,0,5.1,2.3,5.1,5.7v19.5H286V38.3C286,29.2,280.6,23.5,272.4,23.5z">
  </path>
  <path class="st0" d="M316.4,9.2v18.3c-2.6-2.6-6.1-4-10.6-4c-9.9,0-17.4,7.7-17.4,19.2s7.5,19.1,17.4,19.1c4.4,0,8-1.4,10.6-4v2.9
		h13.4V5.6L316.4,9.2z M309.1,50.6c-4.4,0-7.3-3.4-7.3-7.9s2.9-8,7.3-8c4.1,0,7.4,3.4,7.4,8S313.2,50.6,309.1,50.6z">
  </path>
  <path class="st1" d="M41,0C18.4,0,0,18.3,0,41s18.3,41,41,41c22.6,0,41-18.3,41-41c0,0,0,0,0,0C82,18.3,63.6,0,41,0z M56.4,45.1
		c0,9.7-6.1,15.6-15.2,15.6c-9.4,0-15.6-6-15.6-15.6V31.3l10.2-2.7v16.5c0,4.2,2.2,6.6,5.4,6.6c3,0,5-2.4,5-6.6V25.8l10.2-2.7
		L56.4,45.1z">
  </path>
 </g>
</svg>