<svg version="1.1" id="Layer_1" xmlns:x="ns_extend;" xmlns:i="ns_ai;" xmlns:graph="ns_graphs;" xmlns="http://www.w3.org/2000/svg" xmlns:xlink="http://www.w3.org/1999/xlink" x="0px" y="0px" viewBox="0 0 277 87" style="enable-background:new 0 0 277 87;" xml:space="preserve">
 <style type="text/css">
  .st0{fill:#171F3B;}
	.st1{fill:#1C716B;}
	.st2{fill:#00CC99;}
	.st3{fill:#0E7A77;}
	.st4{fill:#099D91;}
 </style>
 <metadata>
  <sfw xmlns="ns_sfw;">
   <slices>
   </slices>
   <sliceSourceBounds bottomLeftOrigin="true" height="86.5" width="276.2" x="0" y="0">
   </sliceSourceBounds>
  </sfw>
 </metadata>
 <g transform="translate(0 0.494)">
  <path class="st0" d="M34.7,23.7L21.6,54.1h-8.5L0,23.7h9.3l8.3,19.8l8.5-19.8H34.7">
  </path>
  <path class="st0" d="M41.9,54.1h8.6V23.7h-8.6V54.1z">
  </path>
  <path class="st0" d="M70.9,54.1h-8.6V23.7h14c2.5-0.1,4.9,0.4,7.2,1.4c1.9,0.8,3.6,2.2,4.7,3.9c1.1,1.8,1.7,3.9,1.7,6
		c0,2-0.5,4-1.5,5.8c-1.1,1.7-2.6,3-4.4,3.8l6.6,9.6h-9.3L75.6,46h-4.7V54.1L70.9,54.1z M70.9,30.5v8.9h4.8c1.4,0.1,2.9-0.3,4-1.2
		c0.9-0.8,1.4-2,1.4-3.3c0.1-1.2-0.4-2.5-1.3-3.3c-1.2-0.9-2.6-1.3-4-1.2L70.9,30.5z">
  </path>
  <path class="st0" d="M106.1,30.5h-9.4v-6.8h27.4v6.8h-9.3v23.6h-8.6V30.5">
  </path>
  <path class="st0" d="M135.8,51c-2.5-2.5-3.8-6-3.8-10.5V23.7h8.6v16.6c0,4.9,1.9,7.3,5.8,7.3c3.8,0,5.8-2.4,5.8-7.3V23.7h8.5v16.9
		c0,4.5-1.3,8-3.8,10.5s-6,3.7-10.6,3.7C141.9,54.7,138.3,53.5,135.8,51">
  </path>
  <path class="st0" d="M12,70.6v6.2h9V79h-9v7.2H9.4V68.3h12.7v2.2H12">
  </path>
  <path class="st0" d="M29.4,86.2H32V68.3h-2.6V86.2z">
  </path>
  <path class="st0" d="M56.6,68.3v17.9h-2.1L43.7,72.9v13.3h-2.6V68.3h2.1L54,81.7V68.3H56.6">
  </path>
  <path class="st0" d="M103.6,68.3v17.9h-2.1L90.8,72.9v13.3h-2.6V68.3h2.1l10.8,13.3V68.3H103.6">
  </path>
  <path class="st0" d="M65.6,86.2H63l8.1-17.9h2.5l8.2,17.9h-2.7l-2-4.5h-9.5L65.6,86.2L65.6,86.2z M72.4,70.9L72.4,70.9l-3.9,8.8
		h7.7L72.4,70.9z">
  </path>
  <path class="st0" d="M115.9,85.2c-1.4-0.8-2.6-1.9-3.4-3.3c-0.8-1.4-1.3-3-1.2-4.7c0-1.6,0.4-3.3,1.2-4.7c0.8-1.4,2-2.5,3.4-3.3
		c1.5-0.8,3.2-1.2,4.9-1.2c1.3,0,2.6,0.2,3.8,0.7c1.1,0.5,2.2,1.2,3,2.1l-1.7,1.6c-1.3-1.4-3.1-2.2-5-2.1c-1.3,0-2.5,0.3-3.6,0.9
		c-1.1,0.6-1.9,1.4-2.5,2.5c-0.6,1.1-0.9,2.3-0.9,3.5c0,1.2,0.3,2.4,0.9,3.5c0.6,1,1.5,1.9,2.5,2.5c1.1,0.6,2.4,0.9,3.6,0.9
		c1.9,0,3.8-0.7,5.1-2.1l1.7,1.6c-0.8,0.9-1.8,1.6-3,2.1c-1.2,0.5-2.5,0.7-3.9,0.7C119.1,86.5,117.4,86,115.9,85.2">
  </path>
  <path class="st0" d="M135.1,86.2h2.6V68.3h-2.6V86.2z">
  </path>
  <path class="st0" d="M146.7,86.2H144l8.1-17.9h2.5l8.2,17.9h-2.7l-2-4.5h-9.5L146.7,86.2L146.7,86.2z M153.4,70.9L153.4,70.9
		l-3.9,8.8h7.7L153.4,70.9z">
  </path>
  <path class="st0" d="M169.3,68.3h2.6V84h9.7v2.2h-12.3V68.3">
  </path>
  <g transform="translate(178.171)">
   <g>
    <g transform="translate(0)">
     <path class="st1" d="M21.9,23.8L2.3,23.7c-1.2,0-2.2,1-2.3,2.2c0,0.4,0.1,0.9,0.4,1.2L9.9,42L21.9,23.8">
     </path>
     <path class="st2" d="M74,0c-1.8,0-3.5,0.9-4.5,2.4L27.5,66.8c-0.5,0.7-0.5,1.7,0,2.4l10.4,16c0.8,1.3,2.5,1.6,3.7,0.8
					c0.3-0.2,0.6-0.5,0.8-0.8L98,0.1L74,0">
     </path>
    </g>
   </g>
  </g>
  <path class="st3" d="M200.9,23.8l-20.4-0.1c-1.2,0-2.2,1-2.3,2.2c0,0.4,0.1,0.9,0.4,1.2l9.9,15.5L200.9,23.8">
  </path>
  <path class="st4" d="M203.7,66.1l35.9-55l-25-0.1c-1.8,0-3.5,0.9-4.5,2.4l-19.6,30c-0.5,0.7-0.5,1.7,0,2.5L203.7,66.1">
  </path>
 </g>
</svg>