<svg version="1.1" id="Layer_1" xmlns:x="ns_extend;" xmlns:i="ns_ai;" xmlns:graph="ns_graphs;" xmlns="http://www.w3.org/2000/svg" xmlns:xlink="http://www.w3.org/1999/xlink" x="0px" y="0px" viewBox="0 0 353.9 65" style="enable-background:new 0 0 353.9 65;" xml:space="preserve">
 <metadata>
  <sfw xmlns="ns_sfw;">
   <slices>
   </slices>
   <sliceSourceBounds bottomLeftOrigin="true" height="65" width="353.9" x="-322.9" y="-200.9">
   </sliceSourceBounds>
  </sfw>
 </metadata>
 <g>
  <path d="M230,1l-18.8,37.6h8.9l2.8-5.8H245l2.8,5.8h8.9L238.2,1H230z M234.1,10.7l7.6,15.2h-15.2L234.1,10.7z M44.7,1L22.6,45.7
		L0,1h9.7l12.7,26.2L35,1H44.7z M193,1h7.9v37.6H194L171.1,15c0,0-0.5-0.5-0.8-1s-0.8-1.3-0.8-1.3v25.9h-7.9V1h7.4l22.3,23.1
		c0,0,0.3,0.5,0.8,1c0.3,0.3,0.8,1,0.8,1V1z M145,14c0,5.8-4.1,10.4-8.6,11.7l11.4,12.9h-9.9l-16.2-18.5h7.4h0.8
		c4.8,0,7.6-1.5,7.6-5.8s-3-5.8-7.6-5.8H116v30.2h-7.9V1h3.6h18.8C139.4,1,145,5.8,145,14 M282.6,1h-15.2v37.6h15.2
		c12.4,0,20.3-7.9,20.3-18.8C302.9,8.6,295,1,282.6,1 M283.1,31.2h-0.8h-7.1V8.4h7.1h0.8c7.6,0,11.9,4.8,11.9,11.4
		C295,26.7,291,31.2,283.1,31.2 M74.1,0C63,0,53.8,8.9,53.8,19.8c0,10.9,9.1,19.8,20.3,19.8c11.2,0,20.3-8.9,20.3-19.8
		C94.5,8.9,85.3,0,74.1,0 M74.1,32C67.5,32,62,26.4,62,19.6c0-6.9,5.6-12.4,12.2-12.4c6.6,0,12.2,5.8,12.2,12.7S80.7,32,74.1,32
		 M333.6,0c-11.2,0-20.3,8.9-20.3,19.8c0,10.9,9.1,19.8,20.3,19.8c11.2,0,20.3-8.9,20.3-19.8C353.7,8.9,344.8,0,333.6,0 M333.6,32
		c-6.6,0-12.2-5.6-12.2-12.4c0-6.9,5.6-12.4,12.2-12.4c6.6,0,12.2,5.6,12.2,12.4C345.6,26.7,340,32,333.6,32 M298.3,53.3v1.8H293
		v9.6h-1.8v-9.6h-5.3v-1.8H298.3z M274.2,55.9c-1.5-0.8-3.3-1.3-4.8-1.3c-1,0-2,0.3-2.5,0.5c-0.5,0.3-0.8,0.8-0.8,1
		c0,0.5,0.3,0.8,1,1c0.5,0.3,1.3,0.3,2.3,0.3c1.5,0,2.5,0.3,3,0.3c1.3,0.3,2.3,0.5,3,1c0.8,0.5,1,1.3,1,2.3c0,1.3-0.5,2-1.5,2.8
		c-1,0.8-2.5,1-4.3,1c-2.8,0-5.1-0.8-6.6-2l1-1.3c1.8,1,3.6,1.5,5.6,1.5c1.3,0,2.3-0.3,3-0.5c0.8-0.3,1-0.8,1-1.5
		c0-0.8-0.5-1.3-1.3-1.5c-0.5,0-1.8-0.3-3.8-0.5c-1.8,0-3-0.3-3.8-0.8c-0.8-0.5-1.3-1.3-1.3-2.3c0-1,0.5-2,1.5-2.5
		c1-0.5,2.3-1,4.1-1c2.3,0,4.3,0.5,5.8,1.8L274.2,55.9z M252.4,60.9c0,1.3-0.5,2-1.8,2.8c-1,0.8-2.5,1.3-4.6,1.3
		c-1.8,0-3.3-0.5-4.6-1.3c-1-0.8-1.8-1.8-1.8-2.8v-7.6h1.8v7.4c0,1,0.3,1.5,1,2c0.8,0.5,1.8,0.8,3.3,0.8c1.5,0,2.5-0.3,3.3-0.8
		c0.8-0.5,1-1.3,1-2v-7.4h1.8v7.6H252.4z M208,53.3v1.8h-5.3v9.6h-1.8v-9.6h-5.3v-1.8H208z M177.5,53.3l-6.1,6.9v4.6h-1.8v-4.6
		l-6.1-6.9h2.3l4.6,5.3l4.8-5.3H177.5z M156.4,53.3v1.8h-5.3v9.6h-1.8v-9.6H144v-1.8H156.4z M128.2,53.3V63h8.4v1.8h-10.2V53.3
		H128.2z M109.4,53.3l-5.8,11.4h2l1.3-2.3h7.6l1.3,2.3h2l-6.1-11.4H109.4z M110.7,54.8l2.8,5.6h-5.8L110.7,54.8z M95.2,53.3v1.8
		h-9.1v2.8h6.3v1.8h-6.3V63h9.6v1.8H84.3V53.3H95.2z M74.6,64.7h-2l-3-4.1H64v4.1h-1.8V53.3h8.6c1.3,0,2,0.3,2.8,1
		c0.8,0.8,1,1.8,1,2.8c0,1-0.3,2-0.8,2.5c-0.5,0.5-1.3,1-2,1L74.6,64.7z M70.6,59.2c1.3,0,2-0.8,2-2c0-1.3-0.8-2-2.3-2H64v4.1H70.6z
		 M230.8,64.7h-2l-2.8-4.1h-5.6v4.1h-1.8V53.3h8.6c1.3,0,2,0.3,2.8,1c0.8,0.8,1,1.8,1,2.8c0,1-0.3,2-0.8,2.5c-0.5,0.5-1.3,1-2,1
		L230.8,64.7z M227,59.2c1.5,0,2-0.8,2-2c0-1.3-0.8-2-2.3-2h-6.3v4.1H227z">
  </path>
 </g>
</svg>