<svg version="1.1" id="Layer_1" xmlns:x="ns_extend;" xmlns:i="ns_ai;" xmlns:graph="ns_graphs;" xmlns="http://www.w3.org/2000/svg" xmlns:xlink="http://www.w3.org/1999/xlink" x="0px" y="0px" viewBox="0 0 430.4 100" style="enable-background:new 0 0 430.4 100;" xml:space="preserve">
 <style type="text/css">
  .st0{fill:#0057B7;}
	.st1{fill:#3CDBC0;}
	.st2{fill:url(#Path_15_);}
	.st3{fill:#FF9800;}
	.st4{fill:url(#Path_16_);}
 </style>
 <metadata>
  <sfw xmlns="ns_sfw;">
   <slices>
   </slices>
   <sliceSourceBounds bottomLeftOrigin="true" height="100" width="430.4" x="-129.4" y="-223.2">
   </sliceSourceBounds>
  </sfw>
 </metadata>
 <g id="Logo---Color">
  <g id="Verastem_tm_rgb">
   <g id="Group">
    <g transform="translate(44.072727, 2.848485)">
     <path id="Path" class="st0" d="M50.8,6c-0.4-0.8,0.1-1.6,1-1.6h4.4c0.5,0,0.9,0.4,1,0.7l13.5,31.3h0.4L84.6,5
					c0.1-0.3,0.5-0.7,1-0.7h4.4c0.9,0,1.4,0.8,1,1.6L72.2,48.6c-0.2,0.4-0.5,0.7-1,0.7h-0.6c-0.4,0-0.9-0.3-1-0.7L50.8,6z">
     </path>
     <path id="Path_1_" class="st0" d="M100.3,5.5c0-0.6,0.5-1.2,1.2-1.2h24.5c0.7,0,1.2,0.6,1.2,1.2v3.5c0,0.6-0.5,1.2-1.2,1.2
					h-19.3v12.9h16.4c0.6,0,1.2,0.6,1.2,1.2V28c0,0.7-0.5,1.2-1.2,1.2h-16.4v13.6h19.4c0.7,0,1.2,0.6,1.2,1.2v3.5
					c0,0.6-0.5,1.2-1.2,1.2h-24.5c-0.7,0-1.2-0.6-1.2-1.2L100.3,5.5L100.3,5.5z">
     </path>
     <path id="Shape" class="st0" d="M139.4,5.5c0-0.6,0.5-1.2,1.2-1.2h16.7c7.4,0,13.3,6,13.3,13.6c0,5.8-3.7,10.6-9.1,12.9
					l8.4,16.1c0.4,0.8,0,1.8-1,1.8h-4.8c-0.5,0-0.9-0.3-1-0.6L155,31.3h-9.3v16.2c0,0.6-0.5,1.2-1.2,1.2h-4c-0.7,0-1.2-0.6-1.2-1.2
					V5.5L139.4,5.5z M156.7,25.9c4,0,7.5-3.5,7.5-7.9c0-4.1-3.5-7.5-7.5-7.5h-10.9v15.4H156.7z">
     </path>
     <path id="Shape_1_" class="st0" d="M177.5,47l18.8-42.6c0.2-0.4,0.7-0.7,1-0.7h0.6c0.3,0,0.9,0.3,1,0.7L217.6,47
					c0.4,0.8-0.1,1.6-1,1.6h-3.9c-0.7,0-1.2-0.4-1.4-1l-3.8-8.7h-20c-1.2,2.9-2.5,5.8-3.7,8.7c-0.2,0.4-0.7,1-1.4,1h-3.9
					C177.6,48.6,177.1,47.8,177.5,47z M205.2,33.6l-7.5-17.4h-0.3l-7.5,17.4H205.2z">
     </path>
     <path id="Path_2_" class="st0" d="M224.1,42.3c0.5-0.8,1-1.8,1.6-2.6c0.6-0.8,1.4-1.1,2.1-0.5c0.4,0.3,5.1,4.4,9.8,4.4
					c4.2,0,6.9-2.7,6.9-5.9c0-3.8-3.2-6.2-9.3-8.8c-6.3-2.7-11.1-6.1-11.1-13.4c0-4.9,3.7-11.7,13.4-11.7c6.1,0,10.7,3.3,11.3,3.7
					c0.5,0.3,1,1.2,0.4,2.1c-0.5,0.8-1,1.7-1.5,2.4c-0.5,0.8-1.3,1.2-2.1,0.6c-0.4-0.3-4.7-3.2-8.3-3.2c-5.1,0-6.9,3.4-6.9,5.7
					c0,3.6,2.7,5.8,7.8,8c7.1,3,13.2,6.5,13.2,14.2c0,6.6-5.7,12-13.7,12c-7.5,0-12.2-4.1-13.2-5C223.9,43.8,223.5,43.3,224.1,42.3z
					">
     </path>
     <path id="Path_3_" class="st0" d="M268.7,10.3h-10c-0.7,0-1.2-0.6-1.2-1.2V5.5c0-0.6,0.5-1.2,1.2-1.2H285c0.7,0,1.2,0.6,1.2,1.2
					v3.5c0,0.6-0.5,1.2-1.2,1.2h-10v37.2c0,0.6-0.5,1.2-1.2,1.2h-4c-0.6,0-1.2-0.6-1.2-1.2L268.7,10.3L268.7,10.3z">
     </path>
     <path id="Path_4_" class="st0" d="M295.9,5.5c0-0.6,0.5-1.2,1.2-1.2h24.5c0.7,0,1.2,0.6,1.2,1.2v3.5c0,0.6-0.5,1.2-1.2,1.2
					h-19.4v12.9h16.4c0.6,0,1.2,0.6,1.2,1.2V28c0,0.7-0.5,1.2-1.2,1.2h-16.4v13.6h19.4c0.7,0,1.2,0.6,1.2,1.2v3.5
					c0,0.6-0.5,1.2-1.2,1.2h-24.5c-0.7,0-1.2-0.6-1.2-1.2V5.5z">
     </path>
     <path id="Path_5_" class="st0" d="M339.7,4.6c0.1-0.5,0.6-1,1.1-1h1c0.4,0,0.9,0.3,1,0.7l12.8,32.4h0.2l12.7-32.4
					c0.1-0.4,0.6-0.7,1-0.7h1c0.5,0,1,0.4,1.1,1l7.5,42.6c0.2,0.9-0.2,1.4-1.1,1.4h-4c-0.5,0-1-0.4-1.2-0.9l-4.5-28.3
					c-0.1,0-0.2,0-0.2,0l-11,29.1c-0.1,0.4-0.5,0.7-1,0.7h-1.1c-0.5,0-0.9-0.3-1-0.7L343,19.4c-0.1,0-0.2,0-0.2,0l-4.4,28.3
					c-0.1,0.4-0.6,0.9-1.1,0.9h-4c-0.9,0-1.3-0.6-1.2-1.4L339.7,4.6z">
     </path>
    </g>
    <g transform="translate(47.745455, 29.434343)">
     <path id="Shape_2_" class="st1" d="M66.8,34.2c7,0,12.7,5.8,12.7,13.1c0,7.3-5.6,13.1-12.7,13.1s-12.6-5.8-12.6-13.1
					S59.8,34.2,66.8,34.2z M66.8,57.9c5.6,0,10.2-4.7,10.2-10.5s-4.6-10.6-10.2-10.6s-10.2,4.8-10.2,10.6
					C56.7,53.1,61.2,57.9,66.8,57.9z">
     </path>
     <path id="Path_6_" class="st1" d="M88.4,34.9c0-0.4,0.3-0.7,0.7-0.7H90l15.9,20.4c0,0,0,0,0.1,0V35.3c0-0.4,0.3-0.7,0.7-0.7h1.2
					c0.4,0,0.7,0.3,0.7,0.7v24.5c0,0.4-0.3,0.7-0.7,0.7h-0.6L91,39.6h0v19.8c0,0.4-0.3,0.7-0.7,0.7h-1.2c-0.4,0-0.7-0.3-0.7-0.7
					V34.9z">
     </path>
     <path id="Path_7_" class="st1" d="M130,34.2c3.5,0,6.1,1.3,8.5,3.4c0.3,0.3,0.3,0.7,0,1l-1,1c-0.3,0.4-0.6,0.3-0.9,0
					c-1.8-1.6-4.3-2.7-6.7-2.7c-5.6,0-9.8,4.8-9.8,10.5c0,5.6,4.3,10.4,9.8,10.4c3.1,0,4.9-1.3,6.7-2.7c0.4-0.3,0.6-0.3,0.8-0.1
					l1.1,1c0.3,0.2,0.2,0.7,0,1c-2.4,2.4-5.4,3.5-8.5,3.5c-7,0-12.7-5.8-12.7-13.1C117.3,40.1,123,34.2,130,34.2z">
     </path>
     <path id="Shape_3_" class="st1" d="M158.2,34.2c7,0,12.7,5.8,12.7,13.1c0,7.3-5.6,13.1-12.7,13.1c-7,0-12.6-5.8-12.6-13.1
					S151.2,34.2,158.2,34.2z M158.2,57.9c5.6,0,10.2-4.7,10.2-10.5s-4.6-10.6-10.2-10.6s-10.2,4.8-10.2,10.6
					C148.1,53.1,152.6,57.9,158.2,57.9z">
     </path>
     <path id="Path_8_" class="st1" d="M179.8,35.3c0-0.4,0.3-0.7,0.7-0.7h1.4c0.4,0,0.7,0.3,0.7,0.7v22.3h10.1
					c0.4,0,0.7,0.3,0.7,0.7v1.1c0,0.4-0.3,0.7-0.7,0.7h-12.2c-0.4,0-0.7-0.3-0.7-0.7V35.3L179.8,35.3z">
     </path>
     <path id="Shape_4_" class="st1" d="M211.1,34.2c7,0,12.7,5.8,12.7,13.1c0,7.3-5.6,13.1-12.7,13.1c-7,0-12.6-5.8-12.6-13.1
					C198.4,40.1,204,34.2,211.1,34.2z M211.1,57.9c5.6,0,10.2-4.7,10.2-10.5s-4.6-10.6-10.2-10.6c-5.6,0-10.2,4.8-10.2,10.6
					C200.9,53.1,205.5,57.9,211.1,57.9z">
     </path>
     <path id="Path_9_" class="st1" d="M243.5,34.2c3.5,0,6.1,1.3,8.5,3.4c0.3,0.3,0.3,0.7,0,1c-0.3,0.3-0.7,0.7-1,1
					c-0.3,0.4-0.5,0.3-0.9,0c-1.8-1.6-4.3-2.8-6.7-2.8c-5.6,0-9.8,4.8-9.8,10.4c0,5.6,4.2,10.5,9.8,10.5c3.9,0,6.3-1.5,6.3-1.5v-5.1
					h-4c-0.4,0-0.7-0.3-0.7-0.7v-1.3c0-0.4,0.3-0.7,0.7-0.7h6.1c0.4,0,0.6,0.3,0.6,0.7v8.3c0,0.2-0.1,0.5-0.3,0.6
					c0,0-3.6,2.4-8.7,2.4c-7,0-12.7-5.8-12.7-13.1C230.8,40.1,236.5,34.2,243.5,34.2z">
     </path>
     <path id="Path_10_" class="st1" d="M266.8,47.8l-8.5-12.1c-0.3-0.5,0-1.1,0.6-1.1h1.7c0.2,0,0.5,0.2,0.6,0.3l7.1,10.1l7.1-10.1
					c0.1-0.1,0.3-0.3,0.6-0.3h1.7c0.6,0,0.8,0.6,0.6,1.1l-8.6,12.1v11.6c0,0.4-0.3,0.7-0.7,0.7h-1.4c-0.4,0-0.7-0.3-0.7-0.7
					L266.8,47.8L266.8,47.8z">
     </path>
    </g>
    <g>
     <ellipse id="Oval" class="st0" cx="41.9" cy="6.4" rx="6.2" ry="6.4">
     </ellipse>
     <linearGradient id="Path_15_" gradientUnits="userSpaceOnUse" x1="131.0329" y1="259.1695" x2="131.5712" y2="261.2414" gradientTransform="matrix(11.1299 0 0 -19.3175 -1406.6229 5051.6362)">
      <stop offset="0" style="stop-color:#F9423A">
      </stop>
      <stop offset="0.1264" style="stop-color:#FA562D">
      </stop>
      <stop offset="0.3492" style="stop-color:#FC7319">
      </stop>
      <stop offset="0.571" style="stop-color:#FE870B">
      </stop>
      <stop offset="0.7893" style="stop-color:#FF9403">
      </stop>
      <stop offset="1" style="stop-color:#FF9800">
      </stop>
     </linearGradient>
     <path id="Path_11_" class="st2" d="M43.5,32.7l6.7,15.2L67.1,9.7C67.4,9,67.4,8.2,67,7.6c-0.4-0.6-1-0.9-1.9-0.9h-9.1
					c-1,0-1.7,0.7-1.9,1.3L43.5,32.7z">
     </path>
     <path id="Path_12_" class="st3" d="M48.3,89.8L13.1,8c-0.2-0.5-1-1.3-1.9-1.3H2.1C1.3,6.7,0.7,7,0.3,7.6
					c-0.4,0.6-0.4,1.3-0.1,2.1l39,89c0.4,0.7,1.2,1.3,1.9,1.3h1.3c0.8,0,1.5-0.5,1.9-1.3L48.3,89.8z">
     </path>
     <linearGradient id="Path_16_" gradientUnits="userSpaceOnUse" x1="130.2725" y1="267.1818" x2="130.7655" y2="265.0926" gradientTransform="matrix(15.7621 0 0 -30.118 -2023.3341 8052.1758)">
      <stop offset="0" style="stop-color:#3CDBC0">
      </stop>
      <stop offset="0.169" style="stop-color:#3AD7C0">
      </stop>
      <stop offset="0.3442" style="stop-color:#34CABF">
      </stop>
      <stop offset="0.5222" style="stop-color:#2BB6BD">
      </stop>
      <stop offset="0.7022" style="stop-color:#1E99BB">
      </stop>
      <stop offset="0.882" style="stop-color:#0D74B9">
      </stop>
      <stop offset="1" style="stop-color:#0057B7">
      </stop>
     </linearGradient>
     <path id="Path_13_" class="st4" d="M29.7,8c-0.2-0.5-1-1.3-1.9-1.3h-9.1c-0.8,0-1.5,0.3-1.9,0.9c-0.4,0.6-0.4,1.3-0.1,2.1
					L43.6,71l6.6-15.3L29.7,8z">
     </path>
     <path id="Path_14_" class="st1" d="M83.6,7.6c-0.4-0.6-1-0.9-1.9-0.9h-9.1c-1,0-1.7,0.7-1.9,1.3L43.6,71l6.4,14.7l33.5-76
					C83.9,9,83.9,8.2,83.6,7.6z">
     </path>
    </g>
   </g>
   <path id="Shape_5_" class="st0" d="M422.8,12.4V9.1h-0.9c-0.1,0-0.3-0.1-0.3-0.3V8.5c0-0.1,0.1-0.3,0.3-0.3h2.8
			c0.2,0,0.3,0.1,0.3,0.3v0.4c0,0.2-0.1,0.3-0.3,0.3h-0.9v3.3c0,0.1-0.1,0.3-0.3,0.3H423C422.9,12.7,422.8,12.6,422.8,12.4z
			 M425.3,12.4l0.7-4c0-0.1,0.1-0.2,0.3-0.2h0.1c0.1,0,0.2,0.1,0.2,0.2l1.2,2.9l1.2-2.9c0-0.1,0.2-0.2,0.2-0.2h0.1
			c0.1,0,0.2,0.1,0.3,0.2l0.7,4c0,0.2-0.1,0.3-0.3,0.3h-0.4c-0.1,0-0.2-0.1-0.3-0.2l-0.4-2.1l-1,2.3c0,0.1-0.1,0.1-0.2,0.1h-0.1
			c-0.1,0-0.2-0.1-0.2-0.1l-0.9-2.3l-0.4,2.1c0,0.1-0.2,0.2-0.3,0.2h-0.3C425.4,12.7,425.3,12.6,425.3,12.4z">
   </path>
  </g>
 </g>
</svg>