<svg version="1.1" id="Layer_1" xmlns:x="ns_extend;" xmlns:i="ns_ai;" xmlns:graph="ns_graphs;" xmlns="http://www.w3.org/2000/svg" xmlns:xlink="http://www.w3.org/1999/xlink" x="0px" y="0px" viewBox="0 0 253.9 68.2" style="enable-background:new 0 0 253.9 68.2;" xml:space="preserve">
 <style type="text/css">
  .st0{fill:#1A86EA;}
 </style>
 <metadata>
  <sfw xmlns="ns_sfw;">
   <slices>
   </slices>
   <sliceSourceBounds bottomLeftOrigin="true" height="68.2" width="253.9" x="73.2" y="-233.9">
   </sliceSourceBounds>
  </sfw>
 </metadata>
 <g>
  <path class="st0" d="M170.4,44.6c7.7,0,12,3.2,12,9.3c0,8.6-9.8,14.3-19.7,14.3c-8.4,0-15.7-2.7-15.7-8.3c0-4.2,5.1-7.3,10.3-8
		c-3.7-0.2-7.9-2.6-7.9-6.7c0-3.9,4.2-6.7,8.4-7.5c-4.3-1.8-7.5-5.5-7.5-10.3c0-7.2,6.8-11.8,13.7-11.8c2.9,0,6.1,1.2,8.4,1.9
		c0.3,0.1,0.1,0,0.4,0.1c2,0.7,3.7,0.5,4.2-1.4c0.3-1.3,1.3-2.3,2.7-2.7c1.8-0.5,3.6,0.4,4.4,1.9c0.1,0.2,0.2,0.4,0.3,0.7
		c0.6,2.1-0.4,4.3-3,5.1c-2,0.6-6.2-1.7-9.1-3c2.8,1.7,5.3,5.3,5.3,9.1c0,7-6.5,11.5-13.4,11.5c-1.8,0-3.5-0.3-4.8-0.7
		c-2.1,0.6-4.7,1.7-4.7,3.5c0,1.9,1.8,2.8,5,2.8h10.7V44.6z M164,16.6c-3.8,0-5.2,4.6-5.2,11c0,6.5,1.4,10.6,5.2,10.6
		c3.7,0,5.1-4.6,5.1-10.9C169.1,20.7,167.7,16.6,164,16.6 M164,66.5c6.2,0,11.8-3.2,11.8-8.8c0-3.9-2.9-5.8-8.9-5.8l-7.1-0.1
		c-2.3,0.3-5.2,2.7-5.2,7C154.6,63.9,159,66.5,164,66.5 M253.3,49c-3.8-0.5-4.4-1-4.4-1.7v-21c0-6.4-3.4-10.5-8.9-10.5
		c-5.9,0-10.4,5-12.2,9.4l0.3-9.3c0-0.3-0.2-0.6-0.6-0.6c-0.2,0-0.3,0.1-0.4,0.2c-2.1,2.4-6.8,4.5-11.7,5c-0.2,0-0.4,0.2-0.4,0.5
		c0,0.2,0.2,0.4,0.4,0.5c3.7,0.6,4.4,1.8,4.4,2.6v23.2c0,0.7-0.6,1.2-4.3,1.7c-0.2,0-0.4,0.2-0.4,0.4c0,0.3,0.2,0.5,0.5,0.4
		c2.3-0.1,5.8-0.3,8.3-0.3s6,0.1,8.3,0.3c0.3,0,0.5-0.2,0.5-0.4c0-0.2-0.2-0.4-0.4-0.4c-3.8-0.5-4.4-1-4.4-1.7V30.7
		c0-1.6,0.1-2.7,0.4-3.8c1-3.4,3.7-5.3,6.7-5.3c3.9,0,6,2.7,6,7.7v17.8c0,0.7-0.6,1.2-4.3,1.7c-0.2,0-0.4,0.2-0.4,0.4
		c0,0.3,0.2,0.5,0.5,0.4c2.3-0.1,5.8-0.3,8.3-0.3s6,0.1,8.3,0.3c0.3,0,0.5-0.2,0.5-0.4C253.7,49.2,253.5,49,253.3,49 M62.4,49
		c-3.8-0.5-4.4-1-4.4-1.7V28c0-5.4,0.1-9.2,0.2-12.2c0-0.3-0.2-0.6-0.5-0.6c-0.2,0-0.3,0.1-0.4,0.2c-1.6,2.4-5.9,4.5-10.7,5
		c-0.2,0-0.4,0.2-0.4,0.5c0,0.2,0.2,0.4,0.4,0.5c2.8,0.5,3.4,1.8,3.4,2.6v23.2c0,0.7-0.6,1.2-4.3,1.7c-0.2,0-0.4,0.2-0.4,0.4
		c0,0.3,0.2,0.5,0.5,0.4c2.3-0.1,5.8-0.3,8.3-0.3s6,0.1,8.3,0.3c0.3,0,0.5-0.2,0.5-0.4C62.8,49.2,62.7,49,62.4,49 M71.1,21.8
		c0-3.2,2.1-4.9,5.6-4.9c4.8,0,8.2,4,10,10c0.1,0.2,0.3,0.4,0.6,0.3c0.2-0.1,0.3-0.3,0.3-0.5l-0.6-8c0-0.4-0.2-0.7-0.5-0.9
		c-2-1.2-5.3-2.2-8.7-2.2c-6.5,0-12.1,4.4-12.1,10.5c0,11.8,17.1,8,17.1,17.3c0,4.1-2.7,5.9-6.4,5.9c-5.6,0-9.3-4.5-11.2-11.6
		c-0.1-0.2-0.3-0.4-0.6-0.3c-0.2,0-0.4,0.2-0.4,0.5l0.3,8.7c0,0.4,0.2,0.7,0.5,0.9c2.8,1.8,7.4,3,10.8,3c7.5,0,13.5-4.9,13.5-11.3
		C89.2,27.5,71.1,30.5,71.1,21.8 M115.4,45.2c-0.2-0.2-0.4-0.2-0.6,0c-1.4,1-2.9,1.5-4.9,1.5c-3,0-6.2-1.6-6.2-4.2V19.9h10.4
		l1.1-3.4h-11.5l0.1-7.4c0-0.3-0.2-0.5-0.5-0.5c-0.2,0-0.4,0.1-0.5,0.3c-2,4.1-7.3,8.5-11.2,10.3c-0.2,0.1-0.3,0.3-0.3,0.5
		c0,0.3,0.2,0.5,0.5,0.5h3.9l-0.1,23.4c0,4,3.2,7.2,8.4,7.2c4.6,0,8.9-2.4,11.3-4.7C115.5,45.6,115.5,45.4,115.4,45.2L115.4,45.2z
		 M213.7,38c0.2,0.1,0.4,0.3,0.3,0.6c-1.9,6.4-7.2,12-15.2,12c-9.3,0-16.3-7-16.3-16.6c0-9.2,7.3-18.2,16.8-18.2
		c8,0,13.1,5.2,13.1,12.1c0,0.4-0.3,0.7-0.7,0.7h-22v1c0,9.4,5.6,15.1,13,15.1c4.9,0,8.4-2.6,10.5-6.5C213.2,38,213.5,37.9,213.7,38
		 M197.4,16.9c-4.4,0-7.2,4.7-7.7,10.5l10.9-0.1c1.5-0.1,2.4-1,2.4-2.8C203,20.8,201.4,16.9,197.4,16.9 M147.5,41.6
		c0.2,0,0.4,0.2,0.4,0.4c-0.3,4.7-2.6,8.5-7.3,8.5c-3.7,0-6.2-2.8-6.6-6.6c-1.8,3.2-5.4,6.5-9.7,6.5c-4.2,0-7.2-3-7.2-6.8
		c0-6.6,7.9-9.9,17-11.1c0.1-1.3,0.1-5.3,0.1-7.3c0-4.2-3.2-6.8-7.6-6.8c-2.9,0-4,1.6-4,2.8c0,0.8,0.6,1.4,1.8,2.1l0,0
		c1.3,0.7,2.1,2.1,2.1,3.7c0,2.1-1.5,3.8-3.4,4.1c-0.2,0.1-0.5,0.1-0.8,0.1c-2.4,0-4.5-1.8-4.5-4.9c0-5.6,7-10.6,14.1-10.6
		c7,0,10.1,3.4,10.1,9.4c0,5.1-0.4,13.6-0.4,16.9c0,2.2,1.1,3.2,2.4,3.2c1.8,0,2.8-1.2,3-3.2C147.1,41.7,147.3,41.6,147.5,41.6
		 M134,33.6c-4.9,0.9-8.4,3.3-8.4,7.1c0,2.8,1.6,4.2,3.9,4.2c2,0,3.4-1.1,4.3-2.3L134,33.6z M48,6.3C48.4,9,50.7,11,53.4,11
		c3.1,0,5.5-2.5,5.5-5.5S56.4,0,53.4,0c-6.2,0-8.6,7.1-9.6,10.2c-1.1,3.2-8.5,25.3-11.5,34.4c-0.4,1.3-2.2,1.3-2.7,0L16.1,6
		c-0.7-2,1.2-3.3,4.7-3.6c0.2,0,0.4-0.2,0.4-0.5c0-0.2-0.2-0.4-0.5-0.4c-2.3,0.1-7.5,0.2-10.9,0.2S2.6,1.6,0.4,1.5
		C0.2,1.6,0,1.8,0,2c0,0.2,0.2,0.4,0.4,0.4c3.9,0.3,5.2,1,6.3,4l13.6,37.8c1.8,5,3.8,6.3,6.9,6.3s5.1-1.1,6.8-6.1
		c1-2.9,11.5-34,11.5-34s0.9-2.9,2-4.3C47.6,5.8,47.9,5.9,48,6.3">
  </path>
 </g>
</svg>