<svg version="1.1" id="Layer_1" xmlns:x="ns_extend;" xmlns:i="ns_ai;" xmlns:graph="ns_graphs;" xmlns="http://www.w3.org/2000/svg" xmlns:xlink="http://www.w3.org/1999/xlink" x="0px" y="0px" viewBox="0 0 285 20.1" style="enable-background:new 0 0 285 20.1;" xml:space="preserve">
 <metadata>
  <sfw xmlns="ns_sfw;">
   <slices>
   </slices>
   <sliceSourceBounds bottomLeftOrigin="true" height="20.1" width="285" x="11.8" y="-203.9">
   </sliceSourceBounds>
  </sfw>
 </metadata>
 <g>
  <path d="M15.9,0.5h5.3v1c-1.4,0.1-1.8,0.8-2.4,2.6l-3.7,12.4h-1L10.6,5.5h0L7.4,16.5h-1l-4.7-14c-0.3-0.8-0.4-1-1.5-1H0v-1l6.1,0
		l0,1H4.9C4.4,1.5,4.2,1.7,4.2,2c0,0.2,0.2,0.8,0.4,1.4l2.9,9.1h0l2.6-8.7L9.5,2.1C9.4,1.6,9.1,1.5,8.3,1.5H7.6v-1l6.3,0v1l-0.7,0
		c-1,0-1.2,0.3-1.2,0.7c0,0.5,0.2,1.2,0.5,2l2.6,8.2h0l2.5-8.7c0.1-0.4,0.2-0.9,0.2-1.2c0-0.9-1-1-2.1-1.1V0.5z">
  </path>
  <path d="M22.5,15.3h1.2c0.8,0,1.2-0.2,1.2-1.1l0-11.6c0-0.9-0.4-1.1-1.2-1.1h-1.2v-1l7.2,0v1h-1.2c-0.8,0-1.2,0.2-1.2,1.1v11.6
		c0,0.9,0.4,1.1,1.2,1.1h1.2l0,1h-7.2V15.3z">
  </path>
  <path d="M32.1,0.5l7.2,0v1h-1.2c-0.9,0-1.2,0.2-1.2,1.1l0,11.8c0,0.8,0.3,0.9,1.6,0.8c4.1,0,5.2-0.2,6.1-4.9h0.9l-0.4,5.8l-13,0v-1
		h1.2c0.8,0,1.2-0.2,1.2-1.1V2.6c0-0.9-0.4-1.1-1.2-1.1l-1.2,0L32.1,0.5z">
  </path>
  <path d="M47,0.5l7.2,0v1l-1.2,0c-0.9,0-1.2,0.2-1.2,1.1l0,11.8c0,0.8,0.3,0.8,1.6,0.8c4.1,0,5.2-0.2,6.1-4.9h0.9L60,16.2l-13,0v-1
		h1.2c0.9,0,1.2-0.2,1.2-1.1V2.6c0-0.9-0.4-1.1-1.2-1.1H47V0.5z">
  </path>
  <path d="M62.2,15.2h1.2c0.9,0,1.2-0.2,1.2-1.1l0-11.6c0-0.9-0.4-1.1-1.2-1.1h-1.2v-1l7.2,0v1h-1.2c-0.9,0-1.2,0.2-1.2,1.1l0,11.6
		c0,0.9,0.4,1.1,1.2,1.1h1.2v1h-7.2V15.2z">
  </path>
  <path d="M75.4,9.9l2.5-6.4l2.6,6.4H75.4z M70.5,16.2l5.8,0v-1c-1.3,0-2.2-0.2-2.2-1.3c0-0.2,0.1-0.6,0.3-1.2L75,11l5.9,0l1,2.6
		c0.2,0.6,0.3,0.9,0.3,1.1c0,0.4-0.4,0.6-1.7,0.6h-0.5v1l6.7,0v-1c-1.2,0-1.6-0.1-1.9-0.9L78.9,0.1l-0.9,0l-5.3,13.4
		c-0.4,1.1-1.1,1.7-2.3,1.7V16.2z">
  </path>
  <path d="M101.3,0.5l5.5,0v1l-1.2,0c-0.9,0-1.2,0.2-1.2,1.1l0,11.6c0,0.9,0.4,1.1,1.2,1.1h1.2v1l-7.3,0v-1h1.2
		c0.8,0,1.2-0.2,1.2-1.1l0-12.6h-0.1l-5,14.6h-0.7L91.1,1.5h0l0,10.6c0,2,0.2,3,2.5,3.1v1l-6.1,0v-1c1.9-0.2,2.5-0.5,2.5-3.6l0-9.1
		c0-0.9-0.4-1.1-1.2-1.1h-1.2v-1l5.6,0l4.2,11.8h0L101.3,0.5z">
  </path>
  <path d="M118.4,0.2h0.8l0.3,5.7h-0.9c-0.6-2.4-2.2-4.8-5-4.8c-2.1,0-3.1,1.3-3.1,2.6c0,1.1,0.6,2,2.6,2.6l3.4,0.9
		c2.5,0.7,3.7,2.3,3.7,4.6c0,2.6-1.9,4.7-5.3,4.7c-1.8,0-3.4-0.6-4.5-1.7l-1,1.6h-0.7l-0.1-6.2l0.8-0.1c0.6,3.5,2.8,5.4,5.5,5.4
		c2.2,0,3.6-1.2,3.6-3.2c0-1.3-0.6-2.1-2.1-2.5l-3.5-0.9c-2.6-0.7-4.1-1.8-4.1-4.3c0-2.9,1.9-4.5,4.8-4.5c1.6,0,2.8,0.5,4,1.5
		L118.4,0.2z">
  </path>
  <rect x="121.6" y="9.1" transform="matrix(1 -1.362925e-03 1.362925e-03 1 -1.342775e-02 0.1695)" width="5.4" height="1.7">
  </rect>
  <path d="M139.4,0.2h0.8l0.3,5.6h-0.9c-0.6-2.4-2.2-4.8-5-4.8c-2.1,0-3.1,1.3-3.1,2.6c0,1.1,0.6,2,2.6,2.6l3.4,0.9
		c2.5,0.7,3.7,2.3,3.7,4.6c0,2.6-1.9,4.7-5.3,4.7c-1.8,0-3.3-0.6-4.5-1.7l-1,1.6h-0.7l-0.1-6.2l0.8-0.1c0.6,3.5,2.8,5.4,5.5,5.4
		c2.2,0,3.6-1.2,3.6-3.2c0-1.3-0.6-2.1-2.1-2.5l-3.5-0.9c-2.6-0.7-4.1-1.8-4.1-4.3c0-2.9,2-4.5,4.8-4.5c1.6,0,2.8,0.5,4,1.5
		L139.4,0.2z">
  </path>
  <path d="M155.8,8.3c0,3.2-0.7,7.2-4.7,7.2c-4.5,0-4.7-5-4.7-7.2c0-3.2,0.7-7.2,4.7-7.2C155.5,1.1,155.8,6.1,155.8,8.3 M158.6,8.3
		c0-4.2-3-8.2-7.5-8.2c-5.1,0-7.5,4.9-7.5,8.2c0,4.2,3,8.2,7.5,8.2C156.2,16.5,158.6,11.5,158.6,8.3">
  </path>
  <path d="M171.1,0.4l6.1,0v1c-1.1,0.1-1.8,0.3-2.1,0.9c-0.3,0.6-0.4,1.3-0.4,2.5v11.7h-0.9l-9.7-13.4h0l0,9.5c0,1.8,0.2,2.5,2.5,2.6
		l0,1h-6.2v-1c1.9-0.1,2.5-0.8,2.5-2.6l0-10.5c-0.5-0.6-1-0.7-2.2-0.7h-0.3v-1l4.5,0l8.6,11.7h0V4.4c0-2-0.2-3-2.5-3.1V0.4z">
  </path>
  <path d="M190.5,8.2c0,3.2-0.7,7.2-4.7,7.2c-4.5,0-4.7-5-4.7-7.2c0-3.2,0.7-7.2,4.7-7.2C190.3,1,190.5,6.1,190.5,8.2 M193.3,8.2
		c0-4.2-3-8.2-7.5-8.2c-5.1,0-7.5,4.9-7.5,8.2c0,4.2,3,8.2,7.5,8.2C190.9,16.4,193.3,11.5,193.3,8.2">
  </path>
  <path d="M208.3,0.4l5.5,0v1h-1.2c-0.8,0-1.2,0.2-1.2,1.1V14c0,0.9,0.4,1.1,1.2,1.1h1.2v1l-7.2,0v-1h1.2c0.8,0,1.2-0.2,1.2-1.1
		l0-12.6h0l-5,14.7h-0.7l-5.2-14.6h0v10.6c0,2,0.2,3,2.5,3.1v1l-6.1,0v-1c1.9-0.2,2.5-0.6,2.5-3.6V2.5c0-0.9-0.4-1.1-1.2-1.1h-1.2
		v-1l5.6,0l4.2,11.8h0L208.3,0.4z">
  </path>
  <path d="M219.5,9.8l2.5-6.3l2.6,6.3H219.5z M214.7,16.1l5.8,0v-1c-1.3,0-2.2-0.2-2.2-1.3c0-0.2,0.1-0.6,0.3-1.2l0.6-1.7l5.9,0
		l1,2.6c0.2,0.6,0.3,0.9,0.3,1.1c0,0.4-0.4,0.6-1.7,0.6h-0.6v1l6.7,0v-1c-1.2,0-1.6-0.1-1.9-0.9L223.1,0h-0.9L217,13.4
		c-0.4,1.1-1.1,1.7-2.3,1.7V16.1z">
  </path>
  <path d="M232.4,19.5c1.3-1,2.3-2.3,2.3-3c0-0.2-0.1-0.3-0.2-0.3c-0.1,0-0.2,0-0.3,0c-0.1,0-0.2,0-0.3,0c-0.8,0-1.4-0.5-1.4-1.4
		c0-0.7,0.7-1.3,1.4-1.3c1.1,0,1.9,0.9,1.9,2.3c0,1.4-0.8,2.6-2.9,4.2L232.4,19.5z">
  </path>
  <path d="M240.3,15.1l1.2,0c0.8,0,1.2-0.2,1.2-1.1l0-11.6c0-0.9-0.4-1.1-1.2-1.1h-1.2v-1l7.2,0v1h-1.2c-0.8,0-1.2,0.2-1.2,1.1
		l0,11.6c0,0.9,0.4,1.1,1.2,1.1l1.2,0v1l-7.2,0V15.1z">
  </path>
  <path d="M260.5,0.3l6.1,0v1c-1.1,0.1-1.8,0.3-2.1,0.9c-0.3,0.6-0.4,1.3-0.4,2.5l0,11.7h-0.9L253.6,3h0l0,9.5c0,1.8,0.2,2.5,2.6,2.6
		v1l-6.2,0l0-1c1.9-0.1,2.5-0.8,2.5-2.6l0-10.5c-0.5-0.6-1-0.7-2.2-0.7H250v-1l4.5,0l8.6,11.7h0V4.4c0-2-0.2-3-2.5-3.1V0.3z">
  </path>
  <path d="M279,0.1h0.8l0.3,6.3h-0.9c-0.7-2.9-2.2-5.5-5-5.5c-3.3,0-4.6,3.2-4.6,7.3c0,1.6,0.1,3.3,0.8,4.8c0.7,1.5,2.2,2.4,3.9,2.4
		c3.2,0,4.6-2.1,5.1-4.9l1,0.2c-0.5,3.5-2.6,5.7-6.4,5.7c-2,0-3.9-0.9-5.3-2.4c-1.3-1.5-1.9-3.4-1.9-5.4c0-5.4,3.9-8.6,7.5-8.6
		c1.2,0,2.7,0.5,3.7,1.5L279,0.1z">
  </path>
  <path d="M283.6,13.7c0.7,0,1.4,0.6,1.4,1.3c0,0.7-0.6,1.3-1.4,1.3c-0.7,0-1.3-0.6-1.3-1.3C282.3,14.3,282.9,13.7,283.6,13.7">
  </path>
 </g>
</svg>