<svg version="1.1" id="Layer_1" xmlns:x="ns_extend;" xmlns:i="ns_ai;" xmlns:graph="ns_graphs;" xmlns="http://www.w3.org/2000/svg" xmlns:xlink="http://www.w3.org/1999/xlink" x="0px" y="0px" viewBox="0 0 305.5 137.3" style="enable-background:new 0 0 305.5 137.3;" xml:space="preserve">
 <metadata>
  <sfw xmlns="ns_sfw;">
   <slices>
   </slices>
   <sliceSourceBounds bottomLeftOrigin="true" height="137.3" width="305.5" x="19.8" y="-273.1">
   </sliceSourceBounds>
  </sfw>
 </metadata>
 <g>
  <path d="M209.9,58.9c-1.4,0-2.6-1.2-2.5-2.6c0-1.4,1.2-2.5,2.6-2.5c1.4,0,2.6,1.2,2.5,2.6C212.5,57.8,211.3,58.9,209.9,58.9
		 M210,54.2c-1.2,0-2.2,0.9-2.2,2.1c0,1.2,0.9,2.2,2.1,2.2c1.2,0,2.2-0.9,2.2-2.1C212.1,55.2,211.2,54.2,210,54.2 M208.9,55l1.2,0
		c0.7,0,0.9,0.4,0.9,0.7c0,0.4-0.3,0.8-0.8,0.8v0c0.2,0.1,0.4,0.3,0.6,0.7l0.3,0.5l-0.5,0l-0.2-0.4c-0.3-0.6-0.5-0.7-0.8-0.8l-0.3,0
		l0,1.2l-0.4,0L208.9,55z M209.9,56.2c0.3,0,0.6-0.1,0.6-0.4c0-0.3-0.2-0.4-0.5-0.4l-0.7,0l0,0.8L209.9,56.2z M94,0.1
		c-0.1-0.3-2.7,0.5-2.5,2c0.5,2.6,0.8,6.6-0.2,8.8c-2.2,5.1-5.9,9.6-8.6,14.7C71,47.6,57,60.3,43.6,69c-1,0.6-6.1,2.4-7,0.6
		c-2.8-5.6,9.9-18.4,11.7-23.5c0.1-0.7,0.1-1.5,0.2-2.2c-0.3-0.5-0.5-1.1-0.8-1.6c-0.7-0.6-1.8-0.7-2.8-0.6c-0.2,0-0.3,0-0.5,0.1
		c-0.2,0.1-0.4,0.1-0.5,0.2c-3.6,1.4-5.5,5.5-8.5,8c-3.7,3.2-7.8,6.3-11.9,8.9c-2.3,1.5-5.8,4.1-7.1,5c-1.2,0.9-5.3,3.9-8.1,3
		c-1.4-0.4-1.5-2.2-1.2-3.4c1.1-4.4,5.9-8.4,9.1-11.5c3.4-3.3,6.5-7.7,8.9-11.6c1-1.7,2.4-3.5,2.4-5.6c-0.2-8.4-10.6,2.4-12.1,4.8
		c-0.6,0.9-1.1,1.5-2.2,3c-5,8.1-21,24.2-8.5,32.2c1.9,1.1,4.6,1.6,9.1-1.1c3.4-2,14-9.5,17.3-8.8c-0.5,0,0,1.1-0.1,1.7
		c-0.1,0.6-0.5,3.1-0.5,3.6c-0.6,5.5,3.8,4.7,7.4,5.8c2.1,0.3,11.2-1.1,22.4-11.7c4.6-4.3,9-8,15.4-16.2c7.6-9.7,5-8.7,11.9-18.3
		c1.7-2.6,3.4-5.3,5.1-7.9c2.4-3.5,5.8-7.4,6.9-11.4C100.5,6.7,97.9,0.3,94,0.1 M89.1,88.3c-2.9,19.3-9.3,31.7-28.4,38.6
		c-1.3,0.5-5.8,1.7-6.4,1.8c-9.8,0.8-17.1,1-24.4-4c-1.5-1.1-3.1-4.5-2.8-6.7c1-6.6,6.3-10.9,11-15.5C44.6,96,51.4,90,58.5,84.5
		c4.3-3.2,8.6-6.5,13-9.7c1.5-0.1,2.9,0.4,4.6,0.2c3.4-0.5,10.2-3.3,12.8-5.3c0.1-0.3,2-1,2.2-0.2c0.2,1,0.4,2,0.6,3
		C91.8,78.1,89.9,83.1,89.1,88.3 M209,75.7c1.5-0.3,22.8-6.1,32.6-5.1c4.5,0,17.6,4.1,21.8,4.3c3.5,0.4,16.2,0.7,16.5,0.7
		c4.2,0,8.6,0.3,11.3-3.5c0.6-0.8-0.1-1.5-0.9-1.8c-3.6-1.2-10.5-0.8-12.3-0.5c-17,1.3-21.6-2.8-37.7-3.9c-4.3-0.3-31,4.8-31.9,5
		c0,0-3.4,0.7-7,1.6c-3.5,1-3.8-2.5-4-3.5c-0.1-1.1,1.4-7.9,1.8-9.5c0.8-3.3-0.8-5.6-2.3-5.7c-1.6-0.1-4.8,1.9-6,3
		c-1.2,1.1-10.2,7.2-12.8,9.4c-2.6,2.2-3.4-0.7-2.7-1.8c0.7-1.1,2.2-5,3-7.4c0.8-2.3-0.8-3.8-2.2-4.5c-1.4-0.7-4.2,1.1-5,1.9
		c-0.8,0.8-5.2,3.8-8,5.9c-2.9,2-10.5,6.3-13.9,7.9c-3.4,1.6-3.4-2.5-3.1-4.4c0.3-1.9,1.1-5,1.5-8.3c0.5-4.4-3.7-3.4-5.3-2.6
		c-1.6,0.8-14.9,10.1-16.6,11.5c-1.8,1.4-1.8-1-1.6-1.8s0.4-2.5,1.9-5.7c1.5-3.3,0.3-4.2,0-5.7c-0.3-1.5-3.5-0.8-6.1,0.3
		c-1.4,0.6-17.2,6.3-17.8,6.4c-0.5,0-1,0.1-1.5,0.1c0-0.1-0.3-0.1-0.3-0.5c-0.1-1.7-0.8-3-2.7-2.7c-4.1,0.6-6.3,4.3-9.3,6.7
		c-4.2,3.4-8.5,7-13.3,9.3c-1.5,0.8-1.2-2.6-0.1-3.9c6.6-7.9,4.1-5.2,7.2-8.6c2.4-3.1,5.6-6.4,6.8-10c1.1-3.3-0.5-8.7-4.1-9.1
		c-1.3-0.1-2.3,1-2.3,2c0.2,2.3-0.2,5.1-1.1,7.1c-2.1,4.6-5.1,9-8.5,12.9C68,67,67.8,71.9,67.8,71.9s-7.5,5-10.5,7.6
		c-4.8,3.9-9.5,7.9-14.3,11.8c-8.2,7.4-28.5,21.1-21.7,34.5c1.4,2.8,3.8,5.4,6.7,6.9c4.4,2.4,10.3,4.9,15.7,4.5
		c0.4,0.1,0.9,0.2,1.3,0.2c4.3,0.1,9-0.5,13-1.7c26-8.3,42.4-36.7,40.2-64.5c-0.1-1.6,0.8-3.4,1.9-4.5c2.7-2.4,13.1-9,16.3-9.5
		c4-0.7,2.2,5.3,1.6,7.2c-0.5,1.9-2.2,4.6-2.5,7c-0.3,2.3,2.1,3.3,3.8,4c2.3,0.8,5.7-2.2,6.8-3.1c1.1-1,11-9.5,12.8-10.8
		c1.8-1.2,2,1.5,1.8,2.7c-0.3,1.2-1.1,4.5-1.2,6.6c-0.1,2,0.3,4.2,2,5.3c1.8,1.1,3.5,0.3,5.6-1c2-1.2,14.9-9.7,16-10.2
		c1.1-0.5,4.2-3,6.3-3.5c2-0.5,1.9,1.8,1,3.8c-0.4,0.8-1.2,4.6-1.6,6.5c-0.4,1.9-0.5,4,1.8,5.9c1.8,1.5,6-2.6,7.1-3.5
		c1.1-1,10.5-9.4,12.3-10.5c1.8-1.1,2.6,1.6,1.9,4.1c-0.8,3-1,5.8-0.5,6.8c1.2,2.3,3.6,3.5,9.3,3C201.6,77.1,209,75.7,209,75.7
		 M297.2,73.2c0.6,1.7,1.6,3.1,4.4,3.6c1.3,0.2,2.9-0.5,3.2-1.4c0.3-1.1,0.9-1.7,0.6-3.1c-0.3-1.8-1.6-3.1-4.4-3.6
		c-1.3-0.2-2.9,0.5-3.2,1.4C297.6,71.2,296.7,71.8,297.2,73.2">
  </path>
  <path d="M142.1,116.3V99.7h4.8c1.7,0,3,0.4,3.9,1.2c0.9,0.8,1.4,1.9,1.4,3.3c0,1.1-0.2,2-0.7,2.6c-0.5,0.7-1.3,1.2-2.3,1.5
		c0.3,0.1,0.5,0.3,0.8,0.6c0.2,0.2,0.6,0.7,0.9,1.2l4,6H152l-2.8-4.3c-0.9-1.3-1.5-2.1-2.1-2.5c-0.5-0.4-1.1-0.5-1.9-0.5h-0.7v7.4
		H142.1z M144.5,106.9h2c1.1,0,1.9-0.2,2.5-0.6c0.5-0.4,0.8-1.1,0.8-1.9c0-0.9-0.3-1.5-0.8-2c-0.5-0.4-1.4-0.6-2.5-0.6h-2V106.9z">
  </path>
  <polygon points="159.7,116.3 159.7,99.7 169.6,99.7 169.6,101.8 162,101.8 162,106.9 169.4,106.9 169.4,109 162,109 162,114.1 
		169.9,114.1 169.9,116.3 	">
  </polygon>
  <path d="M175.9,115v-3.1c0.7,0.9,1.5,1.5,2.1,1.9c0.7,0.4,1.4,0.6,2.2,0.6c0.8,0,1.5-0.2,1.9-0.6c0.5-0.4,0.7-0.9,0.7-1.6
		c0-0.5-0.2-1-0.5-1.4c-0.3-0.4-1.1-1-2.3-1.8c-1.9-1.2-3-2.1-3.5-2.8c-0.5-0.7-0.7-1.4-0.7-2.4c0-1.3,0.5-2.3,1.4-3.2
		c0.9-0.8,2.1-1.2,3.5-1.2c0.6,0,1.3,0.1,1.9,0.3c0.6,0.2,1.2,0.5,1.9,0.9v2.7c-0.7-0.6-1.4-1-2-1.3c-0.6-0.3-1.2-0.4-1.8-0.4
		c-0.7,0-1.3,0.2-1.8,0.5c-0.5,0.4-0.7,0.8-0.7,1.4c0,0.8,1,1.8,2.9,3l0.4,0.2c1.6,1,2.6,1.9,3.1,2.6c0.5,0.8,0.7,1.7,0.7,2.8
		c0,1.3-0.5,2.3-1.4,3.1c-0.9,0.8-2.1,1.2-3.5,1.2c-0.9,0-1.7-0.1-2.4-0.4C177.2,115.9,176.5,115.5,175.9,115">
  </path>
  <path d="M189.8,107.9c0-1.1,0.2-2.2,0.7-3.2c0.4-1,1.1-2,1.9-2.7c0.8-0.8,1.8-1.4,2.9-1.9c1.1-0.4,2.2-0.6,3.3-0.6
		c1.2,0,2.3,0.2,3.4,0.6c1.1,0.4,2,1,2.8,1.8c0.9,0.8,1.5,1.8,1.9,2.8c0.4,1,0.6,2.1,0.6,3.3c0,1.1-0.2,2.2-0.7,3.2
		c-0.4,1-1.1,1.9-1.9,2.7c-0.9,0.8-1.8,1.4-2.9,1.9c-1.1,0.4-2.2,0.6-3.4,0.6c-1.2,0-2.3-0.2-3.4-0.6c-1.1-0.4-2-1-2.8-1.8
		c-0.9-0.8-1.5-1.8-1.9-2.8C190.1,110.2,189.8,109.1,189.8,107.9 M192.4,108c0,0.8,0.2,1.6,0.5,2.4c0.3,0.8,0.8,1.4,1.4,2
		c0.6,0.6,1.2,1,2,1.4c0.8,0.3,1.6,0.5,2.4,0.5c0.9,0,1.7-0.2,2.4-0.5c0.8-0.3,1.4-0.8,2-1.4c0.6-0.6,1-1.3,1.4-2
		c0.3-0.8,0.5-1.6,0.5-2.4c0-0.8-0.2-1.6-0.5-2.4c-0.3-0.8-0.8-1.4-1.4-2.1c-0.6-0.6-1.3-1.1-2-1.4c-0.8-0.3-1.6-0.5-2.4-0.5
		c-0.8,0-1.6,0.2-2.4,0.5c-0.8,0.3-1.5,0.8-2.1,1.4c-0.6,0.6-1,1.2-1.4,2C192.5,106.4,192.4,107.2,192.4,108">
  </path>
  <path d="M212.5,116.3V99.7h4.8c1.7,0,3,0.4,3.9,1.2c0.9,0.8,1.4,1.9,1.4,3.3c0,1.1-0.2,2-0.7,2.6c-0.5,0.7-1.3,1.2-2.3,1.5
		c0.3,0.1,0.5,0.3,0.8,0.6c0.2,0.2,0.6,0.7,0.9,1.2l4,6h-2.9l-2.8-4.3c-0.8-1.3-1.5-2.1-2.1-2.5c-0.5-0.4-1.1-0.5-1.9-0.5h-0.7v7.4
		H212.5z M214.8,106.9h2c1.1,0,1.9-0.2,2.5-0.6c0.5-0.4,0.8-1.1,0.8-1.9c0-0.9-0.3-1.5-0.8-2c-0.5-0.4-1.4-0.6-2.5-0.6h-2V106.9z">
  </path>
  <polygon points="234,116.3 234,101.9 227.9,101.9 227.9,99.7 242.4,99.7 242.4,101.9 236.3,101.9 236.3,116.3 	">
  </polygon>
  <path d="M246.4,115v-3.1c0.7,0.9,1.5,1.5,2.1,1.9c0.7,0.4,1.4,0.6,2.2,0.6c0.8,0,1.5-0.2,1.9-0.6c0.5-0.4,0.7-0.9,0.7-1.6
		c0-0.5-0.2-1-0.5-1.4c-0.3-0.4-1.1-1-2.3-1.8c-1.9-1.2-3-2.1-3.5-2.8c-0.5-0.7-0.7-1.4-0.7-2.4c0-1.3,0.5-2.3,1.4-3.2
		c0.9-0.8,2.1-1.2,3.5-1.2c0.6,0,1.3,0.1,1.9,0.3c0.6,0.2,1.2,0.5,1.9,0.9v2.7c-0.7-0.6-1.4-1-2-1.3c-0.6-0.3-1.2-0.4-1.8-0.4
		c-0.7,0-1.3,0.2-1.8,0.5c-0.5,0.4-0.7,0.8-0.7,1.4c0,0.8,1,1.8,2.9,3l0.4,0.2c1.6,1,2.6,1.9,3.1,2.6c0.5,0.8,0.7,1.7,0.7,2.8
		c0,1.3-0.5,2.3-1.4,3.1c-0.9,0.8-2.1,1.2-3.5,1.2c-0.9,0-1.7-0.1-2.4-0.4C247.7,115.9,247.1,115.5,246.4,115">
  </path>
 </g>
</svg>