<svg version="1.1" id="logo" xmlns:x="ns_extend;" xmlns:i="ns_ai;" xmlns:graph="ns_graphs;" xmlns="http://www.w3.org/2000/svg" xmlns:xlink="http://www.w3.org/1999/xlink" x="0px" y="0px" viewBox="0 0 513.3 100" style="enable-background:new 0 0 513.3 100;" xml:space="preserve">
 <style type="text/css">
  .st0{fill-rule:evenodd;clip-rule:evenodd;fill:#DA1020;}
	.st1{fill-rule:evenodd;clip-rule:evenodd;}
 </style>
 <metadata>
  <sfw xmlns="ns_sfw;">
   <slices>
   </slices>
   <sliceSourceBounds bottomLeftOrigin="true" height="100" width="513.3" x="-115" y="162.2">
   </sliceSourceBounds>
  </sfw>
 </metadata>
 <g id="logo_1_">
  <g transform="translate(-111.000000, -16.000000)">
   <g transform="translate(111.000000, 16.000000)">
    <path class="st0" d="M99.9,72.4c-3.9,4.7-9.5,9.6-17.1,14.8C57.5,104.3,25,104.3,11.6,87c-5.4-7-7.5-15.6-6-24.8
				C8,47.4,19.3,32.6,37.4,20.5c5.8-3.9,10.1-3.9,12.7-3.2c3.4,0.9,5.3,3.2,5.9,4.4l0,0.1c1.3,2.5,4.3,8.4-7.4,17.7
				C25.5,57.8,17.4,74.3,25.9,85.8c8.8,12.1,37.3,11.5,56.3-1.2c6-4,11.1-7.4,16-13.3c0.6-0.7,1.2-0.6,1.5-0.3
				C100.1,71.3,100.2,72,99.9,72.4">
    </path>
    <path class="st0" d="M0.2,27.6c3.9-4.7,9.5-9.6,17.1-14.8C42.6-4.3,75.1-4.3,88.5,13c5.4,7,7.5,15.6,6,24.8
				c-2.4,14.8-13.6,29.6-31.7,41.7C57,83.4,52.6,83.3,50,82.6c-3.4-0.9-5.3-3.2-5.9-4.4l0-0.1c-1.3-2.5-4.3-8.4,7.4-17.7
				c23.1-18.3,31.3-34.8,22.8-46.3C65.4,2.1,37,2.7,17.9,15.4c-6,4-11.1,7.4-16,13.3c-0.6,0.7-1.2,0.6-1.5,0.3
				C0,28.7-0.1,28,0.2,27.6">
    </path>
    <polygon class="st1" points="147.8,44.4 136.6,21 153,21 157.7,34 167.5,21 185.5,21 165,44.4 176.9,70.8 160,70.8 154.5,56.9 
				143.2,70.8 124.6,70.8 			">
    </polygon>
    <path class="st1" d="M202.6,48.3c0.1-1.7-0.2-2.9-1-3.6c-0.7-0.8-1.9-1.1-3.4-1.1c-5.9,0-7.5,7.9-7.5,11.3c0,3.4,0.8,6.6,4.7,6.6
				c3.7,0,5.2-3.3,6-5.3h13.1c-2.3,10.3-8.9,15.4-19.2,15.4c-15.1,0-18.2-9.8-18.2-16.5c0-12.3,7.9-21.5,21.5-21.5
				c9.9,0,17.3,4.5,17.1,14.7H202.6z">
    </path>
    <path class="st1" d="M241.5,60.3c-0.7,1.3-2.4,2.6-5.4,2.6c-4.3,0-5.6-3.2-5.6-7H256c0.6-2.2,0.7-4.3,0.7-6.3
				c0-11.4-9.6-15.8-17.5-15.8c-8.9,0-21.4,5.4-21.4,22.1c0,8.8,5.1,16,17.8,16c15.4,0,18.1-9,19-11.4H241.5z M231.8,48.6
				c1-3.8,3.4-6.1,7.1-6.1c3.4,0,5.2,2.2,5.2,4.9c0,0.3-0.1,0.8-0.1,1.2H231.8z">
    </path>
    <polygon class="st1" points="267.8,21 281.4,21 271.2,70.8 257.6,70.8 			">
    </polygon>
    <polygon class="st1" points="298.6,21 332.4,21 331.3,26.6 304,26.6 300.7,42.4 326.2,42.4 325.1,48 299.5,48 296,65.2 
				323.6,65.2 322.4,70.8 288.2,70.8 			">
    </polygon>
    <path class="st1" d="M335.5,34.7h5.6l-1.1,5.4h0.1c3-4,7.8-6.3,12.7-6.3c6.7,0,9.9,2.9,9.9,9.3c0,1.5-0.4,4.3-1,7.1l-4.3,20.6
				h-5.8l4.5-21.1c0.3-1.3,0.8-4.3,0.8-5.6c0-3.4-2.8-5-6.2-5c-3.2,0-6.6,1.8-8.8,4.2c-2.1,1.8-3.2,4.7-3.9,7.5l-4.1,20H328
				L335.5,34.7z">
    </path>
    <path class="st1" d="M398.1,54.6c0.2-1,0.5-2.8,0.5-4.7c0-10.2-4.6-16-15.1-16c-9.8,0-18.3,9.4-18.3,23.2
				c0,6.3,3.3,14.5,15.1,14.5c7.8,0,14.2-4.2,16.1-12.1h-5.9c-1.7,4.5-5.2,6.9-10.2,6.9c-4.7,0-9.2-3.1-9.2-8.7
				c0-1.1,0.1-2.1,0.2-3.1H398.1z M372.1,49.3c1.7-5.6,5.4-10.2,12.3-10.2c6.5,0,8.7,5.1,8.3,10.2H372.1z">
    </path>
    <path class="st1" d="M407.2,34.7h5.5l-1.7,7.8h0.1c2.7-5,6.9-8.6,12.9-8.6c0.7,0,1.4-0.1,2.1,0l-1.4,6.4
				c-0.5-0.1-1.2-0.1-1.7-0.1c-1.4,0-2.1,0-3.5,0.3c-3.2,0.8-5.7,3-7.6,5.9c-1.6,2.3-2.4,5.7-3,8.4l-3.4,16h-5.8L407.2,34.7z">
    </path>
    <polygon class="st1" points="460.5,85.4 468.8,70.8 462.6,34.7 468.8,34.7 472.9,63.4 473.1,63.4 488,34.7 494.4,34.7 
				466.2,85.4 			">
    </polygon>
    <path class="st1" d="M453.2,65.6l6.4-30.8h-5.5l-1.1,6.6h-0.1v-0.1c-1-4.5-6.1-7.3-11.3-7.3c-11.6,0-18.5,11.6-18.5,22.3
				c0,8.6,4.5,14.9,13.3,14.9c4.5,0,8.5-1.7,11.1-5.5l0.1,0.1c-3.4,13.1-12.7,16.1-22.7,16.1c-0.5,1.4-1.5,3.4-2.3,5.2
				C434.4,87,448.9,84.4,453.2,65.6 M428.9,56.2c0-6.6,4.4-17,12.6-17c6.1,0,9.1,3.8,9.1,9.4c0,7.3-4.1,17.3-12.9,17.3
				C431.8,65.9,428.9,61.3,428.9,56.2">
    </path>
    <path class="st1" d="M504.7,38.2h0.9c0.7,0,1.5,0,1.7-1c0.2-1-0.6-1-1.3-1h-0.9L504.7,38.2z M503.1,34.6h3.8c1.4,0,3.1,0,2.6,2.2
				c-0.2,0.9-0.8,1.8-2.4,2l0,0c1.6,0,1.5,0.8,1.5,1.7c-0.1,1.9-0.1,1.9-0.1,2.5h-2.5c0-0.5,0-1.1,0.1-1.9c0.1-1,0.1-1.3-0.9-1.3
				h-0.9l-0.7,3.3h-2.3L503.1,34.6z M499.5,38.8c-0.7,3.4,1.5,6.2,4.8,6.2c3.4,0,6.8-2.8,7.5-6.2c0.7-3.5-1.5-6.3-4.9-6.3
				C503.6,32.5,500.3,35.2,499.5,38.8L499.5,38.8z M513.1,38.8c-0.9,4.1-4.9,7.5-9,7.5c-4.1,0-6.7-3.4-5.8-7.5c0.9-4.3,5-7.6,9-7.6
				C511.3,31.2,514,34.5,513.1,38.8L513.1,38.8z">
    </path>
   </g>
  </g>
 </g>
</svg>