<svg version="1.1" id="Layer_1" xmlns:x="ns_extend;" xmlns:i="ns_ai;" xmlns:graph="ns_graphs;" xmlns="http://www.w3.org/2000/svg" xmlns:xlink="http://www.w3.org/1999/xlink" x="0px" y="0px" viewBox="0 0 526.3 188" style="enable-background:new 0 0 526.3 188;" xml:space="preserve">
 <style type="text/css">
  .st0{fill:#009BDE;}
	.st1{fill:#77BC1F;}
	.st2{fill:#231F20;}
 </style>
 <metadata>
  <sfw xmlns="ns_sfw;">
   <slices>
   </slices>
   <sliceSourceBounds bottomLeftOrigin="true" height="188" width="526.3" x="-257" y="0">
   </sliceSourceBounds>
  </sfw>
 </metadata>
 <g id="Layer_2_1_">
  <g id="Layer_1-2">
   <path class="st0" d="M440.2,63.8c0.9,2.7,1.4,5.6,1.5,8.5L420,97.5l29.9-22.6l1.5,7c0,0-22.8,25.9-28.3,33.2c0,0,29-24,45.2-33.7
			c-11.1-20.6-36.7-28.3-57.3-17.2c-13.7,7.4-22.3,21.7-22.2,37.3c0,0.6,0,1.3,0,2C398.3,95.2,423.6,73.7,440.2,63.8z">
   </path>
   <path class="st0" d="M473.4,102.5c0-4.1-0.6-8.2-1.8-12.1c-9.8,5.2-33,18-49.6,31.5c13.7,1.9,27.6,4.4,41.8,7.5
			C470,121.7,473.4,112.2,473.4,102.5z">
   </path>
   <path class="st0" d="M441,87.9c0,0-23.9,18.5-27.2,21.6l-3.2-6c0,0,16.4-20.5,21.8-25.9c0,0-29.3,20.8-42.7,33.4
			c0.5,2.5,1.3,5,2.3,7.4c7.2,0.6,14.5,1.3,21.9,2.2C414.3,120.1,438.1,91.6,441,87.9z">
   </path>
   <path class="st1" d="M450.3,125.4c-17.1-3.1-33.9-5.6-50.3-7.4l-5.1-0.5c-8.9-1-17.7-1.7-26.4-2.3c-17.2-1.2-34-1.8-50.3-1.8l0,0
			C156.8,113.3,39.4,167.1,0,188c109.5-41.7,225.7-63,342.9-62.9c61.6-0.2,123,5.9,183.3,18.4C501.3,136.1,475.9,130.1,450.3,125.4z
			">
   </path>
   <path class="st2" d="M306.1,27.3c-1.1,7.8-7.9,13.4-15.7,12.9c-11.7,0-17.3-8.4-17.6-20c0-11.4,7.3-19.7,17.3-19.7
			c13,0,17,12.5,16.7,21.7h-27.6c-0.2,6.6,3.4,12.5,11.5,12.5c4.6,0.4,8.8-2.8,9.5-7.4L306.1,27.3z M300.2,16.7
			c0-5.9-4.7-10.6-10.6-10.7c-6.3,0-10.1,4.9-10.5,10.7H300.2z">
   </path>
   <path class="st2" d="M311.1,1.4h5.7v6h0.1c2.3-4.4,7-7.1,12-6.9c9.8,0,12.7,5.7,12.7,13.9v24.9h-6.1V13.7c0.3-3.9-2.5-7.3-6.4-7.6
			c-0.4,0-0.7,0-1.1,0c-7.3,0-10.9,5.1-10.9,11.9v21.5h-6.1L311.1,1.4z">
   </path>
   <path class="st2" d="M380.3,27.3c-1.1,7.8-7.9,13.4-15.7,12.9c-11.7,0-17.3-8.4-17.6-20c0-11.4,7.3-19.7,17.3-19.7
			c13,0,17,12.5,16.7,21.7h-27.6c-0.2,6.6,3.4,12.5,11.5,12.5c4.6,0.4,8.8-2.8,9.5-7.4L380.3,27.3z M374.5,16.7
			c0-5.9-4.7-10.6-10.6-10.7c-6.3,0-10.1,4.9-10.5,10.7H374.5z">
   </path>
   <path class="st2" d="M385.2,1.4h5.7v8h0.1c2.9-6.1,7-9.1,13.5-8.9v6.6c-9.8,0-13.3,5.7-13.3,15.3v16.9h-6.1V1.4z">
   </path>
   <path class="st2" d="M437.1,36.1c0,12.3-5.5,18.6-17.1,18.6c-6.9,0-14.9-2.9-15.2-11.1h6.1c0.3,4.6,5.6,6.2,9.5,6.2
			c7.8,0,11-5.9,11-14.4v-2.5h-0.1c-2.1,4.4-6.6,7.1-11.5,6.9c-11,0-16.5-8.9-16.5-19.2c0-9,4.3-20,17-20c4.6-0.2,8.8,2.3,11,6.3
			l0,0V1.4h5.7L437.1,36.1z M431.1,19.5c0-6.7-2.9-13.6-10.5-13.6s-10.9,6.5-10.9,13.8c0,6.8,2.4,14.4,10.4,14.4
			C428.1,34.2,431.1,26.7,431.1,19.5z">
   </path>
   <path class="st2" d="M458.9,44.3c-2.8,7.4-5.3,10.1-10.7,10.1c-1.4,0-2.9-0.2-4.2-0.7v-5.7c1.1,0.5,2.3,0.8,3.6,0.9
			c2.2,0,4.2-1.4,5-3.4l2.5-6.4L440.4,1.4h6.8l10.7,31h0.1l10.3-31h6.4L458.9,44.3z">
   </path>
   <path class="st2" d="M1.7,57.4h22.1c14.3,0,17,9.3,17,15.5s-2.7,15.4-17,15.4H10.5v19.3H1.7V57.4z M10.5,81h12.8
			c3.9,0,8.8-2,8.8-8.3c0-6.3-4-8.3-8.6-8.3h-13V81z">
   </path>
   <path class="st2" d="M57.6,57.4H67l19.3,50.1h-9.4l-4.7-13.2h-20l-4.7,13.2h-9L57.6,57.4z M54.5,87.5h15.3L62.3,66h-0.2L54.5,87.5
			z">
   </path>
   <path class="st2" d="M92,57.4h23.9c10.9,0,16.6,5,16.6,13.5c0,9.6-6.7,12.1-8.3,12.6v0.1c3,0.4,7.4,2.7,7.4,10.6
			c0,5.9,0.8,11.1,2.7,13.2h-9.4c-1.1-2.3-1.6-4.8-1.3-7.4c0-9.2-2-13.2-9.9-13.2h-12.9v20.7H92V57.4z M100.7,80.1h14.4
			c5.5,0,8.6-2.7,8.6-8c0-6.4-4.1-7.6-8.7-7.6h-14.2V80.1z">
   </path>
   <path class="st2" d="M136.3,57.4h40.5v7.6h-15.9v42.6h-8.8V64.9h-15.8V57.4z">
   </path>
   <path class="st2" d="M183.3,57.4h9.3l22.8,36.9h0.1V57.4h8.3v50.1h-9.3l-22.8-36.9h-0.3v36.9h-8.2V57.4z">
   </path>
   <path class="st2" d="M235.2,57.4h36v7.6h-27.4V78h25.2v7.2H244v14.7h27.7v7.6h-36.4V57.4z">
   </path>
   <path class="st2" d="M280.4,57.4h23.9c10.9,0,16.6,5,16.6,13.5c0,9.6-6.7,12.1-8.3,12.6v0.1c3,0.4,7.4,2.7,7.4,10.6
			c0,5.9,0.8,11.1,2.7,13.2h-9.4c-1.1-2.3-1.6-4.8-1.3-7.4c0-9.2-2-13.2-9.9-13.2h-12.9v20.7h-8.8L280.4,57.4z M289.1,80.1h14.4
			c5.5,0,8.6-2.7,8.6-8c0-6.4-4.1-7.6-8.7-7.6h-14.2L289.1,80.1z">
   </path>
   <path class="st2" d="M336.4,90.7c0,7.7,5.7,10.7,12.7,10.7c7.7,0,10.6-3.8,10.6-7.6c0.3-2.8-1.4-5.3-4-6.2
			c-3.5-1.3-8.1-2.2-14.9-4.1c-8.6-2.3-11.1-7.5-11.1-12.7c0-10,9.3-14.7,18.3-14.7c10.4,0,19.2,5.5,19.2,16h-8.8
			c-0.4-6.4-4.8-8.8-10.8-8.8c-4.1,0-9.2,1.5-9.2,6.5c0,3.5,2.4,5.5,5.9,6.4c0.8,0.2,11.8,3.1,14.4,3.9c5.8,1.6,9.8,6.8,9.8,12.8
			c0,11.2-9.9,15.6-19.9,15.6c-11.4,0-20.7-5.5-20.9-17.9L336.4,90.7z">
   </path>
   <polyline class="st1" points="109.8,0.8 110.9,0.8 144.8,0.8 144.8,3.8 129.5,3.8 129.5,39.6 126.1,39.6 126.1,39.6 126.1,3.8 
			110.9,3.8 110.9,1.3 110.9,0.8 95,19.8 111.4,39.6 106.9,39.6 92.7,22.4 78.4,39.6 74.1,39.6 90.5,19.8 74.7,0.8 79.2,0.8 
			92.7,17.2 106.6,0.8 109.8,0.8 		">
   </polyline>
   <polygon class="st1" points="42.9,39.6 42.9,0.8 73.7,0.8 73.7,3.8 46.3,3.8 46.3,17.9 72.6,17.9 72.6,21 46.3,21 46.3,36.5 
			74,36.5 74,39.6 42.9,39.6 		">
   </polygon>
   <polygon class="st1" points="32.6,39.6 5,5.9 5,39.6 1.6,39.6 1.6,0.8 5.4,0.8 33,34.5 33,0.8 36.4,0.8 36.4,39.6 32.6,39.6 		">
   </polygon>
   <path class="st0" d="M185.8,21.4c0-11-5.8-21.4-20.8-21.4c-12,0-20.4,8.1-20.4,20.7c0,10,5.7,20,21,20c8.5,0.5,16.4-4.6,19.5-12.5
			h-9.7c-1.7,3.1-4.3,5.4-10.1,5.4c-6.1,0.3-11.2-4.4-11.5-10.5c0-0.1,0-0.2,0-0.2h32V21.4z M153.7,16.5c0.7-5.7,5.6-9.9,11.3-9.8
			c5.8-0.3,10.8,4,11.5,9.8H153.7z">
   </path>
   <path class="st0" d="M254.1,32.7c-0.7-0.2-1.8-0.2-1.8-2.2V12.7c-0.2-4.9-0.6-12.5-18.2-12.5c-10,0-16.5,3-17.8,12.8h8.6
			c0.3-4.2,3.4-6.2,9.2-6.2c5.1,0,9.5,1.1,9.5,5.4c0,2.9-1.3,3.4-13.9,4.7c-5.6,0.6-15.1,1.5-15.1,11.7c0,7.3,4.9,11.7,13.7,11.7
			c9.8,0,14.1-3.3,15.8-5.1c0.3,1.4,0.9,4.8,6.6,4.8c1.7,0,3.4-0.1,5.1-0.3V33C255.2,32.9,254.6,32.8,254.1,32.7z M243.5,23.9
			c0,8.2-7.9,10.2-12.6,10.2c-3,0-7-0.9-7-5.9c0-3.2,1.6-4.8,8.2-5.6c6.2-0.8,8.9-1.1,11.5-2.3L243.5,23.9z">
   </path>
   <path class="st0" d="M214.5,0.4c-1.2-0.2-0.5-0.4-2-0.4c-6.9,0-10.7,4.1-13.1,8.5h-0.2V1h-8.9v38.5h8.9V20.9
			c0-8.9,6.5-11.7,11-11.7c0.7,0,3.2,0,4,0.1v-9L214.5,0.4z">
   </path>
   <path class="st2" d="M478,4.4c0.3-0.7,0.7-1.3,1.3-1.8c0.5-0.5,1.2-0.9,1.8-1.2c0.7-0.3,1.5-0.4,2.2-0.4c0.8,0,1.5,0.1,2.2,0.4
			c1.4,0.6,2.5,1.7,3,3c0.3,0.7,0.5,1.5,0.5,2.3c0,0.8-0.2,1.6-0.5,2.3c-0.3,0.7-0.7,1.3-1.3,1.8c-0.5,0.5-1.2,0.9-1.8,1.2
			c-0.7,0.3-1.5,0.4-2.2,0.4c-0.8,0-1.5-0.1-2.2-0.4c-0.7-0.3-1.3-0.7-1.8-1.2c-0.5-0.5-1-1.2-1.3-1.8c-0.3-0.7-0.5-1.5-0.5-2.3
			C477.5,5.9,477.6,5.1,478,4.4z M478.9,8.6c0.2,0.6,0.6,1.1,1,1.6c0.4,0.4,0.9,0.8,1.5,1c0.6,0.3,1.3,0.4,2,0.4
			c0.7,0,1.3-0.1,2-0.4c0.6-0.2,1.1-0.6,1.5-1c0.4-0.5,0.8-1,1-1.6c0.2-0.6,0.4-1.3,0.4-2c0-0.7-0.1-1.3-0.4-2
			c-0.5-1.2-1.4-2.1-2.5-2.6c-0.6-0.3-1.3-0.4-2-0.4c-1.9,0-3.7,1.2-4.4,3c-0.2,0.6-0.4,1.3-0.4,2C478.6,7.3,478.7,8,478.9,8.6z
			 M483.7,3.3c0.6-0.1,1.3,0.1,1.8,0.5c0.4,0.4,0.6,0.9,0.6,1.4c0,0.5-0.1,1-0.5,1.3c-0.4,0.3-0.8,0.5-1.3,0.5l2,3h-1.1l-1.8-2.9
			h-1.1v2.9h-1V3.3H483.7z M483.2,6.3h0.7c0.2,0,0.4-0.1,0.6-0.1c0.2-0.1,0.3-0.2,0.4-0.3c0.1-0.2,0.2-0.4,0.1-0.6
			c0-0.2,0-0.4-0.1-0.5c-0.1-0.1-0.2-0.2-0.3-0.3c-0.1-0.1-0.3-0.1-0.5-0.1h-0.5h-1.4v2.1H483.2z">
   </path>
  </g>
 </g>
</svg>