<svg version="1.1" id="Layer_1" xmlns:x="ns_extend;" xmlns:i="ns_ai;" xmlns:graph="ns_graphs;" xmlns="http://www.w3.org/2000/svg" xmlns:xlink="http://www.w3.org/1999/xlink" x="0px" y="0px" viewBox="0 0 2559.1 145" style="enable-background:new 0 0 2559.1 145;" xml:space="preserve">
 <style type="text/css">
  .st0{fill:#0E6CF1;}
	.st1{fill:none;stroke:#2437BF;stroke-width:0.75;stroke-miterlimit:10;}
	.st2{fill:#2437BF;}
 </style>
 <metadata>
  <sfw xmlns="ns_sfw;">
   <slices>
   </slices>
   <sliceSourceBounds bottomLeftOrigin="true" height="145" width="2559.1" x="-2303.1" y="0.5">
   </sliceSourceBounds>
  </sfw>
 </metadata>
 <g>
  <path class="st0" d="M963.8,31.4L939.9,117h-14.1L909,62.5c0-1.4-1-3-1.4-4.6c-0.4-1.6-0.9-3.4-1.4-5l-1.1-4.5c0-1.4,0-2.4-0.6-3.1
		c-0.6-0.7,0,1.7-0.6,3c-0.6,1.3-0.6,2.8-0.9,4.5c-0.3,1.7-0.8,3.3-1.3,5c-0.5,1.7-0.9,3.3-1.4,4.8L883.9,117h-14L846,31.4h13.2
		l14.1,51.9c0,1.8,0.9,3.5,1.3,5.3c0.5,1.7,0.9,3.5,1.2,5.3c0,1.8,0.8,3.5,1.1,5.2c0.3,1.7,0,3.2,0.8,4.7c0-1.5,0-3.2,0.8-4.9
		c0.8-1.7,0.7-3.5,1.1-5.3s0.8-3.6,1.3-5.3c0.5-1.7,0.9-3.5,1.4-5.1l15.8-51.8H911l16.4,52.1l1.5,5.2c0,1.8,0.9,3.6,1.3,5.4
		s0.7,3.5,1.1,5.1s0.6,3.2,0.8,4.6c0-2,0.7-4.1,1.1-6.3s1-4.6,1.6-7.1c0.6-2.5,1.1-4.8,1.7-7.1l14.1-51.9L963.8,31.4z">
  </path>
  <path class="st0" d="M1048.5,117h-12.9V77.5h-45.7V117h-12.7V31.4h12.7v35.7h45.5V31.4h12.9L1048.5,117z">
  </path>
  <path class="st0" d="M1123.1,117h-51.8V31.4h51.8v10h-38.8v25.8h36.5v10h-36.5v29.3h38.8V117z">
  </path>
  <path class="st0" d="M1166.2,31.4c6.5-0.2,13,0.7,19.3,2.6c4.5,1.4,8.5,4.3,11.3,8.1c2.6,4.1,3.9,8.9,3.7,13.8
		c0.1,3.8-0.7,7.6-2.6,11c-1.6,3-3.9,5.5-6.7,7.4c-2.8,1.9-5.8,3.4-9,4.5L1208,117h-14.9l-22.4-35h-17v35h-12.9V31.4H1166.2z
		 M1165.4,41.4h-11.7v30h12.6c5.6,0.5,11.2-0.9,15.9-4c3.5-2.8,5.4-7.2,5.1-11.7c0.4-4.5-1.7-8.9-5.4-11.4
		c-5.2-2.3-10.9-3.3-16.5-2.7L1165.4,41.4z">
  </path>
  <path class="st0" d="M1273.1,117h-51.7V31.4h51.7v10h-38.8v25.8h36.5v10h-36.5v29.3h38.8V117z">
  </path>
  <path class="st0" d="M1313,31.4h28.6c9.8-0.7,19.6,1.1,28.5,5.2c5.9,3.3,9.4,9.7,8.9,16.5c0.2,4.5-1.2,9-3.9,12.6
		c-2.5,3.1-6,5.2-10,5.9v0.6c4.9,0.7,9.4,3.1,12.7,6.8c2.7,3.9,4,8.5,3.8,13.2c0.3,7.3-3.1,14.1-9.1,18.3c-7.4,4.7-16,6.9-24.7,6.5
		h-34.5L1313,31.4z M1332.5,65.3h11.4c4,0.3,7.9-0.5,11.5-2.3c2.4-1.7,3.8-4.6,3.5-7.5c0.2-2.9-1.3-5.7-3.8-7.1
		c-3.9-1.6-8.1-2.4-12.3-2.1h-10L1332.5,65.3z M1332.5,79.7V102h12.8c4.2,0.3,8.3-0.6,11.9-2.8c2.7-2.1,4.1-5.4,3.8-8.8
		c0-7.1-5.5-10.7-16.4-10.7L1332.5,79.7z">
  </path>
  <path class="st0" d="M1398.8,117V31.4h20V117H1398.8z">
  </path>
  <path class="st0" d="M1475,68.9h36.6v44.4c-5.5,1.7-11.1,3-16.8,3.8c-5.3,0.7-10.6,1.1-16,1.1c-11.8,0.8-23.3-3.3-31.9-11.4
		c-7.9-9-11.8-20.8-11-32.7c-0.7-12.1,3.9-24,12.7-32.4c9.9-8.2,22.6-12.4,35.5-11.7c9.4,0,18.6,1.8,27.3,5.3l-6.5,14.7
		c-6.6-3.1-13.7-4.7-21-4.7c-7.5-0.3-14.7,2.6-20,7.9c-5.3,5.8-8,13.4-7.6,21.2c-0.5,7.6,1.6,15.1,6.1,21.3
		c4.5,5.1,11.1,7.8,17.9,7.4c4.2,0,8.3-0.4,12.4-1.2V84.1h-17.4L1475,68.9z">
  </path>
  <path class="st0" d="M1557.1,117V31.4h20V117H1557.1z">
  </path>
  <path class="st0" d="M1674.6,73.4c0.9,12.2-3.9,24.2-13,32.4c-10.7,8.2-24,12.1-37.4,11.2h-26.1V31.4h28.9
		c12.7-0.8,25.2,3.2,35.1,11.1C1670.7,50.4,1675.3,61.7,1674.6,73.4z M1654.6,73.4c0-18.4-8.8-27.6-26.3-27.6h-10V102h8.4
		c13.7,1.6,26-8.1,27.7-21.8c0.2-2.1,0.2-4.2-0.1-6.3L1654.6,73.4z">
  </path>
  <path class="st0" d="M1744.9,117h-53.1V31.4h53.1v14.9h-33.6v18.8h31.3V80h-31.3v22h33.6V117z">
  </path>
  <path class="st0" d="M1822.9,117l-6.7-20h-33.6l-6.7,20h-21.1l32.6-86h23.9l32.7,86H1822.9z M1811.5,81.4
		c-6.1-18.5-10-28.9-10-31.3c0-2.4-1.3-4.4-1.7-5.8c-1.3,5-5.3,17.4-11.9,37.1H1811.5z">
  </path>
  <path class="st0" d="M1912.8,93.2c0.3,7.2-3.1,14.1-9,18.3c-7.4,4.9-16.2,7.2-25,6.7c-9,0.2-17.9-1.6-26.1-5.1V96.2
		c5.1,2.2,10.4,4,15.8,5.4c3.9,1,7.8,1.6,11.8,1.6c3.5,0.2,7-0.6,10-2.3c2.3-1.5,3.6-4.1,3.4-6.8c0-1.6-0.5-3.2-1.5-4.5
		c-1.2-1.5-2.7-2.7-4.4-3.7c-3.9-2.2-7.9-4.1-12-5.8c-4.5-1.9-8.8-4.3-12.7-7.1c-2.7-2.2-5-4.9-6.7-7.9c-1.8-3.2-2.7-6.9-2.6-10.6
		c-0.3-7,2.8-13.6,8.3-17.9c6.7-4.7,14.8-7,23-6.5c4.6,0,9.2,0.6,13.7,1.6c4.6,1.2,9.2,2.7,13.6,4.5L1906,50c-4-1.6-8-2.9-12.2-3.9
		c-3.3-0.8-6.6-1.2-10-1.1c-3-0.2-6,0.6-8.5,2.4c-1.9,1.5-3,3.8-2.9,6.2c0,1.5,0.4,3,1.2,4.2c1,1.4,2.3,2.6,3.8,3.5
		c4,2.2,8.1,4.3,12.4,6c6.7,2.5,12.7,6.5,17.7,11.5C1911,82.8,1912.9,87.9,1912.8,93.2z">
  </path>
  <path class="st0" d="M2014.6,117l-10-25.5h-36.1l-10,25.5h-13.4l34.7-86h13.2l35,86L2014.6,117z M2000.7,81.1l-10-25.2
		c0-0.9-0.7-2.2-1.3-3.9c-0.6-1.7-1.2-3.5-1.9-5.3c-0.7-1.8-1.1-3.4-1.4-4.6c0,1.6-0.9,3.3-1.5,5.1c-0.6,1.8-1.1,3.4-1.6,4.9
		s-1,2.8-1.3,3.8l-10,25.2L2000.7,81.1z">
  </path>
  <path class="st0" d="M2066.2,31.4c6.5-0.2,13,0.7,19.3,2.6c4.5,1.4,8.5,4.3,11.3,8.1c2.6,4.1,3.9,8.9,3.7,13.8
		c0.1,3.8-0.8,7.6-2.6,11c-1.6,3-4,5.5-6.8,7.4c-2.8,1.9-5.8,3.4-9,4.5l25.8,38.2h-14.8l-22.4-35h-17v35h-12.9V31.4H2066.2z
		 M2065.4,41.4h-11.7v30h12.6c5.6,0.5,11.2-1,15.9-4c3.5-2.8,5.4-7.2,5.1-11.7c0.4-4.5-1.7-8.9-5.4-11.4c-5.2-2.3-10.9-3.3-16.5-2.7
		V41.4z">
  </path>
  <path class="st0" d="M2173.1,117h-51.8V31.4h51.8v10h-38.8v25.8h36.5v10h-36.5v29.3h38.8V117z">
  </path>
  <path class="st0" d="M2212.5,31.4h28.7c9.8-0.7,19.6,1.1,28.5,5.2c5.9,3.3,9.4,9.7,8.9,16.5c0.2,4.5-1.2,9-3.9,12.6
		c-2.5,3.1-6,5.2-10,5.9v0.6c4.9,0.6,9.4,3.1,12.6,6.8c2.8,3.8,4.1,8.5,3.9,13.2c0.3,7.3-3.1,14.1-9.1,18.3
		c-7.4,4.7-16.1,7-24.8,6.5h-34.5L2212.5,31.4z M2232.5,65.3h11.3c4,0.3,7.9-0.5,11.5-2.3c2.5-1.7,3.9-4.5,3.6-7.5
		c0.2-2.9-1.3-5.7-3.9-7.1c-3.8-1.6-8-2.4-12.2-2.1h-10L2232.5,65.3z M2232.5,79.7V102h12.7c4.2,0.3,8.3-0.6,11.9-2.8
		c2.7-2.1,4.2-5.4,3.9-8.8c0-7.1-5.5-10.7-16.4-10.7L2232.5,79.7z">
  </path>
  <path class="st0" d="M2372.9,31.4v55.4c0.1,5.9-1.5,11.6-4.6,16.6c-3.2,4.9-7.8,8.8-13.2,11c-6.5,2.7-13.5,3.9-20.5,3.8
		c-9.9,0.6-19.7-2.4-27.6-8.5c-6.7-5.8-10.4-14.3-10-23.1V31.4h19.5v52.4c-0.5,5.2,1,10.4,4.3,14.5c8.3,6.3,19.8,6.3,28.1,0
		c3.2-4.2,4.7-9.4,4.3-14.6V31.4H2372.9z">
  </path>
  <path class="st0" d="M2393.9,117V31.4h20V117H2393.9z">
  </path>
  <path class="st0" d="M2435,117V31.4h20V102h37.4v15H2435z">
  </path>
  <path class="st0" d="M2533.7,117h-19.5V47h-25.1V31.4h70v15.1H2534L2533.7,117z">
  </path>
  <line class="st1" x1="746.6" y1="0" x2="746.6" y2="143.6">
  </line>
  <polygon class="st0" points="52.9,97.8 19.1,144.9 44.2,144.9 66.2,115.7 	">
  </polygon>
  <polygon class="st0" points="137.4,124.6 98.4,72.9 137.2,21.4 122.1,1.3 84.3,54 44.6,1.1 19.3,1.1 122.3,144.7 	">
  </polygon>
  <polygon class="st2" points="92.6,1.1 70.8,29.9 84.3,47.8 117.9,1.1 	">
  </polygon>
  <polygon class="st2" points="92.8,144.9 118.1,144.9 15,1.3 0,21.4 38.6,72.9 0,124.2 14.7,144.7 52.7,91.6 	">
  </polygon>
  <path class="st0" d="M172.5,116.9c-17.9,0.5-34-10.6-40-27.4c-6.3-16.3-3-34.8,8.7-47.9c3.7-4.3,8.3-7.7,13.5-10
		c5.4-2.5,11.4-3.7,17.4-3.5c11.8-0.2,23.1,4.6,31.1,13.3c3.8,4.1,6.8,8.9,8.8,14.1c2,5.4,3.1,11.2,3.1,17
		c0.2,5.9-0.7,11.9-2.7,17.5c-4.2,10.4-12.2,18.8-22.4,23.4C184.4,115.7,178.5,116.9,172.5,116.9z M144.3,72.9
		c-0.1,4.3,0.7,8.5,2.3,12.5c1.3,3.7,3.3,7.1,6,10c2.6,2.7,5.6,5,8.9,6.7c7,3.3,15,3.3,22,0c3.5-1.7,6.6-4,9.1-6.9
		c2.7-2.9,4.8-6.3,6.1-10c1.4-4,2.2-8.2,2.2-12.4c0.1-4.4-0.6-8.7-2.2-12.8c-1.5-3.6-3.6-7-6.1-10c-2.5-2.9-5.6-5.3-9.1-6.9
		c-7-3.3-15-3.3-22,0c-3.4,1.7-6.4,4-8.9,6.9c-2.7,2.9-4.7,6.3-6,10C145.1,64.1,144.3,68.5,144.3,72.9z">
  </path>
  <path class="st0" d="M352.7,115.2h-14.3V67.5c0.6-7-1-13.9-4.4-20c-2.9-4.2-7.8-6.7-12.9-6.5c-5.8,0.1-11.4,2.3-15.7,6.3
		c-4.8,4.4-8.2,10-10,16.2v51.4h-14.3V67.5c0.5-6.9-1-13.9-4.2-20c-2.9-4.1-7.6-6.5-12.6-6.3c-5.8,0.1-11.3,2.2-15.6,6.1
		c-4.9,4.3-8.4,10-10,16.4v51.4h-14.5V30h13.1v18.4c3.1-6,7.8-11,13.5-14.5c5.6-3.5,12-5.3,18.6-5.2c6.2-0.4,12.4,1.7,17.1,5.8
		c4.2,3.9,6.9,9.2,7.6,14.9c5.8-12.7,18.5-20.7,32.4-20.7c4.3-0.2,8.5,0.7,12.3,2.7c3.3,1.7,6,4.3,7.9,7.5c2.1,3.4,3.5,7.2,4.1,11.1
		c0.8,4.7,1.3,9.4,1.3,14.1l0.6,50.8L352.7,115.2z">
  </path>
  <path class="st0" d="M405.4,116.9c-6,0.1-12.1-1.1-17.6-3.5c-5.2-2.4-9.9-5.8-13.7-10c-3.8-3.9-6.8-8.4-9-13.4c-4.1-11-4.1-23,0-34
		c6.5-16.4,22.4-27.1,40-27c17.7-0.5,33.8,10.4,40,27c2.1,5.2,3,10.8,2.9,16.4v3.3c0,0.8,0,1.4,0,2.3h-71c0.3,3.9,1.3,7.8,3,11.3
		c1.5,3.4,3.7,6.4,6.4,8.9c2.5,2.6,5.6,4.5,8.9,5.8c3.3,1.5,7,2.2,10.6,2.1c2.6,0,5.2-0.4,7.7-1c2.5-0.7,4.8-1.7,7.1-2.9
		c2.1-1.3,4-2.7,5.8-4.4c1.5-1.7,2.7-3.6,3.5-5.8l12.5,3.5c-1.5,3.2-3.4,6.1-5.8,8.7c-2.5,2.7-5.4,5-8.6,6.9
		c-3.3,2-6.9,3.6-10.7,4.6C413.4,116.4,409.4,116.8,405.4,116.9z M434.7,66.9c-0.5-7.6-3.8-14.8-9.4-20c-8.1-7.4-19.7-9.6-30-5.6
		c-3.3,1.3-6.3,3.3-8.9,5.8c-2.7,2.4-4.8,5.4-6.2,8.7c-1.6,3.5-2.6,7.2-2.9,11L434.7,66.9z">
  </path>
  <path class="st0" d="M502.8,110.9l-3.4,1.6c-1.4,0.7-3.1,1.3-4.7,1.9c-1.9,0.6-3.8,1.1-5.8,1.5c-2.2,0.4-4.5,0.6-6.7,0.6
		c-4.9,0.1-9.6-1.4-13.5-4.4c-3.9-3.3-6.1-8.2-5.8-13.3V41.3h-11.6V30h11.6V1.7h14.3V30h19.1v11.3h-19.1v52.8c0,2.6,1.2,5.1,3.2,6.8
		c1.8,1.4,4.1,2.2,6.4,2.1c2.6,0,5.3-0.5,7.7-1.5c1.7-0.5,3.2-1.2,4.7-2.2L502.8,110.9z">
  </path>
  <path class="st0" d="M556.8,42.6c-6.7,0.1-13.2,2-18.8,5.6c-5.5,3.3-9.6,8.5-11.7,14.5v52.5h-14.3V30h13.3v20
		c2.7-5.7,6.7-10.6,11.6-14.5c4.4-3.4,9.7-5.6,15.2-6.2h2.7c0.6-0.1,1.2-0.1,1.8,0v13.1L556.8,42.6z">
  </path>
  <path class="st0" d="M580.7,131.4c1.4,0.1,2.8,0.1,4.2,0h3.3c3.2,0.2,6.2-1.7,7.5-4.6c1.9-4,3.5-8.1,4.9-12.3L564.7,30h15.2
		l29,72.3l26-72.3h13.7l-38.7,100.6c-1.6,3.9-4.2,7.4-7.5,10c-4.2,3-9.3,4.6-14.5,4.3c-1,0.2-2.1,0.2-3.1,0l-3.8-0.6L580.7,131.4z">
  </path>
  <path class="st0" d="M623.3,117.7c0-2.2,1.2-4.3,3.1-5.4c1-0.5,2-0.8,3.1-0.8c3.4,0,6.2,2.8,6.2,6.2c0,1.1-0.2,2.2-0.8,3.1
		c-1.1,2-3.2,3.2-5.4,3.2c-2.3,0-4.3-1.2-5.4-3.2C623.6,119.9,623.3,118.8,623.3,117.7z M624.3,117.7c-0.1,2.8,2.2,5.1,5,5.2
		c0,0,0.1,0,0.1,0l0,0c0.9,0.1,1.8-0.2,2.6-0.7c0.8-0.4,1.5-1.1,1.9-1.9c0.9-1.6,0.9-3.6,0-5.2c-0.5-0.8-1.1-1.4-1.9-1.9
		c-1.6-0.9-3.6-0.9-5.2,0c-0.8,0.5-1.4,1.1-1.9,1.9C624.5,115.9,624.3,116.8,624.3,117.7z M632,116.3c0.1,0.9-0.5,1.7-1.3,1.9
		l2.1,3.3H631l-1.1-2.9h-0.8v2.9h-1.5V114h2.1c0.7-0.1,1.5,0.1,2,0.6C632.1,115.1,632.2,115.7,632,116.3z M628.6,117.4h0.6
		c0.3,0.1,0.6,0.1,0.9,0c0.1-0.2,0.1-0.6,0-0.8c0.2-0.2,0.2-0.6,0-0.8c-0.3-0.1-0.6-0.1-0.9,0h-0.6V117.4z">
  </path>
 </g>
</svg>