<svg version="1.1" id="Layer_1" xmlns:x="ns_extend;" xmlns:i="ns_ai;" xmlns:graph="ns_graphs;" xmlns="http://www.w3.org/2000/svg" xmlns:xlink="http://www.w3.org/1999/xlink" x="0px" y="0px" viewBox="0 0 358.7 73" style="enable-background:new 0 0 358.7 73;" xml:space="preserve">
 <style type="text/css">
  .st0{fill:#231F20;}
	.st1{fill:#D92231;}
 </style>
 <metadata>
  <sfw xmlns="ns_sfw;">
   <slices>
   </slices>
   <sliceSourceBounds bottomLeftOrigin="true" height="73" width="358.7" x="269.5" y="-285.7">
   </sliceSourceBounds>
  </sfw>
 </metadata>
 <g>
  <path class="st0" d="M342.9,2.7h-2.4V1.2h6.5v1.5h-2.4v8h-1.6L342.9,2.7z M348.4,1.2h2.7l2.4,8h0.2l2.4-8h2.7v9.5h-1.5v-8H357
		l-2.4,8h-2.2l-2.4-8h-0.2v8h-1.5L348.4,1.2z">
  </path>
  <path class="st1" d="M245.7,36.5c0-12.3-4.7-23.1-17.3-23.1c-12.6,0-17.4,10.9-17.4,23.1s4.8,23.1,17.4,23.1
		C241,59.6,245.7,48.7,245.7,36.5 M264.3,36.5c0,21-14.8,36.5-35.8,36.5c-21.4,0-35.9-14.9-35.9-36.5C192.5,16,206.9,0,228.4,0
		C249.4,0,264.3,15.5,264.3,36.5">
  </path>
  <path class="st1" d="M121.3,29.7H88.8c0.3-2.3,1-4.6,2.1-6.7c2.9-5.8,8.4-9.6,15.3-9.6c9.4,0,15.1,6.4,15.1,15.9V29.7z M138.2,30
		c-0.9-9.5-4.3-17.1-10.2-22.3c-5.6-5-13.1-7.7-22.4-7.7C98.7,0,90,2.4,83.6,7.7C76,13.9,70.1,23.7,70.1,36.9
		c0,11.4,3.7,20.5,10.3,26.7C87,69.7,96.2,73,107.6,73c9.2,0,20.3-3.5,25-6.4c1.7-1,2.2-1.5,1.8-3.2l-3-8.4
		c-0.3-1.3-1.9-1.7-3.1-1.1c-1.9,1-3.8,1.8-5.8,2.6c-4.1,1.5-8.4,2.6-12.4,2.6c-8.5,0-13.4-2.3-17.1-6.6c-2.4-2.7-3.7-6.1-4.2-10.1
		h47.1c1.7,0,2.5-1.2,2.5-3.2v-3.4C138.4,34.1,138.3,31.6,138.2,30">
  </path>
  <path class="st1" d="M155.1,10.1c5.3-6.9,13.6-10,27.2-10c3.2,0,6.4,0.3,9.6,1c1.6,0.4,1.9,1.6,1.5,3.3l-1.6,7.9
		c-0.4,1.5-0.8,1.9-1.9,1.9c-0.3,0-0.6,0-1-0.1c-1.1-0.2-4.3-0.5-5.7-0.5c-6.8,0-10,1.7-12.4,4.2c-2.8,3-2.9,7.5-2.9,15.4v35.2
		c0,2.3-1,3.6-3.5,3.6h-10.8c-2.3,0-3.3-1.1-3.5-3.6V33.8C150.3,21.3,151,15.3,155.1,10.1">
  </path>
  <path class="st1" d="M300.9,24.8c2.4-2.5,8-9.4,14.2-21.2c1.1-2,2-2.5,3.4-2.5h11.5c1.1,0,2.3,0.5,1.6,2.5
		c-4.6,13.6-15.1,25.6-20.9,31.7c6.3,6,17.5,20.2,22.8,34.1c0.5,1.3,0.2,2.7-2.4,2.7h-13.8c-1.4,0-2.6-0.1-3.5-2.5
		c-3.4-8.5-8.8-17.5-14.9-23.4c-6.7,7.1-11.8,15.8-15.2,23.4c-0.9,1.9-1.7,2.5-3.5,2.5h-12.7c-0.9,0-1.7-1-1.2-2.5
		c3.8-10.3,11.3-23.2,22-32.9C280.1,26.5,272,14,268.8,3.6c-0.5-1.6,0.3-2.5,1.5-2.5h14.9c1.6,0,2.5,0.7,3.3,2.5
		C292.1,12.1,297.1,20.2,300.9,24.8">
  </path>
  <path class="st1" d="M34.6,24.8c2.4-2.5,8-9.4,14.2-21.2c1-2,2-2.5,3.4-2.5h11.6c1,0,2.3,0.5,1.6,2.5
		c-4.6,13.6-15.1,25.6-20.9,31.7c6.3,6,17.5,20.2,22.8,34.1c0.4,1.3,0.2,2.7-2.4,2.7H51.1c-1.4,0-2.5-0.1-3.5-2.5
		c-3.4-8.5-8.8-17.5-14.9-23.4C26,53.3,20.9,62,17.5,69.5c-0.8,1.9-1.6,2.5-3.5,2.5H1.3c-0.9,0-1.7-1-1.2-2.5
		c3.8-10.3,11.3-23.2,22-32.9C13.8,26.5,5.6,14,2.4,3.6C2,2,2.8,1.1,4,1.1h14.9c1.6,0,2.4,0.7,3.3,2.5
		C25.7,12.1,30.8,20.2,34.6,24.8">
  </path>
 </g>
</svg>