<svg version="1.1" id="Layer_1" xmlns:x="ns_extend;" xmlns:i="ns_ai;" xmlns:graph="ns_graphs;" xmlns="http://www.w3.org/2000/svg" xmlns:xlink="http://www.w3.org/1999/xlink" x="0px" y="0px" viewBox="0 0 200 26.7" style="enable-background:new 0 0 200 26.7;" xml:space="preserve">
 <metadata>
  <sfw xmlns="ns_sfw;">
   <slices>
   </slices>
   <sliceSourceBounds bottomLeftOrigin="true" height="26.7" width="200" x="-78.8" y="-197.3">
   </sliceSourceBounds>
  </sfw>
 </metadata>
 <g>
  <path d="M138.7,26.7c10.6,0,15.4-2.4,16.4-9.4h-7.5c-0.9,2.7-3.1,3.8-10.2,3.8H136c-8.9,0-10.5-1.8-10.5-7.3v-0.9
		c0-5.5,1.6-7.3,10.5-7.3h1.4c7.1,0,9.2,1.1,10.2,3.8h7.5c-1-7-5.8-9.4-16.4-9.4h-4C122.5,0,118,3.2,118,12.4v1.9
		c0,9.2,4.6,12.4,16.7,12.4C134.7,26.7,138.7,26.7,138.7,26.7z M112.6,14.3c0,9.2-4.7,12.4-17.2,12.4h-4.1
		c-12.4,0-17.1-3.2-17.1-12.4v-1.9C74.2,3.2,78.9,0,91.3,0h4.1c12.4,0,17.2,3.2,17.2,12.4C112.6,12.4,112.6,14.3,112.6,14.3z
		 M92.5,21.1h1.8v0c9.2,0,10.9-1.8,10.9-7.3V13c0-5.5-1.7-7.3-10.9-7.3h-1.8c-9.3,0-10.8,1.8-10.8,7.3v0.9
		C81.7,19.3,83.3,21.1,92.5,21.1L92.5,21.1z M34.8,18.7v0.6c0,5.2-3,7.1-11.3,7.1H0v-26h22.7C30.8,0.4,34,1.8,34,6.6V7
		c0,3.9-1.8,5.5-4.9,5.9v0.2C32.5,13.3,34.7,14.8,34.8,18.7L34.8,18.7z M21.9,5.9H7.3v4.6h14.8c3.5,0,4.6-0.5,4.6-2.2V8.1
		C26.7,6.4,25.6,5.9,21.9,5.9L21.9,5.9z M27.5,18.2c0-2.1-1.3-2.5-5.6-2.5l-14.5,0v5.2h14.5c4.3,0,5.6-0.5,5.6-2.5
		C27.5,18.3,27.5,18.2,27.5,18.2z M69.8,26.3v-6H48.5V0.4h-7.3v25.9L69.8,26.3L69.8,26.3z M168.6,26.3v-8.2l5.9-3.4h0.2l14.3,11.6
		H200l-18.9-15.3l18.4-10.7h-11.2l-19.4,11.4h-0.2V0.4h-7.3v25.9H168.6z">
  </path>
 </g>
</svg>