<svg version="1.1" id="Layer_1" xmlns:x="ns_extend;" xmlns:i="ns_ai;" xmlns:graph="ns_graphs;" xmlns="http://www.w3.org/2000/svg" xmlns:xlink="http://www.w3.org/1999/xlink" x="0px" y="0px" viewBox="0 0 111.8 93.1" style="enable-background:new 0 0 111.8 93.1;" xml:space="preserve">
 <style type="text/css">
  .st0{fill:#EC1C24;}
	.st1{fill:#FFFFFF;}
 </style>
 <metadata>
  <sfw xmlns="ns_sfw;">
   <slices>
   </slices>
   <sliceSourceBounds bottomLeftOrigin="true" height="93.1" width="111.8" x="82.3" y="-248.2">
   </sliceSourceBounds>
  </sfw>
 </metadata>
 <g>
  <path class="st0" d="M3.7,93.1l44.4-23.4c2.6,0.2,5.2,0.3,7.8,0.3c30.9,0,55.9-15.7,55.9-35S86.8,0,55.9,0S0,15.6,0,35
		c0,13.1,11.5,24.6,28.5,30.6L3.7,93.1z">
  </path>
  <path class="st1" d="M36.3,19h-11l0.5,3h1c0.7,0,1.3,0.1,2,0.2c0.3,0.1,0.3,0.2,0.3,0.3c0,0,0,0.1,0,0.1c-0.1,0.7-0.3,1.3-0.7,1.9
		c-0.4,0.7-1,1.7-1.8,3l-2.8,4.3l-3.7-8l0,0c0,0-0.1-0.3-0.3-0.6c-0.1-0.2-0.2-0.5-0.2-0.7c0,0,0-0.1,0-0.1h0.1
		c0.6-0.2,1.2-0.2,1.9-0.2L23,22l-0.5-3H9l0.5,3l0.9,0.1c0.7,0,1.3,0.2,1.9,0.5c0.5,0.6,0.9,1.2,1.1,1.9c0,0,5.4,11.6,5.6,12.1
		c-0.1,0.6-1.1,9.5-1.1,9.5c0,0.8-0.3,1.5-0.9,2c-0.8,0.3-1.6,0.4-2.4,0.3l-1.3,0.1l0.5,3h15.8l-0.5-3.1h-1c-1,0-2-0.1-3-0.3
		c-0.2-0.1-0.3-0.3-0.4-0.7c0-0.3-0.1-0.6-0.1-0.9c0-0.5,0-1,0.1-1.6c0,0,0.8-6.9,1-8.3l7.8-12.3c0.4-0.7,0.8-1.3,1.4-1.8
		c0.4-0.3,0.9-0.4,1.4-0.4l1.2-0.1L37.3,19H36.3z">
  </path>
  <path class="st1" d="M40.1,28.7L40.1,28.7l-3.4,0.7l-4.3,0.9l0.5,2.7h1c0.6,0,1.2,0,1.7,0.1c0,0.1,0.1,0.2,0.1,0.3v0.2V34
		c0,0.1-0.9,12.7-0.9,12.7s0,0.9,0,0.9c0,0.3,0,0.6,0.1,1c0.2,1.3,1,2.5,2.2,3.1c0.6,0.3,1.3,0.4,1.9,0.4c2.2,0,4.3-1.4,6.2-4.2
		c0.3-0.5,0.7-1.2,1.1-1.9c0,0.4-0.1,0.9-0.1,1.2v0.2c0,0.5,0.1,1,0.1,1.5c0.1,1,0.6,1.8,1.4,2.4c0.7,0.5,1.6,0.8,2.4,0.8
		c1.7,0,3.2-1,4.7-3c0.7-1,1.3-2.1,1.8-3.2l0.4-0.9l-2.6-1.5l-1.6,2.5c-0.2,0.3-0.4,0.6-0.6,1L52,46.9v-0.4l1.5-16l0.1-1.3H48
		l-0.2,1c-0.4,2.5-0.8,4.3-1.1,5.5c-0.4,1.7-0.9,3.3-1.6,4.9c-0.7,1.7-1.6,3.2-2.6,4.7c-1.2,1.8-1.8,1.8-1.9,1.8h-0.1
		c0,0,0-0.1,0-0.1v-0.2l0.1-0.8l1.3-15.5v-0.4c0-0.4-0.2-0.7-0.4-1l0,0l0,0C41.1,28.8,40.6,28.6,40.1,28.7z">
  </path>
  <path class="st1" d="M64.5,28.8c-3.2,0.7-5.6,1.2-7,1.5l-1.2,0.2l0.6,3h1c0.6,0,1.3,0,1.9,0.1c0,0.1,0,0.1,0,0.2c0,0.1,0,0.2,0,0.2
		v0.4l-1.7,17.3h5.8l0.1-1c0.3-2.5,0.6-4.5,0.9-5.8c0.3-1.7,0.8-3.4,1.5-5c0.7-1.5,1.6-2.9,2.6-4.3c1.2-1.8,1.9-1.9,2.1-1.9l0,0
		c0,0.1,0,0.1,0,0.2v0.2c0,0,0,0.3,0,0.3s-1.6,17.3-1.6,17.3h5.8l0.1-1.1c0.3-3.7,0.6-6,0.8-7c0.2-1.3,0.6-2.5,1.1-3.7
		c0.7-1.5,1.6-3,2.6-4.4c0.8-1.2,1.6-1.8,2.1-1.8c0,0,0.1,0.1,0.1,0.2v0.5l-1,12.6l0,0l0,0v1c0,0.3,0,0.6,0.1,0.9
		c0.2,1.1,0.8,2.1,1.7,2.7c0.6,0.4,1.2,0.6,1.9,0.6c1.4,0,2.8-0.6,3.8-1.7c1.2-1.2,2.1-2.5,2.8-4l0.2-0.3l0.5-0.9l-2.7-1.8l-1.7,2.7
		l-0.2,0.3c-0.2,0.2-0.3,0.4-0.5,0.7l0,0c0.1-1.4,1.1-11.5,1.1-11.5l0,0c0-0.7,0.1-1.3,0.1-1.7c0-0.3,0-0.7-0.1-1
		c-0.1-1.2-0.8-2.3-1.8-3.1c-0.8-0.6-1.8-0.9-2.8-0.9c-2.1,0-4.1,1.3-6.1,4.1l0,0c-0.2,0.2-0.3,0.5-0.5,0.8c0-0.3,0-0.7-0.1-1
		c-0.2-1.3-1-2.5-2.1-3.2c-0.7-0.4-1.5-0.7-2.3-0.7c-2,0-3.9,1.2-5.8,3.8l0,0c-0.3,0.4-0.6,0.9-0.9,1.4l0.5-4.4L65,28.6L64.5,28.8z">
  </path>
  <path class="st1" d="M96.1,20.3L96.1,20.3c-0.5,1.5-0.7,3-0.6,4.6v4.2c0,0.3,0,1.5-0.1,6.1L95.1,43l1,0.2l1.9,0.4l1.6-7.4
		c0.7-3,0.9-4.2,1-4.7c1-4,1.6-6.3,1.7-7.2c0.1-0.9,0.1-1.8,0-2.7c-0.1-0.8-0.5-1.6-1.1-2.2c-0.6-0.6-1.5-1-2.4-1
		C97.6,18.4,96.5,19.1,96.1,20.3z M93.2,46L93.2,46c-0.6,0.7-0.8,1.6-0.6,2.5c0.2,1,0.7,2,1.5,2.6c0.7,0.6,1.6,0.9,2.5,0.9
		c1,0,1.9-0.4,2.5-1.2c0.6-0.7,0.9-1.7,0.7-2.7c-0.2-1-0.7-1.9-1.5-2.5c-0.7-0.6-1.6-0.9-2.5-0.9C94.8,44.8,93.8,45.2,93.2,46z">
  </path>
 </g>
</svg>