<svg version="1.1" id="Layer_1" xmlns:x="ns_extend;" xmlns:i="ns_ai;" xmlns:graph="ns_graphs;" xmlns="http://www.w3.org/2000/svg" xmlns:xlink="http://www.w3.org/1999/xlink" x="0px" y="0px" viewBox="0 0 434.9 137.4" style="enable-background:new 0 0 434.9 137.4;" xml:space="preserve">
 <style type="text/css">
  .st0{fill:url(#SVGID_1_);}
	.st1{fill:url(#SVGID_2_);}
	.st2{fill:url(#SVGID_3_);}
 </style>
 <metadata>
  <sfw xmlns="ns_sfw;">
   <slices>
   </slices>
   <sliceSourceBounds bottomLeftOrigin="true" height="137.4" width="434.9" x="-1.4" y="-0.3">
   </sliceSourceBounds>
  </sfw>
 </metadata>
 <g>
  <g>
   <g>
    <linearGradient id="SVGID_1_" gradientUnits="userSpaceOnUse" x1="293.95" y1="370.5" x2="293.95" y2="287.3" gradientTransform="matrix(1 0 0 1 0 -260)">
     <stop offset="0.3987" style="stop-color:#0A05B0">
     </stop>
     <stop offset="1" style="stop-color:#0001AA">
     </stop>
    </linearGradient>
    <path class="st0" d="M153.5,41.4h42.4l-42.9,55v14.1l59.5-0.1l5.5-14.1l-43.2,0.1L218,41.2V27.3l-59,0.1L153.5,41.4z M287.5,41.4
				l5.6-14.1h-63.6v72.5c0,4.8,1,6.1,3,8.1c2.5,2,4,2.5,8.9,2.4h46l5.3-13.9h-46.6V75.1h20.2l5.6-14.2h-25.7V41.4H287.5z
				 M405.3,34.4c-2-4.5-5.5-7-10.5-7h-7.5l-32.5,83.1h17l7.5-19.5h31.1l7.5,19.5h17L405.3,34.4z M383.7,76.9l11.5-30l11,30H383.7z
				 M374.2,27.3h-69.8l-5.5,13.9h27.9v69.1h15.9V41.2h25.9L374.2,27.3z">
    </path>
   </g>
  </g>
  <linearGradient id="SVGID_2_" gradientUnits="userSpaceOnUse" x1="130.5" y1="363.05" x2="0" y2="363.05" gradientTransform="matrix(1 0 0 1 0 -260)">
   <stop offset="0.3987" style="stop-color:#0A05B0">
   </stop>
   <stop offset="1" style="stop-color:#0068D0">
   </stop>
  </linearGradient>
  <polygon class="st1" points="58.8,105.7 55.1,88.8 30.1,68.7 0,68.7 46.5,106 53.2,137.4 130.5,68.7 100.4,68.7 	">
  </polygon>
  <linearGradient id="SVGID_3_" gradientUnits="userSpaceOnUse" x1="819.5431" y1="353.0045" x2="689.0431" y2="353.0045" gradientTransform="matrix(-1 0 0 -1 819.5431 387.3545)">
   <stop offset="0" style="stop-color:#00C2FF">
   </stop>
   <stop offset="0.5398" style="stop-color:#BC2676">
   </stop>
   <stop offset="0.8568" style="stop-color:#FFFB6A">
   </stop>
  </linearGradient>
  <polygon class="st2" points="71.7,31.7 75.3,48.6 100.4,68.7 130.5,68.7 84,31.4 77.2,0 0,68.7 30.1,68.7 	">
  </polygon>
 </g>
</svg>