<svg width="32" height="32" viewBox="0 0 32 32" fill="none" xmlns="http://www.w3.org/2000/svg">
  <!-- Background circle -->
  <circle cx="16" cy="16" r="16" fill="#1e40af"/>
  
  <!-- Calendar base -->
  <rect x="6" y="8" width="20" height="18" fill="#ffffff" rx="2"/>
  
  <!-- Calendar header -->
  <rect x="6" y="8" width="20" height="6" fill="#3b82f6" rx="2"/>
  
  <!-- Calendar rings -->
  <circle cx="10" cy="11" r="1" fill="#ffffff"/>
  <circle cx="22" cy="11" r="1" fill="#ffffff"/>
  
  <!-- Calendar grid (table-like) -->
  <rect x="8" y="16" width="2" height="2" fill="#1e40af" rx="0.5"/>
  <rect x="11" y="16" width="2" height="2" fill="#1e40af" rx="0.5"/>
  <rect x="14" y="16" width="2" height="2" fill="#1e40af" rx="0.5"/>
  <rect x="17" y="16" width="2" height="2" fill="#1e40af" rx="0.5"/>
  <rect x="20" y="16" width="2" height="2" fill="#1e40af" rx="0.5"/>
  
  <rect x="8" y="19" width="2" height="2" fill="#1e40af" rx="0.5"/>
  <rect x="11" y="19" width="2" height="2" fill="#1e40af" rx="0.5"/>
  <rect x="14" y="19" width="2" height="2" fill="#1e40af" rx="0.5"/>
  <rect x="17" y="19" width="2" height="2" fill="#1e40af" rx="0.5"/>
  <rect x="20" y="19" width="2" height="2" fill="#1e40af" rx="0.5"/>
  
  <rect x="8" y="22" width="2" height="2" fill="#1e40af" rx="0.5"/>
  <rect x="11" y="22" width="2" height="2" fill="#1e40af" rx="0.5"/>
  <rect x="14" y="22" width="2" height="2" fill="#1e40af" rx="0.5"/>
  <rect x="17" y="22" width="2" height="2" fill="#1e40af" rx="0.5"/>
  <rect x="20" y="22" width="2" height="2" fill="#1e40af" rx="0.5"/>
</svg>
