<svg version="1.1" id="Layer_1" xmlns:x="ns_extend;" xmlns:i="ns_ai;" xmlns:graph="ns_graphs;" xmlns="http://www.w3.org/2000/svg" xmlns:xlink="http://www.w3.org/1999/xlink" x="0px" y="0px" viewBox="0 0 480.4 129" style="enable-background:new 0 0 480.4 129;" xml:space="preserve">
 <style type="text/css">
  .st0{fill:#231F20;}
	.st1{fill:#007E44;}
 </style>
 <metadata>
  <sfw xmlns="ns_sfw;">
   <slices>
   </slices>
   <sliceSourceBounds bottomLeftOrigin="true" height="129" width="480.4" x="-52.3" y="-252.7">
   </sliceSourceBounds>
  </sfw>
 </metadata>
 <g>
  <path class="st0" d="M332.1,104.8h-13.6l-0.2-44c0-6.4-6.6-6.6-6.6-6.6h-6c0,0-0.9,0.2-1.7,0.3c-8.6,1.9-11.4,8.6-11.4,16.2l0.2,34
		h-13.8V61c0-6.6-6.7-6.7-6.7-6.7h-6c0,0-0.9,0.2-1.7,0.3c-8.6,1.9-11.4,8.6-11.2,16.2l-0.2,34h-13.6V40.4H253l0.2,5.9
		c4-5,9.8-6,12.8-6h5c6.2,0,11.6,2.1,17.3,7.3c5.7-5,10.9-7.3,17.4-7.3h5c12.4,0,21.4,8.1,21.4,21.2V104.8">
  </path>
  <path class="st0" d="M438.8,40.2h-20.9V27.5L404.1,19v85.8h13.8l-0.2-50.6h21.4c1.4,0,2.8,0.2,4.1,0.9c1.9,1,3.5,3.1,3.3,6.9v42.8
		h13.8V61.3C460.4,48.2,451.4,40.2,438.8,40.2">
  </path>
  <path class="st0" d="M384.7,26.8l-13-7.9h-0.5l-0.2,35.4V82c0.2,11.4,5,19.9,15.2,22.3c2.1,0.5,3.5,0.5,3.5,0.5h2.9v-14h-2.1
		c-5.9,0-5.9-7.1-5.9-7.1V54.2h7.9v-14h-7.9V26.8">
  </path>
  <path class="st0" d="M344.7,40.2v64.6h13.8V40.2H344.7z M345.4,18.8h-0.7v14.7h13.6v-6.7L345.4,18.8z">
  </path>
  <path class="st0" d="M171,81.2c6,6.6,14.7,11.1,24.3,11.1c11.4-0.2,19.5-4.5,19.5-12.4c0-18.3-53-0.5-53-34.2
		c0-14.7,15.4-24.9,34-24.9c13.6,0,24.5,4.3,32.6,12.6l-11.2,10.2c-7.4-7.4-14.3-9.8-22.3-9.8c-12.4,0-17.1,6.2-17.1,11.1
		c0,18.7,52.8,0,52.8,34.4c0,17.3-17.3,27.6-36.1,27.6c-11.6,0-24.9-4.3-35.2-15.4L171,81.2">
  </path>
  <g>
   <path class="st1" d="M114,102.9c-22.6,0-40.6-17.3-40.6-39.5c0-22.1,18-39.4,40.6-39.4c14.5,0,27.3,7.1,34.4,18.1
			C137.1,17.3,107.9,0,76.5,0C36.3,0,0,28.1,0,64.4c0,10.7,3.1,20.7,8.6,29.5l29.7-68.6h8.5l31.9,76h-15L58,87H25.9l-7.3,19.3
			c14.5,14,35.6,22.6,57.8,22.6c34,0,65.3-20.2,74.1-48.5C144.2,93.9,130.4,102.9,114,102.9 M31.1,74.6H53L42.1,47.3L31.1,74.6z
			 M88.1,63.4c0,14.9,12.3,26.2,25.9,26.2c13.5,0,25.7-11.4,25.7-26.2c0-14.7-12.3-26.2-25.7-26.2C100.3,37.1,88.1,48.7,88.1,63.4z">
   </path>
  </g>
  <path class="st0" d="M473.3,90.7c3.8,0,7.1,3.1,7.1,7.1c0,3.8-3.3,7.1-7.1,7.1c-4,0-7.1-3.3-7.1-7.1
		C466.3,93.8,469.4,90.7,473.3,90.7 M473.3,103.3c2.8,0,5-2.2,5-5.5s-2.2-5.5-5-5.5c-2.9,0-5,2.2-5,5.5S470.4,103.3,473.3,103.3z
		 M470.4,93.8h3.1c1.9,0,2.9,0.5,2.9,2.4c0,1.4-0.7,1.9-1.9,2.1l1.9,3.3h-1.6l-1.9-3.3h-0.9v3.3h-1.7V93.8z M473.5,97
		c0.7,0,1.4-0.2,1.4-1c0-0.9-0.9-1-1.6-1h-1.2V97H473.5z">
  </path>
 </g>
</svg>