<svg version="1.1" id="Layer_1" xmlns:x="ns_extend;" xmlns:i="ns_ai;" xmlns:graph="ns_graphs;" xmlns="http://www.w3.org/2000/svg" xmlns:xlink="http://www.w3.org/1999/xlink" x="0px" y="0px" viewBox="0 0 229.2 100" style="enable-background:new 0 0 229.2 100;" xml:space="preserve">
 <style type="text/css">
  .st0{fill:#004D71;}
	.st1{fill:#4D5858;}
 </style>
 <metadata>
  <sfw xmlns="ns_sfw;">
   <slices>
   </slices>
   <sliceSourceBounds bottomLeftOrigin="true" height="100" width="229.2" x="-248" y="-245.7">
   </sliceSourceBounds>
  </sfw>
 </metadata>
 <g>
  <path class="st0" d="M42.2,82.3c-1.4-0.5-2.6-1.3-3.6-2.3c-1-1-1.8-2.2-2.2-3.7c-0.5-1.4-0.7-3-0.7-4.6c0-1.7,0.3-3.4,0.9-5
		c0.6-1.6,1.5-3,2.6-4.1c1.2-1.1,2.5-1.9,4-2.4c1.5-0.5,3.1-0.8,4.7-0.8c1,0,2,0.1,3.1,0.2c1.1,0.2,2.4,0.5,3.9,0.9
		c-0.1-1.4-0.2-2.5-0.2-3.2c-2.3-0.5-4.7-0.7-7.1-0.7c-2.2,0-4.3,0.3-6.3,1c-2,0.7-3.7,1.7-5.2,3.1c-1.4,1.4-2.5,3-3.2,5
		c-0.7,2-1,4-1,6.1c0,2,0.3,3.9,0.9,5.6c0.6,1.7,1.6,3.2,3,4.5c1.4,1.3,3,2.2,4.9,2.8c1.9,0.6,3.8,0.9,5.8,0.9
		c2.3,0,4.7-0.3,7.4-0.8c0.1-1.2,0.3-2.2,0.5-3.3c-2.8,0.9-5.4,1.3-7.5,1.3C45.1,83.1,43.6,82.8,42.2,82.3">
  </path>
  <path class="st0" d="M58.8,75.2l-0.3,6.9l-0.2,3.3c0.8,0,1.4,0,1.5,0l1.4,0c0.1-3.9,0.2-8,0.3-12.2c0.1-2.6,0.2-5.2,0.4-7.6l-1.4,0
		l-1.5,0l0,1.5c0,0.4,0,0.8,0,1.2L58.8,75.2z">
  </path>
  <path class="st0" d="M81.6,65.6l-0.6,17l-9.5-14.5l-1.6-2.6c-0.7,0-1.3,0-1.7,0c-0.5,0-1.1,0-1.8,0c0,0.4,0,1,0,1.7l-0.1,2.3
		l-0.5,11.8l-0.3,4c0.7,0,1.2,0,1.3,0c0.2,0,0.6,0,1.3,0l0.1-4l0.4-10.3c0-1.2,0.1-2,0.1-2.5l9.8,14.7l1.3,2.1c0.7,0,1.2,0,1.7,0
		c0.5,0,1.1,0,1.7,0l0.2-5.8l0.4-8.9l0.3-5.1l-1.3,0L81.6,65.6z">
  </path>
  <path class="st0" d="M92.5,69.5c0.8-0.8,1.7-1.3,2.8-1.7c1-0.4,2.1-0.5,3.3-0.5c0.7,0,1.4,0.1,2.1,0.2c0.8,0.1,1.7,0.3,2.7,0.7
		c-0.1-1-0.1-1.8-0.2-2.2c-1.6-0.3-3.3-0.5-4.9-0.5c-1.5,0-3,0.2-4.4,0.7c-1.4,0.5-2.6,1.2-3.6,2.2c-1,1-1.7,2.1-2.2,3.5
		c-0.5,1.4-0.7,2.8-0.7,4.3c0,1.4,0.2,2.7,0.7,3.9c0.4,1.2,1.1,2.3,2.1,3.2c1,0.9,2.1,1.6,3.4,2c1.3,0.4,2.7,0.6,4.1,0.6
		c1.6,0,3.3-0.2,5.2-0.6c0.1-0.8,0.2-1.6,0.4-2.3c-2,0.6-3.7,0.9-5.3,0.9c-1.2,0-2.3-0.2-3.3-0.6c-1-0.4-1.8-0.9-2.5-1.6
		c-0.7-0.7-1.2-1.6-1.6-2.6C90.2,78,90,77,90,75.8c0-1.2,0.2-2.4,0.6-3.5C91.1,71.2,91.7,70.3,92.5,69.5">
  </path>
  <path class="st0" d="M107,75.2l-0.3,6.9l-0.2,3.3c0.8,0,1.4,0,1.5,0l1.4,0c0.1-3.9,0.2-8,0.3-12.2c0.1-2.6,0.2-5.2,0.4-7.6l-1.4,0
		l-1.5,0l0,1.5c0,0.4,0,0.8,0,1.2L107,75.2z">
  </path>
  <path class="st0" d="M129.9,85.4c0.5,0,1.1,0,1.7,0l0.2-5.8l0.4-8.9l0.3-5.1l-1.3,0l-1.3,0l-0.6,17l-9.5-14.5l-1.6-2.6
		c-0.7,0-1.3,0-1.7,0c-0.5,0-1.1,0-1.8,0c0,0.4,0,1,0,1.7l-0.1,2.3l-0.5,11.8l-0.3,4c0.7,0,1.2,0,1.3,0c0.2,0,0.6,0,1.3,0l0.1-4
		l0.4-10.3c0-1.2,0.1-2,0.1-2.5l9.8,14.7l1.3,2.1C128.8,85.4,129.4,85.4,129.9,85.4">
  </path>
  <path class="st0" d="M153.8,85.4l0.2-5.8l0.4-8.9l0.3-5.1l-1.3,0l-1.3,0l-0.6,17L142,68.2l-1.6-2.6c-0.7,0-1.3,0-1.7,0
		c-0.5,0-1.1,0-1.8,0c0,0.4,0,1,0,1.7l-0.1,2.3l-0.5,11.8l-0.3,4c0.7,0,1.2,0,1.3,0c0.2,0,0.6,0,1.3,0l0.1-4l0.4-10.3
		c0-1.2,0.1-2,0.1-2.5l9.8,14.7l1.3,2.1c0.7,0,1.2,0,1.7,0C152.7,85.4,153.3,85.4,153.8,85.4">
  </path>
  <path class="st0" d="M167.4,67.5l2.7,7.7h-6.5L167.4,67.5z M162.8,77.1h7.9c0.4,1.1,0.9,2.5,1.5,4.3c0.6,1.8,1,3.1,1.3,4
		c0.8,0,1.3,0,1.5,0l1.4,0l-4.6-12.7l-2.5-7.1c-0.6,0-1.2,0-1.7,0l-1.7,0l-0.8,1.7l-6.7,13.1l-2.6,5c0.8,0,1.3,0,1.5,0l1.5,0l1.8-4
		L162.8,77.1z">
  </path>
  <path class="st0" d="M185.9,83l0.3-9l0.3-6.4h1.2c1.8,0,3.5,0,4.9,0.1c0-0.5,0-1.2,0.1-2h-2.5l-4.6,0c-2.8,0-5.5,0-7.9,0
		c0,0.6,0,1.3-0.1,2c1.8-0.1,3.8-0.1,6.2-0.1l-0.1,4.2l-0.4,9.2l-0.3,4.4c0.9,0,1.3,0,1.5,0l1.4,0V83z">
  </path>
  <path class="st0" d="M195.1,65.6l0,1.5c0,0.4,0,0.8,0,1.2l-0.2,6.8l-0.3,6.9l-0.2,3.3c0.8,0,1.4,0,1.5,0l1.4,0
		c0.1-3.9,0.2-8,0.3-12.2c0.1-2.6,0.2-5.2,0.4-7.6l-1.4,0L195.1,65.6z">
  </path>
  <path class="st1" d="M43.6,89.8l-0.3,8.6l-4.6-7.3l-0.8-1.3c-0.3,0-0.6,0-0.8,0c-0.2,0-0.5,0-0.9,0c0,0.2,0,0.5,0,0.9l0,1.2l-0.2,6
		l-0.1,2c0.4,0,0.6,0,0.6,0c0.1,0,0.3,0,0.6,0l0-2l0.2-5.2c0-0.6,0-1,0.1-1.3l4.7,7.4l0.6,1.1c0.3,0,0.6,0,0.8,0c0.3,0,0.5,0,0.8,0
		l0.1-2.9l0.2-4.5l0.2-2.6l-0.6,0L43.6,89.8z">
  </path>
  <path class="st1" d="M51.9,96.2c-0.1-0.2-0.3-0.4-0.5-0.6c-0.2-0.2-0.5-0.5-1-0.9c-0.5-0.4-0.7-0.6-0.8-0.7
		c-0.3-0.2-0.5-0.5-0.7-0.6c-0.2-0.2-0.3-0.3-0.4-0.5c-0.1-0.1-0.1-0.2-0.2-0.4c0-0.1-0.1-0.3-0.1-0.4c0-0.2,0.1-0.4,0.2-0.7
		c0.1-0.2,0.3-0.4,0.6-0.5c0.3-0.1,0.6-0.2,1-0.2c0.6,0,1.2,0.1,1.9,0.4c-0.1-0.5-0.1-0.8-0.1-1.2c-0.7-0.1-1.4-0.2-1.9-0.2
		c-0.7,0-1.3,0.1-1.7,0.3c-0.4,0.2-0.8,0.5-1,0.9c-0.2,0.4-0.3,0.8-0.3,1.2c0,0.2,0,0.3,0,0.5c0,0.2,0.1,0.3,0.1,0.4
		c0.1,0.1,0.1,0.3,0.2,0.4c0.1,0.2,0.2,0.3,0.4,0.5c0.2,0.2,0.3,0.4,0.5,0.5l0.5,0.5c0.5,0.5,0.9,0.8,1.2,1.1
		c0.3,0.3,0.5,0.5,0.6,0.6c0.1,0.2,0.2,0.3,0.2,0.5c0.1,0.2,0.1,0.3,0.1,0.5c0,0.3-0.1,0.6-0.2,0.8c-0.2,0.2-0.4,0.4-0.7,0.5
		c-0.3,0.1-0.6,0.2-1,0.2c-0.4,0-0.7-0.1-1.1-0.1c-0.4-0.1-0.8-0.3-1.3-0.5c0,0.3,0.1,0.7,0.1,1.2c0.6,0.2,1.1,0.3,1.4,0.4
		c0.3,0,0.7,0.1,1,0.1c0.4,0,0.8,0,1.1-0.1c0.4-0.1,0.7-0.2,1-0.4c0.3-0.2,0.5-0.5,0.7-0.8c0.2-0.3,0.2-0.7,0.2-1.1
		c0-0.2,0-0.5-0.1-0.7C52.1,96.6,52,96.4,51.9,96.2">
  </path>
  <path class="st1" d="M197.4,96.2c-0.1-0.2-0.3-0.4-0.5-0.6c-0.2-0.2-0.5-0.5-1-0.9c-0.5-0.4-0.7-0.6-0.8-0.7
		c-0.3-0.2-0.5-0.5-0.6-0.6c-0.2-0.2-0.3-0.3-0.4-0.5c-0.1-0.1-0.1-0.2-0.2-0.4c0-0.1-0.1-0.3-0.1-0.4c0-0.2,0.1-0.4,0.2-0.7
		c0.1-0.2,0.3-0.4,0.6-0.5c0.3-0.1,0.6-0.2,1-0.2c0.6,0,1.2,0.1,1.9,0.4c-0.1-0.5-0.1-0.8-0.1-1.2c-0.8-0.1-1.4-0.2-1.9-0.2
		c-0.7,0-1.3,0.1-1.7,0.3c-0.4,0.2-0.8,0.5-1,0.9c-0.2,0.4-0.3,0.8-0.3,1.2c0,0.2,0,0.3,0,0.5c0,0.2,0.1,0.3,0.1,0.4
		c0.1,0.1,0.1,0.3,0.2,0.4c0.1,0.2,0.2,0.3,0.4,0.5c0.2,0.2,0.3,0.4,0.5,0.5l0.5,0.5c0.5,0.5,0.9,0.8,1.2,1.1
		c0.3,0.3,0.5,0.5,0.6,0.6c0.1,0.2,0.2,0.3,0.2,0.5c0,0.2,0.1,0.3,0.1,0.5c0,0.3-0.1,0.6-0.2,0.8c-0.1,0.2-0.4,0.4-0.7,0.5
		c-0.3,0.1-0.6,0.2-1,0.2c-0.4,0-0.7-0.1-1.1-0.1c-0.4-0.1-0.8-0.3-1.3-0.5c0,0.3,0.1,0.7,0.1,1.2c0.6,0.2,1.1,0.3,1.4,0.4
		c0.3,0,0.7,0.1,1,0.1c0.4,0,0.8,0,1.1-0.1c0.4-0.1,0.7-0.2,1-0.4c0.3-0.2,0.5-0.5,0.7-0.8c0.2-0.3,0.2-0.7,0.2-1.1
		c0-0.2,0-0.5-0.1-0.7C197.7,96.6,197.6,96.4,197.4,96.2">
  </path>
  <path class="st1" d="M61.7,89.8c0,1,0,1.9-0.1,2.8L61.5,95c-0.1,0.9-0.1,1.6-0.2,2c-0.1,0.3-0.1,0.6-0.3,0.8
		c-0.1,0.3-0.3,0.5-0.5,0.6c-0.2,0.2-0.5,0.3-0.8,0.4C59.4,98.9,59,99,58.6,99c-0.6,0-1.2-0.1-1.6-0.3c-0.4-0.2-0.7-0.5-0.9-0.9
		c-0.2-0.4-0.3-0.9-0.3-1.6v-0.1l0-0.7l0.3-5.6l-0.7,0l-0.7,0c0,0.6,0,1.5-0.1,2.7c-0.1,1.2-0.1,2.1-0.1,2.7c0,0.6-0.1,1.1-0.1,1.6
		c0,0.4,0.1,0.8,0.2,1.2c0.1,0.3,0.2,0.6,0.4,0.8c0.2,0.3,0.5,0.5,0.8,0.7c0.3,0.2,0.7,0.3,1.1,0.4c0.5,0.1,0.9,0.2,1.5,0.2
		c0.5,0,1.1,0,1.6-0.2c0.3-0.1,0.7-0.2,1-0.3c0.3-0.2,0.5-0.3,0.8-0.5c0.2-0.2,0.3-0.4,0.4-0.6c0.1-0.2,0.2-0.5,0.3-0.7
		c0.1-0.4,0.2-0.9,0.2-1.5l0.1-2.9l0.2-3.5l-0.6,0L61.7,89.8z">
  </path>
  <path class="st1" d="M70.6,94.7c0.3-0.2,0.5-0.4,0.7-0.6c0.2-0.3,0.4-0.5,0.5-0.8c0.1-0.3,0.2-0.7,0.2-1c0-0.4-0.1-0.7-0.2-1
		c-0.1-0.3-0.3-0.6-0.6-0.8c-0.3-0.2-0.6-0.4-0.9-0.4c-0.4-0.1-0.7-0.1-1.2-0.1c-0.2,0-0.6,0-0.9,0c-0.4,0-0.7,0-1,0
		c-0.4,0-0.8,0-1.4,0c0,0.3,0,0.7,0,1.3l-0.1,3.1l-0.2,3.6l-0.1,2c0.3,0,0.6,0,0.7,0l0.7,0c0-2.8,0.1-5.8,0.3-9.1c0.1,0,0.4,0,0.8,0
		l1,0c0.2,0,0.5,0,0.7,0c0.2,0,0.4,0.1,0.5,0.1c0.1,0.1,0.3,0.2,0.4,0.3c0.1,0.1,0.2,0.3,0.3,0.5c0.1,0.2,0.1,0.4,0.1,0.6
		c0,0.4-0.1,0.8-0.3,1.1c-0.2,0.3-0.5,0.6-0.9,0.8c-0.4,0.2-0.8,0.2-1.3,0.2c-0.3,0-0.6,0-0.9-0.1c0.1,0.3,0.3,0.5,0.3,0.6l1.6,2.7
		c0.1,0.2,0.2,0.4,0.3,0.6c0.1,0.2,0.2,0.4,0.3,0.6l0.5,1c0.4,0,0.6,0,0.7,0c0.1,0,0.4,0,0.7,0c-0.2-0.3-0.3-0.5-0.4-0.6l-1.3-2
		L69,95.1c0.4,0,0.7-0.1,0.9-0.1C70.2,94.9,70.4,94.8,70.6,94.7">
  </path>
  <path class="st1" d="M76.4,94.7l1.8-3.9l1.3,3.9H76.4z M79.1,89.8c-0.3,0-0.6,0-0.8,0l-0.8,0l-0.4,0.8l-3.2,6.7l-1.3,2.5
		c0.4,0,0.6,0,0.7,0l0.7,0l0.9-2l1-2.2h3.8c0.2,0.6,0.4,1.3,0.7,2.2c0.3,0.9,0.5,1.6,0.6,2c0.4,0,0.6,0,0.7,0l0.7,0l-2.2-6.4
		L79.1,89.8z">
  </path>
  <path class="st1" d="M92,89.8l-0.3,8.6l-4.6-7.3l-0.8-1.3c-0.3,0-0.6,0-0.8,0c-0.2,0-0.5,0-0.9,0c0,0.2,0,0.5,0,0.9l0,1.2l-0.2,6
		l-0.1,2c0.3,0,0.6,0,0.6,0c0.1,0,0.3,0,0.6,0l0-2l0.2-5.2c0-0.6,0-1,0.1-1.3l4.7,7.4l0.6,1.1c0.3,0,0.6,0,0.8,0c0.3,0,0.5,0,0.8,0
		l0.1-2.9l0.2-4.5l0.2-2.6l-0.6,0L92,89.8z">
  </path>
  <path class="st1" d="M97.8,91.8c0.4-0.4,0.8-0.7,1.3-0.9c0.5-0.2,1-0.3,1.6-0.3c0.3,0,0.7,0,1,0.1c0.4,0.1,0.8,0.2,1.3,0.3
		c0-0.5-0.1-0.9-0.1-1.1c-0.8-0.2-1.6-0.3-2.4-0.3c-0.7,0-1.4,0.1-2.1,0.4c-0.7,0.2-1.3,0.6-1.7,1.1c-0.5,0.5-0.8,1.1-1.1,1.8
		c-0.2,0.7-0.4,1.4-0.4,2.2c0,0.7,0.1,1.4,0.3,2c0.2,0.6,0.6,1.2,1,1.6c0.5,0.5,1,0.8,1.6,1c0.6,0.2,1.3,0.3,2,0.3
		c0.8,0,1.6-0.1,2.5-0.3c0-0.4,0.1-0.8,0.2-1.2c-1,0.3-1.8,0.5-2.5,0.5c-0.6,0-1.1-0.1-1.6-0.3c-0.5-0.2-0.9-0.5-1.2-0.8
		c-0.3-0.4-0.6-0.8-0.8-1.3c-0.2-0.5-0.2-1.1-0.2-1.6c0-0.6,0.1-1.2,0.3-1.8C97.1,92.6,97.4,92.2,97.8,91.8">
  </path>
  <path class="st1" d="M108.7,89.8c-1.1,0-2.2,0-3.2,0c0,0.4,0,0.7,0,1l0,1.1l-0.2,5.2l-0.2,2.8l3.3,0c0.8,0,1.7,0,2.8,0
		c0-0.3,0-0.7,0.1-1c-0.6,0-1.1,0.1-1.5,0.1c-0.4,0-1.3,0-2.6,0l-0.7,0l0.1-3.6c0.8,0,1.5,0,1.9,0l2.4,0c0-0.3,0-0.7,0.1-1
		c-1,0-1.8,0-2.4,0c-0.6,0-1.2,0-1.9,0l0.1-3.4c0.4,0,1.2,0,2.3,0c0.4,0,0.7,0,1.1,0c0.4,0,0.6,0,0.8,0l0.6,0c0-0.3,0-0.7,0.1-1
		h-0.7L108.7,89.8z">
  </path>
  <path class="st1" d="M188.5,89.8c-1.1,0-2.2,0-3.2,0c0,0.4,0,0.7,0,1l0,1.1l-0.2,5.2l-0.2,2.8l3.3,0c0.8,0,1.7,0,2.8,0
		c0-0.3,0-0.7,0.1-1c-0.6,0-1.1,0.1-1.5,0.1c-0.4,0-1.3,0-2.6,0l-0.7,0l0.1-3.6c0.8,0,1.5,0,1.9,0l2.4,0c0-0.3,0-0.7,0.1-1
		c-1,0-1.8,0-2.4,0c-0.6,0-1.2,0-1.9,0l0.1-3.4c0.4,0,1.2,0,2.3,0c0.4,0,0.7,0,1.1,0c0.4,0,0.6,0,0.8,0l0.6,0c0-0.3,0-0.7,0.1-1
		h-0.7L188.5,89.8z">
  </path>
  <path class="st1" d="M120,91.8c0.4-0.4,0.8-0.7,1.3-0.9c0.5-0.2,1-0.3,1.6-0.3c0.3,0,0.7,0,1,0.1c0.4,0.1,0.8,0.2,1.3,0.3
		c0-0.5-0.1-0.9-0.1-1.1c-0.8-0.2-1.6-0.3-2.4-0.3c-0.7,0-1.4,0.1-2.1,0.4c-0.7,0.2-1.3,0.6-1.7,1.1c-0.5,0.5-0.8,1.1-1.1,1.8
		c-0.2,0.7-0.4,1.4-0.4,2.2c0,0.7,0.1,1.4,0.3,2c0.2,0.6,0.6,1.2,1,1.6c0.5,0.5,1,0.8,1.6,1c0.6,0.2,1.3,0.3,2,0.3
		c0.8,0,1.6-0.1,2.5-0.3c0.1-0.4,0.1-0.8,0.2-1.2c-1,0.3-1.8,0.5-2.5,0.5c-0.6,0-1.1-0.1-1.6-0.3c-0.5-0.2-0.9-0.5-1.2-0.8
		c-0.3-0.4-0.6-0.8-0.8-1.3c-0.2-0.5-0.2-1.1-0.2-1.6c0-0.6,0.1-1.2,0.3-1.8C119.3,92.6,119.6,92.2,120,91.8">
  </path>
  <path class="st1" d="M135.7,96.5c-0.2,0.6-0.4,1-0.8,1.4c-0.4,0.4-0.8,0.7-1.3,0.9c-0.5,0.2-1,0.3-1.5,0.3c-0.5,0-1-0.1-1.5-0.3
		c-0.5-0.2-0.9-0.4-1.2-0.8c-0.3-0.3-0.6-0.8-0.8-1.3c-0.2-0.5-0.3-1.1-0.3-1.6c0-0.6,0.1-1.2,0.3-1.8c0.2-0.6,0.4-1.1,0.8-1.5
		c0.4-0.4,0.8-0.7,1.3-0.9c0.5-0.2,1-0.3,1.6-0.3c0.5,0,1,0.1,1.5,0.3c0.5,0.2,0.9,0.4,1.2,0.8c0.3,0.4,0.6,0.8,0.7,1.3
		c0.2,0.5,0.2,1.1,0.2,1.7C135.9,95.3,135.8,95.9,135.7,96.5 M135.9,91c-0.5-0.5-1-0.8-1.6-1c-0.6-0.2-1.3-0.3-1.9-0.3
		c-0.7,0-1.4,0.1-2.1,0.4c-0.7,0.2-1.3,0.6-1.7,1.1c-0.5,0.5-0.8,1.1-1.1,1.8c-0.2,0.7-0.4,1.4-0.4,2.2c0,0.7,0.1,1.3,0.3,2
		c0.2,0.6,0.5,1.2,1,1.6c0.5,0.5,1,0.8,1.7,1c0.7,0.2,1.3,0.3,2,0.3c0.7,0,1.5-0.1,2.1-0.4c0.7-0.2,1.2-0.6,1.7-1.1
		c0.5-0.5,0.8-1.1,1-1.8c0.2-0.7,0.3-1.4,0.3-2.2c0-0.7-0.1-1.4-0.3-2C136.7,92.1,136.4,91.5,135.9,91">
  </path>
  <path class="st1" d="M147.6,89.8c-0.1,0.3-0.2,0.6-0.3,0.7c-0.1,0.2-0.1,0.3-0.2,0.4l-1.6,3.8l-1.4,3.5l-1.1-3.5l-0.9-2.6
		c-0.2-0.5-0.3-0.9-0.4-1.2c-0.1-0.2-0.1-0.4-0.2-0.6l-0.2-0.6c-0.3,0-0.6,0-0.9,0c-0.3,0-0.6,0-0.9,0l-0.2,3.2l-0.4,5.5l-0.1,1.4
		c0.3,0,0.5,0,0.6,0l0.6,0c0-0.4,0-0.7,0-0.9c0-0.2,0-0.4,0-0.6l0.4-6.3l0.1-0.9c0.1,0.3,0.2,0.5,0.2,0.6l0.8,2.6l0.8,2.7l0.8,2.8
		c0.3,0,0.5,0,0.7,0c0.1,0,0.3,0,0.6,0l0.4-1.1l3-7.7l0,0.6c0,0.7,0,1.4,0,2l-0.1,5.3l0,0.9c0.3,0,0.5,0,0.6,0c0.1,0,0.3,0,0.6,0
		c0-0.5,0-0.8,0-0.9v-0.9l0-1.7c0-0.2,0-0.4,0-0.6l0-2.3l0.1-3.5c-0.3,0-0.6,0-0.9,0C148.2,89.8,147.9,89.8,147.6,89.8">
  </path>
  <path class="st1" d="M157.8,90.4c-0.2-0.2-0.5-0.4-0.7-0.5c-0.3-0.1-0.7-0.1-1.3-0.1c-0.2,0-0.6,0-1,0c-0.4,0-0.8,0-1,0
		c-0.4,0-0.8,0-1.4,0v0.8c0,0.2,0,0.4,0,0.6l0,1.2l-0.2,5.7l-0.1,1.7c0.4,0,0.6,0,0.7,0l0.6,0V99c0-0.4,0-1.2,0-2.3l0.1-3
		c0-0.9,0.1-1.9,0.1-2.9l0.5,0l0.7,0h0.6c0.4,0,0.7,0,0.9,0.1c0.2,0,0.4,0.1,0.5,0.3c0.2,0.1,0.3,0.3,0.4,0.5
		c0.1,0.2,0.1,0.4,0.1,0.7c0,0.3-0.1,0.6-0.2,0.9c-0.1,0.3-0.3,0.5-0.5,0.7c-0.2,0.2-0.5,0.3-0.8,0.4c-0.3,0.1-0.6,0.1-0.9,0.1
		c-0.3,0-0.7,0-1.1-0.1c0.1,0.3,0.2,0.6,0.2,0.9c0.4,0.1,0.8,0.1,1.1,0.1c0.6,0,1.2-0.1,1.7-0.4c0.5-0.2,0.9-0.6,1.2-1.1
		c0.3-0.5,0.4-1,0.4-1.7c0-0.4-0.1-0.7-0.2-1C158.2,90.9,158,90.6,157.8,90.4">
  </path>
  <path class="st1" d="M162.7,94.7l1.8-3.9l1.3,3.9H162.7z M165.4,89.8c-0.3,0-0.6,0-0.8,0l-0.8,0l-0.4,0.8l-3.2,6.7l-1.3,2.5
		c0.4,0,0.6,0,0.7,0l0.7,0l0.9-2l1-2.2h3.8c0.2,0.6,0.4,1.3,0.7,2.2c0.3,0.9,0.5,1.6,0.6,2c0.4,0,0.6,0,0.7,0l0.7,0l-2.2-6.4
		L165.4,89.8z">
  </path>
  <path class="st1" d="M178.3,89.8l-0.3,8.6l-4.6-7.3l-0.8-1.3c-0.3,0-0.6,0-0.8,0c-0.2,0-0.5,0-0.9,0c0,0.2,0,0.5,0,0.9l0,1.2
		l-0.2,6l-0.1,2c0.4,0,0.6,0,0.6,0c0.1,0,0.3,0,0.6,0l0-2l0.2-5.2c0-0.6,0-1,0.1-1.3l4.7,7.4l0.6,1.1c0.3,0,0.6,0,0.8,0
		c0.3,0,0.5,0,0.8,0l0.1-2.9l0.2-4.5l0.2-2.6l-0.6,0L178.3,89.8z">
  </path>
  <path class="st0" d="M61.5,57.2c-0.9,0-1.8,0-2.6,0c0,0.2,0,0.4,0,0.7c0.6,0,1.2,0,2,0l0,1.4l-0.1,3l-0.1,1.4c0.3,0,0.4,0,0.5,0
		l0.4,0v-0.8l0.1-2.9l0.1-2.1h0.4c0.6,0,1.1,0,1.6,0c0-0.2,0-0.4,0-0.7H63L61.5,57.2z">
  </path>
  <path class="st0" d="M65.3,62.6l0.1-1.9h3.8c0,1-0.1,2-0.1,3c0.3,0,0.4,0,0.5,0l0.5,0c0-1.1,0-2.1,0.1-3.1c0-1,0.1-2.1,0.2-3.3
		l-0.4,0l-0.5,0c0,0.3,0,0.5,0,0.6L69.2,60h-3.8l0.1-2.8l-0.4,0l-0.5,0c0,0.3,0,0.6,0,0.7l0,0.7l-0.1,2.2l-0.2,2.8
		c0.3,0,0.4,0,0.5,0l0.5,0L65.3,62.6z">
  </path>
  <path class="st0" d="M74.2,57.8c0.2,0,0.5,0,0.7,0c0.3,0,0.4,0,0.5,0l0.4,0c0-0.2,0-0.4,0-0.7h-0.5l-1.5,0c-0.7,0-1.5,0-2.2,0
		c0,0.2,0,0.4,0,0.6l0,0.7l-0.1,3.3l-0.1,1.8l2.2,0c0.5,0,1.2,0,1.9,0c0-0.2,0-0.4,0-0.7c-0.4,0-0.7,0-1,0c-0.3,0-0.9,0-1.8,0
		l-0.5,0l0.1-2.3c0.6,0,1,0,1.3,0l1.6,0c0-0.2,0-0.4,0-0.7c-0.7,0-1.2,0-1.6,0c-0.4,0-0.8,0-1.3,0l0.1-2.2
		C73,57.8,73.5,57.8,74.2,57.8">
  </path>
  <path class="st1" d="M32.8,89.8l0,0.8c0,0.2,0,0.4,0,0.6l-0.1,3.5l-0.1,3.5l-0.1,1.7c0.4,0,0.6,0,0.7,0l0.7,0c0-2,0.1-4,0.2-6.2
		c0-1.3,0.1-2.6,0.2-3.8l-0.7,0L32.8,89.8z">
  </path>
  <path class="st1" d="M181.9,89.8l0,0.8c0,0.2,0,0.4,0,0.6l-0.1,3.5l-0.1,3.5l-0.1,1.7c0.4,0,0.7,0,0.7,0l0.7,0c0-2,0.1-4,0.2-6.2
		c0-1.3,0.1-2.6,0.2-3.8l-0.7,0L181.9,89.8z">
  </path>
  <path class="st0" d="M4.1,53.2c10-4.2,36-15.4,52.2-25.1c3.7-2.2,7.1-4.5,10.1-6.7l-0.6,18.8C33,42.7,10.4,50.8,4.1,53.2
		 M65.6,49.4l2.9,0.6l0-49l-0.9,0.9l-0.4-0.3l-1.9,1.7L66.7,4L66.8,17l-0.3,2.2l0,0.2c-4.1,2.9-8.7,6-14,9.2
		C33.1,40.1,9.1,50.9,2.1,54c3-1.6,28.6-15,42.9-26.3c15.2-12,20.4-24.4,20.4-24.4s-6.5,11.4-23.6,24.9C25.6,41,4.3,52.8,2,54.1
		c-1.3,0.6-2,0.9-2,0.9s0.9-0.4,2.5-1c2.2-0.7,25.1-7.7,63.2-10.2L65.6,49.4z">
  </path>
  <polygon class="st0" points="71.2,50.1 74.8,49.9 74.8,0 71.1,0 	">
  </polygon>
  <polygon class="st0" points="87.4,45.5 77.6,45.8 77.6,49.7 87.4,49.4 	">
  </polygon>
  <path class="st0" d="M85.3,19.4v20c-2.4,0-4.8,0-7.1,0.1V19.7c0,0-0.1-3.8,3.5-3.9C85.4,15.6,85.3,19.4,85.3,19.4 M93.5,19.3
		l-1-2.2l0.1-4.5c9.1,5.4,21.6,11.6,37.3,16.6c15.2,4.8,33.3,9.6,49.2,13.5c25.7,6.6,50.2,11.7,50.2,11.7S181.7,43,146.3,30.6
		C110.8,18.3,93.6,2.8,93.6,2.8s10.3,11.8,31.2,22.1c-13.4-4.8-24.1-9.8-32.1-14.1l0.1-7.1l0.8-0.9l-2.2-0.5L90.4,3l0,6.6
		c-1.1-0.6-2.2-1.2-3.2-1.7v-1l-2.4-0.4c-2.1-1.2-3.9-2.3-5.3-3.3l7.7,1.2v-2l-9.5-1.4v0.9c-1.9-1.3-2.9-2-2.9-2s1,0.9,2.9,2.5V3
		l0.8,0.1C79.6,4,81,5,82.7,6.2l-5-0.8v8.7c0,0,0.3-2.4,5-2.4c4.4,0,4.5,2.1,4.5,2.4V9.3c1,0.6,2.1,1.3,3.2,2l0.2,28.2
		c-1.1,0-2.1,0-3.2,0V19.3c0,0,0.2-3.9-4.8-3.7c-5,0.2-4.8,4-4.8,4v20c0,0,0,0,0,0v3.5c4.1-0.2,8.5-0.2,12.9-0.3l0,5.8l1.7,0.7
		l2.7-0.5l-0.3-6c56.3,0.2,121.9,8.9,121.9,8.9S145,40.8,94.5,39.6L93.5,19.3z">
  </path>
  <path class="st0" d="M96.8,46.7c0-0.3,0.1-0.7,0.3-1c0.2-0.3,0.4-0.5,0.7-0.7c0.3-0.2,0.6-0.2,0.9-0.2c0.3,0,0.6,0.1,0.9,0.2
		c0.3,0.2,0.5,0.4,0.7,0.7c0.2,0.3,0.3,0.6,0.3,1c0,0.3-0.1,0.6-0.3,0.9c-0.2,0.3-0.4,0.5-0.7,0.7c-0.3,0.2-0.6,0.3-0.9,0.3
		c-0.3,0-0.6-0.1-0.9-0.3c-0.3-0.2-0.5-0.4-0.7-0.7C96.9,47.3,96.8,47,96.8,46.7 M97.6,48.6c0.4,0.2,0.7,0.3,1.1,0.3
		c0.4,0,0.8-0.1,1.1-0.3c0.4-0.2,0.6-0.5,0.8-0.8c0.2-0.4,0.3-0.7,0.3-1.1c0-0.4-0.1-0.8-0.3-1.1c-0.2-0.4-0.5-0.6-0.8-0.8
		c-0.4-0.2-0.7-0.3-1.1-0.3c-0.4,0-0.8,0.1-1.1,0.3c-0.4,0.2-0.7,0.5-0.9,0.8c-0.2,0.4-0.3,0.7-0.3,1.1c0,0.4,0.1,0.8,0.3,1.1
		C96.9,48.2,97.2,48.4,97.6,48.6">
  </path>
  <path class="st0" d="M98.1,45.8h0.5c0.2,0,0.3,0,0.4,0c0.1,0,0.1,0.1,0.2,0.1c0,0.1,0.1,0.1,0.1,0.2c0,0.1,0,0.2-0.1,0.3
		c-0.1,0.1-0.2,0.1-0.5,0.1h-0.5V45.8z M98.1,46.9h0.2c0.1,0,0.2,0,0.3,0.1c0.1,0.1,0.2,0.3,0.4,0.6l0.2,0.4h0.5l-0.3-0.5
		c-0.1-0.2-0.3-0.4-0.4-0.5c-0.1-0.1-0.1-0.1-0.2-0.1c0.2,0,0.4-0.1,0.5-0.2c0.1-0.1,0.2-0.3,0.2-0.5c0-0.1,0-0.2-0.1-0.4
		c-0.1-0.1-0.2-0.2-0.3-0.2c-0.1,0-0.3-0.1-0.6-0.1h-0.8v2.5h0.4V46.9z">
  </path>
 </g>
</svg>