<svg version="1.1" id="Layer_1" xmlns:x="ns_extend;" xmlns:i="ns_ai;" xmlns:graph="ns_graphs;" xmlns="http://www.w3.org/2000/svg" xmlns:xlink="http://www.w3.org/1999/xlink" x="0px" y="0px" viewBox="0 0 408.8 135" style="enable-background:new 0 0 408.8 135;" xml:space="preserve">
 <style type="text/css">
  .st0{fill-rule:evenodd;clip-rule:evenodd;fill:#00205B;}
 </style>
 <metadata>
  <sfw xmlns="ns_sfw;">
   <slices>
   </slices>
   <sliceSourceBounds bottomLeftOrigin="true" height="135" width="408.8" x="-366.9" y="5.1">
   </sliceSourceBounds>
  </sfw>
 </metadata>
 <g>
  <path class="st0" d="M12.9,15.4h15.3V0H12.9V15.4z M12.9,31h15.3v82.6c0,12.8-9.3,21.5-22.2,21.5H0v-14.5h4.3
		c5.2,0,8.5-2.4,8.5-8.2C12.9,112.3,12.9,31,12.9,31z M100.7,75.1V62.4c0-19.8-14.5-32.3-31.3-32.3C54.7,30.1,38,39.7,38,69.5
		c0,31.4,18.1,39,33.7,39c10.2,0,19.9-3.6,27.4-12.4l-11.1-9.5C83.6,91.3,77.3,94,71.4,94C61,94,53.3,87.6,53.3,75.1
		C53.3,75.1,100.7,75.1,100.7,75.1z M53.3,62.4c0.3-11.6,7-17.8,16-17.8s15.6,6.2,16,17.8H53.3L53.3,62.4z M112.8,7.7h15.3V31h11.1
		v11.8h-11.1v44.6c0,4.2,1.6,5.7,5.4,5.7h5.7v14.5h-8c-10.6,0-18.4-6.8-18.4-18.9V42.8h-7.6V31h7.6L112.8,7.7L112.8,7.7z
		 M188.4,14.5c11.7,0,17.2,7.1,17.2,15.4c0,8.5-5.5,15.4-17.2,15.4h-23.4V14.5L188.4,14.5L188.4,14.5z M148.9,107.6h45
		c16,0,29.7-11.9,29.7-30.5c0-10.9-5.7-22.1-17.4-24.8V52c12.4-5.6,15.7-14.2,15.7-23.1c0-16.9-10.8-28.9-31.6-28.9h-41.4
		C148.9,0,148.9,107.6,148.9,107.6z M189.9,59.8c12,0,17.4,7.7,17.4,16.2s-5.4,16.2-17.4,16.2h-24.9V59.8H189.9L189.9,59.8z
		 M232.3,0h15.3v87.8c0,3.5,1.9,5.3,5.7,5.3h5.2v14.5h-6.7c-11.1,0-19.5-4.8-19.5-18.6V0z M265,31h15.3v45.6
		c0,10.4,6.4,16.5,15.1,16.5c8.5,0,15-6,15-16.5V31h15.3v76.6h-15.3v-8.2h-0.3c-4.8,6-11.7,9.1-19.6,9.1c-12,0-25.5-9.2-25.5-26.6
		L265,31L265,31z M396.5,75.1V62.4c0-19.8-14.5-32.3-31.3-32.3c-14.7,0-31.3,9.7-31.3,39.4c0,31.4,18.1,39,33.7,39
		c10.2,0,19.9-3.6,27.4-12.4l-11.1-9.5c-4.5,4.7-10.8,7.4-16.6,7.4c-10.5,0-18.1-6.3-18.1-18.9C349.1,75.1,396.5,75.1,396.5,75.1z
		 M349.1,62.4c0.3-11.6,7-17.8,16-17.8c9,0,15.6,6.2,16,17.8H349.1L349.1,62.4z M400.8,35.8h0.9c1.1,0,2.1-0.1,2.1-1.1
		c0-0.9-0.9-1.1-1.8-1.1h-1.2C400.8,33.5,400.8,35.8,400.8,35.8z M399.5,32.3h3c1.8,0,2.7,0.7,2.7,2.4c0,1.6-0.9,2.2-2,2.3l2.3,3.3
		h-1.6l-2.3-3.2h-0.8v3.2h-1.3V32.3z M402.1,41.9c3,0,5.3-2.3,5.3-5.5c0-3.2-2.3-5.5-5.3-5.5c-3,0-5.3,2.3-5.3,5.5
		C396.8,39.6,399,41.9,402.1,41.9z M402.1,29.7c3.7,0,6.8,3.1,6.8,6.8c0,0,0,0,0,0c0,3.7-3,6.8-6.8,6.8c-1.8,0-3.5-0.7-4.8-2
		c-1.9-1.9-2.5-4.9-1.5-7.4C396.9,31.3,399.3,29.7,402.1,29.7z">
  </path>
 </g>
</svg>