<svg version="1.1" id="Layer_1" xmlns:x="ns_extend;" xmlns:i="ns_ai;" xmlns:graph="ns_graphs;" xmlns="http://www.w3.org/2000/svg" xmlns:xlink="http://www.w3.org/1999/xlink" x="0px" y="0px" viewBox="0 0 334.6 50" style="enable-background:new 0 0 334.6 50;" xml:space="preserve">
 <style type="text/css">
  .st0{fill-rule:evenodd;clip-rule:evenodd;fill:#FC3441;}
 </style>
 <metadata>
  <sfw xmlns="ns_sfw;">
   <slices>
   </slices>
   <sliceSourceBounds bottomLeftOrigin="true" height="50" width="334.6" x="-49.1" y="-212.9">
   </sliceSourceBounds>
  </sfw>
 </metadata>
 <g>
  <path class="st0" d="M205.4,27.9l-2.8-0.5c-2.8-0.5-5.1-1.2-5.1-4c0-2.5,2.5-3.6,5.6-3.6c4.6,0,8.7,2.2,9.1,2.4l2.6-6.9
		c-1-0.5-5.1-2.8-11.6-2.8c-6,0-13.2,3.2-13.2,11.2c0,7.2,5,9.5,9.8,10.3l3.3,0.6c3.2,0.6,5,1.8,5,4c0,2.8-2.5,4.1-6.3,4.1
		c-6.1,0-9.7-1.9-10.7-2.3l-2.8,6.7c0.9,0.5,5,2.9,13.2,2.9c7.9,0,14.2-4,14.2-11.5C215.6,31.5,211,28.9,205.4,27.9 M229.5,0
		L222,4.2v9h-3.9v7.3h3.9v15.9c0,6.8,2.7,12.8,12.3,12.8h3v-7.3h-1.1c-4.7,0-6.7-2.8-6.7-6.6V20.6h8.6v-7.3h-8.6L229.5,0 M287.8,20
		c2.9,0,5.9,1.4,6.8,4.6l6.8-2.6c-1.9-6.9-8.1-9.5-13.6-9.5c-9.8,0-13.8,6.3-13.8,12.4v12.7c0,6.1,4,12.4,13.8,12.4
		c5.5,0,11.7-2.6,13.6-9.5l-6.8-2.6c-0.9,3.3-3.9,4.7-6.8,4.7c-5.1,0-6.4-2.9-6.4-6.1V26.1C281.4,22.9,282.7,20,287.8,20
		 M319.7,29.4l14-16.2h-9.2l-12,14.1V0H305v49.3h7.5V37.8l2.4-2.9l10.7,14.3h8.9L319.7,29.4 M259,21.1h-7.8c-1.2,0-2.2,1-2.2,2.3
		v8.7h-7.7v-8.7c-0.1-5.5,4.4-10.1,9.9-10.2c0,0,0,0,0,0h7.8V21.1 M252.7,41.4h7.7c1.2,0,2.2-1,2.2-2.3v-8.7h7.7v8.7
		c0.1,5.5-4.4,10.1-9.9,10.1h-7.7V41.4 M126.1,13.2h8.6v7.4h-8.6v14.8c0,3.8,2,6.6,6.7,6.6h1.1v7.3h-3c-9.6,0-12.3-6.1-12.3-12.8
		V20.6h-12.6v14.8c0,3.8,2,6.6,6.7,6.6h1.1v7.3h-3c-9.6,0-12.3-6.1-12.3-12.8V20.6h-3.8v-7.4h3.8v-9l7.5-4.2v13.2h12.5v-9l7.5-4.2
		V13.2 M45.5,12.5c-2.4,0-4.8,0.5-6.9,1.4V0h-7.5v49.3h7.5V21.1c1.5-1,3.7-1.6,5.8-1.6c4.7,0,6.9,2.7,6.9,6.6v23.1h7.5V25.2
		C58.7,17.9,53.6,12.5,45.5,12.5 M83.3,42.1c-1.4,0.8-3.2,1.2-5,1.2c-5.6,0-7.7-2.9-7.7-6.9V13.2h-7.5v23.3
		c0,9.1,5.1,13.4,14.2,13.4c4.3,0,9.2-1.1,13.4-3V13.2h-7.5L83.3,42.1 M17.2,27.9l-2.8-0.5c-2.8-0.5-5.1-1.2-5.1-4
		c0-2.5,2.5-3.6,5.6-3.6c4.6,0,8.7,2.2,9.2,2.4l2.5-6.9c-1-0.5-5.1-2.8-11.6-2.8c-6,0-13.2,3.2-13.2,11.2c0,7.2,5,9.5,9.8,10.3
		l3.3,0.6c3.2,0.6,5,1.8,5,4c0,2.8-2.5,4.1-6.3,4.1c-6.1,0-9.7-1.9-10.7-2.3L0,47.1C0.9,47.6,5,50,13.2,50c7.9,0,14.2-4,14.2-11.5
		C27.3,31.5,22.8,28.9,17.2,27.9 M158,28.5h-12.6v-2.6c0-2.9,1.4-6.1,6.3-6.1c4.7,0,6.3,3,6.3,5.9V28.5z M165.5,24.9
		c0-6.6-4.9-12.4-13.7-12.4c-10,0-13.8,6.4-13.8,12.4v12c0,8.3,5.2,13.1,13.8,13.1c7.7,0,11.6-4.5,12.8-7.3l-6.3-3.9
		c-0.5,1.6-3,3.9-6.4,3.9c-4.6,0-6.4-2.6-6.4-6l0-2h20C165.5,34.8,165.5,24.9,165.5,24.9z M170.3,24.9v24.4h7.5V25.6
		c0-2.1,1.1-5.6,6.6-5.6c0.9,0,2.8,0.3,3.4,0.4v-7.5c-1.2-0.3-2.5-0.4-3.8-0.4C174.5,12.5,170.3,18.7,170.3,24.9">
  </path>
 </g>
</svg>